<svg width="204" height="192" viewBox="0 0 204 192" fill="none" xmlns="http://www.w3.org/2000/svg">
<path d="M60.1693 1C79.8397 16.9938 101.824 50.7807 101.824 62.776C101.824 50.7807 123.809 16.9938 143.479 1" stroke="#FF00E5" stroke-width="1.04472" stroke-linecap="round"/>
<path d="M93.5586 70.6055C93.5586 65.9496 97.3329 62.1753 101.989 62.1753V62.1753C106.645 62.1753 110.419 65.9496 110.419 70.6055V162.097H93.5586V70.6055Z" fill="#FF00E5"/>
<path d="M110.419 162.097H93.5586C93.5586 169.628 98.3522 183.588 101.823 186.527C104.964 183.772 110.419 169.812 110.419 162.097Z" fill="#FF00E5"/>
<path d="M27.6916 31.2881H41.5374C41.5374 31.2881 46.6049 31.2899 53.639 33.4925C69.5957 38.4892 82.9352 83.7331 97.7956 108.129H47.9779C28.5886 108.129 0 31.2881 0 31.2881H27.6916Z" fill="#FF00E5"/>
<path d="M24.8077 49.2114H31.5695C31.5695 49.2114 34.0443 49.2124 37.4795 50.4116C45.2723 53.132 51.7869 77.7646 59.0443 91.047H34.7148C25.2457 91.047 11.2839 49.2114 11.2839 49.2114H24.8077Z" fill="#FF00E5"/>
<path d="M85.7889 162.381C81.7558 177.04 66.2764 185.543 51.2147 181.374C36.153 177.205 27.2125 161.941 31.2456 147.283C35.2787 132.624 50.7581 124.12 65.8198 128.29C78.3847 131.768 86.6896 142.967 86.7563 155.094C86.7695 157.504 86.4575 159.951 85.7889 162.381Z" fill="#FF00E5"/>
<path d="M31.2456 147.283C35.2787 132.624 50.7581 124.12 65.8198 128.29C78.3847 131.768 86.6896 142.967 86.7563 155.094C87.7934 149.725 89.6774 144.005 92.7353 142.651L101.922 109.259C55.4654 98.6105 35.4475 130.171 31.2456 147.283Z" fill="#FF00E5"/>
<path d="M176.228 32.0273H162.382C162.382 32.0273 157.314 32.0291 150.28 34.2318C134.324 39.2284 120.984 84.4723 106.124 108.869H155.941C175.331 108.869 203.919 32.0273 203.919 32.0273H176.228Z" fill="#FF00E5"/>
<path d="M179.111 49.9507H172.349C172.349 49.9507 169.875 49.9517 166.439 51.1509C158.647 53.8712 152.132 78.5039 144.875 91.7863H169.204C178.673 91.7863 192.635 49.9507 192.635 49.9507H179.111Z" fill="#FF00E5"/>
<path d="M118.13 163.12C122.163 177.779 137.643 186.282 152.704 182.113C167.766 177.944 176.707 162.681 172.674 148.022C168.641 133.363 153.161 124.86 138.099 129.029C125.534 132.507 117.23 143.706 117.163 155.834C117.15 158.244 117.462 160.69 118.13 163.12Z" fill="#FF00E5"/>
<path d="M172.674 148.022C168.641 133.363 153.161 124.86 138.099 129.029C125.534 132.507 117.23 143.706 117.163 155.834C116.126 150.464 114.242 144.744 111.184 143.39L101.997 109.998C148.454 99.3497 168.472 130.91 172.674 148.022Z" fill="#FF00E5"/>
</svg>
