<svg width="196" height="179" viewBox="0 0 196 179" fill="none" xmlns="http://www.w3.org/2000/svg">
<path d="M58 1C76.8285 16.3092 97.872 48.65 97.872 60.1319C97.872 48.65 118.916 16.3092 137.744 1" stroke="#FF00E5" stroke-linecap="round"/>
<path d="M89.9602 67.626C89.9602 63.1694 93.573 59.5566 98.0295 59.5566V59.5566C102.486 59.5566 106.099 63.1694 106.099 67.626V155.202H89.9602V67.626Z" fill="#FF00E5"/>
<path d="M106.099 155.202H89.9602C89.9602 162.411 94.5487 175.773 97.8713 178.586C100.878 175.949 106.099 162.586 106.099 155.202Z" fill="#FF00E5"/>
<path d="M73.4633 33H0V95.2968L97.9497 116.059L73.4633 33Z" fill="#FF00E5"/>
<path d="M121.723 171.749L97.2366 109.46L170.7 130.222" fill="#FF00E5"/>
<path d="M170.7 171.749H121.723L97.2366 109.46L170.7 130.222V171.749Z" fill="#FF00E5"/>
<path d="M72.7143 171.749L97.2006 109.46L23.7373 130.222" fill="#FF00E5"/>
<path d="M23.7373 171.749H72.7143L97.2006 109.46L23.7373 130.222V171.749Z" fill="#FF00E5"/>
<path d="M122.537 33H196V95.2968L98.0503 116.059L122.537 33Z" fill="#FF00E5"/>
</svg>
