<svg width="658" height="657" viewBox="0 0 658 657" fill="none" xmlns="http://www.w3.org/2000/svg">
<g opacity="0.38">
<path d="M167.474 6.44165L167.474 650.957" stroke="#FF00E5" stroke-width="0.78482"/>
<path d="M650.86 167.57L6.34523 167.57" stroke="#FF00E5" stroke-width="0.78482"/>
<path d="M328.603 6.44165L328.603 650.957" stroke="#FF00E5" stroke-width="0.78482"/>
<path d="M650.86 328.699L6.34523 328.699" stroke="#FF00E5" stroke-width="0.78482"/>
<path d="M489.731 6.44165L489.731 650.957" stroke="#FF00E5" stroke-width="0.78482"/>
<path d="M650.86 489.828L6.34523 489.828" stroke="#FF00E5" stroke-width="0.78482"/>
<path d="M6.46484 161.125V167.69M6.46484 174.255V167.69M6.46484 167.69H-0.100098H13.0298H6.46484Z" stroke="#FF00E5" stroke-width="1.60401"/>
<path d="M167.593 -0.00341797V6.56153M167.593 13.1265V6.56153M167.593 6.56153H161.028H174.158H167.593Z" stroke="#FF00E5" stroke-width="1.60401"/>
<path d="M328.723 161.125V167.69M328.723 174.255V167.69M328.723 167.69H322.158H335.288H328.723Z" stroke="#FF00E5" stroke-width="1.60401"/>
<path d="M328.723 -0.00341797V6.56153M328.723 13.1265V6.56153M328.723 6.56153H322.158H335.288H328.723Z" stroke="#FF00E5" stroke-width="1.60401"/>
<path d="M489.851 -0.00341797V6.56153M489.851 13.1265V6.56153M489.851 6.56153H483.286H496.416H489.851Z" stroke="#FF00E5" stroke-width="1.60401"/>
<path d="M650.98 161.125V167.69M650.98 174.255V167.69M650.98 167.69H644.415H657.545H650.98Z" stroke="#FF00E5" stroke-width="1.60401"/>
<path d="M650.98 322.254V328.819M650.98 335.384V328.819M650.98 328.819H644.415H657.545H650.98Z" stroke="#FF00E5" stroke-width="1.60401"/>
<path d="M650.98 483.384V489.949M650.98 496.514V489.949M650.98 489.949H644.415H657.545H650.98Z" stroke="#FF00E5" stroke-width="1.60401"/>
<path d="M489.851 644.512V651.077M489.851 657.642V651.077M489.851 651.077H483.286H496.416H489.851Z" stroke="#FF00E5" stroke-width="1.60401"/>
<path d="M328.723 644.512V651.077M328.723 657.642V651.077M328.723 651.077H322.158H335.288H328.723Z" stroke="#FF00E5" stroke-width="1.60401"/>
<path d="M167.593 644.512V651.077M167.593 657.642V651.077M167.593 651.077H161.028H174.158H167.593Z" stroke="#FF00E5" stroke-width="1.60401"/>
<path d="M6.46484 483.384V489.949M6.46484 496.514V489.949M6.46484 489.949H-0.100098H13.0298H6.46484Z" stroke="#FF00E5" stroke-width="1.60401"/>
<path d="M6.46484 322.254V328.819M6.46484 335.384V328.819M6.46484 328.819H-0.100098H13.0298H6.46484Z" stroke="#FF00E5" stroke-width="1.60401"/>
<path d="M328.723 483.384V489.949M328.723 496.514V489.949M328.723 489.949H322.158H335.288H328.723Z" stroke="#FF00E5" stroke-width="1.60401"/>
</g>
</svg>
