<svg width="44" height="120" viewBox="0 0 44 120" fill="none" xmlns="http://www.w3.org/2000/svg">
<mask id="path-1-inside-1_85_5273" fill="white">
<path d="M14.1885 119.62C12.6375 120.26 10.8581 119.523 10.2492 117.959C3.02944 99.4177 -0.442876 79.6176 0.0451504 59.7058C0.533177 39.794 4.97132 20.1877 13.0908 2.0221C13.7755 0.490209 15.589 -0.15904 17.1067 0.556472L41.9363 12.2619C43.4541 12.9774 44.1006 14.7863 43.4247 16.3221C37.2898 30.264 33.9356 45.2803 33.5619 60.5273C33.1882 75.7742 35.8028 90.9368 41.2473 105.162C41.8471 106.73 41.1127 108.505 39.5618 109.145L14.1885 119.62Z"/>
</mask>
<path d="M14.1885 119.62C12.6375 120.26 10.8581 119.523 10.2492 117.959C3.02944 99.4177 -0.442876 79.6176 0.0451504 59.7058C0.533177 39.794 4.97132 20.1877 13.0908 2.0221C13.7755 0.490209 15.589 -0.15904 17.1067 0.556472L41.9363 12.2619C43.4541 12.9774 44.1006 14.7863 43.4247 16.3221C37.2898 30.264 33.9356 45.2803 33.5619 60.5273C33.1882 75.7742 35.8028 90.9368 41.2473 105.162C41.8471 106.73 41.1127 108.505 39.5618 109.145L14.1885 119.62Z" fill="#00FFE0" stroke="#FF00E5" stroke-width="4" mask="url(#path-1-inside-1_85_5273)"/>
</svg>
