<svg width="108" height="81" viewBox="0 0 108 81" fill="none" xmlns="http://www.w3.org/2000/svg">
<mask id="path-1-inside-1_85_5271" fill="white">
<path d="M3.48972 3.03366C3.68443 1.36705 5.19401 0.170688 6.85635 0.399027C26.5689 3.10674 45.5588 9.70102 62.7205 19.8102C79.8822 29.9193 94.856 43.3315 106.781 59.2599C107.786 60.6031 107.472 62.5034 106.109 63.4817L83.8063 79.4858C82.443 80.464 80.548 80.1493 79.5346 78.812C70.3355 66.6716 58.8452 56.4385 45.7042 48.6978C32.5631 40.957 18.0425 35.8683 2.96453 33.7081C1.30354 33.4701 0.109602 31.9653 0.304315 30.2987L3.48972 3.03366Z"/>
</mask>
<path d="M3.48972 3.03366C3.68443 1.36705 5.19401 0.170688 6.85635 0.399027C26.5689 3.10674 45.5588 9.70102 62.7205 19.8102C79.8822 29.9193 94.856 43.3315 106.781 59.2599C107.786 60.6031 107.472 62.5034 106.109 63.4817L83.8063 79.4858C82.443 80.464 80.548 80.1493 79.5346 78.812C70.3355 66.6716 58.8452 56.4385 45.7042 48.6978C32.5631 40.957 18.0425 35.8683 2.96453 33.7081C1.30354 33.4701 0.109602 31.9653 0.304315 30.2987L3.48972 3.03366Z" fill="#00FFE0" stroke="#FF00E5" stroke-width="4" mask="url(#path-1-inside-1_85_5271)"/>
</svg>
