<svg width="110" height="77" viewBox="0 0 110 77" fill="none" xmlns="http://www.w3.org/2000/svg">
<mask id="path-1-inside-1_69_373" fill="white">
<path d="M107.631 73.4195C107.52 75.0938 106.072 76.3641 104.4 76.2192C84.5768 74.5005 65.2809 68.8639 47.6352 59.6255C29.9895 50.3871 14.3639 37.7404 1.65752 22.4281C0.586002 21.1368 0.805119 19.2232 2.11777 18.178L23.5921 1.07881C24.9047 0.0335958 26.8131 0.253163 27.892 1.5382C37.6867 13.2034 49.6742 22.8492 63.1859 29.9233C76.6976 36.9973 91.4544 41.3536 106.622 42.7572C108.292 42.9119 109.56 44.3551 109.449 46.0294L107.631 73.4195Z"/>
</mask>
<path d="M107.631 73.4195C107.52 75.0938 106.072 76.3641 104.4 76.2192C84.5768 74.5005 65.2809 68.8639 47.6352 59.6255C29.9895 50.3871 14.3639 37.7404 1.65752 22.4281C0.586002 21.1368 0.805119 19.2232 2.11777 18.178L23.5921 1.07881C24.9047 0.0335958 26.8131 0.253163 27.892 1.5382C37.6867 13.2034 49.6742 22.8492 63.1859 29.9233C76.6976 36.9973 91.4544 41.3536 106.622 42.7572C108.292 42.9119 109.56 44.3551 109.449 46.0294L107.631 73.4195Z" fill="#00FFE0" stroke="#FF00E5" stroke-width="4" mask="url(#path-1-inside-1_69_373)"/>
</svg>
