<svg width="108" height="79" viewBox="0 0 108 79" fill="none" xmlns="http://www.w3.org/2000/svg">
<mask id="path-1-inside-1_85_5272" fill="white">
<path d="M1.19271 61.0744C-0.141862 60.0574 -0.401609 58.1488 0.642215 56.835C13.0202 41.2561 28.3735 28.2801 45.8189 18.6687C63.2642 9.05722 82.4359 3.01179 102.218 0.872091C103.886 0.691652 105.361 1.93093 105.508 3.60245L107.908 30.9478C108.054 32.6193 106.818 34.0892 105.15 34.2793C90.0166 36.005 75.3557 40.674 61.9974 48.0337C48.6391 55.3933 36.8594 65.2918 27.3149 77.1625C26.2635 78.4702 24.3602 78.7303 23.0256 77.7132L1.19271 61.0744Z"/>
</mask>
<path d="M1.19271 61.0744C-0.141862 60.0574 -0.401609 58.1488 0.642215 56.835C13.0202 41.2561 28.3735 28.2801 45.8189 18.6687C63.2642 9.05722 82.4359 3.01179 102.218 0.872091C103.886 0.691652 105.361 1.93093 105.508 3.60245L107.908 30.9478C108.054 32.6193 106.818 34.0892 105.15 34.2793C90.0166 36.005 75.3557 40.674 61.9974 48.0337C48.6391 55.3933 36.8594 65.2918 27.3149 77.1625C26.2635 78.4702 24.3602 78.7303 23.0256 77.7132L1.19271 61.0744Z" fill="#00FFE0" stroke="#FF00E5" stroke-width="4" mask="url(#path-1-inside-1_85_5272)"/>
</svg>
