<svg width="43" height="121" viewBox="0 0 43 121" fill="none" xmlns="http://www.w3.org/2000/svg">
<mask id="path-1-inside-1_85_5274" fill="white">
<path d="M27.1958 0.890036C28.7309 0.212484 30.5276 0.906625 31.174 2.45507C38.8393 20.817 42.7885 40.5275 42.7813 60.4453C42.7741 80.3631 38.8105 100.071 31.1319 118.427C30.4843 119.975 28.6871 120.668 27.1525 119.989L2.04759 108.887C0.513018 108.208 -0.176957 106.415 0.461592 104.863C6.25817 90.7775 9.24893 75.6846 9.25447 60.4331C9.26001 45.1816 6.28022 30.0865 0.493876 15.9964C-0.143546 14.4443 0.547733 12.652 2.0828 11.9745L27.1958 0.890036Z"/>
</mask>
<path d="M27.1958 0.890036C28.7309 0.212484 30.5276 0.906625 31.174 2.45507C38.8393 20.817 42.7885 40.5275 42.7813 60.4453C42.7741 80.3631 38.8105 100.071 31.1319 118.427C30.4843 119.975 28.6871 120.668 27.1525 119.989L2.04759 108.887C0.513018 108.208 -0.176957 106.415 0.461592 104.863C6.25817 90.7775 9.24893 75.6846 9.25447 60.4331C9.26001 45.1816 6.28022 30.0865 0.493876 15.9964C-0.143546 14.4443 0.547733 12.652 2.0828 11.9745L27.1958 0.890036Z" fill="#00FFE0" stroke="#FF00E5" stroke-width="4" mask="url(#path-1-inside-1_85_5274)"/>
</svg>
