<svg width="301" height="301" viewBox="0 0 301 301" fill="none" xmlns="http://www.w3.org/2000/svg">
<mask id="path-1-inside-1_85_5276" fill="white">
<path d="M167.49 4.03366C167.684 2.36705 169.194 1.17069 170.856 1.39903C190.569 4.10674 209.559 10.701 226.72 20.8102C243.882 30.9193 258.856 44.3315 270.781 60.2599C271.786 61.6031 271.472 63.5034 270.109 64.4817L247.806 80.4858C246.443 81.464 244.548 81.1493 243.535 79.812C234.335 67.6716 222.845 57.4385 209.704 49.6978C196.563 41.957 182.043 36.8683 166.965 34.7081C165.304 34.4701 164.11 32.9653 164.304 31.2987L167.49 4.03366Z"/>
</mask>
<path d="M167.49 4.03366C167.684 2.36705 169.194 1.17069 170.856 1.39903C190.569 4.10674 209.559 10.701 226.72 20.8102C243.882 30.9193 258.856 44.3315 270.781 60.2599C271.786 61.6031 271.472 63.5034 270.109 64.4817L247.806 80.4858C246.443 81.464 244.548 81.1493 243.535 79.812C234.335 67.6716 222.845 57.4385 209.704 49.6978C196.563 41.957 182.043 36.8683 166.965 34.7081C165.304 34.4701 164.11 32.9653 164.304 31.2987L167.49 4.03366Z" stroke="#FF00E5" stroke-width="4" mask="url(#path-1-inside-1_85_5276)"/>
<mask id="path-2-inside-2_85_5276" fill="white">
<path d="M33.1927 61.0744C31.8581 60.0574 31.5984 58.1488 32.6422 56.835C45.0202 41.2561 60.3735 28.2801 77.8189 18.6687C95.2642 9.05722 114.436 3.01179 134.218 0.872091C135.886 0.691652 137.361 1.93093 137.508 3.60245L139.908 30.9478C140.054 32.6193 138.818 34.0892 137.15 34.2793C122.017 36.005 107.356 40.674 93.9974 48.0337C80.6391 55.3933 68.8594 65.2918 59.3149 77.1625C58.2635 78.4702 56.3602 78.7303 55.0256 77.7132L33.1927 61.0744Z"/>
</mask>
<path d="M33.1927 61.0744C31.8581 60.0574 31.5984 58.1488 32.6422 56.835C45.0202 41.2561 60.3735 28.2801 77.8189 18.6687C95.2642 9.05722 114.436 3.01179 134.218 0.872091C135.886 0.691652 137.361 1.93093 137.508 3.60245L139.908 30.9478C140.054 32.6193 138.818 34.0892 137.15 34.2793C122.017 36.005 107.356 40.674 93.9974 48.0337C80.6391 55.3933 68.8594 65.2918 59.3149 77.1625C58.2635 78.4702 56.3602 78.7303 55.0256 77.7132L33.1927 61.0744Z" stroke="#FF00E5" stroke-width="4" mask="url(#path-2-inside-2_85_5276)"/>
<mask id="path-3-inside-3_85_5276" fill="white">
<path d="M14.1885 206.62C12.6375 207.26 10.8581 206.523 10.2492 204.959C3.02944 186.418 -0.442876 166.618 0.0451504 146.706C0.533177 126.794 4.97132 107.188 13.0908 89.0221C13.7755 87.4902 15.589 86.841 17.1067 87.5565L41.9363 99.2619C43.4541 99.9774 44.1006 101.786 43.4247 103.322C37.2898 117.264 33.9356 132.28 33.5619 147.527C33.1882 162.774 35.8028 177.937 41.2473 192.162C41.8471 193.73 41.1127 195.505 39.5618 196.145L14.1885 206.62Z"/>
</mask>
<path d="M14.1885 206.62C12.6375 207.26 10.8581 206.523 10.2492 204.959C3.02944 186.418 -0.442876 166.618 0.0451504 146.706C0.533177 126.794 4.97132 107.188 13.0908 89.0221C13.7755 87.4902 15.589 86.841 17.1067 87.5565L41.9363 99.2619C43.4541 99.9774 44.1006 101.786 43.4247 103.322C37.2898 117.264 33.9356 132.28 33.5619 147.527C33.1882 162.774 35.8028 177.937 41.2473 192.162C41.8471 193.73 41.1127 195.505 39.5618 196.145L14.1885 206.62Z" stroke="#FF00E5" stroke-width="4" mask="url(#path-3-inside-3_85_5276)"/>
<mask id="path-4-inside-4_85_5276" fill="white">
<path d="M285.196 90.89C286.731 90.2125 288.528 90.9066 289.174 92.4551C296.839 110.817 300.789 130.528 300.781 150.445C300.774 170.363 296.81 190.071 289.132 208.427C288.484 209.975 286.687 210.668 285.153 209.989L260.048 198.887C258.513 198.208 257.823 196.415 258.462 194.863C264.258 180.778 267.249 165.685 267.254 150.433C267.26 135.182 264.28 120.087 258.494 105.996C257.856 104.444 258.548 102.652 260.083 101.974L285.196 90.89Z"/>
</mask>
<path d="M285.196 90.89C286.731 90.2125 288.528 90.9066 289.174 92.4551C296.839 110.817 300.789 130.528 300.781 150.445C300.774 170.363 296.81 190.071 289.132 208.427C288.484 209.975 286.687 210.668 285.153 209.989L260.048 198.887C258.513 198.208 257.823 196.415 258.462 194.863C264.258 180.778 267.249 165.685 267.254 150.433C267.26 135.182 264.28 120.087 258.494 105.996C257.856 104.444 258.548 102.652 260.083 101.974L285.196 90.89Z" stroke="#FF00E5" stroke-width="4" mask="url(#path-4-inside-4_85_5276)"/>
<mask id="path-5-inside-5_85_5276" fill="white">
<path d="M140.631 297.42C140.52 299.094 139.072 300.364 137.4 300.219C117.577 298.5 98.2809 292.864 80.6352 283.626C62.9895 274.387 47.3639 261.74 34.6575 246.428C33.586 245.137 33.8051 243.223 35.1178 242.178L56.5921 225.079C57.9047 224.034 59.8131 224.253 60.892 225.538C70.6867 237.203 82.6742 246.849 96.1859 253.923C109.698 260.997 124.454 265.354 139.622 266.757C141.292 266.912 142.56 268.355 142.449 270.029L140.631 297.42Z"/>
</mask>
<path d="M140.631 297.42C140.52 299.094 139.072 300.364 137.4 300.219C117.577 298.5 98.2809 292.864 80.6352 283.626C62.9895 274.387 47.3639 261.74 34.6575 246.428C33.586 245.137 33.8051 243.223 35.1178 242.178L56.5921 225.079C57.9047 224.034 59.8131 224.253 60.892 225.538C70.6867 237.203 82.6742 246.849 96.1859 253.923C109.698 260.997 124.454 265.354 139.622 266.757C141.292 266.912 142.56 268.355 142.449 270.029L140.631 297.42Z" stroke="#FF00E5" stroke-width="4" mask="url(#path-5-inside-5_85_5276)"/>
</svg>
