<svg width="301" height="301" viewBox="0 0 301 301" fill="none" xmlns="http://www.w3.org/2000/svg">
<path d="M170.72 2.38972C190.302 5.07943 209.165 11.6299 226.213 21.6718C243.26 31.7137 258.135 45.0367 269.98 60.8592C270.642 61.7435 270.444 63.0098 269.526 63.6692L247.223 79.6733C246.314 80.3258 245.028 80.1267 244.332 79.208C235.054 66.9638 223.465 56.6432 210.212 48.8361C196.958 41.0291 182.313 35.8969 167.106 33.7182C165.965 33.5547 165.168 32.5263 165.297 31.4147L168.483 4.1497C168.614 3.02633 169.626 2.23941 170.72 2.38972Z" fill="#672121" stroke="#FF00E5" stroke-width="2"/>
<path d="M33.4253 57.4571C45.721 41.9818 60.9722 29.092 78.3015 19.5445C95.6308 9.99697 114.675 3.99173 134.326 1.86627C135.424 1.74748 136.413 2.56317 136.512 3.68986L138.912 31.0352C139.009 32.15 138.182 33.1551 137.037 33.2857C121.774 35.0262 106.988 39.7351 93.515 47.1578C80.0424 54.5804 68.1618 64.5635 58.5357 76.5359C57.8134 77.4342 56.522 77.5962 55.6319 76.9178L33.799 60.279C32.8994 59.5935 32.7381 58.3219 33.4253 57.4571Z" fill="#CB8282" stroke="#FF00E5" stroke-width="2"/>
<path d="M11.1811 204.596C4.0093 186.178 0.560072 166.51 1.04485 146.73C1.52964 126.951 5.93827 107.475 14.0038 89.4302C14.4545 88.4217 15.6573 87.9787 16.6803 88.461L41.5099 100.166C42.5222 100.644 42.9737 101.864 42.5094 102.919C36.322 116.981 32.9391 132.125 32.5622 147.503C32.1853 162.88 34.8223 178.172 40.3134 192.52C40.7254 193.596 40.2146 194.793 39.1802 195.221L13.8069 205.696C12.7615 206.127 11.5819 205.626 11.1811 204.596Z" fill="#6C4545" stroke="#FF00E5" stroke-width="2"/>
<path d="M288.251 92.8403C295.866 111.08 299.789 130.66 299.781 150.445C299.774 170.23 295.837 189.807 288.209 208.041C287.783 209.06 286.591 209.532 285.557 209.075L260.452 197.972C259.429 197.519 258.948 196.31 259.386 195.244C265.233 181.038 268.249 165.815 268.254 150.433C268.26 135.051 265.255 119.827 259.419 105.617C258.981 104.55 259.463 103.341 260.487 102.889L285.6 91.8049C286.634 91.3482 287.826 91.821 288.251 92.8403Z" fill="#D9D9D9" stroke="#FF00E5" stroke-width="2"/>
<mask id="path-5-inside-1_137_5378" fill="white">
<path d="M140.631 297.42C140.52 299.094 139.072 300.364 137.4 300.219C117.577 298.5 98.2809 292.864 80.6352 283.626C62.9895 274.387 47.3639 261.74 34.6575 246.428C33.586 245.137 33.8051 243.223 35.1178 242.178L56.5921 225.079C57.9047 224.034 59.8131 224.253 60.892 225.538C70.6867 237.203 82.6742 246.849 96.1859 253.923C109.698 260.997 124.454 265.354 139.622 266.757C141.292 266.912 142.56 268.355 142.449 270.029L140.631 297.42Z"/>
</mask>
<path d="M140.631 297.42C140.52 299.094 139.072 300.364 137.4 300.219C117.577 298.5 98.2809 292.864 80.6352 283.626C62.9895 274.387 47.3639 261.74 34.6575 246.428C33.586 245.137 33.8051 243.223 35.1178 242.178L56.5921 225.079C57.9047 224.034 59.8131 224.253 60.892 225.538C70.6867 237.203 82.6742 246.849 96.1859 253.923C109.698 260.997 124.454 265.354 139.622 266.757C141.292 266.912 142.56 268.355 142.449 270.029L140.631 297.42Z" fill="#00FFE0" stroke="#FF00E5" stroke-width="4" mask="url(#path-5-inside-1_137_5378)"/>
</svg>
