<svg width="190" height="174" viewBox="0 0 190 174" fill="none" xmlns="http://www.w3.org/2000/svg">
<path d="M94.7477 135.053L78.5321 135.053L78.5321 93.3561L78.5321 51.6589L94.7477 51.6589L110.963 51.6589L110.963 93.3561L110.963 135.053L94.7477 135.053Z" fill="#00FFE0"/>
<path fill-rule="evenodd" clip-rule="evenodd" d="M124.981 149.071L120.467 153.585L94.7477 153.585L69.0282 153.585L64.5141 149.071L60 144.557L60 93.3561L60 42.155L64.5141 37.6409L69.0282 33.1268L94.7477 33.1268L120.467 33.1268L124.981 37.6409L129.495 42.155L129.495 93.3561L129.495 144.557L124.981 149.071ZM71.1193 142.466C73.7014 145.048 115.794 145.048 118.376 142.466C121.025 139.818 121.025 46.8946 118.376 44.2461C115.794 41.6639 73.7014 41.6639 71.1193 44.2461C68.4707 46.8946 68.4707 139.818 71.1193 142.466Z" fill="#413F53"/>
<path fill-rule="evenodd" clip-rule="evenodd" d="M118.376 142.466C115.794 145.048 73.7014 145.048 71.1193 142.466C68.4707 139.818 68.4707 46.8946 71.1193 44.2461C73.7014 41.6639 115.794 41.6639 118.376 44.2461C121.025 46.8946 121.025 139.818 118.376 142.466ZM78.5321 135.053L94.7477 135.053L110.963 135.053L110.963 93.3561L110.963 51.6589L94.7477 51.6589L78.5321 51.6589L78.5321 93.3561L78.5321 135.053Z" fill="#413F53"/>
<path d="M94.7477 28.4938L82.9597 28.4938L83.4493 24.2468C83.9296 20.0648 84.1025 19.9999 94.7477 19.9999C105.393 19.9999 105.566 20.0647 106.046 24.2468L106.536 28.4938L94.7477 28.4938Z" fill="#413F53"/>
<path d="M78.5321 136.053L77.5321 136.053L77.5321 135.053L77.5321 93.3561L77.5321 51.6589L77.5321 50.6589L78.5321 50.6589L94.7477 50.6589L110.963 50.6589L111.963 50.6589L111.963 51.6589L111.963 93.3561L111.963 135.053L111.963 136.053L110.963 136.053L94.7477 136.053L78.5321 136.053ZM119.083 143.173C118.735 143.521 118.21 143.729 117.747 143.874C117.237 144.034 116.603 144.174 115.88 144.299C114.431 144.549 112.528 144.754 110.34 144.916C105.958 145.241 100.347 145.403 94.7477 145.403C89.148 145.403 83.5375 145.241 79.1554 144.916C76.9672 144.754 75.0645 144.549 73.6153 144.299C72.8925 144.174 72.2584 144.034 71.7482 143.874C71.2856 143.729 70.7599 143.521 70.4122 143.173C70.1365 142.898 70.0001 142.505 69.9225 142.252C69.8278 141.942 69.7444 141.56 69.6687 141.128C69.5166 140.26 69.3792 139.092 69.2541 137.682C69.0035 134.857 68.7959 130.979 68.6301 126.411C68.2985 117.269 68.1329 105.31 68.1329 93.3561C68.1329 81.4026 68.2985 69.4432 68.6301 60.3016C68.7959 55.733 69.0035 51.8553 69.2541 49.0299C69.3792 47.6199 69.5166 46.452 69.6687 45.5839C69.7444 45.1518 69.8278 44.7703 69.9225 44.4607C70.0001 44.2072 70.1365 43.8146 70.4122 43.539C70.7599 43.1912 71.2856 42.9828 71.7482 42.8379C72.2584 42.6781 72.8925 42.5381 73.6153 42.4134C75.0645 42.1633 76.9672 41.9587 79.1554 41.7963C83.5375 41.4712 89.148 41.3095 94.7477 41.3094C100.347 41.3094 105.958 41.4712 110.34 41.7963C112.528 41.9587 114.431 42.1633 115.88 42.4134C116.603 42.5381 117.237 42.6781 117.747 42.8379C118.21 42.9828 118.735 43.1912 119.083 43.5389C119.359 43.8146 119.495 44.2072 119.573 44.4607C119.668 44.7703 119.751 45.1518 119.827 45.5839C119.979 46.452 120.116 47.6199 120.241 49.0299C120.492 51.8553 120.7 55.733 120.865 60.3016C121.197 69.4432 121.363 81.4026 121.363 93.3561C121.363 105.31 121.197 117.269 120.865 126.411C120.7 130.979 120.492 134.857 120.241 137.682C120.116 139.092 119.979 140.26 119.827 141.128C119.751 141.56 119.668 141.942 119.573 142.252C119.495 142.505 119.359 142.898 119.083 143.173ZM71.8739 141.782C71.9418 141.818 72.085 141.884 72.3461 141.966C72.7374 142.088 73.275 142.211 73.9553 142.328C75.3123 142.562 77.1419 142.761 79.3034 142.921C83.6206 143.242 89.1787 143.403 94.7477 143.403C100.317 143.403 105.875 143.242 110.192 142.921C112.353 142.761 114.183 142.562 115.54 142.328C116.22 142.211 116.758 142.088 117.149 141.966C117.41 141.884 117.554 141.818 117.622 141.782C117.632 141.754 117.645 141.716 117.66 141.666C117.721 141.469 117.788 141.178 117.857 140.783C117.994 139.998 118.126 138.895 118.249 137.506C118.495 134.732 118.701 130.895 118.867 126.338C119.197 117.229 119.363 105.295 119.363 93.3561C119.363 81.4168 119.197 69.4833 118.867 60.3741C118.701 55.8173 118.495 51.9802 118.249 49.2066C118.126 47.817 117.994 46.7144 117.857 45.9291C117.788 45.5344 117.721 45.2435 117.66 45.0459C117.645 44.9961 117.632 44.9581 117.622 44.9299C117.554 44.8947 117.41 44.8282 117.149 44.7464C116.758 44.6238 116.22 44.5016 115.54 44.3842C114.183 44.1501 112.353 43.9513 110.192 43.7909C105.875 43.4705 100.317 43.3094 94.7477 43.3094C89.1787 43.3095 83.6205 43.4705 79.3034 43.7909C77.1419 43.9513 75.3123 44.1501 73.9553 44.3842C73.275 44.5016 72.7374 44.6239 72.3461 44.7464C72.085 44.8282 71.9418 44.8947 71.8739 44.9299C71.8634 44.9581 71.8502 44.9961 71.835 45.0459C71.7745 45.2435 71.7078 45.5344 71.6387 45.9291C71.5011 46.7144 71.3696 47.817 71.2463 49.2066C71.0003 51.9802 70.7941 55.8173 70.6288 60.3741C70.2983 69.4833 70.1329 81.4168 70.1329 93.3561C70.1329 105.295 70.2983 117.229 70.6288 126.338C70.7941 130.895 71.0003 134.732 71.2463 137.506C71.3696 138.895 71.5011 139.998 71.6387 140.783C71.7078 141.178 71.7745 141.469 71.835 141.666C71.8502 141.716 71.8634 141.754 71.8739 141.782ZM79.5321 93.3561L79.5321 134.053L94.7477 134.053L109.963 134.053L109.963 93.3561L109.963 52.6589L94.7477 52.6589L79.5321 52.6589L79.5321 93.3561ZM84.0816 27.4938L94.7477 27.4938L105.414 27.4938L105.053 24.3613L105.053 24.3609C104.928 23.272 104.837 22.642 104.653 22.2069C104.516 21.8794 104.331 21.6692 103.857 21.4911C103.299 21.2816 102.403 21.1454 100.89 21.0743C99.3974 21.0042 97.4171 20.9999 94.7477 20.9999C92.0783 20.9999 90.098 21.0042 88.6058 21.0743C87.0921 21.1454 86.1959 21.2816 85.6385 21.4911C85.1647 21.6692 84.9798 21.8794 84.842 22.2069C84.6589 22.642 84.5678 23.272 84.4428 24.3609L84.4427 24.3613L84.0816 27.4938ZM94.7477 152.585L120.053 152.585L124.274 148.364L128.495 144.143L128.495 93.3561L128.495 42.5692L124.274 38.348L120.053 34.1268L94.7477 34.1268L69.4424 34.1268L65.2212 38.348L61 42.5692L61 93.3561L61 144.143L65.2212 148.364L69.4425 152.585L94.7477 152.585Z" stroke="#FF00E5" stroke-width="2"/>
<path d="M83 28H106V22.5L103 20.5H86.0001L83 22.5V28Z" fill="#413F53"/>
<path fill-rule="evenodd" clip-rule="evenodd" d="M70.0002 34H118.703C119.215 34 119.707 34.1962 120.079 34.5481L128.376 42.4084C128.774 42.7861 129 43.3111 129 43.8603V143.672C129 144.202 128.789 144.711 128.414 145.086L120.086 153.414C119.711 153.789 119.202 154 118.672 154H70.0315C69.5011 154 68.9924 153.789 68.6173 153.414L60.2889 145.086C59.9138 144.711 59.7031 144.202 59.7031 143.672V43.8603C59.7031 43.3111 59.929 42.7861 60.3276 42.4084L68.6246 34.5481C68.9961 34.1962 69.4885 34 70.0002 34ZM116.998 142.74C99.3419 145.435 80.9256 143.994 72.4625 142.733C71.5901 142.602 70.9262 141.92 70.8262 141.043C67.9215 115.578 68.979 65.3083 70.8508 45.4988C70.9354 44.6037 71.6139 43.8959 72.5027 43.7602C90.1585 41.0647 108.575 42.5059 117.038 43.7675C117.91 43.8976 118.574 44.5803 118.674 45.4567C121.579 70.9222 120.521 121.192 118.649 141.001C118.565 141.896 117.886 142.604 116.998 142.74Z" fill="#413F53"/>
<path fill-rule="evenodd" clip-rule="evenodd" d="M72.4625 142.733C80.9256 143.994 99.3419 145.435 116.998 142.74C117.886 142.604 118.565 141.896 118.649 141.001C120.521 121.192 121.579 70.9222 118.674 45.4567C118.574 44.5803 117.91 43.8976 117.038 43.7675C108.575 42.5059 90.1585 41.0647 72.5027 43.7602C71.6139 43.8959 70.9354 44.6037 70.8508 45.4988C68.979 65.3083 67.9215 115.578 70.8262 141.043C70.9262 141.92 71.5901 142.602 72.4625 142.733ZM109 51H80.5002C79.3956 51 78.5002 51.8955 78.5002 53V133C78.5002 134.105 79.3956 135 80.5002 135H109C110.105 135 111 134.105 111 133V53C111 51.8955 110.105 51 109 51Z" fill="#413F53"/>
<path d="M80.5002 51H109C110.105 51 111 51.8955 111 53V133C111 134.105 110.105 135 109 135H80.5002C79.3956 135 78.5002 134.105 78.5002 133V53C78.5002 51.8955 79.3956 51 80.5002 51Z" fill="#00FFE0"/>
<path d="M83 28H106V22.5L103 20.5H86.0001L83 22.5V28Z" stroke="#FF00E5" stroke-width="2"/>
<path fill-rule="evenodd" clip-rule="evenodd" d="M70.0002 34H118.703C119.215 34 119.707 34.1962 120.079 34.5481L128.376 42.4084C128.774 42.7861 129 43.3111 129 43.8603V143.672C129 144.202 128.789 144.711 128.414 145.086L120.086 153.414C119.711 153.789 119.202 154 118.672 154H70.0315C69.5011 154 68.9924 153.789 68.6173 153.414L60.2889 145.086C59.9138 144.711 59.7031 144.202 59.7031 143.672V43.8603C59.7031 43.3111 59.929 42.7861 60.3276 42.4084L68.6246 34.5481C68.9961 34.1962 69.4885 34 70.0002 34ZM116.998 142.74C99.3419 145.435 80.9256 143.994 72.4625 142.733C71.5901 142.602 70.9262 141.92 70.8262 141.043C67.9215 115.578 68.979 65.3083 70.8508 45.4988C70.9354 44.6037 71.6139 43.8959 72.5027 43.7602C90.1585 41.0647 108.575 42.5059 117.038 43.7675C117.91 43.8976 118.574 44.5803 118.674 45.4567C121.579 70.9222 120.521 121.192 118.649 141.001C118.565 141.896 117.886 142.604 116.998 142.74Z" stroke="#FF00E5" stroke-width="2"/>
<path fill-rule="evenodd" clip-rule="evenodd" d="M72.4625 142.733C80.9256 143.994 99.3419 145.435 116.998 142.74C117.886 142.604 118.565 141.896 118.649 141.001C120.521 121.192 121.579 70.9222 118.674 45.4567C118.574 44.5803 117.91 43.8976 117.038 43.7675C108.575 42.5059 90.1585 41.0647 72.5027 43.7602C71.6139 43.8959 70.9354 44.6037 70.8508 45.4988C68.979 65.3083 67.9215 115.578 70.8262 141.043C70.9262 141.92 71.5901 142.602 72.4625 142.733ZM109 51H80.5002C79.3956 51 78.5002 51.8955 78.5002 53V133C78.5002 134.105 79.3956 135 80.5002 135H109C110.105 135 111 134.105 111 133V53C111 51.8955 110.105 51 109 51Z" stroke="#FF00E5" stroke-width="2"/>
<path d="M80.5002 51H109C110.105 51 111 51.8955 111 53V133C111 134.105 110.105 135 109 135H80.5002C79.3956 135 78.5002 134.105 78.5002 133V53C78.5002 51.8955 79.3956 51 80.5002 51Z" stroke="#FF00E5" stroke-width="2"/>
</svg>
