<svg width="668" height="538" viewBox="0 0 668 538" fill="none" xmlns="http://www.w3.org/2000/svg">
<g clip-path="url(#clip0_207_15885)">
<path d="M101.523 282.836L153.058 249.945C154.627 248.944 156.394 248.294 158.237 248.039L231.934 237.856M311.88 232.516L239.922 233.529C236.422 233.578 233.091 235.047 230.694 237.598L194.378 276.258M194.378 276.258L193.16 295.372M194.378 276.258L109.224 317.072M193.16 295.372L212.906 299.876M193.16 295.372L117.019 364.317M212.906 299.876L103.722 469.729M212.906 299.876L241.136 277.387M313.063 243.473L250.356 270.615C249.311 271.067 248.331 271.656 247.44 272.365L241.136 277.387M163.961 460.292L241.136 277.387" stroke="#FF00E5" stroke-width="2.10096" stroke-linejoin="round"/>
<path d="M16.3029 80.4649L91.5751 69.0165C92.0832 68.9393 92.6018 69.0568 93.0269 69.3455L114.77 84.1126M100.324 16.0186L92.5817 30.9626C92.2999 31.5063 92.2776 32.148 92.5209 32.71L95.0026 38.4433C95.1995 38.8983 95.5555 39.2659 96.0038 39.4773L106.24 44.3041M168.314 65.2865L110.405 36.5691M170.392 60.037L117.41 34.1605C116.974 33.9472 116.627 33.5847 116.434 33.1386L113.129 25.5034M214.997 47.0569L198.097 50.9538M167.822 74.1997L158.596 79.3797M167.822 74.1997L281.541 131.356M167.822 74.1997L173.461 67.128M21.4085 108.706L97.1682 82.1729C97.6919 81.9894 98.2678 82.0275 98.7629 82.2782L235.246 151.395M225.522 150.858L97.5848 88.695C97.0953 88.4572 96.531 88.4249 96.0176 88.6055L23.7151 114.035M217.951 152.554L98.4217 94.2721C97.9283 94.0316 97.3587 94.0001 96.8418 94.185L24.0234 120.229M205.653 151.55L98.9597 99.1792C98.4686 98.9382 97.9013 98.9046 97.3852 99.0862L25.0873 124.514M188.582 148.657L99.6531 104.427C99.1578 104.181 98.5837 104.147 98.0625 104.332L27.2498 129.51M171.223 145.097L104.591 112.175C104.095 111.93 103.52 111.897 102.999 112.084L29.1886 138.557M156.394 142.816L109.788 120.565C109.308 120.336 108.757 120.304 108.254 120.475L32.5044 146.217M42.4518 169.199L134.397 138.024C134.921 137.846 135.495 137.889 135.987 138.143L176.468 159.041M44.5596 172.241L134.435 144.319C134.922 144.168 135.448 144.205 135.91 144.422L171.472 161.204M46.8662 177.57L133.818 149.34C134.314 149.179 134.853 149.215 135.324 149.439L165.477 163.799M158.482 166.826L137.542 154.548C137.04 154.254 136.437 154.188 135.884 154.366L50.361 181.989M151.334 166.757L135.61 159.215C135.132 158.986 134.583 158.952 134.081 159.121L78.9935 177.58C78.4993 177.746 78.0874 178.094 77.8422 178.554L65.3491 201.998M145.96 169.874L135.174 164.574C134.684 164.333 134.117 164.299 133.601 164.48L82.2634 182.477C81.7909 182.643 81.3959 182.977 81.1537 183.415L68.8885 205.607M73.3377 210.404L77.3321 200.312C77.5541 199.752 78.013 199.318 78.5853 199.128L123.963 184.065C124.443 183.906 124.965 183.931 125.427 184.135L154.68 197.025C155.2 197.254 155.791 197.255 156.312 197.03L175.187 188.86C175.788 188.6 176.478 188.645 177.041 188.981L185.744 194.177M77.255 213.058L80.8141 204.699C81.0447 204.158 81.4983 203.742 82.058 203.56L124.791 189.634C125.272 189.477 125.795 189.505 126.257 189.713L151.553 201.067M81.4605 216.379L83.0706 209.921C83.2383 209.249 83.7359 208.708 84.3918 208.485L125.252 194.579C125.781 194.399 126.361 194.444 126.856 194.704L151.672 207.738M190.74 192.014L156.504 173.219M196.402 189.564L162.166 170.768M201.398 187.401L168.161 168.173M174.777 166.1L196.795 179.507M180.251 164.127L200.259 175.635M185.913 161.676L210.505 175.55M191.908 159.081L219.319 174.899M197.237 156.774L230.374 174.859M202.71 154.801L239.854 173.919M209.804 152.917L247.092 172.368M219.095 152.454L253.664 171.105M226.621 151.569L259.758 169.654M181.678 203.055L206.459 216.452M187.673 200.46L216.749 215.557M193.047 197.343L223.077 212.818M198.709 194.893L227.74 210.8M205.325 192.82L239.084 211.426M147.927 28.2371L193.063 52.1146M193.063 52.1146L184.407 54.1107C183.958 54.2141 183.558 54.4662 183.271 54.8261L176.793 62.9493M193.063 52.1146L199.782 69.3883C199.967 69.864 200.324 70.253 200.782 70.4784L297.553 118.098M193.063 52.1146L198.097 50.9538M172.022 36.3944L198.097 50.9538M198.097 50.9538L204.383 65.4757C204.573 65.9152 204.912 66.2736 205.34 66.4882L291.041 109.448M121.019 85.758L207.139 127.574M220.556 134.817L261.089 155.995C261.634 156.28 262.278 156.304 262.843 156.059L270.726 152.647C271.285 152.405 271.924 152.426 272.466 152.704L297.534 165.562M265.679 159.577L270.138 157.647C270.689 157.408 271.319 157.425 271.857 157.694L295.212 169.335M141.669 76.8197L146.775 90.3478C146.957 90.8291 147.314 91.224 147.775 91.4531L263.272 148.893C263.724 149.118 264.243 149.167 264.729 149.031L270.942 147.292C271.45 147.149 271.993 147.21 272.458 147.46L294.939 159.567M181.866 96.5943L290.2 150.156C290.737 150.421 291.363 150.437 291.913 150.199L298.707 147.258M168.438 86.5876L175.767 84.4898C176.259 84.3491 176.785 84.3982 177.242 84.6273L264.888 128.572C265.239 128.747 265.531 129.021 265.73 129.358L269.567 135.864C269.774 136.215 270.081 136.495 270.448 136.67L283.823 143.023M173.461 67.128L308.425 133.165M173.461 67.128L176.793 62.9493M176.793 62.9493L304.543 126.937M182.13 156.591L173.296 151.714M264.909 197.084L271.001 194.447C271.571 194.201 272.223 194.227 272.771 194.52L305.851 212.186M277.998 192.605L302.824 205.192M274.354 199.719L301.621 215.203" stroke="#00FFE0" stroke-width="1.05048" stroke-linecap="round" stroke-linejoin="round"/>
<path d="M332.449 174.968C310.42 127.821 280.813 93.0072 248.315 68.2272M315.279 223.924C292.677 211.539 184.63 223.606 129.245 231.761M248.315 68.2272C160.879 1.55581 52.5181 7.52353 14.5282 41.3781C14.1016 41.7582 13.8746 42.2718 13.8775 42.8432C14.1807 102.371 36.6515 222.139 124.514 232.395C124.692 232.416 124.877 232.413 125.054 232.386C126.414 232.181 127.812 231.972 129.245 231.761M248.315 68.2272L247.308 74.1997M129.245 231.761L97.1147 263.287C96.5625 263.829 96.3646 264.637 96.6039 265.373L101.807 281.371C102.042 282.093 101.856 282.885 101.325 283.427L83.4668 301.679C83.0003 302.155 82.7965 302.83 82.9213 303.486L90.6541 344.101C90.9684 345.752 93.0325 346.335 94.1638 345.093L104.351 333.905C104.811 333.4 104.987 332.698 104.82 332.035L97.1862 301.744C96.9684 300.88 97.3372 299.975 98.0967 299.509L102.99 296.506C104.223 295.749 105.829 296.481 106.067 297.907L113.338 341.477C113.445 342.12 113.238 342.777 112.78 343.242L92.6198 363.726C92.1174 364.236 91.9198 364.973 92.0991 365.666L106.23 420.292C106.616 421.783 108.451 422.324 109.584 421.281L118.355 413.206C118.902 412.703 119.131 411.942 118.954 411.22L108.641 369.212C108.466 368.501 108.686 367.752 109.216 367.248L114.011 362.691C115.19 361.571 117.141 362.214 117.423 363.815L126.598 415.958C126.716 416.629 126.491 417.316 125.997 417.786L95.9019 446.476C95.2838 447.065 95.0985 447.977 95.4377 448.761L104.052 468.663C104.662 470.073 103.553 471.625 102.022 471.505L85.4176 470.2C84.845 470.155 84.28 470.354 83.8616 470.748L68.1905 485.483C67.6817 485.961 67.4533 486.667 67.585 487.353L69.1974 495.744M315.99 249.321L256.195 364.987C255.314 366.69 257.056 368.555 258.815 367.794L277.296 359.795C278.57 359.243 280.011 360.099 280.136 361.481L285.307 418.47C285.386 419.347 284.894 420.176 284.086 420.525L271.407 426.013C270.123 426.569 268.674 425.696 268.565 424.301L266.06 392.12C265.952 390.725 264.502 389.851 263.218 390.407L257.056 393.074C256.32 393.393 255.839 394.113 255.827 394.915L255.215 436.459C255.204 437.26 254.723 437.981 253.987 438.299L179.663 470.47C178.999 470.758 178.233 470.672 177.649 470.244L144.831 446.223C143.961 445.587 142.745 445.738 142.057 446.568L113.332 481.238C112.894 481.767 112.752 482.48 112.953 483.137L119.042 502.971C119.252 503.657 119.087 504.403 118.606 504.936L104.979 520.031C104.467 520.598 103.681 520.831 102.943 520.635L91.6355 517.635M69.1974 495.744L72.1827 511.281C72.3304 512.05 72.9053 512.666 73.6619 512.867L91.6355 517.635M69.1974 495.744L56.8691 505.886C56.3335 506.327 56.0586 507.009 56.1396 507.698L58.0592 524.024C58.1574 524.859 58.758 525.548 59.5717 525.759L79.2372 530.863C80.0058 531.062 80.8202 530.797 81.3243 530.184L91.6355 517.635" stroke="#FF00E5" stroke-width="2.10096"/>
<circle cx="67.0132" cy="148.286" r="5.08094" transform="rotate(-23.4053 67.0132 148.286)" fill="#00FFE0"/>
<circle cx="135.068" cy="175.776" r="5.08094" transform="rotate(-23.4053 135.068 175.776)" fill="#00FFE0"/>
<circle cx="139.658" cy="74.9224" r="5.08094" transform="rotate(-23.4053 139.658 74.9224)" fill="#00FFE0"/>
<circle cx="153.974" cy="80.586" r="5.08094" transform="rotate(-23.4053 153.974 80.586)" fill="#00FFE0"/>
<circle cx="284.736" cy="132.345" r="5.08094" transform="rotate(-23.4053 284.736 132.345)" fill="#00FFE0"/>
<circle cx="257.294" cy="81.7388" r="5.08094" transform="rotate(-23.4053 257.294 81.7388)" fill="#00FFE0"/>
<circle cx="245.931" cy="75.5869" r="5.08094" transform="rotate(-23.4053 245.931 75.5869)" fill="#00FFE0"/>
<circle cx="106.818" cy="33.7739" r="5.08094" transform="rotate(-23.4053 106.818 33.7739)" fill="#00FFE0"/>
<circle cx="110.302" cy="47.292" r="5.08094" transform="rotate(-23.4053 110.302 47.292)" fill="#00FFE0"/>
<circle cx="124.138" cy="26.2735" r="5.08094" transform="rotate(-23.4053 124.138 26.2735)" fill="#00FFE0"/>
<circle cx="166.38" cy="85.4976" r="5.08094" transform="rotate(-23.4053 166.38 85.4976)" fill="#00FFE0"/>
<circle cx="178.236" cy="94.605" r="5.08094" transform="rotate(-23.4053 178.236 94.605)" fill="#00FFE0"/>
<circle cx="119.107" cy="217.484" r="5.08094" transform="rotate(-23.4053 119.107 217.484)" fill="#00FFE0"/>
<path d="M325.12 190.005L309.832 182.093M209.437 130.139L243.975 148.013L247.149 149.655M154.596 172.464L206.276 152.072M206.276 152.072L247.149 149.655M206.276 152.072L154.631 142.394M247.149 149.655L289.749 171.701M198.705 180.263L289.749 171.701M289.749 171.701L309.832 182.093M309.832 182.093L280.215 184.934M115.922 231.123L203.594 192.386C203.793 192.298 204.006 192.243 204.223 192.222L217.184 190.979M217.184 190.979L255.644 217.705M217.184 190.979L250.598 187.774M250.598 187.774L294.295 218.375M250.598 187.774L280.215 184.934M280.215 184.934L316.943 208.572" stroke="#FF00E5" stroke-width="2.10096" stroke-linecap="round" stroke-linejoin="round"/>
<path d="M163.961 460.292L254.961 420.292" stroke="#FC00E3" stroke-width="2"/>
<path d="M566.512 282.243L514.977 249.352C513.408 248.351 511.642 247.701 509.798 247.446L436.101 237.263M356.156 231.923L428.113 232.936C431.613 232.985 434.944 234.454 437.341 237.006L473.657 275.665M473.657 275.665L474.875 294.779M473.657 275.665L558.812 316.479M474.875 294.779L455.129 299.283M474.875 294.779L551.016 363.724M455.129 299.283L564.313 469.137M455.129 299.283L426.899 276.794M354.972 242.88L417.679 270.022C418.724 270.475 419.704 271.063 420.595 271.772L426.899 276.794M504.074 459.7L426.899 276.794" stroke="#FF00E5" stroke-width="2.10096" stroke-linejoin="round"/>
<path d="M504.074 459.7L413.074 419.7" stroke="#FC00E3" stroke-width="2"/>
<path d="M136.005 338.293L183.918 295.829C184.862 294.992 184.27 293.433 183.009 293.433L181.729 293.433C181.524 293.433 181.322 293.478 181.138 293.567L125.222 320.291C124.619 320.579 124.312 321.26 124.495 321.903L129.368 339.027C129.507 339.516 129.364 340.042 128.996 340.393L102.524 365.65C102.166 365.992 102.02 366.5 102.142 366.98L112.786 408.82C112.883 409.2 112.812 409.604 112.592 409.928L111.224 411.94C110.56 412.916 109.054 412.652 108.762 411.508L97.397 366.921C97.2829 366.473 97.4019 365.998 97.7136 365.657L120.83 340.38C121.148 340.033 121.265 339.547 121.141 339.094L116.437 321.888C116.263 321.252 116.567 320.581 117.161 320.294L188.508 285.715" stroke="#00FFE0" stroke-width="1.05048" stroke-linejoin="round"/>
<path d="M154.032 315.935L144.711 321.204C144.052 321.577 143.82 322.413 144.192 323.072L144.645 323.872C145.017 324.53 144.785 325.367 144.126 325.739L138.547 328.893C137.888 329.265 137.052 329.033 136.679 328.374L134.246 324.07C133.873 323.411 134.105 322.575 134.764 322.202L166.707 304.145" stroke="#00FFE0" stroke-width="1.05048" stroke-linejoin="round"/>
<circle cx="153.577" cy="316.611" r="2.19599" transform="rotate(-29.4791 153.577 316.611)" fill="#00FFE0"/>
<circle cx="136.634" cy="337.972" r="2.19599" transform="rotate(-29.4791 136.634 337.972)" fill="#00FFE0"/>
<circle cx="187.724" cy="285.938" r="2.19599" transform="rotate(-29.4791 187.724 285.938)" fill="#00FFE0"/>
<path d="M652.477 80.4649L577.205 69.0165C576.697 68.9393 576.179 69.0568 575.753 69.3455L554.01 84.1126M568.457 16.0187L576.199 30.9626C576.48 31.5063 576.503 32.148 576.259 32.71L573.778 38.4433C573.581 38.8983 573.225 39.2659 572.776 39.4773L562.541 44.3041M500.466 65.2865L558.375 36.5691M498.388 60.037L551.37 34.1605C551.807 33.9472 552.153 33.5847 552.346 33.1386L555.651 25.5034M453.783 47.057L470.683 50.9538M500.958 74.1997L510.185 79.3797M500.958 74.1997L387.239 131.356M500.958 74.1997L495.319 67.128M647.372 108.706L571.612 82.1729C571.088 81.9894 570.512 82.0275 570.017 82.2782L433.534 151.395M443.258 150.858L571.195 88.695C571.685 88.4572 572.249 88.4249 572.763 88.6055L645.065 114.035M450.829 152.554L570.359 94.2721C570.852 94.0316 571.422 94.0002 571.938 94.185L644.757 120.229M463.127 151.55L569.821 99.1792C570.312 98.9382 570.879 98.9046 571.395 99.0862L643.693 124.514M480.198 148.657L569.127 104.427C569.622 104.181 570.197 104.147 570.718 104.332L641.531 129.51M497.557 145.097L564.19 112.175C564.686 111.93 565.26 111.897 565.781 112.084L639.592 138.557M512.386 142.816L558.992 120.565C559.472 120.336 560.023 120.304 560.527 120.475L636.276 146.217M626.328 169.199L534.383 138.024C533.859 137.846 533.285 137.889 532.794 138.143L492.313 159.041M624.221 172.241L534.345 144.319C533.858 144.168 533.332 144.205 532.871 144.422L497.309 161.204M621.914 177.57L534.962 149.34C534.466 149.179 533.927 149.215 533.456 149.439L503.304 163.799M510.298 166.826L531.239 154.548C531.74 154.254 532.343 154.188 532.896 154.366L618.419 181.989M517.446 166.757L533.17 159.215C533.648 158.986 534.197 158.952 534.7 159.121L589.787 177.58C590.281 177.746 590.693 178.094 590.938 178.554L603.431 201.998M522.82 169.874L533.606 164.574C534.097 164.333 534.664 164.299 535.18 164.48L586.517 182.477C586.989 182.643 587.384 182.977 587.627 183.415L599.892 205.607M595.443 210.404L591.448 200.312C591.226 199.752 590.767 199.318 590.195 199.128L544.817 184.065C544.337 183.906 543.815 183.931 543.353 184.135L514.1 197.025C513.581 197.254 512.989 197.255 512.468 197.03L493.594 188.86C492.992 188.6 492.302 188.645 491.739 188.981L483.036 194.177M591.525 213.058L587.966 204.699C587.736 204.158 587.282 203.742 586.722 203.56L543.99 189.634C543.508 189.477 542.985 189.505 542.523 189.713L517.227 201.067M587.32 216.379L585.71 209.921C585.542 209.249 585.044 208.708 584.388 208.485L543.529 194.579C542.999 194.399 542.419 194.444 541.924 194.704L517.108 207.738M478.04 192.014L512.276 173.219M472.378 189.564L506.614 170.768M467.382 187.401L500.619 168.173M494.003 166.1L471.986 179.507M488.53 164.127L468.521 175.635M482.868 161.676L458.275 175.55M476.872 159.081L449.462 174.899M471.543 156.774L438.406 174.859M466.07 154.801L428.926 173.919M458.977 152.917L421.688 172.368M449.686 152.454L415.116 171.105M442.159 151.569L409.022 169.654M487.103 203.055L462.321 216.452M481.107 200.46L452.031 215.557M475.734 197.343L445.703 212.818M470.072 194.893L441.04 210.8M463.455 192.82L429.696 211.426M520.853 28.2371L475.717 52.1146M475.717 52.1146L484.373 54.1106C484.822 54.2141 485.222 54.4662 485.509 54.8261L491.987 62.9492M475.717 52.1146L468.999 69.3883C468.814 69.864 468.457 70.253 467.999 70.4784L371.227 118.098M475.717 52.1146L470.683 50.9538M496.758 36.3944L470.683 50.9538M470.683 50.9538L464.397 65.4757C464.207 65.9152 463.868 66.2737 463.44 66.4883L377.739 109.448M547.761 85.758L461.641 127.574M448.224 134.817L407.691 155.995C407.146 156.28 406.502 156.304 405.938 156.059L398.054 152.647C397.495 152.405 396.857 152.426 396.314 152.704L371.246 165.562M403.101 159.577L398.643 157.647C398.091 157.408 397.462 157.425 396.924 157.694L373.568 169.335M527.111 76.8197L522.005 90.3478C521.823 90.8291 521.466 91.224 521.006 91.4531L405.509 148.893C405.057 149.118 404.537 149.167 404.051 149.031L397.839 147.292C397.331 147.149 396.787 147.21 396.323 147.46L373.841 159.567M486.915 96.5943L378.58 150.156C378.044 150.421 377.417 150.437 376.867 150.199L370.073 147.258M500.342 86.5876L493.013 84.4898C492.522 84.3491 491.995 84.3982 491.538 84.6273L403.892 128.572C403.542 128.747 403.249 129.021 403.05 129.358L399.213 135.864C399.007 136.215 398.7 136.495 398.332 136.67L384.957 143.023M495.319 67.128L360.355 133.165M495.319 67.128L491.987 62.9492M491.987 62.9492L364.238 126.937M486.651 156.591L495.484 151.714M403.871 197.084L397.78 194.447C397.209 194.201 396.558 194.227 396.01 194.52L362.929 212.186M390.783 192.605L365.957 205.192M394.426 199.719L367.16 215.203" stroke="#00FFE0" stroke-width="1.05048" stroke-linecap="round" stroke-linejoin="round"/>
<path d="M336.332 174.967C358.361 127.821 387.969 93.0062 420.466 68.2263M353.502 223.923C376.104 211.538 484.152 223.605 539.537 231.76M420.466 68.2263C507.902 1.55483 616.263 7.52255 654.253 41.3771C654.68 41.7573 654.907 42.2708 654.904 42.8422C654.601 102.37 632.13 222.138 544.267 232.394C544.089 232.415 543.905 232.412 543.727 232.385C542.367 232.18 540.97 231.971 539.537 231.76M420.466 68.2263L421.473 74.1987M539.537 231.76L571.667 263.286C572.219 263.828 572.417 264.636 572.177 265.372L566.974 281.37C566.74 282.092 566.925 282.884 567.456 283.426L585.314 301.678C585.781 302.154 585.985 302.829 585.86 303.485L578.127 344.1C577.813 345.751 575.749 346.334 574.617 345.092L564.431 333.904C563.97 333.399 563.794 332.697 563.961 332.034L571.595 301.743C571.813 300.879 571.444 299.974 570.685 299.508L565.791 296.505C564.558 295.748 562.952 296.48 562.714 297.907L555.444 341.476C555.336 342.119 555.544 342.776 556.001 343.241L576.161 363.725C576.664 364.235 576.861 364.972 576.682 365.665L562.551 420.291C562.166 421.782 560.33 422.323 559.197 421.28L550.426 413.205C549.88 412.702 549.65 411.941 549.827 411.219L560.14 369.211C560.315 368.5 560.095 367.751 559.565 367.247L554.77 362.69C553.591 361.57 551.64 362.213 551.358 363.814L542.183 415.957C542.065 416.628 542.291 417.315 542.784 417.785L572.879 446.475C573.497 447.064 573.683 447.976 573.344 448.76L564.729 468.662C564.119 470.072 565.228 471.624 566.759 471.504L583.364 470.199C583.936 470.154 584.501 470.353 584.92 470.747L600.591 485.482C601.1 485.96 601.328 486.666 601.196 487.352L599.584 495.743M352.791 249.32L412.587 364.986C413.467 366.689 411.725 368.554 409.966 367.793L391.485 359.794C390.211 359.242 388.771 360.098 388.645 361.48L383.475 418.469C383.395 419.346 383.887 420.175 384.695 420.524L397.374 426.012C398.658 426.568 400.107 425.695 400.216 424.3L402.721 392.119C402.83 390.724 404.279 389.85 405.563 390.406L411.725 393.073C412.461 393.392 412.942 394.112 412.954 394.914L413.566 436.458C413.578 437.259 414.058 437.98 414.794 438.298L489.118 470.469C489.782 470.757 490.548 470.671 491.132 470.243L523.951 446.222C524.821 445.586 526.036 445.737 526.724 446.567L555.449 481.237C555.887 481.766 556.03 482.479 555.828 483.136L549.739 502.97C549.529 503.656 549.694 504.402 550.175 504.935L563.803 520.03C564.315 520.597 565.1 520.83 565.839 520.634L577.146 517.634M599.584 495.743L596.599 511.28C596.451 512.049 595.876 512.665 595.119 512.866L577.146 517.634M599.584 495.743L611.912 505.885C612.448 506.326 612.723 507.009 612.642 507.697L610.722 524.023C610.624 524.858 610.023 525.547 609.21 525.758L589.544 530.862C588.775 531.061 587.961 530.796 587.457 530.183L577.146 517.634" stroke="#FF00E5" stroke-width="2.10096"/>
<circle cx="4.5889" cy="4.5889" r="4.5889" transform="matrix(-0.917718 -0.397233 -0.397233 0.917718 608.45 145.64)" fill="#00FFE0"/>
<circle cx="4.5889" cy="4.5889" r="4.5889" transform="matrix(-0.917718 -0.397233 -0.397233 0.917718 540.395 173.129)" fill="#00FFE0"/>
<circle cx="4.5889" cy="4.5889" r="4.5889" transform="matrix(-0.917718 -0.397233 -0.397233 0.917718 535.801 72.2759)" fill="#00FFE0"/>
<circle cx="4.5889" cy="4.5889" r="4.5889" transform="matrix(-0.917718 -0.397233 -0.397233 0.917718 521.486 77.9424)" fill="#00FFE0"/>
<circle cx="4.5889" cy="4.5889" r="4.5889" transform="matrix(-0.917718 -0.397233 -0.397233 0.917718 390.726 129.702)" fill="#00FFE0"/>
<circle cx="4.5889" cy="4.5889" r="4.5889" transform="matrix(-0.917718 -0.397233 -0.397233 0.917718 418.167 79.0962)" fill="#00FFE0"/>
<circle cx="4.5889" cy="4.5889" r="4.5889" transform="matrix(-0.917718 -0.397233 -0.397233 0.917718 429.528 72.9424)" fill="#00FFE0"/>
<circle cx="4.5889" cy="4.5889" r="4.5889" transform="matrix(-0.917718 -0.397233 -0.397233 0.917718 568.644 31.1279)" fill="#00FFE0"/>
<circle cx="4.5889" cy="4.5889" r="4.5889" transform="matrix(-0.917718 -0.397233 -0.397233 0.917718 565.16 44.6465)" fill="#00FFE0"/>
<circle cx="4.5889" cy="4.5889" r="4.5889" transform="matrix(-0.917718 -0.397233 -0.397233 0.917718 551.326 23.627)" fill="#00FFE0"/>
<circle cx="4.5889" cy="4.5889" r="4.5889" transform="matrix(-0.917718 -0.397233 -0.397233 0.917718 509.079 82.8545)" fill="#00FFE0"/>
<circle cx="4.5889" cy="4.5889" r="4.5889" transform="matrix(-0.917718 -0.397233 -0.397233 0.917718 497.225 91.9604)" fill="#00FFE0"/>
<circle cx="4.5889" cy="4.5889" r="4.5889" transform="matrix(-0.917718 -0.397233 -0.397233 0.917718 556.357 214.838)" fill="#00FFE0"/>
<path d="M343.659 190.003L358.948 182.091M459.342 130.137L424.804 148.011L421.631 149.653M514.183 172.462L462.504 152.07M462.504 152.07L421.631 149.653M462.504 152.07L514.149 142.392M421.631 149.653L379.03 171.699M470.074 180.261L379.03 171.699M379.03 171.699L358.948 182.091M358.948 182.091L388.564 184.932M552.858 231.121L465.186 192.384C464.986 192.296 464.774 192.241 464.557 192.22L451.595 190.977M451.595 190.977L413.135 217.703M451.595 190.977L418.181 187.772M418.181 187.772L374.485 218.373M418.181 187.772L388.564 184.932M388.564 184.932L351.836 208.57" stroke="#FF00E5" stroke-width="2.10096" stroke-linecap="round" stroke-linejoin="round"/>
<path d="M336.099 449.28L335.441 449.838L334.793 449.268C332.587 447.332 330.082 443.545 327.581 438.773C325.061 433.964 322.488 428.039 320.177 421.718C315.565 409.104 311.946 394.77 311.946 384.483V144.643C311.946 131.9 322.277 121.57 335.02 121.57C347.763 121.57 358.093 131.9 358.093 144.643V384.483C358.093 394.512 354.917 408.714 350.628 421.335C348.48 427.658 346.041 433.617 343.559 438.491C341.095 443.332 338.533 447.217 336.099 449.28Z" fill="#22212C" stroke="#00FFE0" stroke-width="2"/>
<path d="M388.492 67.2336C367.172 41.2979 306.61 40.1927 281.582 67.2336" stroke="#00FFE0" stroke-width="2.10096" stroke-linecap="round" stroke-linejoin="round"/>
<path d="M373.354 85.2096C358.071 65.4491 314.659 64.607 296.718 85.2096" stroke="#00FFE0" stroke-width="2.10096" stroke-linecap="round" stroke-linejoin="round"/>
<path d="M359.165 103.185C349.543 90.8349 322.209 90.3086 310.913 103.185" stroke="#00FFE0" stroke-width="2.10096" stroke-linecap="round" stroke-linejoin="round"/>
<circle cx="334.91" cy="112.995" r="5.08094" fill="#00FFE0"/>
<path d="M532.78 338.293L484.867 295.829C483.923 294.992 484.515 293.433 485.776 293.433L487.056 293.433C487.261 293.433 487.463 293.478 487.647 293.567L543.563 320.291C544.166 320.579 544.473 321.26 544.29 321.903L539.417 339.027C539.278 339.516 539.421 340.042 539.789 340.393L566.261 365.65C566.619 365.992 566.765 366.5 566.643 366.98L555.999 408.82C555.902 409.2 555.973 409.604 556.193 409.928L557.561 411.94C558.225 412.917 559.731 412.652 560.023 411.508L571.388 366.921C571.502 366.473 571.383 365.998 571.071 365.657L547.955 340.38C547.638 340.033 547.52 339.547 547.644 339.094L552.348 321.888C552.522 321.252 552.218 320.581 551.624 320.294L480.277 285.715" stroke="#00FFE0" stroke-width="1.05048" stroke-linejoin="round"/>
<path d="M514.753 315.935L524.074 321.204C524.733 321.577 524.965 322.413 524.593 323.072L524.141 323.872C523.768 324.53 524 325.367 524.659 325.739L530.239 328.893C530.897 329.265 531.734 329.033 532.106 328.374L534.539 324.07C534.912 323.411 534.68 322.575 534.021 322.202L502.078 304.145" stroke="#00FFE0" stroke-width="1.05048" stroke-linejoin="round"/>
<circle cx="2.19599" cy="2.19599" r="2.19599" transform="matrix(-0.870535 -0.492106 -0.492106 0.870535 518.201 315.78)" fill="#00FFE0"/>
<circle cx="2.19599" cy="2.19599" r="2.19599" transform="matrix(-0.870535 -0.492106 -0.492106 0.870535 535.144 337.141)" fill="#00FFE0"/>
<circle cx="2.19599" cy="2.19599" r="2.19599" transform="matrix(-0.870535 -0.492106 -0.492106 0.870535 484.054 285.107)" fill="#00FFE0"/>
<path fill-rule="evenodd" clip-rule="evenodd" d="M479.951 347.913C480.158 352.481 475.664 354.745 469.226 353.319C466.138 352.634 461.547 350.701 461.146 349.916C460.756 349.15 461.854 344.356 463.07 341.521C465.701 335.386 470.218 333.009 473.809 335.87C475.535 337.246 476.149 339.186 475.6 341.539L475.335 342.68L476.414 343.134C478.641 344.072 479.851 345.708 479.951 347.913ZM474.11 340.058C473.975 341.433 473.506 342.578 472.674 343.558C472.116 344.216 470.961 344.91 467.411 346.721C464.412 348.251 462.82 348.952 462.733 348.783C462.661 348.642 463.185 346.737 463.897 344.549C465.282 340.296 466.382 338.427 468.246 337.16C470.749 335.46 474.384 337.256 474.11 340.058Z" fill="#00FFE0"/>
<path fill-rule="evenodd" clip-rule="evenodd" d="M490.952 369.488C491.159 374.055 486.665 376.32 480.227 374.894C477.139 374.209 472.548 372.275 472.147 371.491C471.747 370.706 472.878 365.854 474.137 362.952C476.287 357.998 479.394 355.648 482.761 356.429C485.695 357.11 487.335 359.965 486.601 363.114L486.336 364.255L487.415 364.709C489.642 365.647 490.852 367.283 490.952 369.488Z" fill="#00FFE0"/>
<path fill-rule="evenodd" clip-rule="evenodd" d="M501.956 391.063C502.163 395.631 497.669 397.895 491.231 396.469C488.143 395.784 483.552 393.85 483.151 393.066C482.751 392.281 483.882 387.429 485.141 384.527C487.291 379.573 490.397 377.223 493.765 378.004C496.699 378.685 498.339 381.54 497.605 384.689L497.339 385.83L498.419 386.284C500.646 387.222 501.856 388.858 501.956 391.063Z" fill="#00FFE0"/>
<path fill-rule="evenodd" clip-rule="evenodd" d="M512.958 412.637C513.165 417.204 508.671 419.469 502.233 418.043C499.145 417.358 494.554 415.424 494.153 414.639C493.753 413.855 494.884 409.003 496.143 406.101C498.293 401.147 501.399 398.797 504.767 399.578C507.701 400.258 509.341 403.114 508.607 406.263L508.341 407.403L509.421 407.858C511.648 408.796 512.858 410.432 512.958 412.637Z" fill="#00FFE0"/>
<path fill-rule="evenodd" clip-rule="evenodd" d="M523.964 434.209C524.171 438.776 519.677 441.041 513.239 439.614C510.151 438.93 505.559 436.996 505.159 436.211C504.759 435.427 505.89 430.574 507.149 427.673C509.299 422.719 512.405 420.369 515.772 421.15C518.707 421.83 520.347 424.685 519.613 427.835L519.347 428.975L520.427 429.43C522.653 430.368 523.864 432.004 523.964 434.209Z" fill="#00FFE0"/>
<path fill-rule="evenodd" clip-rule="evenodd" d="M189.235 348.113C189.028 352.68 193.522 354.945 199.96 353.519C203.048 352.834 207.64 350.9 208.04 350.116C208.431 349.349 207.332 344.556 206.116 341.72C203.485 335.586 198.968 333.209 195.378 336.07C193.651 337.445 193.038 339.386 193.586 341.739L193.852 342.88L192.773 343.334C190.546 344.272 189.335 345.908 189.235 348.113ZM195.077 340.258C195.211 341.632 195.681 342.777 196.513 343.758C197.071 344.416 198.226 345.11 201.775 346.92C204.775 348.45 206.367 349.152 206.453 348.983C206.525 348.842 206.002 346.936 205.289 344.748C203.905 340.495 202.805 338.627 200.941 337.36C198.437 335.659 194.802 337.455 195.077 340.258Z" fill="#00FFE0"/>
<path d="M195.077 340.258C195.211 341.632 195.681 342.777 196.513 343.758C197.071 344.416 198.226 345.11 201.775 346.92C204.775 348.45 206.367 349.152 206.453 348.983C206.525 348.842 206.002 346.936 205.289 344.748C203.905 340.495 202.805 338.627 200.941 337.36C198.437 335.659 194.802 337.455 195.077 340.258Z" fill="#00FFE0"/>
<path fill-rule="evenodd" clip-rule="evenodd" d="M178.233 369.687C178.026 374.255 182.52 376.519 188.958 375.093C192.046 374.408 196.638 372.474 197.038 371.69C197.438 370.905 196.308 366.053 195.049 363.151C192.898 358.197 189.792 355.847 186.425 356.628C183.491 357.309 181.85 360.164 182.584 363.313L182.85 364.454L181.771 364.908C179.544 365.846 178.333 367.482 178.233 369.687Z" fill="#00FFE0"/>
<path fill-rule="evenodd" clip-rule="evenodd" d="M167.232 391.263C167.025 395.83 171.518 398.095 177.956 396.668C181.044 395.984 185.636 394.05 186.036 393.265C186.436 392.481 185.306 387.628 184.047 384.727C181.896 379.773 178.79 377.423 175.423 378.204C172.489 378.884 170.848 381.74 171.582 384.889L171.848 386.029L170.769 386.484C168.542 387.422 167.331 389.058 167.232 391.263Z" fill="#00FFE0"/>
<path fill-rule="evenodd" clip-rule="evenodd" d="M156.229 412.837C156.022 417.404 160.515 419.669 166.954 418.242C170.041 417.558 174.633 415.624 175.033 414.839C175.433 414.054 174.303 409.202 173.044 406.301C170.893 401.347 167.787 398.997 164.42 399.778C161.486 400.458 159.845 403.313 160.579 406.463L160.845 407.603L159.766 408.058C157.539 408.995 156.328 410.631 156.229 412.837Z" fill="#00FFE0"/>
<path fill-rule="evenodd" clip-rule="evenodd" d="M145.223 434.408C145.016 438.975 149.51 441.24 155.948 439.814C159.036 439.129 163.627 437.195 164.027 436.41C164.428 435.626 163.297 430.774 162.038 427.872C159.888 422.918 156.781 420.568 153.414 421.349C150.48 422.029 148.84 424.885 149.573 428.034L149.839 429.174L148.76 429.629C146.533 430.567 145.322 432.203 145.223 434.408Z" fill="#00FFE0"/>
<path d="M436.105 437.807L434.809 440.794C434.71 441.023 434.554 441.235 434.341 441.43C434.135 441.629 433.921 441.772 433.699 441.859L433.41 441.974C433.188 442.061 432.934 442.103 432.648 442.099C432.362 442.095 432.108 442.044 431.886 441.948L428.889 440.648C428.66 440.548 428.447 440.396 428.248 440.19C428.05 439.984 427.907 439.77 427.819 439.548L427.51 438.742C427.428 438.579 427.424 438.413 427.497 438.245C427.57 438.077 427.698 437.957 427.882 437.884C428.046 437.82 428.212 437.824 428.38 437.897C428.541 437.967 428.661 438.087 428.739 438.256L429.049 439.062C429.075 439.114 429.126 439.18 429.203 439.261C429.28 439.342 429.352 439.397 429.419 439.427L432.416 440.727C432.483 440.756 432.569 440.77 432.674 440.767C432.786 440.768 432.869 440.76 432.924 440.744L433.214 440.629C433.265 440.604 433.331 440.552 433.412 440.476C433.5 440.402 433.559 440.332 433.588 440.264L433.973 439.376L430.159 437.721C429.93 437.622 429.717 437.469 429.518 437.263C429.32 437.057 429.177 436.843 429.089 436.622L428.975 436.332C428.887 436.11 428.846 435.856 428.85 435.57C428.854 435.284 428.903 435.034 428.996 434.819L429.031 434.738C429.13 434.509 429.283 434.296 429.489 434.097C429.695 433.899 429.909 433.756 430.131 433.668L430.42 433.554C430.642 433.466 430.896 433.425 431.182 433.429C431.471 433.426 431.73 433.475 431.958 433.574L434.955 434.874C435.177 434.971 435.386 435.125 435.582 435.338C435.78 435.544 435.923 435.758 436.011 435.98L436.125 436.269C436.212 436.491 436.254 436.745 436.25 437.031C436.253 437.32 436.204 437.578 436.105 437.807ZM430.319 436.136C430.342 436.194 430.392 436.263 430.468 436.345C430.545 436.426 430.617 436.481 430.684 436.51L434.499 438.165L434.884 437.277C434.913 437.21 434.925 437.119 434.918 437.005C434.919 436.893 434.911 436.809 434.895 436.755L434.781 436.465C434.755 436.414 434.704 436.348 434.627 436.267C434.56 436.182 434.493 436.124 434.426 436.095L431.429 434.795C431.361 434.766 431.27 434.754 431.156 434.76C431.044 434.76 430.961 434.768 430.906 434.784L430.616 434.898C430.565 434.924 430.499 434.975 430.418 435.052C430.337 435.128 430.281 435.2 430.252 435.268L430.217 435.348C430.191 435.409 430.178 435.495 430.177 435.607C430.177 435.718 430.186 435.798 430.205 435.847L430.319 436.136ZM439.332 436.761L444.67 439.077C444.838 439.15 444.957 439.274 445.025 439.447C445.097 439.614 445.096 439.782 445.023 439.95C444.95 440.118 444.827 440.237 444.653 440.305C444.479 440.374 444.308 440.371 444.14 440.298L438.903 438.026L438.163 439.731L441.988 441.391C442.196 441.481 442.399 441.621 442.597 441.811C442.804 441.997 442.959 442.192 443.062 442.397L443.145 442.565C443.256 442.788 443.318 443.051 443.331 443.353C443.347 443.647 443.305 443.909 443.206 444.138L443.092 444.4C442.996 444.622 442.841 444.831 442.628 445.026C442.422 445.225 442.208 445.368 441.987 445.455L441.697 445.57C441.475 445.657 441.221 445.699 440.935 445.695C440.649 445.691 440.399 445.642 440.184 445.548L435.744 443.622C435.575 443.549 435.456 443.429 435.384 443.262C435.322 443.091 435.328 442.922 435.401 442.754C435.474 442.585 435.594 442.466 435.761 442.394C435.934 442.326 436.105 442.328 436.273 442.401L440.713 444.327C440.774 444.354 440.857 444.366 440.962 444.363C441.073 444.364 441.157 444.356 441.212 444.34L441.501 444.225C441.552 444.2 441.618 444.148 441.7 444.072C441.788 443.998 441.845 443.931 441.871 443.87L441.985 443.608C442.008 443.554 442.016 443.481 442.007 443.39C442.002 443.292 441.988 443.222 441.966 443.18L441.883 443.012C441.85 442.942 441.783 442.865 441.684 442.782C441.594 442.695 441.518 442.638 441.458 442.612L437.532 440.909C437.378 440.841 437.246 440.748 437.138 440.63C437.03 440.511 436.947 440.379 436.89 440.234C436.833 440.089 436.803 439.937 436.801 439.776C436.799 439.615 436.831 439.457 436.898 439.302L437.726 437.395C437.793 437.241 437.886 437.109 438.005 437.001C438.124 436.892 438.256 436.81 438.4 436.753C438.545 436.696 438.698 436.666 438.859 436.664C439.019 436.662 439.177 436.694 439.332 436.761ZM452.449 442.657C452.626 442.581 452.795 442.579 452.956 442.649C453.125 442.722 453.241 442.849 453.307 443.029C453.382 443.205 453.383 443.378 453.311 443.546C453.235 443.721 453.109 443.835 452.935 443.887L444.571 447.188C444.408 447.27 444.236 447.271 444.054 447.192C443.879 447.116 443.766 446.991 443.714 446.816C443.633 446.653 443.63 446.484 443.706 446.309C443.785 446.128 443.911 446.011 444.086 445.959L452.449 442.657ZM448.3 442.463C448.245 442.591 448.166 442.701 448.062 442.792C447.968 442.879 447.859 442.947 447.733 442.997C447.618 443.042 447.492 443.064 447.357 443.061C447.229 443.062 447.105 443.036 446.984 442.983C446.728 442.872 446.551 442.691 446.452 442.441C446.356 442.183 446.363 441.926 446.474 441.671C446.527 441.55 446.6 441.446 446.694 441.358C446.79 441.264 446.896 441.195 447.012 441.149C447.131 441.097 447.254 441.07 447.382 441.07C447.517 441.072 447.648 441.101 447.776 441.157C447.897 441.209 448.002 441.282 448.089 441.376C448.183 441.473 448.251 441.583 448.294 441.705C448.346 441.824 448.371 441.95 448.369 442.085C448.376 442.216 448.353 442.342 448.3 442.463ZM450.558 448.203C450.503 448.331 450.427 448.442 450.33 448.536C450.236 448.623 450.127 448.692 450.001 448.741C449.885 448.787 449.76 448.808 449.625 448.806C449.497 448.806 449.373 448.78 449.252 448.728C448.996 448.617 448.815 448.434 448.71 448.181C448.613 447.923 448.621 447.666 448.732 447.411C448.784 447.29 448.857 447.186 448.951 447.098C449.048 447.004 449.154 446.935 449.27 446.889C449.395 446.839 449.522 446.815 449.65 446.814C449.788 446.81 449.921 446.836 450.048 446.891C450.17 446.944 450.272 447.02 450.357 447.121C450.45 447.217 450.519 447.327 450.562 447.449C450.614 447.568 450.639 447.695 450.636 447.83C450.637 447.958 450.611 448.082 450.558 448.203Z" fill="#00FFE0"/>
<path fill-rule="evenodd" clip-rule="evenodd" d="M463.819 446.018L462.853 446.411L461.22 450.283L459.588 454.154L459.981 455.12L460.374 456.086L468.082 459.336L475.789 462.586L476.755 462.192L477.721 461.799L479.354 457.928L480.986 454.056L480.593 453.09L480.2 452.124L472.492 448.874L464.785 445.625L463.819 446.018ZM464.394 447.431C463.841 447.656 461.17 453.993 461.395 454.545C461.625 455.112 475.614 461.01 476.18 460.779C476.733 460.554 479.404 454.218 479.18 453.665C478.949 453.098 464.961 447.201 464.394 447.431ZM464.01 451.459L462.981 453.9L469.258 456.546L475.535 459.193L476.564 456.752L477.593 454.311L471.316 451.664L465.039 449.018L464.01 451.459ZM480.051 458.222L479.303 459.996L479.973 460.192C480.634 460.385 480.654 460.363 481.33 458.761C482.005 457.158 482.007 457.128 481.408 456.791L480.799 456.447L480.051 458.222Z" fill="#00FFE0"/>
<path d="M205.719 452.537C205.572 452.603 205.426 452.608 205.28 452.553C205.135 452.498 205.029 452.397 204.963 452.249C204.897 452.102 204.891 451.956 204.947 451.811C204.999 451.658 205.099 451.549 205.246 451.483L208.407 450.064C208.554 449.998 208.702 449.996 208.85 450.058C209.002 450.11 209.112 450.21 209.178 450.357C209.244 450.505 209.246 450.652 209.184 450.801C209.128 450.946 209.027 451.052 208.88 451.118L205.719 452.537ZM210.072 451.945L211.286 451.4L209.601 447.647L209.419 448.127C209.369 448.302 209.253 448.43 209.073 448.511C208.899 448.589 208.73 448.589 208.566 448.51C208.39 448.46 208.265 448.351 208.19 448.184C208.115 448.017 208.113 447.841 208.183 447.657L208.907 445.752C208.915 445.716 208.932 445.673 208.957 445.621C208.964 445.602 208.976 445.584 208.994 445.569C209.074 445.444 209.168 445.358 209.275 445.31C209.456 445.229 209.648 445.235 209.85 445.329C210.03 445.425 210.149 445.573 210.206 445.772L212.49 450.86L213.885 450.233C214.052 450.158 214.223 450.154 214.398 450.22C214.572 450.287 214.697 450.404 214.772 450.571C214.847 450.738 214.852 450.909 214.785 451.083C214.716 451.251 214.597 451.373 214.43 451.448L210.617 453.16C210.443 453.238 210.27 453.247 210.099 453.187C209.931 453.118 209.81 453 209.734 452.832C209.659 452.665 209.652 452.496 209.711 452.324C209.778 452.15 209.898 452.024 210.072 451.945ZM219.902 441.395C220.125 441.48 220.34 441.62 220.549 441.816C220.764 442.009 220.923 442.219 221.025 442.446L222.358 445.417C222.46 445.644 222.512 445.902 222.513 446.191C222.521 446.477 222.482 446.732 222.398 446.955L222.287 447.245C222.202 447.468 222.062 447.684 221.866 447.892C221.67 448.101 221.462 448.255 221.241 448.354L218.261 449.692C218.033 449.794 217.777 449.849 217.491 449.857C217.205 449.864 216.951 449.826 216.728 449.741L216.437 449.631C216.214 449.546 215.998 449.405 215.79 449.21C215.581 449.014 215.426 448.802 215.324 448.575L213.99 445.604C213.888 445.377 213.833 445.12 213.825 444.834C213.818 444.548 213.856 444.294 213.941 444.071L214.052 443.78C214.136 443.557 214.277 443.342 214.472 443.133C214.665 442.918 214.875 442.759 215.103 442.657L218.083 441.319C218.304 441.22 218.559 441.17 218.848 441.169C219.134 441.161 219.388 441.2 219.611 441.284L219.902 441.395ZM215.177 444.541C215.161 444.596 215.155 444.68 215.157 444.791C215.158 444.903 215.174 444.992 215.204 445.059L216.078 447.006L219.632 442.782C219.553 442.713 219.486 442.663 219.432 442.631L219.141 442.52C219.086 442.505 219.002 442.498 218.891 442.5C218.783 442.492 218.695 442.503 218.628 442.533L215.648 443.871C215.581 443.902 215.511 443.961 215.439 444.05C215.363 444.132 215.313 444.199 215.287 444.25L215.177 444.541ZM221.162 446.484C221.177 446.429 221.184 446.346 221.182 446.234C221.187 446.12 221.174 446.029 221.144 445.962L220.293 444.065L216.744 448.275C216.798 448.323 216.852 448.363 216.907 448.395L217.198 448.505C217.253 448.521 217.336 448.527 217.448 448.526C217.56 448.524 217.649 448.508 217.716 448.478L220.696 447.14C220.763 447.11 220.831 447.055 220.9 446.976C220.976 446.894 221.026 446.827 221.051 446.775L221.162 446.484ZM223.942 442.114C223.62 442.258 223.311 442.32 223.013 442.301C222.719 442.273 222.454 442.175 222.218 442.007C221.979 441.833 221.792 441.596 221.657 441.294C221.519 440.987 221.462 440.691 221.487 440.406C221.516 440.112 221.619 439.849 221.796 439.616C221.976 439.374 222.231 439.18 222.559 439.033C222.873 438.892 223.181 438.834 223.482 438.86C223.779 438.879 224.048 438.975 224.287 439.149C224.523 439.317 224.71 439.554 224.848 439.862C224.983 440.163 225.036 440.461 225.008 440.755C224.976 441.042 224.87 441.307 224.689 441.549C224.505 441.784 224.256 441.972 223.942 442.114ZM223.686 441.517C224.007 441.373 224.202 441.181 224.271 440.941C224.347 440.698 224.322 440.436 224.196 440.155C224.109 439.961 223.997 439.81 223.86 439.702C223.727 439.585 223.572 439.518 223.396 439.501C223.226 439.481 223.037 439.517 222.83 439.61C222.502 439.757 222.3 439.953 222.224 440.196C222.149 440.439 222.177 440.707 222.309 441.002C222.435 441.283 222.614 441.476 222.846 441.58C223.078 441.685 223.358 441.664 223.686 441.517ZM226.887 440.381C226.252 439.236 226.45 438.19 227.48 437.245L230.772 435.768L230.832 435.741L230.892 435.714L231.053 435.641L231.202 435.598C231.917 435.543 232.625 435.723 233.326 436.14L233.471 436.461L233.498 436.521L233.525 436.582C233.498 436.915 233.314 437.15 232.973 437.287C232.884 437.303 232.792 437.296 232.698 437.266L232.629 437.273C232.575 437.241 232.514 437.212 232.446 437.186C232.378 437.161 232.303 437.138 232.222 437.118L232.068 437.043L232.009 437.021C231.977 437.019 231.941 437.011 231.902 436.996C231.867 436.972 231.825 436.951 231.777 436.932L231.571 436.904L231.303 436.952L228.634 438.15L228.433 438.24C228.383 438.255 228.333 438.285 228.282 438.332L228.222 438.359L228.179 438.427L228.119 438.454C227.994 438.622 227.914 438.819 227.878 439.044L227.847 439.082C227.848 439.122 227.852 439.165 227.856 439.211C227.858 439.25 227.864 439.3 227.875 439.359L227.873 439.408L227.981 439.649L228.008 439.709L229.179 442.319C229.224 442.419 229.295 442.524 229.392 442.633C229.663 442.825 229.982 442.907 230.347 442.879L230.588 442.771L230.648 442.744L233.338 441.537L233.469 441.454C233.649 441.244 233.784 440.974 233.877 440.643C233.898 440.618 233.914 440.591 233.925 440.562C233.933 440.526 233.943 440.485 233.954 440.44L234.039 440.306L234.061 440.247L234.092 440.209L234.114 440.151C234.128 440.145 234.138 440.132 234.145 440.113L234.277 440.03L234.437 439.958L234.587 439.915C234.77 439.929 234.948 440.002 235.119 440.134L235.128 440.154L235.119 440.134L235.137 440.174L235.128 440.154L235.146 440.194L235.137 440.174L235.155 440.214L235.146 440.194L235.164 440.234L235.155 440.214L235.173 440.254L235.164 440.234L235.182 440.274L235.173 440.254L235.182 440.274L235.255 440.435L235.264 440.455L235.255 440.435L235.273 440.475L235.264 440.455L235.282 440.495L235.273 440.475L235.291 440.515L235.282 440.495L235.3 440.535L235.291 440.515L235.3 440.535C235.203 441.27 234.871 441.926 234.302 442.503L234.19 442.577L231.421 443.82L231.36 443.847C230.67 444.278 229.922 444.332 229.118 444.01C228.86 443.9 228.602 443.719 228.343 443.465C228.306 443.418 228.275 443.384 228.249 443.363L228.175 443.252L226.887 440.381Z" fill="#00FFE0"/>
<path fill-rule="evenodd" clip-rule="evenodd" d="M192.944 450.47C193.237 450.599 193.449 450.958 194.141 452.499C194.919 454.232 195.014 454.382 195.413 454.507C196.052 454.709 197.129 455.697 197.425 456.354C197.893 457.394 197.906 458.161 197.475 459.294C197.053 460.404 196.524 460.992 195.555 461.426C194.587 461.861 193.796 461.866 192.687 461.444C191.554 461.013 190.989 460.493 190.523 459.452C190.229 458.795 190.206 457.333 190.48 456.722C190.652 456.34 190.603 456.17 189.813 454.412C188.717 451.97 188.685 452.066 190.931 451.058C192.353 450.419 192.638 450.336 192.944 450.47ZM193.453 453.277C194.293 455.147 194.33 455.204 194.761 455.273C195.338 455.365 196.317 456.191 196.602 456.827C196.726 457.102 196.81 457.68 196.791 458.113C196.685 460.429 194.06 461.607 192.259 460.147C191.922 459.875 191.546 459.427 191.423 459.152C191.138 458.517 191.171 457.236 191.485 456.744C191.721 456.376 191.703 456.31 190.863 454.439L189.998 452.513L191.293 451.932L192.588 451.351L193.453 453.277ZM192.981 454.536C193.655 456.037 193.656 456.038 194.177 456.097C196.09 456.311 196.527 458.918 194.781 459.701C193.035 460.485 191.378 458.426 192.489 456.854C192.792 456.426 192.791 456.424 192.117 454.923L191.443 453.421L191.875 453.227L192.306 453.033L192.981 454.536Z" fill="#00FFE0"/>
</g>
<defs>
<clipPath id="clip0_207_15885">
<rect width="668" height="538" fill="white"/>
</clipPath>
</defs>
</svg>
