<svg width="466" height="466" viewBox="0 0 466 466" fill="none" xmlns="http://www.w3.org/2000/svg">
<g clip-path="url(#clip0_188_6)">
<rect width="465.8" height="465.8" fill="#22212C"/>
<path d="M118.638 5.27148L118.638 461.841" stroke="#FF00E5" stroke-width="0.555961"/>
<path d="M461.064 119.414L4.494 119.414" stroke="#FF00E5" stroke-width="0.555961"/>
<path d="M232.779 5.27148L232.779 461.841" stroke="#FF00E5" stroke-width="0.555961"/>
<path d="M461.064 233.556L4.494 233.556" stroke="#FF00E5" stroke-width="0.555961"/>
<path d="M346.922 5.27148L346.922 461.841" stroke="#FF00E5" stroke-width="0.555961"/>
<path d="M461.064 347.699L4.494 347.699" stroke="#FF00E5" stroke-width="0.555961"/>
<path d="M4.57975 114.848V119.499M4.57975 124.15V119.499M4.57975 119.499H-0.0708008H9.23031H4.57975Z" stroke="#FF00E5" stroke-width="1.13627"/>
<path d="M118.722 0.705933V5.3565M118.722 10.0071V5.3565M118.722 5.3565H114.071H123.372H118.722Z" stroke="#FF00E5" stroke-width="1.13627"/>
<path d="M232.864 114.848V119.499M232.864 124.15V119.499M232.864 119.499H228.214H237.515H232.864Z" stroke="#FF00E5" stroke-width="1.13627"/>
<path d="M232.864 0.705933V5.3565M232.864 10.0071V5.3565M232.864 5.3565H228.214H237.515H232.864Z" stroke="#FF00E5" stroke-width="1.13627"/>
<path d="M347.006 0.705933V5.3565M347.006 10.0071V5.3565M347.006 5.3565H342.355H351.657H347.006Z" stroke="#FF00E5" stroke-width="1.13627"/>
<path d="M461.15 114.848V119.499M461.15 124.15V119.499M461.15 119.499H456.499H465.8H461.15Z" stroke="#FF00E5" stroke-width="1.13627"/>
<path d="M461.15 228.991V233.641M461.15 238.292V233.641M461.15 233.641H456.499H465.8H461.15Z" stroke="#FF00E5" stroke-width="1.13627"/>
<path d="M461.15 343.134V347.784M461.15 352.435V347.784M461.15 347.784H456.499H465.8H461.15Z" stroke="#FF00E5" stroke-width="1.13627"/>
<path d="M347.006 457.276V461.927M347.006 466.577V461.927M347.006 461.927H342.355H351.657H347.006Z" stroke="#FF00E5" stroke-width="1.13627"/>
<path d="M232.864 457.276V461.927M232.864 466.577V461.927M232.864 461.927H228.214H237.515H232.864Z" stroke="#FF00E5" stroke-width="1.13627"/>
<path d="M118.722 457.276V461.927M118.722 466.577V461.927M118.722 461.927H114.071H123.372H118.722Z" stroke="#FF00E5" stroke-width="1.13627"/>
<path d="M4.57975 343.134V347.784M4.57975 352.435V347.784M4.57975 347.784H-0.0708008H9.23031H4.57975Z" stroke="#FF00E5" stroke-width="1.13627"/>
<path d="M4.57975 228.991V233.641M4.57975 238.292V233.641M4.57975 233.641H-0.0708008H9.23031H4.57975Z" stroke="#FF00E5" stroke-width="1.13627"/>
<path d="M232.864 343.134V347.784M232.864 352.435V347.784M232.864 347.784H228.214H237.515H232.864Z" stroke="#FF00E5" stroke-width="1.13627"/>
<path d="M396.581 152.664L430.68 119.523M396.581 161.87L429.108 129.342M392.898 175.986L424.812 144.072M412.538 179.668L349.323 242.883M404.559 196.239L351.778 249.02M427.881 152.664L351.778 229.994M414.379 85.7675L409.469 91.291H396.581L376.941 109.703M419.902 104.179L414.379 98.0421M424.199 113.999H419.902L405.173 99.2695H400.877M413.151 117.681L406.4 110.317M410.083 127.501L403.945 121.364M387.988 152.05L384.92 156.347V161.256L381.851 164.939M392.898 126.887V129.956L380.01 142.844M384.306 119.523L359.757 144.072M365.894 121.364L357.302 130.57L356.074 131.797V134.252M362.826 111.544H359.757L345.641 126.887V134.252M363.439 98.0421L334.594 125.66L333.98 137.935M329.684 150.823L318.637 163.098H293.474L291.633 161.256V157.574M313.727 170.462L307.59 165.552L278.131 188.874L275.676 211.582M298.384 199.308L286.109 191.329M295.929 220.175L292.86 223.857V228.767L289.792 231.835M284.268 223.857H272.607V225.084M259.719 204.218L257.264 206.672V222.629M268.311 256.385L267.083 255.157H257.264V252.089V222.629M257.264 222.629H260.332M249.285 205.445L252.968 209.127V245.951M252.968 252.089V245.951M252.968 245.951H240.079M247.444 233.677H240.079M240.079 227.539H246.217L247.444 224.471M248.058 216.492L245.603 215.265H240.079M375.714 145.913L362.212 159.415V189.488L355.461 194.398M357.916 147.754V163.711M355.461 184.578L357.916 182.123V174.145M357.916 174.145H355.461M357.916 174.145V163.711M357.916 163.711H355.461M353.006 175.986V177.213H343.186M332.139 165.552L313.727 183.964M326.002 188.261H322.319L317.409 193.17V223.857L305.749 235.518M302.066 239.2L287.95 253.316V256.998M302.066 258.226L321.092 239.2M322.933 236.132V218.947M326.002 199.308L322.933 201.149V209.127M308.817 223.243L310.658 221.402V187.033M329.07 206.672L329.684 206.059H338.276M326.002 218.947H322.933M322.933 218.947V209.127M322.933 209.127H326.002M348.71 217.72L367.735 198.694M369.577 195.625V160.643L372.645 159.415M395.353 217.72L392.898 241.041L364.667 263.749L357.302 257.612M383.692 231.835L380.01 234.904V240.428L377.555 242.883M398.422 272.342L385.534 260.067M400.263 286.457L383.692 269.887M402.718 302.414L372.031 271.114V268.046M400.263 315.917L368.963 285.23V281.548M393.512 326.35L362.826 296.277V292.595M394.74 339.238H391.057L352.392 300.573V292.595M340.117 292.595V305.483L385.534 349.058M376.328 357.037L361.598 341.693V338.011M372.645 377.903L365.894 371.766V368.697M355.461 355.195H349.323M355.461 363.174L353.006 360.719H349.323M355.461 370.539L353.62 372.994H349.323M355.461 396.315V393.247M346.869 391.405L341.345 386.496V348.444V347.217H354.233V326.964H345.641L341.345 331.26M362.212 273.569L354.233 282.161H318.637V274.183M339.504 275.41H329.684M339.504 264.363H329.684M348.71 264.363V256.385H314.341L297.77 272.955M330.911 293.822H321.092M334.594 301.187H335.821V307.324M332.753 391.405L335.821 388.337V307.324M335.821 307.324H322.319M329.684 319.599H322.319M329.684 328.191L327.229 325.736H322.319M330.298 336.783L326.615 338.625L322.319 339.852M314.341 284.003L310.045 278.479H298.997V298.732L302.066 301.801H314.341V347.217L308.203 353.968M324.774 371.152L321.092 374.835H318.637M329.684 375.448L321.706 381.586L322.933 385.268M321.092 385.882L266.47 333.715V320.826M273.835 319.599V331.26L306.362 363.788M306.362 336.783H298.384L289.792 328.191H281.813M307.59 324.509L305.135 326.35H300.225M297.77 326.964L294.088 325.123M291.633 323.895L287.337 320.826H284.268M307.59 306.097H298.997M304.521 314.075L301.452 311.62H267.697M265.242 310.393L246.83 289.526M257.264 314.075L254.195 309.779M292.246 285.844L284.268 291.981H271.993L265.856 297.505M256.65 288.299L250.513 282.161M279.358 284.003H275.062L261.56 269.273H257.264M276.289 277.865L259.719 261.295M276.289 268.659L273.835 266.204V245.338L271.38 242.883M287.95 170.462L284.268 171.69L270.152 185.806V194.398" stroke="#FF00E5" stroke-width="1.46709"/>
<path d="M66.3861 152.664L33.8584 120.396M66.3861 161.87L33.8584 129.342M70.0685 175.986L38.1545 144.072M50.4291 179.668L113.643 242.883M58.4076 196.239L111.188 249.02M35.0859 152.664L111.188 229.994M48.5879 85.7675L53.4978 91.291H66.3861L86.0255 109.703M43.0644 104.179L48.5879 98.0421M38.7682 113.999H43.0644L57.7939 99.2695H62.09M49.8154 117.681L56.5664 110.317M52.8841 127.501L59.0214 121.364M74.9784 152.05L78.047 156.347V161.256L81.1157 164.939M70.0685 126.887V129.956L82.9569 142.844M78.6608 119.523L103.21 144.072M97.0727 121.364L105.665 130.57L106.892 131.797V134.252M100.141 111.544H103.21L117.326 126.887V134.252M99.5276 98.0421L128.373 125.66L128.987 137.935M133.283 150.823L144.33 163.098H169.493L171.334 161.256V157.574M149.24 170.462L155.377 165.552L184.836 188.874L187.291 211.582M164.583 199.308L176.858 191.329M167.038 220.175L170.107 223.857V228.767L173.175 231.835M178.699 223.857H190.36V225.084M203.248 204.218L205.703 206.672V222.629M194.656 256.385L195.883 255.157H205.703V252.089V222.629M205.703 222.629H202.634M213.682 205.445L209.999 209.127V245.951M209.999 252.089V245.951M209.999 245.951H222.888M215.523 233.677H222.888M222.888 227.539H216.75L215.523 224.471M214.909 216.492L217.364 215.265H222.888M87.253 145.913L100.755 159.415V189.488L107.506 194.398M105.051 147.754V163.711M107.506 184.578L105.051 182.123V174.145M105.051 174.145H107.506M105.051 174.145V163.711M105.051 163.711H107.506M109.961 175.986V177.213H119.781M130.828 165.552L149.24 183.964M136.965 188.261H140.648L145.557 193.17V223.857L157.218 235.518M160.901 239.2L175.017 253.316V256.998M160.901 258.226L141.875 239.2M140.034 236.132V218.947M136.965 199.308L140.034 201.149V209.127M154.15 223.243L152.308 221.402V187.033M133.897 206.672L133.283 206.059H124.691M136.965 218.947H140.034M140.034 218.947V209.127M140.034 209.127H136.965M114.257 217.72L95.2315 198.694M93.3903 195.625V160.643L90.3216 159.415M67.6136 217.72L70.0685 241.041L98.3001 263.749L105.665 257.612M79.2745 231.835L82.9569 234.904V240.428L85.4118 242.883M64.5449 272.342L77.4333 260.067M62.7038 286.457L79.2745 269.887M60.2488 302.414L90.9354 271.114V268.046M62.7038 315.917L94.004 285.23V281.548M69.4548 326.35L100.141 296.277V292.595M68.2273 339.238H71.9097L110.575 300.573V292.595M122.849 292.595V305.483L77.4333 349.058M86.6393 357.037L101.369 341.693V338.011M90.3216 377.903L97.0727 371.766V368.697M107.506 355.195H113.643M107.506 363.174L109.961 360.719H113.643M107.506 370.539L109.347 372.994H113.643M107.506 396.315V393.247M116.098 391.405L121.622 386.496V348.444V347.217H108.734V326.964H117.326L121.622 331.26M100.755 273.569L108.734 282.161H144.33V274.183M123.463 275.41H133.283M123.463 264.363H133.283M114.257 264.363V256.385H148.626L165.197 272.955M132.055 293.822H141.875M128.373 301.187H127.145V307.324M130.214 391.405L127.145 388.337V307.324M127.145 307.324H140.648M133.283 319.599H140.648M133.283 328.191L135.738 325.736H140.648M132.669 336.783L136.351 338.625L140.648 339.852M148.626 284.003L152.922 278.479H163.969V298.732L160.901 301.801H148.626V347.217L154.763 353.968M138.193 371.152L141.875 374.835H144.33M133.283 375.448L141.261 381.586L140.034 385.268M141.875 385.882L196.497 333.715V320.826M189.132 319.599V331.26L156.605 363.788M156.605 336.783H164.583L173.175 328.191H181.154M155.377 324.509L157.832 326.35H162.742M165.197 326.964L168.879 325.123M171.334 323.895L175.63 320.826H178.699M155.377 306.097H163.969M158.446 314.075L161.514 311.62H195.27M197.725 310.393L216.136 289.526M205.703 314.075L208.772 309.779M170.72 285.844L178.699 291.981H190.974L197.111 297.505M206.317 288.299L212.454 282.161M183.609 284.003H187.905L201.407 269.273H205.703M186.677 277.865L203.248 261.295M186.677 268.659L189.132 266.204V245.338L191.587 242.883M232.094 286.457V318.371M233.935 209.741V253.93H218.591V267.432M224.115 260.681H213.068M233.321 271.114L229.639 275.41H221.046L218.591 271.728M249.892 260.681H238.845M193.428 194.398V185.806L178.699 171.076H174.403" stroke="#FF00E5" stroke-width="1.46709"/>
<circle cx="1.83386" cy="1.83386" r="1.10031" transform="matrix(-1 0 0 1 358.525 353.353)" stroke="#00FFE0" stroke-width="1.46709"/>
<circle cx="106.276" cy="355.187" r="1.10031" stroke="#00FFE0" stroke-width="1.46709"/>
<circle cx="1.83386" cy="1.83386" r="1.10031" transform="matrix(-1 0 0 1 349.934 353.353)" stroke="#00FFE0" stroke-width="1.46709"/>
<circle cx="114.867" cy="355.187" r="1.10031" stroke="#00FFE0" stroke-width="1.46709"/>
<circle cx="1.83386" cy="1.83386" r="1.10031" transform="matrix(-1 0 0 1 322.935 317.758)" stroke="#00FFE0" stroke-width="1.46709"/>
<circle cx="141.866" cy="319.591" r="1.10031" stroke="#00FFE0" stroke-width="1.46709"/>
<circle cx="1.83386" cy="1.83386" r="1.10031" transform="matrix(-1 0 0 1 332.75 317.758)" stroke="#00FFE0" stroke-width="1.46709"/>
<circle cx="132.051" cy="319.591" r="1.10031" stroke="#00FFE0" stroke-width="1.46709"/>
<circle cx="1.83386" cy="1.83386" r="1.10031" transform="matrix(-1 0 0 1 332.75 327.578)" stroke="#00FFE0" stroke-width="1.46709"/>
<circle cx="132.051" cy="329.411" r="1.10031" stroke="#00FFE0" stroke-width="1.46709"/>
<circle cx="1.83386" cy="1.83386" r="1.10031" transform="matrix(-1 0 0 1 322.935 323.895)" stroke="#00FFE0" stroke-width="1.46709"/>
<circle cx="141.866" cy="325.729" r="1.10031" stroke="#00FFE0" stroke-width="1.46709"/>
<circle cx="1.83386" cy="1.83386" r="1.10031" transform="matrix(-1 0 0 1 322.935 338.624)" stroke="#00FFE0" stroke-width="1.46709"/>
<circle cx="141.866" cy="340.458" r="1.10031" stroke="#00FFE0" stroke-width="1.46709"/>
<circle cx="1.83386" cy="1.83386" r="1.10031" transform="matrix(-1 0 0 1 327.841 368.081)" stroke="#00FFE0" stroke-width="1.46709"/>
<circle cx="136.959" cy="369.915" r="1.10031" stroke="#00FFE0" stroke-width="1.46709"/>
<circle cx="1.83386" cy="1.83386" r="1.10031" transform="matrix(-1 0 0 1 332.75 372.992)" stroke="#00FFE0" stroke-width="1.46709"/>
<circle cx="132.051" cy="374.825" r="1.10031" stroke="#00FFE0" stroke-width="1.46709"/>
<circle cx="1.83386" cy="1.83386" r="1.10031" transform="matrix(-1 0 0 1 319.249 372.992)" stroke="#00FFE0" stroke-width="1.46709"/>
<circle cx="145.553" cy="374.825" r="1.10031" stroke="#00FFE0" stroke-width="1.46709"/>
<circle cx="1.83386" cy="1.83386" r="1.10031" transform="matrix(-1 0 0 1 314.342 369.312)" stroke="#00FFE0" stroke-width="1.46709"/>
<circle cx="150.459" cy="371.145" r="1.10031" stroke="#00FFE0" stroke-width="1.46709"/>
<circle cx="1.83386" cy="1.83386" r="1.10031" transform="matrix(-1 0 0 1 332.75 333.712)" stroke="#00FFE0" stroke-width="1.46709"/>
<circle cx="132.051" cy="335.546" r="1.10031" stroke="#00FFE0" stroke-width="1.46709"/>
<circle cx="1.83386" cy="1.83386" r="1.10031" transform="matrix(-1 0 0 1 322.935 305.481)" stroke="#00FFE0" stroke-width="1.46709"/>
<circle cx="141.866" cy="307.315" r="1.10031" stroke="#00FFE0" stroke-width="1.46709"/>
<circle cx="1.83386" cy="1.83386" r="1.10031" transform="matrix(-1 0 0 1 335.207 299.343)" stroke="#00FFE0" stroke-width="1.46709"/>
<circle cx="129.594" cy="301.177" r="1.10031" stroke="#00FFE0" stroke-width="1.46709"/>
<circle cx="1.83386" cy="1.83386" r="1.10031" transform="matrix(-1 0 0 1 310.657 321.439)" stroke="#00FFE0" stroke-width="1.46709"/>
<circle cx="154.143" cy="323.273" r="1.10031" stroke="#00FFE0" stroke-width="1.46709"/>
<circle cx="1.83386" cy="1.83386" r="1.10031" transform="matrix(-1 0 0 1 300.839 325.121)" stroke="#00FFE0" stroke-width="1.46709"/>
<circle cx="163.964" cy="326.955" r="1.10031" stroke="#00FFE0" stroke-width="1.46709"/>
<circle cx="1.83386" cy="1.83386" r="1.10031" transform="matrix(-1 0 0 1 294.699 322.667)" stroke="#00FFE0" stroke-width="1.46709"/>
<circle cx="170.101" cy="324.501" r="1.10031" stroke="#00FFE0" stroke-width="1.46709"/>
<circle cx="1.83386" cy="1.83386" r="1.10031" transform="matrix(-1 0 0 1 284.88 318.982)" stroke="#00FFE0" stroke-width="1.46709"/>
<circle cx="179.92" cy="320.816" r="1.10031" stroke="#00FFE0" stroke-width="1.46709"/>
<circle cx="1.83386" cy="1.83386" r="1.10031" transform="matrix(-1 0 0 1 278.744 277.249)" stroke="#00FFE0" stroke-width="1.46709"/>
<circle cx="186.056" cy="279.083" r="1.10031" stroke="#00FFE0" stroke-width="1.46709"/>
<circle cx="1.83386" cy="1.83386" r="1.10031" transform="matrix(-1 0 0 1 260.333 312.847)" stroke="#00FFE0" stroke-width="1.46709"/>
<circle cx="204.47" cy="314.681" r="1.10031" stroke="#00FFE0" stroke-width="1.46709"/>
<circle cx="1.83386" cy="1.83386" r="1.10031" transform="matrix(-1 0 0 1 255.422 306.708)" stroke="#00FFE0" stroke-width="1.46709"/>
<circle cx="209.382" cy="308.542" r="1.10031" stroke="#00FFE0" stroke-width="1.46709"/>
<circle cx="1.83386" cy="1.83386" r="1.10031" transform="matrix(-1 0 0 1 271.382 255.157)" stroke="#00FFE0" stroke-width="1.46709"/>
<circle cx="193.421" cy="256.99" r="1.10031" stroke="#00FFE0" stroke-width="1.46709"/>
<circle cx="1.83386" cy="1.83386" r="1.10031" transform="matrix(-1 0 0 1 264.016 220.79)" stroke="#00FFE0" stroke-width="1.46709"/>
<circle cx="200.786" cy="222.623" r="1.10031" stroke="#00FFE0" stroke-width="1.46709"/>
<circle cx="1.83386" cy="1.83386" r="1.10031" transform="matrix(-1 0 0 1 262.787 201.148)" stroke="#00FFE0" stroke-width="1.46709"/>
<circle cx="202.015" cy="202.982" r="1.10031" stroke="#00FFE0" stroke-width="1.46709"/>
<circle cx="1.83386" cy="1.83386" r="1.10031" transform="matrix(-1 0 0 1 250.51 202.374)" stroke="#00FFE0" stroke-width="1.46709"/>
<circle cx="214.29" cy="204.208" r="1.10031" stroke="#00FFE0" stroke-width="1.46709"/>
<circle cx="1.83386" cy="1.83386" r="1.10031" transform="matrix(-1 0 0 1 254.194 251.473)" stroke="#00FFE0" stroke-width="1.46709"/>
<circle cx="210.607" cy="253.307" r="1.10031" stroke="#00FFE0" stroke-width="1.46709"/>
<circle cx="1.83386" cy="1.83386" r="1.10031" transform="matrix(-1 0 0 1 260.333 258.839)" stroke="#00FFE0" stroke-width="1.46709"/>
<circle cx="204.47" cy="260.673" r="1.10031" stroke="#00FFE0" stroke-width="1.46709"/>
<circle cx="1.83386" cy="1.83386" r="1.10031" transform="matrix(-1 0 0 1 240.69 244.111)" stroke="#00FFE0" stroke-width="1.46709"/>
<circle cx="224.116" cy="245.945" r="1.10031" stroke="#00FFE0" stroke-width="1.46709"/>
<circle cx="1.83386" cy="1.83386" r="1.10031" transform="matrix(-1 0 0 1 250.51 231.835)" stroke="#00FFE0" stroke-width="1.46709"/>
<circle cx="214.29" cy="233.669" r="1.10031" stroke="#00FFE0" stroke-width="1.46709"/>
<circle cx="1.83386" cy="1.83386" r="1.10031" transform="matrix(-1 0 0 1 240.69 231.835)" stroke="#00FFE0" stroke-width="1.46709"/>
<circle cx="224.116" cy="233.669" r="1.10031" stroke="#00FFE0" stroke-width="1.46709"/>
<circle cx="1.83386" cy="1.83386" r="1.10031" transform="matrix(-1 0 0 1 240.69 225.696)" stroke="#00FFE0" stroke-width="1.46709"/>
<circle cx="224.116" cy="227.53" r="1.10031" stroke="#00FFE0" stroke-width="1.46709"/>
<circle cx="1.83386" cy="1.83386" r="1.10031" transform="matrix(-1 0 0 1 250.51 222.016)" stroke="#00FFE0" stroke-width="1.46709"/>
<circle cx="214.29" cy="223.85" r="1.10031" stroke="#00FFE0" stroke-width="1.46709"/>
<circle cx="1.83386" cy="1.83386" r="1.10031" transform="matrix(-1 0 0 1 250.51 215.876)" stroke="#00FFE0" stroke-width="1.46709"/>
<circle cx="214.29" cy="217.71" r="1.10031" stroke="#00FFE0" stroke-width="1.46709"/>
<circle cx="1.83386" cy="1.83386" r="1.10031" transform="matrix(-1 0 0 1 240.69 213.424)" stroke="#00FFE0" stroke-width="1.46709"/>
<circle cx="224.116" cy="215.258" r="1.10031" stroke="#00FFE0" stroke-width="1.46709"/>
<circle cx="1.83386" cy="1.83386" r="1.10031" transform="matrix(-1 0 0 1 310.657 304.254)" stroke="#00FFE0" stroke-width="1.46709"/>
<circle cx="154.143" cy="306.088" r="1.10031" stroke="#00FFE0" stroke-width="1.46709"/>
<circle cx="1.83386" cy="1.83386" r="1.10031" transform="matrix(-1 0 0 1 299.609 304.254)" stroke="#00FFE0" stroke-width="1.46709"/>
<circle cx="165.192" cy="306.088" r="1.10031" stroke="#00FFE0" stroke-width="1.46709"/>
<circle cx="1.83386" cy="1.83386" r="1.10031" transform="matrix(-1 0 0 1 349.934 359.492)" stroke="#00FFE0" stroke-width="1.46709"/>
<circle cx="114.867" cy="361.325" r="1.10031" stroke="#00FFE0" stroke-width="1.46709"/>
<circle cx="1.83386" cy="1.83386" r="1.10031" transform="matrix(-1 0 0 1 358.525 361.946)" stroke="#00FFE0" stroke-width="1.46709"/>
<circle cx="106.276" cy="363.779" r="1.10031" stroke="#00FFE0" stroke-width="1.46709"/>
<circle cx="1.83386" cy="1.83386" r="1.10031" transform="matrix(-1 0 0 1 358.525 368.081)" stroke="#00FFE0" stroke-width="1.46709"/>
<circle cx="106.276" cy="369.915" r="1.10031" stroke="#00FFE0" stroke-width="1.46709"/>
<circle cx="1.83386" cy="1.83386" r="1.10031" transform="matrix(-1 0 0 1 349.934 371.765)" stroke="#00FFE0" stroke-width="1.46709"/>
<circle cx="114.867" cy="373.599" r="1.10031" stroke="#00FFE0" stroke-width="1.46709"/>
<circle cx="32.7301" cy="119.295" r="2.5674" stroke="#00FFE0" stroke-width="1.46709"/>
<circle cx="3.30094" cy="3.30094" r="2.5674" transform="matrix(-1 0 0 1 430.214 139.468)" stroke="#00FFE0" stroke-width="1.46709"/>
<circle cx="37.132" cy="142.769" r="2.5674" stroke="#00FFE0" stroke-width="1.46709"/>
<circle cx="3.30094" cy="3.30094" r="2.5674" transform="matrix(-1 0 0 1 434.615 124.063)" stroke="#00FFE0" stroke-width="1.46709"/>
<circle cx="3.30094" cy="3.30094" r="2.5674" transform="matrix(-1 0 0 1 436.082 115.261)" stroke="#00FFE0" stroke-width="1.46709"/>
<circle cx="32.7301" cy="128.097" r="2.5674" stroke="#00FFE0" stroke-width="1.46709"/>
<circle cx="3.30094" cy="3.30094" r="2.5674" transform="matrix(-1 0 0 1 416.218 93.1339)" stroke="#00FFE0" stroke-width="1.46709"/>
<circle cx="50.048" cy="96.435" r="2.5674" stroke="#00FFE0" stroke-width="1.46709"/>
<circle cx="3.30094" cy="3.30094" r="2.5674" transform="matrix(-1 0 0 1 424.812 102.952)" stroke="#00FFE0" stroke-width="1.46709"/>
<circle cx="41.4552" cy="106.253" r="2.5674" stroke="#00FFE0" stroke-width="1.46709"/>
<circle cx="3.30094" cy="3.30094" r="2.5674" transform="matrix(-1 0 0 1 418.674 80.8585)" stroke="#00FFE0" stroke-width="1.46709"/>
<circle cx="47.5939" cy="84.1595" r="2.5674" stroke="#00FFE0" stroke-width="1.46709"/>
<circle cx="3.30094" cy="3.30094" r="2.5674" transform="matrix(-1 0 0 1 401.489 95.5865)" stroke="#00FFE0" stroke-width="1.46709"/>
<circle cx="64.7775" cy="98.8876" r="2.5674" stroke="#00FFE0" stroke-width="1.46709"/>
<circle cx="3.30094" cy="3.30094" r="2.5674" transform="matrix(-1 0 0 1 429.72 110.316)" stroke="#00FFE0" stroke-width="1.46709"/>
<circle cx="36.548" cy="113.617" r="2.5674" stroke="#00FFE0" stroke-width="1.46709"/>
<circle cx="3.30094" cy="3.30094" r="2.5674" transform="matrix(-1 0 0 1 417.447 116.454)" stroke="#00FFE0" stroke-width="1.46709"/>
<circle cx="48.821" cy="119.755" r="2.5674" stroke="#00FFE0" stroke-width="1.46709"/>
<circle cx="3.30094" cy="3.30094" r="2.5674" transform="matrix(-1 0 0 1 407.626 105.405)" stroke="#00FFE0" stroke-width="1.46709"/>
<circle cx="58.6423" cy="108.706" r="2.5674" stroke="#00FFE0" stroke-width="1.46709"/>
<circle cx="3.30094" cy="3.30094" r="2.5674" transform="matrix(-1 0 0 1 397.809 102.952)" stroke="#00FFE0" stroke-width="1.46709"/>
<circle cx="68.4596" cy="106.253" r="2.5674" stroke="#00FFE0" stroke-width="1.46709"/>
<circle cx="3.30094" cy="3.30094" r="2.5674" transform="matrix(-1 0 0 1 397.809 112.772)" stroke="#00FFE0" stroke-width="1.46709"/>
<circle cx="68.4596" cy="116.073" r="2.5674" stroke="#00FFE0" stroke-width="1.46709"/>
<circle cx="3.30094" cy="3.30094" r="2.5674" transform="matrix(-1 0 0 1 405.173 116.454)" stroke="#00FFE0" stroke-width="1.46709"/>
<circle cx="61.0959" cy="119.755" r="2.5674" stroke="#00FFE0" stroke-width="1.46709"/>
<circle cx="3.30094" cy="3.30094" r="2.5674" transform="matrix(-1 0 0 1 414.993 126.274)" stroke="#00FFE0" stroke-width="1.46709"/>
<circle cx="51.2746" cy="129.575" r="2.5674" stroke="#00FFE0" stroke-width="1.46709"/>
<circle cx="3.30094" cy="3.30094" r="2.5674" transform="matrix(-1 0 0 1 403.943 129.956)" stroke="#00FFE0" stroke-width="1.46709"/>
<circle cx="62.3234" cy="133.257" r="2.5674" stroke="#00FFE0" stroke-width="1.46709"/>
<circle cx="3.30094" cy="3.30094" r="2.5674" transform="matrix(-1 0 0 1 396.583 121.364)" stroke="#00FFE0" stroke-width="1.46709"/>
<circle cx="69.6852" cy="124.665" r="2.5674" stroke="#00FFE0" stroke-width="1.46709"/>
<circle cx="3.30094" cy="3.30094" r="2.5674" transform="matrix(-1 0 0 1 389.213 115.229)" stroke="#00FFE0" stroke-width="1.46709"/>
<circle cx="77.05" cy="118.53" r="2.5674" stroke="#00FFE0" stroke-width="1.46709"/>
<circle cx="3.30094" cy="3.30094" r="2.5674" transform="matrix(-1 0 0 1 395.353 137.32)" stroke="#00FFE0" stroke-width="1.46709"/>
<circle cx="70.9152" cy="140.621" r="2.5674" stroke="#00FFE0" stroke-width="1.46709"/>
<circle cx="3.30094" cy="3.30094" r="2.5674" transform="matrix(-1 0 0 1 380.625 141.003)" stroke="#00FFE0" stroke-width="1.46709"/>
<circle cx="85.6481" cy="144.304" r="2.5674" stroke="#00FFE0" stroke-width="1.46709"/>
<circle cx="3.30094" cy="3.30094" r="2.5674" transform="matrix(-1 0 0 1 392.9 147.141)" stroke="#00FFE0" stroke-width="1.46709"/>
<circle cx="73.3683" cy="150.442" r="2.5674" stroke="#00FFE0" stroke-width="1.46709"/>
<circle cx="3.30094" cy="3.30094" r="2.5674" transform="matrix(-1 0 0 1 378.168 107.862)" stroke="#00FFE0" stroke-width="1.46709"/>
<circle cx="88.0998" cy="111.163" r="2.5674" stroke="#00FFE0" stroke-width="1.46709"/>
<circle cx="3.30094" cy="3.30094" r="2.5674" transform="matrix(-1 0 0 1 370.806 116.454)" stroke="#00FFE0" stroke-width="1.46709"/>
<circle cx="95.4626" cy="119.755" r="2.5674" stroke="#00FFE0" stroke-width="1.46709"/>
<circle cx="3.30094" cy="3.30094" r="2.5674" transform="matrix(-1 0 0 1 368.349 107.862)" stroke="#00FFE0" stroke-width="1.46709"/>
<circle cx="97.9191" cy="111.163" r="2.5674" stroke="#00FFE0" stroke-width="1.46709"/>
<circle cx="3.30094" cy="3.30094" r="2.5674" transform="matrix(-1 0 0 1 368.349 93.1339)" stroke="#00FFE0" stroke-width="1.46709"/>
<circle cx="97.9191" cy="96.435" r="2.5674" stroke="#00FFE0" stroke-width="1.46709"/>
<circle cx="3.30094" cy="3.30094" r="2.5674" transform="matrix(-1 0 0 1 337.662 137.32)" stroke="#00FFE0" stroke-width="1.46709"/>
<circle cx="128.606" cy="140.621" r="2.5674" stroke="#00FFE0" stroke-width="1.46709"/>
<circle cx="3.30094" cy="3.30094" r="2.5674" transform="matrix(-1 0 0 1 348.71 133.637)" stroke="#00FFE0" stroke-width="1.46709"/>
<circle cx="117.557" cy="136.938" r="2.5674" stroke="#00FFE0" stroke-width="1.46709"/>
<circle cx="3.30094" cy="3.30094" r="2.5674" transform="matrix(-1 0 0 1 358.525 133.637)" stroke="#00FFE0" stroke-width="1.46709"/>
<circle cx="107.742" cy="136.938" r="2.5674" stroke="#00FFE0" stroke-width="1.46709"/>
<circle cx="3.30094" cy="3.30094" r="2.5674" transform="matrix(-1 0 0 1 360.983 142.23)" stroke="#00FFE0" stroke-width="1.46709"/>
<circle cx="105.284" cy="145.531" r="2.5674" stroke="#00FFE0" stroke-width="1.46709"/>
<circle cx="3.30094" cy="3.30094" r="2.5674" transform="matrix(-1 0 0 1 378.168 155.733)" stroke="#00FFE0" stroke-width="1.46709"/>
<circle cx="88.0998" cy="159.034" r="2.5674" stroke="#00FFE0" stroke-width="1.46709"/>
<circle cx="3.30094" cy="3.30094" r="2.5674" transform="matrix(-1 0 0 1 383.079 163.095)" stroke="#00FFE0" stroke-width="1.46709"/>
<circle cx="83.1896" cy="166.396" r="2.5674" stroke="#00FFE0" stroke-width="1.46709"/>
<circle cx="3.30094" cy="3.30094" r="2.5674" transform="matrix(-1 0 0 1 386.762 171.69)" stroke="#00FFE0" stroke-width="1.46709"/>
<circle cx="79.507" cy="174.991" r="2.5674" stroke="#00FFE0" stroke-width="1.46709"/>
<circle cx="3.30094" cy="3.30094" r="2.5674" transform="matrix(-1 0 0 1 386.762 181.51)" stroke="#00FFE0" stroke-width="1.46709"/>
<circle cx="79.507" cy="184.811" r="2.5674" stroke="#00FFE0" stroke-width="1.46709"/>
<circle cx="3.30094" cy="3.30094" r="2.5674" transform="matrix(-1 0 0 1 394.125 175.374)" stroke="#00FFE0" stroke-width="1.46709"/>
<circle cx="72.1427" cy="178.675" r="2.5674" stroke="#00FFE0" stroke-width="1.46709"/>
<circle cx="3.30094" cy="3.30094" r="2.5674" transform="matrix(-1 0 0 1 397.809 160.641)" stroke="#00FFE0" stroke-width="1.46709"/>
<circle cx="68.4596" cy="163.942" r="2.5674" stroke="#00FFE0" stroke-width="1.46709"/>
<circle cx="3.30094" cy="3.30094" r="2.5674" transform="matrix(-1 0 0 1 397.809 150.821)" stroke="#00FFE0" stroke-width="1.46709"/>
<circle cx="68.4596" cy="154.122" r="2.5674" stroke="#00FFE0" stroke-width="1.46709"/>
<circle cx="3.30094" cy="3.30094" r="2.5674" transform="matrix(-1 0 0 1 432.178 147.141)" stroke="#00FFE0" stroke-width="1.46709"/>
<circle cx="34.0915" cy="150.442" r="2.5674" stroke="#00FFE0" stroke-width="1.46709"/>
<circle cx="3.30094" cy="3.30094" r="2.5674" transform="matrix(-1 0 0 1 417.447 174.146)" stroke="#00FFE0" stroke-width="1.46709"/>
<circle cx="48.821" cy="177.447" r="2.5674" stroke="#00FFE0" stroke-width="1.46709"/>
<circle cx="3.30094" cy="3.30094" r="2.5674" transform="matrix(-1 0 0 1 408.854 191.327)" stroke="#00FFE0" stroke-width="1.46709"/>
<circle cx="57.4118" cy="194.628" r="2.5674" stroke="#00FFE0" stroke-width="1.46709"/>
<circle cx="3.30094" cy="3.30094" r="2.5674" transform="matrix(-1 0 0 1 353.62 228.153)" stroke="#00FFE0" stroke-width="1.46709"/>
<circle cx="112.651" cy="231.454" r="2.5674" stroke="#00FFE0" stroke-width="1.46709"/>
<circle cx="3.30094" cy="3.30094" r="2.5674" transform="matrix(-1 0 0 1 351.164 241.653)" stroke="#00FFE0" stroke-width="1.46709"/>
<circle cx="115.105" cy="244.954" r="2.5674" stroke="#00FFE0" stroke-width="1.46709"/>
<circle cx="3.30094" cy="3.30094" r="2.5674" transform="matrix(-1 0 0 1 353.62 247.791)" stroke="#00FFE0" stroke-width="1.46709"/>
<circle cx="112.651" cy="251.092" r="2.5674" stroke="#00FFE0" stroke-width="1.46709"/>
<circle cx="3.30094" cy="3.30094" r="2.5674" transform="matrix(-1 0 0 1 373.259 195.01)" stroke="#00FFE0" stroke-width="1.46709"/>
<circle cx="93.0094" cy="198.311" r="2.5674" stroke="#00FFE0" stroke-width="1.46709"/>
<circle cx="3.30094" cy="3.30094" r="2.5674" transform="matrix(-1 0 0 1 349.934 215.876)" stroke="#00FFE0" stroke-width="1.46709"/>
<circle cx="116.334" cy="219.177" r="2.5674" stroke="#00FFE0" stroke-width="1.46709"/>
<circle cx="3.30094" cy="3.30094" r="2.5674" transform="matrix(-1 0 0 1 343.8 213.424)" stroke="#00FFE0" stroke-width="1.46709"/>
<circle cx="122.467" cy="216.725" r="2.5674" stroke="#00FFE0" stroke-width="1.46709"/>
<circle cx="3.30094" cy="3.30094" r="2.5674" transform="matrix(-1 0 0 1 343.8 203.604)" stroke="#00FFE0" stroke-width="1.46709"/>
<circle cx="122.467" cy="206.905" r="2.5674" stroke="#00FFE0" stroke-width="1.46709"/>
<circle cx="3.30094" cy="3.30094" r="2.5674" transform="matrix(-1 0 0 1 343.8 193.782)" stroke="#00FFE0" stroke-width="1.46709"/>
<circle cx="122.467" cy="197.083" r="2.5674" stroke="#00FFE0" stroke-width="1.46709"/>
<circle cx="3.30094" cy="3.30094" r="2.5674" transform="matrix(-1 0 0 1 343.8 182.735)" stroke="#00FFE0" stroke-width="1.46709"/>
<circle cx="122.467" cy="186.036" r="2.5674" stroke="#00FFE0" stroke-width="1.46709"/>
<circle cx="3.30094" cy="3.30094" r="2.5674" transform="matrix(-1 0 0 1 356.073 191.327)" stroke="#00FFE0" stroke-width="1.46709"/>
<circle cx="110.194" cy="194.628" r="2.5674" stroke="#00FFE0" stroke-width="1.46709"/>
<circle cx="3.30094" cy="3.30094" r="2.5674" transform="matrix(-1 0 0 1 356.073 181.51)" stroke="#00FFE0" stroke-width="1.46709"/>
<circle cx="110.194" cy="184.811" r="2.5674" stroke="#00FFE0" stroke-width="1.46709"/>
<circle cx="3.30094" cy="3.30094" r="2.5674" transform="matrix(-1 0 0 1 356.073 170.461)" stroke="#00FFE0" stroke-width="1.46709"/>
<circle cx="110.194" cy="173.762" r="2.5674" stroke="#00FFE0" stroke-width="1.46709"/>
<circle cx="3.30094" cy="3.30094" r="2.5674" transform="matrix(-1 0 0 1 356.073 160.641)" stroke="#00FFE0" stroke-width="1.46709"/>
<circle cx="110.194" cy="163.942" r="2.5674" stroke="#00FFE0" stroke-width="1.46709"/>
<circle cx="3.30094" cy="3.30094" r="2.5674" transform="matrix(-1 0 0 1 343.8 174.146)" stroke="#00FFE0" stroke-width="1.46709"/>
<circle cx="122.467" cy="177.447" r="2.5674" stroke="#00FFE0" stroke-width="1.46709"/>
<circle cx="3.30094" cy="3.30094" r="2.5674" transform="matrix(-1 0 0 1 343.8 163.095)" stroke="#00FFE0" stroke-width="1.46709"/>
<circle cx="122.467" cy="166.396" r="2.5674" stroke="#00FFE0" stroke-width="1.46709"/>
<circle cx="3.30094" cy="3.30094" r="2.5674" transform="matrix(-1 0 0 1 343.8 153.277)" stroke="#00FFE0" stroke-width="1.46709"/>
<circle cx="122.467" cy="156.578" r="2.5674" stroke="#00FFE0" stroke-width="1.46709"/>
<circle cx="3.30094" cy="3.30094" r="2.5674" transform="matrix(-1 0 0 1 343.8 143.457)" stroke="#00FFE0" stroke-width="1.46709"/>
<circle cx="122.467" cy="146.758" r="2.5674" stroke="#00FFE0" stroke-width="1.46709"/>
<circle cx="3.30094" cy="3.30094" r="2.5674" transform="matrix(-1 0 0 1 336.437 160.641)" stroke="#00FFE0" stroke-width="1.46709"/>
<circle cx="129.832" cy="163.942" r="2.5674" stroke="#00FFE0" stroke-width="1.46709"/>
<circle cx="3.30094" cy="3.30094" r="2.5674" transform="matrix(-1 0 0 1 333.981 145.91)" stroke="#00FFE0" stroke-width="1.46709"/>
<circle cx="132.289" cy="149.211" r="2.5674" stroke="#00FFE0" stroke-width="1.46709"/>
<circle cx="3.30094" cy="3.30094" r="2.5674" transform="matrix(-1 0 0 1 294.699 152.051)" stroke="#00FFE0" stroke-width="1.46709"/>
<circle cx="171.568" cy="155.351" r="2.5674" stroke="#00FFE0" stroke-width="1.46709"/>
<circle cx="3.30094" cy="3.30094" r="2.5674" transform="matrix(-1 0 0 1 314.342 181.51)" stroke="#00FFE0" stroke-width="1.46709"/>
<circle cx="151.926" cy="184.811" r="2.5674" stroke="#00FFE0" stroke-width="1.46709"/>
<circle cx="3.30094" cy="3.30094" r="2.5674" transform="matrix(-1 0 0 1 331.524 185.192)" stroke="#00FFE0" stroke-width="1.46709"/>
<circle cx="134.744" cy="188.493" r="2.5674" stroke="#00FFE0" stroke-width="1.46709"/>
<circle cx="3.30094" cy="3.30094" r="2.5674" transform="matrix(-1 0 0 1 331.524 196.238)" stroke="#00FFE0" stroke-width="1.46709"/>
<circle cx="134.744" cy="199.539" r="2.5674" stroke="#00FFE0" stroke-width="1.46709"/>
<circle cx="3.30094" cy="3.30094" r="2.5674" transform="matrix(-1 0 0 1 331.524 206.058)" stroke="#00FFE0" stroke-width="1.46709"/>
<circle cx="134.744" cy="209.359" r="2.5674" stroke="#00FFE0" stroke-width="1.46709"/>
<circle cx="3.30094" cy="3.30094" r="2.5674" transform="matrix(-1 0 0 1 331.524 215.876)" stroke="#00FFE0" stroke-width="1.46709"/>
<circle cx="134.744" cy="219.177" r="2.5674" stroke="#00FFE0" stroke-width="1.46709"/>
<circle cx="3.30094" cy="3.30094" r="2.5674" transform="matrix(-1 0 0 1 343.8 223.243)" stroke="#00FFE0" stroke-width="1.46709"/>
<circle cx="122.467" cy="226.544" r="2.5674" stroke="#00FFE0" stroke-width="1.46709"/>
<circle cx="3.30094" cy="3.30094" r="2.5674" transform="matrix(-1 0 0 1 343.8 233.06)" stroke="#00FFE0" stroke-width="1.46709"/>
<circle cx="122.467" cy="236.361" r="2.5674" stroke="#00FFE0" stroke-width="1.46709"/>
<circle cx="3.30094" cy="3.30094" r="2.5674" transform="matrix(-1 0 0 1 326.616 235.518)" stroke="#00FFE0" stroke-width="1.46709"/>
<circle cx="139.653" cy="238.819" r="2.5674" stroke="#00FFE0" stroke-width="1.46709"/>
<circle cx="3.30094" cy="3.30094" r="2.5674" transform="matrix(-1 0 0 1 303.292 256.384)" stroke="#00FFE0" stroke-width="1.46709"/>
<circle cx="162.976" cy="259.685" r="2.5674" stroke="#00FFE0" stroke-width="1.46709"/>
<circle cx="3.30094" cy="3.30094" r="2.5674" transform="matrix(-1 0 0 1 306.976 234.291)" stroke="#00FFE0" stroke-width="1.46709"/>
<circle cx="159.293" cy="237.592" r="2.5674" stroke="#00FFE0" stroke-width="1.46709"/>
<circle cx="3.30094" cy="3.30094" r="2.5674" transform="matrix(-1 0 0 1 318.025 169.233)" stroke="#00FFE0" stroke-width="1.46709"/>
<circle cx="148.244" cy="172.534" r="2.5674" stroke="#00FFE0" stroke-width="1.46709"/>
<circle cx="3.30094" cy="3.30094" r="2.5674" transform="matrix(-1 0 0 1 278.744 210.967)" stroke="#00FFE0" stroke-width="1.46709"/>
<circle cx="187.522" cy="214.268" r="2.5674" stroke="#00FFE0" stroke-width="1.46709"/>
<circle cx="3.30094" cy="3.30094" r="2.5674" transform="matrix(-1 0 0 1 287.336 186.417)" stroke="#00FFE0" stroke-width="1.46709"/>
<circle cx="178.931" cy="189.718" r="2.5674" stroke="#00FFE0" stroke-width="1.46709"/>
<circle cx="3.30094" cy="3.30094" r="2.5674" transform="matrix(-1 0 0 1 303.292 197.464)" stroke="#00FFE0" stroke-width="1.46709"/>
<circle cx="162.976" cy="200.765" r="2.5674" stroke="#00FFE0" stroke-width="1.46709"/>
<circle cx="3.30094" cy="3.30094" r="2.5674" transform="matrix(-1 0 0 1 300.839 206.058)" stroke="#00FFE0" stroke-width="1.46709"/>
<circle cx="165.431" cy="209.359" r="2.5674" stroke="#00FFE0" stroke-width="1.46709"/>
<circle cx="3.30094" cy="3.30094" r="2.5674" transform="matrix(-1 0 0 1 300.839 215.876)" stroke="#00FFE0" stroke-width="1.46709"/>
<circle cx="165.431" cy="219.177" r="2.5674" stroke="#00FFE0" stroke-width="1.46709"/>
<circle cx="3.30094" cy="3.30094" r="2.5674" transform="matrix(-1 0 0 1 291.019 230.606)" stroke="#00FFE0" stroke-width="1.46709"/>
<circle cx="175.25" cy="233.907" r="2.5674" stroke="#00FFE0" stroke-width="1.46709"/>
<circle cx="3.30094" cy="3.30094" r="2.5674" transform="matrix(-1 0 0 1 289.792 220.79)" stroke="#00FFE0" stroke-width="1.46709"/>
<circle cx="176.476" cy="224.09" r="2.5674" stroke="#00FFE0" stroke-width="1.46709"/>
<circle cx="3.30094" cy="3.30094" r="2.5674" transform="matrix(-1 0 0 1 275.059 224.469)" stroke="#00FFE0" stroke-width="1.46709"/>
<circle cx="191.209" cy="227.77" r="2.5674" stroke="#00FFE0" stroke-width="1.46709"/>
<circle cx="3.30094" cy="3.30094" r="2.5674" transform="matrix(-1 0 0 1 272.607 193.782)" stroke="#00FFE0" stroke-width="1.46709"/>
<circle cx="193.66" cy="197.083" r="2.5674" stroke="#00FFE0" stroke-width="1.46709"/>
<circle cx="3.30094" cy="3.30094" r="2.5674" transform="matrix(-1 0 0 1 293.472 166.78)" stroke="#00FFE0" stroke-width="1.46709"/>
<circle cx="172.795" cy="170.081" r="2.5674" stroke="#00FFE0" stroke-width="1.46709"/>
<circle cx="3.30094" cy="3.30094" r="2.5674" transform="matrix(-1 0 0 1 399.035 212.195)" stroke="#00FFE0" stroke-width="1.46709"/>
<circle cx="67.2336" cy="215.496" r="2.5674" stroke="#00FFE0" stroke-width="1.46709"/>
<circle cx="3.30094" cy="3.30094" r="2.5674" transform="matrix(-1 0 0 1 387.988 226.925)" stroke="#00FFE0" stroke-width="1.46709"/>
<circle cx="78.2804" cy="230.226" r="2.5674" stroke="#00FFE0" stroke-width="1.46709"/>
<circle cx="3.30094" cy="3.30094" r="2.5674" transform="matrix(-1 0 0 1 378.168 241.653)" stroke="#00FFE0" stroke-width="1.46709"/>
<circle cx="88.0998" cy="244.954" r="2.5674" stroke="#00FFE0" stroke-width="1.46709"/>
<circle cx="3.30094" cy="3.30094" r="2.5674" transform="matrix(-1 0 0 1 368.349 246.563)" stroke="#00FFE0" stroke-width="1.46709"/>
<circle cx="97.9191" cy="249.864" r="2.5674" stroke="#00FFE0" stroke-width="1.46709"/>
<circle cx="3.30094" cy="3.30094" r="2.5674" transform="matrix(-1 0 0 1 359.757 252.701)" stroke="#00FFE0" stroke-width="1.46709"/>
<circle cx="106.511" cy="256.002" r="2.5674" stroke="#00FFE0" stroke-width="1.46709"/>
<circle cx="3.30094" cy="3.30094" r="2.5674" transform="matrix(-1 0 0 1 386.762 255.156)" stroke="#00FFE0" stroke-width="1.46709"/>
<circle cx="79.507" cy="258.456" r="2.5674" stroke="#00FFE0" stroke-width="1.46709"/>
<circle cx="3.30094" cy="3.30094" r="2.5674" transform="matrix(-1 0 0 1 402.72 271.116)" stroke="#00FFE0" stroke-width="1.46709"/>
<circle cx="63.5485" cy="274.417" r="2.5674" stroke="#00FFE0" stroke-width="1.46709"/>
<circle cx="3.30094" cy="3.30094" r="2.5674" transform="matrix(-1 0 0 1 405.173 284.615)" stroke="#00FFE0" stroke-width="1.46709"/>
<circle cx="61.0959" cy="287.916" r="2.5674" stroke="#00FFE0" stroke-width="1.46709"/>
<circle cx="3.30094" cy="3.30094" r="2.5674" transform="matrix(-1 0 0 1 385.531 264.976)" stroke="#00FFE0" stroke-width="1.46709"/>
<circle cx="80.7355" cy="268.277" r="2.5674" stroke="#00FFE0" stroke-width="1.46709"/>
<circle cx="3.30094" cy="3.30094" r="2.5674" transform="matrix(-1 0 0 1 375.714 262.524)" stroke="#00FFE0" stroke-width="1.46709"/>
<circle cx="90.5534" cy="265.824" r="2.5674" stroke="#00FFE0" stroke-width="1.46709"/>
<circle cx="3.30094" cy="3.30094" r="2.5674" transform="matrix(-1 0 0 1 407.626 300.574)" stroke="#00FFE0" stroke-width="1.46709"/>
<circle cx="58.6423" cy="303.874" r="2.5674" stroke="#00FFE0" stroke-width="1.46709"/>
<circle cx="3.30094" cy="3.30094" r="2.5674" transform="matrix(-1 0 0 1 372.031 276.024)" stroke="#00FFE0" stroke-width="1.46709"/>
<circle cx="94.237" cy="279.325" r="2.5674" stroke="#00FFE0" stroke-width="1.46709"/>
<circle cx="3.30094" cy="3.30094" r="2.5674" transform="matrix(-1 0 0 1 405.173 314.074)" stroke="#00FFE0" stroke-width="1.46709"/>
<circle cx="61.0959" cy="317.375" r="2.5674" stroke="#00FFE0" stroke-width="1.46709"/>
<circle cx="3.30094" cy="3.30094" r="2.5674" transform="matrix(-1 0 0 1 397.809 325.121)" stroke="#00FFE0" stroke-width="1.46709"/>
<circle cx="68.4596" cy="328.422" r="2.5674" stroke="#00FFE0" stroke-width="1.46709"/>
<circle cx="3.30094" cy="3.30094" r="2.5674" transform="matrix(-1 0 0 1 365.893 287.07)" stroke="#00FFE0" stroke-width="1.46709"/>
<circle cx="100.376" cy="290.371" r="2.5674" stroke="#00FFE0" stroke-width="1.46709"/>
<circle cx="3.30094" cy="3.30094" r="2.5674" transform="matrix(-1 0 0 1 354.845 287.07)" stroke="#00FFE0" stroke-width="1.46709"/>
<circle cx="111.423" cy="290.371" r="2.5674" stroke="#00FFE0" stroke-width="1.46709"/>
<circle cx="3.30094" cy="3.30094" r="2.5674" transform="matrix(-1 0 0 1 400.263 336.171)" stroke="#00FFE0" stroke-width="1.46709"/>
<circle cx="66.0046" cy="339.471" r="2.5674" stroke="#00FFE0" stroke-width="1.46709"/>
<circle cx="3.30094" cy="3.30094" r="2.5674" transform="matrix(-1 0 0 1 390.442 347.213)" stroke="#00FFE0" stroke-width="1.46709"/>
<circle cx="75.8263" cy="350.514" r="2.5674" stroke="#00FFE0" stroke-width="1.46709"/>
<circle cx="3.30094" cy="3.30094" r="2.5674" transform="matrix(-1 0 0 1 343.8 287.07)" stroke="#00FFE0" stroke-width="1.46709"/>
<circle cx="122.467" cy="290.371" r="2.5674" stroke="#00FFE0" stroke-width="1.46709"/>
<circle cx="3.30094" cy="3.30094" r="2.5674" transform="matrix(-1 0 0 1 345.028 261.294)" stroke="#00FFE0" stroke-width="1.46709"/>
<circle cx="121.24" cy="264.595" r="2.5674" stroke="#00FFE0" stroke-width="1.46709"/>
<circle cx="3.30094" cy="3.30094" r="2.5674" transform="matrix(-1 0 0 1 330.296 261.294)" stroke="#00FFE0" stroke-width="1.46709"/>
<circle cx="135.97" cy="264.595" r="2.5674" stroke="#00FFE0" stroke-width="1.46709"/>
<circle cx="3.30094" cy="3.30094" r="2.5674" transform="matrix(-1 0 0 1 330.296 272.342)" stroke="#00FFE0" stroke-width="1.46709"/>
<circle cx="135.97" cy="275.643" r="2.5674" stroke="#00FFE0" stroke-width="1.46709"/>
<circle cx="3.30094" cy="3.30094" r="2.5674" transform="matrix(-1 0 0 1 345.028 272.342)" stroke="#00FFE0" stroke-width="1.46709"/>
<circle cx="121.24" cy="275.643" r="2.5674" stroke="#00FFE0" stroke-width="1.46709"/>
<circle cx="3.30094" cy="3.30094" r="2.5674" transform="matrix(-1 0 0 1 321.706 268.657)" stroke="#00FFE0" stroke-width="1.46709"/>
<circle cx="144.563" cy="271.958" r="2.5674" stroke="#00FFE0" stroke-width="1.46709"/>
<circle cx="3.30094" cy="3.30094" r="2.5674" transform="matrix(-1 0 0 1 352.393 263.75)" stroke="#00FFE0" stroke-width="1.46709"/>
<circle cx="113.875" cy="267.051" r="2.5674" stroke="#00FFE0" stroke-width="1.46709"/>
<circle cx="3.30094" cy="3.30094" r="2.5674" transform="matrix(-1 0 0 1 367.122 268.657)" stroke="#00FFE0" stroke-width="1.46709"/>
<circle cx="99.1447" cy="271.958" r="2.5674" stroke="#00FFE0" stroke-width="1.46709"/>
<circle cx="3.30094" cy="3.30094" r="2.5674" transform="matrix(-1 0 0 1 318.025 283.389)" stroke="#00FFE0" stroke-width="1.46709"/>
<circle cx="148.244" cy="286.69" r="2.5674" stroke="#00FFE0" stroke-width="1.46709"/>
<circle cx="3.30094" cy="3.30094" r="2.5674" transform="matrix(-1 0 0 1 321.706 290.753)" stroke="#00FFE0" stroke-width="1.46709"/>
<circle cx="144.563" cy="294.054" r="2.5674" stroke="#00FFE0" stroke-width="1.46709"/>
<circle cx="3.30094" cy="3.30094" r="2.5674" transform="matrix(-1 0 0 1 336.437 290.753)" stroke="#00FFE0" stroke-width="1.46709"/>
<circle cx="129.832" cy="294.054" r="2.5674" stroke="#00FFE0" stroke-width="1.46709"/>
<circle cx="3.30094" cy="3.30094" r="2.5674" transform="matrix(-1 0 0 1 299.609 271.116)" stroke="#00FFE0" stroke-width="1.46709"/>
<circle cx="166.659" cy="274.417" r="2.5674" stroke="#00FFE0" stroke-width="1.46709"/>
<circle cx="3.30094" cy="3.30094" r="2.5674" transform="matrix(-1 0 0 1 289.792 263.75)" stroke="#00FFE0" stroke-width="1.46709"/>
<circle cx="176.476" cy="267.051" r="2.5674" stroke="#00FFE0" stroke-width="1.46709"/>
<circle cx="3.30094" cy="3.30094" r="2.5674" transform="matrix(-1 0 0 1 281.198 267.431)" stroke="#00FFE0" stroke-width="1.46709"/>
<circle cx="185.07" cy="270.732" r="2.5674" stroke="#00FFE0" stroke-width="1.46709"/>
<circle cx="3.30094" cy="3.30094" r="2.5674" transform="matrix(-1 0 0 1 255.423 257.61)" stroke="#00FFE0" stroke-width="1.46709"/>
<circle cx="210.848" cy="260.911" r="2.5674" stroke="#00FFE0" stroke-width="1.46709"/>
<circle cx="3.30094" cy="3.30094" r="2.5674" transform="matrix(-1 0 0 1 239.465 257.61)" stroke="#00FFE0" stroke-width="1.46709"/>
<circle cx="226.808" cy="260.911" r="2.5674" stroke="#00FFE0" stroke-width="1.46709"/>
<circle cx="235.402" cy="269.505" r="2.5674" stroke="#00FFE0" stroke-width="1.46709"/>
<circle cx="231.72" cy="284.236" r="2.5674" stroke="#00FFE0" stroke-width="1.46709"/>
<circle cx="232.947" cy="321.059" r="2.5674" stroke="#00FFE0" stroke-width="1.46709"/>
<circle cx="3.30094" cy="3.30094" r="2.5674" transform="matrix(-1 0 0 1 246.829 266.204)" stroke="#00FFE0" stroke-width="1.46709"/>
<circle cx="219.439" cy="269.505" r="2.5674" stroke="#00FFE0" stroke-width="1.46709"/>
<circle cx="3.30094" cy="3.30094" r="2.5674" transform="matrix(-1 0 0 1 257.876 266.204)" stroke="#00FFE0" stroke-width="1.46709"/>
<circle cx="208.392" cy="269.505" r="2.5674" stroke="#00FFE0" stroke-width="1.46709"/>
<circle cx="3.30094" cy="3.30094" r="2.5674" transform="matrix(-1 0 0 1 251.741 277.25)" stroke="#00FFE0" stroke-width="1.46709"/>
<circle cx="214.532" cy="280.551" r="2.5674" stroke="#00FFE0" stroke-width="1.46709"/>
<circle cx="3.30094" cy="3.30094" r="2.5674" transform="matrix(-1 0 0 1 364.667 332.486)" stroke="#00FFE0" stroke-width="1.46709"/>
<circle cx="101.602" cy="335.787" r="2.5674" stroke="#00FFE0" stroke-width="1.46709"/>
<circle cx="3.30094" cy="3.30094" r="2.5674" transform="matrix(-1 0 0 1 343.8 330.032)" stroke="#00FFE0" stroke-width="1.46709"/>
<circle cx="122.467" cy="333.333" r="2.5674" stroke="#00FFE0" stroke-width="1.46709"/>
<circle cx="3.30094" cy="3.30094" r="2.5674" transform="matrix(-1 0 0 1 380.625 355.807)" stroke="#00FFE0" stroke-width="1.46709"/>
<circle cx="85.6481" cy="359.108" r="2.5674" stroke="#00FFE0" stroke-width="1.46709"/>
<circle cx="3.30094" cy="3.30094" r="2.5674" transform="matrix(-1 0 0 1 376.94 376.674)" stroke="#00FFE0" stroke-width="1.46709"/>
<circle cx="89.3244" cy="379.975" r="2.5674" stroke="#00FFE0" stroke-width="1.46709"/>
<circle cx="3.30094" cy="3.30094" r="2.5674" transform="matrix(-1 0 0 1 368.349 363.172)" stroke="#00FFE0" stroke-width="1.46709"/>
<circle cx="97.9191" cy="366.473" r="2.5674" stroke="#00FFE0" stroke-width="1.46709"/>
<circle cx="3.30094" cy="3.30094" r="2.5674" transform="matrix(-1 0 0 1 358.525 387.722)" stroke="#00FFE0" stroke-width="1.46709"/>
<circle cx="107.742" cy="391.023" r="2.5674" stroke="#00FFE0" stroke-width="1.46709"/>
<circle cx="3.30094" cy="3.30094" r="2.5674" transform="matrix(-1 0 0 1 326.616 384.038)" stroke="#00FFE0" stroke-width="1.46709"/>
<circle cx="139.653" cy="387.339" r="2.5674" stroke="#00FFE0" stroke-width="1.46709"/>
<circle cx="3.30094" cy="3.30094" r="2.5674" transform="matrix(-1 0 0 1 321.706 350.899)" stroke="#00FFE0" stroke-width="1.46709"/>
<circle cx="144.563" cy="354.2" r="2.5674" stroke="#00FFE0" stroke-width="1.46709"/>
<circle cx="3.30094" cy="3.30094" r="2.5674" transform="matrix(-1 0 0 1 311.884 333.711)" stroke="#00FFE0" stroke-width="1.46709"/>
<circle cx="154.385" cy="337.012" r="2.5674" stroke="#00FFE0" stroke-width="1.46709"/>
<circle cx="3.30094" cy="3.30094" r="2.5674" transform="matrix(-1 0 0 1 277.517 314.074)" stroke="#00FFE0" stroke-width="1.46709"/>
<circle cx="188.753" cy="317.375" r="2.5674" stroke="#00FFE0" stroke-width="1.46709"/>
<circle cx="3.30094" cy="3.30094" r="2.5674" transform="matrix(-1 0 0 1 270.149 315.303)" stroke="#00FFE0" stroke-width="1.46709"/>
<circle cx="196.117" cy="318.604" r="2.5674" stroke="#00FFE0" stroke-width="1.46709"/>
<circle cx="3.30094" cy="3.30094" r="2.5674" transform="matrix(-1 0 0 1 282.427 323.895)" stroke="#00FFE0" stroke-width="1.46709"/>
<circle cx="183.84" cy="327.196" r="2.5674" stroke="#00FFE0" stroke-width="1.46709"/>
<circle cx="3.30094" cy="3.30094" r="2.5674" transform="matrix(-1 0 0 1 266.473 295.661)" stroke="#00FFE0" stroke-width="1.46709"/>
<circle cx="199.799" cy="298.962" r="2.5674" stroke="#00FFE0" stroke-width="1.46709"/>
<circle cx="3.30094" cy="3.30094" r="2.5674" transform="matrix(-1 0 0 1 261.561 287.07)" stroke="#00FFE0" stroke-width="1.46709"/>
<circle cx="204.711" cy="290.371" r="2.5674" stroke="#00FFE0" stroke-width="1.46709"/>
<circle cx="3.30094" cy="3.30094" r="2.5674" transform="matrix(-1 0 0 1 248.055 284.615)" stroke="#00FFE0" stroke-width="1.46709"/>
<circle cx="218.209" cy="287.916" r="2.5674" stroke="#00FFE0" stroke-width="1.46709"/>
<circle cx="3.30094" cy="3.30094" r="2.5674" transform="matrix(-1 0 0 1 268.924 309.165)" stroke="#00FFE0" stroke-width="1.46709"/>
<circle cx="197.344" cy="312.466" r="2.5674" stroke="#00FFE0" stroke-width="1.46709"/>
<circle cx="3.30094" cy="3.30094" r="2.5674" transform="matrix(-1 0 0 1 308.203 312.847)" stroke="#00FFE0" stroke-width="1.46709"/>
<circle cx="158.065" cy="316.148" r="2.5674" stroke="#00FFE0" stroke-width="1.46709"/>
<circle cx="3.30094" cy="3.30094" r="2.5674" transform="matrix(-1 0 0 1 297.155 280.935)" stroke="#00FFE0" stroke-width="1.46709"/>
<circle cx="169.114" cy="284.236" r="2.5674" stroke="#00FFE0" stroke-width="1.46709"/>
<circle cx="3.30094" cy="3.30094" r="2.5674" transform="matrix(-1 0 0 1 284.88 280.935)" stroke="#00FFE0" stroke-width="1.46709"/>
<circle cx="181.387" cy="284.236" r="2.5674" stroke="#00FFE0" stroke-width="1.46709"/>
<circle cx="3.30094" cy="3.30094" r="2.5674" transform="matrix(-1 0 0 1 289.792 273.569)" stroke="#00FFE0" stroke-width="1.46709"/>
<circle cx="176.476" cy="276.87" r="2.5674" stroke="#00FFE0" stroke-width="1.46709"/>
<circle cx="3.30094" cy="3.30094" r="2.5674" transform="matrix(-1 0 0 1 320.478 359.492)" stroke="#00FFE0" stroke-width="1.46709"/>
<circle cx="145.789" cy="362.793" r="2.5674" stroke="#00FFE0" stroke-width="1.46709"/>
<circle cx="3.30094" cy="3.30094" r="2.5674" transform="matrix(-1 0 0 1 311.884 361.946)" stroke="#00FFE0" stroke-width="1.46709"/>
<circle cx="154.385" cy="365.246" r="2.5674" stroke="#00FFE0" stroke-width="1.46709"/>
<circle cx="3.30094" cy="3.30094" r="2.5674" transform="matrix(-1 0 0 1 309.43 352.125)" stroke="#00FFE0" stroke-width="1.46709"/>
<circle cx="156.838" cy="355.426" r="2.5674" stroke="#00FFE0" stroke-width="1.46709"/>
<circle cx="3.30094" cy="3.30094" r="2.5674" transform="matrix(-1 0 0 1 291.019 256.384)" stroke="#00FFE0" stroke-width="1.46709"/>
<circle cx="175.25" cy="259.685" r="2.5674" stroke="#00FFE0" stroke-width="1.46709"/>
<circle cx="3.30094" cy="3.30094" r="2.5674" transform="matrix(-1 0 0 1 272.607 237.974)" stroke="#00FFE0" stroke-width="1.46709"/>
<circle cx="193.66" cy="241.275" r="2.5674" stroke="#00FFE0" stroke-width="1.46709"/>
<circle cx="3.30094" cy="3.30094" r="2.5674" transform="matrix(-1 0 0 1 309.43 220.79)" stroke="#00FFE0" stroke-width="1.46709"/>
<circle cx="156.838" cy="224.09" r="2.5674" stroke="#00FFE0" stroke-width="1.46709"/>
<circle cx="6.75104" cy="6.75104" r="6.0175" transform="matrix(-1 0 0 1 239.466 192.556)" stroke="#00FFE0" stroke-width="1.46709"/>
</g>
<defs>
<clipPath id="clip0_188_6">
<rect width="465.8" height="465.8" fill="white"/>
</clipPath>
</defs>
</svg>
