<svg width="575" height="443" viewBox="0 0 575 443" fill="none" xmlns="http://www.w3.org/2000/svg">
<circle class="circles-butt-1" cx="2.58876" cy="2.58876" r="1.55325" transform="matrix(-1 0 0 1 464.69 384.905)" stroke="#00FFE0" stroke-width="2.07101"/>
<circle class="circles-butt-1" cx="108.602" cy="387.494" r="1.55325" stroke="#00FFE0" stroke-width="2.07101"/>
<circle class="circles-butt-1" cx="2.58876" cy="2.58876" r="1.55325" transform="matrix(-1 0 0 1 452.562 384.905)" stroke="#00FFE0" stroke-width="2.07101"/>
<circle class="circles-butt-1" cx="120.73" cy="387.494" r="1.55325" stroke="#00FFE0" stroke-width="2.07101"/>
<circle class="circles-butt-1" cx="2.58876" cy="2.58876" r="1.55325" transform="matrix(-1 0 0 1 414.448 334.657)" stroke="#00FFE0" stroke-width="2.07101"/>
<circle class="circles-butt-1" cx="158.845" cy="337.246" r="1.55325" stroke="#00FFE0" stroke-width="2.07101"/>
<circle class="circles-butt-1" cx="2.58876" cy="2.58876" r="1.55325" transform="matrix(-1 0 0 1 428.305 334.657)" stroke="#00FFE0" stroke-width="2.07101"/>
<circle class="circles-butt-1" cx="144.987" cy="337.246" r="1.55325" stroke="#00FFE0" stroke-width="2.07101"/>
<circle class="circles-butt-1" cx="2.58876" cy="2.58876" r="1.55325" transform="matrix(-1 0 0 1 428.305 348.52)" stroke="#00FFE0" stroke-width="2.07101"/>
<circle class="circles-butt-1" cx="144.987" cy="351.108" r="1.55325" stroke="#00FFE0" stroke-width="2.07101"/>
<circle class="circles-butt-1" cx="2.58876" cy="2.58876" r="1.55325" transform="matrix(-1 0 0 1 414.448 343.321)" stroke="#00FFE0" stroke-width="2.07101"/>
<circle class="circles-butt-1" cx="158.845" cy="345.91" r="1.55325" stroke="#00FFE0" stroke-width="2.07101"/>
<circle class="circles-butt-1" cx="2.58876" cy="2.58876" r="1.55325" transform="matrix(-1 0 0 1 414.448 364.113)" stroke="#00FFE0" stroke-width="2.07101"/>
<circle class="circles-butt-1" cx="158.845" cy="366.702" r="1.55325" stroke="#00FFE0" stroke-width="2.07101"/>
<circle class="circles-butt-1" cx="2.58876" cy="2.58876" r="1.55325" transform="matrix(-1 0 0 1 421.375 405.696)" stroke="#00FFE0" stroke-width="2.07101"/>
<circle class="circles-butt-1" cx="151.917" cy="408.285" r="1.55325" stroke="#00FFE0" stroke-width="2.07101"/>
<circle class="circles-butt-1" cx="2.58876" cy="2.58876" r="1.55325" transform="matrix(-1 0 0 1 428.305 412.629)" stroke="#00FFE0" stroke-width="2.07101"/>
<circle class="circles-butt-1" cx="144.987" cy="415.215" r="1.55325" stroke="#00FFE0" stroke-width="2.07101"/>
<circle class="circles-butt-1" cx="2.58876" cy="2.58876" r="1.55325" transform="matrix(-1 0 0 1 409.246 412.629)" stroke="#00FFE0" stroke-width="2.07101"/>
<circle class="circles-butt-1" cx="164.047" cy="415.215" r="1.55325" stroke="#00FFE0" stroke-width="2.07101"/>
<circle class="circles-butt-1" cx="2.58876" cy="2.58876" r="1.55325" transform="matrix(-1 0 0 1 402.318 407.433)" stroke="#00FFE0" stroke-width="2.07101"/>
<circle class="circles-butt-1" cx="170.975" cy="410.022" r="1.55325" stroke="#00FFE0" stroke-width="2.07101"/>
<circle class="circles-butt-1" cx="2.58876" cy="2.58876" r="1.55325" transform="matrix(-1 0 0 1 428.305 357.179)" stroke="#00FFE0" stroke-width="2.07101"/>
<circle class="circles-butt-1" cx="144.987" cy="359.768" r="1.55325" stroke="#00FFE0" stroke-width="2.07101"/>
<circle class="circles-butt-1" cx="2.58876" cy="2.58876" r="1.55325" transform="matrix(-1 0 0 1 414.448 317.327)" stroke="#00FFE0" stroke-width="2.07101"/>
<circle class="circles-butt-1" cx="158.845" cy="319.916" r="1.55325" stroke="#00FFE0" stroke-width="2.07101"/>
<circle class="circles-butt-1" cx="2.58876" cy="2.58876" r="1.55325" transform="matrix(-1 0 0 1 431.772 308.663)" stroke="#00FFE0" stroke-width="2.07101"/>
<circle class="circles-butt-1" cx="141.52" cy="311.251" r="1.55325" stroke="#00FFE0" stroke-width="2.07101"/>
<circle class="circles-butt-1" cx="2.58876" cy="2.58876" r="1.55325" transform="matrix(-1 0 0 1 397.117 339.855)" stroke="#00FFE0" stroke-width="2.07101"/>
<circle class="circles-butt-1" cx="176.176" cy="342.443" r="1.55325" stroke="#00FFE0" stroke-width="2.07101"/>
<circle class="circles-butt-1" cx="2.58876" cy="2.58876" r="1.55325" transform="matrix(-1 0 0 1 383.258 345.052)" stroke="#00FFE0" stroke-width="2.07101"/>
<circle class="circles-butt-1" cx="190.039" cy="347.641" r="1.55325" stroke="#00FFE0" stroke-width="2.07101"/>
<circle class="circles-butt-1" cx="2.58876" cy="2.58876" r="1.55325" transform="matrix(-1 0 0 1 374.59 341.588)" stroke="#00FFE0" stroke-width="2.07101"/>
<circle class="circles-butt-1" cx="198.703" cy="344.177" r="1.55325" stroke="#00FFE0" stroke-width="2.07101"/>
<circle class="circles-butt-1" cx="2.58876" cy="2.58876" r="1.55325" transform="matrix(-1 0 0 1 360.729 336.386)" stroke="#00FFE0" stroke-width="2.07101"/>
<circle class="circles-butt-1" cx="212.562" cy="338.975" r="1.55325" stroke="#00FFE0" stroke-width="2.07101"/>
<circle class="circles-butt-1" cx="2.58876" cy="2.58876" r="1.55325" transform="matrix(-1 0 0 1 352.067 277.474)" stroke="#00FFE0" stroke-width="2.07101"/>
<circle class="circles-butt-1" cx="221.224" cy="280.062" r="1.55325" stroke="#00FFE0" stroke-width="2.07101"/>
<circle class="circles-butt-1" cx="2.58876" cy="2.58876" r="1.55325" transform="matrix(-1 0 0 1 326.076 327.725)" stroke="#00FFE0" stroke-width="2.07101"/>
<circle class="circles-butt-1" cx="247.217" cy="330.314" r="1.55325" stroke="#00FFE0" stroke-width="2.07101"/>
<circle class="circles-butt-1" cx="2.58876" cy="2.58876" r="1.55325" transform="matrix(-1 0 0 1 319.145 319.06)" stroke="#00FFE0" stroke-width="2.07101"/>
<circle class="circles-butt-1" cx="254.151" cy="321.648" r="1.55325" stroke="#00FFE0" stroke-width="2.07101"/>
<circle class="circles-butt-1" cx="2.58876" cy="2.58876" r="1.55325" transform="matrix(-1 0 0 1 341.674 246.288)" stroke="#00FFE0" stroke-width="2.07101"/>
<circle class="circles-butt-1" cx="231.62" cy="248.874" r="1.55325" stroke="#00FFE0" stroke-width="2.07101"/>
<circle class="circles-butt-1" cx="2.58876" cy="2.58876" r="1.55325" transform="matrix(-1 0 0 1 331.275 197.773)" stroke="#00FFE0" stroke-width="2.07101"/>
<circle class="circles-butt-1" cx="242.017" cy="200.36" r="1.55325" stroke="#00FFE0" stroke-width="2.07101"/>
<circle class="circles-butt-1" cx="2.58876" cy="2.58876" r="1.55325" transform="matrix(-1 0 0 1 329.54 170.046)" stroke="#00FFE0" stroke-width="2.07101"/>
<circle class="circles-butt-1" cx="243.753" cy="172.635" r="1.55325" stroke="#00FFE0" stroke-width="2.07101"/>
<circle class="circles-butt-1" cx="2.58876" cy="2.58876" r="1.55325" transform="matrix(-1 0 0 1 312.212 171.776)" stroke="#00FFE0" stroke-width="2.07101"/>
<circle class="circles-butt-1" cx="261.08" cy="174.365" r="1.55325" stroke="#00FFE0" stroke-width="2.07101"/>
<circle class="circles-butt-1" cx="2.58876" cy="2.58876" r="1.55325" transform="matrix(-1 0 0 1 317.411 241.087)" stroke="#00FFE0" stroke-width="2.07101"/>
<circle class="circles-butt-1" cx="255.881" cy="243.676" r="1.55325" stroke="#00FFE0" stroke-width="2.07101"/>
<circle class="circles-butt-1" cx="2.58876" cy="2.58876" r="1.55325" transform="matrix(-1 0 0 1 326.076 251.485)" stroke="#00FFE0" stroke-width="2.07101"/>
<circle class="circles-butt-1" cx="247.217" cy="254.074" r="1.55325" stroke="#00FFE0" stroke-width="2.07101"/>
<circle class="circles-butt-1" cx="2.58876" cy="2.58876" r="1.55325" transform="matrix(-1 0 0 1 298.35 230.694)" stroke="#00FFE0" stroke-width="2.07101"/>
<circle class="circles-butt-1" cx="274.952" cy="233.283" r="1.55325" stroke="#00FFE0" stroke-width="2.07101"/>
<circle class="circles-butt-1" cx="2.58876" cy="2.58876" r="1.55325" transform="matrix(-1 0 0 1 312.212 213.365)" stroke="#00FFE0" stroke-width="2.07101"/>
<circle class="circles-butt-1" cx="261.08" cy="215.954" r="1.55325" stroke="#00FFE0" stroke-width="2.07101"/>
<circle class="circles-butt-1" cx="2.58876" cy="2.58876" r="1.55325" transform="matrix(-1 0 0 1 298.35 213.365)" stroke="#00FFE0" stroke-width="2.07101"/>
<circle class="circles-butt-1" cx="274.952" cy="215.954" r="1.55325" stroke="#00FFE0" stroke-width="2.07101"/>
<circle class="circles-butt-1" cx="2.58876" cy="2.58876" r="1.55325" transform="matrix(-1 0 0 1 298.35 204.699)" stroke="#00FFE0" stroke-width="2.07101"/>
<circle class="circles-butt-1" cx="274.952" cy="207.288" r="1.55325" stroke="#00FFE0" stroke-width="2.07101"/>
<circle class="circles-butt-1" cx="2.58876" cy="2.58876" r="1.55325" transform="matrix(-1 0 0 1 312.212 199.504)" stroke="#00FFE0" stroke-width="2.07101"/>
<circle class="circles-butt-1" cx="261.08" cy="202.093" r="1.55325" stroke="#00FFE0" stroke-width="2.07101"/>
<circle class="circles-butt-1" cx="2.58876" cy="2.58876" r="1.55325" transform="matrix(-1 0 0 1 312.212 190.837)" stroke="#00FFE0" stroke-width="2.07101"/>
<circle class="circles-butt-1" cx="261.08" cy="193.426" r="1.55325" stroke="#00FFE0" stroke-width="2.07101"/>
<circle class="circles-butt-1" cx="2.58876" cy="2.58876" r="1.55325" transform="matrix(-1 0 0 1 298.35 187.375)" stroke="#00FFE0" stroke-width="2.07101"/>
<circle class="circles-butt-1" cx="274.952" cy="189.964" r="1.55325" stroke="#00FFE0" stroke-width="2.07101"/>
<circle class="circles-butt-1" cx="2.58876" cy="2.58876" r="1.55325" transform="matrix(-1 0 0 1 397.117 315.595)" stroke="#00FFE0" stroke-width="2.07101"/>
<circle class="circles-butt-1" cx="176.176" cy="318.184" r="1.55325" stroke="#00FFE0" stroke-width="2.07101"/>
<circle class="circles-butt-1" cx="2.58876" cy="2.58876" r="1.55325" transform="matrix(-1 0 0 1 381.521 315.595)" stroke="#00FFE0" stroke-width="2.07101"/>
<circle class="circles-butt-1" cx="191.772" cy="318.184" r="1.55325" stroke="#00FFE0" stroke-width="2.07101"/>
<circle class="circles-butt-1" cx="2.58876" cy="2.58876" r="1.55325" transform="matrix(-1 0 0 1 452.562 393.571)" stroke="#00FFE0" stroke-width="2.07101"/>
<circle class="circles-butt-1" cx="120.73" cy="396.16" r="1.55325" stroke="#00FFE0" stroke-width="2.07101"/>
<circle class="circles-butt-1" cx="2.58876" cy="2.58876" r="1.55325" transform="matrix(-1 0 0 1 464.69 397.035)" stroke="#00FFE0" stroke-width="2.07101"/>
<circle class="circles-butt-1" cx="108.602" cy="399.624" r="1.55325" stroke="#00FFE0" stroke-width="2.07101"/>
<circle class="circles-butt-1" cx="2.58876" cy="2.58876" r="1.55325" transform="matrix(-1 0 0 1 464.69 405.696)" stroke="#00FFE0" stroke-width="2.07101"/>
<circle class="circles-butt-1" cx="108.602" cy="408.285" r="1.55325" stroke="#00FFE0" stroke-width="2.07101"/>
<circle class="circles-butt-1" cx="2.58876" cy="2.58876" r="1.55325" transform="matrix(-1 0 0 1 452.562 410.896)" stroke="#00FFE0" stroke-width="2.07101"/>
<circle class="circles-butt-1" cx="120.73" cy="413.485" r="1.55325" stroke="#00FFE0" stroke-width="2.07101"/>
<circle class="circles-butt-1" cx="4.78428" cy="54.4981" r="3.62426" stroke="#00FFE0" stroke-width="2.07101"/>
<circle class="circles-butt-1" cx="4.65976" cy="4.65976" r="3.62426" transform="matrix(-1 0 0 1 565.89 82.9751)" stroke="#00FFE0" stroke-width="2.07101"/>
<circle class="circles-butt-1" cx="10.9972" cy="87.6349" r="3.62426" stroke="#00FFE0" stroke-width="2.07101"/>
<circle class="circles-butt-1" cx="4.65976" cy="4.65976" r="3.62426" transform="matrix(-1 0 0 1 572.103 61.2297)" stroke="#00FFE0" stroke-width="2.07101"/>
<circle class="circles-butt-1" cx="4.65976" cy="4.65976" r="3.62426" transform="matrix(-1 0 0 1 574.173 48.8032)" stroke="#00FFE0" stroke-width="2.07101"/>
<circle class="circles-butt-1" cx="4.78428" cy="66.9247" r="3.62426" stroke="#00FFE0" stroke-width="2.07101"/>
<circle class="circles-butt-1" cx="4.65976" cy="4.65976" r="3.62426" transform="matrix(-1 0 0 1 546.133 17.5684)" stroke="#00FFE0" stroke-width="2.07101"/>
<circle class="circles-butt-1" cx="29.2306" cy="22.2281" r="3.62426" stroke="#00FFE0" stroke-width="2.07101"/>
<circle class="circles-butt-1" cx="4.65976" cy="4.65976" r="3.62426" transform="matrix(-1 0 0 1 558.264 31.4277)" stroke="#00FFE0" stroke-width="2.07101"/>
<circle class="circles-butt-1" cx="17.1002" cy="36.0875" r="3.62426" stroke="#00FFE0" stroke-width="2.07101"/>
<circle class="circles-butt-1" cx="4.65976" cy="4.65976" r="3.62426" transform="matrix(-1 0 0 1 549.599 0.239746)" stroke="#00FFE0" stroke-width="2.07101"/>
<circle class="circles-butt-1" cx="25.7647" cy="4.89951" r="3.62426" stroke="#00FFE0" stroke-width="2.07101"/>
<circle class="circles-butt-1" cx="4.65976" cy="4.65976" r="3.62426" transform="matrix(-1 0 0 1 525.34 21.0308)" stroke="#00FFE0" stroke-width="2.07101"/>
<circle class="circles-butt-1" cx="50.0235" cy="25.6905" r="3.62426" stroke="#00FFE0" stroke-width="2.07101"/>
<circle class="circles-butt-1" cx="4.65976" cy="4.65976" r="3.62426" transform="matrix(-1 0 0 1 565.191 41.8237)" stroke="#00FFE0" stroke-width="2.07101"/>
<circle class="circles-butt-1" cx="10.1725" cy="46.4835" r="3.62426" stroke="#00FFE0" stroke-width="2.07101"/>
<circle class="circles-butt-1" cx="4.65976" cy="4.65976" r="3.62426" transform="matrix(-1 0 0 1 547.867 50.4875)" stroke="#00FFE0" stroke-width="2.07101"/>
<circle class="circles-butt-1" cx="27.4986" cy="55.1473" r="3.62426" stroke="#00FFE0" stroke-width="2.07101"/>
<circle class="circles-butt-1" cx="4.65976" cy="4.65976" r="3.62426" transform="matrix(-1 0 0 1 534.003 34.8911)" stroke="#00FFE0" stroke-width="2.07101"/>
<circle class="circles-butt-1" cx="41.3629" cy="39.5509" r="3.62426" stroke="#00FFE0" stroke-width="2.07101"/>
<circle class="circles-butt-1" cx="4.65976" cy="4.65976" r="3.62426" transform="matrix(-1 0 0 1 520.145 31.4277)" stroke="#00FFE0" stroke-width="2.07101"/>
<circle class="circles-butt-1" cx="55.2208" cy="36.0875" r="3.62426" stroke="#00FFE0" stroke-width="2.07101"/>
<circle class="circles-butt-1" cx="4.65976" cy="4.65976" r="3.62426" transform="matrix(-1 0 0 1 520.145 45.29)" stroke="#00FFE0" stroke-width="2.07101"/>
<circle class="circles-butt-1" cx="55.2208" cy="49.9498" r="3.62426" stroke="#00FFE0" stroke-width="2.07101"/>
<circle class="circles-butt-1" cx="4.65976" cy="4.65976" r="3.62426" transform="matrix(-1 0 0 1 530.541 50.4875)" stroke="#00FFE0" stroke-width="2.07101"/>
<circle class="circles-butt-1" cx="44.8268" cy="55.1473" r="3.62426" stroke="#00FFE0" stroke-width="2.07101"/>
<circle class="circles-butt-1" cx="4.65976" cy="4.65976" r="3.62426" transform="matrix(-1 0 0 1 544.404 64.3501)" stroke="#00FFE0" stroke-width="2.07101"/>
<circle class="circles-butt-1" cx="30.9605" cy="69.0099" r="3.62426" stroke="#00FFE0" stroke-width="2.07101"/>
<circle class="circles-butt-1" cx="4.65976" cy="4.65976" r="3.62426" transform="matrix(-1 0 0 1 528.804 69.5474)" stroke="#00FFE0" stroke-width="2.07101"/>
<circle class="circles-butt-1" cx="46.5582" cy="74.2071" r="3.62426" stroke="#00FFE0" stroke-width="2.07101"/>
<circle class="circles-butt-1" cx="4.65976" cy="4.65976" r="3.62426" transform="matrix(-1 0 0 1 518.413 57.4192)" stroke="#00FFE0" stroke-width="2.07101"/>
<circle class="circles-butt-1" cx="56.9513" cy="62.079" r="3.62426" stroke="#00FFE0" stroke-width="2.07101"/>
<circle class="circles-butt-1" cx="4.65976" cy="4.65976" r="3.62426" transform="matrix(-1 0 0 1 508.011 48.7585)" stroke="#00FFE0" stroke-width="2.07101"/>
<circle class="circles-butt-1" cx="67.3477" cy="53.4183" r="3.62426" stroke="#00FFE0" stroke-width="2.07101"/>
<circle class="circles-butt-1" cx="4.65976" cy="4.65976" r="3.62426" transform="matrix(-1 0 0 1 516.677 79.9436)" stroke="#00FFE0" stroke-width="2.07101"/>
<circle class="circles-butt-1" cx="58.6866" cy="84.6034" r="3.62426" stroke="#00FFE0" stroke-width="2.07101"/>
<circle class="circles-butt-1" cx="4.65976" cy="4.65976" r="3.62426" transform="matrix(-1 0 0 1 495.886 85.1431)" stroke="#00FFE0" stroke-width="2.07101"/>
<circle class="circles-butt-1" cx="79.4835" cy="89.8028" r="3.62426" stroke="#00FFE0" stroke-width="2.07101"/>
<circle class="circles-butt-1" cx="4.65976" cy="4.65976" r="3.62426" transform="matrix(-1 0 0 1 513.216 93.8069)" stroke="#00FFE0" stroke-width="2.07101"/>
<circle class="circles-butt-1" cx="62.1505" cy="98.4666" r="3.62426" stroke="#00FFE0" stroke-width="2.07101"/>
<circle class="circles-butt-1" cx="4.65976" cy="4.65976" r="3.62426" transform="matrix(-1 0 0 1 492.419 38.3594)" stroke="#00FFE0" stroke-width="2.07101"/>
<circle class="circles-butt-1" cx="82.9454" cy="43.0191" r="3.62426" stroke="#00FFE0" stroke-width="2.07101"/>
<circle class="circles-butt-1" cx="4.65976" cy="4.65976" r="3.62426" transform="matrix(-1 0 0 1 482.026 50.4875)" stroke="#00FFE0" stroke-width="2.07101"/>
<circle class="circles-butt-1" cx="93.3399" cy="55.1473" r="3.62426" stroke="#00FFE0" stroke-width="2.07101"/>
<circle class="circles-butt-1" cx="4.65976" cy="4.65976" r="3.62426" transform="matrix(-1 0 0 1 478.557 38.3594)" stroke="#00FFE0" stroke-width="2.07101"/>
<circle class="circles-butt-1" cx="96.8077" cy="43.0191" r="3.62426" stroke="#00FFE0" stroke-width="2.07101"/>
<circle class="circles-butt-1" cx="4.65976" cy="4.65976" r="3.62426" transform="matrix(-1 0 0 1 478.557 17.5684)" stroke="#00FFE0" stroke-width="2.07101"/>
<circle class="circles-butt-1" cx="96.8077" cy="22.2281" r="3.62426" stroke="#00FFE0" stroke-width="2.07101"/>
<circle class="circles-butt-1" cx="4.65976" cy="4.65976" r="3.62426" transform="matrix(-1 0 0 1 435.238 79.9436)" stroke="#00FFE0" stroke-width="2.07101"/>
<circle class="circles-butt-1" cx="140.126" cy="84.6034" r="3.62426" stroke="#00FFE0" stroke-width="2.07101"/>
<circle class="circles-butt-1" cx="4.65976" cy="4.65976" r="3.62426" transform="matrix(-1 0 0 1 450.834 74.7439)" stroke="#00FFE0" stroke-width="2.07101"/>
<circle class="circles-butt-1" cx="124.53" cy="79.4037" r="3.62426" stroke="#00FFE0" stroke-width="2.07101"/>
<circle class="circles-butt-1" cx="4.65976" cy="4.65976" r="3.62426" transform="matrix(-1 0 0 1 464.69 74.7439)" stroke="#00FFE0" stroke-width="2.07101"/>
<circle class="circles-butt-1" cx="110.673" cy="79.4037" r="3.62426" stroke="#00FFE0" stroke-width="2.07101"/>
<circle class="circles-butt-1" cx="4.65976" cy="4.65976" r="3.62426" transform="matrix(-1 0 0 1 468.16 86.8743)" stroke="#00FFE0" stroke-width="2.07101"/>
<circle class="circles-butt-1" cx="107.204" cy="91.534" r="3.62426" stroke="#00FFE0" stroke-width="2.07101"/>
<circle class="circles-butt-1" cx="4.65976" cy="4.65976" r="3.62426" transform="matrix(-1 0 0 1 492.419 105.936)" stroke="#00FFE0" stroke-width="2.07101"/>
<circle class="circles-butt-1" cx="82.9454" cy="110.596" r="3.62426" stroke="#00FFE0" stroke-width="2.07101"/>
<circle class="circles-butt-1" cx="4.65976" cy="4.65976" r="3.62426" transform="matrix(-1 0 0 1 499.35 116.329)" stroke="#00FFE0" stroke-width="2.07101"/>
<circle class="circles-butt-1" cx="76.0147" cy="120.989" r="3.62426" stroke="#00FFE0" stroke-width="2.07101"/>
<circle class="circles-butt-1" cx="4.65976" cy="4.65976" r="3.62426" transform="matrix(-1 0 0 1 504.549 128.462)" stroke="#00FFE0" stroke-width="2.07101"/>
<circle class="circles-butt-1" cx="70.815" cy="133.122" r="3.62426" stroke="#00FFE0" stroke-width="2.07101"/>
<circle class="circles-butt-1" cx="4.65976" cy="4.65976" r="3.62426" transform="matrix(-1 0 0 1 504.549 142.323)" stroke="#00FFE0" stroke-width="2.07101"/>
<circle class="circles-butt-1" cx="70.815" cy="146.983" r="3.62426" stroke="#00FFE0" stroke-width="2.07101"/>
<circle class="circles-butt-1" cx="4.65976" cy="4.65976" r="3.62426" transform="matrix(-1 0 0 1 514.944 133.662)" stroke="#00FFE0" stroke-width="2.07101"/>
<circle class="circles-butt-1" cx="60.4205" cy="138.321" r="3.62426" stroke="#00FFE0" stroke-width="2.07101"/>
<circle class="circles-butt-1" cx="4.65976" cy="4.65976" r="3.62426" transform="matrix(-1 0 0 1 520.145 112.865)" stroke="#00FFE0" stroke-width="2.07101"/>
<circle class="circles-butt-1" cx="55.2208" cy="117.525" r="3.62426" stroke="#00FFE0" stroke-width="2.07101"/>
<circle class="circles-butt-1" cx="4.65976" cy="4.65976" r="3.62426" transform="matrix(-1 0 0 1 520.145 99.0024)" stroke="#00FFE0" stroke-width="2.07101"/>
<circle class="circles-butt-1" cx="55.2208" cy="103.662" r="3.62426" stroke="#00FFE0" stroke-width="2.07101"/>
<circle class="circles-butt-1" cx="4.65976" cy="4.65976" r="3.62426" transform="matrix(-1 0 0 1 568.661 93.8069)" stroke="#00FFE0" stroke-width="2.07101"/>
<circle class="circles-butt-1" cx="6.70517" cy="98.4666" r="3.62426" stroke="#00FFE0" stroke-width="2.07101"/>
<circle class="circles-butt-1" cx="4.65976" cy="4.65976" r="3.62426" transform="matrix(-1 0 0 1 547.867 131.928)" stroke="#00FFE0" stroke-width="2.07101"/>
<circle class="circles-butt-1" cx="27.4986" cy="136.588" r="3.62426" stroke="#00FFE0" stroke-width="2.07101"/>
<circle class="circles-butt-1" cx="4.65976" cy="4.65976" r="3.62426" transform="matrix(-1 0 0 1 535.737 156.182)" stroke="#00FFE0" stroke-width="2.07101"/>
<circle class="circles-butt-1" cx="39.6251" cy="160.842" r="3.62426" stroke="#00FFE0" stroke-width="2.07101"/>
<circle class="circles-butt-1" cx="4.65976" cy="4.65976" r="3.62426" transform="matrix(-1 0 0 1 457.765 208.168)" stroke="#00FFE0" stroke-width="2.07101"/>
<circle class="circles-butt-1" cx="117.601" cy="212.827" r="3.62426" stroke="#00FFE0" stroke-width="2.07101"/>
<circle class="circles-butt-1" cx="4.65976" cy="4.65976" r="3.62426" transform="matrix(-1 0 0 1 454.298 227.225)" stroke="#00FFE0" stroke-width="2.07101"/>
<circle class="circles-butt-1" cx="121.066" cy="231.885" r="3.62426" stroke="#00FFE0" stroke-width="2.07101"/>
<circle class="circles-butt-1" cx="4.65976" cy="4.65976" r="3.62426" transform="matrix(-1 0 0 1 457.765 235.89)" stroke="#00FFE0" stroke-width="2.07101"/>
<circle class="circles-butt-1" cx="117.601" cy="240.549" r="3.62426" stroke="#00FFE0" stroke-width="2.07101"/>
<circle class="circles-butt-1" cx="4.65976" cy="4.65976" r="3.62426" transform="matrix(-1 0 0 1 485.488 161.381)" stroke="#00FFE0" stroke-width="2.07101"/>
<circle class="circles-butt-1" cx="89.8766" cy="166.041" r="3.62426" stroke="#00FFE0" stroke-width="2.07101"/>
<circle class="circles-butt-1" cx="4.65976" cy="4.65976" r="3.62426" transform="matrix(-1 0 0 1 452.562 190.837)" stroke="#00FFE0" stroke-width="2.07101"/>
<circle class="circles-butt-1" cx="122.802" cy="195.497" r="3.62426" stroke="#00FFE0" stroke-width="2.07101"/>
<circle class="circles-butt-1" cx="4.65976" cy="4.65976" r="3.62426" transform="matrix(-1 0 0 1 443.903 187.375)" stroke="#00FFE0" stroke-width="2.07101"/>
<circle class="circles-butt-1" cx="131.461" cy="192.035" r="3.62426" stroke="#00FFE0" stroke-width="2.07101"/>
<circle class="circles-butt-1" cx="4.65976" cy="4.65976" r="3.62426" transform="matrix(-1 0 0 1 443.903 173.512)" stroke="#00FFE0" stroke-width="2.07101"/>
<circle class="circles-butt-1" cx="131.461" cy="178.172" r="3.62426" stroke="#00FFE0" stroke-width="2.07101"/>
<circle class="circles-butt-1" cx="4.65976" cy="4.65976" r="3.62426" transform="matrix(-1 0 0 1 443.903 159.648)" stroke="#00FFE0" stroke-width="2.07101"/>
<circle class="circles-butt-1" cx="131.461" cy="164.308" r="3.62426" stroke="#00FFE0" stroke-width="2.07101"/>
<circle class="circles-butt-1" cx="4.65976" cy="4.65976" r="3.62426" transform="matrix(-1 0 0 1 443.903 144.054)" stroke="#00FFE0" stroke-width="2.07101"/>
<circle class="circles-butt-1" cx="131.461" cy="148.713" r="3.62426" stroke="#00FFE0" stroke-width="2.07101"/>
<circle class="circles-butt-1" cx="4.65976" cy="4.65976" r="3.62426" transform="matrix(-1 0 0 1 461.229 156.182)" stroke="#00FFE0" stroke-width="2.07101"/>
<circle class="circles-butt-1" cx="114.135" cy="160.842" r="3.62426" stroke="#00FFE0" stroke-width="2.07101"/>
<circle class="circles-butt-1" cx="4.65976" cy="4.65976" r="3.62426" transform="matrix(-1 0 0 1 461.229 142.323)" stroke="#00FFE0" stroke-width="2.07101"/>
<circle class="circles-butt-1" cx="114.135" cy="146.983" r="3.62426" stroke="#00FFE0" stroke-width="2.07101"/>
<circle class="circles-butt-1" cx="4.65976" cy="4.65976" r="3.62426" transform="matrix(-1 0 0 1 461.229 126.727)" stroke="#00FFE0" stroke-width="2.07101"/>
<circle class="circles-butt-1" cx="114.135" cy="131.387" r="3.62426" stroke="#00FFE0" stroke-width="2.07101"/>
<circle class="circles-butt-1" cx="4.65976" cy="4.65976" r="3.62426" transform="matrix(-1 0 0 1 461.229 112.865)" stroke="#00FFE0" stroke-width="2.07101"/>
<circle class="circles-butt-1" cx="114.135" cy="117.525" r="3.62426" stroke="#00FFE0" stroke-width="2.07101"/>
<circle class="circles-butt-1" cx="4.65976" cy="4.65976" r="3.62426" transform="matrix(-1 0 0 1 443.903 131.928)" stroke="#00FFE0" stroke-width="2.07101"/>
<circle class="circles-butt-1" cx="131.461" cy="136.588" r="3.62426" stroke="#00FFE0" stroke-width="2.07101"/>
<circle class="circles-butt-1" cx="4.65976" cy="4.65976" r="3.62426" transform="matrix(-1 0 0 1 443.903 116.329)" stroke="#00FFE0" stroke-width="2.07101"/>
<circle class="circles-butt-1" cx="131.461" cy="120.989" r="3.62426" stroke="#00FFE0" stroke-width="2.07101"/>
<circle class="circles-butt-1" cx="4.65976" cy="4.65976" r="3.62426" transform="matrix(-1 0 0 1 443.903 102.469)" stroke="#00FFE0" stroke-width="2.07101"/>
<circle class="circles-butt-1" cx="131.461" cy="107.129" r="3.62426" stroke="#00FFE0" stroke-width="2.07101"/>
<circle class="circles-butt-1" cx="4.65976" cy="4.65976" r="3.62426" transform="matrix(-1 0 0 1 443.903 88.6064)" stroke="#00FFE0" stroke-width="2.07101"/>
<circle class="circles-butt-1" cx="131.461" cy="93.2662" r="3.62426" stroke="#00FFE0" stroke-width="2.07101"/>
<circle class="circles-butt-1" cx="4.65976" cy="4.65976" r="3.62426" transform="matrix(-1 0 0 1 433.508 112.865)" stroke="#00FFE0" stroke-width="2.07101"/>
<circle class="circles-butt-1" cx="141.856" cy="117.525" r="3.62426" stroke="#00FFE0" stroke-width="2.07101"/>
<circle class="circles-butt-1" cx="4.65976" cy="4.65976" r="3.62426" transform="matrix(-1 0 0 1 430.043 92.0696)" stroke="#00FFE0" stroke-width="2.07101"/>
<circle class="circles-butt-1" cx="145.325" cy="96.7293" r="3.62426" stroke="#00FFE0" stroke-width="2.07101"/>
<circle class="circles-butt-1" cx="4.65976" cy="4.65976" r="3.62426" transform="matrix(-1 0 0 1 374.59 100.739)" stroke="#00FFE0" stroke-width="2.07101"/>
<circle class="circles-butt-1" cx="200.774" cy="105.396" r="3.62426" stroke="#00FFE0" stroke-width="2.07101"/>
<circle class="circles-butt-1" cx="4.65976" cy="4.65976" r="3.62426" transform="matrix(-1 0 0 1 402.318 142.323)" stroke="#00FFE0" stroke-width="2.07101"/>
<circle class="circles-butt-1" cx="173.046" cy="146.983" r="3.62426" stroke="#00FFE0" stroke-width="2.07101"/>
<circle class="circles-butt-1" cx="4.65976" cy="4.65976" r="3.62426" transform="matrix(-1 0 0 1 426.573 147.522)" stroke="#00FFE0" stroke-width="2.07101"/>
<circle class="circles-butt-1" cx="148.791" cy="152.182" r="3.62426" stroke="#00FFE0" stroke-width="2.07101"/>
<circle class="circles-butt-1" cx="4.65976" cy="4.65976" r="3.62426" transform="matrix(-1 0 0 1 426.573 163.115)" stroke="#00FFE0" stroke-width="2.07101"/>
<circle class="circles-butt-1" cx="148.791" cy="167.774" r="3.62426" stroke="#00FFE0" stroke-width="2.07101"/>
<circle class="circles-butt-1" cx="4.65976" cy="4.65976" r="3.62426" transform="matrix(-1 0 0 1 426.573 176.977)" stroke="#00FFE0" stroke-width="2.07101"/>
<circle class="circles-butt-1" cx="148.791" cy="181.637" r="3.62426" stroke="#00FFE0" stroke-width="2.07101"/>
<circle class="circles-butt-1" cx="4.65976" cy="4.65976" r="3.62426" transform="matrix(-1 0 0 1 426.573 190.837)" stroke="#00FFE0" stroke-width="2.07101"/>
<circle class="circles-butt-1" cx="148.791" cy="195.497" r="3.62426" stroke="#00FFE0" stroke-width="2.07101"/>
<circle class="circles-butt-1" cx="4.65976" cy="4.65976" r="3.62426" transform="matrix(-1 0 0 1 443.903 201.236)" stroke="#00FFE0" stroke-width="2.07101"/>
<circle class="circles-butt-1" cx="131.461" cy="205.896" r="3.62426" stroke="#00FFE0" stroke-width="2.07101"/>
<circle class="circles-butt-1" cx="4.65976" cy="4.65976" r="3.62426" transform="matrix(-1 0 0 1 443.903 215.095)" stroke="#00FFE0" stroke-width="2.07101"/>
<circle class="circles-butt-1" cx="131.461" cy="219.754" r="3.62426" stroke="#00FFE0" stroke-width="2.07101"/>
<circle class="circles-butt-1" cx="4.65976" cy="4.65976" r="3.62426" transform="matrix(-1 0 0 1 419.646 218.564)" stroke="#00FFE0" stroke-width="2.07101"/>
<circle class="circles-butt-1" cx="155.72" cy="223.224" r="3.62426" stroke="#00FFE0" stroke-width="2.07101"/>
<circle class="circles-butt-1" cx="4.65976" cy="4.65976" r="3.62426" transform="matrix(-1 0 0 1 386.721 248.02)" stroke="#00FFE0" stroke-width="2.07101"/>
<circle class="circles-butt-1" cx="188.644" cy="252.68" r="3.62426" stroke="#00FFE0" stroke-width="2.07101"/>
<circle class="circles-butt-1" cx="4.65976" cy="4.65976" r="3.62426" transform="matrix(-1 0 0 1 391.92 216.832)" stroke="#00FFE0" stroke-width="2.07101"/>
<circle class="circles-butt-1" cx="183.444" cy="221.492" r="3.62426" stroke="#00FFE0" stroke-width="2.07101"/>
<circle class="circles-butt-1" cx="4.65976" cy="4.65976" r="3.62426" transform="matrix(-1 0 0 1 407.518 124.994)" stroke="#00FFE0" stroke-width="2.07101"/>
<circle class="circles-butt-1" cx="167.847" cy="129.654" r="3.62426" stroke="#00FFE0" stroke-width="2.07101"/>
<circle class="circles-butt-1" cx="4.65976" cy="4.65976" r="3.62426" transform="matrix(-1 0 0 1 352.067 183.907)" stroke="#00FFE0" stroke-width="2.07101"/>
<circle class="circles-butt-1" cx="223.295" cy="188.567" r="3.62426" stroke="#00FFE0" stroke-width="2.07101"/>
<circle class="circles-butt-1" cx="4.65976" cy="4.65976" r="3.62426" transform="matrix(-1 0 0 1 364.197 149.251)" stroke="#00FFE0" stroke-width="2.07101"/>
<circle class="circles-butt-1" cx="211.165" cy="153.911" r="3.62426" stroke="#00FFE0" stroke-width="2.07101"/>
<circle class="circles-butt-1" cx="4.65976" cy="4.65976" r="3.62426" transform="matrix(-1 0 0 1 386.721 164.846)" stroke="#00FFE0" stroke-width="2.07101"/>
<circle class="circles-butt-1" cx="188.644" cy="169.505" r="3.62426" stroke="#00FFE0" stroke-width="2.07101"/>
<circle class="circles-butt-1" cx="4.65976" cy="4.65976" r="3.62426" transform="matrix(-1 0 0 1 383.259 176.977)" stroke="#00FFE0" stroke-width="2.07101"/>
<circle class="circles-butt-1" cx="192.111" cy="181.637" r="3.62426" stroke="#00FFE0" stroke-width="2.07101"/>
<circle class="circles-butt-1" cx="4.65976" cy="4.65976" r="3.62426" transform="matrix(-1 0 0 1 383.259 190.837)" stroke="#00FFE0" stroke-width="2.07101"/>
<circle class="circles-butt-1" cx="192.111" cy="195.497" r="3.62426" stroke="#00FFE0" stroke-width="2.07101"/>
<circle class="circles-butt-1" cx="4.65976" cy="4.65976" r="3.62426" transform="matrix(-1 0 0 1 369.393 211.63)" stroke="#00FFE0" stroke-width="2.07101"/>
<circle class="circles-butt-1" cx="205.971" cy="216.29" r="3.62426" stroke="#00FFE0" stroke-width="2.07101"/>
<circle class="circles-butt-1" cx="4.65976" cy="4.65976" r="3.62426" transform="matrix(-1 0 0 1 367.663 197.774)" stroke="#00FFE0" stroke-width="2.07101"/>
<circle class="circles-butt-1" cx="207.701" cy="202.432" r="3.62426" stroke="#00FFE0" stroke-width="2.07101"/>
<circle class="circles-butt-1" cx="4.65976" cy="4.65976" r="3.62426" transform="matrix(-1 0 0 1 346.866 202.968)" stroke="#00FFE0" stroke-width="2.07101"/>
<circle class="circles-butt-1" cx="228.498" cy="207.627" r="3.62426" stroke="#00FFE0" stroke-width="2.07101"/>
<circle class="circles-butt-1" cx="4.65976" cy="4.65976" r="3.62426" transform="matrix(-1 0 0 1 343.404 159.648)" stroke="#00FFE0" stroke-width="2.07101"/>
<circle class="circles-butt-1" cx="231.96" cy="164.308" r="3.62426" stroke="#00FFE0" stroke-width="2.07101"/>
<circle class="circles-butt-1" cx="4.65976" cy="4.65976" r="3.62426" transform="matrix(-1 0 0 1 372.858 121.531)" stroke="#00FFE0" stroke-width="2.07101"/>
<circle class="circles-butt-1" cx="202.505" cy="126.19" r="3.62426" stroke="#00FFE0" stroke-width="2.07101"/>
<circle class="circles-butt-1" cx="4.65976" cy="4.65976" r="3.62426" transform="matrix(-1 0 0 1 521.875 185.641)" stroke="#00FFE0" stroke-width="2.07101"/>
<circle class="circles-butt-1" cx="53.4894" cy="190.3" r="3.62426" stroke="#00FFE0" stroke-width="2.07101"/>
<circle class="circles-butt-1" cx="4.65976" cy="4.65976" r="3.62426" transform="matrix(-1 0 0 1 506.281 206.434)" stroke="#00FFE0" stroke-width="2.07101"/>
<circle class="circles-butt-1" cx="69.0831" cy="211.094" r="3.62426" stroke="#00FFE0" stroke-width="2.07101"/>
<circle class="circles-butt-1" cx="4.65976" cy="4.65976" r="3.62426" transform="matrix(-1 0 0 1 492.419 227.225)" stroke="#00FFE0" stroke-width="2.07101"/>
<circle class="circles-butt-1" cx="82.9454" cy="231.885" r="3.62426" stroke="#00FFE0" stroke-width="2.07101"/>
<circle class="circles-butt-1" cx="4.65976" cy="4.65976" r="3.62426" transform="matrix(-1 0 0 1 478.557 234.156)" stroke="#00FFE0" stroke-width="2.07101"/>
<circle class="circles-butt-1" cx="96.8077" cy="238.816" r="3.62426" stroke="#00FFE0" stroke-width="2.07101"/>
<circle class="circles-butt-1" cx="4.65976" cy="4.65976" r="3.62426" transform="matrix(-1 0 0 1 466.428 242.82)" stroke="#00FFE0" stroke-width="2.07101"/>
<circle class="circles-butt-1" cx="108.936" cy="247.48" r="3.62426" stroke="#00FFE0" stroke-width="2.07101"/>
<circle class="circles-butt-1" cx="4.65976" cy="4.65976" r="3.62426" transform="matrix(-1 0 0 1 504.549 246.287)" stroke="#00FFE0" stroke-width="2.07101"/>
<circle class="circles-butt-1" cx="70.815" cy="250.944" r="3.62426" stroke="#00FFE0" stroke-width="2.07101"/>
<circle class="circles-butt-1" cx="4.65976" cy="4.65976" r="3.62426" transform="matrix(-1 0 0 1 527.078 268.816)" stroke="#00FFE0" stroke-width="2.07101"/>
<circle class="circles-butt-1" cx="48.2882" cy="273.476" r="3.62426" stroke="#00FFE0" stroke-width="2.07101"/>
<circle class="circles-butt-1" cx="4.65976" cy="4.65976" r="3.62426" transform="matrix(-1 0 0 1 530.541 287.873)" stroke="#00FFE0" stroke-width="2.07101"/>
<circle class="circles-butt-1" cx="44.8268" cy="292.532" r="3.62426" stroke="#00FFE0" stroke-width="2.07101"/>
<circle class="circles-butt-1" cx="4.65976" cy="4.65976" r="3.62426" transform="matrix(-1 0 0 1 502.813 260.148)" stroke="#00FFE0" stroke-width="2.07101"/>
<circle class="circles-butt-1" cx="72.5504" cy="264.808" r="3.62426" stroke="#00FFE0" stroke-width="2.07101"/>
<circle class="circles-butt-1" cx="4.65976" cy="4.65976" r="3.62426" transform="matrix(-1 0 0 1 488.955 256.687)" stroke="#00FFE0" stroke-width="2.07101"/>
<circle class="circles-butt-1" cx="86.4088" cy="261.346" r="3.62426" stroke="#00FFE0" stroke-width="2.07101"/>
<circle class="circles-butt-1" cx="4.65976" cy="4.65976" r="3.62426" transform="matrix(-1 0 0 1 534.003 310.4)" stroke="#00FFE0" stroke-width="2.07101"/>
<circle class="circles-butt-1" cx="41.3629" cy="315.059" r="3.62426" stroke="#00FFE0" stroke-width="2.07101"/>
<circle class="circles-butt-1" cx="4.65976" cy="4.65976" r="3.62426" transform="matrix(-1 0 0 1 483.754 275.744)" stroke="#00FFE0" stroke-width="2.07101"/>
<circle class="circles-butt-1" cx="91.6085" cy="280.404" r="3.62426" stroke="#00FFE0" stroke-width="2.07101"/>
<circle class="circles-butt-1" cx="4.65976" cy="4.65976" r="3.62426" transform="matrix(-1 0 0 1 530.541 329.458)" stroke="#00FFE0" stroke-width="2.07101"/>
<circle class="circles-butt-1" cx="44.8268" cy="334.118" r="3.62426" stroke="#00FFE0" stroke-width="2.07101"/>
<circle class="circles-butt-1" cx="4.65976" cy="4.65976" r="3.62426" transform="matrix(-1 0 0 1 520.145 345.052)" stroke="#00FFE0" stroke-width="2.07101"/>
<circle class="circles-butt-1" cx="55.2208" cy="349.712" r="3.62426" stroke="#00FFE0" stroke-width="2.07101"/>
<circle class="circles-butt-1" cx="4.65976" cy="4.65976" r="3.62426" transform="matrix(-1 0 0 1 475.091 291.337)" stroke="#00FFE0" stroke-width="2.07101"/>
<circle class="circles-butt-1" cx="100.275" cy="295.997" r="3.62426" stroke="#00FFE0" stroke-width="2.07101"/>
<circle class="circles-butt-1" cx="4.65976" cy="4.65976" r="3.62426" transform="matrix(-1 0 0 1 459.495 291.337)" stroke="#00FFE0" stroke-width="2.07101"/>
<circle class="circles-butt-1" cx="115.869" cy="295.997" r="3.62426" stroke="#00FFE0" stroke-width="2.07101"/>
<circle class="circles-butt-1" cx="4.65976" cy="4.65976" r="3.62426" transform="matrix(-1 0 0 1 523.609 360.65)" stroke="#00FFE0" stroke-width="2.07101"/>
<circle class="circles-butt-1" cx="51.7555" cy="365.309" r="3.62426" stroke="#00FFE0" stroke-width="2.07101"/>
<circle class="circles-butt-1" cx="4.65976" cy="4.65976" r="3.62426" transform="matrix(-1 0 0 1 509.746 376.238)" stroke="#00FFE0" stroke-width="2.07101"/>
<circle class="circles-butt-1" cx="65.6197" cy="380.898" r="3.62426" stroke="#00FFE0" stroke-width="2.07101"/>
<circle class="circles-butt-1" cx="4.65976" cy="4.65976" r="3.62426" transform="matrix(-1 0 0 1 443.903 291.337)" stroke="#00FFE0" stroke-width="2.07101"/>
<circle class="circles-butt-1" cx="131.461" cy="295.997" r="3.62426" stroke="#00FFE0" stroke-width="2.07101"/>
<circle class="circles-butt-1" cx="4.65976" cy="4.65976" r="3.62426" transform="matrix(-1 0 0 1 445.637 254.951)" stroke="#00FFE0" stroke-width="2.07101"/>
<circle class="circles-butt-1" cx="129.728" cy="259.611" r="3.62426" stroke="#00FFE0" stroke-width="2.07101"/>
<circle class="circles-butt-1" cx="4.65976" cy="4.65976" r="3.62426" transform="matrix(-1 0 0 1 424.841 254.951)" stroke="#00FFE0" stroke-width="2.07101"/>
<circle class="circles-butt-1" cx="150.521" cy="259.611" r="3.62426" stroke="#00FFE0" stroke-width="2.07101"/>
<circle class="circles-butt-1" cx="4.65976" cy="4.65976" r="3.62426" transform="matrix(-1 0 0 1 424.841 270.546)" stroke="#00FFE0" stroke-width="2.07101"/>
<circle class="circles-butt-1" cx="150.521" cy="275.206" r="3.62426" stroke="#00FFE0" stroke-width="2.07101"/>
<circle class="circles-butt-1" cx="4.65976" cy="4.65976" r="3.62426" transform="matrix(-1 0 0 1 445.637 270.546)" stroke="#00FFE0" stroke-width="2.07101"/>
<circle class="circles-butt-1" cx="129.728" cy="275.206" r="3.62426" stroke="#00FFE0" stroke-width="2.07101"/>
<circle class="circles-butt-1" cx="4.65976" cy="4.65976" r="3.62426" transform="matrix(-1 0 0 1 412.713 265.344)" stroke="#00FFE0" stroke-width="2.07101"/>
<circle class="circles-butt-1" cx="162.651" cy="270.004" r="3.62426" stroke="#00FFE0" stroke-width="2.07101"/>
<circle class="circles-butt-1" cx="4.65976" cy="4.65976" r="3.62426" transform="matrix(-1 0 0 1 456.033 258.418)" stroke="#00FFE0" stroke-width="2.07101"/>
<circle class="circles-butt-1" cx="119.331" cy="263.077" r="3.62426" stroke="#00FFE0" stroke-width="2.07101"/>
<circle class="circles-butt-1" cx="4.65976" cy="4.65976" r="3.62426" transform="matrix(-1 0 0 1 476.827 265.344)" stroke="#00FFE0" stroke-width="2.07101"/>
<circle class="circles-butt-1" cx="98.5377" cy="270.004" r="3.62426" stroke="#00FFE0" stroke-width="2.07101"/>
<circle class="circles-butt-1" cx="4.65976" cy="4.65976" r="3.62426" transform="matrix(-1 0 0 1 407.518 286.142)" stroke="#00FFE0" stroke-width="2.07101"/>
<circle class="circles-butt-1" cx="167.847" cy="290.801" r="3.62426" stroke="#00FFE0" stroke-width="2.07101"/>
<circle class="circles-butt-1" cx="4.65976" cy="4.65976" r="3.62426" transform="matrix(-1 0 0 1 412.713 296.537)" stroke="#00FFE0" stroke-width="2.07101"/>
<circle class="circles-butt-1" cx="162.651" cy="301.196" r="3.62426" stroke="#00FFE0" stroke-width="2.07101"/>
<circle class="circles-butt-1" cx="4.65976" cy="4.65976" r="3.62426" transform="matrix(-1 0 0 1 433.508 296.537)" stroke="#00FFE0" stroke-width="2.07101"/>
<circle class="circles-butt-1" cx="141.856" cy="301.196" r="3.62426" stroke="#00FFE0" stroke-width="2.07101"/>
<circle class="circles-butt-1" cx="4.65976" cy="4.65976" r="3.62426" transform="matrix(-1 0 0 1 381.521 268.816)" stroke="#00FFE0" stroke-width="2.07101"/>
<circle class="circles-butt-1" cx="193.843" cy="273.476" r="3.62426" stroke="#00FFE0" stroke-width="2.07101"/>
<circle class="circles-butt-1" cx="4.65976" cy="4.65976" r="3.62426" transform="matrix(-1 0 0 1 367.663 258.418)" stroke="#00FFE0" stroke-width="2.07101"/>
<circle class="circles-butt-1" cx="207.701" cy="263.077" r="3.62426" stroke="#00FFE0" stroke-width="2.07101"/>
<circle class="circles-butt-1" cx="4.65976" cy="4.65976" r="3.62426" transform="matrix(-1 0 0 1 355.531 263.614)" stroke="#00FFE0" stroke-width="2.07101"/>
<circle class="circles-butt-1" cx="219.833" cy="268.274" r="3.62426" stroke="#00FFE0" stroke-width="2.07101"/>
<circle class="circles-butt-1" cx="4.65976" cy="4.65976" r="3.62426" transform="matrix(-1 0 0 1 319.146 249.75)" stroke="#00FFE0" stroke-width="2.07101"/>
<circle class="circles-butt-1" cx="256.222" cy="254.41" r="3.62426" stroke="#00FFE0" stroke-width="2.07101"/>
<circle class="circles-butt-1" cx="4.65976" cy="4.65976" r="3.62426" transform="matrix(-1 0 0 1 296.62 249.75)" stroke="#00FFE0" stroke-width="2.07101"/>
<circle class="circles-butt-1" cx="278.753" cy="254.41" r="3.62426" stroke="#00FFE0" stroke-width="2.07101"/>
<circle class="circles-butt-1" cx="290.883" cy="266.542" r="3.62426" stroke="#00FFE0" stroke-width="2.07101"/>
<circle class="circles-butt-1" cx="285.686" cy="287.337" r="3.62426" stroke="#00FFE0" stroke-width="2.07101"/>
<circle class="circles-butt-1" cx="287.42" cy="339.317" r="3.62426" stroke="#00FFE0" stroke-width="2.07101"/>
<circle class="circles-butt-1" cx="4.65976" cy="4.65976" r="3.62426" transform="matrix(-1 0 0 1 307.013 261.882)" stroke="#00FFE0" stroke-width="2.07101"/>
<circle class="circles-butt-1" cx="268.349" cy="266.542" r="3.62426" stroke="#00FFE0" stroke-width="2.07101"/>
<circle class="circles-butt-1" cx="4.65976" cy="4.65976" r="3.62426" transform="matrix(-1 0 0 1 322.609 261.882)" stroke="#00FFE0" stroke-width="2.07101"/>
<circle class="circles-butt-1" cx="252.755" cy="266.542" r="3.62426" stroke="#00FFE0" stroke-width="2.07101"/>
<circle class="circles-butt-1" cx="4.65976" cy="4.65976" r="3.62426" transform="matrix(-1 0 0 1 313.948 277.475)" stroke="#00FFE0" stroke-width="2.07101"/>
<circle class="circles-butt-1" cx="261.424" cy="282.134" r="3.62426" stroke="#00FFE0" stroke-width="2.07101"/>
<circle class="circles-butt-1" cx="4.65976" cy="4.65976" r="3.62426" transform="matrix(-1 0 0 1 473.359 355.449)" stroke="#00FFE0" stroke-width="2.07101"/>
<circle class="circles-butt-1" cx="102.005" cy="360.109" r="3.62426" stroke="#00FFE0" stroke-width="2.07101"/>
<circle class="circles-butt-1" cx="4.65976" cy="4.65976" r="3.62426" transform="matrix(-1 0 0 1 443.903 351.985)" stroke="#00FFE0" stroke-width="2.07101"/>
<circle class="circles-butt-1" cx="131.461" cy="356.645" r="3.62426" stroke="#00FFE0" stroke-width="2.07101"/>
<circle class="circles-butt-1" cx="4.65976" cy="4.65976" r="3.62426" transform="matrix(-1 0 0 1 495.886 388.369)" stroke="#00FFE0" stroke-width="2.07101"/>
<circle class="circles-butt-1" cx="79.4835" cy="393.029" r="3.62426" stroke="#00FFE0" stroke-width="2.07101"/>
<circle class="circles-butt-1" cx="4.65976" cy="4.65976" r="3.62426" transform="matrix(-1 0 0 1 490.685 417.826)" stroke="#00FFE0" stroke-width="2.07101"/>
<circle class="circles-butt-1" cx="84.6739" cy="422.486" r="3.62426" stroke="#00FFE0" stroke-width="2.07101"/>
<circle class="circles-butt-1" cx="4.65976" cy="4.65976" r="3.62426" transform="matrix(-1 0 0 1 478.557 398.766)" stroke="#00FFE0" stroke-width="2.07101"/>
<circle class="circles-butt-1" cx="96.8077" cy="403.426" r="3.62426" stroke="#00FFE0" stroke-width="2.07101"/>
<circle class="circles-butt-1" cx="4.65976" cy="4.65976" r="3.62426" transform="matrix(-1 0 0 1 464.69 433.423)" stroke="#00FFE0" stroke-width="2.07101"/>
<circle class="circles-butt-1" cx="110.673" cy="438.083" r="3.62426" stroke="#00FFE0" stroke-width="2.07101"/>
<circle class="circles-butt-1" cx="4.65976" cy="4.65976" r="3.62426" transform="matrix(-1 0 0 1 419.646 428.222)" stroke="#00FFE0" stroke-width="2.07101"/>
<circle class="circles-butt-1" cx="155.72" cy="432.882" r="3.62426" stroke="#00FFE0" stroke-width="2.07101"/>
<circle class="circles-butt-1" cx="4.65976" cy="4.65976" r="3.62426" transform="matrix(-1 0 0 1 412.713 381.441)" stroke="#00FFE0" stroke-width="2.07101"/>
<circle class="circles-butt-1" cx="162.651" cy="386.1" r="3.62426" stroke="#00FFE0" stroke-width="2.07101"/>
<circle class="circles-butt-1" cx="4.65976" cy="4.65976" r="3.62426" transform="matrix(-1 0 0 1 398.849 357.178)" stroke="#00FFE0" stroke-width="2.07101"/>
<circle class="circles-butt-1" cx="176.515" cy="361.838" r="3.62426" stroke="#00FFE0" stroke-width="2.07101"/>
<circle class="circles-butt-1" cx="4.65976" cy="4.65976" r="3.62426" transform="matrix(-1 0 0 1 350.335 329.458)" stroke="#00FFE0" stroke-width="2.07101"/>
<circle class="circles-butt-1" cx="225.032" cy="334.118" r="3.62426" stroke="#00FFE0" stroke-width="2.07101"/>
<circle class="circles-butt-1" cx="4.65976" cy="4.65976" r="3.62426" transform="matrix(-1 0 0 1 339.935 331.193)" stroke="#00FFE0" stroke-width="2.07101"/>
<circle class="circles-butt-1" cx="235.429" cy="335.853" r="3.62426" stroke="#00FFE0" stroke-width="2.07101"/>
<circle class="circles-butt-1" cx="4.65976" cy="4.65976" r="3.62426" transform="matrix(-1 0 0 1 357.266 343.321)" stroke="#00FFE0" stroke-width="2.07101"/>
<circle class="circles-butt-1" cx="218.098" cy="347.981" r="3.62426" stroke="#00FFE0" stroke-width="2.07101"/>
<circle class="circles-butt-1" cx="4.65976" cy="4.65976" r="3.62426" transform="matrix(-1 0 0 1 334.743 303.465)" stroke="#00FFE0" stroke-width="2.07101"/>
<circle class="circles-butt-1" cx="240.627" cy="308.125" r="3.62426" stroke="#00FFE0" stroke-width="2.07101"/>
<circle class="circles-butt-1" cx="4.65976" cy="4.65976" r="3.62426" transform="matrix(-1 0 0 1 327.81 291.337)" stroke="#00FFE0" stroke-width="2.07101"/>
<circle class="circles-butt-1" cx="247.56" cy="295.997" r="3.62426" stroke="#00FFE0" stroke-width="2.07101"/>
<circle class="circles-butt-1" cx="4.65976" cy="4.65976" r="3.62426" transform="matrix(-1 0 0 1 308.745 287.873)" stroke="#00FFE0" stroke-width="2.07101"/>
<circle class="circles-butt-1" cx="266.613" cy="292.532" r="3.62426" stroke="#00FFE0" stroke-width="2.07101"/>
<circle class="circles-butt-1" cx="4.65976" cy="4.65976" r="3.62426" transform="matrix(-1 0 0 1 338.205 322.528)" stroke="#00FFE0" stroke-width="2.07101"/>
<circle class="circles-butt-1" cx="237.159" cy="327.188" r="3.62426" stroke="#00FFE0" stroke-width="2.07101"/>
<circle class="circles-butt-1" cx="4.65976" cy="4.65976" r="3.62426" transform="matrix(-1 0 0 1 393.653 327.726)" stroke="#00FFE0" stroke-width="2.07101"/>
<circle class="circles-butt-1" cx="181.711" cy="332.385" r="3.62426" stroke="#00FFE0" stroke-width="2.07101"/>
<circle class="circles-butt-1" cx="4.65976" cy="4.65976" r="3.62426" transform="matrix(-1 0 0 1 378.056 282.677)" stroke="#00FFE0" stroke-width="2.07101"/>
<circle class="circles-butt-1" cx="197.31" cy="287.337" r="3.62426" stroke="#00FFE0" stroke-width="2.07101"/>
<circle class="circles-butt-1" cx="4.65976" cy="4.65976" r="3.62426" transform="matrix(-1 0 0 1 360.73 282.677)" stroke="#00FFE0" stroke-width="2.07101"/>
<circle class="circles-butt-1" cx="214.634" cy="287.337" r="3.62426" stroke="#00FFE0" stroke-width="2.07101"/>
<circle class="circles-butt-1" cx="4.65976" cy="4.65976" r="3.62426" transform="matrix(-1 0 0 1 367.663 272.279)" stroke="#00FFE0" stroke-width="2.07101"/>
<circle class="circles-butt-1" cx="207.701" cy="276.939" r="3.62426" stroke="#00FFE0" stroke-width="2.07101"/>
<circle class="circles-butt-1" cx="4.65976" cy="4.65976" r="3.62426" transform="matrix(-1 0 0 1 410.981 393.572)" stroke="#00FFE0" stroke-width="2.07101"/>
<circle class="circles-butt-1" cx="164.383" cy="398.232" r="3.62426" stroke="#00FFE0" stroke-width="2.07101"/>
<circle class="circles-butt-1" cx="4.65976" cy="4.65976" r="3.62426" transform="matrix(-1 0 0 1 398.849 397.035)" stroke="#00FFE0" stroke-width="2.07101"/>
<circle class="circles-butt-1" cx="176.515" cy="401.695" r="3.62426" stroke="#00FFE0" stroke-width="2.07101"/>
<circle class="circles-butt-1" cx="4.65976" cy="4.65976" r="3.62426" transform="matrix(-1 0 0 1 395.385 383.172)" stroke="#00FFE0" stroke-width="2.07101"/>
<circle class="circles-butt-1" cx="179.979" cy="387.832" r="3.62426" stroke="#00FFE0" stroke-width="2.07101"/>
<circle class="circles-butt-1" cx="4.65976" cy="4.65976" r="3.62426" transform="matrix(-1 0 0 1 369.393 248.02)" stroke="#00FFE0" stroke-width="2.07101"/>
<circle class="circles-butt-1" cx="205.971" cy="252.68" r="3.62426" stroke="#00FFE0" stroke-width="2.07101"/>
<circle class="circles-butt-1" cx="4.65976" cy="4.65976" r="3.62426" transform="matrix(-1 0 0 1 343.404 222.031)" stroke="#00FFE0" stroke-width="2.07101"/>
<circle class="circles-butt-1" cx="231.96" cy="226.691" r="3.62426" stroke="#00FFE0" stroke-width="2.07101"/>
<circle class="circles-butt-1" cx="4.65976" cy="4.65976" r="3.62426" transform="matrix(-1 0 0 1 395.385 197.774)" stroke="#00FFE0" stroke-width="2.07101"/>
<circle class="circles-butt-1" cx="179.979" cy="202.432" r="3.62426" stroke="#00FFE0" stroke-width="2.07101"/>
<circle class="circles-butt-1" cx="9.53008" cy="9.53008" r="8.49457" transform="matrix(-1 0 0 1 296.62 157.917)" stroke="#00FFE0" stroke-width="2.07101"/>

</svg>
