<svg width="246" height="246" viewBox="0 0 246 246" fill="none" xmlns="http://www.w3.org/2000/svg">
<path d="M116.124 165.055H70.562C70.562 165.055 25 165.055 25 116.525V68H70.562C70.562 68 116.124 68 116.124 116.53V165.059V165.055Z" fill="#FF00E5"/>
<path d="M130.941 165.055H176.133C176.133 165.055 221.324 165.055 221.324 116.525V68H176.133C176.133 68 130.941 68 130.941 116.53V165.059V165.055Z" fill="#FF00E5"/>
<path d="M123.131 164.354V188.604C123.131 188.604 123.131 212.853 98.4296 212.853H73.7279V188.604C73.7279 188.604 73.7279 164.354 98.4296 164.354H123.131Z" fill="#FF00E5"/>
<path d="M123.193 164.354V188.604C123.193 188.604 123.193 212.853 147.895 212.853H172.596V188.604C172.596 188.604 172.596 164.354 147.895 164.354H123.193Z" fill="#FF00E5"/>
<path d="M83 34C101.828 49.3092 122.872 81.65 122.872 93.1319C122.872 81.65 143.916 49.3092 162.744 34" stroke="#FF00E5" stroke-linecap="round"/>
<path d="M114.96 100.626C114.96 96.1694 118.573 92.5566 123.03 92.5566V92.5566C127.486 92.5566 131.099 96.1694 131.099 100.626V188.202H114.96V100.626Z" fill="#FF00E5"/>
<path d="M131.099 188.202H114.96C114.96 195.411 119.549 208.773 122.871 211.586C125.878 208.949 131.099 195.586 131.099 188.202Z" fill="#FF00E5"/>
</svg>
