<svg width="246" height="246" viewBox="0 0 246 246" fill="none" xmlns="http://www.w3.org/2000/svg">
<path d="M160.5 158.312C160.5 158.312 160.638 158.309 160.895 158.312L176.473 158.312C176.473 158.312 221.326 158.312 221.326 112.905C221.326 97.7463 216.567 67.501 176.473 67.501C176.473 67.501 130.5 67.501 130.5 112.909L128.5 158.312L131.187 185.318C131.187 212.979 160.977 212.979 160.977 212.979C187.606 212.979 190.767 194.555 190.767 185.321C190.767 159.528 164.45 158.353 160.895 158.312H160.5Z" fill="#FF00E5"/>
<path d="M25.0021 112.905C25.0021 158.312 70.2228 158.312 70.2228 158.312L85.3493 158.373C85.3493 158.373 55.5597 158.373 55.5597 186.033C55.5597 195.267 58.7204 213.691 85.3493 213.691C85.3493 213.691 115.139 213.691 115.139 186.031L117 158.373L115.444 112.909C115.444 67.501 70.2228 67.501 70.2228 67.501C29.8001 67.501 25.0021 97.7462 25.0021 112.905Z" fill="#FF00E5"/>
<path d="M83 32C101.828 47.3092 122.872 79.65 122.872 91.1319C122.872 79.65 143.916 47.3092 162.744 32" stroke="#FF00E5" stroke-linecap="round"/>
<path d="M114.96 98.626C114.96 94.1694 118.573 90.5566 123.03 90.5566V90.5566C127.486 90.5566 131.099 94.1694 131.099 98.626V186.202C131.099 193.586 125.878 206.949 122.871 209.586C119.549 206.773 114.96 193.411 114.96 186.202V98.626Z" fill="#FF00E5"/>
</svg>
