<svg width="246" height="246" viewBox="0 0 246 246" fill="none" xmlns="http://www.w3.org/2000/svg">
<path d="M83 34C101.828 49.3092 122.872 81.65 122.872 93.1319C122.872 81.65 143.916 49.3092 162.744 34" stroke="#FF00E5" stroke-linecap="round"/>
<path d="M114.96 100.626C114.96 96.1699 118.573 92.5571 123.03 92.5571V92.5571C127.486 92.5571 131.099 96.1699 131.099 100.626V188.202H114.96V100.626Z" fill="#FF00E5"/>
<path d="M131.099 188.202H114.96C114.96 195.411 119.549 208.773 122.871 211.586C125.878 208.949 131.099 195.587 131.099 188.202Z" fill="#FF00E5"/>
<path d="M25 102.547L57.542 139H98.5L74.0928 163.5L62.161 151.647L37.6304 176.011L74.0584 212.19L98.5853 187.823L123.212 163.458L147.739 187.821L172.266 212.19L196.797 187.823L208.047 176.632L209.063 175.621L196.797 163.439L184.532 151.258L172.266 163.424L159.984 151.259L147.703 139.094H168.161H188.62L221.324 102.547L188.62 66L155.916 102.547L123 139L57.7041 66L25 102.547Z" fill="#FF00E5"/>
</svg>
