<svg width="246" height="246" viewBox="0 0 246 246" fill="none" xmlns="http://www.w3.org/2000/svg">
<path d="M168.457 147.765C187.992 147.765 222.324 61 222.324 61H180.475C180.475 61 175.369 61.002 168.282 63.4891C152.206 69.1311 134.326 118.898 123.347 147.765C123.347 207.477 190.916 207.321 190.916 207.321V167.659C190.916 147.765 168.457 147.765 168.457 147.765Z" fill="#FF00E5"/>
<path d="M26 61C26 61 60.3351 147.765 79.8699 147.765C79.8699 147.765 57.4107 147.765 57.4107 167.659V207.321C57.4107 207.321 123.347 207.477 123.347 147.765C112.367 118.164 96.1181 69.3378 80.0416 63.5524C72.9547 61.0021 67.8492 61 67.8492 61H26Z" fill="#FF00E5"/>
<path d="M83 32C101.828 47.3092 122.872 79.65 122.872 91.1319C122.872 79.65 143.916 47.3092 162.744 32" stroke="#FF00E5" stroke-linecap="round"/>
<path d="M130.599 98.626V186.202C130.599 189.806 129.317 194.927 127.643 199.502C126.808 201.783 125.882 203.91 124.982 205.626C124.212 207.094 123.481 208.22 122.864 208.891C122.194 208.191 121.444 207.032 120.679 205.532C119.795 203.797 118.919 201.661 118.143 199.381C116.588 194.81 115.46 189.727 115.46 186.202V98.626C115.46 94.4456 118.849 91.0566 123.03 91.0566C127.21 91.0566 130.599 94.4455 130.599 98.626Z" fill="#FF00E5" stroke="#FF00E5"/>
</svg>
