<svg width="246" height="246" viewBox="0 0 246 246" fill="none" xmlns="http://www.w3.org/2000/svg">
<path d="M83 34.0005C101.828 49.3097 122.872 81.6505 122.872 93.1324C122.872 81.6505 143.916 49.3097 162.744 34.0005" stroke="#FF00E5" stroke-linecap="round"/>
<path d="M114.96 100.627C114.96 96.1704 118.573 92.5576 123.03 92.5576V92.5576C127.486 92.5576 131.099 96.1704 131.099 100.627V188.203C131.099 195.587 125.878 208.95 122.871 211.587C119.549 208.774 114.96 195.412 114.96 188.203V100.627Z" fill="#FF00E5"/>
<path d="M98.5859 128.421L123.113 149.318L25.001 128.55" fill="#FF00E5"/>
<path d="M49.5278 170.211V212.001L98.5859 170.211L123.113 149.318L49.5278 170.211Z" fill="#FF00E5"/>
<path d="M25.001 65.8125V128.55L123.113 149.318L98.5859 128.421L25.001 65.8125Z" fill="#FF00E5"/>
<path d="M147.74 128.418L132.824 141.127L125.737 147.165L123.213 149.315L221.325 128.547" fill="#FF00E5"/>
<path d="M196.798 170.208V211.998L147.74 170.208L123.213 149.315L196.798 170.208Z" fill="#FF00E5"/>
<path d="M221.325 65.8096V128.547L123.213 149.315L125.737 147.165L132.824 141.127L147.74 128.418L185.296 98.7059L221.325 65.8096Z" fill="#FF00E5"/>
<path d="M123.213 143.161L132.824 141.127L125.737 147.165L123.213 143.161Z" fill="#FF00E5"/>
<path d="M185.296 98.7059L147.74 128.418L132.824 141.127L123.213 143.161L121.325 143.561L123.213 124.134L185.296 73.5533V98.7059Z" fill="#FF00E5"/>
<path d="M47.2577 141.011L30.1481 179.105L91.9783 161.262L122.891 152.342L47.2577 141.011Z" fill="#FF00E5"/>
<path d="M198.428 141.011L215.538 179.105L153.708 161.262L122.795 152.342L198.428 141.011Z" fill="#FF00E5"/>
<path fill-rule="evenodd" clip-rule="evenodd" d="M188.277 129.087V66.3486L119.89 124.535L118.001 143.962L188.277 129.087Z" fill="#FF00E5"/>
<path fill-rule="evenodd" clip-rule="evenodd" d="M58.0896 128.589V65.8516L126.477 124.038V144.854L58.0896 128.589Z" fill="#FF00E5"/>
</svg>
