<svg width="246" height="246" viewBox="0 0 246 246" fill="none" xmlns="http://www.w3.org/2000/svg">
<path d="M82.6755 33C101.504 48.3092 122.548 80.65 122.548 92.1319C122.548 80.65 143.591 48.3092 162.42 33" stroke="#FF00E5" stroke-linecap="round"/>
<path d="M114.636 99.6265C114.636 95.1699 118.248 91.5571 122.705 91.5571V91.5571C127.162 91.5571 130.774 95.1699 130.774 99.6265V187.202C130.774 194.587 125.553 207.949 122.547 210.586C119.224 207.773 114.636 194.411 114.636 187.202V99.6265Z" fill="#FF00E5"/>
<path d="M49.2414 111.916C62.8088 111.916 73.8073 101.749 73.8073 89.2084C73.8073 76.6675 62.8088 66.501 49.2414 66.501C35.6741 66.501 24.6755 76.6675 24.6755 89.2084C24.6755 101.749 35.6741 111.916 49.2414 111.916Z" fill="#FF00E5"/>
<path d="M73.6469 134.627C87.2142 134.627 98.2128 124.461 98.2128 111.92C98.2128 99.3786 87.2142 89.2121 73.6469 89.2121C60.0795 89.2121 49.081 99.3786 49.081 111.92C49.081 124.461 60.0795 134.627 73.6469 134.627Z" fill="#FF00E5"/>
<path d="M73.647 212.691C80.4319 212.691 85.9321 207.607 85.9321 201.336C85.9321 195.064 80.4319 189.98 73.647 189.98C66.8621 189.98 61.3619 195.064 61.3619 201.336C61.3619 207.607 66.8621 212.691 73.647 212.691Z" fill="#FF00E5"/>
<path d="M86.0923 202.754C92.8772 202.754 98.3775 197.67 98.3775 191.398C98.3775 185.127 92.8772 180.043 86.0923 180.043C79.3075 180.043 73.8072 185.127 73.8072 191.398C73.8072 197.67 79.3075 202.754 86.0923 202.754Z" fill="#FF00E5"/>
<path d="M97.7015 107.282L122.904 157.299L62.8309 132.312" fill="#FF00E5"/>
<path d="M80.2121 181.428L122.904 157.299L96.2542 197.779" fill="#FF00E5"/>
<path d="M73.8073 160.27C87.3746 160.27 98.3732 150.103 98.3732 137.562C98.3732 125.021 87.3746 114.855 73.8073 114.855C60.2399 114.855 49.2414 125.021 49.2414 137.562C49.2414 150.103 60.2399 160.27 73.8073 160.27Z" fill="#FF00E5"/>
<path d="M49.7498 142.18C63.3172 142.18 74.3157 132.014 74.3157 119.473C74.3157 106.932 63.3172 96.7654 49.7498 96.7654C36.1825 96.7654 25.1839 106.932 25.1839 119.473C25.1839 132.014 36.1825 142.18 49.7498 142.18Z" fill="#FF00E5"/>
<path d="M104.198 168.391C112.738 168.391 119.66 161.945 119.66 153.994C119.66 146.042 112.738 139.596 104.198 139.596C95.658 139.596 88.7352 146.042 88.7352 153.994C88.7352 161.945 95.658 168.391 104.198 168.391Z" fill="#FF00E5"/>
<path d="M196.434 111.916C182.866 111.916 171.868 101.749 171.868 89.2084C171.868 76.6675 182.866 66.501 196.434 66.501C210.001 66.501 221 76.6675 221 89.2084C221 101.749 210.001 111.916 196.434 111.916Z" fill="#FF00E5"/>
<path d="M172.028 134.627C158.461 134.627 147.462 124.461 147.462 111.92C147.462 99.3786 158.461 89.2121 172.028 89.2121C185.596 89.2121 196.594 99.3786 196.594 111.92C196.594 124.461 185.596 134.627 172.028 134.627Z" fill="#FF00E5"/>
<path d="M172.028 212.691C165.243 212.691 159.743 207.607 159.743 201.336C159.743 195.064 165.243 189.98 172.028 189.98C178.813 189.98 184.313 195.064 184.313 201.336C184.313 207.607 178.813 212.691 172.028 212.691Z" fill="#FF00E5"/>
<path d="M159.583 202.754C152.798 202.754 147.298 197.67 147.298 191.398C147.298 185.127 152.798 180.043 159.583 180.043C166.368 180.043 171.868 185.127 171.868 191.398C171.868 197.67 166.368 202.754 159.583 202.754Z" fill="#FF00E5"/>
<path d="M147.974 107.282L122.771 157.299L182.844 132.312" fill="#FF00E5"/>
<path d="M165.463 181.428L122.771 157.299L149.421 197.779" fill="#FF00E5"/>
<path d="M171.868 160.27C158.301 160.27 147.302 150.103 147.302 137.562C147.302 125.021 158.301 114.855 171.868 114.855C185.435 114.855 196.434 125.021 196.434 137.562C196.434 150.103 185.435 160.27 171.868 160.27Z" fill="#FF00E5"/>
<path d="M195.925 142.18C182.358 142.18 171.359 132.014 171.359 119.473C171.359 106.932 182.358 96.7654 195.925 96.7654C209.493 96.7654 220.491 106.932 220.491 119.473C220.491 132.014 209.493 142.18 195.925 142.18Z" fill="#FF00E5"/>
<path d="M141.477 168.391C132.938 168.391 126.015 161.945 126.015 153.994C126.015 146.042 132.938 139.596 141.477 139.596C150.017 139.596 156.94 146.042 156.94 153.994C156.94 161.945 150.017 168.391 141.477 168.391Z" fill="#FF00E5"/>
</svg>
