<svg width="246" height="246" viewBox="0 0 246 246" fill="none" xmlns="http://www.w3.org/2000/svg">
<path d="M83 34C101.828 49.3092 122.872 81.65 122.872 93.1319C122.872 81.65 143.916 49.3092 162.744 34" stroke="#FF00E5" stroke-linecap="round"/>
<path d="M114.96 100.626C114.96 96.1699 118.573 92.5571 123.03 92.5571V92.5571C127.486 92.5571 131.099 96.1699 131.099 100.626V188.202C131.099 195.587 125.878 208.949 122.871 211.586C119.549 208.773 114.96 195.411 114.96 188.202V100.626Z" fill="#FF00E5"/>
<path d="M29.2004 70.7085C29.2004 70.7085 122.738 70.7085 122.738 163.628C122.738 163.628 29.2004 163.628 29.2004 70.7085Z" fill="#FF00E5"/>
<path d="M216.375 70.7085C216.375 70.7085 122.838 70.7085 122.838 163.628C122.838 163.628 216.375 163.628 216.375 70.7085Z" fill="#FF00E5"/>
<path d="M75.9748 210.085C75.9748 210.085 75.9748 163.624 122.746 163.624C122.746 163.624 122.746 210.085 75.9748 210.085Z" fill="#FF00E5"/>
<path d="M169.603 210.085C169.603 210.085 169.603 163.624 122.833 163.624C122.833 163.624 122.833 210.085 169.603 210.085Z" fill="#FF00E5"/>
</svg>
