<svg width="246" height="246" viewBox="0 0 246 246" fill="none" xmlns="http://www.w3.org/2000/svg">
<path d="M83 34C101.828 49.3092 122.872 81.65 122.872 93.1319C122.872 81.65 143.916 49.3092 162.744 34" stroke="#FF00E5" stroke-linecap="round"/>
<path d="M114.96 100.626C114.96 96.1694 118.573 92.5566 123.03 92.5566V92.5566C127.486 92.5566 131.099 96.1694 131.099 100.626V188.202C131.099 195.586 125.878 208.949 122.871 211.586C119.549 208.773 114.96 195.411 114.96 188.202V100.626Z" fill="#FF00E5"/>
<path d="M61.7595 129.306C82.0613 129.306 98.5191 115.288 98.5191 97.9962C98.5191 80.7043 82.0613 66.6865 61.7595 66.6865C41.4578 66.6865 25 80.7043 25 97.9962C25 115.288 41.4578 129.306 61.7595 129.306Z" fill="#FF00E5"/>
<path d="M74.0571 212.691C60.5013 212.691 49.5132 203.332 49.5132 191.786C49.5132 184.57 53.8056 178.208 60.3371 174.449C62.2915 173.324 64.4473 172.432 66.7486 171.821L122.985 150.142L96.737 199.792C93.0483 207.365 84.2833 212.691 74.0571 212.691Z" fill="#FF00E5"/>
<path d="M96.6638 88.1592L122.984 150.145L45.7347 126.181" fill="#FF00E5"/>
<path d="M184.565 129.121C164.263 129.121 147.805 115.103 147.805 97.8116C147.805 80.5198 164.263 66.502 184.565 66.502C204.866 66.502 221.324 80.5198 221.324 97.8116C221.324 115.103 204.866 129.121 184.565 129.121Z" fill="#FF00E5"/>
<path d="M172.269 212.509C185.824 212.509 196.812 203.15 196.812 191.604C196.812 184.388 192.52 178.026 185.989 174.267C184.034 173.142 181.878 172.251 179.577 171.64L123.341 149.96L149.589 199.61C153.277 207.183 162.042 212.509 172.269 212.509Z" fill="#FF00E5"/>
<path d="M149.659 87.9746L123.339 149.961L200.588 125.996" fill="#FF00E5"/>
</svg>
