<svg width="246" height="246" viewBox="0 0 246 246" fill="none" xmlns="http://www.w3.org/2000/svg">
<path d="M83 31.9995C101.828 47.3087 122.872 79.6495 122.872 91.1314C122.872 79.6495 143.916 47.3087 162.744 31.9995" stroke="#FF00E5" stroke-linecap="round"/>
<path d="M114.96 98.626C114.96 94.1694 118.573 90.5566 123.03 90.5566V90.5566C127.486 90.5566 131.099 94.1694 131.099 98.626V186.202C131.099 193.586 125.878 206.949 122.871 209.586C119.549 206.773 114.96 193.411 114.96 186.202V98.626Z" fill="#FF00E5"/>
<path d="M25.4062 60.9912C25.4062 60.9912 52.7711 134.544 71.3305 134.544H94.9805H95.0418C70.1283 139.212 58.3654 159.596 55.3144 172.021C51.4539 186.052 60.0117 200.662 74.4288 204.653C88.8458 208.644 103.663 200.504 107.523 186.473C107.65 184.628 107.945 182.106 108.449 179.498C109.442 174.359 112.573 168.296 115.5 167H130.5C133.427 168.296 136.562 175.066 137.554 180.205C138.058 182.813 138.353 185.335 138.48 187.18C142.341 201.211 157.158 209.351 171.575 205.36C185.992 201.369 194.549 186.759 190.689 172.728C187.714 160.614 176.42 140.549 152.751 135.043L174.673 135.251C193.232 135.251 220.597 61.6982 220.597 61.6982H180.838C180.838 61.6982 175.987 61.7 169.254 63.8083C153.98 68.5911 141.224 111.447 127 134.799L126.986 134.801C125.669 135.038 124.33 135.312 122.966 135.625C121.1 135.197 120.751 134.805 118.999 134.515C104.781 111.157 92.0169 67.8821 76.7493 63.1013C70.0163 60.9929 65.1657 60.9912 65.1657 60.9912H25.4062Z" fill="#FF00E5"/>
</svg>
