<svg width="246" height="246" viewBox="0 0 246 246" fill="none" xmlns="http://www.w3.org/2000/svg">
<path d="M83 34C101.828 49.3092 122.872 81.65 122.872 93.1319C122.872 81.65 143.916 49.3092 162.744 34" stroke="#FF00E5" stroke-linecap="round"/>
<path d="M114.96 100.626C114.96 96.1694 118.573 92.5566 123.03 92.5566V92.5566C127.486 92.5566 131.099 96.1694 131.099 100.626V188.202C131.099 195.586 125.878 208.949 122.871 211.586C119.549 208.773 114.96 195.411 114.96 188.202V100.626Z" fill="#FF00E5"/>
<path d="M98.4633 66H25V128.297L122.95 149.059L98.4633 66Z" fill="#FF00E5"/>
<path d="M146.723 204.749L122.237 142.46L195.7 163.222" fill="#FF00E5"/>
<path d="M195.7 204.749H146.723L122.237 142.46L195.7 163.222V204.749Z" fill="#FF00E5"/>
<path d="M97.7143 204.749L122.201 142.46L48.7373 163.222" fill="#FF00E5"/>
<path d="M48.7373 204.749H97.7143L122.201 142.46L48.7373 163.222V204.749Z" fill="#FF00E5"/>
<path d="M147.537 66H221V128.297L123.05 149.059L147.537 66Z" fill="#FF00E5"/>
</svg>
