<svg width="108" height="108" viewBox="0 0 108 108" fill="none" xmlns="http://www.w3.org/2000/svg">
<mask id="mask0_47_374781" style="mask-type:alpha" maskUnits="userSpaceOnUse" x="-1" y="-1" width="109" height="109">
<rect width="105.488" height="105.488" rx="20.802" transform="matrix(4.37114e-08 -1 -1 -4.37114e-08 106.055 106.472)" fill="#D9D9D9" stroke="#753EEA" stroke-width="2.0802"/>
</mask>
<g mask="url(#mask0_47_374781)">
<path d="M113.848 141.633L137.354 118.101M177.315 101.628L153.808 78.0956M99.7442 101.628L80.9392 82.8021M113.848 63.9762L137.354 40.4439M80.9392 5.14548L99.7442 23.9713M113.848 -8.9739L137.354 -32.5062M153.808 5.14548L172.613 23.9713M186.717 63.9762L203.171 47.5036" stroke="#00FFE0" stroke-width="2.0802"/>
<path d="M-6.71023 139.957L16.796 116.425M56.7565 99.9524L33.2503 76.4201M-20.8139 99.9524L-39.6189 81.1265M-6.71023 62.3007L16.796 38.7684M-39.6189 3.46994L-20.8139 22.2958M-6.71023 -10.6494L16.796 -34.1817M33.2503 3.46995L52.0552 22.2958M66.159 62.3007L82.6133 45.8281" stroke="#00FFE0" stroke-width="2.0802"/>
</g>
</svg>
