<svg width="554" height="554" viewBox="0 0 554 554" fill="none" xmlns="http://www.w3.org/2000/svg">
<path d="M306.363 181.28L277.001 271.127L247.64 181.28L277.001 1L306.363 181.28Z" stroke="#00FFE0" stroke-width="2.25049"/>
<path d="M365.611 229.898L281.318 272.668L324.087 188.375L472.326 81.659L365.611 229.898Z" stroke="#00FFE0" stroke-width="2.25049"/>
<path d="M365.609 324.088L281.316 281.319L324.085 365.612L472.324 472.328L365.609 324.088Z" stroke="#00FFE0" stroke-width="2.25049"/>
<path d="M188.377 229.898L272.67 272.668L229.9 188.375L81.661 81.659L188.377 229.898Z" stroke="#00FFE0" stroke-width="2.25049"/>
<path d="M188.377 324.088L272.67 281.319L229.9 365.612L81.661 472.328L188.377 324.088Z" stroke="#00FFE0" stroke-width="2.25049"/>
<path d="M306.363 372.718L277.001 282.872L247.64 372.718L277.001 552.999L306.363 372.718Z" stroke="#00FFE0" stroke-width="2.25049"/>
<path d="M181.281 306.361L271.127 276.999L181.281 247.638L1.00012 276.999L181.281 306.361Z" stroke="#00FFE0" stroke-width="2.25049"/>
<path d="M372.72 306.361L282.873 276.999L372.72 247.638L553 276.999L372.72 306.361Z" stroke="#00FFE0" stroke-width="2.25049"/>
</svg>
