<svg width="107" height="107" viewBox="0 0 107 107" fill="none" xmlns="http://www.w3.org/2000/svg">
<mask id="mask0_47_374777" style="mask-type:alpha" maskUnits="userSpaceOnUse" x="-1" y="-1" width="109" height="108">
<rect width="105.488" height="105.488" rx="20.802" transform="matrix(4.37114e-08 -1 -1 -4.37114e-08 106.294 105.536)" fill="#D9D9D9" stroke="#753EEA" stroke-width="2.0802"/>
</mask>
<g mask="url(#mask0_47_374777)">
<path d="M-174.415 526.408L689.583 -337.589M-194.508 486.222L669.49 -377.775M-214.601 446.036L649.397 -417.961M-234.694 405.85L629.304 -458.147M-254.787 365.664L609.211 -498.333M-274.88 325.478L589.118 -538.519M-294.973 285.292L569.025 -578.705M-315.066 245.107L548.932 -618.891M-335.158 204.921L528.839 -659.077M-355.251 164.735L508.746 -699.263M-375.344 124.549L488.653 -739.449M-395.437 84.3628L468.56 -779.635M-415.53 44.1769L448.467 -819.821M-475.809 44.1769L428.374 -860.006M-455.716 -36.195L408.281 -900.192M-475.809 -76.3809L388.188 -940.378M-495.902 -116.567L368.095 -980.564M-515.995 -156.753L348.002 -1020.75M-536.088 -196.939L327.909 -1060.94" stroke="#00FFE0" stroke-width="2.0802"/>
</g>
</svg>
