<svg width="108" height="108" viewBox="0 0 108 108" fill="none" xmlns="http://www.w3.org/2000/svg">
<mask id="mask0_47_374739" style="mask-type:alpha" maskUnits="userSpaceOnUse" x="0" y="-1" width="108" height="109">
<rect width="105.488" height="105.488" rx="20.802" transform="matrix(4.37114e-08 -1 -1 -4.37114e-08 106.82 106.472)" fill="white" stroke="#753EEA" stroke-width="2.0802"/>
</mask>
<g mask="url(#mask0_47_374739)">
<path d="M93.4258 342.565L-749.642 -500.502" stroke="#00FFE0" stroke-width="2.0802"/>
<path d="M148.681 325.821L-694.386 -517.246" stroke="#00FFE0" stroke-width="2.0802"/>
<path d="M203.938 309.079L-639.129 -533.988" stroke="#00FFE0" stroke-width="2.0802"/>
<path d="M259.193 292.331L-583.874 -550.737" stroke="#00FFE0" stroke-width="2.0802"/>
<path d="M314.449 275.587L-528.619 -567.481" stroke="#00FFE0" stroke-width="2.0802"/>
<path d="M369.706 258.845L-473.362 -584.223" stroke="#00FFE0" stroke-width="2.0802"/>
<path d="M424.961 242.101L-418.106 -600.966" stroke="#00FFE0" stroke-width="2.0802"/>
<path d="M480.216 225.357L-362.851 -617.71" stroke="#00FFE0" stroke-width="2.0802"/>
<path d="M535.471 208.608L-307.596 -634.459" stroke="#00FFE0" stroke-width="2.0802"/>
<path d="M590.728 191.866L-252.34 -651.201" stroke="#00FFE0" stroke-width="2.0802"/>
<path d="M645.982 175.122L-197.085 -667.945" stroke="#00FFE0" stroke-width="2.0802"/>
<path d="M701.239 158.379L-141.829 -684.689" stroke="#00FFE0" stroke-width="2.0802"/>
<path d="M756.494 141.637L-86.5732 -701.431" stroke="#00FFE0" stroke-width="2.0802"/>
<path d="M811.75 124.889L-31.3168 -718.179" stroke="#00FFE0" stroke-width="2.0802"/>
<path d="M867.006 108.144L23.9385 -734.923" stroke="#00FFE0" stroke-width="2.0802"/>
<path d="M922.261 91.4021L79.1934 -751.665" stroke="#00FFE0" stroke-width="2.0802"/>
<path d="M569.797 -7.45935L-581.854 301.125" stroke="#00FFE0" stroke-width="2.0802"/>
<path d="M582.925 -63.6764L-568.727 244.908" stroke="#00FFE0" stroke-width="2.0802"/>
<path d="M596.051 -119.906L-555.6 188.678" stroke="#00FFE0" stroke-width="2.0802"/>
<path d="M609.179 -176.132L-542.473 132.452" stroke="#00FFE0" stroke-width="2.0802"/>
<path d="M622.305 -232.356L-529.346 76.2279" stroke="#00FFE0" stroke-width="2.0802"/>
<path d="M635.432 -288.582L-516.22 20.0019" stroke="#00FFE0" stroke-width="2.0802"/>
<path d="M648.558 -344.802L-503.093 -36.2182" stroke="#00FFE0" stroke-width="2.0802"/>
<path d="M661.686 -401.033L-489.966 -92.4491" stroke="#00FFE0" stroke-width="2.0802"/>
<path d="M674.812 -457.258L-476.839 -148.674" stroke="#00FFE0" stroke-width="2.0802"/>
<path d="M687.939 -513.484L-463.712 -204.9" stroke="#00FFE0" stroke-width="2.0802"/>
<path d="M701.067 -569.71L-450.584 -261.126" stroke="#00FFE0" stroke-width="2.0802"/>
<path d="M714.193 -625.925L-437.458 -317.341" stroke="#00FFE0" stroke-width="2.0802"/>
<path d="M727.321 -682.15L-424.331 -373.566" stroke="#00FFE0" stroke-width="2.0802"/>
</g>
</svg>
