<svg width="1380" height="134" viewBox="0 0 1380 134" fill="none" xmlns="http://www.w3.org/2000/svg">
<path d="M196.222 129.605C189.934 129.605 184.836 124.521 184.836 118.249C184.836 111.976 189.934 106.892 196.222 106.892C202.51 106.892 207.607 111.976 207.607 118.249C207.607 124.521 202.51 129.605 196.222 129.605Z" fill="#00FFE0"/>
<path d="M372.485 4.24291C366.197 4.24291 361.1 9.32751 361.1 15.5997C361.1 21.8718 366.197 26.9564 372.485 26.9564C378.773 26.9564 383.871 21.8718 383.871 15.5997C383.871 9.32751 378.773 4.24291 372.485 4.24291Z" fill="#00FFE0"/>
<path d="M168.91 133.848C162.622 133.848 157.525 128.764 157.525 122.492C157.525 116.219 162.622 111.135 168.91 111.135C175.198 111.135 180.296 116.219 180.296 122.492C180.296 128.764 175.198 133.848 168.91 133.848Z" fill="#00FFE0"/>
<path d="M345.174 -5.72205e-06C338.886 -5.72205e-06 333.788 5.08459 333.788 11.3567C333.788 17.6289 338.886 22.7135 345.174 22.7135C351.462 22.7135 356.559 17.6289 356.559 11.3567C356.559 5.08459 351.462 -5.72205e-06 345.174 -5.72205e-06Z" fill="#00FFE0"/>
<path d="M141.593 129.605C135.305 129.605 130.208 124.521 130.208 118.249C130.208 111.976 135.305 106.892 141.593 106.892C147.882 106.892 152.979 111.976 152.979 118.249C152.979 124.521 147.882 129.605 141.593 129.605Z" fill="#00FFE0"/>
<path d="M317.857 4.24303C311.569 4.24303 306.472 9.32763 306.472 15.5998C306.472 21.872 311.569 26.9565 317.857 26.9565C324.145 26.9565 329.243 21.872 329.243 15.5998C329.243 9.32763 324.145 4.24303 317.857 4.24303Z" fill="#00FFE0"/>
<path d="M116.211 110.323C109.923 110.323 104.825 105.238 104.825 98.9661C104.825 92.694 109.923 87.6094 116.211 87.6094C122.499 87.6094 127.596 92.694 127.596 98.9661C127.596 105.238 122.499 110.323 116.211 110.323Z" fill="#00FFE0"/>
<path d="M292.474 23.525C286.186 23.525 281.089 28.6096 281.089 34.8818C281.089 41.1539 286.186 46.2385 292.474 46.2385C298.762 46.2385 303.86 41.1539 303.86 34.8818C303.86 28.6096 298.762 23.525 292.474 23.525Z" fill="#00FFE0"/>
<path d="M221.604 110.323C215.316 110.323 210.219 105.238 210.219 98.9661C210.219 92.694 215.316 87.6094 221.604 87.6094C227.892 87.6094 232.99 92.694 232.99 98.9661C232.99 105.238 227.892 110.323 221.604 110.323Z" fill="#00FFE0"/>
<path d="M397.867 23.525C391.579 23.525 386.482 28.6096 386.482 34.8818C386.482 41.1539 391.579 46.2385 397.867 46.2385C404.155 46.2385 409.253 41.1539 409.253 34.8818C409.253 28.6096 404.155 23.525 397.867 23.525Z" fill="#00FFE0"/>
<path d="M243.56 88.4204C237.272 88.4204 232.175 83.3358 232.175 77.0637C232.175 70.7915 237.272 65.7069 243.56 65.7069C249.848 65.7069 254.946 70.7915 254.946 77.0637C254.946 83.3358 249.848 88.4204 243.56 88.4204Z" fill="#00FFE0"/>
<path d="M419.823 45.4275C413.535 45.4275 408.437 50.5121 408.437 56.7842C408.437 63.0564 413.535 68.141 419.823 68.141C426.111 68.141 431.208 63.0564 431.208 56.7842C431.208 50.5121 426.111 45.4275 419.823 45.4275Z" fill="#00FFE0"/>
<path d="M97.1575 90.4161C90.8694 90.4161 85.772 85.3316 85.772 79.0594C85.772 72.7872 90.8694 67.7026 97.1575 67.7026C103.446 67.7026 108.543 72.7872 108.543 79.0594C108.543 85.3316 103.446 90.4161 97.1575 90.4161Z" fill="#00FFE0"/>
<path d="M270.519 45.4275C264.231 45.4275 259.133 50.5121 259.133 56.7842C259.133 63.0564 264.231 68.141 270.519 68.141C276.807 68.141 281.904 63.0564 281.904 56.7842C281.904 50.5121 276.807 45.4275 270.519 45.4275Z" fill="#00FFE0"/>
<path d="M544.679 129.758C538.391 129.758 533.294 124.673 533.294 118.401C533.294 112.129 538.391 107.044 544.679 107.044C550.967 107.044 556.065 112.129 556.065 118.401C556.065 124.673 550.967 129.758 544.679 129.758Z" fill="#00FFE0"/>
<path d="M517.368 134C511.08 134 505.983 128.915 505.983 122.643C505.983 116.371 511.08 111.286 517.368 111.286C523.656 111.286 528.754 116.371 528.754 122.643C528.754 128.915 523.656 134 517.368 134Z" fill="#00FFE0"/>
<path d="M490.052 129.758C483.763 129.758 478.666 124.673 478.666 118.401C478.666 112.129 483.763 107.044 490.052 107.044C496.34 107.044 501.437 112.129 501.437 118.401C501.437 124.673 496.34 129.758 490.052 129.758Z" fill="#00FFE0"/>
<path d="M464.669 110.475C458.381 110.475 453.283 105.391 453.283 99.1187C453.283 92.8466 458.381 87.762 464.669 87.762C470.957 87.762 476.054 92.8466 476.054 99.1187C476.054 105.391 470.957 110.475 464.669 110.475Z" fill="#00FFE0"/>
<path d="M570.062 110.475C563.774 110.475 558.676 105.391 558.676 99.1187C558.676 92.8466 563.774 87.762 570.062 87.762C576.35 87.762 581.447 92.8466 581.447 99.1187C581.447 105.391 576.35 110.475 570.062 110.475Z" fill="#00FFE0"/>
<path d="M590.082 88.573C583.794 88.573 578.697 83.4884 578.697 77.2163C578.697 70.9441 583.794 65.8595 590.082 65.8595C596.37 65.8595 601.468 70.9441 601.468 77.2163C601.468 83.4884 596.37 88.573 590.082 88.573Z" fill="#00FFE0"/>
<path d="M442.714 88.5729C436.426 88.5729 431.328 83.4883 431.328 77.2161C431.328 70.944 436.426 65.8594 442.714 65.8594C449.002 65.8594 454.099 70.944 454.099 77.2161C454.099 83.4883 449.002 88.5729 442.714 88.5729Z" fill="#00FFE0"/>
<path d="M0 128C79.0459 128 110.031 3.99146 171.511 3.99146C232.991 3.99146 263.732 128.836 342.778 128.836C421.823 128.836 452.564 3.9915 514.044 3.9915C575.524 3.9915 610.955 128 690 128" stroke="#FF00E5" stroke-width="2"/>
<path d="M77.1316 66.5184C70.8435 66.5184 65.7461 61.4338 65.7461 55.1617C65.7461 48.8895 70.8435 43.8049 77.1316 43.8049C83.4196 43.8049 88.5171 48.8895 88.5171 55.1617C88.5171 61.4338 83.4196 66.5184 77.1316 66.5184Z" fill="#00FFE0"/>
<path d="M59.5701 44.616C53.282 44.616 48.1845 39.5314 48.1845 33.2592C48.1845 26.9871 53.282 21.9025 59.5701 21.9025C65.8581 21.9025 70.9556 26.9871 70.9556 33.2592C70.9556 39.5314 65.8581 44.616 59.5701 44.616Z" fill="#00FFE0"/>
<path d="M32.7727 27.7029C26.4847 27.7029 21.3872 22.6183 21.3872 16.3461C21.3872 10.074 26.4847 4.98938 32.7727 4.98938C39.0607 4.98938 44.1582 10.074 44.1582 16.3461C44.1582 22.6183 39.0607 27.7029 32.7727 27.7029Z" fill="#00FFE0"/>
<path fill-rule="evenodd" clip-rule="evenodd" d="M689.768 23.7113C683.48 23.7113 678.382 18.6267 678.382 12.3546C678.382 6.08239 683.48 0.997803 689.768 0.997803C689.842 0.997803 689.917 0.998519 689.991 0.999945L689.991 23.7092C689.917 23.7106 689.842 23.7113 689.768 23.7113Z" fill="#00FFE0"/>
<path d="M612.377 66.5184C618.665 66.5184 623.762 61.4338 623.762 55.1617C623.762 48.8895 618.665 43.8049 612.377 43.8049C606.089 43.8049 600.991 48.8895 600.991 55.1617C600.991 61.4338 606.089 66.5184 612.377 66.5184Z" fill="#00FFE0"/>
<path d="M629.938 44.616C636.226 44.616 641.324 39.5314 641.324 33.2592C641.324 26.9871 636.226 21.9025 629.938 21.9025C623.65 21.9025 618.553 26.9871 618.553 33.2592C618.553 39.5314 623.65 44.616 629.938 44.616Z" fill="#00FFE0"/>
<path d="M657.703 27.7029C663.991 27.7029 669.088 22.6183 669.088 16.3461C669.088 10.074 663.991 4.98938 657.703 4.98938C651.415 4.98938 646.317 10.074 646.317 16.3461C646.317 22.6183 651.415 27.7029 657.703 27.7029Z" fill="#00FFE0"/>
<path fill-rule="evenodd" clip-rule="evenodd" d="M11.4077 12.3546C11.4077 18.5523 6.20715 23.5926 0.0222063 23.7113L0.0212297 1.00215C6.20617 1.12087 11.4077 6.15684 11.4077 12.3546Z" fill="#00FFE0"/>
<path d="M886.222 129.605C879.934 129.605 874.836 124.521 874.836 118.249C874.836 111.976 879.934 106.892 886.222 106.892C892.51 106.892 897.607 111.976 897.607 118.249C897.607 124.521 892.51 129.605 886.222 129.605Z" fill="#00FFE0"/>
<path d="M1062.49 4.24291C1056.2 4.24291 1051.1 9.32751 1051.1 15.5997C1051.1 21.8718 1056.2 26.9564 1062.49 26.9564C1068.77 26.9564 1073.87 21.8718 1073.87 15.5997C1073.87 9.32751 1068.77 4.24291 1062.49 4.24291Z" fill="#00FFE0"/>
<path d="M858.91 133.848C852.622 133.848 847.525 128.764 847.525 122.492C847.525 116.219 852.622 111.135 858.91 111.135C865.198 111.135 870.296 116.219 870.296 122.492C870.296 128.764 865.198 133.848 858.91 133.848Z" fill="#00FFE0"/>
<path d="M1035.17 -5.72205e-06C1028.89 -5.72205e-06 1023.79 5.08459 1023.79 11.3567C1023.79 17.6289 1028.89 22.7135 1035.17 22.7135C1041.46 22.7135 1046.56 17.6289 1046.56 11.3567C1046.56 5.08459 1041.46 -5.72205e-06 1035.17 -5.72205e-06Z" fill="#00FFE0"/>
<path d="M831.593 129.605C825.305 129.605 820.208 124.521 820.208 118.249C820.208 111.976 825.305 106.892 831.593 106.892C837.882 106.892 842.979 111.976 842.979 118.249C842.979 124.521 837.882 129.605 831.593 129.605Z" fill="#00FFE0"/>
<path d="M1007.86 4.24303C1001.57 4.24303 996.472 9.32763 996.472 15.5998C996.472 21.872 1001.57 26.9565 1007.86 26.9565C1014.15 26.9565 1019.24 21.872 1019.24 15.5998C1019.24 9.32763 1014.15 4.24303 1007.86 4.24303Z" fill="#00FFE0"/>
<path d="M806.211 110.323C799.923 110.323 794.825 105.238 794.825 98.9661C794.825 92.694 799.923 87.6094 806.211 87.6094C812.499 87.6094 817.596 92.694 817.596 98.9661C817.596 105.238 812.499 110.323 806.211 110.323Z" fill="#00FFE0"/>
<path d="M982.474 23.525C976.186 23.525 971.089 28.6096 971.089 34.8818C971.089 41.1539 976.186 46.2385 982.474 46.2385C988.762 46.2385 993.86 41.1539 993.86 34.8818C993.86 28.6096 988.762 23.525 982.474 23.525Z" fill="#00FFE0"/>
<path d="M911.604 110.323C905.316 110.323 900.219 105.238 900.219 98.9661C900.219 92.694 905.316 87.6094 911.604 87.6094C917.892 87.6094 922.99 92.694 922.99 98.9661C922.99 105.238 917.892 110.323 911.604 110.323Z" fill="#00FFE0"/>
<path d="M1087.87 23.525C1081.58 23.525 1076.48 28.6096 1076.48 34.8818C1076.48 41.1539 1081.58 46.2385 1087.87 46.2385C1094.16 46.2385 1099.25 41.1539 1099.25 34.8818C1099.25 28.6096 1094.16 23.525 1087.87 23.525Z" fill="#00FFE0"/>
<path d="M933.56 88.4204C927.272 88.4204 922.175 83.3358 922.175 77.0637C922.175 70.7915 927.272 65.7069 933.56 65.7069C939.848 65.7069 944.946 70.7915 944.946 77.0637C944.946 83.3358 939.848 88.4204 933.56 88.4204Z" fill="#00FFE0"/>
<path d="M1109.82 45.4275C1103.53 45.4275 1098.44 50.5121 1098.44 56.7842C1098.44 63.0564 1103.53 68.141 1109.82 68.141C1116.11 68.141 1121.21 63.0564 1121.21 56.7842C1121.21 50.5121 1116.11 45.4275 1109.82 45.4275Z" fill="#00FFE0"/>
<path d="M787.157 90.4161C780.869 90.4161 775.772 85.3316 775.772 79.0594C775.772 72.7872 780.869 67.7026 787.157 67.7026C793.446 67.7026 798.543 72.7872 798.543 79.0594C798.543 85.3316 793.446 90.4161 787.157 90.4161Z" fill="#00FFE0"/>
<path d="M960.519 45.4275C954.231 45.4275 949.133 50.5121 949.133 56.7842C949.133 63.0564 954.231 68.141 960.519 68.141C966.807 68.141 971.904 63.0564 971.904 56.7842C971.904 50.5121 966.807 45.4275 960.519 45.4275Z" fill="#00FFE0"/>
<path d="M1234.68 129.758C1228.39 129.758 1223.29 124.673 1223.29 118.401C1223.29 112.129 1228.39 107.044 1234.68 107.044C1240.97 107.044 1246.06 112.129 1246.06 118.401C1246.06 124.673 1240.97 129.758 1234.68 129.758Z" fill="#00FFE0"/>
<path d="M1207.37 134C1201.08 134 1195.98 128.915 1195.98 122.643C1195.98 116.371 1201.08 111.286 1207.37 111.286C1213.66 111.286 1218.75 116.371 1218.75 122.643C1218.75 128.915 1213.66 134 1207.37 134Z" fill="#00FFE0"/>
<path d="M1180.05 129.758C1173.76 129.758 1168.67 124.673 1168.67 118.401C1168.67 112.129 1173.76 107.044 1180.05 107.044C1186.34 107.044 1191.44 112.129 1191.44 118.401C1191.44 124.673 1186.34 129.758 1180.05 129.758Z" fill="#00FFE0"/>
<path d="M1154.67 110.475C1148.38 110.475 1143.28 105.391 1143.28 99.1187C1143.28 92.8466 1148.38 87.762 1154.67 87.762C1160.96 87.762 1166.05 92.8466 1166.05 99.1187C1166.05 105.391 1160.96 110.475 1154.67 110.475Z" fill="#00FFE0"/>
<path d="M1260.06 110.475C1253.77 110.475 1248.68 105.391 1248.68 99.1187C1248.68 92.8466 1253.77 87.762 1260.06 87.762C1266.35 87.762 1271.45 92.8466 1271.45 99.1187C1271.45 105.391 1266.35 110.475 1260.06 110.475Z" fill="#00FFE0"/>
<path d="M1280.08 88.573C1273.79 88.573 1268.7 83.4884 1268.7 77.2163C1268.7 70.9441 1273.79 65.8595 1280.08 65.8595C1286.37 65.8595 1291.47 70.9441 1291.47 77.2163C1291.47 83.4884 1286.37 88.573 1280.08 88.573Z" fill="#00FFE0"/>
<path d="M1132.71 88.5729C1126.43 88.5729 1121.33 83.4883 1121.33 77.2161C1121.33 70.944 1126.43 65.8594 1132.71 65.8594C1139 65.8594 1144.1 70.944 1144.1 77.2161C1144.1 83.4883 1139 88.5729 1132.71 88.5729Z" fill="#00FFE0"/>
<path d="M690 128C769.046 128 800.031 3.99146 861.511 3.99146C922.991 3.99146 953.732 128.836 1032.78 128.836C1111.82 128.836 1142.56 3.9915 1204.04 3.9915C1265.52 3.9915 1300.95 128 1380 128" stroke="#FF00E5" stroke-width="2"/>
<path d="M767.132 66.5184C760.844 66.5184 755.746 61.4338 755.746 55.1617C755.746 48.8895 760.844 43.8049 767.132 43.8049C773.42 43.8049 778.517 48.8895 778.517 55.1617C778.517 61.4338 773.42 66.5184 767.132 66.5184Z" fill="#00FFE0"/>
<path d="M749.57 44.616C743.282 44.616 738.185 39.5314 738.185 33.2592C738.185 26.9871 743.282 21.9025 749.57 21.9025C755.858 21.9025 760.956 26.9871 760.956 33.2592C760.956 39.5314 755.858 44.616 749.57 44.616Z" fill="#00FFE0"/>
<path d="M722.773 27.7029C716.485 27.7029 711.387 22.6183 711.387 16.3461C711.387 10.074 716.485 4.98938 722.773 4.98938C729.061 4.98938 734.158 10.074 734.158 16.3461C734.158 22.6183 729.061 27.7029 722.773 27.7029Z" fill="#00FFE0"/>
<path fill-rule="evenodd" clip-rule="evenodd" d="M1379.77 23.7113C1373.48 23.7113 1368.38 18.6267 1368.38 12.3546C1368.38 6.08239 1373.48 0.997803 1379.77 0.997803C1379.84 0.997803 1379.92 0.998519 1379.99 0.999945L1379.99 23.7092C1379.92 23.7106 1379.84 23.7113 1379.77 23.7113Z" fill="#00FFE0"/>
<path d="M1302.38 66.5184C1308.66 66.5184 1313.76 61.4338 1313.76 55.1617C1313.76 48.8895 1308.66 43.8049 1302.38 43.8049C1296.09 43.8049 1290.99 48.8895 1290.99 55.1617C1290.99 61.4338 1296.09 66.5184 1302.38 66.5184Z" fill="#00FFE0"/>
<path d="M1319.94 44.616C1326.23 44.616 1331.32 39.5314 1331.32 33.2592C1331.32 26.9871 1326.23 21.9025 1319.94 21.9025C1313.65 21.9025 1308.55 26.9871 1308.55 33.2592C1308.55 39.5314 1313.65 44.616 1319.94 44.616Z" fill="#00FFE0"/>
<path d="M1347.7 27.7029C1353.99 27.7029 1359.09 22.6183 1359.09 16.3461C1359.09 10.074 1353.99 4.98938 1347.7 4.98938C1341.41 4.98938 1336.32 10.074 1336.32 16.3461C1336.32 22.6183 1341.41 27.7029 1347.7 27.7029Z" fill="#00FFE0"/>
<path fill-rule="evenodd" clip-rule="evenodd" d="M701.408 12.3546C701.408 18.5523 696.207 23.5926 690.022 23.7113L690.021 1.00215C696.206 1.12087 701.408 6.15684 701.408 12.3546Z" fill="#00FFE0"/>
</svg>
