<svg width="194" height="180" viewBox="0 0 194 180" fill="none" xmlns="http://www.w3.org/2000/svg">
<path d="M57 1C75.2423 15.8326 95.5639 46.6528 96.8115 59H96.9325C98.1801 46.6528 118.502 15.8326 136.744 1" stroke="#00FFE0" stroke-linecap="round"/>
<path d="M96.5482 178.967L96.8771 179.246L97.2011 178.962C98.0274 178.237 98.9529 176.834 99.8679 175.09C100.792 173.328 101.736 171.159 102.582 168.846C104.27 164.234 105.599 158.982 105.599 155.202V67.626C105.599 62.8933 101.762 59.0566 97.0295 59.0566C92.2968 59.0566 88.4602 62.8933 88.4602 67.626V155.202C88.4602 158.886 89.6265 164.088 91.1964 168.703C91.9833 171.016 92.8771 173.199 93.788 174.986C94.6901 176.756 95.6369 178.196 96.5482 178.967Z" stroke="#00FFE0"/>
<path d="M106.588 127.732C107.254 129.582 108.365 131.231 109.673 132.715C110.394 133.532 110.964 134.423 111.723 135.195C112.263 135.744 112.963 135.988 113.601 136.372C114.359 136.827 114.11 137.427 113.652 137.94C113.447 138.169 113.067 138.198 112.831 138.378C112.711 138.47 112.538 138.499 112.406 138.591C112.203 138.731 111.751 139.131 111.474 139.078C110.65 138.922 110.268 138.478 109.822 137.782C109.179 136.778 108.416 135.844 107.795 134.814C106.885 133.306 106.377 131.573 105.596 130M117.247 146.21C117.399 145.655 116.914 144.076 116.166 144.552C115.948 144.691 115.491 145.063 115.23 145.046C114.839 145.02 114.406 145.35 114.054 145.259C113.693 145.166 113.565 145.769 113.642 146.024C113.715 146.263 113.627 146.599 113.755 146.808C114.058 147.302 114.364 147.789 114.689 148.276C115.029 148.785 115.199 149.268 115.41 149.838C115.628 150.431 115.944 150.996 116.127 151.598C116.47 152.731 116.877 153.897 117.38 154.976C118 156.305 118.528 157.601 119.034 158.973C119.401 159.967 119.704 160.985 120.072 161.982C120.548 163.275 121.321 164.445 121.993 165.639C122.33 166.236 122.486 166.913 122.812 167.522C123.176 168.203 123.456 168.92 123.724 169.647C123.791 169.828 123.841 170.045 123.937 170.214C123.968 170.268 123.891 169.706 123.873 169.616C123.735 168.932 123.651 168.267 123.571 167.579C123.434 166.412 122.927 165.298 122.672 164.154C122.119 161.668 121.001 159.334 120.434 156.853C120.313 156.324 120.18 155.772 119.911 155.294C119.536 154.629 119.494 153.794 119.154 153.1C118.883 152.548 118.63 151.917 118.418 151.343C118.245 150.874 117.963 150.393 117.922 149.89C117.862 149.146 117.87 148.21 117.527 147.546C117.428 147.354 117.079 146.258 117.334 146.25M122.031 155.74C122.177 155.715 121.285 153.698 121.22 153.543C120.717 152.342 120.403 150.839 120.102 149.497C119.849 148.37 119.641 147.212 119.405 146.074C119.27 145.423 119.135 144.78 118.974 144.144C118.895 143.829 118.884 143.485 118.812 143.168C118.742 142.859 118.59 142.613 118.511 142.31C118.381 141.805 118.276 141.207 117.976 140.852C117.796 140.638 117.695 140.101 118.047 140.008C118.212 139.964 118.356 139.87 118.514 139.814C118.665 139.759 118.722 139.512 118.849 139.396C119.164 139.258 119.109 139.275 119.413 138.964C119.586 138.787 119.7 138.612 119.785 138.391C119.831 138.268 119.881 137.876 120.024 137.821C120.118 137.785 122.084 139.798 122.249 139.991C122.59 140.387 122.832 140.836 123.107 141.252C123.345 141.612 123.71 141.934 123.925 142.302C124.345 143.022 125.073 143.676 125.574 144.383C126.207 145.276 127.219 146.024 127.859 146.919C128.576 147.921 129.466 148.884 130.26 149.853C130.608 150.279 130.197 150.171 129.809 150.274C129.643 150.318 129.404 150.231 129.276 150.328C129.143 150.43 128.986 150.5 128.86 150.615C128.591 150.86 128.194 150.484 128.113 150.216C127.977 149.772 127.532 149.358 127.179 148.975C126.967 148.744 126.843 148.483 126.622 148.256C126.394 148.023 126.112 147.828 125.891 147.59C125.444 147.109 124.977 146.648 124.503 146.18C123.676 145.364 122.817 144.561 122.007 143.736C121.044 142.755 120.897 142.661 120.162 141.587C120.566 142.61 121.089 145.134 121.495 146.151C121.817 146.955 121.971 147.923 122.347 148.666C122.54 149.047 122.612 149.527 122.785 149.923C122.984 150.38 123.23 150.827 123.378 151.328C123.45 151.572 124.073 154.316 123.992 154.375C123.867 154.465 123.512 154.294 123.383 154.266C123.152 154.217 122.943 154.218 122.7 154.267C122.274 154.354 122.105 154.733 121.996 155.243M129.026 154.15C129.055 154.149 129.084 154.148 129.115 154.146M129.115 154.146C129.996 154.081 131.271 153.223 131.669 152.551C131.824 152.29 135.488 156.08 135.907 156.568C136.192 156.899 136.523 157.184 136.871 157.45C137.087 157.615 138.685 158.701 138.361 158.911C137.877 159.226 137.049 159.122 136.718 159.642C136.33 160.251 136.319 159.963 135.818 159.412C135.081 158.601 134.2 157.976 133.303 157.348C132.304 156.649 131.374 155.719 130.31 155.122C129.841 154.859 129.469 154.526 129.115 154.146ZM129.115 154.146C129.086 154.115 129.058 154.085 129.03 154.054M122.834 157.546C122.861 157.545 122.888 157.543 122.916 157.54M122.916 157.54C123.723 157.453 124.9 156.432 125.273 155.64C125.418 155.332 128.725 159.728 129.103 160.294C129.36 160.679 129.659 161.009 129.974 161.316C130.17 161.508 131.619 162.76 131.32 163.011C130.873 163.385 130.117 163.273 129.807 163.887C129.444 164.606 129.437 164.268 128.986 163.629C128.322 162.687 127.523 161.965 126.709 161.241C125.804 160.434 124.964 159.356 123.998 158.669C123.572 158.366 123.235 157.981 122.916 157.54ZM122.916 157.54C122.89 157.505 122.865 157.469 122.839 157.433M136.06 170.296C136.078 170.275 136.095 170.254 136.111 170.232M136.111 170.232C136.594 169.578 136.639 168.021 136.307 167.21C136.178 166.895 141.653 167.434 142.325 167.539C142.783 167.61 143.228 167.612 143.668 167.588C143.941 167.573 145.844 167.354 145.826 167.743C145.799 168.325 145.205 168.807 145.448 169.451C145.731 170.204 145.478 169.981 144.702 169.88C143.559 169.733 142.487 169.833 141.403 169.941C140.197 170.063 138.835 169.952 137.675 170.199C137.164 170.307 136.653 170.295 136.111 170.232ZM136.111 170.232C136.068 170.227 136.025 170.221 135.981 170.216M164.117 136.985C164.138 137.002 164.159 137.019 164.181 137.036M164.181 137.036C164.835 137.518 166.392 137.563 167.203 137.232C167.518 137.103 166.979 142.577 166.874 143.25C166.803 143.707 166.801 144.153 166.825 144.592C166.84 144.865 167.059 146.768 166.67 146.75C166.088 146.724 165.606 146.13 164.963 146.372C164.209 146.656 164.433 146.403 164.533 145.627C164.68 144.484 164.58 143.412 164.472 142.328C164.35 141.121 164.461 139.76 164.214 138.6C164.106 138.089 164.118 137.577 164.181 137.036ZM164.181 137.036C164.186 136.993 164.192 136.949 164.197 136.906M153.053 170.148C153.095 170.12 153.137 170.092 153.177 170.064M153.177 170.064C154.11 169.407 154.532 168.434 155.367 167.669C156.205 166.9 156.872 167.278 157.984 167.461C159.449 167.701 160.913 168.283 162.384 168.497C163.888 168.715 165.516 169.014 166.972 169.574C167.565 169.802 168.307 170.139 167.296 170.198C166.348 170.253 165.393 170.047 164.444 170.146C163.71 170.222 162.947 169.999 162.213 170.03C161.322 170.066 160.404 170.008 159.504 169.962C158.024 169.887 154.57 169.922 153.177 170.064ZM153.177 170.064C152.514 170.131 152.318 170.223 153.023 170.339M138.336 161.714C138.381 161.691 138.425 161.668 138.468 161.644M138.468 161.644C139.465 161.089 139.987 160.167 140.899 159.494C141.814 158.818 142.437 159.265 143.523 159.563C144.955 159.957 146.349 160.691 147.789 161.059C149.262 161.435 150.849 161.905 152.238 162.616C152.804 162.905 153.506 163.318 152.494 163.27C151.546 163.224 150.617 162.919 149.663 162.917C148.925 162.915 148.19 162.613 147.457 162.565C146.567 162.507 145.661 162.353 144.771 162.212C143.306 161.98 139.869 161.65 138.468 161.644ZM138.468 161.644C137.802 161.641 137.597 161.711 138.286 161.901M163.65 154.084C163.688 154.118 163.726 154.15 163.765 154.181M163.765 154.181C164.651 154.9 165.702 155.041 166.666 155.636C167.634 156.233 167.452 156.978 167.579 158.097C167.747 159.572 167.586 161.139 167.781 162.613C167.98 164.119 168.136 165.767 167.993 167.321C167.936 167.954 167.814 168.76 167.482 167.802C167.171 166.906 167.108 165.93 166.755 165.044C166.482 164.359 166.488 163.564 166.259 162.866C165.981 162.018 165.787 161.12 165.586 160.242C165.255 158.796 164.281 155.483 163.765 154.181ZM163.765 154.181C163.519 153.561 163.377 153.397 163.458 154.107M123.433 138.397C123.422 138.392 123.442 138.387 123.483 138.381M123.483 138.381C123.64 138.357 124.088 138.326 124.153 138.304C124.415 138.213 124.633 137.69 124.777 137.468C125.07 137.017 125.267 136.417 125.395 135.897C125.594 135.092 125.919 135.859 126.198 136.271C126.704 137.016 127.213 137.837 127.791 138.526C128.818 139.75 129.692 141.105 130.589 142.425C131.476 143.73 132.648 145.29 134.092 146.012C134.251 146.091 135.441 146.552 135.065 146.705C134.33 147.004 133.816 147.269 133.287 147.894C133.207 147.99 133.155 148.264 132.974 148.173C132.729 148.051 132.547 147.612 132.385 147.399C131.836 146.679 131.304 145.891 130.68 145.238C129.299 143.794 128.022 142.248 126.613 140.833C126.039 140.257 125.696 139.382 124.941 139.022C124.442 138.784 123.905 138.683 123.483 138.381ZM123.483 138.381C123.444 138.353 123.406 138.323 123.369 138.291M135.948 150.884C135.594 150.877 135.504 149.143 135.555 148.998C135.721 148.522 136.069 148.158 136.278 147.73C136.588 147.095 139.347 149.551 139.787 149.897C140.967 150.825 142.417 151.322 143.594 152.227C144.074 152.596 144.84 152.855 145.423 152.934C146.041 153.017 146.657 153.229 147.265 153.299C147.718 153.351 147.223 154.244 147.087 154.444C146.715 154.99 146.487 155.422 146.232 156.001C145.998 156.532 145.18 155.628 144.956 155.447C144.452 155.039 143.95 154.652 143.421 154.287C141.928 153.257 140.331 152.453 138.792 151.512C137.904 150.97 136.89 150.81 135.917 150.595M142.546 147.952C142.192 147.945 142.102 146.21 142.153 146.065C142.319 145.59 142.667 145.226 142.876 144.798C143.186 144.163 145.945 146.619 146.385 146.965C147.565 147.893 149.015 148.39 150.192 149.295C150.672 149.663 151.438 149.923 152.021 150.002C152.639 150.085 153.255 150.297 153.863 150.366C154.316 150.418 153.821 151.312 153.685 151.512C153.313 152.058 153.085 152.49 152.83 153.069C152.596 153.6 151.778 152.696 151.554 152.515C151.05 152.107 150.548 151.72 150.019 151.355C148.526 150.325 146.929 149.52 145.39 148.58C144.502 148.038 143.488 147.878 142.515 147.663M125.797 133.371C125.843 133.618 126.517 133.767 126.758 133.782C127.129 133.804 127.448 133.37 127.601 133.096C127.941 132.489 128.958 131.079 128.646 130.334C128.492 129.967 128.856 130.425 128.925 130.534C129.27 131.077 129.675 131.582 130.02 132.125C130.605 133.045 131.299 133.688 132.129 134.389C133.704 135.719 135.359 136.886 136.718 138.433C137.848 139.718 138.772 141.284 140.032 142.439C140.209 142.602 141.049 143.048 140.947 143.236C140.631 143.818 139.961 144.196 139.777 144.843C139.742 144.965 139.679 145.479 139.515 145.479C139.097 145.479 138.579 144.456 138.403 144.171C137.392 142.54 135.283 141.243 133.893 139.99C132.639 138.86 131.468 137.342 130.09 136.355C129.499 135.933 129.007 135.439 128.285 135.233L126.69 134.777C126.381 134.689 125.855 134.107 125.873 134.112M145.748 131.46C145.608 131.252 144.931 131.384 144.703 131.467C144.354 131.595 144.235 132.121 144.204 132.433C144.136 133.125 143.767 134.824 144.35 135.382C144.637 135.657 144.121 135.382 144.015 135.31C143.481 134.95 142.908 134.649 142.375 134.289C141.471 133.679 140.578 133.367 139.537 133.056C137.561 132.466 135.578 132.056 133.714 131.182C132.165 130.455 130.693 129.388 129.076 128.832C128.849 128.754 127.901 128.681 127.92 128.467C127.976 127.808 128.439 127.193 128.35 126.527C128.334 126.401 128.186 125.904 128.336 125.839C128.719 125.672 129.603 126.404 129.878 126.594C131.456 127.686 133.908 128.032 135.683 128.625C137.284 129.161 138.963 130.085 140.621 130.439C141.331 130.59 141.98 130.846 142.724 130.747L144.369 130.528C144.687 130.485 145.402 130.808 145.383 130.811M137.961 127.564C138.103 127.733 138.684 127.558 138.876 127.465C139.171 127.322 139.229 126.851 139.228 126.574C139.226 125.962 139.399 124.44 138.839 124.003C138.562 123.788 139.039 123.983 139.139 124.036C139.638 124.305 140.167 124.518 140.666 124.786C141.512 125.24 142.323 125.434 143.262 125.614C145.045 125.956 146.819 126.139 148.53 126.74C149.952 127.239 151.337 128.043 152.802 128.387C153.009 128.435 153.846 128.415 153.849 128.604C153.857 129.187 153.506 129.766 153.643 130.343C153.669 130.451 153.842 130.873 153.717 130.944C153.396 131.124 152.557 130.562 152.298 130.419C150.819 129.603 148.64 129.517 147.032 129.154C145.582 128.828 144.028 128.167 142.544 128.004C141.909 127.934 141.317 127.767 140.675 127.92L139.253 128.258C138.978 128.324 138.323 128.104 138.339 128.1M166.43 132.025C166.201 131.759 166.466 132.246 166.489 132.385C166.551 132.77 166.573 133.196 166.5 133.588C166.407 134.093 165.688 134.336 165.293 134.685C165.065 134.886 164.3 134.968 164.048 134.832C163.565 134.572 163.449 134.063 163.048 133.721C162.145 132.954 161.01 132.784 159.79 132.491C159.114 132.329 158.612 132.176 157.883 132.186C157.41 132.193 156.765 132.325 156.315 132.231C155.936 132.151 155.568 132.226 155.507 131.85C155.412 131.26 155.833 130.912 156.244 130.452C156.53 130.131 156.496 129.701 156.914 129.469C157.439 129.178 158.167 129.362 158.64 129.527C160.222 130.08 162.215 130.03 163.628 130.842C164 131.056 164.549 131.325 165.016 131.378C165.443 131.427 165.85 131.543 166.274 131.572C166.526 131.589 166.742 132.002 166.538 131.765M155.783 139.305C155.657 138.912 155.742 139.578 155.715 139.751C155.643 140.227 155.518 140.739 155.316 141.178C155.055 141.744 154.291 141.784 153.799 142.061C153.515 142.221 152.763 142.055 152.571 141.808C152.202 141.334 152.267 140.692 152.003 140.15C151.411 138.932 150.395 138.341 149.34 137.575C148.756 137.152 148.333 136.799 147.64 136.56C147.19 136.405 146.535 136.34 146.141 136.074C145.81 135.85 145.436 135.812 145.507 135.346C145.618 134.616 146.135 134.348 146.681 133.945C147.061 133.664 147.176 133.143 147.651 133.012C148.246 132.848 148.873 133.316 149.264 133.674C150.573 134.871 152.475 135.496 153.535 136.942C153.815 137.324 154.242 137.83 154.666 138.054C155.053 138.258 155.398 138.535 155.79 138.715C156.023 138.822 156.086 139.385 155.974 139.034M127.33 121.005C127.775 121.18 127.696 122.216 127.646 122.578C127.615 122.796 127.248 123.54 127.37 123.728C127.619 124.113 128.662 123.56 129.016 123.522C129.401 123.481 129.85 123.678 130.22 123.778C130.836 123.944 131.481 123.869 132.114 124.04C132.769 124.217 133.443 124.362 134.087 124.573C134.535 124.72 134.995 125.122 135.442 125.32C135.864 125.506 136.234 125.651 136.689 125.774C137.328 125.947 136.487 124.185 136.499 123.917C136.535 123.122 135.134 123.287 134.709 122.936C134.171 122.491 133.266 122.666 132.682 122.298C132.261 122.033 131.754 121.951 131.274 121.821C130.072 121.496 128.863 121.419 127.678 121.099M108.197 127.609C109.538 129.489 111.303 131.105 112.747 132.938C113.555 133.963 114.299 135.119 114.992 136.201C115.454 136.921 116.789 138.367 117.795 137.76C118.147 137.548 118.512 136.945 118.609 136.553C118.763 135.933 118.499 135.52 118.262 134.988C118.024 134.451 117.664 133.895 117.127 133.573C116.548 133.224 115.95 132.719 115.34 132.446C113.738 131.725 112.61 129.884 111.507 128.582C110.999 127.982 110.231 127.449 109.831 126.786C109.388 126.053 108.875 125.362 108.503 124.578C108.15 123.834 107.865 123.087 107.819 122.272C107.812 122.15 107.692 121.489 107.957 121.648C108.413 121.923 108.649 122.729 108.92 123.18C110.143 125.207 111.735 126.961 113.799 128.091C114.614 128.538 115.147 129.271 115.818 129.895C116.547 130.574 117.074 131.422 117.748 132.148C118.514 132.973 119.528 133.554 120.118 134.532C120.601 135.333 120.952 136.393 121.962 136.643C122.695 136.824 123.353 135.805 123.683 135.271C123.876 134.958 124.003 134.687 124.091 134.331C124.187 133.944 123.787 133.589 123.622 133.256C123.446 132.901 123.22 132.547 122.95 132.252C122.687 131.963 122.21 131.694 122.013 131.368C121.511 130.536 121.209 129.876 120.249 129.506C119.831 129.346 119.475 129.099 119.116 128.837C118.69 128.526 118.168 128.316 117.782 127.959C117.033 127.267 116.026 126.78 115.339 126.029C114.56 125.176 113.771 124.343 113.007 123.473C112.675 123.095 112.353 122.716 112.045 122.326C112.626 122.453 113.22 122.547 113.752 122.679C114.34 122.824 114.92 123.29 115.38 123.673C115.951 124.15 116.613 124.512 117.101 125.091C117.523 125.593 117.98 126.059 118.445 126.525C119.183 127.264 120.129 127.757 120.875 128.485C121.49 129.085 122.243 129.645 123.032 130C123.566 130.24 124.17 130.583 124.732 130.722C125.358 130.877 125.993 130.867 126.608 130.693C126.86 130.621 126.935 130.102 126.939 129.887C126.949 129.342 126.698 129.222 126.393 128.815C125.928 128.194 125.761 127.376 125.236 126.803C124.673 126.186 123.925 125.868 123.218 125.459C122.572 125.086 121.907 124.678 121.139 124.627C120.611 124.592 119.873 124.646 119.378 124.46C118.867 124.268 118.382 124.032 117.896 123.781C117.289 123.467 116.786 122.955 116.238 122.554C115.574 122.069 114.104 121.17 113.394 120.755M113.394 120.755C112.917 120.729 110.205 119.721 110.969 120.988C111.237 121.433 111.477 121.821 111.822 122.213M113.394 120.755C113.736 120.773 114.083 120.706 114.423 120.692C115.035 120.667 115.748 120.965 116.331 121.109C117.063 121.29 117.806 121.397 118.543 121.558C119.629 121.795 120.788 121.102 121.629 121.939C121.962 122.27 122.168 122.518 122.317 122.969C122.43 123.311 122.624 123.432 122.76 123.791C122.852 124.031 123.235 124.476 123.545 124.407C123.904 124.326 124.462 124.297 124.534 124.003C124.625 123.637 124.746 123.085 125.081 122.844C125.296 122.43 125.558 120.95 125.18 120.559C124.505 119.86 123.504 119.974 122.622 119.8C121.743 119.626 121.276 119.313 120.405 119.098C119.266 118.816 118.839 118.267 117.702 117.986C116.421 117.669 117.128 117.305 115.839 116.986C114.853 116.742 114.735 116.692 113.89 116.152C113.003 115.586 112.527 115.915 111.96 115.657C110.918 115.183 110.048 115.419 109.388 114.996C108.059 114.146 106.619 114.415 106.437 113.895M105.641 96.811C106.528 94.4934 108.117 90.1046 109.701 87.5353C110.631 86.5221 111.657 84.0915 112.634 83.1366C113.329 82.4566 114.053 81.285 114.868 80.8173C115.836 80.262 115.537 79.4981 114.971 78.8392C114.719 78.5458 114.24 78.4996 113.947 78.2658C113.797 78.1467 113.58 78.1056 113.415 77.9868C113.164 77.8051 112.602 77.2893 112.252 77.3483C111.208 77.5245 110.716 78.0753 110.135 78.9425C109.298 80.1935 109.411 81.8532 108.602 83.1366C107.751 85.341 106.727 88.3361 105.711 90.91M117.569 65.8077C117.844 66.48 117.476 68.5324 116.468 68.0495C116.173 67.9087 115.543 67.5127 115.219 67.5736C114.733 67.6651 114.141 67.3181 113.713 67.4854C113.276 67.6568 113.023 66.9207 113.081 66.5895C113.136 66.2796 112.975 65.8709 113.103 65.5898C113.408 64.9249 113.717 64.2691 114.05 63.6091C114.399 62.919 114.538 62.2884 114.715 61.542C114.899 60.7656 115.209 60.0099 115.346 59.2278C115.604 57.7564 115.936 56.2344 116.402 54.8047C116.977 53.046 117.441 51.3423 117.867 49.5463C118.174 48.2455 118.399 46.924 118.708 45.6187C119.109 43.9263 119.898 42.3422 120.56 40.7446C120.89 39.9449 120.983 39.0736 121.299 38.261C121.651 37.3525 121.893 36.4108 122.118 35.4597C122.174 35.2222 122.204 34.9429 122.298 34.7171C122.329 34.6442 122.318 35.3602 122.309 35.4757C122.241 36.3536 122.236 37.1993 122.24 38.0741C122.247 39.5567 121.781 41.0292 121.636 42.5019C121.322 45.7001 120.276 48.7947 119.942 51.9888C119.871 52.6701 119.789 53.382 119.524 54.0217C119.156 54.9122 119.23 55.9646 118.91 56.886C118.655 57.6192 118.433 58.4474 118.255 59.1993C118.11 59.8127 117.829 60.4588 117.855 61.0949C117.893 62.036 118.046 63.2079 117.717 64.0915C117.621 64.3473 117.351 65.773 117.672 65.7443M143.997 56.6018C144.03 56.6011 144.064 56.6014 144.098 56.6028M144.098 56.6028C145.096 56.6441 146.568 57.5736 147.043 58.3243C147.228 58.6155 151.222 54.1671 151.677 53.5969C151.987 53.209 152.35 52.8729 152.733 52.5571C152.97 52.3607 154.734 51.0662 154.36 50.8388C153.802 50.4988 152.87 50.6474 152.477 50.0676C152.015 49.3885 152.013 49.7167 151.469 50.3619C150.668 51.3124 149.696 52.0569 148.706 52.8043C147.605 53.6362 146.59 54.7286 145.411 55.4478C144.892 55.7646 144.484 56.1568 144.098 56.6028ZM144.098 56.6028C144.067 56.6384 144.036 56.6743 144.006 56.7105M133.151 47.447C133.183 47.4548 133.215 47.4638 133.247 47.4739M133.247 47.4739C134.197 47.7699 135.375 49.053 135.639 49.9063C135.741 50.2373 140.732 46.9275 141.317 46.4886C141.714 46.19 142.151 45.9557 142.6 45.7461C142.88 45.6158 144.91 44.8067 144.609 44.4894C144.16 44.015 143.225 43.9208 142.995 43.255C142.726 42.4751 142.64 42.7944 141.95 43.2835C140.933 44.0041 139.806 44.4802 138.662 44.9547C137.387 45.4828 136.129 46.2869 134.809 46.6853C134.227 46.8608 133.734 47.1383 133.247 47.4739ZM133.247 47.4739C133.209 47.5006 133.17 47.5277 133.131 47.5552M124.807 59.807C124.834 59.7993 124.861 59.7926 124.889 59.7867M124.889 59.7867C125.707 59.6164 127.178 60.2363 127.79 60.8882C128.027 61.1412 129.897 55.8326 130.09 55.1642C130.222 54.7095 130.413 54.2954 130.625 53.8975C130.758 53.6502 131.787 51.9778 131.416 51.829C130.862 51.6065 130.155 51.9531 129.661 51.4552C129.082 50.872 129.181 51.2016 128.938 51.9641C128.581 53.0874 128.023 54.0401 127.452 54.9996C126.816 56.0675 126.33 57.3784 125.597 58.3498C125.275 58.7777 125.065 59.2575 124.889 59.7867ZM124.889 59.7867C124.875 59.8289 124.861 59.8714 124.848 59.9142M153.191 35.252C153.214 35.2767 153.237 35.3029 153.258 35.3304M153.258 35.3304C153.894 36.1344 154.015 38.0975 153.63 39.1341C153.481 39.5364 160.364 38.6297 161.208 38.4697C161.782 38.3609 162.344 38.3397 162.899 38.3514C163.245 38.3587 165.654 38.5568 165.615 38.0664C165.557 37.3331 164.788 36.7498 165.067 35.9286C165.394 34.9668 165.084 35.2587 164.11 35.4173C162.674 35.651 161.317 35.5695 159.945 35.4771C158.419 35.3742 156.706 35.5708 155.232 35.3073C154.583 35.1913 153.939 35.2285 153.258 35.3304ZM153.258 35.3304C153.204 35.3385 153.15 35.3471 153.095 35.356M145.655 71.7565C145.68 71.7782 145.706 71.8013 145.731 71.8259M145.731 71.8259C146.462 72.5443 146.827 74.4769 146.575 75.5534C146.477 75.9711 153.193 74.2123 154.01 73.9482C154.566 73.7685 155.121 73.6774 155.674 73.6197C156.017 73.5838 158.432 73.4795 158.333 72.9977C158.184 72.2774 157.348 71.7947 157.522 70.9451C157.726 69.95 157.455 70.2784 156.508 70.5574C155.113 70.9685 153.756 71.057 152.384 71.1366C150.856 71.2251 149.181 71.6341 147.686 71.5566C147.028 71.5225 146.393 71.6398 145.731 71.8259ZM145.731 71.8259C145.678 71.8408 145.625 71.856 145.572 71.8717M131.975 35.1962C131.998 35.2209 132.021 35.2471 132.042 35.2746M132.042 35.2746C132.678 36.0786 132.799 38.0416 132.415 39.0783C132.265 39.4805 139.148 38.5739 139.992 38.4139C140.566 38.3051 141.128 38.2839 141.683 38.2956C142.029 38.3029 144.438 38.501 144.399 38.0105C144.341 37.2773 143.572 36.6939 143.851 35.8727C144.178 34.9109 143.868 35.2029 142.894 35.3615C141.458 35.5952 140.101 35.5136 138.729 35.4212C137.203 35.3184 135.49 35.515 134.016 35.2515C133.367 35.1354 132.723 35.1726 132.042 35.2746ZM132.042 35.2746C131.988 35.2827 131.934 35.2912 131.879 35.3001M134.445 65.8147C134.478 65.813 134.511 65.8125 134.546 65.8129M134.546 65.8129C135.545 65.8258 137.046 66.7193 137.543 67.4612C137.737 67.7491 141.6 63.1574 142.038 62.5704C142.337 62.1711 142.69 61.8224 143.063 61.4936C143.295 61.2892 145.021 59.9357 144.64 59.7176C144.072 59.3914 143.144 59.5675 142.733 58.9952C142.251 58.3249 142.259 58.6553 141.734 59.3203C140.961 60.3 140.01 61.0771 139.043 61.8577C137.966 62.7265 136.983 63.8551 135.825 64.6128C135.315 64.9465 134.919 65.3529 134.546 65.8129ZM134.546 65.8129C134.516 65.8496 134.486 65.8865 134.457 65.9239M141.578 66.9525C141.61 66.9603 141.642 66.9693 141.675 66.9794M141.675 66.9794C142.629 67.2757 143.814 68.5587 144.081 69.4115C144.184 69.7424 149.193 66.4374 149.78 65.9991C150.179 65.701 150.617 65.4671 151.069 65.2579C151.349 65.1278 153.388 64.3203 153.085 64.003C152.633 63.5287 151.693 63.4341 151.462 62.7686C151.19 61.9891 151.104 62.3081 150.411 62.7965C149.391 63.516 148.26 63.9912 147.11 64.4648C145.831 64.9919 144.568 65.7948 143.242 66.1922C142.658 66.3672 142.163 66.6443 141.675 66.9794ZM141.675 66.9794C141.636 67.0061 141.597 67.0332 141.558 67.0606M187.764 75.3717C187.789 75.3487 187.815 75.3264 187.842 75.3046M187.842 75.3046C188.646 74.6689 190.609 74.5479 191.646 74.9325C192.048 75.0817 191.142 68.1987 190.982 67.3549C190.873 66.7809 190.852 66.2193 190.863 65.6637C190.871 65.3184 191.069 62.9092 190.578 62.9478C189.845 63.0055 189.262 63.7748 188.441 63.4958C187.479 63.1689 187.771 63.479 187.929 64.4534C188.163 65.8891 188.082 67.2459 187.989 68.6176C187.886 70.1443 188.083 71.8575 187.819 73.3308C187.703 73.9798 187.74 74.6242 187.842 75.3046ZM187.842 75.3046C187.851 75.3588 187.859 75.4133 187.868 75.468M188.223 89.7999C188.248 89.7769 188.274 89.7546 188.302 89.7328M188.302 89.7328C189.106 89.0971 191.069 88.9761 192.105 89.3607C192.508 89.5099 191.601 82.6269 191.441 81.7831C191.332 81.2091 191.311 80.6474 191.323 80.0919C191.33 79.7465 191.528 77.3374 191.038 77.376C190.304 77.4337 189.721 78.203 188.9 77.9239C187.938 77.5971 188.23 77.9071 188.389 78.8816C188.622 80.3172 188.541 81.6741 188.448 83.0458C188.346 84.5725 188.542 86.2856 188.279 87.759C188.163 88.408 188.2 89.0524 188.302 89.7328ZM188.302 89.7328C188.31 89.787 188.318 89.8414 188.327 89.8961M172.442 35.1135C172.495 35.1483 172.547 35.1839 172.598 35.2202M172.598 35.2202C173.77 36.0574 174.293 37.2888 175.34 38.2627C176.391 39.2404 177.236 38.7689 178.641 38.549C180.492 38.2591 182.345 37.5378 184.203 37.2811C186.103 37.0186 188.16 36.6558 190.003 35.9622C190.754 35.6797 191.694 35.2615 190.417 35.1783C189.222 35.1003 188.014 35.3509 186.818 35.2182C185.892 35.1155 184.927 35.3893 184.002 35.3447C182.877 35.2904 181.718 35.3555 180.582 35.4053C178.713 35.4872 174.355 35.4119 172.598 35.2202ZM172.598 35.2202C171.762 35.1289 171.515 35.0114 172.406 34.8719M154.218 47.4483C154.276 47.4749 154.333 47.5025 154.388 47.5311M154.388 47.5311C155.669 48.1891 156.366 49.3313 157.543 50.1425C158.726 50.9569 159.493 50.3675 160.851 49.9457C162.64 49.3898 164.368 48.4067 166.17 47.8824C168.011 47.3464 169.994 46.6883 171.716 45.7341C172.418 45.3453 173.287 44.795 172.012 44.8983C170.818 44.9949 169.66 45.4185 168.457 45.4612C167.526 45.4943 166.611 45.9055 165.689 45.9959C164.568 46.1058 163.431 46.3386 162.315 46.5531C160.477 46.906 156.154 47.4652 154.388 47.5311ZM154.388 47.5311C153.548 47.5624 153.286 47.482 154.147 47.2145M187.372 60.8611C187.417 60.7952 187.462 60.7309 187.508 60.668M187.508 60.668C188.575 59.2179 190.044 58.536 191.259 57.2309C192.478 55.9208 192.002 54.9177 191.864 53.2281C191.682 51.0014 191.001 48.7896 190.859 46.5524C190.713 44.2653 190.464 41.7923 189.814 39.5912C189.549 38.6945 189.143 37.575 188.941 39.1216C188.751 40.57 188.941 42.0207 188.688 43.4727C188.492 44.5966 188.729 45.7526 188.6 46.8733C188.444 48.2357 188.423 49.634 188.386 51.0054C188.326 53.2627 187.876 58.5357 187.508 60.668ZM187.508 60.668C187.333 61.6828 187.177 61.9862 187.089 60.9145M124.362 61.5095C124.547 61.5349 123.505 64.1165 123.43 64.3137C122.846 65.8496 122.512 67.759 122.188 69.4638C121.916 70.8967 121.701 72.3652 121.451 73.8106C121.307 74.6377 121.164 75.4538 120.988 76.2634C120.9 76.6638 120.901 77.0973 120.823 77.5007C120.748 77.8935 120.566 78.2097 120.48 78.5958C120.337 79.2379 120.228 79.9972 119.865 80.4568C119.646 80.7338 119.542 81.4158 119.99 81.5187C120.2 81.567 120.385 81.6792 120.586 81.7442C120.779 81.8063 120.861 82.1167 121.026 82.2575C121.429 82.4185 121.359 82.3993 121.756 82.7785C121.982 82.9949 122.133 83.2102 122.248 83.4858C122.312 83.6387 122.391 84.1312 122.574 84.195C122.694 84.2364 125.09 81.6159 125.291 81.3661L127.178 81.069C127.234 81.0445 127.291 81.0228 127.349 81.0036M124.339 62.1377C124.498 62.7763 124.727 63.2476 125.267 63.3391C125.576 63.3914 125.839 63.3841 126.129 63.3121C126.29 63.2722 126.732 63.041 126.892 63.1503C126.997 63.2212 126.325 66.7082 126.245 67.0184C126.079 67.6572 125.787 68.2309 125.555 68.8151C125.353 69.3221 125.282 69.9312 125.055 70.4194C124.611 71.3724 124.457 72.5989 124.084 73.6274C123.614 74.926 123.059 78.1319 122.592 79.4396C123.475 78.0539 123.656 77.9292 124.83 76.6516C125.817 75.5777 126.868 74.5291 127.877 73.465C128.455 72.856 129.025 72.2542 129.569 71.6292C129.838 71.32 130.186 71.0618 130.463 70.7586C130.733 70.4635 130.878 70.1289 131.137 69.8293C131.566 69.331 132.111 68.7906 132.263 68.225C132.354 67.884 132.839 67.3931 133.189 67.6909C133.353 67.8306 133.553 67.9121 133.726 68.0351C133.891 68.1528 134.189 68.0329 134.4 68.0815C134.893 68.1946 135.407 68.0425 134.986 68.5933C134.025 69.8483 132.943 71.0999 132.08 72.3944C131.31 73.5498 130.064 74.5346 129.303 75.6871C129.555 75.8478 130.313 76.0224 131.327 75.4359C132.342 74.8494 135.905 71.2816 137.559 69.571C138.781 70.3041 141.005 71.697 140.125 71.4037C139.245 71.1105 133.455 76.9554 130.228 80.2011C131.273 80.0486 131.13 79.695 132.036 79.2145C134.264 78.0343 136.38 76.6468 138.583 75.4214C139.58 74.8667 140.515 74.1147 141.445 73.4518C141.72 73.2557 142.104 72.7945 142.445 72.7383C142.696 72.6969 142.656 73.0465 142.718 73.192C143.123 74.1429 143.643 74.6543 144.418 75.2887C144.814 75.6131 143.208 75.7248 142.986 75.7614C140.976 76.0924 138.98 77.5357 137.424 78.7785C135.85 80.036 134.291 81.3436 132.596 82.4361C131.643 83.0507 130.723 83.8506 129.835 84.5596C129.344 84.952 128.667 85.7564 128.727 84.7117C128.766 84.0367 128.753 83.2393 128.568 82.5866C128.477 82.2651 128.409 81.5529 128.127 81.3458C128.058 81.295 127.528 81.0902 127.349 81.0036M127.294 80.9647C127.278 80.9663 127.302 80.9809 127.349 81.0036M160.162 68.7316C159.717 68.7551 159.675 70.9469 159.745 71.1278C159.973 71.7206 160.428 72.1653 160.709 72.6962C161.127 73.4852 164.505 70.2724 165.045 69.818C166.495 68.5984 168.304 67.9112 169.752 66.7211C170.341 66.236 171.296 65.8767 172.029 65.7532C172.805 65.6223 173.573 65.33 174.337 65.2169C174.906 65.1325 174.245 64.0257 174.065 63.7799C173.573 63.1056 173.267 62.5702 172.922 61.8511C172.605 61.1908 171.61 62.3646 171.335 62.6027C170.716 63.1386 170.1 63.6468 169.447 64.13C167.607 65.4909 165.626 66.5716 163.723 67.8218C162.626 68.5427 161.354 68.7865 160.136 69.0977M155.763 59.2011C155.318 59.2246 155.276 61.4164 155.346 61.5973C155.575 62.1901 156.029 62.6348 156.31 63.1657C156.728 63.9546 160.106 60.7419 160.646 60.2875C162.097 59.0679 163.905 58.3806 165.353 57.1905C165.943 56.7055 166.898 56.3462 167.63 56.2227C168.407 56.0918 169.174 55.7995 169.938 55.6864C170.508 55.602 169.846 54.4952 169.666 54.2494C169.174 53.5751 168.869 53.0397 168.524 52.3206C168.207 51.6603 167.211 52.8341 166.936 53.0722C166.318 53.6081 165.701 54.1163 165.048 54.5995C163.209 55.9604 161.228 57.0411 159.324 58.2913C158.227 59.0122 156.955 59.256 155.737 59.5672M156.35 80.0052C155.907 79.9542 155.5 82.1084 155.539 82.2983C155.666 82.921 156.039 83.4352 156.228 84.0055C156.508 84.8531 160.375 82.2485 160.983 81.8905C162.617 80.9297 164.515 80.5537 166.14 79.6215C166.803 79.2416 167.804 79.0465 168.547 79.0469C169.335 79.0473 170.14 78.8871 170.912 78.9029C171.488 78.9146 171.02 77.713 170.884 77.4407C170.511 76.6938 170.299 76.115 170.079 75.3483C169.876 74.6445 168.699 75.6359 168.388 75.8248C167.689 76.2501 166.996 76.6484 166.272 77.0159C164.231 78.0511 162.098 78.7865 160.013 79.7019C158.811 80.2297 157.516 80.2581 156.263 80.3618M129.301 85.7688C129.513 85.5329 130.337 85.8119 130.608 85.9545C131.022 86.1731 131.083 86.8503 131.069 87.2462C131.038 88.1235 131.214 90.3104 130.391 90.91C129.985 91.2057 130.676 90.949 130.822 90.8769C131.549 90.5162 132.317 90.2361 133.045 89.8757C134.277 89.2646 135.448 89.0247 136.802 88.811C139.372 88.4058 141.921 88.2279 144.4 87.4478C146.46 86.7996 148.481 85.7128 150.597 85.2902C150.894 85.2307 152.092 85.2984 152.105 85.0286C152.145 84.1939 151.67 83.3476 151.893 82.5286C151.935 82.3747 152.203 81.7778 152.027 81.6707C151.575 81.3973 150.347 82.1636 149.971 82.3557C147.813 83.4554 144.688 83.4755 142.369 83.9187C140.276 84.3185 138.02 85.1916 135.886 85.3552C134.973 85.4253 134.118 85.6364 133.204 85.387L131.184 84.8356C130.793 84.7289 129.845 85.0126 129.868 85.019M133.468 97.1657C133.75 97.3099 134.419 96.7528 134.62 96.5225C134.928 96.1692 134.741 95.5155 134.585 95.1513C134.241 94.3439 133.617 92.2403 132.634 91.9771C132.148 91.8473 132.886 91.8379 133.048 91.8528C133.856 91.9275 134.674 91.9123 135.482 91.9869C136.852 92.1133 138.03 91.916 139.371 91.6277C141.915 91.0809 144.357 90.3294 146.95 90.165C149.106 90.0284 151.382 90.3148 153.508 89.9478C153.807 89.8961 154.901 89.4018 155.01 89.6489C155.347 90.4132 155.208 91.374 155.712 92.0576C155.806 92.1861 156.272 92.6464 156.145 92.8099C155.823 93.2275 154.401 92.9545 153.98 92.911C151.571 92.6615 148.649 93.7673 146.325 94.1888C144.229 94.5691 141.809 94.5665 139.76 95.1816C138.883 95.445 138.009 95.5558 137.247 96.1172L135.56 97.3588C135.234 97.5991 134.247 97.6757 134.266 97.6615M145.02 99.2596C145.212 99.0565 145.931 99.3203 146.166 99.4518C146.527 99.6534 146.565 100.251 146.544 100.599C146.497 101.371 146.604 103.3 145.866 103.81C145.502 104.061 146.117 103.851 146.246 103.79C146.895 103.489 147.577 103.259 148.225 102.958C149.324 102.447 150.36 102.261 151.557 102.103C153.829 101.803 156.077 101.702 158.276 101.07C160.104 100.545 161.908 99.6326 163.78 99.3071C164.043 99.2613 165.096 99.3472 165.113 99.11C165.167 98.376 164.767 97.6204 164.982 96.9043C165.022 96.7697 165.272 96.2501 165.118 96.1519C164.727 95.9012 163.629 96.5489 163.293 96.7097C161.369 97.6304 158.618 97.5793 156.566 97.9184C154.714 98.2244 152.709 98.9433 150.827 99.0405C150.021 99.082 149.264 99.249 148.465 99.0094L146.699 98.4794C146.357 98.3769 145.515 98.6058 145.536 98.6119M181.003 95.3848C180.707 95.7132 181.055 95.107 181.087 94.9314C181.177 94.4483 181.217 93.9112 181.137 93.4142C181.034 92.7744 180.133 92.4468 179.645 91.9956C179.363 91.7356 178.4 91.6102 178.078 91.774C177.461 92.0883 177.301 92.7275 176.784 93.1463C175.623 94.0884 174.186 94.2708 172.638 94.6048C171.781 94.7896 171.143 94.9676 170.224 94.9341C169.627 94.9124 168.817 94.7264 168.247 94.8327C167.766 94.9221 167.304 94.8171 167.216 95.2901C167.079 96.0311 167.6 96.4826 168.105 97.0746C168.457 97.4878 168.402 98.0297 168.923 98.3344C169.576 98.7165 170.5 98.5057 171.101 98.3111C173.114 97.6597 175.627 97.7804 177.433 96.7964C177.909 96.5369 178.609 96.2137 179.2 96.1597C179.74 96.1105 180.257 95.9756 180.794 95.9514C181.112 95.9371 181.396 95.4227 181.131 95.7155M171.243 89.3982C170.87 89.7614 171.359 89.0684 171.432 88.8599C171.632 88.2864 171.796 87.6421 171.831 87.0327C171.875 86.2482 171.047 85.751 170.662 85.151C170.44 84.8052 169.503 84.5452 169.143 84.7069C168.452 85.017 168.143 85.771 167.53 86.2188C166.149 87.226 164.666 87.2844 163.037 87.5135C162.136 87.6403 161.455 87.7833 160.541 87.6394C159.948 87.5459 159.179 87.2299 158.583 87.294C158.081 87.348 157.641 87.169 157.445 87.7306C157.137 88.6103 157.555 89.2143 157.924 89.9864C158.182 90.5252 158.002 91.1736 158.454 91.6002C159.021 92.1355 159.996 91.9849 160.643 91.8176C162.811 91.2574 165.302 91.6863 167.339 90.7011C167.876 90.4413 168.652 90.1297 169.257 90.1312C169.81 90.1325 170.358 90.0277 170.902 90.059C171.224 90.0776 171.628 89.4883 171.295 89.812M131.22 106.736C131.773 106.498 131.632 105.194 131.553 104.74C131.505 104.466 131.011 103.543 131.157 103.301C131.456 102.804 132.794 103.458 133.243 103.492C133.73 103.528 134.287 103.26 134.75 103.119C135.52 102.884 136.337 102.951 137.128 102.709C137.947 102.459 138.791 102.248 139.595 101.955C140.154 101.752 140.718 101.226 141.273 100.958C141.797 100.705 142.258 100.507 142.827 100.333C143.626 100.089 142.638 102.345 142.664 102.683C142.743 103.684 140.969 103.535 140.448 103.995C139.787 104.578 138.638 104.395 137.916 104.884C137.396 105.236 136.76 105.36 136.161 105.543C134.658 106.003 133.137 106.151 131.655 106.603M107.668 97.0064C109.408 94.668 111.676 92.6739 113.544 90.3974C114.589 89.1244 115.558 87.6846 116.459 86.3375C117.06 85.4398 118.781 83.6488 120.036 84.4406C120.474 84.7171 120.919 85.4867 121.032 85.984C121.21 86.7702 120.867 87.2846 120.555 87.9504C120.24 88.6216 119.772 89.3144 119.087 89.7074C118.347 90.1323 117.58 90.7543 116.804 91.0845C114.763 91.953 113.294 94.2483 111.87 95.8629C111.214 96.6065 110.23 97.2606 109.709 98.0863C109.132 99.0005 108.468 99.8587 107.978 100.839C107.513 101.769 107.135 102.705 107.057 103.732C107.045 103.885 106.876 104.716 107.215 104.522C107.798 104.187 108.115 103.176 108.469 102.614C110.063 100.087 112.117 97.9144 114.748 96.5398C115.789 95.9963 116.48 95.0857 117.342 94.3146C118.28 93.4763 118.965 92.4201 119.835 91.5205C120.822 90.4989 122.115 89.7916 122.884 88.5727C123.514 87.5745 123.984 86.2452 125.265 85.9552C126.194 85.7449 126.998 87.0472 127.401 87.7293C127.638 88.1299 127.79 88.4746 127.892 88.926C128.004 89.4173 127.491 89.8547 127.274 90.2704C127.044 90.7141 126.749 91.1555 126.401 91.5211C126.061 91.8788 125.453 92.2058 125.196 92.6129C124.542 93.6495 124.144 94.4754 122.923 94.9169C122.392 95.1088 121.936 95.4111 121.476 95.733C120.932 96.1142 120.268 96.3668 119.772 96.8071C118.808 97.661 117.526 98.2504 116.64 99.1814C115.636 100.238 114.618 101.268 113.633 102.347C113.204 102.816 112.789 103.286 112.391 103.77C113.126 103.624 113.879 103.521 114.553 103.368C115.299 103.199 116.043 102.627 116.633 102.154C117.365 101.568 118.21 101.128 118.839 100.409C119.385 99.7859 119.973 99.2094 120.571 98.6337C121.521 97.7191 122.727 97.1208 123.687 96.2215C124.479 95.4799 125.442 94.7924 126.447 94.3649C127.127 94.0753 127.898 93.6579 128.611 93.4965C129.404 93.317 130.205 93.3446 130.977 93.5805C131.293 93.677 131.375 94.3339 131.374 94.6057C131.373 95.2934 131.053 95.4392 130.659 95.9446C130.056 96.7167 129.824 97.7438 129.148 98.4546C128.422 99.2183 127.47 99.6004 126.567 100.099C125.743 100.553 124.894 101.051 123.923 101.096C123.256 101.127 122.326 101.041 121.696 101.263C121.047 101.493 120.429 101.778 119.81 102.082C119.036 102.463 118.389 103.097 117.687 103.588C116.837 104.183 114.959 105.28 114.053 105.787M114.053 105.787C113.45 105.807 110.003 107.01 110.999 105.432C111.349 104.877 111.661 104.393 112.106 103.908M114.053 105.787C114.484 105.772 114.92 105.866 115.35 105.892C116.121 105.94 117.028 105.581 117.768 105.414C118.695 105.204 119.636 105.088 120.57 104.904C121.946 104.632 123.392 105.536 124.474 104.501C124.902 104.091 125.168 103.783 125.368 103.218C125.519 102.79 125.767 102.642 125.948 102.193C126.069 101.892 126.564 101.339 126.954 101.435C127.404 101.546 128.107 101.597 128.191 101.969C128.296 102.433 128.436 103.133 128.852 103.446C129.113 103.974 129.406 105.847 128.919 106.332C128.051 107.197 126.79 107.027 125.673 107.225C124.559 107.422 123.962 107.805 122.857 108.055C121.413 108.382 120.86 109.063 119.419 109.389C117.794 109.757 118.677 110.234 117.043 110.604C115.792 110.887 115.642 110.948 114.562 111.607C113.429 112.299 112.837 111.872 112.115 112.183C110.787 112.755 109.696 112.434 108.852 112.952M113.278 140.05L115.157 140.888C115.739 141.148 116.022 141.653 116.331 142.093C116.841 142.819 116.792 142.826 116.343 143.206C115.919 143.564 114.818 144.044 114.101 144.097C113.663 144.129 113.511 144.458 112.98 144.439C112.699 144.429 111.91 144.295 111.852 143.918C111.786 143.483 111.826 142.855 111.914 142.452C111.955 142.268 112.008 142.159 111.947 141.948C111.867 141.665 111.467 141.43 111.417 141.192L113.278 140.05ZM130.905 166.113L132.784 166.951C133.366 167.211 133.648 167.716 133.957 168.156C134.467 168.882 134.419 168.889 133.969 169.269C133.545 169.627 132.444 170.107 131.727 170.16C131.289 170.192 131.137 170.521 130.606 170.502C130.325 170.492 129.536 170.358 129.479 169.981C129.412 169.546 129.452 168.918 129.54 168.515C129.581 168.331 129.634 168.222 129.574 168.011C129.493 167.728 129.093 167.493 129.043 167.255L130.905 166.113ZM156.897 141.818C156.234 142.477 155.859 143.415 155.284 144.185C155.16 144.352 154.869 144.472 154.833 144.739C154.709 145.674 156.982 146.102 157.372 146.39C158.149 146.964 159.146 147.495 159.84 148.278C160.456 148.973 161.055 149.853 161.705 150.466C162.064 150.804 161.576 149.54 161.508 149.396C161.157 148.644 160.858 147.803 160.467 147.092C159.983 146.212 159.27 145.426 158.856 144.517C158.552 143.85 158.071 143.349 157.79 142.701C157.665 142.41 156.782 141.191 156.897 141.818ZM156.264 150.211C155.595 150.863 155.21 151.798 154.627 152.562C154.501 152.727 154.209 152.844 154.171 153.111C154.037 154.045 156.305 154.496 156.692 154.788C157.463 155.37 158.455 155.912 159.141 156.702C159.75 157.403 160.339 158.288 160.983 158.908C161.339 159.25 160.863 157.981 160.797 157.836C160.454 157.081 160.164 156.237 159.78 155.522C159.305 154.637 158.601 153.843 158.196 152.93C157.898 152.261 157.423 151.754 157.149 151.103C157.026 150.811 156.156 149.584 156.264 150.211ZM147.683 157.987C148.077 157.139 148.832 156.467 149.36 155.664C149.474 155.491 149.488 155.176 149.727 155.052C150.564 154.616 151.74 156.608 152.144 156.877C152.948 157.412 153.787 158.168 154.759 158.555C155.623 158.897 156.653 159.161 157.451 159.563C157.892 159.786 156.537 159.757 156.378 159.743C155.552 159.669 154.659 159.674 153.858 159.548C152.865 159.393 151.883 158.99 150.888 158.91C150.158 158.851 149.522 158.569 148.817 158.527C148.501 158.507 147.055 158.092 147.683 157.987ZM114.962 75.2175L116.558 73.169C117.052 72.5345 117.067 71.8043 117.151 71.1315C117.288 70.0201 117.23 70.041 116.504 69.8844C115.82 69.7367 114.308 69.8548 113.478 70.2211C112.971 70.445 112.606 70.1685 112.027 70.5048C111.719 70.6833 110.92 71.2995 111.079 71.7537C111.263 72.2779 111.68 72.954 112.018 73.3505C112.172 73.5318 112.295 73.6215 112.354 73.8927C112.432 74.2559 112.125 74.7542 112.211 75.0495L114.962 75.2175ZM124.038 38.6762L125.941 40.4436C126.53 40.9911 127.256 41.0695 127.919 41.2108C129.015 41.4443 128.999 41.3847 129.218 40.675C129.424 40.0059 129.438 38.4894 129.145 37.6309C128.965 37.1063 129.273 36.7671 128.988 36.1605C128.836 35.8385 128.292 34.9887 127.826 35.1081C127.287 35.246 126.578 35.6029 126.153 35.9048C125.96 36.0428 125.859 36.158 125.584 36.1926C125.216 36.2389 124.746 35.8903 124.444 35.9502L124.038 38.6762ZM167.421 36.7182L168.452 37.6752C168.771 37.9716 169.164 38.0141 169.523 38.0906C170.116 38.2171 170.107 38.1848 170.226 37.8005C170.338 37.4382 170.345 36.617 170.186 36.1521C170.089 35.8681 170.256 35.6844 170.101 35.3559C170.02 35.1815 169.725 34.7214 169.472 34.7861C169.181 34.8607 168.796 35.054 168.567 35.2175C168.462 35.2922 168.407 35.3546 168.258 35.3733C168.059 35.3984 167.804 35.2096 167.641 35.242L167.421 36.7182ZM131.694 51.6118C132.137 51.4586 132.989 51.3441 133.432 51.1909C133.844 51.0484 134.066 50.7213 134.302 50.4403C134.693 49.9762 134.66 49.9685 134.377 49.6833C134.109 49.4145 133.388 49.0223 132.903 48.9439C132.607 48.8961 132.523 48.663 132.16 48.6448C131.968 48.6352 131.423 48.6793 131.361 48.9326C131.29 49.2249 131.281 49.6549 131.317 49.9346C131.334 50.0624 131.363 50.1396 131.31 50.2799C131.238 50.4678 130.276 51.4524 130.228 51.6118H131.694ZM173.413 77.4879C173.301 76.387 173.662 74.9794 173.712 73.7495C173.723 73.4835 173.547 73.2351 173.714 72.8547C174.302 71.5213 176.707 71.5641 177.281 71.2738C178.424 70.6953 179.737 70.237 180.961 69.3448C182.047 68.5527 183.255 67.5002 184.312 66.8314C184.895 66.4619 183.498 68.08 183.328 68.2616C182.442 69.2064 181.537 70.29 180.645 71.167C179.541 72.253 178.297 73.1446 177.235 74.2899C176.456 75.1301 175.639 75.6913 174.895 76.5127C174.562 76.8811 172.838 78.3249 173.413 77.4879ZM176.006 86.9799C175.143 86.1757 174.631 85.0076 173.874 84.0603C173.71 83.8554 173.338 83.7158 173.282 83.3807C173.086 82.2059 175.935 81.5716 176.415 81.1923C177.372 80.4365 178.607 79.7248 179.45 78.7085C180.199 77.8062 180.917 76.6725 181.712 75.8722C182.151 75.43 181.587 77.0451 181.508 77.2301C181.097 78.1927 180.754 79.266 180.291 80.1787C179.717 81.3088 178.85 82.3302 178.365 83.4937C178.009 84.3472 177.423 84.9996 177.097 85.8291C176.95 86.2011 175.887 87.7746 176.006 86.9799ZM177.31 61.2137C176.439 60.4184 175.915 59.2557 175.147 58.3162C174.982 58.113 174.608 57.9773 174.549 57.6428C174.341 56.47 177.184 55.8064 177.66 55.4222C178.608 54.6565 179.836 53.9321 180.669 52.9071C181.408 51.9972 182.115 50.8562 182.901 50.0478C183.336 49.6009 182.789 51.2219 182.711 51.4076C182.31 52.3744 181.978 53.4512 181.524 54.3686C180.962 55.5046 180.106 56.5348 179.633 57.7033C179.286 58.5604 178.707 59.2189 178.389 60.0517C178.246 60.4251 177.199 62.0096 177.31 61.2137ZM169.724 50.2731C170.257 51.3256 171.237 52.142 171.936 53.1328C172.088 53.3472 172.118 53.7432 172.425 53.89C173.499 54.4048 174.9 51.8439 175.398 51.4883C176.39 50.7798 177.417 49.7907 178.627 49.2633C179.702 48.7951 180.991 48.4202 181.981 47.8791C182.528 47.5801 180.819 47.6729 180.62 47.6975C179.58 47.8254 178.454 47.856 177.449 48.0476C176.204 48.2849 174.982 48.8333 173.729 48.9758C172.81 49.0804 172.021 49.4619 171.133 49.5452C170.735 49.5825 168.928 50.1667 169.724 50.2731ZM144.068 41.574C144.827 42.2851 145.786 42.6372 146.631 43.237C146.813 43.3667 146.988 43.6941 147.246 43.7115C148.148 43.7729 148.06 41.0928 148.246 40.6139C148.616 39.6597 148.899 38.4534 149.482 37.5768C150 36.7986 150.695 36.0246 151.129 35.2142C151.369 34.7662 150.29 35.447 150.169 35.5383C149.541 36.0134 148.818 36.4361 148.237 36.9538C147.517 37.5949 146.935 38.4934 146.173 39.0562C145.615 39.469 145.249 40.0728 144.702 40.4564C144.457 40.6285 143.506 41.7637 144.068 41.574ZM183.421 94.5032C183.169 93.4934 183.329 92.4843 183.216 91.4548C183.191 91.2321 182.99 90.9199 183.1 90.6865C183.486 89.8682 185.784 91.2495 186.293 91.3204C187.307 91.4616 188.498 91.8014 189.548 91.7182C190.48 91.6444 191.494 91.4145 192.413 91.4298C192.921 91.4383 191.802 92.0491 191.663 92.1101C190.943 92.4275 190.222 92.8534 189.486 93.1092C188.576 93.4259 187.508 93.4977 186.645 93.8891C186.013 94.1762 185.307 94.2021 184.706 94.4929C184.436 94.6233 182.982 94.9013 183.421 94.5032Z" stroke="#00FFE0" stroke-linecap="round"/>
<path d="M88.3525 125.403C87.4947 125.615 86.8012 126.664 86.5156 127.458C85.8498 129.308 84.739 130.956 83.4306 132.44C82.7097 133.258 82.1395 134.148 81.381 134.92C80.8409 135.47 80.1405 135.714 79.5024 136.097C78.7448 136.553 78.9935 137.153 79.4522 137.666C79.6564 137.894 80.0371 137.923 80.2729 138.104C80.393 138.196 80.5658 138.225 80.6981 138.317C80.9004 138.457 81.3533 138.856 81.6297 138.804C82.4543 138.648 82.8355 138.204 83.2816 137.507C83.9251 136.503 84.6879 135.57 85.3091 134.54C86.4511 132.647 86.9594 130.401 88.1686 128.561C88.2388 128.454 88.3103 128.331 88.3829 128.193M75.8569 145.936C75.7051 145.381 76.19 143.802 76.9373 144.278C77.1553 144.417 77.6131 144.788 77.8738 144.771C78.2653 144.746 78.6978 145.075 79.0499 144.985C79.4106 144.892 79.5387 145.495 79.4613 145.75C79.389 145.988 79.4768 146.325 79.3486 146.534C79.0453 147.028 78.7397 147.514 78.4146 148.001C78.0747 148.511 77.9044 148.994 77.6941 149.564C77.4754 150.157 77.1596 150.722 76.977 151.324C76.6334 152.457 76.227 153.622 75.7234 154.702C75.1037 156.031 74.5753 157.326 74.0694 158.698C73.703 159.692 73.3998 160.71 73.0321 161.707C72.5553 163 71.783 164.171 71.1104 165.364C70.7737 165.962 70.6173 166.638 70.2918 167.247C69.9278 167.928 69.6478 168.646 69.3799 169.373C69.313 169.554 69.263 169.771 69.1669 169.939C69.1358 169.994 69.2129 169.432 69.2309 169.342C69.3684 168.658 69.4526 167.993 69.5332 167.304C69.6696 166.138 70.1766 165.024 70.4313 163.879C70.9843 161.394 72.1026 159.059 72.6701 156.579C72.7912 156.05 72.9236 155.498 73.1929 155.02C73.5678 154.355 73.6099 153.52 73.9499 152.825C74.2204 152.273 74.4741 151.643 74.686 151.068C74.8588 150.6 75.1411 150.118 75.1816 149.616C75.2414 148.872 75.2333 147.935 75.5768 147.272C75.6762 147.08 76.025 145.984 75.7699 145.976M71.0731 155.465C70.9269 155.44 71.8193 153.423 71.8838 153.269C72.3866 152.068 72.701 150.564 73.0019 149.223C73.2548 148.095 73.4627 146.938 73.6989 145.8C73.8341 145.148 73.9685 144.506 74.1295 143.869C74.2091 143.554 74.2198 143.211 74.2918 142.894C74.3619 142.585 74.514 142.339 74.5923 142.035C74.7226 141.531 74.8282 140.932 75.1277 140.578C75.3082 140.364 75.4087 139.827 75.0567 139.733C74.8917 139.69 74.748 139.596 74.59 139.539C74.4387 139.485 74.3823 139.237 74.255 139.121C73.94 138.983 73.9949 139 73.6909 138.69C73.5175 138.512 73.4034 138.338 73.3192 138.117C73.2725 137.994 73.2232 137.602 73.0794 137.547C72.9861 137.511 71.02 139.524 70.8545 139.716C70.5138 140.113 70.2722 140.562 69.9971 140.977C69.7584 141.338 69.3939 141.659 69.1789 142.028C68.7592 142.747 68.0305 143.402 67.5294 144.109C66.8967 145.002 65.8846 145.749 65.2445 146.644C64.5275 147.647 63.6375 148.61 62.8441 149.579C62.4959 150.004 62.9072 149.897 63.2945 149.999C63.4608 150.043 63.6997 149.956 63.8274 150.054C63.9608 150.156 64.1175 150.225 64.2438 150.34C64.5132 150.585 64.9098 150.209 64.9912 149.941C65.1263 149.497 65.5715 149.084 65.9246 148.7C66.137 148.47 66.2607 148.209 66.4821 147.982C66.7096 147.749 66.9921 147.554 67.2132 147.316C67.6603 146.835 68.1269 146.373 68.6004 145.906C69.4278 145.09 70.2867 144.286 71.0963 143.462C72.0595 142.481 72.2063 142.387 72.9419 141.312C72.5379 142.336 72.0147 144.86 71.6085 145.876C71.2867 146.681 71.1328 147.648 70.7566 148.391C70.5638 148.772 70.492 149.253 70.3189 149.649C70.1194 150.105 69.8734 150.552 69.7254 151.054C69.6535 151.297 69.031 154.041 69.1118 154.1C69.2363 154.191 69.5923 154.019 69.7207 153.992C69.9522 153.942 70.1607 153.944 70.4037 153.993C70.8296 154.079 70.9986 154.459 71.1075 154.969M64.0782 153.875C64.049 153.875 64.0193 153.874 63.9892 153.871M63.9892 153.871C63.1078 153.807 61.833 152.949 61.4346 152.277C61.2801 152.016 57.6161 155.806 57.1968 156.293C56.9116 156.625 56.5803 156.909 56.2326 157.176C56.0165 157.341 54.4189 158.427 54.7425 158.637C55.2263 158.951 56.0546 158.848 56.3858 159.368C56.7738 159.977 56.7852 159.689 57.2854 159.138C58.0224 158.327 58.9039 157.701 59.8011 157.073C60.7997 156.375 61.7294 155.445 62.7936 154.848C63.2623 154.584 63.6345 154.252 63.9892 153.871ZM63.9892 153.871C64.0174 153.841 64.0456 153.81 64.0736 153.78M70.2698 157.271C70.2431 157.27 70.2159 157.269 70.1882 157.266M70.1882 157.266C69.3807 157.179 68.2033 156.158 67.8304 155.365C67.6857 155.058 64.3789 159.454 64.0011 160.02C63.7442 160.405 63.4445 160.734 63.1296 161.042C62.9338 161.233 61.4849 162.486 61.7837 162.736C62.2304 163.11 62.9872 162.999 63.2968 163.613C63.6595 164.331 63.6664 163.994 64.1174 163.355C64.7819 162.413 65.581 161.691 66.3944 160.966C67.2998 160.16 68.1393 159.082 69.106 158.395C69.5317 158.092 69.8683 157.707 70.1882 157.266ZM70.1882 157.266C70.2137 157.23 70.2391 157.195 70.2644 157.159M57.0435 170.021C57.026 170.001 57.009 169.98 56.9925 169.957M56.9925 169.957C56.5099 169.304 56.4652 167.746 56.7968 166.935C56.9255 166.621 51.451 167.159 50.7786 167.264C50.3212 167.335 49.8758 167.338 49.4362 167.314C49.1629 167.299 47.2602 167.079 47.278 167.469C47.3046 168.051 47.8986 168.533 47.6562 169.176C47.3723 169.929 47.6255 169.706 48.4013 169.606C49.5443 169.458 50.6168 169.558 51.7006 169.667C52.907 169.788 54.2688 169.677 55.4287 169.924C55.9397 170.033 56.451 170.02 56.9925 169.957ZM56.9925 169.957C57.0356 169.952 57.0789 169.947 57.1225 169.941M28.9863 136.71C28.9661 136.728 28.9448 136.745 28.9225 136.762M28.9225 136.762C28.2692 137.244 26.7114 137.289 25.9005 136.957C25.5858 136.828 26.1246 142.303 26.2293 142.975C26.3006 143.433 26.3027 143.878 26.279 144.318C26.2642 144.591 26.0446 146.494 26.434 146.476C27.0162 146.449 27.4982 145.855 28.1412 146.098C28.8944 146.382 28.6713 146.128 28.571 145.353C28.4234 144.21 28.5233 143.137 28.6322 142.053C28.7534 140.847 28.6423 139.485 28.8893 138.325C28.9981 137.814 28.9855 137.303 28.9225 136.762ZM28.9225 136.762C28.9174 136.718 28.9121 136.675 28.9065 136.631M40.0511 169.873C40.0086 169.846 39.9672 169.818 39.9267 169.79M39.9267 169.79C38.9938 169.133 38.5722 168.16 37.737 167.394C36.8986 166.626 36.2317 167.004 35.1201 167.186C33.6552 167.426 32.1911 168.008 30.72 168.222C29.216 168.441 27.5882 168.74 26.1317 169.3C25.5384 169.528 24.7963 169.865 25.808 169.923C26.7554 169.978 27.7111 169.773 28.6597 169.871C29.3941 169.947 30.1572 169.725 30.8905 169.755C31.7821 169.792 32.6997 169.734 33.5993 169.688C35.08 169.612 38.5335 169.648 39.9267 169.79ZM39.9267 169.79C40.5898 169.857 40.7862 169.949 40.0811 170.064M54.7681 161.439C54.723 161.417 54.6788 161.393 54.6356 161.369M54.6356 161.369C53.6384 160.815 53.1163 159.892 52.2048 159.219C51.2899 158.543 50.6667 158.99 49.5806 159.289C48.1493 159.683 46.7549 160.416 45.3147 160.784C43.8423 161.161 42.2552 161.63 40.8661 162.341C40.3002 162.631 39.5979 163.044 40.6101 162.995C41.5581 162.95 42.4866 162.645 43.4404 162.642C44.1786 162.64 44.914 162.338 45.6464 162.291C46.5369 162.233 47.4432 162.078 48.3329 161.938C49.7973 161.706 53.2352 161.376 54.6356 161.369ZM54.6356 161.369C55.3021 161.366 55.5071 161.437 54.8182 161.626M29.4533 153.81C29.4155 153.843 29.3774 153.875 29.339 153.907M29.339 153.907C28.4529 154.625 27.4021 154.766 26.4379 155.361C25.4699 155.958 25.6523 156.703 25.5248 157.822C25.3568 159.297 25.518 160.865 25.3231 162.338C25.1239 163.845 24.9682 165.493 25.1103 167.047C25.1682 167.68 25.2899 168.485 25.622 167.528C25.933 166.631 25.9957 165.656 26.3488 164.77C26.6221 164.084 26.6159 163.289 26.8447 162.592C27.1228 161.744 27.3169 160.845 27.5178 159.967C27.8485 158.522 28.8229 155.209 29.339 153.907ZM29.339 153.907C29.5846 153.287 29.7264 153.123 29.6455 153.833M69.6712 138.123C69.6822 138.118 69.6613 138.112 69.6204 138.106M69.6204 138.106C69.4639 138.083 69.0155 138.052 68.9513 138.03C68.6893 137.939 68.4706 137.416 68.3263 137.194C68.0335 136.743 67.8372 136.142 67.7085 135.622C67.5094 134.817 67.1852 135.585 66.9053 135.997C66.3996 136.742 65.8904 137.563 65.3128 138.251C64.286 139.475 63.4118 140.83 62.5148 142.151C61.6283 143.456 60.4557 145.016 59.0121 145.737C58.8524 145.817 57.6631 146.278 58.0388 146.431C58.7737 146.729 59.2875 146.995 59.8163 147.62C59.8972 147.715 59.9489 147.989 60.1294 147.899C60.3745 147.777 60.5569 147.338 60.7192 147.125C61.2679 146.405 61.7993 145.617 62.4243 144.963C63.8047 143.52 65.0815 141.974 66.491 140.559C67.0649 139.983 67.4077 139.108 68.1632 138.747C68.6616 138.51 69.1988 138.409 69.6204 138.106ZM69.6204 138.106C69.6595 138.078 69.6976 138.048 69.7345 138.017M57.1561 150.61C57.5094 150.603 57.5994 148.868 57.5489 148.723C57.3832 148.248 57.035 147.884 56.8262 147.456C56.5159 146.82 53.7568 149.277 53.3172 149.622C52.137 150.55 50.6867 151.048 49.5094 151.952C49.0296 152.321 48.2639 152.581 47.6806 152.66C47.0623 152.743 46.4467 152.954 45.839 153.024C45.3858 153.076 45.881 153.97 46.0167 154.169C46.389 154.716 46.6169 155.148 46.8715 155.726C47.1053 156.258 47.9242 155.354 48.1481 155.173C48.6521 154.764 49.1534 154.378 49.6832 154.012C51.1753 152.982 52.7724 152.178 54.3121 151.238C55.1999 150.695 56.2136 150.535 57.1864 150.321M50.5581 147.678C50.9114 147.671 51.0015 145.936 50.9509 145.791C50.7852 145.316 50.437 144.952 50.2282 144.524C49.9179 143.888 47.1588 146.344 46.7192 146.69C45.539 147.618 44.0887 148.115 42.9114 149.02C42.4316 149.389 41.6659 149.649 41.0826 149.727C40.4643 149.811 39.8488 150.022 39.241 150.092C38.7878 150.144 39.283 151.038 39.4188 151.237C39.791 151.784 40.0189 152.216 40.2735 152.794C40.5073 153.325 41.3262 152.422 41.5501 152.24C42.0541 151.832 42.5554 151.446 43.0853 151.08C44.5773 150.05 46.1744 149.246 47.7141 148.305C48.6019 147.763 49.6156 147.603 50.5884 147.388M67.3067 133.097C67.2604 133.343 66.5872 133.493 66.3454 133.507C65.9745 133.529 65.6554 133.095 65.5023 132.821C65.1631 132.214 64.1461 130.804 64.4577 130.06C64.6114 129.693 64.2481 130.151 64.1792 130.259C63.8341 130.803 63.4286 131.308 63.0838 131.851C62.4993 132.771 61.8048 133.414 60.9745 134.115C59.3993 135.445 57.7448 136.612 56.3853 138.158C55.2555 139.443 54.332 141.01 53.0719 142.165C52.8947 142.327 52.055 142.773 52.1571 142.961C52.4727 143.543 53.1425 143.922 53.3272 144.569C53.3619 144.69 53.4252 145.205 53.5889 145.205C54.007 145.205 54.5246 144.181 54.7011 143.896C55.7118 142.265 57.8209 140.969 59.2111 139.716C60.4653 138.586 61.6357 137.068 63.0141 136.081C63.6044 135.658 64.097 135.164 64.8185 134.958L66.414 134.502C66.7227 134.414 67.249 133.832 67.2307 133.838M47.3553 131.185C47.4963 130.978 48.1731 131.11 48.4006 131.193C48.7494 131.321 48.8686 131.846 48.8995 132.158C48.9679 132.851 49.3371 134.549 48.7541 135.107C48.4666 135.382 48.9826 135.108 49.0891 135.036C49.6224 134.676 50.196 134.374 50.7289 134.015C51.6324 133.404 52.526 133.092 53.5672 132.781C55.5423 132.191 57.5254 131.782 59.3894 130.907C60.9385 130.181 62.4108 129.113 64.0273 128.558C64.2546 128.48 65.2026 128.406 65.1842 128.193C65.1273 127.533 64.6644 126.919 64.7534 126.252C64.7701 126.127 64.9177 125.63 64.7676 125.564C64.3843 125.397 63.501 126.129 63.2254 126.32C61.6473 127.411 59.1959 127.758 57.4209 128.351C55.8197 128.886 54.1404 129.81 52.4825 130.164C51.7726 130.316 51.1237 130.572 50.3799 130.473L48.7352 130.253C48.4169 130.211 47.702 130.534 47.7209 130.536M55.1426 127.29C55.0007 127.459 54.4193 127.283 54.2275 127.19C53.9331 127.047 53.8753 126.576 53.876 126.3C53.8775 125.687 53.7047 124.166 54.265 123.729C54.5414 123.513 54.0648 123.708 53.9651 123.762C53.4659 124.03 52.9366 124.243 52.4377 124.511C51.5919 124.966 50.7812 125.16 49.8414 125.34C48.0583 125.682 46.2844 125.864 44.5736 126.465C43.1517 126.965 41.767 127.769 40.3013 128.112C40.0952 128.161 39.2581 128.141 39.2553 128.329C39.2466 128.912 39.5977 129.492 39.4606 130.068C39.4348 130.176 39.2613 130.599 39.387 130.67C39.7081 130.85 40.547 130.287 40.8054 130.145C42.285 129.328 44.4637 129.242 46.0715 128.88C47.5221 128.553 49.0755 127.892 50.5595 127.729C51.1951 127.659 51.7863 127.493 52.4292 127.646L53.8509 127.984C54.126 128.049 54.7811 127.829 54.7647 127.826M26.6734 131.75C26.9026 131.485 26.6377 131.971 26.6151 132.111C26.5531 132.495 26.531 132.921 26.6034 133.314C26.6966 133.819 27.4161 134.062 27.811 134.41C28.0386 134.611 28.804 134.693 29.0559 134.558C29.5389 134.297 29.6547 133.788 30.056 133.447C30.9586 132.68 32.094 132.509 33.3141 132.217C33.9894 132.055 34.4921 131.902 35.2205 131.912C35.6935 131.918 36.3385 132.051 36.7887 131.956C37.1675 131.877 37.5357 131.952 37.5965 131.575C37.6916 130.986 37.2709 130.638 36.8602 130.178C36.5736 129.857 36.608 129.427 36.1898 129.195C35.6652 128.904 34.9367 129.088 34.4641 129.253C32.8818 129.805 30.8889 129.755 29.4761 130.567C29.1036 130.782 28.5552 131.05 28.0878 131.104C27.6607 131.153 27.2543 131.269 26.8294 131.298C26.5777 131.315 26.3617 131.727 26.566 131.491M37.3203 139.03C37.4466 138.637 37.362 139.304 37.3884 139.477C37.4608 139.953 37.5854 140.465 37.7878 140.904C38.0484 141.469 38.8123 141.51 39.305 141.787C39.5889 141.946 40.3412 141.78 40.5332 141.533C40.9015 141.06 40.8372 140.417 41.1005 139.876C41.6927 138.658 42.7088 138.066 43.7636 137.301C44.3473 136.877 44.7709 136.524 45.4636 136.286C45.9133 136.131 46.569 136.066 46.9628 135.8C47.2941 135.575 47.668 135.537 47.597 135.071C47.4858 134.341 46.9688 134.074 46.4233 133.671C46.0425 133.389 45.9281 132.869 45.4532 132.738C44.8575 132.574 44.2309 133.042 43.84 133.399C42.5313 134.596 40.6283 135.222 39.5687 136.668C39.2893 137.049 38.8621 137.556 38.438 137.779C38.0506 137.984 37.7056 138.261 37.3134 138.441C37.0811 138.548 37.0176 139.11 37.1301 138.76M65.7737 120.731C65.3291 120.905 65.4073 121.941 65.4581 122.303C65.4887 122.521 65.8558 123.265 65.7341 123.453C65.4846 123.839 64.4418 123.286 64.0874 123.248C63.7025 123.206 63.2542 123.403 62.8835 123.504C62.2679 123.67 61.6229 123.595 60.9896 123.766C60.3348 123.943 59.6612 124.088 59.0166 124.299C58.5683 124.446 58.1086 124.847 57.6616 125.045C57.2402 125.232 56.8698 125.377 56.4145 125.5C55.7756 125.672 56.6169 123.911 56.6048 123.643C56.5689 122.848 57.9694 123.012 58.3945 122.661C58.9328 122.217 59.8381 122.392 60.4223 122.024C60.8432 121.758 61.3501 121.676 61.8293 121.547C63.0321 121.222 64.2405 121.145 65.4255 120.825M88.1639 125.351C86.7946 125.69 85.7724 126.121 84.9067 127.335C83.5657 129.215 81.8004 130.831 80.3566 132.664C79.5492 133.689 78.8046 134.845 78.1116 135.926C77.6498 136.647 76.315 138.093 75.3083 137.486C74.9568 137.274 74.5917 136.671 74.4946 136.279C74.3412 135.659 74.6048 135.246 74.8416 134.713C75.0803 134.177 75.4402 133.62 75.9764 133.298C76.5561 132.95 77.1541 132.445 77.7633 132.171C79.3661 131.451 80.4941 129.609 81.5965 128.307C82.1043 127.708 82.8732 127.174 83.2729 126.512C83.7153 125.778 84.2283 125.088 84.6006 124.304C84.9539 123.559 85.2391 122.812 85.2847 121.997C85.2915 121.876 85.4119 121.215 85.1469 121.374C84.6905 121.648 84.4552 122.455 84.1833 122.906C82.9605 124.933 81.3684 126.686 79.3052 127.817C78.4896 128.264 77.9565 128.996 77.2857 129.621C76.5563 130.3 76.0298 131.147 75.3554 131.874C74.5897 132.699 73.5761 133.28 72.9862 134.257C72.5031 135.058 72.152 136.119 71.1414 136.369C70.4088 136.55 69.7511 135.531 69.4211 134.997C69.2273 134.683 69.1012 134.413 69.0131 134.057C68.9173 133.669 69.3167 133.315 69.4815 132.982C69.6573 132.627 69.8838 132.273 70.1534 131.977C70.4172 131.689 70.8939 131.42 71.0909 131.093C71.5926 130.262 71.8946 129.601 72.8551 129.232C73.2726 129.072 73.6292 128.825 73.9881 128.563C74.4134 128.252 74.9353 128.041 75.3217 127.685C76.0711 126.993 77.0781 126.506 77.7646 125.754C78.5435 124.901 79.3332 124.069 80.0969 123.199C80.4289 122.821 80.7509 122.442 81.0583 122.052C80.4779 122.179 79.8835 122.273 79.3515 122.404C78.7635 122.55 78.1836 123.015 77.7236 123.399C77.1528 123.875 76.4905 124.237 76.003 124.816C75.5804 125.319 75.1238 125.785 74.6592 126.25C73.9211 126.99 72.9752 127.483 72.229 128.211C71.6136 128.811 70.8611 129.371 70.0722 129.725C69.5377 129.965 68.9337 130.308 68.3714 130.447C67.7459 130.602 67.111 130.593 66.4956 130.418C66.244 130.347 66.1685 129.828 66.1647 129.613C66.155 129.068 66.4061 128.947 66.7104 128.541C67.1754 127.919 67.3432 127.102 67.8673 126.528C68.4306 125.912 69.1786 125.594 69.8857 125.185C70.5313 124.811 71.1964 124.404 71.9648 124.353C72.4928 124.317 73.231 124.371 73.7262 124.185C74.2371 123.993 74.7222 123.757 75.2076 123.506C75.8149 123.192 76.3175 122.68 76.8658 122.28C77.5295 121.795 79.0002 120.896 79.7099 120.48M79.7099 120.48C80.187 120.455 82.8987 119.447 82.1347 120.713C81.8664 121.158 81.6269 121.547 81.2816 121.938M79.7099 120.48C79.3682 120.499 79.0212 120.431 78.6805 120.417C78.0691 120.392 77.3561 120.69 76.7727 120.835C76.041 121.016 75.2979 121.123 74.5604 121.283C73.4747 121.52 72.3155 120.827 71.4744 121.664C71.1417 121.995 70.936 122.244 70.7868 122.695C70.6739 123.036 70.4796 123.157 70.3433 123.516C70.2522 123.756 69.8686 124.202 69.5587 124.132C69.2 124.052 68.6421 124.022 68.5695 123.729C68.479 123.363 68.3574 122.81 68.0227 122.569C67.8074 122.155 67.546 120.676 67.9239 120.284C68.5983 119.585 69.6 119.7 70.4814 119.525C71.3606 119.352 71.8276 119.039 72.699 118.823C73.8375 118.541 74.2648 117.993 75.4018 117.711C76.6827 117.394 75.9762 117.03 77.2646 116.712C78.2509 116.468 78.3691 116.417 79.214 115.878C80.101 115.311 80.5765 115.64 81.1435 115.382C82.1863 114.908 83.0556 115.145 83.7161 114.722C85.0444 113.871 86.4845 114.14 86.6663 113.621C86.9405 112.837 87.2445 112.483 88.0525 112.313M87.4627 96.5366C86.5759 94.219 84.9868 89.8302 83.4025 87.2609C82.4723 86.2477 81.4465 83.8171 80.47 82.8622C79.7746 82.1822 79.0504 81.0106 78.2355 80.5428C77.2682 79.9876 77.5668 79.2237 78.1326 78.5648C78.3845 78.2713 78.8641 78.2252 79.1571 77.9913C79.3064 77.8722 79.5237 77.8312 79.6883 77.7123C79.94 77.5306 80.5013 77.0149 80.8515 77.0739C81.8959 77.25 82.3881 77.8009 82.9686 78.6681C83.8059 79.9191 83.6925 81.5788 84.5022 82.8622C85.6627 85.8696 87.145 90.3486 88.4921 93.2221M75.5348 65.5333C75.2602 66.2056 75.6275 68.258 76.6361 67.7751C76.9304 67.6343 77.5605 67.2383 77.8845 67.2992C78.3711 67.3906 78.9631 67.0437 79.3905 67.211C79.8282 67.3824 80.0804 66.6463 80.0223 66.3151C79.968 66.0052 80.1292 65.5965 80.0004 65.3154C79.6955 64.6505 79.3866 63.9947 79.0535 63.3347C78.7052 62.6446 78.5653 62.014 78.3886 61.2676C78.2049 60.4912 77.8952 59.7355 77.758 58.9534C77.4998 57.482 77.168 55.96 76.7013 54.5303C76.1272 52.7716 75.6623 51.0679 75.2372 49.2719C74.9293 47.9711 74.7044 46.6496 74.3954 45.3443C73.9949 43.6519 73.2053 42.0678 72.5443 40.4702C72.2134 39.6705 72.1204 38.7992 71.8052 37.9866C71.4528 37.0781 71.2112 36.1364 70.9861 35.1853C70.9299 34.9478 70.9002 34.6685 70.8054 34.4427C70.7748 34.3698 70.7858 35.0858 70.7947 35.2013C70.8628 36.0792 70.8673 36.9249 70.8634 37.7997C70.8568 39.2823 71.3226 40.7548 71.4675 42.2275C71.7822 45.4257 72.828 48.5203 73.1617 51.7144C73.2328 52.3957 73.3147 53.1076 73.5794 53.7473C73.9478 54.6378 73.8736 55.6902 74.1939 56.6116C74.4488 57.3447 74.6708 58.1729 74.8488 58.9249C74.9939 59.5383 75.2745 60.1844 75.2486 60.8205C75.2104 61.7616 75.0578 62.9335 75.3871 63.817C75.4825 64.0729 75.7528 65.4986 75.432 65.4699M49.1067 56.3274C49.0737 56.3266 49.0401 56.327 49.006 56.3284M49.006 56.3284C48.0081 56.3696 46.5359 57.2992 46.0606 58.0498C45.8762 58.3411 41.8817 53.8927 41.4266 53.3224C41.1171 52.9346 40.7537 52.5985 40.3712 52.2827C40.1333 52.0863 38.3701 50.7918 38.7435 50.5644C39.3019 50.2244 40.2334 50.373 40.6271 49.7931C41.0883 49.1141 41.0904 49.4423 41.6344 50.0875C42.436 51.038 43.4078 51.7825 44.3973 52.5299C45.4987 53.3618 46.5134 54.4542 47.6927 55.1734C48.212 55.4902 48.6198 55.8824 49.006 56.3284ZM49.006 56.3284C49.0367 56.364 49.0673 56.3998 49.0979 56.4361M59.953 47.1726C59.9211 47.1804 59.8888 47.1893 59.8563 47.1995M59.8563 47.1995C58.9065 47.4955 57.729 48.7786 57.4648 49.6318C57.3624 49.9629 52.372 46.653 51.7871 46.2142C51.3893 45.9156 50.953 45.6813 50.5035 45.4717C50.224 45.3414 48.1935 44.5323 48.4944 44.215C48.9442 43.7406 49.879 43.6464 50.1087 42.9806C50.3776 42.2007 50.4641 42.52 51.154 43.0091C52.1703 43.7296 53.2974 44.2057 54.4422 44.6802C55.7165 45.2084 56.9746 46.0125 58.2948 46.4109C58.8763 46.5864 59.3698 46.8639 59.8563 47.1995ZM59.8563 47.1995C59.8951 47.2262 59.9338 47.2533 59.9725 47.2808M68.2964 59.5326C68.27 59.5249 68.2428 59.5182 68.2148 59.5123M68.2148 59.5123C67.3971 59.342 65.9262 59.9619 65.3143 60.6138C65.0768 60.8668 63.2073 55.5582 63.0136 54.8898C62.8818 54.4351 62.6909 54.021 62.4783 53.6231C62.3461 53.3757 61.3173 51.7034 61.6878 51.5546C62.2418 51.3321 62.9483 51.6787 63.4425 51.1808C64.0213 50.5976 63.923 50.9272 64.1657 51.6897C64.5233 52.813 65.0809 53.7657 65.6519 54.7252C66.2875 55.7931 66.7739 57.104 67.5066 58.0754C67.8293 58.5033 68.039 58.9831 68.2148 59.5123ZM68.2148 59.5123C68.2288 59.5545 68.2426 59.597 68.2562 59.6398M39.9125 34.9776C39.8895 35.0023 39.8672 35.0285 39.8454 35.056M39.8454 35.056C39.2097 35.86 39.0887 37.8231 39.4733 38.8597C39.6225 39.2619 32.7395 38.3553 31.8957 38.1953C31.3217 38.0865 30.7601 38.0653 30.2045 38.077C29.8591 38.0843 27.45 38.2824 27.4886 37.7919C27.5463 37.0587 28.3156 36.4753 28.0366 35.6542C27.7097 34.6924 28.0197 34.9843 28.9942 35.1429C30.4298 35.3766 31.7867 35.2951 33.1584 35.2027C34.6851 35.0998 36.3983 35.2964 37.8716 35.0329C38.5206 34.9169 39.165 34.954 39.8454 35.056ZM39.8454 35.056C39.8996 35.0641 39.9541 35.0727 40.0088 35.0816M47.4492 71.4821C47.4233 71.5038 47.3979 71.5269 47.3729 71.5515M47.3729 71.5515C46.6418 72.2699 46.2766 74.2025 46.5288 75.279C46.6266 75.6967 39.9107 73.9379 39.0934 73.6738C38.5375 73.4941 37.9829 73.403 37.4302 73.3453C37.0867 73.3094 34.6717 73.2051 34.7712 72.7233C34.92 72.003 35.7561 71.5203 35.5817 70.6707C35.3775 69.6756 35.6487 70.004 36.5957 70.283C37.9909 70.6941 39.3474 70.7826 40.7199 70.8622C42.2475 70.9507 43.9227 71.3597 45.4174 71.2822C46.0758 71.2481 46.7105 71.3654 47.3729 71.5515ZM47.3729 71.5515C47.4256 71.5663 47.4786 71.5816 47.5317 71.5973M61.1285 34.9218C61.1055 34.9465 61.0831 34.9726 61.0614 35.0002M61.0614 35.0002C60.4257 35.8042 60.3047 37.7672 60.6893 38.8039C60.8385 39.2061 53.9555 38.2995 53.1116 38.1395C52.5377 38.0307 51.976 38.0095 51.4205 38.0212C51.0751 38.0285 48.666 38.2266 48.7046 37.7361C48.7623 37.0029 49.5316 36.4195 49.2525 35.5983C48.9257 34.6365 49.2357 34.9285 50.2102 35.0871C51.6458 35.3208 53.0027 35.2392 54.3744 35.1468C55.9011 35.044 57.6142 35.2406 59.0876 34.9771C59.7366 34.861 60.381 34.8982 61.0614 35.0002ZM61.0614 35.0002C61.1156 35.0083 61.17 35.0168 61.2247 35.0257M58.659 65.5403C58.626 65.5386 58.5924 65.538 58.5582 65.5385M58.5582 65.5385C57.5587 65.5514 56.0582 66.4449 55.5604 67.1868C55.3672 67.4747 51.5037 62.883 51.0654 62.296C50.7673 61.8967 50.4138 61.548 50.0405 61.2192C49.8084 61.0148 48.0831 59.6613 48.4634 59.4431C49.0321 59.1169 49.9596 59.2931 50.3708 58.7208C50.8524 58.0505 50.8446 58.3809 51.3697 59.0459C52.1433 60.0256 53.0933 60.8026 54.0609 61.5833C55.1379 62.4521 56.1205 63.5807 57.2788 64.3384C57.789 64.6721 58.1852 65.0785 58.5582 65.5385ZM58.5582 65.5385C58.5879 65.5751 58.6175 65.6121 58.647 65.6494M51.5262 66.6781C51.4942 66.6859 51.4618 66.6948 51.4291 66.705M51.4291 66.705C50.4745 67.0013 49.2896 68.2843 49.023 69.1371C48.9196 69.468 43.9108 66.163 43.3238 65.7247C42.9246 65.4266 42.4866 65.1927 42.0352 64.9835C41.7547 64.8534 39.7159 64.0459 40.0186 63.7286C40.4712 63.2543 41.4105 63.1597 41.6422 62.4942C41.9135 61.7146 41.9999 62.0337 42.6923 62.5221C43.7123 63.2416 44.844 63.7168 45.9935 64.1904C47.2729 64.7175 48.5357 65.5204 49.8615 65.9178C50.4454 66.0928 50.9408 66.3699 51.4291 66.705ZM51.4291 66.705C51.468 66.7317 51.5069 66.7588 51.5457 66.7862M5.33975 75.0973C5.31503 75.0743 5.28887 75.052 5.26135 75.0302M5.26135 75.0302C4.45733 74.3945 2.49429 74.2735 1.45765 74.6581C1.05541 74.8073 1.96202 67.9243 2.12203 67.0805C2.23085 66.5065 2.25205 65.9449 2.24032 65.3893C2.23303 65.0439 2.03495 62.6348 2.52541 62.6734C3.25865 62.7311 3.842 63.5004 4.66319 63.2214C5.62499 62.8945 5.33303 63.2045 5.17442 64.179C4.94075 65.6146 5.02228 66.9715 5.11469 68.3432C5.21754 69.8699 5.02092 71.583 5.28442 73.0564C5.40048 73.7054 5.3633 74.3498 5.26135 75.0302ZM5.26135 75.0302C5.25322 75.0844 5.24469 75.1389 5.23579 75.1935M4.88048 89.5255C4.85575 89.5025 4.82959 89.4801 4.80207 89.4584M4.80207 89.4584C3.99806 88.8227 2.03501 88.7017 0.998373 89.0863C0.59614 89.2355 1.50275 82.3525 1.66275 81.5086C1.77158 80.9347 1.79278 80.373 1.78105 79.8175C1.77376 79.4721 1.57568 77.063 2.06614 77.1016C2.79938 77.1593 3.38273 77.9286 4.20391 77.6495C5.16572 77.3227 4.87376 77.6327 4.71515 78.6072C4.48148 80.0428 4.56301 81.3997 4.65541 82.7714C4.75827 84.2981 4.56165 86.0112 4.82515 87.4846C4.94121 88.1335 4.90403 88.778 4.80207 89.4584ZM4.80207 89.4584C4.79395 89.5126 4.78542 89.567 4.77651 89.6217M20.6619 34.8391C20.6086 34.8739 20.5566 34.9095 20.5058 34.9458M20.5058 34.9458C19.3343 35.783 18.811 37.0144 17.7639 37.9883C16.7127 38.966 15.8676 38.4945 14.4631 38.2745C12.6122 37.9847 10.7593 37.2634 8.90073 37.0066C7.00074 36.7442 4.94367 36.3813 3.10059 35.6878C2.34972 35.4052 1.41015 34.9871 2.6864 34.9039C3.88159 34.8259 5.08949 35.0765 6.28585 34.9438C7.21188 34.8411 8.17693 35.1149 9.10218 35.0703C10.2271 35.016 11.3856 35.0811 12.5213 35.1309C14.3907 35.2128 18.7488 35.1374 20.5058 34.9458ZM20.5058 34.9458C21.342 34.8545 21.589 34.737 20.6981 34.5975M38.8856 47.1739C38.8278 47.2005 38.7711 47.2281 38.7156 47.2567M38.7156 47.2567C37.4347 47.9146 36.738 49.0569 35.5603 49.8681C34.3782 50.6825 33.6107 50.0931 32.2531 49.6713C30.464 49.1154 28.7356 48.1323 26.9342 47.608C25.0926 47.072 23.1101 46.4139 21.3875 45.4597C20.6857 45.0709 19.8169 44.5206 21.0917 44.6238C22.2855 44.7205 23.4442 45.1441 24.6471 45.1868C25.5782 45.2199 26.4932 45.6311 27.4151 45.7215C28.5359 45.8314 29.6727 46.0642 30.7891 46.2787C32.6267 46.6316 36.9494 47.1908 38.7156 47.2567ZM38.7156 47.2567C39.5562 47.288 39.8177 47.2076 38.9565 46.94M5.73182 60.5867C5.68714 60.5208 5.64164 60.4564 5.59539 60.3936M5.59539 60.3936C4.52879 58.9435 3.05975 58.2616 1.84528 56.9565C0.626154 55.6464 1.10178 54.6433 1.23965 52.9537C1.42134 50.727 2.10242 48.5151 2.24519 46.278C2.39114 43.9909 2.64023 41.5179 3.28997 39.3168C3.55467 38.4201 3.96063 37.3006 4.16307 38.8472C4.35265 40.2956 4.16293 41.7463 4.41595 43.1983C4.61179 44.3221 4.375 45.4782 4.50357 46.5988C4.65988 47.9613 4.68085 49.3596 4.71759 50.731C4.77806 52.9883 5.22748 58.2613 5.59539 60.3936ZM5.59539 60.3936C5.77049 61.4084 5.92713 61.7118 6.01458 60.6401M68.7419 61.2351C68.5564 61.2605 69.5984 63.8421 69.6734 64.0393C70.2578 65.5752 70.592 67.4846 70.9158 69.1893C71.1881 70.6223 71.4023 72.0908 71.6531 73.5362C71.7966 74.3633 71.9394 75.1794 72.1161 75.9889C72.2035 76.3894 72.2028 76.8229 72.2804 77.2263C72.356 77.6191 72.5377 77.9353 72.6239 78.3214C72.7672 78.9635 72.8757 79.7228 73.2387 80.1824C73.4576 80.4594 73.562 81.1414 73.1141 81.2443C72.9042 81.2926 72.7191 81.4048 72.5174 81.4698C72.3244 81.5319 72.2429 81.8423 72.0775 81.9831C71.6745 82.1441 71.7444 82.1249 71.3481 82.5041C71.122 82.7205 70.9708 82.9358 70.8554 83.2114C70.7914 83.3643 70.7131 83.8567 70.5294 83.9206C70.4102 83.962 68.0137 81.3414 67.813 81.0916L65.9262 80.7946C65.8698 80.7701 65.8128 80.7484 65.7552 80.7291M68.7646 61.8633C68.6062 62.5018 68.3772 62.9732 67.8364 63.0647C67.5279 63.1169 67.2649 63.1097 66.9749 63.0377C66.814 62.9978 66.3722 62.7666 66.2113 62.8759C66.1069 62.9468 66.7784 66.4338 66.8589 66.744C67.0248 67.3828 67.3166 67.9565 67.5493 68.5407C67.7512 69.0477 67.8219 69.6568 68.0492 70.145C68.4929 71.098 68.647 72.3245 69.0194 73.353C69.4897 74.6516 70.045 77.8575 70.5121 79.1652C69.6288 77.7794 69.4475 77.6548 68.2733 76.3772C67.2863 75.3033 66.2361 74.2547 65.2263 73.1906C64.6485 72.5816 64.079 71.9798 63.5351 71.3548C63.266 71.0455 62.9178 70.7874 62.6406 70.4842C62.3706 70.1891 62.2254 69.8545 61.9671 69.5549C61.5376 69.0565 60.9932 68.5162 60.8413 67.9506C60.7497 67.6096 60.2649 67.1187 59.915 67.4165C59.7509 67.5562 59.5503 67.6376 59.3779 67.7606C59.2127 67.8784 58.9151 67.7585 58.7034 67.8071C58.2107 67.9202 57.6963 67.7681 58.1179 68.3189C59.0784 69.5739 60.1611 70.8255 61.024 72.12C61.7943 73.2754 63.0399 74.2602 63.8009 75.4127C63.5489 75.5733 62.7911 75.748 61.7763 75.1615C60.7615 74.575 57.1991 71.0071 55.5448 69.2965C54.323 70.0297 52.0992 71.4226 52.9789 71.1293C53.8586 70.8361 59.6491 76.681 62.876 79.9267C61.8306 79.7742 61.9742 79.4206 61.0673 78.9401C58.8399 77.7598 56.7238 76.3724 54.5208 75.147C53.5235 74.5923 52.5888 73.8403 51.6587 73.1774C51.3836 72.9813 50.9999 72.5201 50.6587 72.4639C50.4075 72.4225 50.4474 72.7721 50.3855 72.9176C49.9811 73.8685 49.4606 74.3799 48.6861 75.0143C48.2901 75.3387 49.896 75.4504 50.1182 75.487C52.1278 75.818 54.1235 77.2613 55.6793 78.5041C57.2536 79.7616 58.8132 81.0692 60.5078 82.1617C61.4609 82.7763 62.3812 83.5762 63.2688 84.2852C63.7599 84.6775 64.4372 85.482 64.377 84.4373C64.3381 83.7623 64.3506 82.9649 64.5355 82.3121C64.6266 81.9907 64.6951 81.2785 64.9771 81.0714C65.0463 81.0206 65.5753 80.8158 65.7552 80.7291M65.8103 80.6903C65.8254 80.6919 65.8022 80.7065 65.7552 80.7291M32.9419 68.4572C33.3873 68.4807 33.4289 70.6725 33.3591 70.8533C33.1304 71.4462 32.6761 71.8909 32.395 72.4218C31.9772 73.2107 28.5988 69.9979 28.0586 69.5436C26.6085 68.324 24.7997 67.6367 23.3523 66.4466C22.7623 65.9616 21.8073 65.6023 21.0748 65.4788C20.2984 65.3479 19.5307 65.0556 18.767 64.9425C18.1975 64.8581 18.8592 63.7513 19.0387 63.5055C19.531 62.8312 19.8363 62.2958 20.1815 61.5767C20.4984 60.9164 21.4939 62.0902 21.7688 62.3283C22.3875 62.8642 23.0039 63.3724 23.657 63.8556C25.4963 65.2165 27.4775 66.2972 29.3806 67.5474C30.478 68.2683 31.75 68.5121 32.9682 68.8233M37.3406 58.9267C37.786 58.9502 37.8276 61.142 37.7578 61.3228C37.5291 61.9157 37.0748 62.3604 36.7936 62.8913C36.3759 63.6802 32.9975 60.4674 32.4573 60.0131C31.0072 58.7935 29.1984 58.1062 27.751 56.9161C27.161 56.4311 26.206 56.0718 25.4735 55.9483C24.6971 55.8174 23.9294 55.5251 23.1657 55.412C22.5962 55.3276 23.2579 54.2208 23.4374 53.975C23.9297 53.3007 24.235 52.7653 24.5802 52.0462C24.8971 51.3859 25.8926 52.5597 26.1675 52.7978C26.7862 53.3337 27.4026 53.8418 28.0557 54.3251C29.895 55.686 31.8762 56.7667 33.7793 58.0169C34.8767 58.7378 36.1487 58.9816 37.3668 59.2928M36.7541 79.7308C37.1971 79.6797 37.6036 81.8339 37.565 82.0239C37.4383 82.6466 37.0644 83.1608 36.8757 83.7311C36.5954 84.5786 32.7287 81.974 32.1203 81.6161C30.4871 80.6553 28.5891 80.2793 26.9635 79.3471C26.3009 78.9672 25.2994 78.7721 24.5565 78.7725C23.7691 78.7729 22.9635 78.6126 22.1916 78.6284C21.616 78.6402 22.084 77.4386 22.2199 77.1663C22.5929 76.4194 22.8047 75.8405 23.0252 75.0739C23.2276 74.3701 24.4048 75.3615 24.7155 75.5504C25.415 75.9756 26.1074 76.3739 26.832 76.7415C28.8724 77.7767 31.006 78.5121 33.0909 79.4275C34.2931 79.9553 35.588 79.9837 36.841 80.0874M63.8023 85.4944C63.5911 85.2584 62.7667 85.5375 62.4963 85.6801C62.0815 85.8987 62.0208 86.5759 62.0348 86.9718C62.0659 87.849 61.8902 90.036 62.7133 90.6356C63.1192 90.9313 62.4275 90.6746 62.2821 90.6025C61.5544 90.2418 60.7864 89.9617 60.0592 89.6013C58.8264 88.9902 57.6562 88.7502 56.3015 88.5366C53.7317 88.1314 51.1824 87.9534 48.7038 87.1734C46.6437 86.5252 44.6225 85.4384 42.5071 85.0158C42.2097 84.9563 41.0115 85.024 40.9986 84.7542C40.9587 83.9195 41.4342 83.0731 41.2107 82.2542C41.1687 82.1003 40.9003 81.5034 41.077 81.3963C41.5284 81.1229 42.7564 81.8892 43.1332 82.0812C45.2909 83.181 48.4154 83.2011 50.7353 83.6443C52.8282 84.0441 55.0843 84.9172 57.2174 85.0808C58.131 85.1509 58.9857 85.3619 59.8993 85.1126L61.9195 84.5612C62.3105 84.4545 63.259 84.7382 63.2358 84.7446M59.6359 96.8913C59.3539 97.0355 58.6852 96.4784 58.4842 96.2481C58.1759 95.8948 58.363 95.2411 58.5186 94.8769C58.8633 94.0695 59.4865 91.9659 60.4702 91.7027C60.9554 91.5729 60.2176 91.5635 60.0561 91.5784C59.2473 91.6531 58.4299 91.6379 57.6218 91.7125C56.2516 91.8389 55.0735 91.6416 53.7327 91.3533C51.1893 90.8065 48.7468 90.0549 46.1535 89.8906C43.9982 89.754 41.7213 90.0404 39.5956 89.6733C39.2966 89.6217 38.2032 89.1274 38.094 89.3745C37.7564 90.1388 37.8954 91.0996 37.3921 91.7832C37.2975 91.9117 36.8323 92.372 36.9586 92.5355C37.2812 92.9531 38.7028 92.6801 39.1235 92.6366C41.5324 92.3871 44.4547 93.4929 46.7786 93.9144C48.8752 94.2947 51.2943 94.2921 53.3434 94.9072C54.221 95.1706 55.0944 95.2813 55.857 95.8428L57.5434 97.0844C57.8697 97.3247 58.8568 97.4013 58.8375 97.3871M48.0833 98.9852C47.8922 98.7821 47.1725 99.0459 46.9376 99.1774C46.5772 99.379 46.5387 99.9766 46.5597 100.325C46.6064 101.096 46.4998 103.026 47.2377 103.536C47.6016 103.787 46.987 103.576 46.8574 103.516C46.2088 103.214 45.5264 102.985 44.8783 102.683C43.7794 102.173 42.7439 101.987 41.5465 101.829C39.2751 101.529 37.0267 101.428 34.8273 100.796C32.9993 100.27 31.1959 99.3582 29.3242 99.0327C29.061 98.9869 28.0076 99.0728 27.9903 98.8356C27.9368 98.1016 28.3368 97.346 28.122 96.6299C28.0816 96.4953 27.8322 95.9757 27.9854 95.8775C28.3767 95.6268 29.4748 96.2745 29.8108 96.4353C31.7347 97.356 34.4859 97.3049 36.5382 97.644C38.3896 97.9499 40.3951 98.6689 42.2768 98.766C43.0827 98.8076 43.8398 98.9746 44.6387 98.735L46.4052 98.205C46.747 98.1024 47.5884 98.3314 47.5681 98.3375M12.1004 95.1104C12.3972 95.4387 12.049 94.8326 12.0165 94.657C11.9272 94.1739 11.887 93.6368 11.967 93.1398C12.07 92.4999 12.9708 92.1723 13.459 91.7212C13.7403 91.4612 14.7037 91.3358 15.0254 91.4996C15.6423 91.8139 15.8032 92.4531 16.3193 92.8718C17.4804 93.814 18.9178 93.9963 20.4657 94.3303C21.3224 94.5152 21.961 94.6932 22.8799 94.6597C23.4764 94.638 24.2864 94.4519 24.8572 94.5582C25.3374 94.6477 25.7998 94.5427 25.8873 95.0157C26.0244 95.7567 25.5036 96.2082 24.9988 96.8002C24.6465 97.2134 24.7022 97.7553 24.1813 98.0599C23.5278 98.4421 22.6033 98.2312 22.0023 98.0367C19.9898 97.3852 17.4768 97.506 15.6708 96.522C15.1946 96.2625 14.4949 95.9393 13.9037 95.8853C13.3634 95.836 12.8472 95.7012 12.3103 95.677C11.9922 95.6627 11.7078 95.1483 11.9725 95.4411M21.8607 89.1238C22.2339 89.487 21.7452 88.794 21.6722 88.5855C21.4714 88.012 21.3074 87.3677 21.2731 86.7583C21.2291 85.9738 22.0566 85.4766 22.442 84.8766C22.6641 84.5308 23.601 84.2708 23.9612 84.4325C24.652 84.7425 24.9605 85.4966 25.5742 85.9443C26.9551 86.9516 28.438 87.01 30.0666 87.2391C30.9679 87.3659 31.6491 87.5089 32.5624 87.3649C33.1554 87.2715 33.9245 86.9555 34.5212 87.0196C35.0232 87.0736 35.4625 86.8946 35.6592 87.4562C35.9672 88.3359 35.5492 88.9399 35.1794 89.712C34.9214 90.2508 35.1021 90.8991 34.6501 91.3258C34.083 91.8611 33.1077 91.7105 32.4605 91.5432C30.2931 90.983 27.8018 91.4119 25.7648 90.4267C25.2277 90.1669 24.4519 89.8553 23.8468 89.8568C23.2939 89.8581 22.7454 89.7533 22.2016 89.7846C21.8795 89.8031 21.4759 89.2138 21.8086 89.5376M61.8839 106.462C61.3304 106.223 61.472 104.92 61.5511 104.465C61.5987 104.191 62.0926 103.269 61.9469 103.026C61.6482 102.529 60.3099 103.184 59.8613 103.217C59.3741 103.253 58.8168 102.986 58.3534 102.844C57.5837 102.609 56.767 102.677 55.9754 102.435C55.1567 102.185 54.3131 101.974 53.5087 101.681C52.9494 101.477 52.3861 100.951 51.8305 100.683C51.3067 100.431 50.8456 100.232 50.2763 100.058C49.4776 99.8143 50.4658 102.07 50.4393 102.409C50.3611 103.41 52.1345 103.26 52.6561 103.721C53.3166 104.304 54.4659 104.121 55.1874 104.609C55.7074 104.961 56.3433 105.086 56.9425 105.269C58.4462 105.729 59.9672 105.876 61.4486 106.329M85.4356 96.732C83.6959 94.3936 81.4278 92.3995 79.5596 90.123C78.515 88.85 77.5463 87.4101 76.6446 86.0631C76.0437 85.1654 74.323 83.3744 73.0681 84.1662C72.6298 84.4427 72.1843 85.2123 72.0718 85.7096C71.8938 86.4958 72.2368 87.0101 72.5491 87.676C72.8638 88.3472 73.332 89.04 74.0167 89.4329C74.757 89.8579 75.5242 90.4799 76.2999 90.81C78.3405 91.6786 79.8102 93.9739 81.2342 95.5885C81.89 96.3321 82.8737 96.9862 83.3947 97.8119C83.9715 98.7261 84.6362 99.5843 85.1257 100.565C85.5903 101.495 85.9691 102.43 86.0472 103.457C86.0589 103.61 86.2275 104.442 85.889 104.248C85.3062 103.913 84.989 102.901 84.6346 102.339C83.0404 99.8125 80.9872 97.64 78.3554 96.2654C77.3149 95.7219 76.6238 94.8113 75.7616 94.0402C74.8242 93.2018 74.1384 92.1457 73.2691 91.246C72.2821 90.2245 70.9885 89.5172 70.2195 88.2983C69.5897 87.3001 69.1199 85.9708 67.8384 85.6807C66.9094 85.4705 66.1053 86.7728 65.7024 87.4549C65.4658 87.8555 65.3135 88.2002 65.2113 88.6516C65.1001 89.1429 65.6131 89.5802 65.8294 89.996C66.0602 90.4397 66.3549 90.881 66.7026 91.2467C67.0428 91.6044 67.651 91.9314 67.9078 92.3385C68.5618 93.3751 68.9596 94.2009 70.1809 94.6425C70.7118 94.8344 71.1679 95.1367 71.6275 95.4586C72.1718 95.8398 72.8357 96.0924 73.3323 96.5327C74.2953 97.3866 75.5783 97.976 76.4635 98.907C77.4679 99.9632 78.4853 100.994 79.4708 102.072C79.8993 102.541 80.3152 103.011 80.713 103.495C79.9774 103.35 79.2251 103.247 78.5505 103.094C77.8048 102.925 77.0613 102.353 76.4712 101.88C75.7389 101.293 74.8941 100.853 74.2644 100.135C73.7184 99.5115 73.1305 98.935 72.5325 98.3592C71.5825 97.4447 70.3766 96.8463 69.4167 95.9471C68.625 95.2055 67.6614 94.518 66.657 94.0905C65.9765 93.8009 65.2057 93.3835 64.4926 93.2221C63.6995 93.0426 62.8986 93.0702 62.1265 93.3061C61.8109 93.4026 61.7288 94.0595 61.7293 94.3312C61.7308 95.019 62.0507 95.1648 62.445 95.6702C63.0473 96.4423 63.2797 97.4694 63.9556 98.1802C64.6818 98.9439 65.6337 99.326 66.5363 99.8242C67.3603 100.279 68.2098 100.777 69.1807 100.822C69.8478 100.853 70.7779 100.766 71.4075 100.989C72.057 101.218 72.675 101.503 73.2938 101.808C74.068 102.189 74.7151 102.822 75.4171 103.314C76.2668 103.909 78.1452 105.006 79.0512 105.512M79.0512 105.512C79.6539 105.532 83.1009 106.736 82.105 105.157C81.7552 104.603 81.4432 104.119 80.9976 103.633M79.0512 105.512C78.6195 105.498 78.1835 105.592 77.7539 105.618C76.9831 105.665 76.0759 105.307 75.3361 105.14C74.4083 104.93 73.4679 104.813 72.5333 104.629C71.1573 104.358 69.7122 105.261 68.6297 104.226C68.2016 103.817 67.9358 103.509 67.7362 102.943C67.5851 102.515 67.3368 102.368 67.1558 101.918C67.0348 101.618 66.5395 101.065 66.1502 101.161C65.6997 101.271 64.9965 101.323 64.9123 101.695C64.8073 102.159 64.6678 102.859 64.2515 103.171C63.9903 103.699 63.6978 105.573 64.1846 106.057C65.0532 106.922 66.3143 106.753 67.4308 106.95C68.5445 107.147 69.1417 107.53 70.2467 107.78C71.6903 108.107 72.2433 108.789 73.6852 109.115C75.3094 109.483 74.4271 109.96 76.0608 110.329C77.3116 110.613 77.4619 110.673 78.5417 111.333C79.6752 112.025 80.2669 111.598 80.9888 111.909C82.3166 112.481 83.4075 112.16 84.2516 112.677C85.9492 113.717 87.7595 113.341 88.002 113.992M79.8255 139.776L77.9465 140.614C77.3645 140.874 77.082 141.379 76.7732 141.818C76.263 142.544 76.3114 142.551 76.7609 142.931C77.1846 143.289 78.286 143.77 79.0029 143.823C79.441 143.855 79.5929 144.184 80.1236 144.165C80.4053 144.154 81.1938 144.021 81.2515 143.644C81.318 143.209 81.278 142.581 81.1896 142.178C81.1492 141.993 81.0963 141.885 81.1565 141.673C81.2371 141.39 81.6371 141.156 81.687 140.917L79.8255 139.776ZM62.1992 165.838L60.3203 166.677C59.7383 166.937 59.4558 167.442 59.1469 167.881C58.6368 168.607 58.6851 168.614 59.1346 168.994C59.5583 169.352 60.6598 169.833 61.3766 169.885C61.8147 169.918 61.9666 170.247 62.4973 170.227C62.779 170.217 63.5676 170.084 63.6252 169.707C63.6917 169.272 63.6517 168.644 63.5633 168.24C63.5229 168.056 63.47 167.948 63.5302 167.736C63.6108 167.453 64.0108 167.219 64.0607 166.98L62.1992 165.838ZM36.2071 141.543C36.8696 142.203 37.2446 143.141 37.8197 143.911C37.9441 144.077 38.235 144.198 38.2705 144.464C38.395 145.4 36.1219 145.828 35.732 146.116C34.955 146.69 33.9579 147.221 33.2638 148.004C32.6475 148.699 32.0491 149.578 31.3988 150.191C31.0394 150.53 31.5281 149.266 31.5956 149.121C31.9467 148.37 32.2458 147.528 32.6367 146.818C33.1207 145.938 33.8335 145.151 34.2479 144.243C34.552 143.576 35.033 143.075 35.3133 142.426C35.4391 142.135 36.3222 140.917 36.2071 141.543ZM36.8394 149.937C37.5087 150.589 37.8933 151.523 38.4763 152.287C38.6025 152.453 38.8946 152.57 38.9328 152.836C39.0671 153.77 36.7985 154.222 36.4115 154.514C35.6405 155.096 34.6489 155.637 33.9629 156.427C33.3539 157.129 32.7645 158.014 32.1206 158.634C31.7647 158.976 32.2403 157.707 32.3063 157.562C32.6497 156.806 32.9401 155.962 33.3236 155.248C33.7986 154.363 34.5032 153.569 34.9082 152.656C35.2053 151.986 35.6812 151.48 35.9548 150.829C36.0775 150.537 36.9481 149.309 36.8394 149.937ZM45.4211 157.712C45.0267 156.865 44.2721 156.193 43.744 155.39C43.6297 155.216 43.6157 154.902 43.3769 154.778C42.5397 154.342 41.3633 156.334 40.9598 156.602C40.1559 157.137 39.3167 157.894 38.3443 158.28C37.481 158.623 36.4506 158.886 35.6528 159.289C35.2119 159.512 36.5671 159.483 36.7259 159.468C37.5521 159.394 38.4447 159.399 39.2461 159.274C40.2384 159.118 41.2203 158.716 42.216 158.635C42.9463 158.577 43.5815 158.295 44.2866 158.252C44.6028 158.233 46.0492 157.817 45.4211 157.712ZM78.1419 74.9431L76.5461 72.8946C76.0517 72.26 76.0366 71.5299 75.9532 70.8571C75.8155 69.7457 75.8735 69.7665 76.5995 69.6099C77.284 69.4623 78.7959 69.5804 79.6258 69.9467C80.1329 70.1706 80.4974 69.8941 81.0771 70.2304C81.3848 70.4089 82.1842 71.0251 82.0248 71.4793C81.8408 72.0035 81.4238 72.6796 81.0862 73.0761C80.932 73.2573 80.8085 73.3471 80.7502 73.6183C80.6722 73.9814 80.9787 74.4798 80.8929 74.775L78.1419 74.9431ZM69.0654 38.4018L67.1629 40.1692C66.5736 40.7166 65.8475 40.795 65.1845 40.9364C64.0892 41.1699 64.1049 41.1103 63.886 40.4006C63.6796 39.7315 63.6662 38.215 63.9593 37.3565C64.1383 36.8319 63.8313 36.4927 64.1161 35.8861C64.2673 35.564 64.8119 34.7143 65.2782 34.8337C65.8164 34.9716 66.526 35.3285 66.9503 35.6304C67.1443 35.7683 67.2444 35.8836 67.5196 35.9182C67.8881 35.9645 68.358 35.6159 68.6596 35.6757L69.0654 38.4018ZM25.6824 36.4438L24.6522 37.4008C24.3331 37.6972 23.94 37.7397 23.5809 37.8162C22.9878 37.9426 22.9964 37.9104 22.8778 37.5261C22.766 37.1638 22.7588 36.3426 22.9175 35.8777C23.0145 35.5936 22.8482 35.41 23.0024 35.0815C23.0843 34.9071 23.3792 34.447 23.6317 34.5117C23.9231 34.5863 24.3074 34.7796 24.5371 34.9431C24.6421 35.0178 24.6964 35.0802 24.8454 35.0989C25.0449 35.124 25.2994 34.9352 25.4627 34.9676L25.6824 36.4438ZM61.4099 51.3374C60.967 51.1841 60.1143 51.0697 59.6713 50.9164C59.2597 50.774 59.0376 50.4469 58.8013 50.1659C58.411 49.7017 58.4435 49.6941 58.7271 49.4089C58.9944 49.14 59.7159 48.7478 60.2009 48.6695C60.4972 48.6217 60.5812 48.3886 60.9436 48.3704C61.136 48.3608 61.6808 48.4049 61.7423 48.6582C61.8133 48.9505 61.8232 49.3805 61.7869 49.6602C61.7703 49.788 61.7406 49.8651 61.7941 50.0055C61.8658 50.1934 62.828 51.178 62.8761 51.3374H61.4099ZM19.6904 77.2135C19.8028 76.1125 19.4423 74.705 19.3916 73.4751C19.3806 73.2091 19.557 72.9607 19.3893 72.5803C18.8013 71.2469 16.3964 71.2897 15.8228 70.9994C14.68 70.4208 13.3672 69.9626 12.1433 69.0704C11.0567 68.2783 9.8483 67.2258 8.7921 66.557C8.20834 66.1874 9.60532 67.8056 9.77555 67.9872C10.6615 68.932 11.567 70.0156 12.4587 70.8926C13.563 71.9785 14.8064 72.8702 15.8685 74.0155C16.6475 74.8556 17.4648 75.4169 18.2084 76.2383C18.5419 76.6067 20.266 78.0505 19.6904 77.2135ZM17.098 86.7055C17.961 85.9012 18.4729 84.7332 19.2303 83.7859C19.3941 83.581 19.766 83.4414 19.8219 83.1063C20.0178 81.9314 17.1683 81.2972 16.6884 80.9179C15.7321 80.1621 14.4965 79.4504 13.6534 78.434C12.9049 77.5318 12.1865 76.3981 11.3917 75.5978C10.9524 75.1555 11.5164 76.7707 11.5955 76.9557C12.0072 77.9183 12.3496 78.9915 12.8132 79.9043C13.3872 81.0344 14.2537 82.0557 14.7388 83.2193C15.0946 84.0727 15.6806 84.7252 16.0073 85.5546C16.1538 85.9266 17.2173 87.5002 17.098 86.7055ZM15.794 60.9393C16.6653 60.144 17.1892 58.9813 17.9563 58.0418C18.1222 57.8386 18.4955 57.7029 18.5549 57.3684C18.7629 56.1956 15.9201 55.532 15.4441 55.1477C14.4957 54.3821 13.2675 53.6577 12.4349 52.6327C11.6958 51.7228 10.9891 50.5817 10.2026 49.7733C9.76787 49.3265 10.3151 50.9474 10.3923 51.1332C10.7941 52.1 11.1254 53.1767 11.5796 54.0942C12.1419 55.2302 12.9978 56.2604 13.4708 57.4289C13.8178 58.286 14.3971 58.9445 14.7152 59.7772C14.8579 60.1507 15.9051 61.7352 15.794 60.9393ZM23.3793 49.9986C22.8466 51.0512 21.8669 51.8676 21.1675 52.8584C21.0162 53.0728 20.9855 53.4688 20.6791 53.6156C19.605 54.1304 18.2037 51.5695 17.7059 51.2139C16.7141 50.5054 15.687 49.5163 14.4763 48.9889C13.4016 48.5207 12.1129 48.1458 11.1232 47.6047C10.5763 47.3057 12.2845 47.3985 12.4842 47.423C13.5233 47.551 14.6495 47.5816 15.6551 47.7732C16.9002 48.0105 18.1222 48.5589 19.3747 48.7014C20.2934 48.806 21.0831 49.1875 21.9706 49.2708C22.3687 49.3081 24.1759 49.8923 23.3793 49.9986ZM49.0362 41.2996C48.2765 42.0107 47.3176 42.3628 46.4732 42.9626C46.2906 43.0923 46.1155 43.4196 45.8581 43.4371C44.9556 43.4984 45.0436 40.8184 44.858 40.3395C44.4881 39.3852 44.205 38.179 43.6214 37.3024C43.1033 36.5242 42.4091 35.7502 41.9751 34.9398C41.7352 34.4918 42.8137 35.1726 42.9343 35.2639C43.5624 35.739 44.2853 36.1617 44.8666 36.6794C45.5863 37.3205 46.1691 38.219 46.9306 38.7817C47.4893 39.1945 47.8552 39.7984 48.4019 40.182C48.647 40.3541 49.5977 41.4892 49.0362 41.2996ZM9.68279 94.2288C9.93433 93.219 9.77521 92.2099 9.88819 91.1804C9.91262 90.9577 10.1134 90.6454 10.0034 90.412C9.61774 89.5938 7.31932 90.9751 6.81062 91.046C5.797 91.1872 4.60548 91.527 3.55568 91.4438C2.6237 91.3699 1.6097 91.1401 0.690467 91.1554C0.182415 91.1638 1.30199 91.7747 1.44048 91.8357C2.1612 92.1531 2.88229 92.579 3.61744 92.8348C4.52773 93.1515 5.59626 93.2233 6.45854 93.6147C7.09103 93.9018 7.79663 93.9276 8.3978 94.2185C8.66741 94.3489 10.1217 94.6269 9.68279 94.2288Z" stroke="#00FFE0" stroke-linecap="round"/>
</svg>
