<svg width="528" height="357" viewBox="0 0 528 357" fill="none" xmlns="http://www.w3.org/2000/svg">
<path d="M456.672 59.7494C456.156 59.7494 455.657 59.9306 455.261 60.2613L431.058 80.4844V291.605L477.826 291.605C478.39 291.605 478.932 291.388 479.341 291L510.776 261.153C511.214 260.737 511.461 260.16 511.461 259.557V241.652V214.32V192.642V170.965V148.344V126.667V104.047V80.4844V61.9501C511.461 60.7347 510.476 59.7494 509.261 59.7494H456.672Z" fill="#413F53"/>
<path fill-rule="evenodd" clip-rule="evenodd" d="M349.094 301.972H275.45C274.931 301.972 274.428 302.156 274.031 302.491L248.46 324.073C248.062 324.408 247.56 324.592 247.04 324.592H156.831C156.355 324.592 155.892 324.438 155.511 324.152L119.258 296.977C118.704 296.562 118.377 295.909 118.377 295.216L118.377 94.6246C118.377 94.0211 118.625 93.4442 119.063 93.0287L163.402 50.9292C163.811 50.5409 164.353 50.3244 164.917 50.3244L308.085 50.3244C308.649 50.3244 309.192 50.5409 309.6 50.9292L330.165 70.4547C330.573 70.843 331.116 71.0594 331.68 71.0594H422.901C424.117 71.0594 425.102 70.0742 425.102 68.8588V62.5769V36.5026C425.102 35.2872 424.117 34.3019 422.901 34.3019H392.231C391.667 34.3019 391.124 34.0854 390.715 33.6972L365.188 9.45918C364.779 9.07089 364.237 8.85441 363.673 8.85441L247.42 8.85441L193.818 8.85441L119.156 8.85441C118.652 8.85441 118.164 9.02743 117.772 9.34453L1.58953 103.386C1.07334 103.804 0.773438 104.433 0.773438 105.097L0.773438 280.026C0.773438 280.78 1.15967 281.482 1.7969 281.885L117.838 355.353C118.19 355.576 118.599 355.695 119.015 355.695H161.061H242.003C242.567 355.695 243.109 355.478 243.518 355.09L272.024 328.024C272.433 327.636 272.975 327.42 273.539 327.42H346.893C348.108 327.42 349.094 326.434 349.094 325.219V309.512V301.972ZM69.4861 271.787C70.9274 272.937 73.0597 271.911 73.0597 270.067L73.0597 106.874V106.874C73.0597 105.708 71.729 105.041 70.7943 105.739L34.749 132.66C34.1928 133.076 33.8652 133.729 33.8652 134.423L33.8652 242.293C33.8652 242.962 34.1698 243.595 34.6929 244.013L69.4861 271.787Z" fill="#22212C"/>
<path d="M349.094 301.972H275.45C274.931 301.972 274.428 302.156 274.031 302.491L248.46 324.073C248.062 324.408 247.56 324.592 247.04 324.592H156.831C156.355 324.592 155.892 324.438 155.511 324.152L119.258 296.977C118.704 296.562 118.377 295.909 118.377 295.216L118.377 94.6246C118.377 94.0211 118.625 93.4442 119.063 93.0287L163.402 50.9292C163.811 50.5409 164.353 50.3244 164.917 50.3244L308.085 50.3244C308.649 50.3244 309.192 50.5409 309.6 50.9292L330.165 70.4547C330.573 70.843 331.116 71.0594 331.68 71.0594H422.901C424.117 71.0594 425.102 70.0742 425.102 68.8588V62.5769M349.094 301.972L339.804 293.152C339.395 292.764 338.853 292.547 338.289 292.547H267.583C267.019 292.547 266.477 292.764 266.068 293.152L243.518 314.562C243.109 314.951 242.567 315.167 242.003 315.167H156.976C156.412 315.167 155.87 314.951 155.461 314.562L145.179 304.8L126.011 286.6C125.574 286.185 125.326 285.608 125.326 285.004L125.326 99.3371C125.326 98.7336 125.574 98.1567 126.011 97.7412L168.365 57.5267C168.774 57.1384 169.316 56.9219 169.88 56.9219L305.107 56.9219C305.671 56.9219 306.214 57.1384 306.623 57.5267L330.165 79.8797C330.573 80.268 331.116 80.4844 331.68 80.4844L431.058 80.4844M349.094 301.972V309.512M425.102 62.5769V36.5026C425.102 35.2872 424.117 34.3019 422.901 34.3019H392.231C391.667 34.3019 391.124 34.0854 390.715 33.6972L365.188 9.45918C364.779 9.07089 364.237 8.85441 363.673 8.85441L247.42 8.85441L193.818 8.85441L119.156 8.85441C118.652 8.85441 118.164 9.02743 117.772 9.34453L1.58953 103.386C1.07334 103.804 0.773438 104.433 0.773438 105.097L0.773438 280.026C0.773438 280.78 1.15967 281.482 1.7969 281.885L117.838 355.353C118.19 355.576 118.599 355.695 119.015 355.695H161.061H242.003C242.567 355.695 243.109 355.478 243.518 355.09L272.024 328.024C272.433 327.636 272.975 327.42 273.539 327.42H346.893C348.108 327.42 349.094 326.434 349.094 325.219V309.512M425.102 62.5769H433.157C433.721 62.5769 434.264 62.3605 434.673 61.9722L453.252 44.3317C453.66 43.9434 454.203 43.7269 454.767 43.7269H524.15C525.366 43.7269 526.351 44.7122 526.351 45.9276V267.097C526.351 267.7 526.103 268.277 525.666 268.693L483.312 308.907C482.903 309.296 482.36 309.512 481.797 309.512L360.013 309.512H357.035H349.094M431.058 80.4844L455.261 60.2613C455.657 59.9306 456.156 59.7494 456.672 59.7494H509.261C510.476 59.7494 511.461 60.7347 511.461 61.9501V80.4844M431.058 80.4844V291.605M511.461 80.4844H464.453C464.036 80.4844 463.628 80.6028 463.276 80.8257L449.918 89.2811M511.461 80.4844V104.047M360.013 291.605L349.731 281.842C349.322 281.454 348.779 281.237 348.215 281.237H261.627C261.063 281.237 260.521 281.454 260.112 281.842L235.933 304.8M360.013 291.605H431.058M360.013 291.605H365.968H375.895H380.858H390.784H395.747H405.674H410.637H420.563H431.058M511.461 104.047H480.69M511.461 104.047V126.667M511.461 126.667H459.844M511.461 126.667V148.344M511.461 148.344H479.912C478.697 148.344 477.712 149.33 477.712 150.545V151.172M511.461 148.344V170.965M511.461 170.965H459.844M511.461 170.965V192.642M511.461 192.642H467.785M511.461 192.642V214.32M511.461 214.32H459.844M511.461 214.32V241.652M511.461 241.652V259.557C511.461 260.16 511.214 260.737 510.776 261.153L479.341 291C478.932 291.388 478.39 291.605 477.826 291.605L431.058 291.605M511.461 241.652H493.22C492.815 241.652 492.419 241.541 492.073 241.33L479.232 233.492C478.887 233.281 478.49 233.17 478.086 233.17H473.741M73.0597 106.874L73.0597 270.067C73.0597 271.911 70.9274 272.937 69.4861 271.787L34.6929 244.013C34.1698 243.595 33.8652 242.962 33.8652 242.293L33.8652 134.423C33.8652 133.729 34.1928 133.076 34.749 132.66L70.7943 105.739C71.729 105.041 73.0597 105.708 73.0597 106.874V106.874Z" stroke="black" stroke-width="1.41679"/>
<circle cx="474.444" cy="103.59" r="7.08393" fill="#FF00E5"/>
<circle cx="454.023" cy="124.325" r="7.08393" fill="#FF00E5"/>
<circle cx="472.604" cy="154.484" r="7.08393" fill="#FF00E5"/>
<circle cx="454.023" cy="171.451" r="7.08393" fill="#FF00E5"/>
<circle cx="461.964" cy="192.186" r="7.08393" fill="#FF00E5"/>
<circle cx="454.023" cy="214.804" r="7.08393" fill="#FF00E5"/>
<circle cx="466.643" cy="233.655" r="7.08393" fill="#FF00E5"/>
<circle cx="444.097" cy="92.2808" r="7.08393" fill="#FF00E5"/>
<circle cx="208.604" cy="7.76475" r="7.08393" fill="#FF00E5"/>
<circle cx="232.61" cy="7.9536" r="7.08393" fill="#FF00E5"/>
</svg>
