<svg width="5978" height="154" viewBox="0 0 5978 154" fill="none" xmlns="http://www.w3.org/2000/svg">
<path d="M2792.93 114.251C2796.06 114.251 2799.1 115.074 2801.55 116.585L2819.57 127.721L2837.6 138.856C2840.04 140.367 2843.08 141.19 2846.21 141.19L3089.68 141.19M2439.63 141.454C2442.76 141.454 2445.8 140.631 2448.25 139.12L2484.29 116.849C2486.74 115.338 2489.78 114.514 2492.91 114.514L2723.8 114.514M1776.93 116.848C1779.37 115.338 1782.41 114.514 1785.55 114.514L2085.95 114.514C2089.08 114.514 2092.12 115.338 2094.56 116.848L2130.61 139.12C2133.06 140.63 2136.1 141.454 2139.23 141.454L2328.68 141.454M1740.88 139.12C1738.43 140.631 1735.4 141.454 1732.26 141.454M3854.36 141.454H3607.21M3545.34 139.12L3509.29 116.848C3506.85 115.338 3503.81 114.514 3500.68 114.514L3384.15 114.514M3146.99 141.454C3150.13 141.454 3153.17 140.631 3155.61 139.12L3191.66 116.848C3194.11 115.338 3197.14 114.514 3200.28 114.514L3324.3 114.514" stroke="#FF00E5" stroke-width="3.14612" stroke-linecap="round" stroke-linejoin="round"/>
<path d="M3139.81 9.78443H2895.86H2882.94M2786.13 36.7236C2789.26 36.7236 2792.3 35.9005 2794.75 34.3896L2819.01 19.3992M2786.51 36.4601L2765.97 36.4601M2132.43 9.52097C2129.3 9.52097 2126.26 10.3441 2123.81 11.855L2087.76 34.1262C2085.32 35.6371 2082.28 36.4602 2079.15 36.4602L1778.74 36.4602C1775.61 36.4602 1772.57 35.637 1770.13 34.1261L1734.08 11.855C1731.63 10.3441 1728.59 9.52094 1725.46 9.52094M3847.56 9.52092L3774.99 9.52093M3140.19 9.52094C3143.33 9.52094 3146.36 10.3441 3148.81 11.855L3184.86 34.1261C3187.31 35.637 3190.34 36.4602 3193.48 36.4602L3206.65 36.4602M3280.1 36.4602L3493.88 36.4602C3497.01 36.4602 3500.05 35.6371 3502.49 34.1262L3538.54 11.855C3540.99 10.3441 3544.03 9.52097 3547.16 9.52097L3702.42 9.52095M2498.02 36.4601L2486.11 36.4601C2482.98 36.4601 2479.94 35.637 2477.49 34.1261L2441.44 11.855C2439 10.3441 2435.96 9.52092 2432.83 9.52092L2234.15 9.52096M2534.06 36.4601L2728.56 36.4601" stroke="#FF00E5" stroke-width="3.14612" stroke-linecap="round" stroke-linejoin="round"/>
<ellipse cx="7.48075" cy="7.48075" rx="7.48075" ry="7.48075" transform="matrix(-1 0 0 1 2846.21 4.08008)" fill="#00FFE0"/>
<circle cx="4.08041" cy="4.08041" r="4.08041" transform="matrix(-1 0 0 1 2740.12 110.172)" fill="#00FFE0"/>
<circle cx="4.08041" cy="4.08041" r="4.08041" transform="matrix(-1 0 0 1 2751 110.172)" fill="#00FFE0"/>
<circle cx="4.08041" cy="4.08041" r="4.08041" transform="matrix(-1 0 0 1 2761.89 110.172)" fill="#00FFE0"/>
<circle cx="4.08041" cy="4.08041" r="4.08041" transform="matrix(-1 0 0 1 2772.77 110.172)" fill="#00FFE0"/>
<circle cx="4.08041" cy="4.08041" r="4.08041" transform="matrix(-1 0 0 1 2783.65 110.172)" fill="#00FFE0"/>
<ellipse cx="7.48075" cy="7.48075" rx="7.48075" ry="7.48075" transform="matrix(-1 0 0 1 2872.06 1.36035)" fill="#00FFE0"/>
<circle cx="12.8066" cy="12.8066" r="11.2336" transform="matrix(-1 0 0 1 3240.42 24.4824)" stroke="#00FFE0" stroke-width="3.14612"/>
<circle cx="12.8066" cy="12.8066" r="11.2336" transform="matrix(-1 0 0 1 3273.07 24.4824)" stroke="#00FFE0" stroke-width="3.14612"/>
<path d="M3344.01 114.251C3344.01 120.143 3348.78 124.919 3354.68 124.919C3360.57 124.919 3365.34 120.143 3365.34 114.251C3365.34 108.359 3360.57 103.583 3354.68 103.583C3348.78 103.583 3344.01 108.359 3344.01 114.251Z" stroke="#00FFE0" stroke-width="3.14612"/>
<path d="M3869.08 129.213C3869.08 135.105 3873.85 139.881 3879.75 139.881C3885.64 139.881 3890.41 135.105 3890.41 129.213C3890.41 123.321 3885.64 118.545 3879.75 118.545C3873.85 118.545 3869.08 123.321 3869.08 129.213Z" stroke="#00FFE0" stroke-width="3.14612"/>
<path d="M2340.46 141.454C2340.46 147.346 2345.23 152.122 2351.12 152.122C2357.02 152.122 2361.79 147.346 2361.79 141.454C2361.79 135.562 2357.02 130.786 2351.12 130.786C2345.23 130.786 2340.46 135.562 2340.46 141.454Z" stroke="#00FFE0" stroke-width="3.14612"/>
<path d="M2374.46 141.454C2374.46 147.346 2379.24 152.122 2385.13 152.122C2391.02 152.122 2395.8 147.346 2395.8 141.454C2395.8 135.562 2391.02 130.786 2385.13 130.786C2379.24 130.786 2374.46 135.562 2374.46 141.454Z" stroke="#00FFE0" stroke-width="3.14612"/>
<path d="M2408.46 141.454C2408.46 147.346 2413.24 152.122 2419.13 152.122C2425.02 152.122 2429.8 147.346 2429.8 141.454C2429.8 135.562 2425.02 130.786 2419.13 130.786C2413.24 130.786 2408.46 135.562 2408.46 141.454Z" stroke="#00FFE0" stroke-width="3.14612"/>
<rect x="2506.18" y="27.2031" width="19.0419" height="19.0419" rx="3.05388" fill="#00FFE0"/>
<rect x="2737.4" y="27.2031" width="19.0419" height="19.0419" rx="3.05388" fill="#00FFE0"/>
<rect x="3101.92" y="136.014" width="10.8811" height="10.8811" rx="3.05388" fill="#00FFE0"/>
<rect x="3123.68" y="136.014" width="10.8811" height="10.8811" rx="3.05388" fill="#00FFE0"/>
<circle cx="4.08041" cy="4.08041" r="4.08041" transform="matrix(-1 0 0 1 3558.93 137.373)" fill="#00FFE0"/>
<circle cx="4.08041" cy="4.08041" r="4.08041" transform="matrix(-1 0 0 1 3569.81 137.373)" fill="#00FFE0"/>
<circle cx="4.08041" cy="4.08041" r="4.08041" transform="matrix(-1 0 0 1 3580.69 137.373)" fill="#00FFE0"/>
<circle cx="4.08041" cy="4.08041" r="4.08041" transform="matrix(-1 0 0 1 3591.57 137.373)" fill="#00FFE0"/>
<circle cx="4.08041" cy="4.08041" r="4.08041" transform="matrix(-1 0 0 1 3602.45 137.373)" fill="#00FFE0"/>
<rect x="3716.7" width="19.0419" height="19.0419" rx="3.05388" fill="#00FFE0"/>
<rect x="3745.26" width="19.0419" height="19.0419" rx="3.05388" fill="#00FFE0"/>
<circle cx="4.08041" cy="4.08041" r="4.08041" transform="matrix(-1 0 0 1 2191.99 5.44043)" fill="#00FFE0"/>
<circle cx="4.08041" cy="4.08041" r="4.08041" transform="matrix(-1 0 0 1 2181.11 5.44043)" fill="#00FFE0"/>
<circle cx="4.08041" cy="4.08041" r="4.08041" transform="matrix(-1 0 0 1 2170.23 5.44043)" fill="#00FFE0"/>
<circle cx="4.08041" cy="4.08041" r="4.08041" transform="matrix(-1 0 0 1 2159.35 5.44043)" fill="#00FFE0"/>
<circle cx="4.08041" cy="4.08041" r="4.08041" transform="matrix(-1 0 0 1 2148.47 5.44043)" fill="#00FFE0"/>
<circle cx="4.08041" cy="4.08041" r="4.08041" transform="matrix(-1 0 0 1 2202.87 5.44043)" fill="#00FFE0"/>
<circle cx="4.08041" cy="4.08041" r="4.08041" transform="matrix(-1 0 0 1 2213.75 5.44043)" fill="#00FFE0"/>
<circle cx="4.08041" cy="4.08041" r="4.08041" transform="matrix(-1 0 0 1 2224.63 5.44043)" fill="#00FFE0"/>
<path d="M4914.57 114.251C4917.7 114.251 4920.74 115.074 4923.19 116.585L4941.21 127.721L4959.24 138.856C4961.68 140.367 4964.72 141.19 4967.85 141.19L5211.32 141.19M4561.27 141.454C4564.4 141.454 4567.44 140.631 4569.89 139.12L4605.93 116.849C4608.38 115.338 4611.42 114.514 4614.55 114.514L4845.44 114.514M3898.57 116.848C3901.01 115.338 3904.05 114.514 3907.19 114.514L4207.59 114.514C4210.72 114.514 4213.76 115.338 4216.2 116.848L4252.25 139.12C4254.7 140.63 4257.74 141.454 4260.87 141.454L4450.32 141.454M3862.52 139.12C3860.07 140.631 3857.04 141.454 3853.9 141.454M5976 141.454H5728.85M5666.98 139.12L5630.93 116.848C5628.49 115.338 5625.45 114.514 5622.32 114.514L5505.79 114.514M5268.63 141.454C5271.77 141.454 5274.81 140.631 5277.25 139.12L5313.3 116.848C5315.75 115.338 5318.78 114.514 5321.92 114.514L5445.94 114.514" stroke="#FF00E5" stroke-width="3.14612" stroke-linecap="round" stroke-linejoin="round"/>
<path d="M5261.45 9.78443H5017.5H5004.58M4907.77 36.7236C4910.9 36.7236 4913.94 35.9005 4916.39 34.3896L4940.65 19.3992M4908.15 36.4601L4887.61 36.4601M4254.07 9.52097C4250.94 9.52097 4247.9 10.3441 4245.45 11.855L4209.4 34.1262C4206.96 35.6371 4203.92 36.4602 4200.79 36.4602L3900.39 36.4602C3897.25 36.4602 3894.21 35.637 3891.77 34.1261L3855.72 11.855C3853.27 10.3441 3850.23 9.52094 3847.1 9.52094M5969.2 9.52092L5896.63 9.52093M5261.83 9.52094C5264.97 9.52094 5268 10.3441 5270.45 11.855L5306.5 34.1261C5308.95 35.637 5311.98 36.4602 5315.12 36.4602L5328.29 36.4602M5401.74 36.4602L5615.52 36.4602C5618.65 36.4602 5621.69 35.6371 5624.13 34.1262L5660.18 11.855C5662.63 10.3441 5665.67 9.52097 5668.8 9.52097L5824.06 9.52095M4619.66 36.4601L4607.75 36.4601C4604.62 36.4601 4601.58 35.637 4599.13 34.1261L4563.08 11.855C4560.64 10.3441 4557.6 9.52092 4554.47 9.52092L4355.79 9.52096M4655.7 36.4601L4850.2 36.4601" stroke="#FF00E5" stroke-width="3.14612" stroke-linecap="round" stroke-linejoin="round"/>
<ellipse cx="7.48075" cy="7.48075" rx="7.48075" ry="7.48075" transform="matrix(-1 0 0 1 4967.85 4.08008)" fill="#00FFE0"/>
<circle cx="4.08041" cy="4.08041" r="4.08041" transform="matrix(-1 0 0 1 4861.76 110.172)" fill="#00FFE0"/>
<circle cx="4.08041" cy="4.08041" r="4.08041" transform="matrix(-1 0 0 1 4872.65 110.172)" fill="#00FFE0"/>
<circle cx="4.08041" cy="4.08041" r="4.08041" transform="matrix(-1 0 0 1 4883.53 110.172)" fill="#00FFE0"/>
<circle cx="4.08041" cy="4.08041" r="4.08041" transform="matrix(-1 0 0 1 4894.41 110.172)" fill="#00FFE0"/>
<circle cx="4.08041" cy="4.08041" r="4.08041" transform="matrix(-1 0 0 1 4905.29 110.172)" fill="#00FFE0"/>
<ellipse cx="7.48075" cy="7.48075" rx="7.48075" ry="7.48075" transform="matrix(-1 0 0 1 4993.7 1.36035)" fill="#00FFE0"/>
<circle cx="12.8066" cy="12.8066" r="11.2336" transform="matrix(-1 0 0 1 5362.06 24.4824)" stroke="#00FFE0" stroke-width="3.14612"/>
<circle cx="12.8066" cy="12.8066" r="11.2336" transform="matrix(-1 0 0 1 5394.71 24.4824)" stroke="#00FFE0" stroke-width="3.14612"/>
<path d="M5465.65 114.251C5465.65 120.143 5470.42 124.919 5476.32 124.919C5482.21 124.919 5486.98 120.143 5486.98 114.251C5486.98 108.359 5482.21 103.583 5476.32 103.583C5470.42 103.583 5465.65 108.359 5465.65 114.251Z" stroke="#00FFE0" stroke-width="3.14612"/>
<path d="M4462.1 141.454C4462.1 147.346 4466.87 152.122 4472.77 152.122C4478.66 152.122 4483.43 147.346 4483.43 141.454C4483.43 135.562 4478.66 130.786 4472.77 130.786C4466.87 130.786 4462.1 135.562 4462.1 141.454Z" stroke="#00FFE0" stroke-width="3.14612"/>
<path d="M4496.1 141.454C4496.1 147.346 4500.88 152.122 4506.77 152.122C4512.66 152.122 4517.44 147.346 4517.44 141.454C4517.44 135.562 4512.66 130.786 4506.77 130.786C4500.88 130.786 4496.1 135.562 4496.1 141.454Z" stroke="#00FFE0" stroke-width="3.14612"/>
<path d="M4530.1 141.454C4530.1 147.346 4534.88 152.122 4540.77 152.122C4546.66 152.122 4551.44 147.346 4551.44 141.454C4551.44 135.562 4546.66 130.786 4540.77 130.786C4534.88 130.786 4530.1 135.562 4530.1 141.454Z" stroke="#00FFE0" stroke-width="3.14612"/>
<rect x="4627.82" y="27.2031" width="19.0419" height="19.0419" rx="3.05388" fill="#00FFE0"/>
<rect x="4859.04" y="27.2031" width="19.0419" height="19.0419" rx="3.05388" fill="#00FFE0"/>
<rect x="5223.56" y="136.014" width="10.8811" height="10.8811" rx="3.05388" fill="#00FFE0"/>
<rect x="5245.32" y="136.014" width="10.8811" height="10.8811" rx="3.05388" fill="#00FFE0"/>
<circle cx="4.08041" cy="4.08041" r="4.08041" transform="matrix(-1 0 0 1 5680.57 137.373)" fill="#00FFE0"/>
<circle cx="4.08041" cy="4.08041" r="4.08041" transform="matrix(-1 0 0 1 5691.45 137.373)" fill="#00FFE0"/>
<circle cx="4.08041" cy="4.08041" r="4.08041" transform="matrix(-1 0 0 1 5702.33 137.373)" fill="#00FFE0"/>
<circle cx="4.08041" cy="4.08041" r="4.08041" transform="matrix(-1 0 0 1 5713.21 137.373)" fill="#00FFE0"/>
<circle cx="4.08041" cy="4.08041" r="4.08041" transform="matrix(-1 0 0 1 5724.09 137.373)" fill="#00FFE0"/>
<rect x="5838.34" width="19.0419" height="19.0419" rx="3.05388" fill="#00FFE0"/>
<rect x="5866.9" width="19.0419" height="19.0419" rx="3.05388" fill="#00FFE0"/>
<circle cx="4.08041" cy="4.08041" r="4.08041" transform="matrix(-1 0 0 1 4313.63 5.44043)" fill="#00FFE0"/>
<circle cx="4.08041" cy="4.08041" r="4.08041" transform="matrix(-1 0 0 1 4302.75 5.44043)" fill="#00FFE0"/>
<circle cx="4.08041" cy="4.08041" r="4.08041" transform="matrix(-1 0 0 1 4291.87 5.44043)" fill="#00FFE0"/>
<circle cx="4.08041" cy="4.08041" r="4.08041" transform="matrix(-1 0 0 1 4280.99 5.44043)" fill="#00FFE0"/>
<circle cx="4.08041" cy="4.08041" r="4.08041" transform="matrix(-1 0 0 1 4270.11 5.44043)" fill="#00FFE0"/>
<circle cx="4.08041" cy="4.08041" r="4.08041" transform="matrix(-1 0 0 1 4324.51 5.44043)" fill="#00FFE0"/>
<circle cx="4.08041" cy="4.08041" r="4.08041" transform="matrix(-1 0 0 1 4335.39 5.44043)" fill="#00FFE0"/>
<circle cx="4.08041" cy="4.08041" r="4.08041" transform="matrix(-1 0 0 1 4346.27 5.44043)" fill="#00FFE0"/>
<path d="M671.12 114.251C674.252 114.251 677.291 115.074 679.737 116.585L697.761 127.721L715.786 138.856C718.232 140.367 721.27 141.19 724.402 141.19L967.867 141.19M317.818 141.454C320.95 141.454 323.988 140.631 326.434 139.12L362.483 116.849C364.929 115.338 367.968 114.514 371.1 114.514L601.991 114.514M8.80066 139.12C11.2463 140.63 14.285 141.454 17.4169 141.454L206.871 141.454M1741.17 139.12C1738.72 140.631 1735.68 141.454 1732.55 141.454H1485.4M1423.53 139.12L1387.48 116.848C1385.04 115.338 1382 114.514 1378.87 114.514L1262.34 114.514M1025.18 141.454C1028.32 141.454 1031.35 140.631 1033.8 139.12L1069.85 116.848C1072.29 115.338 1075.33 114.514 1078.47 114.514L1202.49 114.514" stroke="#FF00E5" stroke-width="3.14612" stroke-linecap="round" stroke-linejoin="round"/>
<path d="M1018 9.78443H774.048H761.127M664.32 36.7236C667.452 36.7236 670.49 35.9005 672.936 34.3896L697.2 19.3992M664.7 36.4601L644.155 36.4601M2 11.855C4.44563 10.3441 7.48433 9.52097 10.6163 9.52097L46.3754 9.52096M1734.36 11.855C1731.92 10.3441 1728.88 9.52092 1725.75 9.52092L1653.18 9.52093M1018.38 9.52094C1021.51 9.52094 1024.55 10.3441 1027 11.855L1063.05 34.1261C1065.49 35.637 1068.53 36.4602 1071.66 36.4602L1084.84 36.4602M1158.29 36.4602L1372.07 36.4602C1375.2 36.4602 1378.24 35.6371 1380.68 34.1262L1416.73 11.855C1419.18 10.3441 1422.22 9.52097 1425.35 9.52097L1580.61 9.52095M376.208 36.4601L364.299 36.4601C361.167 36.4601 358.128 35.637 355.683 34.1261L319.633 11.855C317.188 10.3441 314.149 9.52092 311.017 9.52092L112.342 9.52096M412.252 36.4601L606.751 36.4601" stroke="#FF00E5" stroke-width="3.14612" stroke-linecap="round" stroke-linejoin="round"/>
<ellipse cx="7.48075" cy="7.48075" rx="7.48075" ry="7.48075" transform="matrix(-1 0 0 1 724.403 4.08008)" fill="#00FFE0"/>
<circle cx="4.08041" cy="4.08041" r="4.08041" transform="matrix(-1 0 0 1 618.312 110.172)" fill="#00FFE0"/>
<circle cx="4.08041" cy="4.08041" r="4.08041" transform="matrix(-1 0 0 1 629.194 110.172)" fill="#00FFE0"/>
<circle cx="4.08041" cy="4.08041" r="4.08041" transform="matrix(-1 0 0 1 640.075 110.172)" fill="#00FFE0"/>
<circle cx="4.08041" cy="4.08041" r="4.08041" transform="matrix(-1 0 0 1 650.956 110.172)" fill="#00FFE0"/>
<circle cx="4.08041" cy="4.08041" r="4.08041" transform="matrix(-1 0 0 1 661.837 110.172)" fill="#00FFE0"/>
<ellipse cx="7.48075" cy="7.48075" rx="7.48075" ry="7.48075" transform="matrix(-1 0 0 1 750.246 1.36035)" fill="#00FFE0"/>
<circle cx="12.8066" cy="12.8066" r="11.2336" transform="matrix(-1 0 0 1 1118.61 24.4824)" stroke="#00FFE0" stroke-width="3.14612"/>
<circle cx="12.8066" cy="12.8066" r="11.2336" transform="matrix(-1 0 0 1 1151.26 24.4824)" stroke="#00FFE0" stroke-width="3.14612"/>
<circle cx="12.8066" cy="12.8066" r="11.2336" transform="matrix(-1 0 0 1 1771.48 114.251)" stroke="#00FFE0" stroke-width="3.14612"/>
<path d="M1222.2 114.251C1222.2 120.143 1226.97 124.919 1232.86 124.919C1238.76 124.919 1243.53 120.143 1243.53 114.251C1243.53 108.359 1238.76 103.583 1232.86 103.583C1226.97 103.583 1222.2 108.359 1222.2 114.251Z" stroke="#00FFE0" stroke-width="3.14612"/>
<path d="M218.645 141.454C218.645 147.346 223.422 152.122 229.314 152.122C235.205 152.122 239.982 147.346 239.982 141.454C239.982 135.562 235.205 130.786 229.314 130.786C223.422 130.786 218.645 135.562 218.645 141.454Z" stroke="#00FFE0" stroke-width="3.14612"/>
<path d="M252.649 141.454C252.649 147.346 257.425 152.122 263.317 152.122C269.209 152.122 273.985 147.346 273.985 141.454C273.985 135.562 269.209 130.786 263.317 130.786C257.425 130.786 252.649 135.562 252.649 141.454Z" stroke="#00FFE0" stroke-width="3.14612"/>
<path d="M286.652 141.454C286.652 147.346 291.429 152.122 297.321 152.122C303.212 152.122 307.989 147.346 307.989 141.454C307.989 135.562 303.212 130.786 297.321 130.786C291.429 130.786 286.652 135.562 286.652 141.454Z" stroke="#00FFE0" stroke-width="3.14612"/>
<rect x="384.369" y="27.2031" width="19.0419" height="19.0419" rx="3.05388" fill="#00FFE0"/>
<rect x="615.592" y="27.2031" width="19.0419" height="19.0419" rx="3.05388" fill="#00FFE0"/>
<rect x="980.108" y="136.014" width="10.8811" height="10.8811" rx="3.05388" fill="#00FFE0"/>
<rect x="1001.87" y="136.014" width="10.8811" height="10.8811" rx="3.05388" fill="#00FFE0"/>
<circle cx="4.08041" cy="4.08041" r="4.08041" transform="matrix(-1 0 0 1 1437.11 137.373)" fill="#00FFE0"/>
<circle cx="4.08041" cy="4.08041" r="4.08041" transform="matrix(-1 0 0 1 1448 137.373)" fill="#00FFE0"/>
<circle cx="4.08041" cy="4.08041" r="4.08041" transform="matrix(-1 0 0 1 1458.88 137.373)" fill="#00FFE0"/>
<circle cx="4.08041" cy="4.08041" r="4.08041" transform="matrix(-1 0 0 1 1469.76 137.373)" fill="#00FFE0"/>
<circle cx="4.08041" cy="4.08041" r="4.08041" transform="matrix(-1 0 0 1 1480.64 137.373)" fill="#00FFE0"/>
<rect x="1594.89" width="19.0419" height="19.0419" rx="3.05388" fill="#00FFE0"/>
<rect x="1623.45" width="19.0419" height="19.0419" rx="3.05388" fill="#00FFE0"/>
<circle cx="4.08041" cy="4.08041" r="4.08041" transform="matrix(-1 0 0 1 72.8979 5.44043)" fill="#00FFE0"/>
<circle cx="4.08041" cy="4.08041" r="4.08041" transform="matrix(-1 0 0 1 62.017 5.44043)" fill="#00FFE0"/>
<circle cx="4.08041" cy="4.08041" r="4.08041" transform="matrix(-1 0 0 1 83.7792 5.44043)" fill="#00FFE0"/>
<circle cx="4.08041" cy="4.08041" r="4.08041" transform="matrix(-1 0 0 1 94.6603 5.44043)" fill="#00FFE0"/>
<circle cx="4.08041" cy="4.08041" r="4.08041" transform="matrix(-1 0 0 1 105.541 5.44043)" fill="#00FFE0"/>
</svg>
