<svg width="51" height="697" viewBox="0 0 51 697" fill="none" xmlns="http://www.w3.org/2000/svg">
<path d="M0.000851631 695.123H49.9727V1.8584H0.000851631" stroke="#FF00E5" stroke-width="2"/>
<path d="M49.9722 26.6182H24.9863" stroke="#FF00E5" stroke-width="2"/>
<path d="M49.9722 51.377H0.00036335" stroke="#FF00E5" stroke-width="2"/>
<path d="M49.9722 76.1367H24.9863" stroke="#FF00E5" stroke-width="2"/>
<path d="M49.9722 100.896H0.00036335" stroke="#FF00E5" stroke-width="2"/>
<path d="M49.9722 125.655H24.9863" stroke="#FF00E5" stroke-width="2"/>
<path d="M49.9722 150.415H0.00036335" stroke="#FF00E5" stroke-width="2"/>
<path d="M49.9722 175.175H24.9863" stroke="#FF00E5" stroke-width="2"/>
<path d="M49.9722 199.934H0.00036335" stroke="#FF00E5" stroke-width="2"/>
<path d="M49.9722 224.693H24.9863" stroke="#FF00E5" stroke-width="2"/>
<path d="M49.9722 249.452H0.00036335" stroke="#FF00E5" stroke-width="2"/>
<path d="M49.9722 274.212H24.9863" stroke="#FF00E5" stroke-width="2"/>
<path d="M49.9722 298.972H0.00036335" stroke="#FF00E5" stroke-width="2"/>
<path d="M49.9722 323.731H24.9863" stroke="#FF00E5" stroke-width="2"/>
<path d="M49.9722 348.489H0.00036335" stroke="#FF00E5" stroke-width="2"/>
<path d="M49.9722 373.25H24.9863" stroke="#FF00E5" stroke-width="2"/>
<path d="M49.9722 398.008H0.00036335" stroke="#FF00E5" stroke-width="2"/>
<path d="M49.9722 422.768H24.9863" stroke="#FF00E5" stroke-width="2"/>
<path d="M49.9722 447.528H0.00036335" stroke="#FF00E5" stroke-width="2"/>
<path d="M49.9722 472.288H24.9863" stroke="#FF00E5" stroke-width="2"/>
<path d="M49.9722 497.045H0.00036335" stroke="#FF00E5" stroke-width="2"/>
<path d="M49.9722 521.807H24.9863" stroke="#FF00E5" stroke-width="2"/>
<path d="M49.9722 546.566H0.00036335" stroke="#FF00E5" stroke-width="2"/>
<path d="M49.9722 571.325H24.9863" stroke="#FF00E5" stroke-width="2"/>
<path d="M49.9722 596.085H0.00036335" stroke="#FF00E5" stroke-width="2"/>
<path d="M49.9722 620.845H24.9863" stroke="#FF00E5" stroke-width="2"/>
<path d="M49.9722 645.604H0.00036335" stroke="#FF00E5" stroke-width="2"/>
<path d="M49.9722 670.362H24.9863" stroke="#FF00E5" stroke-width="2"/>
</svg>
