<svg width="190" height="174" viewBox="0 0 190 174" fill="none" xmlns="http://www.w3.org/2000/svg">
<path fill-rule="evenodd" clip-rule="evenodd" d="M94.5 37.5003C150 -16 224 76.5002 94.5 153.5C-35 76.5002 39 -16 94.5 37.5003ZM48 36C10.5 55 54 114.5 94.5 140V70C94.5 51.5 74.5 22.5733 48 36Z" fill="#413F53"/>
<path d="M94.5 140C54 114.5 10.5 55 48 36C74.5 22.5733 94.5 51.5 94.5 70V140Z" fill="#00FFE0"/>
<path fill-rule="evenodd" clip-rule="evenodd" d="M94.5 37.5003C150 -16 224 76.5002 94.5 153.5C-35 76.5002 39 -16 94.5 37.5003ZM48 36C10.5 55 54 114.5 94.5 140V70C94.5 51.5 74.5 22.5733 48 36Z" stroke="#FF00E5" stroke-width="2"/>
<path d="M94.5 140C54 114.5 10.5 55 48 36C74.5 22.5733 94.5 51.5 94.5 70V140Z" stroke="#FF00E5" stroke-width="2"/>
</svg>
