<svg width="6477" height="207" viewBox="0 0 6477 207" fill="none" xmlns="http://www.w3.org/2000/svg">
<path d="M2 106.682L15.0313 203.61C15.2537 205.264 17.6556 205.237 17.8398 203.578L40.0857 3.25907C40.2694 1.60437 42.663 1.57074 42.8932 3.21962L61.0842 133.538C61.2774 134.922 63.1468 135.218 63.7579 133.961L76.6351 107.478C76.8719 106.991 77.366 106.682 77.9075 106.682H93.5944C94.148 106.682 94.6508 106.359 94.881 105.855L106.48 80.4977C106.957 79.4556 108.41 79.3829 108.989 80.3723L123.957 105.981C124.21 106.415 124.675 106.682 125.178 106.682H191.596C192.304 106.682 192.904 107.206 192.998 107.908L205.864 203.61C206.087 205.264 208.489 205.237 208.673 203.578L230.919 3.25909C231.102 1.6044 233.496 1.57077 233.726 3.21966L251.917 133.538C252.11 134.922 253.98 135.218 254.591 133.961L267.468 107.478C267.705 106.991 268.199 106.682 268.741 106.682H284.427C284.981 106.682 285.484 106.359 285.714 105.855L297.313 80.4977C297.79 79.4556 299.243 79.3829 299.822 80.3723L314.79 105.981C315.043 106.415 315.508 106.682 316.011 106.682H382.429C383.137 106.682 383.736 107.206 383.831 107.908L396.697 203.61C396.92 205.265 399.322 205.237 399.506 203.578L421.752 3.25909C421.935 1.6044 424.329 1.57077 424.559 3.21966L442.75 133.538C442.943 134.922 444.813 135.218 445.424 133.961L458.301 107.478C458.538 106.991 459.032 106.682 459.574 106.682H475.261C475.814 106.682 476.317 106.359 476.547 105.855L488.146 80.4978C488.623 79.4556 490.076 79.3829 490.655 80.3723L505.623 105.981C505.876 106.415 506.341 106.682 506.844 106.682H573.262C573.97 106.682 574.57 107.206 574.664 107.908L587.531 203.61C587.753 205.264 590.155 205.237 590.339 203.578L612.585 3.25909C612.769 1.6044 615.162 1.57077 615.392 3.21966L633.583 133.538C633.776 134.922 635.646 135.218 636.257 133.961L649.134 107.478C649.371 106.991 649.865 106.682 650.407 106.682H666.094C666.647 106.682 667.15 106.359 667.38 105.855L678.979 80.4977C679.456 79.4556 680.909 79.3829 681.488 80.3723L696.456 105.981C696.709 106.415 697.174 106.682 697.677 106.682H764.095C764.803 106.682 765.403 107.206 765.497 107.908L778.364 203.61C778.586 205.264 780.988 205.237 781.172 203.578L803.418 3.2591C803.602 1.6044 805.995 1.57077 806.225 3.21966L824.416 133.538C824.609 134.922 826.479 135.218 827.09 133.961L839.967 107.478C840.204 106.991 840.698 106.682 841.24 106.682H856.927C857.48 106.682 857.983 106.359 858.213 105.855L869.812 80.4977C870.289 79.4556 871.742 79.3829 872.321 80.3723L887.289 105.981C887.542 106.415 888.007 106.682 888.51 106.682L954.928 106.681C955.636 106.681 956.236 107.206 956.33 107.908L969.197 203.61C969.419 205.264 971.821 205.237 972.005 203.578L994.251 3.25898C994.435 1.60428 996.828 1.57065 997.058 3.21954L1015.25 133.538C1015.44 134.922 1017.31 135.218 1017.92 133.961L1030.8 107.478C1031.04 106.991 1031.53 106.681 1032.07 106.681H1047.76C1048.31 106.681 1048.82 106.359 1049.05 105.855L1060.65 80.4976C1061.12 79.4555 1062.58 79.3828 1063.15 80.3722L1078.12 105.981C1078.38 106.415 1078.84 106.681 1079.34 106.681H1145.76C1146.47 106.681 1147.07 107.206 1147.16 107.908L1160.03 203.61C1160.25 205.264 1162.65 205.237 1162.84 203.578L1185.08 3.25898C1185.27 1.60428 1187.66 1.57065 1187.89 3.21954L1206.08 133.538C1206.28 134.922 1208.15 135.218 1208.76 133.961L1221.63 107.478C1221.87 106.991 1222.36 106.681 1222.91 106.681H1238.59C1239.15 106.681 1239.65 106.359 1239.88 105.855L1251.48 80.4976C1251.96 79.4555 1253.41 79.3828 1253.99 80.3722L1268.95 105.981C1269.21 106.415 1269.67 106.681 1270.18 106.681H1336.59C1337.3 106.681 1337.9 107.206 1338 107.908L1350.86 203.61C1351.09 205.264 1353.49 205.237 1353.67 203.578L1375.92 3.25897C1376.1 1.60428 1378.49 1.57065 1378.72 3.21954L1396.92 133.538C1397.11 134.922 1398.98 135.218 1399.59 133.961L1412.47 107.478C1412.7 106.991 1413.2 106.681 1413.74 106.681H1429.43C1429.98 106.681 1430.48 106.359 1430.71 105.855L1442.31 80.4976C1442.79 79.4555 1444.24 79.3828 1444.82 80.3722L1459.79 105.981C1460.04 106.415 1460.51 106.681 1461.01 106.681H1527.43C1528.14 106.681 1528.73 107.206 1528.83 107.908L1541.7 203.61C1541.92 205.264 1544.32 205.237 1544.5 203.578L1566.75 3.25898C1566.93 1.60428 1569.33 1.57065 1569.56 3.21954L1587.75 133.538C1587.94 134.922 1589.81 135.218 1590.42 133.961L1603.3 107.478C1603.54 106.991 1604.03 106.681 1604.57 106.681H1620.26C1620.81 106.681 1621.31 106.359 1621.55 105.855L1633.14 80.4976C1633.62 79.4555 1635.07 79.3828 1635.65 80.3722L1651.03 106.681M1651.03 106.571L1664.06 203.5C1664.28 205.154 1666.69 205.127 1666.87 203.468L1689.12 3.14874C1689.3 1.49404 1691.69 1.46041 1691.92 3.10929L1710.11 133.428C1710.31 134.812 1712.18 135.108 1712.79 133.851L1725.67 107.367C1725.9 106.88 1726.4 106.571 1726.94 106.571H1742.62C1743.18 106.571 1743.68 106.248 1743.91 105.745L1755.51 80.3874C1755.99 79.3453 1757.44 79.2726 1758.02 80.262L1772.99 105.87C1773.24 106.304 1773.71 106.571 1774.21 106.571H1840.63C1841.33 106.571 1841.93 107.095 1842.03 107.798L1854.9 203.5C1855.12 205.154 1857.52 205.127 1857.7 203.468L1879.95 3.14876C1880.13 1.49407 1882.53 1.46044 1882.76 3.10933L1900.95 133.428C1901.14 134.812 1903.01 135.108 1903.62 133.851L1916.5 107.367C1916.74 106.88 1917.23 106.571 1917.77 106.571H1933.46C1934.01 106.571 1934.51 106.248 1934.74 105.745L1946.34 80.3874C1946.82 79.3453 1948.27 79.2726 1948.85 80.262L1963.82 105.87C1964.07 106.304 1964.54 106.571 1965.04 106.571H2031.46C2032.17 106.571 2032.77 107.095 2032.86 107.798L2045.73 203.5C2045.95 205.154 2048.35 205.127 2048.54 203.468L2070.78 3.14876C2070.97 1.49407 2073.36 1.46044 2073.59 3.10933L2091.78 133.428C2091.97 134.812 2093.84 135.108 2094.45 133.851L2107.33 107.367C2107.57 106.88 2108.06 106.571 2108.6 106.571H2124.29C2124.84 106.571 2125.35 106.248 2125.58 105.745L2137.18 80.3874C2137.65 79.3453 2139.11 79.2726 2139.69 80.262L2154.65 105.87C2154.91 106.304 2155.37 106.571 2155.87 106.571H2222.29C2223 106.571 2223.6 107.095 2223.69 107.798L2236.56 203.5C2236.78 205.154 2239.19 205.127 2239.37 203.468L2261.62 3.14876C2261.8 1.49406 2264.19 1.46044 2264.42 3.10933L2282.61 133.428C2282.81 134.812 2284.68 135.108 2285.29 133.851L2298.16 107.367C2298.4 106.88 2298.9 106.571 2299.44 106.571H2315.12C2315.68 106.571 2316.18 106.248 2316.41 105.745L2328.01 80.3874C2328.49 79.3453 2329.94 79.2726 2330.52 80.262L2345.49 105.87C2345.74 106.304 2346.21 106.571 2346.71 106.571H2413.13C2413.83 106.571 2414.43 107.095 2414.53 107.798L2427.39 203.5C2427.62 205.154 2430.02 205.127 2430.2 203.468L2452.45 3.14877C2452.63 1.49407 2455.03 1.46044 2455.26 3.10933L2473.45 133.428C2473.64 134.812 2475.51 135.108 2476.12 133.851L2489 107.367C2489.23 106.88 2489.73 106.571 2490.27 106.571H2505.96C2506.51 106.571 2507.01 106.248 2507.24 105.745L2518.84 80.3874C2519.32 79.3453 2520.77 79.2726 2521.35 80.262L2536.32 105.87C2536.57 106.304 2537.04 106.571 2537.54 106.571L2603.96 106.571C2604.67 106.571 2605.27 107.095 2605.36 107.797L2618.23 203.5C2618.45 205.154 2620.85 205.126 2621.04 203.468L2643.28 3.14864C2643.47 1.49395 2645.86 1.46032 2646.09 3.10921L2664.28 133.428C2664.47 134.812 2666.34 135.108 2666.95 133.851L2679.83 107.367C2680.07 106.88 2680.56 106.571 2681.1 106.571H2696.79C2697.34 106.571 2697.85 106.248 2698.08 105.745L2709.68 80.3873C2710.15 79.3451 2711.61 79.2725 2712.18 80.2619L2727.15 105.87C2727.41 106.304 2727.87 106.571 2728.37 106.571H2794.79C2795.5 106.571 2796.1 107.095 2796.19 107.797L2809.06 203.5C2809.28 205.154 2811.68 205.127 2811.87 203.468L2834.11 3.14864C2834.3 1.49395 2836.69 1.46032 2836.92 3.10921L2855.11 133.428C2855.31 134.812 2857.18 135.108 2857.79 133.851L2870.66 107.367C2870.9 106.88 2871.39 106.571 2871.94 106.571H2887.62C2888.18 106.571 2888.68 106.248 2888.91 105.745L2900.51 80.3873C2900.99 79.3451 2902.44 79.2725 2903.02 80.2619L2917.99 105.87C2918.24 106.304 2918.7 106.571 2919.21 106.571H2985.62C2986.33 106.571 2986.93 107.095 2987.03 107.797L2999.89 203.5C3000.12 205.154 3002.52 205.127 3002.7 203.468L3024.95 3.14864C3025.13 1.49394 3027.52 1.46032 3027.76 3.10921L3045.95 133.428C3046.14 134.812 3048.01 135.108 3048.62 133.851L3061.5 107.367C3061.73 106.88 3062.23 106.571 3062.77 106.571H3078.46C3079.01 106.571 3079.51 106.248 3079.74 105.745L3091.34 80.3873C3091.82 79.3451 3093.27 79.2725 3093.85 80.2619L3108.82 105.87C3109.07 106.304 3109.54 106.571 3110.04 106.571H3176.46C3177.17 106.571 3177.77 107.095 3177.86 107.797L3190.73 203.5C3190.95 205.154 3193.35 205.127 3193.53 203.468L3215.78 3.14865C3215.96 1.49395 3218.36 1.46032 3218.59 3.10921L3236.78 133.428C3236.97 134.812 3238.84 135.108 3239.45 133.851L3252.33 107.367C3252.57 106.88 3253.06 106.571 3253.6 106.571H3269.29C3269.84 106.571 3270.35 106.248 3270.58 105.745L3282.18 80.3873C3282.65 79.3451 3284.1 79.2725 3284.68 80.2619L3299.65 105.871C3299.91 106.306 3300.37 106.572 3300.87 106.572H3366.48C3367.19 106.572 3367.79 107.097 3367.88 107.799L3380.75 203.501C3380.97 205.155 3383.37 205.128 3383.56 203.469L3405.8 3.14989C3405.99 1.49519 3408.38 1.46157 3408.61 3.11045L3426.8 133.429C3426.99 134.813 3428.86 135.109 3429.47 133.852L3442.35 107.369C3442.59 106.882 3443.08 106.572 3443.62 106.572H3459.31C3459.86 106.572 3460.37 106.25 3460.6 105.746L3472.2 80.3885C3472.67 79.3464 3474.13 79.2737 3474.7 80.2631L3489.67 105.872C3489.93 106.306 3490.39 106.572 3490.89 106.572H3557.31C3558.02 106.572 3558.62 107.097 3558.71 107.799L3571.58 203.501C3571.8 205.155 3574.2 205.128 3574.39 203.469L3596.63 3.14989C3596.82 1.49519 3599.21 1.46157 3599.44 3.11045L3617.63 133.429C3617.83 134.813 3619.7 135.109 3620.31 133.852L3633.18 107.369C3633.42 106.882 3633.92 106.572 3634.46 106.572H3650.14C3650.7 106.572 3651.2 106.25 3651.43 105.746L3663.03 80.3885C3663.51 79.3464 3664.96 79.2737 3665.54 80.2631L3680.51 105.872C3680.76 106.306 3681.22 106.572 3681.73 106.572H3748.14C3748.85 106.572 3749.45 107.097 3749.55 107.799L3762.41 203.501C3762.64 205.155 3765.04 205.128 3765.22 203.469L3787.47 3.14989C3787.65 1.49519 3790.05 1.46157 3790.28 3.11045L3808.47 133.429C3808.66 134.813 3810.53 135.109 3811.14 133.852L3824.02 107.369C3824.25 106.882 3824.75 106.572 3825.29 106.572H3840.98C3841.53 106.572 3842.03 106.25 3842.26 105.746L3853.86 80.3885C3854.34 79.3464 3855.79 79.2737 3856.37 80.2631L3871.34 105.872C3871.59 106.306 3872.06 106.572 3872.56 106.572H3938.98C3939.69 106.572 3940.29 107.097 3940.38 107.799L3953.25 203.501C3953.47 205.155 3955.87 205.128 3956.05 203.469L3978.3 3.14989C3978.48 1.49519 3980.88 1.46157 3981.11 3.11045L3999.3 133.429C3999.49 134.813 4001.36 135.109 4001.97 133.852L4014.85 107.369C4015.09 106.882 4015.58 106.572 4016.12 106.572H4031.81C4032.36 106.572 4032.87 106.25 4033.1 105.746L4044.7 80.3885C4045.17 79.3464 4046.63 79.2737 4047.2 80.2631L4062.17 105.872C4062.43 106.306 4062.89 106.572 4063.39 106.572L4129.81 106.572C4130.52 106.572 4131.12 107.096 4131.21 107.799L4144.08 203.501C4144.3 205.155 4146.7 205.128 4146.89 203.469L4169.13 3.14977C4169.32 1.49507 4171.71 1.46145 4171.94 3.11033L4190.13 133.429C4190.33 134.813 4192.2 135.109 4192.81 133.852L4205.68 107.368C4205.92 106.881 4206.41 106.572 4206.96 106.572H4222.64C4223.2 106.572 4223.7 106.249 4223.93 105.746L4235.53 80.3884C4236.01 79.3463 4237.46 79.2736 4238.04 80.263L4253 105.871C4253.26 106.305 4253.72 106.572 4254.23 106.572H4320.64C4321.35 106.572 4321.95 107.096 4322.05 107.799L4334.91 203.501C4335.14 205.155 4337.54 205.128 4337.72 203.469L4359.97 3.14977C4360.15 1.49507 4362.54 1.46145 4362.77 3.11033L4380.97 133.429C4381.16 134.813 4383.03 135.109 4383.64 133.852L4396.52 107.368C4396.75 106.881 4397.25 106.572 4397.79 106.572H4413.48C4414.03 106.572 4414.53 106.249 4414.76 105.746L4426.36 80.3884C4426.84 79.3463 4428.29 79.2736 4428.87 80.263L4443.84 105.871C4444.09 106.305 4444.56 106.572 4445.06 106.572H4511.48C4512.19 106.572 4512.79 107.096 4512.88 107.799L4525.75 203.501C4525.97 205.155 4528.37 205.128 4528.55 203.469L4550.8 3.14977C4550.98 1.49507 4553.38 1.46145 4553.61 3.11033L4571.8 133.429C4571.99 134.813 4573.86 135.109 4574.47 133.852L4587.35 107.368C4587.59 106.881 4588.08 106.572 4588.62 106.572H4604.31C4604.86 106.572 4605.36 106.249 4605.6 105.746L4617.19 80.3884C4617.67 79.3463 4619.12 79.2736 4619.7 80.263L4634.67 105.871C4634.92 106.305 4635.39 106.572 4635.89 106.572H4702.31C4703.02 106.572 4703.62 107.096 4703.71 107.799L4716.58 203.501C4716.8 205.155 4719.2 205.128 4719.39 203.469L4741.63 3.14977C4741.82 1.49507 4744.21 1.46145 4744.44 3.11033L4762.63 133.429C4762.82 134.813 4764.69 135.109 4765.31 133.852L4778.18 107.368C4778.42 106.881 4778.91 106.572 4779.45 106.572H4795.14C4795.7 106.572 4796.2 106.249 4796.43 105.746L4808.03 80.3884C4808.5 79.3463 4809.96 79.2736 4810.54 80.263L4825.91 106.572M4825.91 106.462L4838.94 203.391C4839.17 205.045 4841.57 205.017 4841.75 203.358L4864 3.03953C4864.18 1.38484 4866.58 1.3512 4866.81 3.00008L4885 133.319C4885.19 134.703 4887.06 134.999 4887.67 133.742L4900.55 107.258C4900.79 106.771 4901.28 106.462 4901.82 106.462H4917.51C4918.06 106.462 4918.56 106.139 4918.79 105.636L4930.39 80.2782C4930.87 79.236 4932.32 79.1634 4932.9 80.1528L4947.87 105.761C4948.12 106.195 4948.59 106.462 4949.09 106.462H5015.51C5016.22 106.462 5016.82 106.986 5016.91 107.688L5029.78 203.391C5030 205.045 5032.4 205.017 5032.59 203.358L5054.83 3.03956C5055.02 1.38486 5057.41 1.35124 5057.64 3.00012L5075.83 133.319C5076.02 134.703 5077.89 134.999 5078.5 133.742L5091.38 107.258C5091.62 106.771 5092.11 106.462 5092.65 106.462H5108.34C5108.89 106.462 5109.4 106.139 5109.63 105.636L5121.23 80.2782C5121.7 79.236 5123.16 79.1634 5123.73 80.1528L5138.7 105.761C5138.96 106.195 5139.42 106.462 5139.92 106.462H5206.34C5207.05 106.462 5207.65 106.986 5207.74 107.688L5220.61 203.391C5220.83 205.045 5223.24 205.017 5223.42 203.358L5245.67 3.03956C5245.85 1.38486 5248.24 1.35124 5248.47 3.00012L5266.66 133.319C5266.86 134.703 5268.73 134.999 5269.34 133.742L5282.21 107.258C5282.45 106.771 5282.95 106.462 5283.49 106.462H5299.17C5299.73 106.462 5300.23 106.139 5300.46 105.636L5312.06 80.2782C5312.54 79.236 5313.99 79.1634 5314.57 80.1528L5329.54 105.761C5329.79 106.195 5330.26 106.462 5330.76 106.462H5397.18C5397.88 106.462 5398.48 106.986 5398.58 107.688L5411.44 203.391C5411.67 205.045 5414.07 205.017 5414.25 203.358L5436.5 3.03955C5436.68 1.38486 5439.08 1.35124 5439.31 3.00012L5457.5 133.319C5457.69 134.703 5459.56 134.999 5460.17 133.742L5473.05 107.258C5473.28 106.771 5473.78 106.462 5474.32 106.462H5490.01C5490.56 106.462 5491.06 106.139 5491.29 105.636L5502.89 80.2782C5503.37 79.236 5504.82 79.1634 5505.4 80.1528L5520.37 105.761C5520.62 106.195 5521.09 106.462 5521.59 106.462H5588.01C5588.72 106.462 5589.32 106.986 5589.41 107.688L5602.28 203.391C5602.5 205.045 5604.9 205.017 5605.09 203.358L5627.33 3.03956C5627.52 1.38486 5629.91 1.35124 5630.14 3.00012L5648.33 133.319C5648.52 134.703 5650.39 134.999 5651 133.742L5663.88 107.258C5664.12 106.771 5664.61 106.462 5665.15 106.462H5680.84C5681.39 106.462 5681.9 106.139 5682.13 105.636L5693.73 80.2782C5694.2 79.236 5695.66 79.1634 5696.23 80.1528L5711.2 105.761C5711.46 106.195 5711.92 106.462 5712.42 106.462L5778.84 106.462C5779.55 106.462 5780.15 106.986 5780.24 107.688L5793.11 203.391C5793.33 205.045 5795.73 205.017 5795.92 203.358L5818.16 3.03944C5818.35 1.38474 5820.74 1.35112 5820.97 3L5839.16 133.319C5839.36 134.703 5841.23 134.999 5841.84 133.742L5854.71 107.258C5854.95 106.771 5855.44 106.462 5855.99 106.462H5871.67C5872.23 106.462 5872.73 106.139 5872.96 105.636L5884.56 80.2781C5885.04 79.2359 5886.49 79.1633 5887.07 80.1527L5902.04 105.761C5902.29 106.195 5902.75 106.462 5903.26 106.462H5969.67C5970.38 106.462 5970.98 106.986 5971.08 107.688L5983.94 203.391C5984.17 205.045 5986.57 205.017 5986.75 203.358L6009 3.03944C6009.18 1.38474 6011.57 1.35112 6011.81 3L6030 133.319C6030.19 134.703 6032.06 134.999 6032.67 133.742L6045.55 107.258C6045.78 106.771 6046.28 106.462 6046.82 106.462H6062.51C6063.06 106.462 6063.56 106.139 6063.79 105.636L6075.39 80.2781C6075.87 79.2359 6077.32 79.1633 6077.9 80.1527L6092.87 105.761C6093.12 106.195 6093.59 106.462 6094.09 106.462H6160.51C6161.22 106.462 6161.82 106.986 6161.91 107.688L6174.78 203.391C6175 205.045 6177.4 205.017 6177.58 203.358L6199.83 3.03944C6200.01 1.38474 6202.41 1.35112 6202.64 3L6220.83 133.319C6221.02 134.703 6222.89 134.999 6223.5 133.742L6236.38 107.258C6236.62 106.771 6237.11 106.462 6237.65 106.462H6253.34C6253.89 106.462 6254.4 106.139 6254.63 105.636L6266.23 80.2781C6266.7 79.2359 6268.16 79.1633 6268.73 80.1527L6283.7 105.761C6283.96 106.195 6284.42 106.462 6284.92 106.462H6351.34C6352.05 106.462 6352.65 106.986 6352.74 107.688L6365.61 203.391C6365.83 205.045 6368.23 205.017 6368.42 203.358L6390.66 3.03944C6390.85 1.38474 6393.24 1.35112 6393.47 3L6411.66 133.319C6411.86 134.703 6413.72 134.999 6414.34 133.742L6427.21 107.258C6427.45 106.771 6427.94 106.462 6428.49 106.462H6444.17C6444.73 106.462 6445.23 106.139 6445.46 105.636L6457.06 80.2781C6457.53 79.2359 6458.99 79.1633 6459.57 80.1527L6474.94 106.462" stroke="#FF00E5" stroke-width="3"/>
</svg>
