<svg width="1651" height="205" viewBox="0 0 1651 205" fill="none" xmlns="http://www.w3.org/2000/svg">
<path d="M1 105.681L14.0313 202.61C14.2537 204.264 16.6556 204.237 16.8398 202.578L39.0857 2.25881C39.2694 0.604113 41.663 0.570479 41.8932 2.21936L60.0842 132.538C60.2774 133.922 62.1468 134.218 62.7579 132.961L75.6351 106.478C75.8719 105.99 76.366 105.681 76.9075 105.681H92.5944C93.148 105.681 93.6508 105.358 93.881 104.855L105.48 79.4975C105.957 78.4553 107.41 78.3827 107.989 79.3721L122.957 104.98C123.21 105.415 123.675 105.681 124.178 105.681H190.596C191.304 105.681 191.904 106.205 191.998 106.908L204.864 202.61C205.087 204.264 207.489 204.237 207.673 202.578L229.919 2.25883C230.102 0.604137 232.496 0.570513 232.726 2.2194L250.917 132.538C251.11 133.922 252.98 134.218 253.591 132.961L266.468 106.478C266.705 105.99 267.199 105.681 267.741 105.681H283.427C283.981 105.681 284.484 105.358 284.714 104.855L296.313 79.4975C296.79 78.4553 298.243 78.3827 298.822 79.3721L313.79 104.98C314.043 105.415 314.508 105.681 315.011 105.681H381.429C382.137 105.681 382.736 106.205 382.831 106.908L395.697 202.61C395.92 204.264 398.322 204.237 398.506 202.578L420.752 2.25883C420.935 0.604137 423.329 0.570513 423.559 2.2194L441.75 132.538C441.943 133.922 443.813 134.218 444.424 132.961L457.301 106.478C457.538 105.99 458.032 105.681 458.574 105.681H474.261C474.814 105.681 475.317 105.358 475.547 104.855L487.146 79.4975C487.623 78.4553 489.076 78.3827 489.655 79.3721L504.623 104.98C504.876 105.415 505.341 105.681 505.844 105.681H572.262C572.97 105.681 573.57 106.205 573.664 106.908L586.531 202.61C586.753 204.264 589.155 204.237 589.339 202.578L611.585 2.25883C611.769 0.604134 614.162 0.570513 614.392 2.2194L632.583 132.538C632.776 133.922 634.646 134.218 635.257 132.961L648.134 106.478C648.371 105.99 648.865 105.681 649.407 105.681H665.094C665.647 105.681 666.15 105.358 666.38 104.855L677.979 79.4975C678.456 78.4553 679.909 78.3827 680.488 79.3721L695.456 104.98C695.709 105.415 696.174 105.681 696.677 105.681H763.095C763.803 105.681 764.403 106.205 764.497 106.908L777.364 202.61C777.586 204.264 779.988 204.237 780.172 202.578L802.418 2.25884C802.602 0.604139 804.995 0.570513 805.225 2.2194L823.416 132.538C823.609 133.922 825.479 134.218 826.09 132.961L838.967 106.478C839.204 105.99 839.698 105.681 840.24 105.681H855.927C856.48 105.681 856.983 105.358 857.213 104.855L868.812 79.4975C869.289 78.4553 870.742 78.3827 871.321 79.3721L886.289 104.98C886.542 105.415 887.007 105.681 887.51 105.681L953.928 105.681C954.636 105.681 955.236 106.205 955.33 106.908L968.197 202.61C968.419 204.264 970.821 204.237 971.005 202.578L993.251 2.25871C993.435 0.604017 995.828 0.570394 996.058 2.21928L1014.25 132.538C1014.44 133.922 1016.31 134.218 1016.92 132.961L1029.8 106.477C1030.04 105.99 1030.53 105.681 1031.07 105.681H1046.76C1047.31 105.681 1047.82 105.358 1048.05 104.855L1059.65 79.4974C1060.12 78.4552 1061.58 78.3825 1062.15 79.3719L1077.12 104.98C1077.38 105.414 1077.84 105.681 1078.34 105.681H1144.76C1145.47 105.681 1146.07 106.205 1146.16 106.908L1159.03 202.61C1159.25 204.264 1161.65 204.237 1161.84 202.578L1184.08 2.25871C1184.27 0.604017 1186.66 0.570394 1186.89 2.21928L1205.08 132.538C1205.28 133.922 1207.14 134.218 1207.76 132.961L1220.63 106.477C1220.87 105.99 1221.36 105.681 1221.91 105.681H1237.59C1238.15 105.681 1238.65 105.358 1238.88 104.855L1250.48 79.4974C1250.96 78.4552 1252.41 78.3825 1252.99 79.3719L1267.95 104.98C1268.21 105.414 1268.67 105.681 1269.18 105.681H1335.59C1336.3 105.681 1336.9 106.205 1337 106.908L1349.86 202.61C1350.09 204.264 1352.49 204.237 1352.67 202.578L1374.92 2.25871C1375.1 0.604015 1377.49 0.570394 1377.72 2.21928L1395.92 132.538C1396.11 133.922 1397.98 134.218 1398.59 132.961L1411.47 106.477C1411.7 105.99 1412.2 105.681 1412.74 105.681H1428.43C1428.98 105.681 1429.48 105.358 1429.71 104.855L1441.31 79.4974C1441.79 78.4552 1443.24 78.3825 1443.82 79.3719L1458.79 104.98C1459.04 105.414 1459.51 105.681 1460.01 105.681H1526.43C1527.14 105.681 1527.73 106.205 1527.83 106.908L1540.7 202.61C1540.92 204.264 1543.32 204.237 1543.5 202.578L1565.75 2.25872C1565.93 0.604019 1568.33 0.570394 1568.56 2.21928L1586.75 132.538C1586.94 133.922 1588.81 134.218 1589.42 132.961L1602.3 106.477C1602.54 105.99 1603.03 105.681 1603.57 105.681H1619.26C1619.81 105.681 1620.32 105.358 1620.55 104.855L1632.14 79.4974C1632.62 78.4552 1634.07 78.3825 1634.65 79.3719L1650.03 105.681" stroke="#FF00E5" stroke-width="2"/>
</svg>
