<svg width="724" height="206" viewBox="0 0 724 206" fill="none" xmlns="http://www.w3.org/2000/svg">
<path d="M-2.77758e-05 106.646H108.747C109.455 106.646 110.054 107.17 110.149 107.872L123.015 203.575C123.238 205.229 125.639 205.201 125.824 203.542L148.07 3.22326C148.253 1.56856 150.647 1.53494 150.877 3.18382L169.068 133.502C169.261 134.886 171.131 135.182 171.742 133.926L184.619 107.442C184.856 106.955 185.35 106.646 185.891 106.646H201.578C202.132 106.646 202.635 106.323 202.865 105.819L214.464 80.4619C214.941 79.4197 216.394 79.3471 216.972 80.3365L231.94 105.945C232.194 106.379 232.659 106.646 233.162 106.646H299.58C300.288 106.646 300.887 107.17 300.982 107.872L313.848 203.575C314.071 205.229 316.472 205.201 316.657 203.542L338.903 3.22326C339.086 1.56856 341.48 1.53494 341.71 3.18382L359.901 133.502C360.094 134.886 361.964 135.182 362.575 133.926L375.452 107.442C375.689 106.955 376.183 106.646 376.724 106.646H392.411C392.965 106.646 393.468 106.323 393.698 105.819L405.297 80.4619C405.774 79.4197 407.227 79.3471 407.805 80.3365L422.773 105.945C423.027 106.379 423.492 106.646 423.995 106.646H490.413C491.121 106.646 491.72 107.17 491.815 107.872L504.681 203.575C504.904 205.229 507.305 205.201 507.49 203.542L529.736 3.22326C529.919 1.56856 532.313 1.53494 532.543 3.18382L550.734 133.502C550.927 134.886 552.797 135.182 553.408 133.926L566.285 107.442C566.522 106.955 567.016 106.646 567.557 106.646H583.244C583.798 106.646 584.301 106.323 584.531 105.819L596.13 80.4619C596.607 79.4197 598.06 79.3471 598.638 80.3365L613.606 105.945C613.86 106.379 614.325 106.646 614.828 106.646H724" stroke="#FF00E5" stroke-width="2"/>
</svg>
