<svg width="2836" height="113" viewBox="0 0 2836 113" fill="none" xmlns="http://www.w3.org/2000/svg">
<path d="M2053.95 84C2056.25 84 2058.49 84.6052 2060.29 85.716L2073.54 93.9031L2086.79 102.09C2088.59 103.201 2090.82 103.806 2093.13 103.806L2272.13 103.806M1794.2 104C1796.5 104 1798.73 103.395 1800.53 102.284L1827.04 85.9098C1828.83 84.7989 1831.07 84.1937 1833.37 84.1937L2003.13 84.1937M1306.97 85.9097C1308.76 84.7989 1311 84.1937 1313.3 84.1937L1534.16 84.1937C1536.46 84.1937 1538.7 84.7989 1540.5 85.9097L1567 102.284C1568.8 103.395 1571.03 104 1573.34 104L1712.63 104M1280.46 102.284C1278.66 103.395 1276.43 104 1274.13 104M2834.34 104H2652.63M2607.14 102.284L2580.64 85.9097C2578.84 84.7989 2576.6 84.1937 2574.3 84.1937L2488.63 84.1937M2314.27 104C2316.57 104 2318.8 103.395 2320.6 102.284L2347.11 85.9097C2348.9 84.7989 2351.14 84.1937 2353.44 84.1937L2444.63 84.1937" stroke="#FF00E5" stroke-width="2" stroke-linecap="round" stroke-linejoin="round"/>
<path d="M2308.99 7.19374H2129.63H2120.13M2048.95 27C2051.25 27 2053.49 26.3948 2055.29 25.284L2073.13 14.2627M2049.23 26.8062L2034.13 26.8063M1568.34 7.00004C1566.03 7.00004 1563.8 7.60523 1562 8.71608L1535.5 25.0903C1533.7 26.2011 1531.46 26.8063 1529.16 26.8063L1308.3 26.8063C1306 26.8063 1303.76 26.2011 1301.97 25.0903L1275.46 8.71605C1273.66 7.6052 1271.43 7.00001 1269.13 7.00002M2829.34 7L2775.98 7.00001M2309.27 7.00002C2311.57 7.00001 2313.8 7.6052 2315.6 8.71605L2342.11 25.0903C2343.9 26.2011 2346.14 26.8063 2348.44 26.8063L2358.13 26.8063M2412.13 26.8063L2569.3 26.8063C2571.6 26.8063 2573.84 26.2011 2575.64 25.0903L2602.14 8.71608C2603.94 7.60523 2606.17 7.00004 2608.47 7.00004L2722.63 7.00002M1837.13 26.8063L1828.37 26.8063C1826.07 26.8063 1823.83 26.2011 1822.04 25.0902L1795.53 8.71603C1793.73 7.60519 1791.5 7 1789.2 7L1643.13 7.00002M1863.63 26.8063L2006.63 26.8063" stroke="#FF00E5" stroke-width="2" stroke-linecap="round" stroke-linejoin="round"/>
<circle cx="5.5" cy="5.5" r="5.5" transform="matrix(-1 0 0 1 2093.13 3)" fill="#00FFE0"/>
<circle cx="3" cy="3" r="3" transform="matrix(-1 0 0 1 2015.13 81)" fill="#00FFE0"/>
<circle cx="3" cy="3" r="3" transform="matrix(-1 0 0 1 2023.13 81)" fill="#00FFE0"/>
<circle cx="3" cy="3" r="3" transform="matrix(-1 0 0 1 2031.13 81)" fill="#00FFE0"/>
<circle cx="3" cy="3" r="3" transform="matrix(-1 0 0 1 2039.13 81)" fill="#00FFE0"/>
<circle cx="3" cy="3" r="3" transform="matrix(-1 0 0 1 2047.13 81)" fill="#00FFE0"/>
<circle cx="5.5" cy="5.5" r="5.5" transform="matrix(-1 0 0 1 2112.13 1)" fill="#00FFE0"/>
<circle cx="9.41571" cy="9.41571" r="8.41571" transform="matrix(-1 0 0 1 2382.96 18)" stroke="#00FFE0" stroke-width="2"/>
<circle cx="9.41571" cy="9.41571" r="8.41571" transform="matrix(-1 0 0 1 2406.96 18)" stroke="#00FFE0" stroke-width="2"/>
<circle cx="9" cy="9" r="8" transform="matrix(-1 0 0 1 2475.96 75)" stroke="#00FFE0" stroke-width="2"/>
<circle cx="9" cy="9" r="8" transform="matrix(-1 0 0 1 1738.13 95)" stroke="#00FFE0" stroke-width="2"/>
<circle cx="9" cy="9" r="8" transform="matrix(-1 0 0 1 1763.13 95)" stroke="#00FFE0" stroke-width="2"/>
<circle cx="9" cy="9" r="8" transform="matrix(-1 0 0 1 1788.13 95)" stroke="#00FFE0" stroke-width="2"/>
<rect x="1843.13" y="20" width="14" height="14" rx="1.94136" fill="#00FFE0"/>
<rect x="2013.13" y="20" width="14" height="14" rx="1.94136" fill="#00FFE0"/>
<rect x="2281.13" y="100" width="8" height="8" rx="1.94136" fill="#00FFE0"/>
<rect x="2297.13" y="100" width="8" height="8" rx="1.94136" fill="#00FFE0"/>
<circle cx="3" cy="3" r="3" transform="matrix(-1 0 0 1 2617.13 101)" fill="#00FFE0"/>
<circle cx="3" cy="3" r="3" transform="matrix(-1 0 0 1 2625.13 101)" fill="#00FFE0"/>
<circle cx="3" cy="3" r="3" transform="matrix(-1 0 0 1 2633.13 101)" fill="#00FFE0"/>
<circle cx="3" cy="3" r="3" transform="matrix(-1 0 0 1 2641.13 101)" fill="#00FFE0"/>
<circle cx="3" cy="3" r="3" transform="matrix(-1 0 0 1 2649.13 101)" fill="#00FFE0"/>
<rect x="2733.13" width="14" height="14" rx="1.94136" fill="#00FFE0"/>
<rect x="2754.13" width="14" height="14" rx="1.94136" fill="#00FFE0"/>
<circle cx="3" cy="3" r="3" transform="matrix(-1 0 0 1 1612.13 4)" fill="#00FFE0"/>
<circle cx="3" cy="3" r="3" transform="matrix(-1 0 0 1 1604.13 4)" fill="#00FFE0"/>
<circle cx="3" cy="3" r="3" transform="matrix(-1 0 0 1 1596.13 4)" fill="#00FFE0"/>
<circle cx="3" cy="3" r="3" transform="matrix(-1 0 0 1 1588.13 4)" fill="#00FFE0"/>
<circle cx="3" cy="3" r="3" transform="matrix(-1 0 0 1 1580.13 4)" fill="#00FFE0"/>
<circle cx="3" cy="3" r="3" transform="matrix(-1 0 0 1 1620.13 4)" fill="#00FFE0"/>
<circle cx="3" cy="3" r="3" transform="matrix(-1 0 0 1 1628.13 4)" fill="#00FFE0"/>
<circle cx="3" cy="3" r="3" transform="matrix(-1 0 0 1 1636.13 4)" fill="#00FFE0"/>
<path d="M493.951 84C496.254 84 498.488 84.6052 500.286 85.716L513.538 93.9031L526.791 102.09C528.589 103.201 530.823 103.806 533.125 103.806L712.126 103.806M234.196 104C236.499 104 238.733 103.395 240.531 102.284L267.035 85.9098C268.833 84.7989 271.067 84.1937 273.37 84.1937L443.126 84.1937M13.335 104L152.626 104M1280.67 102.284C1278.87 103.395 1276.64 104 1274.34 104H1092.63M1047.14 102.284L1020.64 85.9097C1018.84 84.7989 1016.6 84.1937 1014.3 84.1937L928.626 84.1937M754.266 104C756.568 104 758.803 103.395 760.601 102.284L787.105 85.9097C788.903 84.7989 791.137 84.1937 793.44 84.1937L884.626 84.1937" stroke="#FF00E5" stroke-width="2" stroke-linecap="round" stroke-linejoin="round"/>
<path d="M748.986 7.19374H569.626H560.126M488.951 27C491.254 27 493.488 26.3948 495.286 25.284L513.126 14.2627M489.231 26.8062L474.126 26.8063M8.33496 7.00004L34.6258 7.00002M1275.67 8.71603C1273.87 7.60519 1271.64 7 1269.34 7L1215.98 7.00001M749.266 7.00002C751.568 7.00001 753.803 7.6052 755.601 8.71605L782.105 25.0903C783.903 26.2011 786.137 26.8063 788.44 26.8063L798.126 26.8063M852.126 26.8063L1009.3 26.8063C1011.6 26.8063 1013.84 26.2011 1015.64 25.0903L1042.14 8.71608C1043.94 7.60523 1046.17 7.00004 1048.47 7.00004L1162.63 7.00002M277.126 26.8063L268.37 26.8063C266.067 26.8063 263.833 26.2011 262.035 25.0902L235.531 8.71603C233.733 7.60519 231.499 7 229.196 7L83.1259 7.00002M303.626 26.8063L446.626 26.8063" stroke="#FF00E5" stroke-width="2" stroke-linecap="round" stroke-linejoin="round"/>
<circle cx="5.5" cy="5.5" r="5.5" transform="matrix(-1 0 0 1 533.126 3)" fill="#00FFE0"/>
<circle cx="3" cy="3" r="3" transform="matrix(-1 0 0 1 455.126 81)" fill="#00FFE0"/>
<circle cx="3" cy="3" r="3" transform="matrix(-1 0 0 1 463.126 81)" fill="#00FFE0"/>
<circle cx="3" cy="3" r="3" transform="matrix(-1 0 0 1 471.126 81)" fill="#00FFE0"/>
<circle cx="3" cy="3" r="3" transform="matrix(-1 0 0 1 479.126 81)" fill="#00FFE0"/>
<circle cx="3" cy="3" r="3" transform="matrix(-1 0 0 1 487.126 81)" fill="#00FFE0"/>
<circle cx="5.5" cy="5.5" r="5.5" transform="matrix(-1 0 0 1 552.126 1)" fill="#00FFE0"/>
<circle cx="9.41571" cy="9.41571" r="8.41571" transform="matrix(-1 0 0 1 822.957 18)" stroke="#00FFE0" stroke-width="2"/>
<circle cx="9.41571" cy="9.41571" r="8.41571" transform="matrix(-1 0 0 1 846.957 18)" stroke="#00FFE0" stroke-width="2"/>
<circle cx="9.41571" cy="9.41571" r="8.41571" transform="matrix(-1 0 0 1 1302.96 84)" stroke="#00FFE0" stroke-width="2"/>
<circle cx="9" cy="9" r="8" transform="matrix(-1 0 0 1 915.957 75)" stroke="#00FFE0" stroke-width="2"/>
<circle cx="9" cy="9" r="8" transform="matrix(-1 0 0 1 178.126 95)" stroke="#00FFE0" stroke-width="2"/>
<circle cx="9" cy="9" r="8" transform="matrix(-1 0 0 1 203.126 95)" stroke="#00FFE0" stroke-width="2"/>
<circle cx="9" cy="9" r="8" transform="matrix(-1 0 0 1 228.126 95)" stroke="#00FFE0" stroke-width="2"/>
<rect x="283.126" y="20" width="14" height="14" rx="1.94136" fill="#00FFE0"/>
<rect y="97" width="14" height="14" rx="1.94136" fill="#00FFE0"/>
<rect width="14" height="14" rx="1.94136" fill="#00FFE0"/>
<rect x="453.126" y="20" width="14" height="14" rx="1.94136" fill="#00FFE0"/>
<rect x="721.126" y="100" width="8" height="8" rx="1.94136" fill="#00FFE0"/>
<rect x="737.126" y="100" width="8" height="8" rx="1.94136" fill="#00FFE0"/>
<circle cx="3" cy="3" r="3" transform="matrix(-1 0 0 1 1057.13 101)" fill="#00FFE0"/>
<circle cx="3" cy="3" r="3" transform="matrix(-1 0 0 1 1065.13 101)" fill="#00FFE0"/>
<circle cx="3" cy="3" r="3" transform="matrix(-1 0 0 1 1073.13 101)" fill="#00FFE0"/>
<circle cx="3" cy="3" r="3" transform="matrix(-1 0 0 1 1081.13 101)" fill="#00FFE0"/>
<circle cx="3" cy="3" r="3" transform="matrix(-1 0 0 1 1089.13 101)" fill="#00FFE0"/>
<rect x="1173.13" width="14" height="14" rx="1.94136" fill="#00FFE0"/>
<rect x="1194.13" width="14" height="14" rx="1.94136" fill="#00FFE0"/>
<circle cx="3" cy="3" r="3" transform="matrix(-1 0 0 1 54.126 4)" fill="#00FFE0"/>
<circle cx="3" cy="3" r="3" transform="matrix(-1 0 0 1 46.126 4)" fill="#00FFE0"/>
<circle cx="3" cy="3" r="3" transform="matrix(-1 0 0 1 62.126 4)" fill="#00FFE0"/>
<circle cx="3" cy="3" r="3" transform="matrix(-1 0 0 1 70.126 4)" fill="#00FFE0"/>
<circle cx="3" cy="3" r="3" transform="matrix(-1 0 0 1 78.126 4)" fill="#00FFE0"/>
</svg>
