<svg width="575" height="143" viewBox="0 0 575 143" fill="none" xmlns="http://www.w3.org/2000/svg">
<path d="M423.821 70.2872H338.838M423.821 88.5653H365.878L340.125 114.677H233.253M423.821 54.6202H365.878L338.838 27.203H233.253" stroke="#FF00E5" stroke-width="2"/>
<path d="M411.916 15.1541H423.544" stroke="#FF00E5" stroke-width="2"/>
<path d="M411.916 1.65039H423.544" stroke="#FF00E5" stroke-width="2"/>
<path d="M411.916 141.792H423.544" stroke="#FF00E5" stroke-width="2"/>
<path d="M411.916 29.0721H423.544" stroke="#FF00E5" stroke-width="2"/>
<path d="M411.916 41.9912H423.544" stroke="#FF00E5" stroke-width="2"/>
<path d="M411.916 100.42H423.544" stroke="#FF00E5" stroke-width="2"/>
<path d="M411.916 114.341H423.544" stroke="#FF00E5" stroke-width="2"/>
<path d="M411.916 128.26H423.544" stroke="#FF00E5" stroke-width="2"/>
<path d="M573.214 14.8643V1.64978H423.697V141.795H573.214V14.8643Z" stroke="#FF00E5" stroke-width="2"/>
<rect width="117.153" height="117.153" rx="4.6861" transform="matrix(-1 0 0 1 557.031 13.1467)" fill="#00FFE0"/>
<rect x="233.957" y="103.769" width="22.1014" height="22.1014" rx="5.08746" transform="rotate(90 233.957 103.769)" stroke="#00FFE0" stroke-width="2.21014"/>
<rect x="340.043" y="59.5649" width="22.1014" height="22.1014" rx="5.08746" transform="rotate(90 340.043 59.5649)" stroke="#00FFE0" stroke-width="2.21014"/>
<rect x="233.957" y="16.4673" width="22.1014" height="22.1014" rx="5.08746" transform="rotate(90 233.957 16.4673)" stroke="#00FFE0" stroke-width="2.21014"/>
<rect x="191.964" y="16.4673" width="22.1014" height="22.1014" rx="5.08746" transform="rotate(90 191.964 16.4673)" stroke="#00FFE0" stroke-width="2.21014"/>
<rect x="149.971" y="16.4673" width="22.1014" height="22.1014" rx="5.08746" transform="rotate(90 149.971 16.4673)" stroke="#00FFE0" stroke-width="2.21014"/>
<rect x="107.979" y="16.4673" width="22.1014" height="22.1014" rx="5.08746" transform="rotate(90 107.979 16.4673)" stroke="#00FFE0" stroke-width="2.21014"/>
<rect x="65.9854" y="16.4673" width="22.1014" height="22.1014" rx="5.08746" transform="rotate(90 65.9854 16.4673)" stroke="#00FFE0" stroke-width="2.21014"/>
<rect x="23.9927" y="16.4673" width="22.1014" height="22.1014" rx="5.08746" transform="rotate(90 23.9927 16.4673)" stroke="#00FFE0" stroke-width="2.21014"/>
<rect x="191.964" y="103.769" width="22.1014" height="22.1014" rx="5.08746" transform="rotate(90 191.964 103.769)" stroke="#00FFE0" stroke-width="2.21014"/>
</svg>
