<svg width="668" height="538" viewBox="0 0 668 538" fill="none" xmlns="http://www.w3.org/2000/svg">
<g clip-path="url(#clip0_207_19117)">
<mask id="mask0_207_19117" style="mask-type:alpha" maskUnits="userSpaceOnUse" x="13" y="16" width="319" height="515">
<path d="M14.0672 41.0846C13.6407 41.4648 13.4136 41.9784 13.4165 42.5497C13.7197 102.077 36.1905 221.846 124.053 232.101C124.231 232.122 124.416 232.119 124.593 232.092C125.953 231.887 127.351 231.679 128.784 231.468C184.169 223.312 292.216 211.246 314.818 223.63L331.713 175.459C331.889 174.956 331.861 174.401 331.634 173.919C309.642 127.156 280.178 92.5811 247.854 67.9338C160.418 1.26237 52.0571 7.23008 14.0672 41.0846Z" fill="black"/>
<path d="M73.2009 512.573C72.4443 512.373 71.8695 511.756 71.7218 510.988L68.7364 495.45L56.4081 505.593C55.8725 506.033 55.5977 506.716 55.6787 507.405L57.5983 523.73C57.6964 524.565 58.297 525.254 59.1107 525.465L78.7763 530.569C79.5448 530.769 80.3593 530.504 80.8633 529.89L91.1745 517.342L73.2009 512.573Z" fill="black"/>
<path fill-rule="evenodd" clip-rule="evenodd" d="M314.818 223.63C292.216 211.246 184.169 223.312 128.784 231.468L96.6538 262.994C96.1015 263.536 95.9037 264.344 96.143 265.079L101.346 281.078C101.581 281.799 101.395 282.592 100.865 283.134L83.0059 301.385C82.5393 301.862 82.3356 302.537 82.4604 303.192L90.1932 343.808C90.5074 345.459 92.5716 346.042 93.7029 344.799L103.89 333.612C104.35 333.107 104.526 332.404 104.359 331.741L96.7252 301.451C96.5075 300.587 96.8762 299.681 97.6357 299.215L102.53 296.212C103.762 295.456 105.368 296.188 105.606 297.614L112.877 341.183C112.984 341.827 112.777 342.483 112.319 342.948L92.1588 363.432C91.6565 363.943 91.4588 364.679 91.6382 365.373L105.769 419.999C106.155 421.489 107.991 422.031 109.123 420.988L117.894 412.912C118.441 412.409 118.67 411.648 118.493 410.927L108.18 368.918C108.006 368.208 108.225 367.458 108.755 366.955L113.55 362.398C114.729 361.277 116.68 361.921 116.962 363.522L126.137 415.664C126.255 416.336 126.03 417.022 125.536 417.493L95.441 446.182C94.8228 446.772 94.6375 447.684 94.9768 448.467L103.733 468.696L211.618 300.863C212.163 300.014 212.844 299.26 213.633 298.632C213.823 298.481 214.014 298.339 214.208 298.205L234.288 283.296C235.938 282.071 238.159 283.78 237.397 285.689L227.989 309.251L167.429 462.808L177.189 469.951C177.772 470.378 178.538 470.464 179.202 470.177L253.526 438.006C254.262 437.687 254.743 436.967 254.754 436.165L255.366 394.622C255.378 393.82 255.859 393.1 256.595 392.781L262.757 390.114C264.041 389.558 265.491 390.431 265.599 391.826L268.104 424.007C268.213 425.402 269.662 426.276 270.946 425.72L283.625 420.232C284.433 419.882 284.925 419.054 284.846 418.177L279.675 361.188C279.55 359.805 278.109 358.95 276.835 359.501L258.354 367.501C256.595 368.262 254.854 366.396 255.734 364.694L315.288 249.495C315.446 249.188 315.524 248.847 315.515 248.502L314.818 223.63Z" fill="black"/>
</mask>
<g mask="url(#mask0_207_19117)">
<path d="M315.912 30.2468L301.071 15.4227M290.683 -9.77839L275.842 5.04577M290.683 39.1413L278.811 51.0007M266.938 30.2468L252.097 15.4227M229.836 51.0007L241.709 39.1413M220.932 30.2468L206.091 15.4227M229.836 5.04577L241.709 -6.81355M266.938 -15.708L256.55 -26.085" stroke="#FF00E5" stroke-width="2.10096"/>
<path d="M314.854 106.276L300.013 91.452M289.624 66.2509L274.784 81.0751M289.624 115.171L277.752 127.03M265.879 106.276L251.039 91.452M228.778 127.03L240.65 115.171M219.874 106.276L205.033 91.452M228.778 81.0751L240.65 69.2157M265.879 60.3212L255.491 49.9443" stroke="#FF00E5" stroke-width="2.10096"/>
<path d="M313.803 182.306L298.962 167.482M288.574 142.281L273.733 157.105M288.574 191.201L276.701 203.06M264.829 182.306L249.988 167.482M227.727 203.06L239.6 191.201M218.823 182.306L203.982 167.482M227.727 157.105L239.6 145.246M264.829 136.352L254.44 125.975" stroke="#FF00E5" stroke-width="2.10096"/>
<path d="M312.744 258.336L297.904 243.512M287.515 218.311L272.674 233.135M287.515 267.231L275.643 279.09M263.77 258.336L248.929 243.512M226.669 279.09L238.541 267.231M217.764 258.336L202.924 243.512M226.669 233.135L238.541 221.276M263.77 212.381L253.382 202.004" stroke="#FF00E5" stroke-width="2.10096"/>
<path d="M311.686 334.365L296.845 319.541M286.456 294.34L271.616 309.164M286.456 343.26L274.584 355.119M262.711 334.365L247.871 319.541M225.61 355.119L237.482 343.26M216.706 334.365L201.865 319.541M225.61 309.164L237.482 297.305M262.711 288.411L252.323 278.034" stroke="#FF00E5" stroke-width="2.10096"/>
<path d="M310.631 410.395L295.79 395.571M285.402 370.37L270.561 385.194M285.402 419.289L273.529 431.149M261.657 410.395L246.816 395.571M224.555 431.149L236.428 419.289M215.651 410.395L200.81 395.571M224.555 385.194L236.428 373.334M261.657 364.44L251.268 354.063" stroke="#FF00E5" stroke-width="2.10096"/>
<path d="M309.576 486.425L294.736 471.6M284.347 446.399L269.506 461.224M284.347 495.319L272.475 507.178M260.602 486.425L245.761 471.6M223.501 507.178L235.373 495.319M214.596 486.425L199.756 471.6M223.501 461.224L235.373 449.364M260.602 440.47L250.214 430.093" stroke="#FF00E5" stroke-width="2.10096"/>
<path d="M206.093 30.2468L191.252 15.4227M180.864 -9.77839L166.023 5.04577M180.864 39.1413L168.991 51.0007M157.119 30.2468L142.278 15.4227M120.017 51.0007L131.89 39.1413M111.113 30.2468L96.2721 15.4227M120.017 5.04577L131.89 -6.81355M157.119 -15.708L146.73 -26.085" stroke="#FF00E5" stroke-width="2.10096"/>
<path d="M205.035 106.276L190.195 91.452M179.806 66.2509L164.965 81.0751M179.806 115.171L167.934 127.03M156.061 106.276L141.22 91.452M118.96 127.03L130.832 115.171M110.055 106.276L95.2145 91.452M118.96 81.0751L130.832 69.2157M156.061 60.3212L145.673 49.9443" stroke="#FF00E5" stroke-width="2.10096"/>
<path d="M203.979 182.306L189.139 167.482M178.75 142.281L163.91 157.105M178.75 191.201L166.878 203.06M155.005 182.306L140.165 167.482M117.904 203.06L129.776 191.201M108.999 182.306L94.1589 167.482M117.904 157.105L129.776 145.246M155.005 136.352L144.617 125.975" stroke="#FF00E5" stroke-width="2.10096"/>
<path d="M202.921 258.336L188.08 243.512M177.692 218.311L162.851 233.135M177.692 267.231L165.819 279.09M153.947 258.336L139.106 243.512M116.845 279.09L128.718 267.231M107.941 258.336L93.1003 243.512M116.845 233.135L128.718 221.276M153.947 212.381L143.558 202.004" stroke="#FF00E5" stroke-width="2.10096"/>
<path d="M201.867 334.365L187.027 319.541M176.638 294.34L161.797 309.164M176.638 343.26L164.766 355.119M152.893 334.365L138.052 319.541M115.792 355.119L127.664 343.26M106.887 334.365L92.0466 319.541M115.792 309.164L127.664 297.305M152.893 288.411L142.505 278.034" stroke="#FF00E5" stroke-width="2.10096"/>
<path d="M200.812 410.395L185.971 395.571M175.582 370.37L160.742 385.194M175.582 419.289L163.71 431.149M151.837 410.395L136.997 395.571M114.736 431.149L126.608 419.289M105.832 410.395L90.9909 395.571M114.736 385.194L126.608 373.334M151.837 364.44L141.449 354.063" stroke="#FF00E5" stroke-width="2.10096"/>
<path d="M199.754 486.425L184.913 471.6M174.525 446.399L159.684 461.224M174.525 495.319L162.652 507.178M150.78 486.425L135.939 471.6M113.678 507.178L125.551 495.319M104.774 486.425L89.9333 471.6M113.678 461.224L125.551 449.364M150.78 440.47L140.391 430.093" stroke="#FF00E5" stroke-width="2.10096"/>
<path d="M96.2695 30.2468L81.4289 15.4227M71.0405 -9.77839L56.1998 5.04577M71.0405 39.1413L59.168 51.0007M47.2955 30.2468L32.4548 15.4227M10.1939 51.0007L22.0664 39.1413M1.28953 30.2468L-13.5511 15.4227M10.1939 5.04577L22.0664 -6.81355M47.2955 -15.708L36.907 -26.085" stroke="#FF00E5" stroke-width="2.10096"/>
<path d="M95.2119 106.276L80.3713 91.452M69.9829 66.2509L55.1422 81.0751M69.9829 115.171L58.1104 127.03M46.2378 106.276L31.3972 91.452M9.13629 127.03L21.0088 115.171M0.231911 106.276L-14.6087 91.452M9.13629 81.0751L21.0088 69.2157M46.2378 60.3212L35.8494 49.9443" stroke="#FF00E5" stroke-width="2.10096"/>
<path d="M94.1602 182.306L79.3195 167.482M68.9311 142.281L54.0905 157.105M68.9311 191.201L57.0586 203.06M45.1861 182.306L30.3455 167.482M8.08453 203.06L19.957 191.201M-0.819847 182.306L-15.6605 167.482M8.08453 157.105L19.957 145.246M45.1861 136.352L34.7977 125.975" stroke="#FF00E5" stroke-width="2.10096"/>
<path d="M93.1025 258.336L78.2619 243.512M67.8735 218.311L53.0329 233.135M67.8735 267.231L56.001 279.09M44.1285 258.336L29.2878 243.512M7.02691 279.09L18.8994 267.231M-1.87746 258.336L-16.7181 243.512M7.02691 233.135L18.8994 221.276M44.1285 212.381L33.74 202.004" stroke="#FF00E5" stroke-width="2.10096"/>
<path d="M92.0439 334.365L77.2033 319.541M66.8149 294.34L51.9743 309.164M66.8149 343.26L54.9424 355.119M43.0699 334.365L28.2293 319.541M5.96832 355.119L17.8408 343.26M-2.93606 334.365L-17.7767 319.541M5.96832 309.164L17.8408 297.305M43.0699 288.411L32.6814 278.034" stroke="#FF00E5" stroke-width="2.10096"/>
<path d="M90.9932 410.395L76.1525 395.571M65.7641 370.37L50.9235 385.194M65.7641 419.289L53.8916 431.149M42.0191 410.395L27.1785 395.571M4.91754 431.149L16.79 419.289M-3.98684 410.395L-18.8275 395.571M4.91754 385.194L16.79 373.334M42.0191 364.44L31.6307 354.063" stroke="#FF00E5" stroke-width="2.10096"/>
<path d="M89.9346 486.425L75.0939 471.6M64.7055 446.399L49.8649 461.224M64.7055 495.319L52.833 507.178M40.9605 486.425L26.1199 471.6M3.85894 507.178L15.7314 495.319M-5.04543 486.425L-19.8861 471.6M3.85894 461.224L15.7314 449.364M40.9605 440.47L30.5721 430.093" stroke="#FF00E5" stroke-width="2.10096"/>
</g>
<mask id="mask1_207_19117" style="mask-type:alpha" maskUnits="userSpaceOnUse" x="336" y="16" width="319" height="515">
<path d="M654.254 41.0846C654.681 41.4648 654.908 41.9784 654.905 42.5497C654.602 102.077 632.131 221.846 544.268 232.101C544.09 232.122 543.906 232.119 543.728 232.092C542.368 231.887 540.971 231.679 539.538 231.468C484.153 223.312 376.105 211.246 353.503 223.63L336.608 175.459C336.432 174.956 336.461 174.401 336.687 173.919C358.679 127.156 388.143 92.5811 420.467 67.9338C507.903 1.26237 616.264 7.23007 654.254 41.0846Z" fill="white"/>
<path d="M595.12 512.573C595.877 512.373 596.452 511.756 596.599 510.988L599.585 495.45L611.913 505.593C612.449 506.033 612.724 506.716 612.643 507.405L610.723 523.73C610.625 524.565 610.024 525.254 609.211 525.465L589.545 530.569C588.776 530.769 587.962 530.504 587.458 529.89L577.147 517.342L595.12 512.573Z" fill="white"/>
<path fill-rule="evenodd" clip-rule="evenodd" d="M353.503 223.63C376.105 211.246 484.153 223.312 539.538 231.468L571.667 262.994C572.22 263.536 572.418 264.344 572.178 265.079L566.975 281.078C566.741 281.799 566.926 282.592 567.457 283.134L585.315 301.385C585.782 301.862 585.986 302.537 585.861 303.192L578.128 343.808C577.814 345.459 575.75 346.042 574.618 344.799L564.432 333.612C563.971 333.107 563.795 332.404 563.962 331.741L571.596 301.451C571.814 300.587 571.445 299.681 570.686 299.215L565.792 296.212C564.559 295.456 562.953 296.188 562.715 297.614L555.445 341.183C555.337 341.827 555.545 342.483 556.002 342.948L576.162 363.432C576.665 363.943 576.862 364.679 576.683 365.373L562.552 419.999C562.167 421.489 560.331 422.031 559.198 420.988L550.427 412.912C549.881 412.409 549.651 411.648 549.828 410.927L560.141 368.918C560.316 368.208 560.096 367.458 559.566 366.955L554.771 362.398C553.592 361.277 551.641 361.921 551.359 363.522L542.184 415.664C542.066 416.336 542.292 417.022 542.785 417.493L572.88 446.182C573.498 446.772 573.684 447.684 573.344 448.467L564.588 468.696L456.704 300.863C456.158 300.014 455.477 299.26 454.688 298.632C454.498 298.481 454.307 298.339 454.114 298.205L434.033 283.296C432.383 282.071 430.163 283.78 430.924 285.689L440.332 309.251L500.893 462.808L491.133 469.951C490.549 470.378 489.783 470.464 489.119 470.177L414.795 438.006C414.059 437.687 413.579 436.967 413.567 436.165L412.955 394.622C412.943 393.82 412.462 393.1 411.726 392.781L405.564 390.114C404.28 389.558 402.831 390.431 402.722 391.826L400.217 424.007C400.108 425.402 398.659 426.276 397.375 425.72L384.696 420.232C383.888 419.882 383.396 419.054 383.476 418.177L388.646 361.188C388.772 359.805 390.212 358.95 391.486 359.501L409.967 367.501C411.726 368.262 413.468 366.396 412.588 364.694L353.033 249.495C352.875 249.188 352.797 248.846 352.806 248.502L353.503 223.63Z" fill="white"/>
</mask>
<g mask="url(#mask1_207_19117)">
<path d="M688.67 30.2468L673.829 15.4227M663.441 -9.77839L648.6 5.04577M663.441 39.1413L651.568 51.0007M639.696 30.2468L624.855 15.4227M602.594 51.0007L614.467 39.1413M593.69 30.2468L578.849 15.4227M602.594 5.04577L614.467 -6.81355M639.696 -15.708L629.307 -26.085" stroke="#FF00E5" stroke-width="2.10096"/>
<path d="M687.611 106.276L672.771 91.452M662.382 66.2509L647.542 81.0751M662.382 115.171L650.51 127.03M638.637 106.276L623.797 91.452M601.536 127.03L613.408 115.171M592.631 106.276L577.791 91.452M601.536 81.0751L613.408 69.2157M638.637 60.3212L628.249 49.9443" stroke="#FF00E5" stroke-width="2.10096"/>
<path d="M686.561 182.306L671.72 167.482M661.331 142.281L646.491 157.105M661.331 191.201L649.459 203.06M637.586 182.306L622.746 167.482M600.485 203.06L612.357 191.201M591.581 182.306L576.74 167.482M600.485 157.105L612.357 145.246M637.586 136.352L627.198 125.975" stroke="#FF00E5" stroke-width="2.10096"/>
<path d="M685.502 258.336L670.661 243.512M660.273 218.311L645.432 233.135M660.273 267.231L648.4 279.09M636.528 258.336L621.687 243.512M599.426 279.09L611.299 267.231M590.522 258.336L575.681 243.512M599.426 233.135L611.299 221.276M636.528 212.381L626.139 202.004" stroke="#FF00E5" stroke-width="2.10096"/>
<path d="M684.443 334.365L669.603 319.541M659.214 294.34L644.374 309.164M659.214 343.26L647.342 355.119M635.469 334.365L620.629 319.541M598.368 355.119L610.24 343.26M589.463 334.365L574.623 319.541M598.368 309.164L610.24 297.305M635.469 288.411L625.081 278.034" stroke="#FF00E5" stroke-width="2.10096"/>
<path d="M683.39 410.395L668.549 395.571M658.161 370.37L643.32 385.194M658.161 419.289L646.288 431.149M634.416 410.395L619.575 395.571M597.314 431.149L609.187 419.289M588.41 410.395L573.569 395.571M597.314 385.194L609.187 373.334M634.416 364.44L624.027 354.063" stroke="#FF00E5" stroke-width="2.10096"/>
<path d="M682.335 486.425L667.494 471.6M657.106 446.399L642.265 461.224M657.106 495.319L645.233 507.178M633.361 486.425L618.52 471.6M596.259 507.178L608.132 495.319M587.355 486.425L572.514 471.6M596.259 461.224L608.132 449.364M633.361 440.47L622.972 430.093" stroke="#FF00E5" stroke-width="2.10096"/>
<path d="M578.851 30.2468L564.01 15.4227M553.622 -9.77839L538.781 5.04577M553.622 39.1413L541.749 51.0007M529.877 30.2468L515.036 15.4227M492.775 51.0007L504.647 39.1413M483.871 30.2468L469.03 15.4227M492.775 5.04577L504.647 -6.81355M529.877 -15.708L519.488 -26.085" stroke="#FF00E5" stroke-width="2.10096"/>
<path d="M577.792 106.276L562.951 91.452M552.563 66.2509L537.722 81.0751M552.563 115.171L540.69 127.03M528.818 106.276L513.977 91.452M491.716 127.03L503.589 115.171M482.812 106.276L467.971 91.452M491.716 81.0751L503.589 69.2157M528.818 60.3212L518.429 49.9443" stroke="#FF00E5" stroke-width="2.10096"/>
<path d="M576.737 182.306L561.897 167.482M551.508 142.281L536.668 157.105M551.508 191.201L539.636 203.06M527.763 182.306L512.923 167.482M490.662 203.06L502.534 191.201M481.757 182.306L466.917 167.482M490.662 157.105L502.534 145.246M527.763 136.352L517.375 125.975" stroke="#FF00E5" stroke-width="2.10096"/>
<path d="M575.68 258.336L560.839 243.512M550.451 218.311L535.61 233.135M550.451 267.231L538.578 279.09M526.706 258.336L511.865 243.512M489.604 279.09L501.477 267.231M480.7 258.336L465.859 243.512M489.604 233.135L501.477 221.276M526.706 212.381L516.317 202.004" stroke="#FF00E5" stroke-width="2.10096"/>
<path d="M574.625 334.365L559.784 319.541M549.396 294.34L534.555 309.164M549.396 343.26L537.523 355.119M525.651 334.365L510.81 319.541M488.549 355.119L500.422 343.26M479.645 334.365L464.804 319.541M488.549 309.164L500.422 297.305M525.651 288.411L515.262 278.034" stroke="#FF00E5" stroke-width="2.10096"/>
<path d="M573.57 410.395L558.73 395.571M548.341 370.37L533.501 385.194M548.341 419.289L536.469 431.149M524.596 410.395L509.756 395.571M487.495 431.149L499.367 419.289M478.59 410.395L463.75 395.571M487.495 385.194L499.367 373.334M524.596 364.44L514.208 354.063" stroke="#FF00E5" stroke-width="2.10096"/>
<path d="M572.512 486.425L557.671 471.6M547.283 446.399L532.442 461.224M547.283 495.319L535.41 507.178M523.538 486.425L508.697 471.6M486.436 507.178L498.309 495.319M477.532 486.425L462.691 471.6M486.436 461.224L498.309 449.364M523.538 440.47L513.149 430.093" stroke="#FF00E5" stroke-width="2.10096"/>
<path d="M469.027 30.2468L454.187 15.4227M443.798 -9.77839L428.958 5.04577M443.798 39.1413L431.926 51.0007M420.053 30.2468L405.213 15.4227M382.952 51.0007L394.824 39.1413M374.047 30.2468L359.207 15.4227M382.952 5.04577L394.824 -6.81355M420.053 -15.708L409.665 -26.085" stroke="#FF00E5" stroke-width="2.10096"/>
<path d="M467.969 106.276L453.128 91.452M442.74 66.2509L427.899 81.0751M442.74 115.171L430.867 127.03M418.995 106.276L404.154 91.452M381.893 127.03L393.766 115.171M372.989 106.276L358.148 91.452M381.893 81.0751L393.766 69.2157M418.995 60.3212L408.606 49.9443" stroke="#FF00E5" stroke-width="2.10096"/>
<path d="M466.918 182.306L452.077 167.482M441.689 142.281L426.848 157.105M441.689 191.201L429.816 203.06M417.944 182.306L403.103 167.482M380.842 203.06L392.715 191.201M371.938 182.306L357.097 167.482M380.842 157.105L392.715 145.246M417.944 136.352L407.555 125.975" stroke="#FF00E5" stroke-width="2.10096"/>
<path d="M465.86 258.336L451.02 243.512M440.631 218.311L425.791 233.135M440.631 267.231L428.759 279.09M416.886 258.336L402.046 243.512M379.785 279.09L391.657 267.231M370.88 258.336L356.04 243.512M379.785 233.135L391.657 221.276M416.886 212.381L406.498 202.004" stroke="#FF00E5" stroke-width="2.10096"/>
<path d="M464.802 334.365L449.961 319.541M439.573 294.34L424.732 309.164M439.573 343.26L427.7 355.119M415.828 334.365L400.987 319.541M378.726 355.119L390.599 343.26M369.822 334.365L354.981 319.541M378.726 309.164L390.599 297.305M415.828 288.411L405.439 278.034" stroke="#FF00E5" stroke-width="2.10096"/>
<path d="M463.751 410.395L448.91 395.571M438.522 370.37L423.681 385.194M438.522 419.289L426.649 431.149M414.777 410.395L399.936 395.571M377.675 431.149L389.548 419.289M368.771 410.395L353.93 395.571M377.675 385.194L389.548 373.334M414.777 364.44L404.388 354.063" stroke="#FF00E5" stroke-width="2.10096"/>
<path d="M462.692 486.425L447.852 471.6M437.463 446.399L422.623 461.224M437.463 495.319L425.591 507.178M413.718 486.425L398.878 471.6M376.617 507.178L388.489 495.319M367.712 486.425L352.872 471.6M376.617 461.224L388.489 449.364M413.718 440.47L403.33 430.093" stroke="#FF00E5" stroke-width="2.10096"/>
</g>
</g>
<defs>
<clipPath id="clip0_207_19117">
<rect width="668" height="538" fill="white"/>
</clipPath>
</defs>
</svg>
