<svg width="668" height="538" viewBox="0 0 668 538" fill="none" xmlns="http://www.w3.org/2000/svg">
<g clip-path="url(#clip0_207_21271)">
<mask id="mask0_207_21271" style="mask-type:alpha" maskUnits="userSpaceOnUse" x="13" y="16" width="319" height="515">
<path d="M14.0672 41.0846C13.6407 41.4648 13.4136 41.9784 13.4165 42.5497C13.7197 102.077 36.1905 221.846 124.053 232.101C124.231 232.122 124.416 232.119 124.593 232.092C125.953 231.887 127.351 231.679 128.784 231.468C184.169 223.312 292.216 211.246 314.818 223.63L331.713 175.459C331.889 174.956 331.861 174.401 331.634 173.919C309.642 127.156 280.178 92.5811 247.854 67.9338C160.418 1.26237 52.0571 7.23008 14.0672 41.0846Z" fill="black"/>
<path d="M73.2009 512.573C72.4443 512.373 71.8695 511.756 71.7218 510.988L68.7364 495.45L56.4081 505.593C55.8725 506.033 55.5977 506.716 55.6787 507.405L57.5983 523.73C57.6964 524.565 58.297 525.254 59.1107 525.465L78.7763 530.569C79.5448 530.769 80.3593 530.504 80.8633 529.89L91.1745 517.342L73.2009 512.573Z" fill="black"/>
<path fill-rule="evenodd" clip-rule="evenodd" d="M314.818 223.63C292.216 211.246 184.169 223.312 128.784 231.468L96.6538 262.994C96.1015 263.536 95.9037 264.344 96.143 265.079L101.346 281.078C101.581 281.799 101.395 282.592 100.865 283.134L83.0059 301.385C82.5393 301.862 82.3356 302.537 82.4604 303.192L90.1932 343.808C90.5074 345.459 92.5716 346.042 93.7029 344.799L103.89 333.612C104.35 333.107 104.526 332.404 104.359 331.741L96.7252 301.451C96.5075 300.587 96.8762 299.681 97.6357 299.215L102.53 296.212C103.762 295.456 105.368 296.188 105.606 297.614L112.877 341.183C112.984 341.827 112.777 342.483 112.319 342.948L92.1588 363.432C91.6565 363.943 91.4588 364.679 91.6382 365.373L105.769 419.999C106.155 421.489 107.991 422.031 109.123 420.988L117.894 412.912C118.441 412.409 118.67 411.648 118.493 410.927L108.18 368.918C108.006 368.208 108.225 367.458 108.755 366.955L113.55 362.398C114.729 361.277 116.68 361.921 116.962 363.522L126.137 415.664C126.255 416.336 126.03 417.022 125.536 417.493L95.441 446.182C94.8228 446.772 94.6375 447.684 94.9768 448.467L103.733 468.696L211.618 300.863C212.163 300.014 212.844 299.26 213.633 298.632C213.823 298.481 214.014 298.339 214.208 298.205L234.288 283.296C235.938 282.071 238.159 283.78 237.397 285.689L227.989 309.251L167.429 462.808L177.189 469.951C177.772 470.378 178.538 470.464 179.202 470.177L253.526 438.006C254.262 437.687 254.743 436.967 254.754 436.165L255.366 394.622C255.378 393.82 255.859 393.1 256.595 392.781L262.757 390.114C264.041 389.558 265.491 390.431 265.599 391.826L268.104 424.007C268.213 425.402 269.662 426.276 270.946 425.72L283.625 420.232C284.433 419.882 284.925 419.054 284.846 418.177L279.675 361.188C279.55 359.805 278.109 358.95 276.835 359.501L258.354 367.501C256.595 368.262 254.854 366.396 255.734 364.694L315.288 249.495C315.446 249.188 315.524 248.847 315.515 248.502L314.818 223.63Z" fill="black"/>
</mask>
<g mask="url(#mask0_207_21271)">
<path d="M-241.094 240.02L290.586 771.699" stroke="#FF00E5" stroke-width="2.10096"/>
<path d="M-230.533 205.172L301.146 736.852" stroke="#FF00E5" stroke-width="2.10096"/>
<path d="M-219.976 170.325L311.704 702.005" stroke="#FF00E5" stroke-width="2.10096"/>
<path d="M-209.415 135.48L322.265 667.16" stroke="#FF00E5" stroke-width="2.10096"/>
<path d="M-198.854 100.631L332.826 632.311" stroke="#FF00E5" stroke-width="2.10096"/>
<path d="M-188.297 65.7842L343.383 597.464" stroke="#FF00E5" stroke-width="2.10096"/>
<path d="M-177.736 30.938L353.943 562.618" stroke="#FF00E5" stroke-width="2.10096"/>
<path d="M-167.18 -3.90918L364.5 527.77" stroke="#FF00E5" stroke-width="2.10096"/>
<path d="M-156.618 -38.7563L375.062 492.923" stroke="#FF00E5" stroke-width="2.10096"/>
<path d="M-146.053 -73.6035L385.627 458.076" stroke="#FF00E5" stroke-width="2.10096"/>
<path d="M-135.497 -108.45L396.183 423.23" stroke="#FF00E5" stroke-width="2.10096"/>
<path d="M-124.936 -143.296L406.744 388.384" stroke="#FF00E5" stroke-width="2.10096"/>
<path d="M-114.375 -178.142L417.305 353.538" stroke="#FF00E5" stroke-width="2.10096"/>
<path d="M-103.818 -212.992L427.861 318.687" stroke="#FF00E5" stroke-width="2.10096"/>
<path d="M-93.2568 -247.837L438.423 283.842" stroke="#FF00E5" stroke-width="2.10096"/>
<path d="M-82.7002 -282.685L448.979 248.995" stroke="#FF00E5" stroke-width="2.10096"/>
<path d="M-20.3418 -60.4043L-214.95 665.884" stroke="#FF00E5" stroke-width="2.10096"/>
<path d="M15.1172 -68.6826L-179.491 657.605" stroke="#FF00E5" stroke-width="2.10096"/>
<path d="M50.5801 -76.9619L-144.028 649.326" stroke="#FF00E5" stroke-width="2.10096"/>
<path d="M86.0352 -85.2397L-108.573 641.048" stroke="#FF00E5" stroke-width="2.10096"/>
<path d="M121.491 -93.5181L-73.1171 632.77" stroke="#FF00E5" stroke-width="2.10096"/>
<path d="M156.95 -101.796L-37.6581 624.492" stroke="#FF00E5" stroke-width="2.10096"/>
<path d="M192.405 -110.076L-2.20303 616.212" stroke="#FF00E5" stroke-width="2.10096"/>
<path d="M227.869 -118.354L33.2608 607.934" stroke="#FF00E5" stroke-width="2.10096"/>
<path d="M263.328 -126.632L68.7198 599.656" stroke="#FF00E5" stroke-width="2.10096"/>
<path d="M298.784 -134.911L104.176 591.377" stroke="#FF00E5" stroke-width="2.10096"/>
<path d="M334.239 -143.19L139.631 583.098" stroke="#FF00E5" stroke-width="2.10096"/>
<path d="M369.699 -151.467L175.091 574.821" stroke="#FF00E5" stroke-width="2.10096"/>
<path d="M405.159 -159.746L210.551 566.542" stroke="#FF00E5" stroke-width="2.10096"/>
<path d="M440.618 -168.024L246.01 558.264" stroke="#FF00E5" stroke-width="2.10096"/>
<path d="M476.077 -176.304L281.469 549.984" stroke="#FF00E5" stroke-width="2.10096"/>
<path d="M511.533 -184.581L316.925 541.707" stroke="#FF00E5" stroke-width="2.10096"/>
</g>
<mask id="mask1_207_21271" style="mask-type:alpha" maskUnits="userSpaceOnUse" x="336" y="16" width="319" height="515">
<path d="M654.254 41.0846C654.681 41.4648 654.908 41.9784 654.905 42.5497C654.602 102.077 632.131 221.846 544.268 232.101C544.09 232.122 543.906 232.119 543.728 232.092C542.368 231.887 540.971 231.679 539.538 231.468C484.153 223.312 376.105 211.246 353.503 223.63L336.608 175.459C336.432 174.956 336.461 174.401 336.687 173.919C358.679 127.156 388.143 92.5811 420.467 67.9338C507.903 1.26237 616.264 7.23007 654.254 41.0846Z" fill="white"/>
<path d="M595.12 512.573C595.877 512.373 596.452 511.756 596.599 510.988L599.585 495.45L611.913 505.593C612.449 506.033 612.724 506.716 612.643 507.405L610.723 523.73C610.625 524.565 610.024 525.254 609.211 525.465L589.545 530.569C588.776 530.769 587.962 530.504 587.458 529.89L577.147 517.342L595.12 512.573Z" fill="white"/>
<path fill-rule="evenodd" clip-rule="evenodd" d="M353.503 223.63C376.105 211.246 484.153 223.312 539.538 231.468L571.667 262.994C572.22 263.536 572.418 264.344 572.178 265.079L566.975 281.078C566.741 281.799 566.926 282.592 567.457 283.134L585.315 301.385C585.782 301.862 585.986 302.537 585.861 303.192L578.128 343.808C577.814 345.459 575.75 346.042 574.618 344.799L564.432 333.612C563.971 333.107 563.795 332.404 563.962 331.741L571.596 301.451C571.814 300.587 571.445 299.681 570.686 299.215L565.792 296.212C564.559 295.456 562.953 296.188 562.715 297.614L555.445 341.183C555.337 341.827 555.545 342.483 556.002 342.948L576.162 363.432C576.665 363.943 576.862 364.679 576.683 365.373L562.552 419.999C562.167 421.489 560.331 422.031 559.198 420.988L550.427 412.912C549.881 412.409 549.651 411.648 549.828 410.927L560.141 368.918C560.316 368.208 560.096 367.458 559.566 366.955L554.771 362.398C553.592 361.277 551.641 361.921 551.359 363.522L542.184 415.664C542.066 416.336 542.292 417.022 542.785 417.493L572.88 446.182C573.498 446.772 573.684 447.684 573.344 448.467L564.588 468.696L456.704 300.863C456.158 300.014 455.477 299.26 454.688 298.632C454.498 298.481 454.307 298.339 454.114 298.205L434.033 283.296C432.383 282.071 430.163 283.78 430.924 285.689L440.332 309.251L500.893 462.808L491.133 469.951C490.549 470.378 489.783 470.464 489.119 470.177L414.795 438.006C414.059 437.687 413.579 436.967 413.567 436.165L412.955 394.622C412.943 393.82 412.462 393.1 411.726 392.781L405.564 390.114C404.28 389.558 402.831 390.431 402.722 391.826L400.217 424.007C400.108 425.402 398.659 426.276 397.375 425.72L384.696 420.232C383.888 419.882 383.396 419.054 383.476 418.177L388.646 361.188C388.772 359.805 390.212 358.95 391.486 359.501L409.967 367.501C411.726 368.262 413.468 366.396 412.588 364.694L353.033 249.495C352.875 249.188 352.797 248.846 352.806 248.502L353.503 223.63Z" fill="white"/>
</mask>
<g mask="url(#mask1_207_21271)">
<path d="M910.421 240.016L378.741 771.695" stroke="#FF00E5" stroke-width="2.10096"/>
<path d="M899.86 205.169L368.181 736.849" stroke="#FF00E5" stroke-width="2.10096"/>
<path d="M889.303 170.322L357.623 702.002" stroke="#FF00E5" stroke-width="2.10096"/>
<path d="M878.742 135.477L347.063 667.157" stroke="#FF00E5" stroke-width="2.10096"/>
<path d="M868.181 100.628L336.501 632.308" stroke="#FF00E5" stroke-width="2.10096"/>
<path d="M857.625 65.7822L325.945 597.462" stroke="#FF00E5" stroke-width="2.10096"/>
<path d="M847.063 30.9351L315.384 562.615" stroke="#FF00E5" stroke-width="2.10096"/>
<path d="M836.507 -3.91211L304.827 527.768" stroke="#FF00E5" stroke-width="2.10096"/>
<path d="M825.945 -38.7603L294.266 492.919" stroke="#FF00E5" stroke-width="2.10096"/>
<path d="M815.381 -73.6064L283.701 458.073" stroke="#FF00E5" stroke-width="2.10096"/>
<path d="M804.823 -108.453L273.144 423.227" stroke="#FF00E5" stroke-width="2.10096"/>
<path d="M794.263 -143.3L262.583 388.38" stroke="#FF00E5" stroke-width="2.10096"/>
<path d="M783.702 -178.146L252.022 353.534" stroke="#FF00E5" stroke-width="2.10096"/>
<path d="M773.145 -212.995L241.465 318.685" stroke="#FF00E5" stroke-width="2.10096"/>
<path d="M762.584 -247.84L230.904 283.839" stroke="#FF00E5" stroke-width="2.10096"/>
<path d="M752.027 -282.688L220.348 248.992" stroke="#FF00E5" stroke-width="2.10096"/>
<path d="M689.675 -60.4048L884.283 665.883" stroke="#FF00E5" stroke-width="2.10096"/>
<path d="M654.219 -68.6846L848.827 657.603" stroke="#FF00E5" stroke-width="2.10096"/>
<path d="M618.76 -76.9609L813.368 649.327" stroke="#FF00E5" stroke-width="2.10096"/>
<path d="M583.301 -85.2402L777.909 641.048" stroke="#FF00E5" stroke-width="2.10096"/>
<path d="M547.845 -93.5181L742.453 632.77" stroke="#FF00E5" stroke-width="2.10096"/>
<path d="M512.39 -101.797L706.998 624.491" stroke="#FF00E5" stroke-width="2.10096"/>
<path d="M476.926 -110.075L671.534 616.213" stroke="#FF00E5" stroke-width="2.10096"/>
<path d="M441.467 -118.355L636.075 607.932" stroke="#FF00E5" stroke-width="2.10096"/>
<path d="M406.011 -126.633L600.619 599.655" stroke="#FF00E5" stroke-width="2.10096"/>
<path d="M370.552 -134.912L565.16 591.376" stroke="#FF00E5" stroke-width="2.10096"/>
<path d="M335.097 -143.19L529.705 583.098" stroke="#FF00E5" stroke-width="2.10096"/>
<path d="M299.641 -151.469L494.249 574.819" stroke="#FF00E5" stroke-width="2.10096"/>
<path d="M264.177 -159.747L458.785 566.541" stroke="#FF00E5" stroke-width="2.10096"/>
<path d="M228.718 -168.026L423.326 558.262" stroke="#FF00E5" stroke-width="2.10096"/>
<path d="M193.263 -176.305L387.871 549.983" stroke="#FF00E5" stroke-width="2.10096"/>
<path d="M157.804 -184.582L352.412 541.706" stroke="#FF00E5" stroke-width="2.10096"/>
</g>
</g>
<defs>
<clipPath id="clip0_207_21271">
<rect width="668" height="538" fill="white"/>
</clipPath>
</defs>
</svg>
