<svg width="668" height="538" viewBox="0 0 668 538" fill="none" xmlns="http://www.w3.org/2000/svg">
<g clip-path="url(#clip0_207_16963)">
<mask id="mask0_207_16963" style="mask-type:alpha" maskUnits="userSpaceOnUse" x="13" y="16" width="319" height="515">
<path d="M14.0672 41.0846C13.6407 41.4648 13.4136 41.9784 13.4165 42.5497C13.7197 102.077 36.1905 221.846 124.053 232.101C124.231 232.122 124.416 232.119 124.593 232.092C125.953 231.887 127.351 231.679 128.784 231.468C184.169 223.312 292.216 211.246 314.818 223.63L331.713 175.459C331.889 174.956 331.861 174.401 331.634 173.919C309.642 127.156 280.178 92.5811 247.854 67.9338C160.418 1.26237 52.0571 7.23008 14.0672 41.0846Z" fill="black"/>
<path d="M73.2009 512.573C72.4443 512.373 71.8695 511.756 71.7218 510.988L68.7364 495.45L56.4081 505.593C55.8725 506.033 55.5977 506.716 55.6787 507.405L57.5983 523.73C57.6964 524.565 58.297 525.254 59.1107 525.465L78.7763 530.569C79.5448 530.769 80.3593 530.504 80.8633 529.89L91.1745 517.342L73.2009 512.573Z" fill="black"/>
<path fill-rule="evenodd" clip-rule="evenodd" d="M314.818 223.63C292.216 211.246 184.169 223.312 128.784 231.468L96.6538 262.994C96.1015 263.536 95.9037 264.344 96.143 265.079L101.346 281.078C101.581 281.799 101.395 282.592 100.865 283.134L83.0059 301.385C82.5393 301.862 82.3356 302.537 82.4604 303.192L90.1932 343.808C90.5074 345.459 92.5716 346.042 93.7029 344.799L103.89 333.612C104.35 333.107 104.526 332.404 104.359 331.741L96.7252 301.451C96.5075 300.587 96.8762 299.681 97.6357 299.215L102.53 296.212C103.762 295.456 105.368 296.188 105.606 297.614L112.877 341.183C112.984 341.827 112.777 342.483 112.319 342.948L92.1588 363.432C91.6565 363.943 91.4588 364.679 91.6382 365.373L105.769 419.999C106.155 421.489 107.991 422.031 109.123 420.988L117.894 412.912C118.441 412.409 118.67 411.648 118.493 410.927L108.18 368.918C108.006 368.208 108.225 367.458 108.755 366.955L113.55 362.398C114.729 361.277 116.68 361.921 116.962 363.522L126.137 415.664C126.255 416.336 126.03 417.022 125.536 417.493L95.441 446.182C94.8228 446.772 94.6375 447.684 94.9768 448.467L103.733 468.696L211.618 300.863C212.163 300.014 212.844 299.26 213.633 298.632C213.823 298.481 214.014 298.339 214.208 298.205L234.288 283.296C235.938 282.071 238.159 283.78 237.397 285.689L227.989 309.251L167.429 462.808L177.189 469.951C177.772 470.378 178.538 470.464 179.202 470.177L253.526 438.006C254.262 437.687 254.743 436.967 254.754 436.165L255.366 394.622C255.378 393.82 255.859 393.1 256.595 392.781L262.757 390.114C264.041 389.558 265.491 390.431 265.599 391.826L268.104 424.007C268.213 425.402 269.662 426.276 270.946 425.72L283.625 420.232C284.433 419.882 284.925 419.054 284.846 418.177L279.675 361.188C279.55 359.805 278.109 358.95 276.835 359.501L258.354 367.501C256.595 368.262 254.854 366.396 255.734 364.694L315.288 249.495C315.446 249.188 315.524 248.847 315.515 248.502L314.818 223.63Z" fill="black"/>
</mask>
<g mask="url(#mask0_207_16963)">
<circle cx="4.5889" cy="4.5889" r="4.5889" transform="matrix(-1 0 0 1 289.919 15.0977)" fill="#FF00E5"/>
<circle cx="4.5889" cy="4.5889" r="4.5889" transform="matrix(-1 0 0 1 229.728 15.0977)" fill="#FF00E5"/>
<circle cx="4.5889" cy="4.5889" r="4.5889" transform="matrix(-1 0 0 1 169.538 15.0977)" fill="#FF00E5"/>
<circle cx="4.5889" cy="4.5889" r="4.5889" transform="matrix(-1 0 0 1 109.348 15.0977)" fill="#FF00E5"/>
<circle cx="4.5889" cy="4.5889" r="4.5889" transform="matrix(-1 0 0 1 49.1582 15.0977)" fill="#FF00E5"/>
<circle cx="4.5889" cy="4.5889" r="4.5889" transform="matrix(-1 0 0 1 309.981 15.0977)" fill="#FF00E5"/>
<circle cx="4.5889" cy="4.5889" r="4.5889" transform="matrix(-1 0 0 1 249.792 15.0977)" fill="#FF00E5"/>
<circle cx="4.5889" cy="4.5889" r="4.5889" transform="matrix(-1 0 0 1 189.602 15.0977)" fill="#FF00E5"/>
<circle cx="4.5889" cy="4.5889" r="4.5889" transform="matrix(-1 0 0 1 129.411 15.0977)" fill="#FF00E5"/>
<circle cx="4.5889" cy="4.5889" r="4.5889" transform="matrix(-1 0 0 1 69.2217 15.0977)" fill="#FF00E5"/>
<circle cx="4.5889" cy="4.5889" r="4.5889" transform="matrix(-1 0 0 1 269.855 15.0977)" fill="#FF00E5"/>
<circle cx="4.5889" cy="4.5889" r="4.5889" transform="matrix(-1 0 0 1 209.665 15.0977)" fill="#FF00E5"/>
<circle cx="4.5889" cy="4.5889" r="4.5889" transform="matrix(-1 0 0 1 149.475 15.0977)" fill="#FF00E5"/>
<circle cx="4.5889" cy="4.5889" r="4.5889" transform="matrix(-1 0 0 1 89.2812 15.0977)" fill="#FF00E5"/>
<circle cx="4.5889" cy="4.5889" r="4.5889" transform="matrix(-1 0 0 1 29.0947 15.0977)" fill="#FF00E5"/>
<circle cx="4.5889" cy="4.5889" r="4.5889" transform="matrix(-1 0 0 1 289.918 75.2852)" fill="#FF00E5"/>
<circle cx="4.5889" cy="4.5889" r="4.5889" transform="matrix(-1 0 0 1 229.728 75.2852)" fill="#FF00E5"/>
<circle cx="4.5889" cy="4.5889" r="4.5889" transform="matrix(-1 0 0 1 169.538 75.2852)" fill="#FF00E5"/>
<circle cx="4.5889" cy="4.5889" r="4.5889" transform="matrix(-1 0 0 1 109.348 75.2852)" fill="#FF00E5"/>
<circle cx="4.5889" cy="4.5889" r="4.5889" transform="matrix(-1 0 0 1 49.1572 75.2852)" fill="#FF00E5"/>
<circle cx="4.5889" cy="4.5889" r="4.5889" transform="matrix(-1 0 0 1 309.981 75.2852)" fill="#FF00E5"/>
<circle cx="4.5889" cy="4.5889" r="4.5889" transform="matrix(-1 0 0 1 249.792 75.2852)" fill="#FF00E5"/>
<circle cx="4.5889" cy="4.5889" r="4.5889" transform="matrix(-1 0 0 1 189.601 75.2852)" fill="#FF00E5"/>
<circle cx="4.5889" cy="4.5889" r="4.5889" transform="matrix(-1 0 0 1 129.411 75.2852)" fill="#FF00E5"/>
<circle cx="4.5889" cy="4.5889" r="4.5889" transform="matrix(-1 0 0 1 69.2207 75.2852)" fill="#FF00E5"/>
<circle cx="4.5889" cy="4.5889" r="4.5889" transform="matrix(-1 0 0 1 269.854 75.2852)" fill="#FF00E5"/>
<circle cx="4.5889" cy="4.5889" r="4.5889" transform="matrix(-1 0 0 1 209.665 75.2852)" fill="#FF00E5"/>
<circle cx="4.5889" cy="4.5889" r="4.5889" transform="matrix(-1 0 0 1 149.475 75.2852)" fill="#FF00E5"/>
<circle cx="4.5889" cy="4.5889" r="4.5889" transform="matrix(-1 0 0 1 89.2812 75.2852)" fill="#FF00E5"/>
<circle cx="4.5889" cy="4.5889" r="4.5889" transform="matrix(-1 0 0 1 29.0947 75.2852)" fill="#FF00E5"/>
<circle cx="4.5889" cy="4.5889" r="4.5889" transform="matrix(-1 0 0 1 289.919 135.476)" fill="#FF00E5"/>
<circle cx="4.5889" cy="4.5889" r="4.5889" transform="matrix(-1 0 0 1 229.728 135.476)" fill="#FF00E5"/>
<circle cx="4.5889" cy="4.5889" r="4.5889" transform="matrix(-1 0 0 1 169.538 135.476)" fill="#FF00E5"/>
<circle cx="4.5889" cy="4.5889" r="4.5889" transform="matrix(-1 0 0 1 109.348 135.476)" fill="#FF00E5"/>
<circle cx="4.5889" cy="4.5889" r="4.5889" transform="matrix(-1 0 0 1 49.1582 135.476)" fill="#FF00E5"/>
<circle cx="4.5889" cy="4.5889" r="4.5889" transform="matrix(-1 0 0 1 309.981 135.476)" fill="#FF00E5"/>
<circle cx="4.5889" cy="4.5889" r="4.5889" transform="matrix(-1 0 0 1 249.792 135.476)" fill="#FF00E5"/>
<circle cx="4.5889" cy="4.5889" r="4.5889" transform="matrix(-1 0 0 1 189.602 135.476)" fill="#FF00E5"/>
<circle cx="4.5889" cy="4.5889" r="4.5889" transform="matrix(-1 0 0 1 129.411 135.476)" fill="#FF00E5"/>
<circle cx="4.5889" cy="4.5889" r="4.5889" transform="matrix(-1 0 0 1 69.2217 135.476)" fill="#FF00E5"/>
<circle cx="4.5889" cy="4.5889" r="4.5889" transform="matrix(-1 0 0 1 269.855 135.476)" fill="#FF00E5"/>
<circle cx="4.5889" cy="4.5889" r="4.5889" transform="matrix(-1 0 0 1 209.665 135.476)" fill="#FF00E5"/>
<circle cx="4.5889" cy="4.5889" r="4.5889" transform="matrix(-1 0 0 1 149.475 135.476)" fill="#FF00E5"/>
<circle cx="4.5889" cy="4.5889" r="4.5889" transform="matrix(-1 0 0 1 89.2812 135.476)" fill="#FF00E5"/>
<circle cx="4.5889" cy="4.5889" r="4.5889" transform="matrix(-1 0 0 1 29.0947 135.476)" fill="#FF00E5"/>
<circle cx="4.5889" cy="4.5889" r="4.5889" transform="matrix(-1 0 0 1 289.918 195.667)" fill="#FF00E5"/>
<circle cx="4.5889" cy="4.5889" r="4.5889" transform="matrix(-1 0 0 1 229.728 195.667)" fill="#FF00E5"/>
<circle cx="4.5889" cy="4.5889" r="4.5889" transform="matrix(-1 0 0 1 169.538 195.667)" fill="#FF00E5"/>
<circle cx="4.5889" cy="4.5889" r="4.5889" transform="matrix(-1 0 0 1 109.348 195.667)" fill="#FF00E5"/>
<circle cx="4.5889" cy="4.5889" r="4.5889" transform="matrix(-1 0 0 1 49.1572 195.667)" fill="#FF00E5"/>
<circle cx="4.5889" cy="4.5889" r="4.5889" transform="matrix(-1 0 0 1 309.981 195.667)" fill="#FF00E5"/>
<circle cx="4.5889" cy="4.5889" r="4.5889" transform="matrix(-1 0 0 1 249.792 195.667)" fill="#FF00E5"/>
<circle cx="4.5889" cy="4.5889" r="4.5889" transform="matrix(-1 0 0 1 189.602 195.667)" fill="#FF00E5"/>
<circle cx="4.5889" cy="4.5889" r="4.5889" transform="matrix(-1 0 0 1 129.411 195.667)" fill="#FF00E5"/>
<circle cx="4.5889" cy="4.5889" r="4.5889" transform="matrix(-1 0 0 1 69.2207 195.667)" fill="#FF00E5"/>
<circle cx="4.5889" cy="4.5889" r="4.5889" transform="matrix(-1 0 0 1 269.854 195.667)" fill="#FF00E5"/>
<circle cx="4.5889" cy="4.5889" r="4.5889" transform="matrix(-1 0 0 1 209.665 195.667)" fill="#FF00E5"/>
<circle cx="4.5889" cy="4.5889" r="4.5889" transform="matrix(-1 0 0 1 149.475 195.667)" fill="#FF00E5"/>
<circle cx="4.5889" cy="4.5889" r="4.5889" transform="matrix(-1 0 0 1 89.2812 195.667)" fill="#FF00E5"/>
<circle cx="4.5889" cy="4.5889" r="4.5889" transform="matrix(-1 0 0 1 29.0947 195.667)" fill="#FF00E5"/>
<circle cx="4.5889" cy="4.5889" r="4.5889" transform="matrix(-1 0 0 1 289.919 255.857)" fill="#FF00E5"/>
<circle cx="4.5889" cy="4.5889" r="4.5889" transform="matrix(-1 0 0 1 229.728 255.857)" fill="#FF00E5"/>
<circle cx="4.5889" cy="4.5889" r="4.5889" transform="matrix(-1 0 0 1 169.538 255.857)" fill="#FF00E5"/>
<circle cx="4.5889" cy="4.5889" r="4.5889" transform="matrix(-1 0 0 1 109.348 255.857)" fill="#FF00E5"/>
<circle cx="4.5889" cy="4.5889" r="4.5889" transform="matrix(-1 0 0 1 49.1582 255.857)" fill="#FF00E5"/>
<circle cx="4.5889" cy="4.5889" r="4.5889" transform="matrix(-1 0 0 1 309.981 255.857)" fill="#FF00E5"/>
<circle cx="4.5889" cy="4.5889" r="4.5889" transform="matrix(-1 0 0 1 249.792 255.857)" fill="#FF00E5"/>
<circle cx="4.5889" cy="4.5889" r="4.5889" transform="matrix(-1 0 0 1 189.602 255.857)" fill="#FF00E5"/>
<circle cx="4.5889" cy="4.5889" r="4.5889" transform="matrix(-1 0 0 1 129.411 255.857)" fill="#FF00E5"/>
<circle cx="4.5889" cy="4.5889" r="4.5889" transform="matrix(-1 0 0 1 69.2217 255.857)" fill="#FF00E5"/>
<circle cx="4.5889" cy="4.5889" r="4.5889" transform="matrix(-1 0 0 1 269.855 255.857)" fill="#FF00E5"/>
<circle cx="4.5889" cy="4.5889" r="4.5889" transform="matrix(-1 0 0 1 209.665 255.857)" fill="#FF00E5"/>
<circle cx="4.5889" cy="4.5889" r="4.5889" transform="matrix(-1 0 0 1 149.475 255.857)" fill="#FF00E5"/>
<circle cx="4.5889" cy="4.5889" r="4.5889" transform="matrix(-1 0 0 1 89.2812 255.857)" fill="#FF00E5"/>
<circle cx="4.5889" cy="4.5889" r="4.5889" transform="matrix(-1 0 0 1 29.0947 255.857)" fill="#FF00E5"/>
<circle cx="4.5889" cy="4.5889" r="4.5889" transform="matrix(-1 0 0 1 289.919 316.05)" fill="#FF00E5"/>
<circle cx="4.5889" cy="4.5889" r="4.5889" transform="matrix(-1 0 0 1 229.728 316.05)" fill="#FF00E5"/>
<circle cx="4.5889" cy="4.5889" r="4.5889" transform="matrix(-1 0 0 1 169.538 316.05)" fill="#FF00E5"/>
<circle cx="4.5889" cy="4.5889" r="4.5889" transform="matrix(-1 0 0 1 109.348 316.05)" fill="#FF00E5"/>
<circle cx="4.5889" cy="4.5889" r="4.5889" transform="matrix(-1 0 0 1 49.1582 316.05)" fill="#FF00E5"/>
<circle cx="4.5889" cy="4.5889" r="4.5889" transform="matrix(-1 0 0 1 309.981 316.05)" fill="#FF00E5"/>
<circle cx="4.5889" cy="4.5889" r="4.5889" transform="matrix(-1 0 0 1 249.792 316.05)" fill="#FF00E5"/>
<circle cx="4.5889" cy="4.5889" r="4.5889" transform="matrix(-1 0 0 1 189.602 316.05)" fill="#FF00E5"/>
<circle cx="4.5889" cy="4.5889" r="4.5889" transform="matrix(-1 0 0 1 129.411 316.05)" fill="#FF00E5"/>
<circle cx="4.5889" cy="4.5889" r="4.5889" transform="matrix(-1 0 0 1 69.2207 316.05)" fill="#FF00E5"/>
<circle cx="4.5889" cy="4.5889" r="4.5889" transform="matrix(-1 0 0 1 269.855 316.05)" fill="#FF00E5"/>
<circle cx="4.5889" cy="4.5889" r="4.5889" transform="matrix(-1 0 0 1 209.665 316.05)" fill="#FF00E5"/>
<circle cx="4.5889" cy="4.5889" r="4.5889" transform="matrix(-1 0 0 1 149.475 316.05)" fill="#FF00E5"/>
<circle cx="4.5889" cy="4.5889" r="4.5889" transform="matrix(-1 0 0 1 89.2812 316.05)" fill="#FF00E5"/>
<circle cx="4.5889" cy="4.5889" r="4.5889" transform="matrix(-1 0 0 1 29.0947 316.05)" fill="#FF00E5"/>
<circle cx="4.5889" cy="4.5889" r="4.5889" transform="matrix(-1 0 0 1 289.918 376.237)" fill="#FF00E5"/>
<circle cx="4.5889" cy="4.5889" r="4.5889" transform="matrix(-1 0 0 1 229.728 376.237)" fill="#FF00E5"/>
<circle cx="4.5889" cy="4.5889" r="4.5889" transform="matrix(-1 0 0 1 169.538 376.237)" fill="#FF00E5"/>
<circle cx="4.5889" cy="4.5889" r="4.5889" transform="matrix(-1 0 0 1 109.348 376.237)" fill="#FF00E5"/>
<circle cx="4.5889" cy="4.5889" r="4.5889" transform="matrix(-1 0 0 1 49.1572 376.237)" fill="#FF00E5"/>
<circle cx="4.5889" cy="4.5889" r="4.5889" transform="matrix(-1 0 0 1 309.981 376.237)" fill="#FF00E5"/>
<circle cx="4.5889" cy="4.5889" r="4.5889" transform="matrix(-1 0 0 1 249.792 376.237)" fill="#FF00E5"/>
<circle cx="4.5889" cy="4.5889" r="4.5889" transform="matrix(-1 0 0 1 189.602 376.237)" fill="#FF00E5"/>
<circle cx="4.5889" cy="4.5889" r="4.5889" transform="matrix(-1 0 0 1 129.411 376.237)" fill="#FF00E5"/>
<circle cx="4.5889" cy="4.5889" r="4.5889" transform="matrix(-1 0 0 1 69.2207 376.237)" fill="#FF00E5"/>
<circle cx="4.5889" cy="4.5889" r="4.5889" transform="matrix(-1 0 0 1 269.854 376.237)" fill="#FF00E5"/>
<circle cx="4.5889" cy="4.5889" r="4.5889" transform="matrix(-1 0 0 1 209.665 376.237)" fill="#FF00E5"/>
<circle cx="4.5889" cy="4.5889" r="4.5889" transform="matrix(-1 0 0 1 149.475 376.237)" fill="#FF00E5"/>
<circle cx="4.5889" cy="4.5889" r="4.5889" transform="matrix(-1 0 0 1 89.2812 376.237)" fill="#FF00E5"/>
<circle cx="4.5889" cy="4.5889" r="4.5889" transform="matrix(-1 0 0 1 29.0947 376.237)" fill="#FF00E5"/>
<circle cx="4.5889" cy="4.5889" r="4.5889" transform="matrix(-1 0 0 1 289.919 436.429)" fill="#FF00E5"/>
<circle cx="4.5889" cy="4.5889" r="4.5889" transform="matrix(-1 0 0 1 229.728 436.429)" fill="#FF00E5"/>
<circle cx="4.5889" cy="4.5889" r="4.5889" transform="matrix(-1 0 0 1 169.538 436.429)" fill="#FF00E5"/>
<circle cx="4.5889" cy="4.5889" r="4.5889" transform="matrix(-1 0 0 1 109.348 436.429)" fill="#FF00E5"/>
<circle cx="4.5889" cy="4.5889" r="4.5889" transform="matrix(-1 0 0 1 49.1582 436.429)" fill="#FF00E5"/>
<circle cx="4.5889" cy="4.5889" r="4.5889" transform="matrix(-1 0 0 1 309.981 436.429)" fill="#FF00E5"/>
<circle cx="4.5889" cy="4.5889" r="4.5889" transform="matrix(-1 0 0 1 249.792 436.429)" fill="#FF00E5"/>
<circle cx="4.5889" cy="4.5889" r="4.5889" transform="matrix(-1 0 0 1 189.602 436.429)" fill="#FF00E5"/>
<circle cx="4.5889" cy="4.5889" r="4.5889" transform="matrix(-1 0 0 1 129.411 436.429)" fill="#FF00E5"/>
<circle cx="4.5889" cy="4.5889" r="4.5889" transform="matrix(-1 0 0 1 69.2217 436.429)" fill="#FF00E5"/>
<circle cx="4.5889" cy="4.5889" r="4.5889" transform="matrix(-1 0 0 1 269.855 436.429)" fill="#FF00E5"/>
<circle cx="4.5889" cy="4.5889" r="4.5889" transform="matrix(-1 0 0 1 209.665 436.429)" fill="#FF00E5"/>
<circle cx="4.5889" cy="4.5889" r="4.5889" transform="matrix(-1 0 0 1 149.475 436.429)" fill="#FF00E5"/>
<circle cx="4.5889" cy="4.5889" r="4.5889" transform="matrix(-1 0 0 1 89.2812 436.429)" fill="#FF00E5"/>
<circle cx="4.5889" cy="4.5889" r="4.5889" transform="matrix(-1 0 0 1 29.0947 436.429)" fill="#FF00E5"/>
<circle cx="4.5889" cy="4.5889" r="4.5889" transform="matrix(-1 0 0 1 290.972 496.617)" fill="#FF00E5"/>
<circle cx="4.5889" cy="4.5889" r="4.5889" transform="matrix(-1 0 0 1 230.781 496.617)" fill="#FF00E5"/>
<circle cx="4.5889" cy="4.5889" r="4.5889" transform="matrix(-1 0 0 1 170.591 496.617)" fill="#FF00E5"/>
<circle cx="4.5889" cy="4.5889" r="4.5889" transform="matrix(-1 0 0 1 110.4 496.617)" fill="#FF00E5"/>
<circle cx="4.5889" cy="4.5889" r="4.5889" transform="matrix(-1 0 0 1 50.2109 496.617)" fill="#FF00E5"/>
<circle cx="4.5889" cy="4.5889" r="4.5889" transform="matrix(-1 0 0 1 311.035 496.617)" fill="#FF00E5"/>
<circle cx="4.5889" cy="4.5889" r="4.5889" transform="matrix(-1 0 0 1 250.845 496.617)" fill="#FF00E5"/>
<circle cx="4.5889" cy="4.5889" r="4.5889" transform="matrix(-1 0 0 1 190.654 496.617)" fill="#FF00E5"/>
<circle cx="4.5889" cy="4.5889" r="4.5889" transform="matrix(-1 0 0 1 130.465 496.617)" fill="#FF00E5"/>
<circle cx="4.5889" cy="4.5889" r="4.5889" transform="matrix(-1 0 0 1 70.2744 496.617)" fill="#FF00E5"/>
<circle cx="4.5889" cy="4.5889" r="4.5889" transform="matrix(-1 0 0 1 270.908 496.617)" fill="#FF00E5"/>
<circle cx="4.5889" cy="4.5889" r="4.5889" transform="matrix(-1 0 0 1 210.718 496.617)" fill="#FF00E5"/>
<circle cx="4.5889" cy="4.5889" r="4.5889" transform="matrix(-1 0 0 1 150.527 496.617)" fill="#FF00E5"/>
<circle cx="4.5889" cy="4.5889" r="4.5889" transform="matrix(-1 0 0 1 90.335 496.617)" fill="#FF00E5"/>
<circle cx="4.5889" cy="4.5889" r="4.5889" transform="matrix(-1 0 0 1 30.1475 496.617)" fill="#FF00E5"/>
<circle cx="4.5889" cy="4.5889" r="4.5889" transform="matrix(-1 0 0 1 289.919 55.2236)" fill="#FF00E5"/>
<circle cx="4.5889" cy="4.5889" r="4.5889" transform="matrix(-1 0 0 1 229.728 55.2236)" fill="#FF00E5"/>
<circle cx="4.5889" cy="4.5889" r="4.5889" transform="matrix(-1 0 0 1 169.538 55.2236)" fill="#FF00E5"/>
<circle cx="4.5889" cy="4.5889" r="4.5889" transform="matrix(-1 0 0 1 109.348 55.2236)" fill="#FF00E5"/>
<circle cx="4.5889" cy="4.5889" r="4.5889" transform="matrix(-1 0 0 1 49.1582 55.2236)" fill="#FF00E5"/>
<circle cx="4.5889" cy="4.5889" r="4.5889" transform="matrix(-1 0 0 1 309.981 55.2236)" fill="#FF00E5"/>
<circle cx="4.5889" cy="4.5889" r="4.5889" transform="matrix(-1 0 0 1 249.792 55.2236)" fill="#FF00E5"/>
<circle cx="4.5889" cy="4.5889" r="4.5889" transform="matrix(-1 0 0 1 189.602 55.2236)" fill="#FF00E5"/>
<circle cx="4.5889" cy="4.5889" r="4.5889" transform="matrix(-1 0 0 1 129.411 55.2236)" fill="#FF00E5"/>
<circle cx="4.5889" cy="4.5889" r="4.5889" transform="matrix(-1 0 0 1 69.2217 55.2236)" fill="#FF00E5"/>
<circle cx="4.5889" cy="4.5889" r="4.5889" transform="matrix(-1 0 0 1 269.855 55.2236)" fill="#FF00E5"/>
<circle cx="4.5889" cy="4.5889" r="4.5889" transform="matrix(-1 0 0 1 209.665 55.2236)" fill="#FF00E5"/>
<circle cx="4.5889" cy="4.5889" r="4.5889" transform="matrix(-1 0 0 1 149.475 55.2236)" fill="#FF00E5"/>
<circle cx="4.5889" cy="4.5889" r="4.5889" transform="matrix(-1 0 0 1 89.2812 55.2236)" fill="#FF00E5"/>
<circle cx="4.5889" cy="4.5889" r="4.5889" transform="matrix(-1 0 0 1 29.0947 55.2236)" fill="#FF00E5"/>
<circle cx="4.5889" cy="4.5889" r="4.5889" transform="matrix(-1 0 0 1 289.918 115.414)" fill="#FF00E5"/>
<circle cx="4.5889" cy="4.5889" r="4.5889" transform="matrix(-1 0 0 1 229.728 115.414)" fill="#FF00E5"/>
<circle cx="4.5889" cy="4.5889" r="4.5889" transform="matrix(-1 0 0 1 169.538 115.414)" fill="#FF00E5"/>
<circle cx="4.5889" cy="4.5889" r="4.5889" transform="matrix(-1 0 0 1 109.348 115.414)" fill="#FF00E5"/>
<circle cx="4.5889" cy="4.5889" r="4.5889" transform="matrix(-1 0 0 1 49.1572 115.414)" fill="#FF00E5"/>
<circle cx="4.5889" cy="4.5889" r="4.5889" transform="matrix(-1 0 0 1 309.981 115.414)" fill="#FF00E5"/>
<circle cx="4.5889" cy="4.5889" r="4.5889" transform="matrix(-1 0 0 1 249.792 115.414)" fill="#FF00E5"/>
<circle cx="4.5889" cy="4.5889" r="4.5889" transform="matrix(-1 0 0 1 189.601 115.414)" fill="#FF00E5"/>
<circle cx="4.5889" cy="4.5889" r="4.5889" transform="matrix(-1 0 0 1 129.411 115.414)" fill="#FF00E5"/>
<circle cx="4.5889" cy="4.5889" r="4.5889" transform="matrix(-1 0 0 1 69.2207 115.414)" fill="#FF00E5"/>
<circle cx="4.5889" cy="4.5889" r="4.5889" transform="matrix(-1 0 0 1 269.854 115.414)" fill="#FF00E5"/>
<circle cx="4.5889" cy="4.5889" r="4.5889" transform="matrix(-1 0 0 1 209.665 115.414)" fill="#FF00E5"/>
<circle cx="4.5889" cy="4.5889" r="4.5889" transform="matrix(-1 0 0 1 149.475 115.414)" fill="#FF00E5"/>
<circle cx="4.5889" cy="4.5889" r="4.5889" transform="matrix(-1 0 0 1 89.2812 115.414)" fill="#FF00E5"/>
<circle cx="4.5889" cy="4.5889" r="4.5889" transform="matrix(-1 0 0 1 29.0947 115.414)" fill="#FF00E5"/>
<circle cx="4.5889" cy="4.5889" r="4.5889" transform="matrix(-1 0 0 1 289.919 175.605)" fill="#FF00E5"/>
<circle cx="4.5889" cy="4.5889" r="4.5889" transform="matrix(-1 0 0 1 229.728 175.605)" fill="#FF00E5"/>
<circle cx="4.5889" cy="4.5889" r="4.5889" transform="matrix(-1 0 0 1 169.538 175.605)" fill="#FF00E5"/>
<circle cx="4.5889" cy="4.5889" r="4.5889" transform="matrix(-1 0 0 1 109.348 175.605)" fill="#FF00E5"/>
<circle cx="4.5889" cy="4.5889" r="4.5889" transform="matrix(-1 0 0 1 49.1582 175.605)" fill="#FF00E5"/>
<circle cx="4.5889" cy="4.5889" r="4.5889" transform="matrix(-1 0 0 1 309.981 175.605)" fill="#FF00E5"/>
<circle cx="4.5889" cy="4.5889" r="4.5889" transform="matrix(-1 0 0 1 249.792 175.605)" fill="#FF00E5"/>
<circle cx="4.5889" cy="4.5889" r="4.5889" transform="matrix(-1 0 0 1 189.602 175.605)" fill="#FF00E5"/>
<circle cx="4.5889" cy="4.5889" r="4.5889" transform="matrix(-1 0 0 1 129.411 175.605)" fill="#FF00E5"/>
<circle cx="4.5889" cy="4.5889" r="4.5889" transform="matrix(-1 0 0 1 69.2217 175.605)" fill="#FF00E5"/>
<circle cx="4.5889" cy="4.5889" r="4.5889" transform="matrix(-1 0 0 1 269.855 175.605)" fill="#FF00E5"/>
<circle cx="4.5889" cy="4.5889" r="4.5889" transform="matrix(-1 0 0 1 209.665 175.605)" fill="#FF00E5"/>
<circle cx="4.5889" cy="4.5889" r="4.5889" transform="matrix(-1 0 0 1 149.475 175.605)" fill="#FF00E5"/>
<circle cx="4.5889" cy="4.5889" r="4.5889" transform="matrix(-1 0 0 1 89.2812 175.605)" fill="#FF00E5"/>
<circle cx="4.5889" cy="4.5889" r="4.5889" transform="matrix(-1 0 0 1 29.0947 175.605)" fill="#FF00E5"/>
<circle cx="4.5889" cy="4.5889" r="4.5889" transform="matrix(-1 0 0 1 289.918 235.793)" fill="#FF00E5"/>
<circle cx="4.5889" cy="4.5889" r="4.5889" transform="matrix(-1 0 0 1 229.728 235.793)" fill="#FF00E5"/>
<circle cx="4.5889" cy="4.5889" r="4.5889" transform="matrix(-1 0 0 1 169.538 235.793)" fill="#FF00E5"/>
<circle cx="4.5889" cy="4.5889" r="4.5889" transform="matrix(-1 0 0 1 109.348 235.793)" fill="#FF00E5"/>
<circle cx="4.5889" cy="4.5889" r="4.5889" transform="matrix(-1 0 0 1 49.1572 235.793)" fill="#FF00E5"/>
<circle cx="4.5889" cy="4.5889" r="4.5889" transform="matrix(-1 0 0 1 309.981 235.793)" fill="#FF00E5"/>
<circle cx="4.5889" cy="4.5889" r="4.5889" transform="matrix(-1 0 0 1 249.792 235.793)" fill="#FF00E5"/>
<circle cx="4.5889" cy="4.5889" r="4.5889" transform="matrix(-1 0 0 1 189.602 235.793)" fill="#FF00E5"/>
<circle cx="4.5889" cy="4.5889" r="4.5889" transform="matrix(-1 0 0 1 129.411 235.793)" fill="#FF00E5"/>
<circle cx="4.5889" cy="4.5889" r="4.5889" transform="matrix(-1 0 0 1 69.2207 235.793)" fill="#FF00E5"/>
<circle cx="4.5889" cy="4.5889" r="4.5889" transform="matrix(-1 0 0 1 269.854 235.793)" fill="#FF00E5"/>
<circle cx="4.5889" cy="4.5889" r="4.5889" transform="matrix(-1 0 0 1 209.665 235.793)" fill="#FF00E5"/>
<circle cx="4.5889" cy="4.5889" r="4.5889" transform="matrix(-1 0 0 1 149.475 235.793)" fill="#FF00E5"/>
<circle cx="4.5889" cy="4.5889" r="4.5889" transform="matrix(-1 0 0 1 89.2812 235.793)" fill="#FF00E5"/>
<circle cx="4.5889" cy="4.5889" r="4.5889" transform="matrix(-1 0 0 1 29.0947 235.793)" fill="#FF00E5"/>
<circle cx="4.5889" cy="4.5889" r="4.5889" transform="matrix(-1 0 0 1 289.919 295.985)" fill="#FF00E5"/>
<circle cx="4.5889" cy="4.5889" r="4.5889" transform="matrix(-1 0 0 1 229.728 295.985)" fill="#FF00E5"/>
<circle cx="4.5889" cy="4.5889" r="4.5889" transform="matrix(-1 0 0 1 169.538 295.985)" fill="#FF00E5"/>
<circle cx="4.5889" cy="4.5889" r="4.5889" transform="matrix(-1 0 0 1 109.348 295.985)" fill="#FF00E5"/>
<circle cx="4.5889" cy="4.5889" r="4.5889" transform="matrix(-1 0 0 1 49.1582 295.985)" fill="#FF00E5"/>
<circle cx="4.5889" cy="4.5889" r="4.5889" transform="matrix(-1 0 0 1 309.981 295.985)" fill="#FF00E5"/>
<circle cx="4.5889" cy="4.5889" r="4.5889" transform="matrix(-1 0 0 1 249.792 295.985)" fill="#FF00E5"/>
<circle cx="4.5889" cy="4.5889" r="4.5889" transform="matrix(-1 0 0 1 189.602 295.985)" fill="#FF00E5"/>
<circle cx="4.5889" cy="4.5889" r="4.5889" transform="matrix(-1 0 0 1 129.411 295.985)" fill="#FF00E5"/>
<circle cx="4.5889" cy="4.5889" r="4.5889" transform="matrix(-1 0 0 1 69.2217 295.985)" fill="#FF00E5"/>
<circle cx="4.5889" cy="4.5889" r="4.5889" transform="matrix(-1 0 0 1 269.855 295.985)" fill="#FF00E5"/>
<circle cx="4.5889" cy="4.5889" r="4.5889" transform="matrix(-1 0 0 1 209.665 295.985)" fill="#FF00E5"/>
<circle cx="4.5889" cy="4.5889" r="4.5889" transform="matrix(-1 0 0 1 149.475 295.985)" fill="#FF00E5"/>
<circle cx="4.5889" cy="4.5889" r="4.5889" transform="matrix(-1 0 0 1 89.2812 295.985)" fill="#FF00E5"/>
<circle cx="4.5889" cy="4.5889" r="4.5889" transform="matrix(-1 0 0 1 29.0947 295.985)" fill="#FF00E5"/>
<circle cx="4.5889" cy="4.5889" r="4.5889" transform="matrix(-1 0 0 1 289.919 356.175)" fill="#FF00E5"/>
<circle cx="4.5889" cy="4.5889" r="4.5889" transform="matrix(-1 0 0 1 229.728 356.175)" fill="#FF00E5"/>
<circle cx="4.5889" cy="4.5889" r="4.5889" transform="matrix(-1 0 0 1 169.538 356.175)" fill="#FF00E5"/>
<circle cx="4.5889" cy="4.5889" r="4.5889" transform="matrix(-1 0 0 1 109.348 356.175)" fill="#FF00E5"/>
<circle cx="4.5889" cy="4.5889" r="4.5889" transform="matrix(-1 0 0 1 49.1582 356.175)" fill="#FF00E5"/>
<circle cx="4.5889" cy="4.5889" r="4.5889" transform="matrix(-1 0 0 1 309.981 356.175)" fill="#FF00E5"/>
<circle cx="4.5889" cy="4.5889" r="4.5889" transform="matrix(-1 0 0 1 249.792 356.175)" fill="#FF00E5"/>
<circle cx="4.5889" cy="4.5889" r="4.5889" transform="matrix(-1 0 0 1 189.602 356.175)" fill="#FF00E5"/>
<circle cx="4.5889" cy="4.5889" r="4.5889" transform="matrix(-1 0 0 1 129.411 356.175)" fill="#FF00E5"/>
<circle cx="4.5889" cy="4.5889" r="4.5889" transform="matrix(-1 0 0 1 69.2217 356.175)" fill="#FF00E5"/>
<circle cx="4.5889" cy="4.5889" r="4.5889" transform="matrix(-1 0 0 1 269.855 356.175)" fill="#FF00E5"/>
<circle cx="4.5889" cy="4.5889" r="4.5889" transform="matrix(-1 0 0 1 209.665 356.175)" fill="#FF00E5"/>
<circle cx="4.5889" cy="4.5889" r="4.5889" transform="matrix(-1 0 0 1 149.475 356.175)" fill="#FF00E5"/>
<circle cx="4.5889" cy="4.5889" r="4.5889" transform="matrix(-1 0 0 1 89.2812 356.175)" fill="#FF00E5"/>
<circle cx="4.5889" cy="4.5889" r="4.5889" transform="matrix(-1 0 0 1 29.0947 356.175)" fill="#FF00E5"/>
<circle cx="4.5889" cy="4.5889" r="4.5889" transform="matrix(-1 0 0 1 289.918 416.363)" fill="#FF00E5"/>
<circle cx="4.5889" cy="4.5889" r="4.5889" transform="matrix(-1 0 0 1 229.728 416.363)" fill="#FF00E5"/>
<circle cx="4.5889" cy="4.5889" r="4.5889" transform="matrix(-1 0 0 1 169.538 416.363)" fill="#FF00E5"/>
<circle cx="4.5889" cy="4.5889" r="4.5889" transform="matrix(-1 0 0 1 109.348 416.363)" fill="#FF00E5"/>
<circle cx="4.5889" cy="4.5889" r="4.5889" transform="matrix(-1 0 0 1 49.1572 416.363)" fill="#FF00E5"/>
<circle cx="4.5889" cy="4.5889" r="4.5889" transform="matrix(-1 0 0 1 309.981 416.363)" fill="#FF00E5"/>
<circle cx="4.5889" cy="4.5889" r="4.5889" transform="matrix(-1 0 0 1 249.792 416.363)" fill="#FF00E5"/>
<circle cx="4.5889" cy="4.5889" r="4.5889" transform="matrix(-1 0 0 1 189.602 416.363)" fill="#FF00E5"/>
<circle cx="4.5889" cy="4.5889" r="4.5889" transform="matrix(-1 0 0 1 129.411 416.363)" fill="#FF00E5"/>
<circle cx="4.5889" cy="4.5889" r="4.5889" transform="matrix(-1 0 0 1 69.2207 416.363)" fill="#FF00E5"/>
<circle cx="4.5889" cy="4.5889" r="4.5889" transform="matrix(-1 0 0 1 269.854 416.363)" fill="#FF00E5"/>
<circle cx="4.5889" cy="4.5889" r="4.5889" transform="matrix(-1 0 0 1 209.665 416.363)" fill="#FF00E5"/>
<circle cx="4.5889" cy="4.5889" r="4.5889" transform="matrix(-1 0 0 1 149.475 416.363)" fill="#FF00E5"/>
<circle cx="4.5889" cy="4.5889" r="4.5889" transform="matrix(-1 0 0 1 89.2812 416.363)" fill="#FF00E5"/>
<circle cx="4.5889" cy="4.5889" r="4.5889" transform="matrix(-1 0 0 1 29.0947 416.363)" fill="#FF00E5"/>
<circle cx="4.5889" cy="4.5889" r="4.5889" transform="matrix(-1 0 0 1 290.972 476.555)" fill="#FF00E5"/>
<circle cx="4.5889" cy="4.5889" r="4.5889" transform="matrix(-1 0 0 1 230.781 476.555)" fill="#FF00E5"/>
<circle cx="4.5889" cy="4.5889" r="4.5889" transform="matrix(-1 0 0 1 170.591 476.555)" fill="#FF00E5"/>
<circle cx="4.5889" cy="4.5889" r="4.5889" transform="matrix(-1 0 0 1 110.4 476.555)" fill="#FF00E5"/>
<circle cx="4.5889" cy="4.5889" r="4.5889" transform="matrix(-1 0 0 1 50.2109 476.555)" fill="#FF00E5"/>
<circle cx="4.5889" cy="4.5889" r="4.5889" transform="matrix(-1 0 0 1 311.035 476.555)" fill="#FF00E5"/>
<circle cx="4.5889" cy="4.5889" r="4.5889" transform="matrix(-1 0 0 1 250.845 476.555)" fill="#FF00E5"/>
<circle cx="4.5889" cy="4.5889" r="4.5889" transform="matrix(-1 0 0 1 190.654 476.555)" fill="#FF00E5"/>
<circle cx="4.5889" cy="4.5889" r="4.5889" transform="matrix(-1 0 0 1 130.465 476.555)" fill="#FF00E5"/>
<circle cx="4.5889" cy="4.5889" r="4.5889" transform="matrix(-1 0 0 1 70.2744 476.555)" fill="#FF00E5"/>
<circle cx="4.5889" cy="4.5889" r="4.5889" transform="matrix(-1 0 0 1 270.908 476.555)" fill="#FF00E5"/>
<circle cx="4.5889" cy="4.5889" r="4.5889" transform="matrix(-1 0 0 1 210.718 476.555)" fill="#FF00E5"/>
<circle cx="4.5889" cy="4.5889" r="4.5889" transform="matrix(-1 0 0 1 150.527 476.555)" fill="#FF00E5"/>
<circle cx="4.5889" cy="4.5889" r="4.5889" transform="matrix(-1 0 0 1 90.335 476.555)" fill="#FF00E5"/>
<circle cx="4.5889" cy="4.5889" r="4.5889" transform="matrix(-1 0 0 1 30.1465 476.555)" fill="#FF00E5"/>
<circle cx="4.5889" cy="4.5889" r="4.5889" transform="matrix(-1 0 0 1 289.918 35.1582)" fill="#FF00E5"/>
<circle cx="4.5889" cy="4.5889" r="4.5889" transform="matrix(-1 0 0 1 229.728 35.1582)" fill="#FF00E5"/>
<circle cx="4.5889" cy="4.5889" r="4.5889" transform="matrix(-1 0 0 1 169.538 35.1582)" fill="#FF00E5"/>
<circle cx="4.5889" cy="4.5889" r="4.5889" transform="matrix(-1 0 0 1 109.348 35.1582)" fill="#FF00E5"/>
<circle cx="4.5889" cy="4.5889" r="4.5889" transform="matrix(-1 0 0 1 49.1572 35.1582)" fill="#FF00E5"/>
<circle cx="4.5889" cy="4.5889" r="4.5889" transform="matrix(-1 0 0 1 309.981 35.1582)" fill="#FF00E5"/>
<circle cx="4.5889" cy="4.5889" r="4.5889" transform="matrix(-1 0 0 1 249.792 35.1582)" fill="#FF00E5"/>
<circle cx="4.5889" cy="4.5889" r="4.5889" transform="matrix(-1 0 0 1 189.601 35.1582)" fill="#FF00E5"/>
<circle cx="4.5889" cy="4.5889" r="4.5889" transform="matrix(-1 0 0 1 129.411 35.1582)" fill="#FF00E5"/>
<circle cx="4.5889" cy="4.5889" r="4.5889" transform="matrix(-1 0 0 1 69.2207 35.1582)" fill="#FF00E5"/>
<circle cx="4.5889" cy="4.5889" r="4.5889" transform="matrix(-1 0 0 1 269.854 35.1582)" fill="#FF00E5"/>
<circle cx="4.5889" cy="4.5889" r="4.5889" transform="matrix(-1 0 0 1 209.665 35.1582)" fill="#FF00E5"/>
<circle cx="4.5889" cy="4.5889" r="4.5889" transform="matrix(-1 0 0 1 149.475 35.1582)" fill="#FF00E5"/>
<circle cx="4.5889" cy="4.5889" r="4.5889" transform="matrix(-1 0 0 1 89.2812 35.1582)" fill="#FF00E5"/>
<circle cx="4.5889" cy="4.5889" r="4.5889" transform="matrix(-1 0 0 1 29.0947 35.1582)" fill="#FF00E5"/>
<circle cx="4.5889" cy="4.5889" r="4.5889" transform="matrix(-1 0 0 1 289.919 95.3501)" fill="#FF00E5"/>
<circle cx="4.5889" cy="4.5889" r="4.5889" transform="matrix(-1 0 0 1 229.728 95.3501)" fill="#FF00E5"/>
<circle cx="4.5889" cy="4.5889" r="4.5889" transform="matrix(-1 0 0 1 169.538 95.3501)" fill="#FF00E5"/>
<circle cx="4.5889" cy="4.5889" r="4.5889" transform="matrix(-1 0 0 1 109.348 95.3501)" fill="#FF00E5"/>
<circle cx="4.5889" cy="4.5889" r="4.5889" transform="matrix(-1 0 0 1 49.1582 95.3501)" fill="#FF00E5"/>
<circle cx="4.5889" cy="4.5889" r="4.5889" transform="matrix(-1 0 0 1 309.981 95.3501)" fill="#FF00E5"/>
<circle cx="4.5889" cy="4.5889" r="4.5889" transform="matrix(-1 0 0 1 249.792 95.3501)" fill="#FF00E5"/>
<circle cx="4.5889" cy="4.5889" r="4.5889" transform="matrix(-1 0 0 1 189.602 95.3501)" fill="#FF00E5"/>
<circle cx="4.5889" cy="4.5889" r="4.5889" transform="matrix(-1 0 0 1 129.411 95.3501)" fill="#FF00E5"/>
<circle cx="4.5889" cy="4.5889" r="4.5889" transform="matrix(-1 0 0 1 69.2217 95.3501)" fill="#FF00E5"/>
<circle cx="4.5889" cy="4.5889" r="4.5889" transform="matrix(-1 0 0 1 269.855 95.3501)" fill="#FF00E5"/>
<circle cx="4.5889" cy="4.5889" r="4.5889" transform="matrix(-1 0 0 1 209.665 95.3501)" fill="#FF00E5"/>
<circle cx="4.5889" cy="4.5889" r="4.5889" transform="matrix(-1 0 0 1 149.475 95.3501)" fill="#FF00E5"/>
<circle cx="4.5889" cy="4.5889" r="4.5889" transform="matrix(-1 0 0 1 89.2812 95.3501)" fill="#FF00E5"/>
<circle cx="4.5889" cy="4.5889" r="4.5889" transform="matrix(-1 0 0 1 29.0947 95.3501)" fill="#FF00E5"/>
<circle cx="4.5889" cy="4.5889" r="4.5889" transform="matrix(-1 0 0 1 289.918 155.541)" fill="#FF00E5"/>
<circle cx="4.5889" cy="4.5889" r="4.5889" transform="matrix(-1 0 0 1 229.728 155.541)" fill="#FF00E5"/>
<circle cx="4.5889" cy="4.5889" r="4.5889" transform="matrix(-1 0 0 1 169.538 155.541)" fill="#FF00E5"/>
<circle cx="4.5889" cy="4.5889" r="4.5889" transform="matrix(-1 0 0 1 109.348 155.541)" fill="#FF00E5"/>
<circle cx="4.5889" cy="4.5889" r="4.5889" transform="matrix(-1 0 0 1 49.1572 155.541)" fill="#FF00E5"/>
<circle cx="4.5889" cy="4.5889" r="4.5889" transform="matrix(-1 0 0 1 309.981 155.541)" fill="#FF00E5"/>
<circle cx="4.5889" cy="4.5889" r="4.5889" transform="matrix(-1 0 0 1 249.792 155.541)" fill="#FF00E5"/>
<circle cx="4.5889" cy="4.5889" r="4.5889" transform="matrix(-1 0 0 1 189.601 155.541)" fill="#FF00E5"/>
<circle cx="4.5889" cy="4.5889" r="4.5889" transform="matrix(-1 0 0 1 129.411 155.541)" fill="#FF00E5"/>
<circle cx="4.5889" cy="4.5889" r="4.5889" transform="matrix(-1 0 0 1 69.2207 155.541)" fill="#FF00E5"/>
<circle cx="4.5889" cy="4.5889" r="4.5889" transform="matrix(-1 0 0 1 269.854 155.541)" fill="#FF00E5"/>
<circle cx="4.5889" cy="4.5889" r="4.5889" transform="matrix(-1 0 0 1 209.665 155.541)" fill="#FF00E5"/>
<circle cx="4.5889" cy="4.5889" r="4.5889" transform="matrix(-1 0 0 1 149.475 155.541)" fill="#FF00E5"/>
<circle cx="4.5889" cy="4.5889" r="4.5889" transform="matrix(-1 0 0 1 89.2812 155.541)" fill="#FF00E5"/>
<circle cx="4.5889" cy="4.5889" r="4.5889" transform="matrix(-1 0 0 1 29.0947 155.541)" fill="#FF00E5"/>
<circle cx="4.5889" cy="4.5889" r="4.5889" transform="matrix(-1 0 0 1 289.919 215.732)" fill="#FF00E5"/>
<circle cx="4.5889" cy="4.5889" r="4.5889" transform="matrix(-1 0 0 1 229.728 215.732)" fill="#FF00E5"/>
<circle cx="4.5889" cy="4.5889" r="4.5889" transform="matrix(-1 0 0 1 169.538 215.732)" fill="#FF00E5"/>
<circle cx="4.5889" cy="4.5889" r="4.5889" transform="matrix(-1 0 0 1 109.348 215.732)" fill="#FF00E5"/>
<circle cx="4.5889" cy="4.5889" r="4.5889" transform="matrix(-1 0 0 1 49.1582 215.732)" fill="#FF00E5"/>
<circle cx="4.5889" cy="4.5889" r="4.5889" transform="matrix(-1 0 0 1 309.981 215.732)" fill="#FF00E5"/>
<circle cx="4.5889" cy="4.5889" r="4.5889" transform="matrix(-1 0 0 1 249.792 215.732)" fill="#FF00E5"/>
<circle cx="4.5889" cy="4.5889" r="4.5889" transform="matrix(-1 0 0 1 189.602 215.732)" fill="#FF00E5"/>
<circle cx="4.5889" cy="4.5889" r="4.5889" transform="matrix(-1 0 0 1 129.411 215.732)" fill="#FF00E5"/>
<circle cx="4.5889" cy="4.5889" r="4.5889" transform="matrix(-1 0 0 1 69.2217 215.732)" fill="#FF00E5"/>
<circle cx="4.5889" cy="4.5889" r="4.5889" transform="matrix(-1 0 0 1 269.855 215.732)" fill="#FF00E5"/>
<circle cx="4.5889" cy="4.5889" r="4.5889" transform="matrix(-1 0 0 1 209.665 215.732)" fill="#FF00E5"/>
<circle cx="4.5889" cy="4.5889" r="4.5889" transform="matrix(-1 0 0 1 149.475 215.732)" fill="#FF00E5"/>
<circle cx="4.5889" cy="4.5889" r="4.5889" transform="matrix(-1 0 0 1 89.2812 215.732)" fill="#FF00E5"/>
<circle cx="4.5889" cy="4.5889" r="4.5889" transform="matrix(-1 0 0 1 29.0947 215.732)" fill="#FF00E5"/>
<circle cx="4.5889" cy="4.5889" r="4.5889" transform="matrix(-1 0 0 1 289.918 275.92)" fill="#FF00E5"/>
<circle cx="4.5889" cy="4.5889" r="4.5889" transform="matrix(-1 0 0 1 229.728 275.92)" fill="#FF00E5"/>
<circle cx="4.5889" cy="4.5889" r="4.5889" transform="matrix(-1 0 0 1 169.538 275.92)" fill="#FF00E5"/>
<circle cx="4.5889" cy="4.5889" r="4.5889" transform="matrix(-1 0 0 1 109.348 275.92)" fill="#FF00E5"/>
<circle cx="4.5889" cy="4.5889" r="4.5889" transform="matrix(-1 0 0 1 49.1572 275.92)" fill="#FF00E5"/>
<circle cx="4.5889" cy="4.5889" r="4.5889" transform="matrix(-1 0 0 1 309.981 275.92)" fill="#FF00E5"/>
<circle cx="4.5889" cy="4.5889" r="4.5889" transform="matrix(-1 0 0 1 249.792 275.92)" fill="#FF00E5"/>
<circle cx="4.5889" cy="4.5889" r="4.5889" transform="matrix(-1 0 0 1 189.602 275.92)" fill="#FF00E5"/>
<circle cx="4.5889" cy="4.5889" r="4.5889" transform="matrix(-1 0 0 1 129.411 275.92)" fill="#FF00E5"/>
<circle cx="4.5889" cy="4.5889" r="4.5889" transform="matrix(-1 0 0 1 69.2207 275.92)" fill="#FF00E5"/>
<circle cx="4.5889" cy="4.5889" r="4.5889" transform="matrix(-1 0 0 1 269.854 275.92)" fill="#FF00E5"/>
<circle cx="4.5889" cy="4.5889" r="4.5889" transform="matrix(-1 0 0 1 209.665 275.92)" fill="#FF00E5"/>
<circle cx="4.5889" cy="4.5889" r="4.5889" transform="matrix(-1 0 0 1 149.475 275.92)" fill="#FF00E5"/>
<circle cx="4.5889" cy="4.5889" r="4.5889" transform="matrix(-1 0 0 1 89.2812 275.92)" fill="#FF00E5"/>
<circle cx="4.5889" cy="4.5889" r="4.5889" transform="matrix(-1 0 0 1 29.0947 275.92)" fill="#FF00E5"/>
<circle cx="4.5889" cy="4.5889" r="4.5889" transform="matrix(-1 0 0 1 289.919 336.111)" fill="#FF00E5"/>
<circle cx="4.5889" cy="4.5889" r="4.5889" transform="matrix(-1 0 0 1 229.728 336.111)" fill="#FF00E5"/>
<circle cx="4.5889" cy="4.5889" r="4.5889" transform="matrix(-1 0 0 1 169.538 336.111)" fill="#FF00E5"/>
<circle cx="4.5889" cy="4.5889" r="4.5889" transform="matrix(-1 0 0 1 109.348 336.111)" fill="#FF00E5"/>
<circle cx="4.5889" cy="4.5889" r="4.5889" transform="matrix(-1 0 0 1 49.1582 336.111)" fill="#FF00E5"/>
<circle cx="4.5889" cy="4.5889" r="4.5889" transform="matrix(-1 0 0 1 309.981 336.111)" fill="#FF00E5"/>
<circle cx="4.5889" cy="4.5889" r="4.5889" transform="matrix(-1 0 0 1 249.792 336.111)" fill="#FF00E5"/>
<circle cx="4.5889" cy="4.5889" r="4.5889" transform="matrix(-1 0 0 1 189.602 336.111)" fill="#FF00E5"/>
<circle cx="4.5889" cy="4.5889" r="4.5889" transform="matrix(-1 0 0 1 129.411 336.111)" fill="#FF00E5"/>
<circle cx="4.5889" cy="4.5889" r="4.5889" transform="matrix(-1 0 0 1 69.2207 336.111)" fill="#FF00E5"/>
<circle cx="4.5889" cy="4.5889" r="4.5889" transform="matrix(-1 0 0 1 269.855 336.111)" fill="#FF00E5"/>
<circle cx="4.5889" cy="4.5889" r="4.5889" transform="matrix(-1 0 0 1 209.665 336.111)" fill="#FF00E5"/>
<circle cx="4.5889" cy="4.5889" r="4.5889" transform="matrix(-1 0 0 1 149.475 336.111)" fill="#FF00E5"/>
<circle cx="4.5889" cy="4.5889" r="4.5889" transform="matrix(-1 0 0 1 89.2812 336.111)" fill="#FF00E5"/>
<circle cx="4.5889" cy="4.5889" r="4.5889" transform="matrix(-1 0 0 1 29.0947 336.111)" fill="#FF00E5"/>
<circle cx="4.5889" cy="4.5889" r="4.5889" transform="matrix(-1 0 0 1 289.919 396.302)" fill="#FF00E5"/>
<circle cx="4.5889" cy="4.5889" r="4.5889" transform="matrix(-1 0 0 1 229.728 396.302)" fill="#FF00E5"/>
<circle cx="4.5889" cy="4.5889" r="4.5889" transform="matrix(-1 0 0 1 169.538 396.302)" fill="#FF00E5"/>
<circle cx="4.5889" cy="4.5889" r="4.5889" transform="matrix(-1 0 0 1 109.348 396.302)" fill="#FF00E5"/>
<circle cx="4.5889" cy="4.5889" r="4.5889" transform="matrix(-1 0 0 1 49.1582 396.302)" fill="#FF00E5"/>
<circle cx="4.5889" cy="4.5889" r="4.5889" transform="matrix(-1 0 0 1 309.981 396.302)" fill="#FF00E5"/>
<circle cx="4.5889" cy="4.5889" r="4.5889" transform="matrix(-1 0 0 1 249.792 396.302)" fill="#FF00E5"/>
<circle cx="4.5889" cy="4.5889" r="4.5889" transform="matrix(-1 0 0 1 189.602 396.302)" fill="#FF00E5"/>
<circle cx="4.5889" cy="4.5889" r="4.5889" transform="matrix(-1 0 0 1 129.411 396.302)" fill="#FF00E5"/>
<circle cx="4.5889" cy="4.5889" r="4.5889" transform="matrix(-1 0 0 1 69.2217 396.302)" fill="#FF00E5"/>
<circle cx="4.5889" cy="4.5889" r="4.5889" transform="matrix(-1 0 0 1 269.855 396.302)" fill="#FF00E5"/>
<circle cx="4.5889" cy="4.5889" r="4.5889" transform="matrix(-1 0 0 1 209.665 396.302)" fill="#FF00E5"/>
<circle cx="4.5889" cy="4.5889" r="4.5889" transform="matrix(-1 0 0 1 149.475 396.302)" fill="#FF00E5"/>
<circle cx="4.5889" cy="4.5889" r="4.5889" transform="matrix(-1 0 0 1 89.2812 396.302)" fill="#FF00E5"/>
<circle cx="4.5889" cy="4.5889" r="4.5889" transform="matrix(-1 0 0 1 29.0947 396.302)" fill="#FF00E5"/>
<circle cx="4.5889" cy="4.5889" r="4.5889" transform="matrix(-1 0 0 1 290.972 456.491)" fill="#FF00E5"/>
<circle cx="4.5889" cy="4.5889" r="4.5889" transform="matrix(-1 0 0 1 230.781 456.491)" fill="#FF00E5"/>
<circle cx="4.5889" cy="4.5889" r="4.5889" transform="matrix(-1 0 0 1 170.591 456.491)" fill="#FF00E5"/>
<circle cx="4.5889" cy="4.5889" r="4.5889" transform="matrix(-1 0 0 1 110.4 456.491)" fill="#FF00E5"/>
<circle cx="4.5889" cy="4.5889" r="4.5889" transform="matrix(-1 0 0 1 50.2109 456.491)" fill="#FF00E5"/>
<circle cx="4.5889" cy="4.5889" r="4.5889" transform="matrix(-1 0 0 1 311.035 456.491)" fill="#FF00E5"/>
<circle cx="4.5889" cy="4.5889" r="4.5889" transform="matrix(-1 0 0 1 250.845 456.491)" fill="#FF00E5"/>
<circle cx="4.5889" cy="4.5889" r="4.5889" transform="matrix(-1 0 0 1 190.654 456.491)" fill="#FF00E5"/>
<circle cx="4.5889" cy="4.5889" r="4.5889" transform="matrix(-1 0 0 1 130.465 456.491)" fill="#FF00E5"/>
<circle cx="4.5889" cy="4.5889" r="4.5889" transform="matrix(-1 0 0 1 70.2744 456.491)" fill="#FF00E5"/>
<circle cx="4.5889" cy="4.5889" r="4.5889" transform="matrix(-1 0 0 1 270.908 456.491)" fill="#FF00E5"/>
<circle cx="4.5889" cy="4.5889" r="4.5889" transform="matrix(-1 0 0 1 210.718 456.491)" fill="#FF00E5"/>
<circle cx="4.5889" cy="4.5889" r="4.5889" transform="matrix(-1 0 0 1 150.527 456.491)" fill="#FF00E5"/>
<circle cx="4.5889" cy="4.5889" r="4.5889" transform="matrix(-1 0 0 1 90.335 456.491)" fill="#FF00E5"/>
<circle cx="4.5889" cy="4.5889" r="4.5889" transform="matrix(-1 0 0 1 30.1475 456.491)" fill="#FF00E5"/>
</g>
<mask id="mask1_207_16963" style="mask-type:alpha" maskUnits="userSpaceOnUse" x="336" y="16" width="319" height="515">
<path d="M654.254 41.0846C654.681 41.4648 654.908 41.9784 654.905 42.5497C654.602 102.077 632.131 221.846 544.268 232.101C544.09 232.122 543.906 232.119 543.728 232.092C542.368 231.887 540.971 231.679 539.538 231.468C484.153 223.312 376.105 211.246 353.503 223.63L336.608 175.459C336.432 174.956 336.461 174.401 336.687 173.919C358.679 127.156 388.143 92.5811 420.467 67.9338C507.903 1.26237 616.264 7.23007 654.254 41.0846Z" fill="white"/>
<path d="M595.12 512.573C595.877 512.373 596.452 511.756 596.599 510.988L599.585 495.45L611.913 505.593C612.449 506.033 612.724 506.716 612.643 507.405L610.723 523.73C610.625 524.565 610.024 525.254 609.211 525.465L589.545 530.569C588.776 530.769 587.962 530.504 587.458 529.89L577.147 517.342L595.12 512.573Z" fill="white"/>
<path fill-rule="evenodd" clip-rule="evenodd" d="M353.503 223.63C376.105 211.246 484.153 223.312 539.538 231.468L571.667 262.994C572.22 263.536 572.418 264.344 572.178 265.079L566.975 281.078C566.741 281.799 566.926 282.592 567.457 283.134L585.315 301.385C585.782 301.862 585.986 302.537 585.861 303.192L578.128 343.808C577.814 345.459 575.75 346.042 574.618 344.799L564.432 333.612C563.971 333.107 563.795 332.404 563.962 331.741L571.596 301.451C571.814 300.587 571.445 299.681 570.686 299.215L565.792 296.212C564.559 295.456 562.953 296.188 562.715 297.614L555.445 341.183C555.337 341.827 555.545 342.483 556.002 342.948L576.162 363.432C576.665 363.943 576.862 364.679 576.683 365.373L562.552 419.999C562.167 421.489 560.331 422.031 559.198 420.988L550.427 412.912C549.881 412.409 549.651 411.648 549.828 410.927L560.141 368.918C560.316 368.208 560.096 367.458 559.566 366.955L554.771 362.398C553.592 361.277 551.641 361.921 551.359 363.522L542.184 415.664C542.066 416.336 542.292 417.022 542.785 417.493L572.88 446.182C573.498 446.772 573.684 447.684 573.344 448.467L564.588 468.696L456.704 300.863C456.158 300.014 455.477 299.26 454.688 298.632C454.498 298.481 454.307 298.339 454.114 298.205L434.033 283.296C432.383 282.071 430.163 283.78 430.924 285.689L440.332 309.251L500.893 462.808L491.133 469.951C490.549 470.378 489.783 470.464 489.119 470.177L414.795 438.006C414.059 437.687 413.579 436.967 413.567 436.165L412.955 394.622C412.943 393.82 412.462 393.1 411.726 392.781L405.564 390.114C404.28 389.558 402.831 390.431 402.722 391.826L400.217 424.007C400.108 425.402 398.659 426.276 397.375 425.72L384.696 420.232C383.888 419.882 383.396 419.054 383.476 418.177L388.646 361.188C388.772 359.805 390.212 358.95 391.486 359.501L409.967 367.501C411.726 368.262 413.468 366.396 412.588 364.694L353.033 249.495C352.875 249.188 352.797 248.846 352.806 248.502L353.503 223.63Z" fill="white"/>
</mask>
<g mask="url(#mask1_207_16963)">
<circle cx="4.5889" cy="4.5889" r="4.5889" transform="matrix(-1 0 0 1 629.063 15.0967)" fill="#FF00E5"/>
<circle cx="4.5889" cy="4.5889" r="4.5889" transform="matrix(-1 0 0 1 568.873 15.0967)" fill="#FF00E5"/>
<circle cx="4.5889" cy="4.5889" r="4.5889" transform="matrix(-1 0 0 1 508.684 15.0967)" fill="#FF00E5"/>
<circle cx="4.5889" cy="4.5889" r="4.5889" transform="matrix(-1 0 0 1 448.494 15.0967)" fill="#FF00E5"/>
<circle cx="4.5889" cy="4.5889" r="4.5889" transform="matrix(-1 0 0 1 388.303 15.0967)" fill="#FF00E5"/>
<circle cx="4.5889" cy="4.5889" r="4.5889" transform="matrix(-1 0 0 1 649.127 15.0967)" fill="#FF00E5"/>
<circle cx="4.5889" cy="4.5889" r="4.5889" transform="matrix(-1 0 0 1 588.937 15.0967)" fill="#FF00E5"/>
<circle cx="4.5889" cy="4.5889" r="4.5889" transform="matrix(-1 0 0 1 528.747 15.0967)" fill="#FF00E5"/>
<circle cx="4.5889" cy="4.5889" r="4.5889" transform="matrix(-1 0 0 1 468.557 15.0967)" fill="#FF00E5"/>
<circle cx="4.5889" cy="4.5889" r="4.5889" transform="matrix(-1 0 0 1 408.367 15.0967)" fill="#FF00E5"/>
<circle cx="4.5889" cy="4.5889" r="4.5889" transform="matrix(-1 0 0 1 609.001 15.0967)" fill="#FF00E5"/>
<circle cx="4.5889" cy="4.5889" r="4.5889" transform="matrix(-1 0 0 1 548.811 15.0967)" fill="#FF00E5"/>
<circle cx="4.5889" cy="4.5889" r="4.5889" transform="matrix(-1 0 0 1 488.621 15.0967)" fill="#FF00E5"/>
<circle cx="4.5889" cy="4.5889" r="4.5889" transform="matrix(-1 0 0 1 428.427 15.0967)" fill="#FF00E5"/>
<circle cx="4.5889" cy="4.5889" r="4.5889" transform="matrix(-1 0 0 1 368.24 15.0967)" fill="#FF00E5"/>
<circle cx="4.5889" cy="4.5889" r="4.5889" transform="matrix(-1 0 0 1 629.063 75.2842)" fill="#FF00E5"/>
<circle cx="4.5889" cy="4.5889" r="4.5889" transform="matrix(-1 0 0 1 568.873 75.2842)" fill="#FF00E5"/>
<circle cx="4.5889" cy="4.5889" r="4.5889" transform="matrix(-1 0 0 1 508.684 75.2842)" fill="#FF00E5"/>
<circle cx="4.5889" cy="4.5889" r="4.5889" transform="matrix(-1 0 0 1 448.494 75.2842)" fill="#FF00E5"/>
<circle cx="4.5889" cy="4.5889" r="4.5889" transform="matrix(-1 0 0 1 388.303 75.2842)" fill="#FF00E5"/>
<circle cx="4.5889" cy="4.5889" r="4.5889" transform="matrix(-1 0 0 1 649.127 75.2842)" fill="#FF00E5"/>
<circle cx="4.5889" cy="4.5889" r="4.5889" transform="matrix(-1 0 0 1 588.937 75.2842)" fill="#FF00E5"/>
<circle cx="4.5889" cy="4.5889" r="4.5889" transform="matrix(-1 0 0 1 528.747 75.2842)" fill="#FF00E5"/>
<circle cx="4.5889" cy="4.5889" r="4.5889" transform="matrix(-1 0 0 1 468.557 75.2842)" fill="#FF00E5"/>
<circle cx="4.5889" cy="4.5889" r="4.5889" transform="matrix(-1 0 0 1 408.367 75.2842)" fill="#FF00E5"/>
<circle cx="4.5889" cy="4.5889" r="4.5889" transform="matrix(-1 0 0 1 609.001 75.2842)" fill="#FF00E5"/>
<circle cx="4.5889" cy="4.5889" r="4.5889" transform="matrix(-1 0 0 1 548.811 75.2842)" fill="#FF00E5"/>
<circle cx="4.5889" cy="4.5889" r="4.5889" transform="matrix(-1 0 0 1 488.621 75.2842)" fill="#FF00E5"/>
<circle cx="4.5889" cy="4.5889" r="4.5889" transform="matrix(-1 0 0 1 428.427 75.2842)" fill="#FF00E5"/>
<circle cx="4.5889" cy="4.5889" r="4.5889" transform="matrix(-1 0 0 1 368.24 75.2842)" fill="#FF00E5"/>
<circle cx="4.5889" cy="4.5889" r="4.5889" transform="matrix(-1 0 0 1 629.063 135.474)" fill="#FF00E5"/>
<circle cx="4.5889" cy="4.5889" r="4.5889" transform="matrix(-1 0 0 1 568.873 135.474)" fill="#FF00E5"/>
<circle cx="4.5889" cy="4.5889" r="4.5889" transform="matrix(-1 0 0 1 508.684 135.474)" fill="#FF00E5"/>
<circle cx="4.5889" cy="4.5889" r="4.5889" transform="matrix(-1 0 0 1 448.494 135.474)" fill="#FF00E5"/>
<circle cx="4.5889" cy="4.5889" r="4.5889" transform="matrix(-1 0 0 1 388.303 135.474)" fill="#FF00E5"/>
<circle cx="4.5889" cy="4.5889" r="4.5889" transform="matrix(-1 0 0 1 649.127 135.474)" fill="#FF00E5"/>
<circle cx="4.5889" cy="4.5889" r="4.5889" transform="matrix(-1 0 0 1 588.937 135.474)" fill="#FF00E5"/>
<circle cx="4.5889" cy="4.5889" r="4.5889" transform="matrix(-1 0 0 1 528.747 135.474)" fill="#FF00E5"/>
<circle cx="4.5889" cy="4.5889" r="4.5889" transform="matrix(-1 0 0 1 468.557 135.474)" fill="#FF00E5"/>
<circle cx="4.5889" cy="4.5889" r="4.5889" transform="matrix(-1 0 0 1 408.367 135.474)" fill="#FF00E5"/>
<circle cx="4.5889" cy="4.5889" r="4.5889" transform="matrix(-1 0 0 1 609.001 135.474)" fill="#FF00E5"/>
<circle cx="4.5889" cy="4.5889" r="4.5889" transform="matrix(-1 0 0 1 548.811 135.474)" fill="#FF00E5"/>
<circle cx="4.5889" cy="4.5889" r="4.5889" transform="matrix(-1 0 0 1 488.621 135.474)" fill="#FF00E5"/>
<circle cx="4.5889" cy="4.5889" r="4.5889" transform="matrix(-1 0 0 1 428.427 135.474)" fill="#FF00E5"/>
<circle cx="4.5889" cy="4.5889" r="4.5889" transform="matrix(-1 0 0 1 368.24 135.474)" fill="#FF00E5"/>
<circle cx="4.5889" cy="4.5889" r="4.5889" transform="matrix(-1 0 0 1 629.063 195.666)" fill="#FF00E5"/>
<circle cx="4.5889" cy="4.5889" r="4.5889" transform="matrix(-1 0 0 1 568.873 195.666)" fill="#FF00E5"/>
<circle cx="4.5889" cy="4.5889" r="4.5889" transform="matrix(-1 0 0 1 508.684 195.666)" fill="#FF00E5"/>
<circle cx="4.5889" cy="4.5889" r="4.5889" transform="matrix(-1 0 0 1 448.494 195.666)" fill="#FF00E5"/>
<circle cx="4.5889" cy="4.5889" r="4.5889" transform="matrix(-1 0 0 1 388.303 195.666)" fill="#FF00E5"/>
<circle cx="4.5889" cy="4.5889" r="4.5889" transform="matrix(-1 0 0 1 649.127 195.666)" fill="#FF00E5"/>
<circle cx="4.5889" cy="4.5889" r="4.5889" transform="matrix(-1 0 0 1 588.938 195.666)" fill="#FF00E5"/>
<circle cx="4.5889" cy="4.5889" r="4.5889" transform="matrix(-1 0 0 1 528.747 195.666)" fill="#FF00E5"/>
<circle cx="4.5889" cy="4.5889" r="4.5889" transform="matrix(-1 0 0 1 468.557 195.666)" fill="#FF00E5"/>
<circle cx="4.5889" cy="4.5889" r="4.5889" transform="matrix(-1 0 0 1 408.367 195.666)" fill="#FF00E5"/>
<circle cx="4.5889" cy="4.5889" r="4.5889" transform="matrix(-1 0 0 1 609.001 195.666)" fill="#FF00E5"/>
<circle cx="4.5889" cy="4.5889" r="4.5889" transform="matrix(-1 0 0 1 548.811 195.666)" fill="#FF00E5"/>
<circle cx="4.5889" cy="4.5889" r="4.5889" transform="matrix(-1 0 0 1 488.621 195.666)" fill="#FF00E5"/>
<circle cx="4.5889" cy="4.5889" r="4.5889" transform="matrix(-1 0 0 1 428.427 195.666)" fill="#FF00E5"/>
<circle cx="4.5889" cy="4.5889" r="4.5889" transform="matrix(-1 0 0 1 368.24 195.666)" fill="#FF00E5"/>
<circle cx="4.5889" cy="4.5889" r="4.5889" transform="matrix(-1 0 0 1 629.063 255.856)" fill="#FF00E5"/>
<circle cx="4.5889" cy="4.5889" r="4.5889" transform="matrix(-1 0 0 1 568.873 255.856)" fill="#FF00E5"/>
<circle cx="4.5889" cy="4.5889" r="4.5889" transform="matrix(-1 0 0 1 508.684 255.856)" fill="#FF00E5"/>
<circle cx="4.5889" cy="4.5889" r="4.5889" transform="matrix(-1 0 0 1 448.494 255.856)" fill="#FF00E5"/>
<circle cx="4.5889" cy="4.5889" r="4.5889" transform="matrix(-1 0 0 1 388.304 255.856)" fill="#FF00E5"/>
<circle cx="4.5889" cy="4.5889" r="4.5889" transform="matrix(-1 0 0 1 649.127 255.856)" fill="#FF00E5"/>
<circle cx="4.5889" cy="4.5889" r="4.5889" transform="matrix(-1 0 0 1 588.938 255.856)" fill="#FF00E5"/>
<circle cx="4.5889" cy="4.5889" r="4.5889" transform="matrix(-1 0 0 1 528.747 255.856)" fill="#FF00E5"/>
<circle cx="4.5889" cy="4.5889" r="4.5889" transform="matrix(-1 0 0 1 468.557 255.856)" fill="#FF00E5"/>
<circle cx="4.5889" cy="4.5889" r="4.5889" transform="matrix(-1 0 0 1 408.367 255.856)" fill="#FF00E5"/>
<circle cx="4.5889" cy="4.5889" r="4.5889" transform="matrix(-1 0 0 1 609.001 255.856)" fill="#FF00E5"/>
<circle cx="4.5889" cy="4.5889" r="4.5889" transform="matrix(-1 0 0 1 548.811 255.856)" fill="#FF00E5"/>
<circle cx="4.5889" cy="4.5889" r="4.5889" transform="matrix(-1 0 0 1 488.621 255.856)" fill="#FF00E5"/>
<circle cx="4.5889" cy="4.5889" r="4.5889" transform="matrix(-1 0 0 1 428.427 255.856)" fill="#FF00E5"/>
<circle cx="4.5889" cy="4.5889" r="4.5889" transform="matrix(-1 0 0 1 368.24 255.856)" fill="#FF00E5"/>
<circle cx="4.5889" cy="4.5889" r="4.5889" transform="matrix(-1 0 0 1 629.063 316.049)" fill="#FF00E5"/>
<circle cx="4.5889" cy="4.5889" r="4.5889" transform="matrix(-1 0 0 1 568.873 316.049)" fill="#FF00E5"/>
<circle cx="4.5889" cy="4.5889" r="4.5889" transform="matrix(-1 0 0 1 508.684 316.049)" fill="#FF00E5"/>
<circle cx="4.5889" cy="4.5889" r="4.5889" transform="matrix(-1 0 0 1 448.494 316.049)" fill="#FF00E5"/>
<circle cx="4.5889" cy="4.5889" r="4.5889" transform="matrix(-1 0 0 1 388.304 316.049)" fill="#FF00E5"/>
<circle cx="4.5889" cy="4.5889" r="4.5889" transform="matrix(-1 0 0 1 649.127 316.049)" fill="#FF00E5"/>
<circle cx="4.5889" cy="4.5889" r="4.5889" transform="matrix(-1 0 0 1 588.938 316.049)" fill="#FF00E5"/>
<circle cx="4.5889" cy="4.5889" r="4.5889" transform="matrix(-1 0 0 1 528.747 316.049)" fill="#FF00E5"/>
<circle cx="4.5889" cy="4.5889" r="4.5889" transform="matrix(-1 0 0 1 468.557 316.049)" fill="#FF00E5"/>
<circle cx="4.5889" cy="4.5889" r="4.5889" transform="matrix(-1 0 0 1 408.367 316.049)" fill="#FF00E5"/>
<circle cx="4.5889" cy="4.5889" r="4.5889" transform="matrix(-1 0 0 1 609.001 316.049)" fill="#FF00E5"/>
<circle cx="4.5889" cy="4.5889" r="4.5889" transform="matrix(-1 0 0 1 548.811 316.049)" fill="#FF00E5"/>
<circle cx="4.5889" cy="4.5889" r="4.5889" transform="matrix(-1 0 0 1 488.621 316.049)" fill="#FF00E5"/>
<circle cx="4.5889" cy="4.5889" r="4.5889" transform="matrix(-1 0 0 1 428.427 316.049)" fill="#FF00E5"/>
<circle cx="4.5889" cy="4.5889" r="4.5889" transform="matrix(-1 0 0 1 368.24 316.049)" fill="#FF00E5"/>
<circle cx="4.5889" cy="4.5889" r="4.5889" transform="matrix(-1 0 0 1 629.063 376.235)" fill="#FF00E5"/>
<circle cx="4.5889" cy="4.5889" r="4.5889" transform="matrix(-1 0 0 1 568.873 376.235)" fill="#FF00E5"/>
<circle cx="4.5889" cy="4.5889" r="4.5889" transform="matrix(-1 0 0 1 508.684 376.235)" fill="#FF00E5"/>
<circle cx="4.5889" cy="4.5889" r="4.5889" transform="matrix(-1 0 0 1 448.494 376.235)" fill="#FF00E5"/>
<circle cx="4.5889" cy="4.5889" r="4.5889" transform="matrix(-1 0 0 1 388.303 376.235)" fill="#FF00E5"/>
<circle cx="4.5889" cy="4.5889" r="4.5889" transform="matrix(-1 0 0 1 649.127 376.235)" fill="#FF00E5"/>
<circle cx="4.5889" cy="4.5889" r="4.5889" transform="matrix(-1 0 0 1 588.938 376.235)" fill="#FF00E5"/>
<circle cx="4.5889" cy="4.5889" r="4.5889" transform="matrix(-1 0 0 1 528.747 376.235)" fill="#FF00E5"/>
<circle cx="4.5889" cy="4.5889" r="4.5889" transform="matrix(-1 0 0 1 468.557 376.235)" fill="#FF00E5"/>
<circle cx="4.5889" cy="4.5889" r="4.5889" transform="matrix(-1 0 0 1 408.367 376.235)" fill="#FF00E5"/>
<circle cx="4.5889" cy="4.5889" r="4.5889" transform="matrix(-1 0 0 1 609.001 376.235)" fill="#FF00E5"/>
<circle cx="4.5889" cy="4.5889" r="4.5889" transform="matrix(-1 0 0 1 548.811 376.235)" fill="#FF00E5"/>
<circle cx="4.5889" cy="4.5889" r="4.5889" transform="matrix(-1 0 0 1 488.621 376.235)" fill="#FF00E5"/>
<circle cx="4.5889" cy="4.5889" r="4.5889" transform="matrix(-1 0 0 1 428.427 376.235)" fill="#FF00E5"/>
<circle cx="4.5889" cy="4.5889" r="4.5889" transform="matrix(-1 0 0 1 368.24 376.235)" fill="#FF00E5"/>
<circle cx="4.5889" cy="4.5889" r="4.5889" transform="matrix(-1 0 0 1 629.063 436.428)" fill="#FF00E5"/>
<circle cx="4.5889" cy="4.5889" r="4.5889" transform="matrix(-1 0 0 1 568.873 436.428)" fill="#FF00E5"/>
<circle cx="4.5889" cy="4.5889" r="4.5889" transform="matrix(-1 0 0 1 508.684 436.428)" fill="#FF00E5"/>
<circle cx="4.5889" cy="4.5889" r="4.5889" transform="matrix(-1 0 0 1 448.494 436.428)" fill="#FF00E5"/>
<circle cx="4.5889" cy="4.5889" r="4.5889" transform="matrix(-1 0 0 1 388.304 436.428)" fill="#FF00E5"/>
<circle cx="4.5889" cy="4.5889" r="4.5889" transform="matrix(-1 0 0 1 649.127 436.428)" fill="#FF00E5"/>
<circle cx="4.5889" cy="4.5889" r="4.5889" transform="matrix(-1 0 0 1 588.938 436.428)" fill="#FF00E5"/>
<circle cx="4.5889" cy="4.5889" r="4.5889" transform="matrix(-1 0 0 1 528.747 436.428)" fill="#FF00E5"/>
<circle cx="4.5889" cy="4.5889" r="4.5889" transform="matrix(-1 0 0 1 468.557 436.428)" fill="#FF00E5"/>
<circle cx="4.5889" cy="4.5889" r="4.5889" transform="matrix(-1 0 0 1 408.367 436.428)" fill="#FF00E5"/>
<circle cx="4.5889" cy="4.5889" r="4.5889" transform="matrix(-1 0 0 1 609.001 436.428)" fill="#FF00E5"/>
<circle cx="4.5889" cy="4.5889" r="4.5889" transform="matrix(-1 0 0 1 548.811 436.428)" fill="#FF00E5"/>
<circle cx="4.5889" cy="4.5889" r="4.5889" transform="matrix(-1 0 0 1 488.621 436.428)" fill="#FF00E5"/>
<circle cx="4.5889" cy="4.5889" r="4.5889" transform="matrix(-1 0 0 1 428.427 436.428)" fill="#FF00E5"/>
<circle cx="4.5889" cy="4.5889" r="4.5889" transform="matrix(-1 0 0 1 368.24 436.428)" fill="#FF00E5"/>
<circle cx="4.5889" cy="4.5889" r="4.5889" transform="matrix(-1 0 0 1 630.113 496.616)" fill="#FF00E5"/>
<circle cx="4.5889" cy="4.5889" r="4.5889" transform="matrix(-1 0 0 1 569.923 496.616)" fill="#FF00E5"/>
<circle cx="4.5889" cy="4.5889" r="4.5889" transform="matrix(-1 0 0 1 509.733 496.616)" fill="#FF00E5"/>
<circle cx="4.5889" cy="4.5889" r="4.5889" transform="matrix(-1 0 0 1 449.543 496.616)" fill="#FF00E5"/>
<circle cx="4.5889" cy="4.5889" r="4.5889" transform="matrix(-1 0 0 1 389.353 496.616)" fill="#FF00E5"/>
<circle cx="4.5889" cy="4.5889" r="4.5889" transform="matrix(-1 0 0 1 650.177 496.616)" fill="#FF00E5"/>
<circle cx="4.5889" cy="4.5889" r="4.5889" transform="matrix(-1 0 0 1 589.986 496.616)" fill="#FF00E5"/>
<circle cx="4.5889" cy="4.5889" r="4.5889" transform="matrix(-1 0 0 1 529.797 496.616)" fill="#FF00E5"/>
<circle cx="4.5889" cy="4.5889" r="4.5889" transform="matrix(-1 0 0 1 469.606 496.616)" fill="#FF00E5"/>
<circle cx="4.5889" cy="4.5889" r="4.5889" transform="matrix(-1 0 0 1 409.416 496.616)" fill="#FF00E5"/>
<circle cx="4.5889" cy="4.5889" r="4.5889" transform="matrix(-1 0 0 1 610.05 496.616)" fill="#FF00E5"/>
<circle cx="4.5889" cy="4.5889" r="4.5889" transform="matrix(-1 0 0 1 549.859 496.616)" fill="#FF00E5"/>
<circle cx="4.5889" cy="4.5889" r="4.5889" transform="matrix(-1 0 0 1 489.67 496.616)" fill="#FF00E5"/>
<circle cx="4.5889" cy="4.5889" r="4.5889" transform="matrix(-1 0 0 1 429.475 496.616)" fill="#FF00E5"/>
<circle cx="4.5889" cy="4.5889" r="4.5889" transform="matrix(-1 0 0 1 369.29 496.616)" fill="#FF00E5"/>
<circle cx="4.5889" cy="4.5889" r="4.5889" transform="matrix(-1 0 0 1 629.063 55.2227)" fill="#FF00E5"/>
<circle cx="4.5889" cy="4.5889" r="4.5889" transform="matrix(-1 0 0 1 568.873 55.2227)" fill="#FF00E5"/>
<circle cx="4.5889" cy="4.5889" r="4.5889" transform="matrix(-1 0 0 1 508.684 55.2227)" fill="#FF00E5"/>
<circle cx="4.5889" cy="4.5889" r="4.5889" transform="matrix(-1 0 0 1 448.494 55.2227)" fill="#FF00E5"/>
<circle cx="4.5889" cy="4.5889" r="4.5889" transform="matrix(-1 0 0 1 388.303 55.2227)" fill="#FF00E5"/>
<circle cx="4.5889" cy="4.5889" r="4.5889" transform="matrix(-1 0 0 1 649.127 55.2227)" fill="#FF00E5"/>
<circle cx="4.5889" cy="4.5889" r="4.5889" transform="matrix(-1 0 0 1 588.937 55.2227)" fill="#FF00E5"/>
<circle cx="4.5889" cy="4.5889" r="4.5889" transform="matrix(-1 0 0 1 528.747 55.2227)" fill="#FF00E5"/>
<circle cx="4.5889" cy="4.5889" r="4.5889" transform="matrix(-1 0 0 1 468.557 55.2227)" fill="#FF00E5"/>
<circle cx="4.5889" cy="4.5889" r="4.5889" transform="matrix(-1 0 0 1 408.367 55.2227)" fill="#FF00E5"/>
<circle cx="4.5889" cy="4.5889" r="4.5889" transform="matrix(-1 0 0 1 609.001 55.2227)" fill="#FF00E5"/>
<circle cx="4.5889" cy="4.5889" r="4.5889" transform="matrix(-1 0 0 1 548.811 55.2227)" fill="#FF00E5"/>
<circle cx="4.5889" cy="4.5889" r="4.5889" transform="matrix(-1 0 0 1 488.621 55.2227)" fill="#FF00E5"/>
<circle cx="4.5889" cy="4.5889" r="4.5889" transform="matrix(-1 0 0 1 428.427 55.2227)" fill="#FF00E5"/>
<circle cx="4.5889" cy="4.5889" r="4.5889" transform="matrix(-1 0 0 1 368.24 55.2227)" fill="#FF00E5"/>
<circle cx="4.5889" cy="4.5889" r="4.5889" transform="matrix(-1 0 0 1 629.063 115.413)" fill="#FF00E5"/>
<circle cx="4.5889" cy="4.5889" r="4.5889" transform="matrix(-1 0 0 1 568.873 115.413)" fill="#FF00E5"/>
<circle cx="4.5889" cy="4.5889" r="4.5889" transform="matrix(-1 0 0 1 508.684 115.413)" fill="#FF00E5"/>
<circle cx="4.5889" cy="4.5889" r="4.5889" transform="matrix(-1 0 0 1 448.494 115.413)" fill="#FF00E5"/>
<circle cx="4.5889" cy="4.5889" r="4.5889" transform="matrix(-1 0 0 1 388.303 115.413)" fill="#FF00E5"/>
<circle cx="4.5889" cy="4.5889" r="4.5889" transform="matrix(-1 0 0 1 649.127 115.413)" fill="#FF00E5"/>
<circle cx="4.5889" cy="4.5889" r="4.5889" transform="matrix(-1 0 0 1 588.937 115.413)" fill="#FF00E5"/>
<circle cx="4.5889" cy="4.5889" r="4.5889" transform="matrix(-1 0 0 1 528.747 115.413)" fill="#FF00E5"/>
<circle cx="4.5889" cy="4.5889" r="4.5889" transform="matrix(-1 0 0 1 468.557 115.413)" fill="#FF00E5"/>
<circle cx="4.5889" cy="4.5889" r="4.5889" transform="matrix(-1 0 0 1 408.367 115.413)" fill="#FF00E5"/>
<circle cx="4.5889" cy="4.5889" r="4.5889" transform="matrix(-1 0 0 1 609.001 115.413)" fill="#FF00E5"/>
<circle cx="4.5889" cy="4.5889" r="4.5889" transform="matrix(-1 0 0 1 548.811 115.413)" fill="#FF00E5"/>
<circle cx="4.5889" cy="4.5889" r="4.5889" transform="matrix(-1 0 0 1 488.621 115.413)" fill="#FF00E5"/>
<circle cx="4.5889" cy="4.5889" r="4.5889" transform="matrix(-1 0 0 1 428.427 115.413)" fill="#FF00E5"/>
<circle cx="4.5889" cy="4.5889" r="4.5889" transform="matrix(-1 0 0 1 368.24 115.413)" fill="#FF00E5"/>
<circle cx="4.5889" cy="4.5889" r="4.5889" transform="matrix(-1 0 0 1 629.063 175.602)" fill="#FF00E5"/>
<circle cx="4.5889" cy="4.5889" r="4.5889" transform="matrix(-1 0 0 1 568.873 175.602)" fill="#FF00E5"/>
<circle cx="4.5889" cy="4.5889" r="4.5889" transform="matrix(-1 0 0 1 508.684 175.602)" fill="#FF00E5"/>
<circle cx="4.5889" cy="4.5889" r="4.5889" transform="matrix(-1 0 0 1 448.494 175.602)" fill="#FF00E5"/>
<circle cx="4.5889" cy="4.5889" r="4.5889" transform="matrix(-1 0 0 1 388.304 175.602)" fill="#FF00E5"/>
<circle cx="4.5889" cy="4.5889" r="4.5889" transform="matrix(-1 0 0 1 649.127 175.602)" fill="#FF00E5"/>
<circle cx="4.5889" cy="4.5889" r="4.5889" transform="matrix(-1 0 0 1 588.938 175.602)" fill="#FF00E5"/>
<circle cx="4.5889" cy="4.5889" r="4.5889" transform="matrix(-1 0 0 1 528.747 175.602)" fill="#FF00E5"/>
<circle cx="4.5889" cy="4.5889" r="4.5889" transform="matrix(-1 0 0 1 468.557 175.602)" fill="#FF00E5"/>
<circle cx="4.5889" cy="4.5889" r="4.5889" transform="matrix(-1 0 0 1 408.367 175.602)" fill="#FF00E5"/>
<circle cx="4.5889" cy="4.5889" r="4.5889" transform="matrix(-1 0 0 1 609.001 175.602)" fill="#FF00E5"/>
<circle cx="4.5889" cy="4.5889" r="4.5889" transform="matrix(-1 0 0 1 548.811 175.602)" fill="#FF00E5"/>
<circle cx="4.5889" cy="4.5889" r="4.5889" transform="matrix(-1 0 0 1 488.621 175.602)" fill="#FF00E5"/>
<circle cx="4.5889" cy="4.5889" r="4.5889" transform="matrix(-1 0 0 1 428.427 175.602)" fill="#FF00E5"/>
<circle cx="4.5889" cy="4.5889" r="4.5889" transform="matrix(-1 0 0 1 368.24 175.602)" fill="#FF00E5"/>
<circle cx="4.5889" cy="4.5889" r="4.5889" transform="matrix(-1 0 0 1 629.063 235.792)" fill="#FF00E5"/>
<circle cx="4.5889" cy="4.5889" r="4.5889" transform="matrix(-1 0 0 1 568.873 235.792)" fill="#FF00E5"/>
<circle cx="4.5889" cy="4.5889" r="4.5889" transform="matrix(-1 0 0 1 508.684 235.792)" fill="#FF00E5"/>
<circle cx="4.5889" cy="4.5889" r="4.5889" transform="matrix(-1 0 0 1 448.494 235.792)" fill="#FF00E5"/>
<circle cx="4.5889" cy="4.5889" r="4.5889" transform="matrix(-1 0 0 1 388.303 235.792)" fill="#FF00E5"/>
<circle cx="4.5889" cy="4.5889" r="4.5889" transform="matrix(-1 0 0 1 649.127 235.792)" fill="#FF00E5"/>
<circle cx="4.5889" cy="4.5889" r="4.5889" transform="matrix(-1 0 0 1 588.938 235.792)" fill="#FF00E5"/>
<circle cx="4.5889" cy="4.5889" r="4.5889" transform="matrix(-1 0 0 1 528.747 235.792)" fill="#FF00E5"/>
<circle cx="4.5889" cy="4.5889" r="4.5889" transform="matrix(-1 0 0 1 468.557 235.792)" fill="#FF00E5"/>
<circle cx="4.5889" cy="4.5889" r="4.5889" transform="matrix(-1 0 0 1 408.367 235.792)" fill="#FF00E5"/>
<circle cx="4.5889" cy="4.5889" r="4.5889" transform="matrix(-1 0 0 1 609.001 235.792)" fill="#FF00E5"/>
<circle cx="4.5889" cy="4.5889" r="4.5889" transform="matrix(-1 0 0 1 548.811 235.792)" fill="#FF00E5"/>
<circle cx="4.5889" cy="4.5889" r="4.5889" transform="matrix(-1 0 0 1 488.621 235.792)" fill="#FF00E5"/>
<circle cx="4.5889" cy="4.5889" r="4.5889" transform="matrix(-1 0 0 1 428.427 235.792)" fill="#FF00E5"/>
<circle cx="4.5889" cy="4.5889" r="4.5889" transform="matrix(-1 0 0 1 368.24 235.792)" fill="#FF00E5"/>
<circle cx="4.5889" cy="4.5889" r="4.5889" transform="matrix(-1 0 0 1 629.063 295.984)" fill="#FF00E5"/>
<circle cx="4.5889" cy="4.5889" r="4.5889" transform="matrix(-1 0 0 1 568.873 295.984)" fill="#FF00E5"/>
<circle cx="4.5889" cy="4.5889" r="4.5889" transform="matrix(-1 0 0 1 508.684 295.984)" fill="#FF00E5"/>
<circle cx="4.5889" cy="4.5889" r="4.5889" transform="matrix(-1 0 0 1 448.494 295.984)" fill="#FF00E5"/>
<circle cx="4.5889" cy="4.5889" r="4.5889" transform="matrix(-1 0 0 1 388.303 295.984)" fill="#FF00E5"/>
<circle cx="4.5889" cy="4.5889" r="4.5889" transform="matrix(-1 0 0 1 649.127 295.984)" fill="#FF00E5"/>
<circle cx="4.5889" cy="4.5889" r="4.5889" transform="matrix(-1 0 0 1 588.938 295.984)" fill="#FF00E5"/>
<circle cx="4.5889" cy="4.5889" r="4.5889" transform="matrix(-1 0 0 1 528.747 295.984)" fill="#FF00E5"/>
<circle cx="4.5889" cy="4.5889" r="4.5889" transform="matrix(-1 0 0 1 468.557 295.984)" fill="#FF00E5"/>
<circle cx="4.5889" cy="4.5889" r="4.5889" transform="matrix(-1 0 0 1 408.367 295.984)" fill="#FF00E5"/>
<circle cx="4.5889" cy="4.5889" r="4.5889" transform="matrix(-1 0 0 1 609.001 295.984)" fill="#FF00E5"/>
<circle cx="4.5889" cy="4.5889" r="4.5889" transform="matrix(-1 0 0 1 548.811 295.984)" fill="#FF00E5"/>
<circle cx="4.5889" cy="4.5889" r="4.5889" transform="matrix(-1 0 0 1 488.621 295.984)" fill="#FF00E5"/>
<circle cx="4.5889" cy="4.5889" r="4.5889" transform="matrix(-1 0 0 1 428.427 295.984)" fill="#FF00E5"/>
<circle cx="4.5889" cy="4.5889" r="4.5889" transform="matrix(-1 0 0 1 368.24 295.984)" fill="#FF00E5"/>
<circle cx="4.5889" cy="4.5889" r="4.5889" transform="matrix(-1 0 0 1 629.063 356.174)" fill="#FF00E5"/>
<circle cx="4.5889" cy="4.5889" r="4.5889" transform="matrix(-1 0 0 1 568.873 356.174)" fill="#FF00E5"/>
<circle cx="4.5889" cy="4.5889" r="4.5889" transform="matrix(-1 0 0 1 508.684 356.174)" fill="#FF00E5"/>
<circle cx="4.5889" cy="4.5889" r="4.5889" transform="matrix(-1 0 0 1 448.494 356.174)" fill="#FF00E5"/>
<circle cx="4.5889" cy="4.5889" r="4.5889" transform="matrix(-1 0 0 1 388.304 356.174)" fill="#FF00E5"/>
<circle cx="4.5889" cy="4.5889" r="4.5889" transform="matrix(-1 0 0 1 649.127 356.174)" fill="#FF00E5"/>
<circle cx="4.5889" cy="4.5889" r="4.5889" transform="matrix(-1 0 0 1 588.938 356.174)" fill="#FF00E5"/>
<circle cx="4.5889" cy="4.5889" r="4.5889" transform="matrix(-1 0 0 1 528.747 356.174)" fill="#FF00E5"/>
<circle cx="4.5889" cy="4.5889" r="4.5889" transform="matrix(-1 0 0 1 468.557 356.174)" fill="#FF00E5"/>
<circle cx="4.5889" cy="4.5889" r="4.5889" transform="matrix(-1 0 0 1 408.367 356.174)" fill="#FF00E5"/>
<circle cx="4.5889" cy="4.5889" r="4.5889" transform="matrix(-1 0 0 1 609.001 356.174)" fill="#FF00E5"/>
<circle cx="4.5889" cy="4.5889" r="4.5889" transform="matrix(-1 0 0 1 548.811 356.174)" fill="#FF00E5"/>
<circle cx="4.5889" cy="4.5889" r="4.5889" transform="matrix(-1 0 0 1 488.621 356.174)" fill="#FF00E5"/>
<circle cx="4.5889" cy="4.5889" r="4.5889" transform="matrix(-1 0 0 1 428.427 356.174)" fill="#FF00E5"/>
<circle cx="4.5889" cy="4.5889" r="4.5889" transform="matrix(-1 0 0 1 368.24 356.174)" fill="#FF00E5"/>
<circle cx="4.5889" cy="4.5889" r="4.5889" transform="matrix(-1 0 0 1 629.063 416.362)" fill="#FF00E5"/>
<circle cx="4.5889" cy="4.5889" r="4.5889" transform="matrix(-1 0 0 1 568.873 416.362)" fill="#FF00E5"/>
<circle cx="4.5889" cy="4.5889" r="4.5889" transform="matrix(-1 0 0 1 508.684 416.362)" fill="#FF00E5"/>
<circle cx="4.5889" cy="4.5889" r="4.5889" transform="matrix(-1 0 0 1 448.494 416.362)" fill="#FF00E5"/>
<circle cx="4.5889" cy="4.5889" r="4.5889" transform="matrix(-1 0 0 1 388.303 416.362)" fill="#FF00E5"/>
<circle cx="4.5889" cy="4.5889" r="4.5889" transform="matrix(-1 0 0 1 649.127 416.362)" fill="#FF00E5"/>
<circle cx="4.5889" cy="4.5889" r="4.5889" transform="matrix(-1 0 0 1 588.938 416.362)" fill="#FF00E5"/>
<circle cx="4.5889" cy="4.5889" r="4.5889" transform="matrix(-1 0 0 1 528.747 416.362)" fill="#FF00E5"/>
<circle cx="4.5889" cy="4.5889" r="4.5889" transform="matrix(-1 0 0 1 468.557 416.362)" fill="#FF00E5"/>
<circle cx="4.5889" cy="4.5889" r="4.5889" transform="matrix(-1 0 0 1 408.367 416.362)" fill="#FF00E5"/>
<circle cx="4.5889" cy="4.5889" r="4.5889" transform="matrix(-1 0 0 1 609.001 416.362)" fill="#FF00E5"/>
<circle cx="4.5889" cy="4.5889" r="4.5889" transform="matrix(-1 0 0 1 548.811 416.362)" fill="#FF00E5"/>
<circle cx="4.5889" cy="4.5889" r="4.5889" transform="matrix(-1 0 0 1 488.621 416.362)" fill="#FF00E5"/>
<circle cx="4.5889" cy="4.5889" r="4.5889" transform="matrix(-1 0 0 1 428.427 416.362)" fill="#FF00E5"/>
<circle cx="4.5889" cy="4.5889" r="4.5889" transform="matrix(-1 0 0 1 368.24 416.362)" fill="#FF00E5"/>
<circle cx="4.5889" cy="4.5889" r="4.5889" transform="matrix(-1 0 0 1 630.113 476.554)" fill="#FF00E5"/>
<circle cx="4.5889" cy="4.5889" r="4.5889" transform="matrix(-1 0 0 1 569.923 476.554)" fill="#FF00E5"/>
<circle cx="4.5889" cy="4.5889" r="4.5889" transform="matrix(-1 0 0 1 509.733 476.554)" fill="#FF00E5"/>
<circle cx="4.5889" cy="4.5889" r="4.5889" transform="matrix(-1 0 0 1 449.543 476.554)" fill="#FF00E5"/>
<circle cx="4.5889" cy="4.5889" r="4.5889" transform="matrix(-1 0 0 1 389.353 476.554)" fill="#FF00E5"/>
<circle cx="4.5889" cy="4.5889" r="4.5889" transform="matrix(-1 0 0 1 650.177 476.554)" fill="#FF00E5"/>
<circle cx="4.5889" cy="4.5889" r="4.5889" transform="matrix(-1 0 0 1 589.986 476.554)" fill="#FF00E5"/>
<circle cx="4.5889" cy="4.5889" r="4.5889" transform="matrix(-1 0 0 1 529.797 476.554)" fill="#FF00E5"/>
<circle cx="4.5889" cy="4.5889" r="4.5889" transform="matrix(-1 0 0 1 469.606 476.554)" fill="#FF00E5"/>
<circle cx="4.5889" cy="4.5889" r="4.5889" transform="matrix(-1 0 0 1 409.416 476.554)" fill="#FF00E5"/>
<circle cx="4.5889" cy="4.5889" r="4.5889" transform="matrix(-1 0 0 1 610.05 476.554)" fill="#FF00E5"/>
<circle cx="4.5889" cy="4.5889" r="4.5889" transform="matrix(-1 0 0 1 549.859 476.554)" fill="#FF00E5"/>
<circle cx="4.5889" cy="4.5889" r="4.5889" transform="matrix(-1 0 0 1 489.67 476.554)" fill="#FF00E5"/>
<circle cx="4.5889" cy="4.5889" r="4.5889" transform="matrix(-1 0 0 1 429.475 476.554)" fill="#FF00E5"/>
<circle cx="4.5889" cy="4.5889" r="4.5889" transform="matrix(-1 0 0 1 369.29 476.554)" fill="#FF00E5"/>
<circle cx="4.5889" cy="4.5889" r="4.5889" transform="matrix(-1 0 0 1 629.063 35.1572)" fill="#FF00E5"/>
<circle cx="4.5889" cy="4.5889" r="4.5889" transform="matrix(-1 0 0 1 568.873 35.1572)" fill="#FF00E5"/>
<circle cx="4.5889" cy="4.5889" r="4.5889" transform="matrix(-1 0 0 1 508.684 35.1572)" fill="#FF00E5"/>
<circle cx="4.5889" cy="4.5889" r="4.5889" transform="matrix(-1 0 0 1 448.494 35.1572)" fill="#FF00E5"/>
<circle cx="4.5889" cy="4.5889" r="4.5889" transform="matrix(-1 0 0 1 388.303 35.1572)" fill="#FF00E5"/>
<circle cx="4.5889" cy="4.5889" r="4.5889" transform="matrix(-1 0 0 1 649.127 35.1572)" fill="#FF00E5"/>
<circle cx="4.5889" cy="4.5889" r="4.5889" transform="matrix(-1 0 0 1 588.937 35.1572)" fill="#FF00E5"/>
<circle cx="4.5889" cy="4.5889" r="4.5889" transform="matrix(-1 0 0 1 528.747 35.1572)" fill="#FF00E5"/>
<circle cx="4.5889" cy="4.5889" r="4.5889" transform="matrix(-1 0 0 1 468.557 35.1572)" fill="#FF00E5"/>
<circle cx="4.5889" cy="4.5889" r="4.5889" transform="matrix(-1 0 0 1 408.367 35.1572)" fill="#FF00E5"/>
<circle cx="4.5889" cy="4.5889" r="4.5889" transform="matrix(-1 0 0 1 609.001 35.1572)" fill="#FF00E5"/>
<circle cx="4.5889" cy="4.5889" r="4.5889" transform="matrix(-1 0 0 1 548.811 35.1572)" fill="#FF00E5"/>
<circle cx="4.5889" cy="4.5889" r="4.5889" transform="matrix(-1 0 0 1 488.621 35.1572)" fill="#FF00E5"/>
<circle cx="4.5889" cy="4.5889" r="4.5889" transform="matrix(-1 0 0 1 428.427 35.1572)" fill="#FF00E5"/>
<circle cx="4.5889" cy="4.5889" r="4.5889" transform="matrix(-1 0 0 1 368.24 35.1572)" fill="#FF00E5"/>
<circle cx="4.5889" cy="4.5889" r="4.5889" transform="matrix(-1 0 0 1 629.063 95.3491)" fill="#FF00E5"/>
<circle cx="4.5889" cy="4.5889" r="4.5889" transform="matrix(-1 0 0 1 568.873 95.3491)" fill="#FF00E5"/>
<circle cx="4.5889" cy="4.5889" r="4.5889" transform="matrix(-1 0 0 1 508.684 95.3491)" fill="#FF00E5"/>
<circle cx="4.5889" cy="4.5889" r="4.5889" transform="matrix(-1 0 0 1 448.494 95.3491)" fill="#FF00E5"/>
<circle cx="4.5889" cy="4.5889" r="4.5889" transform="matrix(-1 0 0 1 388.303 95.3491)" fill="#FF00E5"/>
<circle cx="4.5889" cy="4.5889" r="4.5889" transform="matrix(-1 0 0 1 649.127 95.3491)" fill="#FF00E5"/>
<circle cx="4.5889" cy="4.5889" r="4.5889" transform="matrix(-1 0 0 1 588.937 95.3491)" fill="#FF00E5"/>
<circle cx="4.5889" cy="4.5889" r="4.5889" transform="matrix(-1 0 0 1 528.747 95.3491)" fill="#FF00E5"/>
<circle cx="4.5889" cy="4.5889" r="4.5889" transform="matrix(-1 0 0 1 468.557 95.3491)" fill="#FF00E5"/>
<circle cx="4.5889" cy="4.5889" r="4.5889" transform="matrix(-1 0 0 1 408.367 95.3491)" fill="#FF00E5"/>
<circle cx="4.5889" cy="4.5889" r="4.5889" transform="matrix(-1 0 0 1 609.001 95.3491)" fill="#FF00E5"/>
<circle cx="4.5889" cy="4.5889" r="4.5889" transform="matrix(-1 0 0 1 548.811 95.3491)" fill="#FF00E5"/>
<circle cx="4.5889" cy="4.5889" r="4.5889" transform="matrix(-1 0 0 1 488.621 95.3491)" fill="#FF00E5"/>
<circle cx="4.5889" cy="4.5889" r="4.5889" transform="matrix(-1 0 0 1 428.427 95.3491)" fill="#FF00E5"/>
<circle cx="4.5889" cy="4.5889" r="4.5889" transform="matrix(-1 0 0 1 368.24 95.3491)" fill="#FF00E5"/>
<circle cx="4.5889" cy="4.5889" r="4.5889" transform="matrix(-1 0 0 1 629.063 155.54)" fill="#FF00E5"/>
<circle cx="4.5889" cy="4.5889" r="4.5889" transform="matrix(-1 0 0 1 568.873 155.54)" fill="#FF00E5"/>
<circle cx="4.5889" cy="4.5889" r="4.5889" transform="matrix(-1 0 0 1 508.684 155.54)" fill="#FF00E5"/>
<circle cx="4.5889" cy="4.5889" r="4.5889" transform="matrix(-1 0 0 1 448.494 155.54)" fill="#FF00E5"/>
<circle cx="4.5889" cy="4.5889" r="4.5889" transform="matrix(-1 0 0 1 388.303 155.54)" fill="#FF00E5"/>
<circle cx="4.5889" cy="4.5889" r="4.5889" transform="matrix(-1 0 0 1 649.127 155.54)" fill="#FF00E5"/>
<circle cx="4.5889" cy="4.5889" r="4.5889" transform="matrix(-1 0 0 1 588.937 155.54)" fill="#FF00E5"/>
<circle cx="4.5889" cy="4.5889" r="4.5889" transform="matrix(-1 0 0 1 528.747 155.54)" fill="#FF00E5"/>
<circle cx="4.5889" cy="4.5889" r="4.5889" transform="matrix(-1 0 0 1 468.557 155.54)" fill="#FF00E5"/>
<circle cx="4.5889" cy="4.5889" r="4.5889" transform="matrix(-1 0 0 1 408.367 155.54)" fill="#FF00E5"/>
<circle cx="4.5889" cy="4.5889" r="4.5889" transform="matrix(-1 0 0 1 609.001 155.54)" fill="#FF00E5"/>
<circle cx="4.5889" cy="4.5889" r="4.5889" transform="matrix(-1 0 0 1 548.811 155.54)" fill="#FF00E5"/>
<circle cx="4.5889" cy="4.5889" r="4.5889" transform="matrix(-1 0 0 1 488.621 155.54)" fill="#FF00E5"/>
<circle cx="4.5889" cy="4.5889" r="4.5889" transform="matrix(-1 0 0 1 428.427 155.54)" fill="#FF00E5"/>
<circle cx="4.5889" cy="4.5889" r="4.5889" transform="matrix(-1 0 0 1 368.24 155.54)" fill="#FF00E5"/>
<circle cx="4.5889" cy="4.5889" r="4.5889" transform="matrix(-1 0 0 1 629.063 215.731)" fill="#FF00E5"/>
<circle cx="4.5889" cy="4.5889" r="4.5889" transform="matrix(-1 0 0 1 568.873 215.731)" fill="#FF00E5"/>
<circle cx="4.5889" cy="4.5889" r="4.5889" transform="matrix(-1 0 0 1 508.684 215.731)" fill="#FF00E5"/>
<circle cx="4.5889" cy="4.5889" r="4.5889" transform="matrix(-1 0 0 1 448.494 215.731)" fill="#FF00E5"/>
<circle cx="4.5889" cy="4.5889" r="4.5889" transform="matrix(-1 0 0 1 388.304 215.731)" fill="#FF00E5"/>
<circle cx="4.5889" cy="4.5889" r="4.5889" transform="matrix(-1 0 0 1 649.127 215.731)" fill="#FF00E5"/>
<circle cx="4.5889" cy="4.5889" r="4.5889" transform="matrix(-1 0 0 1 588.938 215.731)" fill="#FF00E5"/>
<circle cx="4.5889" cy="4.5889" r="4.5889" transform="matrix(-1 0 0 1 528.747 215.731)" fill="#FF00E5"/>
<circle cx="4.5889" cy="4.5889" r="4.5889" transform="matrix(-1 0 0 1 468.557 215.731)" fill="#FF00E5"/>
<circle cx="4.5889" cy="4.5889" r="4.5889" transform="matrix(-1 0 0 1 408.367 215.731)" fill="#FF00E5"/>
<circle cx="4.5889" cy="4.5889" r="4.5889" transform="matrix(-1 0 0 1 609.001 215.731)" fill="#FF00E5"/>
<circle cx="4.5889" cy="4.5889" r="4.5889" transform="matrix(-1 0 0 1 548.811 215.731)" fill="#FF00E5"/>
<circle cx="4.5889" cy="4.5889" r="4.5889" transform="matrix(-1 0 0 1 488.621 215.731)" fill="#FF00E5"/>
<circle cx="4.5889" cy="4.5889" r="4.5889" transform="matrix(-1 0 0 1 428.427 215.731)" fill="#FF00E5"/>
<circle cx="4.5889" cy="4.5889" r="4.5889" transform="matrix(-1 0 0 1 368.24 215.731)" fill="#FF00E5"/>
<circle cx="4.5889" cy="4.5889" r="4.5889" transform="matrix(-1 0 0 1 629.063 275.92)" fill="#FF00E5"/>
<circle cx="4.5889" cy="4.5889" r="4.5889" transform="matrix(-1 0 0 1 568.873 275.92)" fill="#FF00E5"/>
<circle cx="4.5889" cy="4.5889" r="4.5889" transform="matrix(-1 0 0 1 508.684 275.92)" fill="#FF00E5"/>
<circle cx="4.5889" cy="4.5889" r="4.5889" transform="matrix(-1 0 0 1 448.494 275.92)" fill="#FF00E5"/>
<circle cx="4.5889" cy="4.5889" r="4.5889" transform="matrix(-1 0 0 1 388.303 275.92)" fill="#FF00E5"/>
<circle cx="4.5889" cy="4.5889" r="4.5889" transform="matrix(-1 0 0 1 649.127 275.92)" fill="#FF00E5"/>
<circle cx="4.5889" cy="4.5889" r="4.5889" transform="matrix(-1 0 0 1 588.938 275.92)" fill="#FF00E5"/>
<circle cx="4.5889" cy="4.5889" r="4.5889" transform="matrix(-1 0 0 1 528.747 275.92)" fill="#FF00E5"/>
<circle cx="4.5889" cy="4.5889" r="4.5889" transform="matrix(-1 0 0 1 468.557 275.92)" fill="#FF00E5"/>
<circle cx="4.5889" cy="4.5889" r="4.5889" transform="matrix(-1 0 0 1 408.367 275.92)" fill="#FF00E5"/>
<circle cx="4.5889" cy="4.5889" r="4.5889" transform="matrix(-1 0 0 1 609.001 275.92)" fill="#FF00E5"/>
<circle cx="4.5889" cy="4.5889" r="4.5889" transform="matrix(-1 0 0 1 548.811 275.92)" fill="#FF00E5"/>
<circle cx="4.5889" cy="4.5889" r="4.5889" transform="matrix(-1 0 0 1 488.621 275.92)" fill="#FF00E5"/>
<circle cx="4.5889" cy="4.5889" r="4.5889" transform="matrix(-1 0 0 1 428.427 275.92)" fill="#FF00E5"/>
<circle cx="4.5889" cy="4.5889" r="4.5889" transform="matrix(-1 0 0 1 368.24 275.92)" fill="#FF00E5"/>
<circle cx="4.5889" cy="4.5889" r="4.5889" transform="matrix(-1 0 0 1 629.063 336.11)" fill="#FF00E5"/>
<circle cx="4.5889" cy="4.5889" r="4.5889" transform="matrix(-1 0 0 1 568.873 336.11)" fill="#FF00E5"/>
<circle cx="4.5889" cy="4.5889" r="4.5889" transform="matrix(-1 0 0 1 508.684 336.11)" fill="#FF00E5"/>
<circle cx="4.5889" cy="4.5889" r="4.5889" transform="matrix(-1 0 0 1 448.494 336.11)" fill="#FF00E5"/>
<circle cx="4.5889" cy="4.5889" r="4.5889" transform="matrix(-1 0 0 1 388.303 336.11)" fill="#FF00E5"/>
<circle cx="4.5889" cy="4.5889" r="4.5889" transform="matrix(-1 0 0 1 649.127 336.11)" fill="#FF00E5"/>
<circle cx="4.5889" cy="4.5889" r="4.5889" transform="matrix(-1 0 0 1 588.938 336.11)" fill="#FF00E5"/>
<circle cx="4.5889" cy="4.5889" r="4.5889" transform="matrix(-1 0 0 1 528.747 336.11)" fill="#FF00E5"/>
<circle cx="4.5889" cy="4.5889" r="4.5889" transform="matrix(-1 0 0 1 468.557 336.11)" fill="#FF00E5"/>
<circle cx="4.5889" cy="4.5889" r="4.5889" transform="matrix(-1 0 0 1 408.367 336.11)" fill="#FF00E5"/>
<circle cx="4.5889" cy="4.5889" r="4.5889" transform="matrix(-1 0 0 1 609.001 336.11)" fill="#FF00E5"/>
<circle cx="4.5889" cy="4.5889" r="4.5889" transform="matrix(-1 0 0 1 548.811 336.11)" fill="#FF00E5"/>
<circle cx="4.5889" cy="4.5889" r="4.5889" transform="matrix(-1 0 0 1 488.621 336.11)" fill="#FF00E5"/>
<circle cx="4.5889" cy="4.5889" r="4.5889" transform="matrix(-1 0 0 1 428.427 336.11)" fill="#FF00E5"/>
<circle cx="4.5889" cy="4.5889" r="4.5889" transform="matrix(-1 0 0 1 368.24 336.11)" fill="#FF00E5"/>
<circle cx="4.5889" cy="4.5889" r="4.5889" transform="matrix(-1 0 0 1 629.063 396.301)" fill="#FF00E5"/>
<circle cx="4.5889" cy="4.5889" r="4.5889" transform="matrix(-1 0 0 1 568.873 396.301)" fill="#FF00E5"/>
<circle cx="4.5889" cy="4.5889" r="4.5889" transform="matrix(-1 0 0 1 508.684 396.301)" fill="#FF00E5"/>
<circle cx="4.5889" cy="4.5889" r="4.5889" transform="matrix(-1 0 0 1 448.494 396.301)" fill="#FF00E5"/>
<circle cx="4.5889" cy="4.5889" r="4.5889" transform="matrix(-1 0 0 1 388.304 396.301)" fill="#FF00E5"/>
<circle cx="4.5889" cy="4.5889" r="4.5889" transform="matrix(-1 0 0 1 649.127 396.301)" fill="#FF00E5"/>
<circle cx="4.5889" cy="4.5889" r="4.5889" transform="matrix(-1 0 0 1 588.938 396.301)" fill="#FF00E5"/>
<circle cx="4.5889" cy="4.5889" r="4.5889" transform="matrix(-1 0 0 1 528.747 396.301)" fill="#FF00E5"/>
<circle cx="4.5889" cy="4.5889" r="4.5889" transform="matrix(-1 0 0 1 468.557 396.301)" fill="#FF00E5"/>
<circle cx="4.5889" cy="4.5889" r="4.5889" transform="matrix(-1 0 0 1 408.367 396.301)" fill="#FF00E5"/>
<circle cx="4.5889" cy="4.5889" r="4.5889" transform="matrix(-1 0 0 1 609.001 396.301)" fill="#FF00E5"/>
<circle cx="4.5889" cy="4.5889" r="4.5889" transform="matrix(-1 0 0 1 548.811 396.301)" fill="#FF00E5"/>
<circle cx="4.5889" cy="4.5889" r="4.5889" transform="matrix(-1 0 0 1 488.621 396.301)" fill="#FF00E5"/>
<circle cx="4.5889" cy="4.5889" r="4.5889" transform="matrix(-1 0 0 1 428.427 396.301)" fill="#FF00E5"/>
<circle cx="4.5889" cy="4.5889" r="4.5889" transform="matrix(-1 0 0 1 368.24 396.301)" fill="#FF00E5"/>
<circle cx="4.5889" cy="4.5889" r="4.5889" transform="matrix(-1 0 0 1 630.113 456.49)" fill="#FF00E5"/>
<circle cx="4.5889" cy="4.5889" r="4.5889" transform="matrix(-1 0 0 1 569.923 456.49)" fill="#FF00E5"/>
<circle cx="4.5889" cy="4.5889" r="4.5889" transform="matrix(-1 0 0 1 509.733 456.49)" fill="#FF00E5"/>
<circle cx="4.5889" cy="4.5889" r="4.5889" transform="matrix(-1 0 0 1 449.543 456.49)" fill="#FF00E5"/>
<circle cx="4.5889" cy="4.5889" r="4.5889" transform="matrix(-1 0 0 1 389.353 456.49)" fill="#FF00E5"/>
<circle cx="4.5889" cy="4.5889" r="4.5889" transform="matrix(-1 0 0 1 650.177 456.49)" fill="#FF00E5"/>
<circle cx="4.5889" cy="4.5889" r="4.5889" transform="matrix(-1 0 0 1 589.986 456.49)" fill="#FF00E5"/>
<circle cx="4.5889" cy="4.5889" r="4.5889" transform="matrix(-1 0 0 1 529.797 456.49)" fill="#FF00E5"/>
<circle cx="4.5889" cy="4.5889" r="4.5889" transform="matrix(-1 0 0 1 469.606 456.49)" fill="#FF00E5"/>
<circle cx="4.5889" cy="4.5889" r="4.5889" transform="matrix(-1 0 0 1 409.416 456.49)" fill="#FF00E5"/>
<circle cx="4.5889" cy="4.5889" r="4.5889" transform="matrix(-1 0 0 1 610.05 456.49)" fill="#FF00E5"/>
<circle cx="4.5889" cy="4.5889" r="4.5889" transform="matrix(-1 0 0 1 549.859 456.49)" fill="#FF00E5"/>
<circle cx="4.5889" cy="4.5889" r="4.5889" transform="matrix(-1 0 0 1 489.67 456.49)" fill="#FF00E5"/>
<circle cx="4.5889" cy="4.5889" r="4.5889" transform="matrix(-1 0 0 1 429.479 456.49)" fill="#FF00E5"/>
<circle cx="4.5889" cy="4.5889" r="4.5889" transform="matrix(-1 0 0 1 369.29 456.49)" fill="#FF00E5"/>
</g>
</g>
<defs>
<clipPath id="clip0_207_16963">
<rect width="668" height="538" fill="white"/>
</clipPath>
</defs>
</svg>
