<svg width="668" height="538" viewBox="0 0 668 538" fill="none" xmlns="http://www.w3.org/2000/svg">
<g clip-path="url(#clip0_207_20194)">
<mask id="mask0_207_20194" style="mask-type:alpha" maskUnits="userSpaceOnUse" x="13" y="16" width="319" height="515">
<path d="M14.0672 41.0846C13.6407 41.4648 13.4136 41.9784 13.4165 42.5497C13.7197 102.077 36.1905 221.846 124.053 232.101C124.231 232.122 124.416 232.119 124.593 232.092C125.953 231.887 127.351 231.679 128.784 231.468C184.169 223.312 292.216 211.246 314.818 223.63L331.713 175.459C331.889 174.956 331.861 174.401 331.634 173.919C309.642 127.156 280.178 92.5811 247.854 67.9338C160.418 1.26237 52.0571 7.23008 14.0672 41.0846Z" fill="black"/>
<path d="M73.2009 512.573C72.4443 512.373 71.8695 511.756 71.7218 510.988L68.7364 495.45L56.4081 505.593C55.8725 506.033 55.5977 506.716 55.6787 507.405L57.5983 523.73C57.6964 524.565 58.297 525.254 59.1107 525.465L78.7763 530.569C79.5448 530.769 80.3593 530.504 80.8633 529.89L91.1745 517.342L73.2009 512.573Z" fill="black"/>
<path fill-rule="evenodd" clip-rule="evenodd" d="M314.818 223.63C292.216 211.246 184.169 223.312 128.784 231.468L96.6538 262.994C96.1015 263.536 95.9037 264.344 96.143 265.079L101.346 281.078C101.581 281.799 101.395 282.592 100.865 283.134L83.0059 301.385C82.5393 301.862 82.3356 302.537 82.4604 303.192L90.1932 343.808C90.5074 345.459 92.5716 346.042 93.7029 344.799L103.89 333.612C104.35 333.107 104.526 332.404 104.359 331.741L96.7252 301.451C96.5075 300.587 96.8762 299.681 97.6357 299.215L102.53 296.212C103.762 295.456 105.368 296.188 105.606 297.614L112.877 341.183C112.984 341.827 112.777 342.483 112.319 342.948L92.1588 363.432C91.6565 363.943 91.4588 364.679 91.6382 365.373L105.769 419.999C106.155 421.489 107.991 422.031 109.123 420.988L117.894 412.912C118.441 412.409 118.67 411.648 118.493 410.927L108.18 368.918C108.006 368.208 108.225 367.458 108.755 366.955L113.55 362.398C114.729 361.277 116.68 361.921 116.962 363.522L126.137 415.664C126.255 416.336 126.03 417.022 125.536 417.493L95.441 446.182C94.8228 446.772 94.6375 447.684 94.9768 448.467L103.733 468.696L211.618 300.863C212.163 300.014 212.844 299.26 213.633 298.632C213.823 298.481 214.014 298.339 214.208 298.205L234.288 283.296C235.938 282.071 238.159 283.78 237.397 285.689L227.989 309.251L167.429 462.808L177.189 469.951C177.772 470.378 178.538 470.464 179.202 470.177L253.526 438.006C254.262 437.687 254.743 436.967 254.754 436.165L255.366 394.622C255.378 393.82 255.859 393.1 256.595 392.781L262.757 390.114C264.041 389.558 265.491 390.431 265.599 391.826L268.104 424.007C268.213 425.402 269.662 426.276 270.946 425.72L283.625 420.232C284.433 419.882 284.925 419.054 284.846 418.177L279.675 361.188C279.55 359.805 278.109 358.95 276.835 359.501L258.354 367.501C256.595 368.262 254.854 366.396 255.734 364.694L315.288 249.495C315.446 249.188 315.524 248.847 315.515 248.502L314.818 223.63Z" fill="black"/>
</mask>
<g mask="url(#mask0_207_20194)">
<path d="M306.408 -57.7653V496.618M296.905 -57.7653V496.618M287.401 -57.7653V496.618M277.897 -57.7653V496.618M268.393 -57.7653V496.618M258.89 -57.7653V496.618M249.386 -57.7653V496.618M239.882 -57.7653V496.618M230.379 -57.7653V496.618M220.875 -57.7653V496.618M211.371 -57.7653V496.618M201.867 -57.7653V496.618M192.364 -57.7653V496.618M182.86 -57.7653V496.618M173.356 -57.7653V496.618M163.853 -57.7653V496.618M154.349 -57.7653V496.618M144.845 -57.7653V496.618M135.342 -57.7653V496.618M125.838 -57.7653V496.618M116.334 -57.7653V496.618M106.83 -57.7653V496.618M97.3267 -57.7653V496.618M87.823 -57.7653V496.618M78.3193 -57.7653V496.618M68.8156 -57.7653V496.618M59.3119 -57.7653V496.618M49.8082 -57.7653V496.618M40.3045 -57.7653V496.618M30.8008 -57.7653V496.618M21.2971 -57.7653V496.618M11.7934 -57.7653V496.618M-122.314 -58.8213L432.068 -58.8213M-122.314 -49.3176L432.068 -49.3176M-122.314 -39.8138L432.068 -39.8139M-122.314 -30.3101L432.068 -30.3102M-122.314 -20.8064L432.068 -20.8064M-122.314 -11.3027L432.068 -11.3027M-122.314 -1.799L432.068 -1.79903M-122.314 7.70471L432.068 7.70468M-122.314 17.2084L432.068 17.2084M-122.314 26.7121L432.068 26.7121M-122.314 36.2158L432.068 36.2158M-122.314 45.7195L432.068 45.7195M-122.314 55.2233L432.068 55.2232M-122.314 64.727L432.068 64.7269M-122.314 74.2307L432.068 74.2307M-122.314 83.7344L432.068 83.7344M-122.314 93.2381L432.068 93.2381M-122.314 102.742L432.068 102.742M-122.314 112.246L432.068 112.245M-122.314 121.749L432.068 121.749M-122.314 131.253L432.068 131.253M-122.314 140.757L432.068 140.757M-122.314 150.26L432.068 150.26M-122.314 159.764L432.068 159.764M-122.314 169.268L432.068 169.268M-122.314 178.771L432.068 178.771M-122.314 188.275L432.068 188.275M-122.314 197.779L432.068 197.779M-122.314 207.283L432.068 207.283M-122.314 216.786L432.068 216.786M-122.314 226.29L432.068 226.29M-122.314 235.794L432.068 235.794M-124.426 245.297L429.956 245.297M-124.426 254.801L429.956 254.801M-124.426 264.305L429.956 264.305M-124.426 273.809L429.956 273.809M-124.426 283.312L429.956 283.312M-124.426 292.816L429.956 292.816M-124.426 302.32L429.956 302.32M-124.426 311.823L429.956 311.823M-124.426 321.327L429.956 321.327M-124.426 330.831L429.956 330.831M-124.426 340.335L429.956 340.335M-124.426 349.838L429.956 349.838M-124.426 359.342L429.956 359.342M-124.426 368.846L429.956 368.846M-124.426 378.349L429.956 378.349M-124.426 387.853L429.956 387.853M-124.426 397.357L429.956 397.357M-124.426 406.861L429.956 406.861M-124.426 416.364L429.956 416.364M-124.426 425.868L429.956 425.868M-124.426 435.372L429.956 435.372M-124.426 444.875L429.956 444.875M-124.426 454.379L429.956 454.379M-124.426 463.883L429.956 463.883M-124.426 473.387L429.956 473.386M-124.426 482.89H429.956M-124.426 492.394H429.956M-124.426 501.898H429.956M-124.426 511.401H429.956M-124.426 520.905H429.956M-124.426 530.409H429.956M-124.426 539.912H429.956" stroke="#FF00E5" stroke-width="2.10096"/>
</g>
<mask id="mask1_207_20194" style="mask-type:alpha" maskUnits="userSpaceOnUse" x="336" y="16" width="319" height="515">
<path d="M654.254 41.0846C654.681 41.4648 654.908 41.9784 654.905 42.5497C654.602 102.077 632.131 221.846 544.268 232.101C544.09 232.122 543.906 232.119 543.728 232.092C542.368 231.887 540.971 231.679 539.538 231.468C484.153 223.312 376.105 211.246 353.503 223.63L336.608 175.459C336.432 174.956 336.461 174.401 336.687 173.919C358.679 127.156 388.143 92.5811 420.467 67.9338C507.903 1.26237 616.264 7.23007 654.254 41.0846Z" fill="white"/>
<path d="M595.12 512.573C595.877 512.373 596.452 511.756 596.599 510.988L599.585 495.45L611.913 505.593C612.449 506.033 612.724 506.716 612.643 507.405L610.723 523.73C610.625 524.565 610.024 525.254 609.211 525.465L589.545 530.569C588.776 530.769 587.962 530.504 587.458 529.89L577.147 517.342L595.12 512.573Z" fill="white"/>
<path fill-rule="evenodd" clip-rule="evenodd" d="M353.503 223.63C376.105 211.246 484.153 223.312 539.538 231.468L571.667 262.994C572.22 263.536 572.418 264.344 572.178 265.079L566.975 281.078C566.741 281.799 566.926 282.592 567.457 283.134L585.315 301.385C585.782 301.862 585.986 302.537 585.861 303.192L578.128 343.808C577.814 345.459 575.75 346.042 574.618 344.799L564.432 333.612C563.971 333.107 563.795 332.404 563.962 331.741L571.596 301.451C571.814 300.587 571.445 299.681 570.686 299.215L565.792 296.212C564.559 295.456 562.953 296.188 562.715 297.614L555.445 341.183C555.337 341.827 555.545 342.483 556.002 342.948L576.162 363.432C576.665 363.943 576.862 364.679 576.683 365.373L562.552 419.999C562.167 421.489 560.331 422.031 559.198 420.988L550.427 412.912C549.881 412.409 549.651 411.648 549.828 410.927L560.141 368.918C560.316 368.208 560.096 367.458 559.566 366.955L554.771 362.398C553.592 361.277 551.641 361.921 551.359 363.522L542.184 415.664C542.066 416.336 542.292 417.022 542.785 417.493L572.88 446.182C573.498 446.772 573.684 447.684 573.344 448.467L564.588 468.696L456.704 300.863C456.158 300.014 455.477 299.26 454.688 298.632C454.498 298.481 454.307 298.339 454.114 298.205L434.033 283.296C432.383 282.071 430.163 283.78 430.924 285.689L440.332 309.251L500.893 462.808L491.133 469.951C490.549 470.378 489.783 470.464 489.119 470.177L414.795 438.006C414.059 437.687 413.579 436.967 413.567 436.165L412.955 394.622C412.943 393.82 412.462 393.1 411.726 392.781L405.564 390.114C404.28 389.558 402.831 390.431 402.722 391.826L400.217 424.007C400.108 425.402 398.659 426.276 397.375 425.72L384.696 420.232C383.888 419.882 383.396 419.054 383.476 418.177L388.646 361.188C388.772 359.805 390.212 358.95 391.486 359.501L409.967 367.501C411.726 368.262 413.468 366.396 412.588 364.694L353.033 249.495C352.875 249.188 352.797 248.846 352.806 248.502L353.503 223.63Z" fill="white"/>
</mask>
<g mask="url(#mask1_207_20194)">
<path d="M658.045 -57.7663V496.617M648.541 -57.7663V496.617M639.038 -57.7663V496.617M629.534 -57.7663V496.617M620.03 -57.7663V496.617M610.526 -57.7663V496.617M601.023 -57.7663V496.617M591.519 -57.7663V496.617M582.015 -57.7663V496.617M572.512 -57.7663V496.617M563.008 -57.7663V496.617M553.504 -57.7663V496.617M544 -57.7663V496.617M534.497 -57.7663V496.617M524.993 -57.7663V496.617M515.489 -57.7663V496.617M505.986 -57.7663V496.617M496.482 -57.7663V496.617M486.978 -57.7663V496.617M477.475 -57.7663V496.617M467.971 -57.7663V496.617M458.467 -57.7663V496.617M448.963 -57.7663V496.617M439.46 -57.7663V496.617M429.956 -57.7663V496.617M420.452 -57.7663V496.617M410.949 -57.7663V496.617M401.445 -57.7663V496.617M391.941 -57.7663V496.617M382.437 -57.7663V496.617M372.934 -57.7663V496.617M363.43 -57.7663V496.617M229.322 -58.8222L783.705 -58.8223M229.322 -49.3185L783.705 -49.3186M229.322 -39.8148L783.705 -39.8148M229.322 -30.3111L783.705 -30.3111M229.322 -20.8074L783.705 -20.8074M229.322 -11.3037L783.705 -11.3037M229.322 -1.79998L783.705 -1.8M229.322 7.70373L783.705 7.70371M229.322 17.2074L783.705 17.2074M229.322 26.7112L783.705 26.7111M229.322 36.2149L783.705 36.2148M229.322 45.7186L783.705 45.7185M229.322 55.2223L783.705 55.2223M229.322 64.726L783.705 64.726M229.322 74.2297L783.705 74.2297M229.322 83.7334L783.705 83.7334M229.322 93.2371L783.705 93.2371M229.322 102.741L783.705 102.741M229.322 112.245L783.705 112.245M229.322 121.748L783.705 121.748M229.322 131.252L783.705 131.252M229.322 140.756L783.705 140.756M229.322 150.259L783.705 150.259M229.322 159.763L783.705 159.763M229.322 169.267L783.705 169.267M229.322 178.771L783.705 178.77M229.322 188.274L783.705 188.274M229.322 197.778L783.705 197.778M229.322 207.282L783.705 207.282M229.322 216.785L783.705 216.785M229.322 226.289L783.705 226.289M229.322 235.793L783.705 235.793M227.21 245.296L781.593 245.296M227.21 254.8L781.593 254.8M227.21 264.304L781.593 264.304M227.21 273.808L781.593 273.808M227.21 283.311L781.593 283.311M227.21 292.815L781.593 292.815M227.21 302.319L781.593 302.319M227.21 311.822L781.593 311.822M227.21 321.326L781.593 321.326M227.21 330.83L781.593 330.83M227.21 340.334L781.593 340.334M227.21 349.837L781.593 349.837M227.21 359.341L781.593 359.341M227.21 368.845L781.593 368.845M227.21 378.348L781.593 378.348M227.21 387.852L781.593 387.852M227.21 397.356L781.593 397.356M227.21 406.86L781.593 406.86M227.21 416.363L781.593 416.363M227.21 425.867L781.593 425.867M227.21 435.371L781.593 435.371M227.21 444.874L781.593 444.874M227.21 454.378L781.593 454.378M227.21 463.882L781.593 463.882M227.21 473.386L781.593 473.386M227.21 482.889H781.593M227.21 492.393H781.593M227.21 501.897H781.593M227.21 511.4H781.593M227.21 520.904H781.593M227.21 530.408H781.593M227.21 539.911H781.593" stroke="#FF00E5" stroke-width="2.10096"/>
</g>
</g>
<defs>
<clipPath id="clip0_207_20194">
<rect width="668" height="538" fill="white"/>
</clipPath>
</defs>
</svg>
