<svg width="55" height="700" viewBox="0 0 55 700" fill="none" xmlns="http://www.w3.org/2000/svg">
<path d="M0.000394821 698.19H54V1H0.000394821" stroke="#FF00E5" stroke-width="2"/>
<path d="M53.9995 25.8999H26.9997" stroke="#FF00E5" stroke-width="2"/>
<path d="M53.9995 50.7988H-9.34601e-05" stroke="#FF00E5" stroke-width="2"/>
<path d="M53.9995 75.6992H26.9997" stroke="#FF00E5" stroke-width="2"/>
<path d="M53.9995 100.598H-9.34601e-05" stroke="#FF00E5" stroke-width="2"/>
<path d="M53.9995 125.498H26.9997" stroke="#FF00E5" stroke-width="2"/>
<path d="M53.9995 150.398H-9.34601e-05" stroke="#FF00E5" stroke-width="2"/>
<path d="M53.9995 175.298H26.9997" stroke="#FF00E5" stroke-width="2"/>
<path d="M53.9995 200.197H-9.34601e-05" stroke="#FF00E5" stroke-width="2"/>
<path d="M53.9995 225.097H26.9997" stroke="#FF00E5" stroke-width="2"/>
<path d="M53.9995 249.995H-9.34601e-05" stroke="#FF00E5" stroke-width="2"/>
<path d="M53.9995 274.896H26.9997" stroke="#FF00E5" stroke-width="2"/>
<path d="M53.9995 299.796H-9.34601e-05" stroke="#FF00E5" stroke-width="2"/>
<path d="M53.9995 324.696H26.9997" stroke="#FF00E5" stroke-width="2"/>
<path d="M53.9995 349.594H-9.34601e-05" stroke="#FF00E5" stroke-width="2"/>
<path d="M53.9995 374.494H26.9997" stroke="#FF00E5" stroke-width="2"/>
<path d="M53.9995 399.393H-9.34601e-05" stroke="#FF00E5" stroke-width="2"/>
<path d="M53.9995 424.293H26.9997" stroke="#FF00E5" stroke-width="2"/>
<path d="M53.9995 449.194H-9.34601e-05" stroke="#FF00E5" stroke-width="2"/>
<path d="M53.9995 474.094H26.9997" stroke="#FF00E5" stroke-width="2"/>
<path d="M53.9995 498.991H-9.34601e-05" stroke="#FF00E5" stroke-width="2"/>
<path d="M53.9995 523.893H26.9997" stroke="#FF00E5" stroke-width="2"/>
<path d="M53.9995 548.792H-9.34601e-05" stroke="#FF00E5" stroke-width="2"/>
<path d="M53.9995 573.691H26.9997" stroke="#FF00E5" stroke-width="2"/>
<path d="M53.9995 598.591H-9.34601e-05" stroke="#FF00E5" stroke-width="2"/>
<path d="M53.9995 623.491H26.9997" stroke="#FF00E5" stroke-width="2"/>
<path d="M53.9995 648.39H-9.34601e-05" stroke="#FF00E5" stroke-width="2"/>
<path d="M53.9995 673.289H26.9997" stroke="#FF00E5" stroke-width="2"/>
</svg>
