<svg width="112" height="112" viewBox="0 0 112 112" fill="none" xmlns="http://www.w3.org/2000/svg">
<path d="M45.4944 25.2496C45.1278 25.3672 44.7343 25.1663 44.6149 24.8006L41.8856 16.443C41.764 16.0707 41.9734 15.6722 42.3492 15.5608L43.6039 15.1888C43.9678 15.0809 44.3522 15.2832 44.4691 15.644L47.1696 23.9803C47.2882 24.3465 47.0871 24.7387 46.7203 24.8564L45.4944 25.2496Z" fill="#FF00E5"/>
<path d="M51.4648 23.8431C51.0821 23.8895 50.7332 23.6178 50.6855 23.236L49.5949 14.5151C49.5463 14.1269 49.8274 13.7757 50.2174 13.7371L51.5198 13.6082C51.8981 13.5708 52.2377 13.8421 52.2838 14.2186L53.3502 22.9132C53.397 23.2948 53.1253 23.6414 52.743 23.6878L51.4648 23.8431Z" fill="#FF00E5"/>
<path d="M57.5938 23.586C57.2087 23.5596 56.9174 23.2267 56.9431 22.8428L57.5308 14.0734C57.5569 13.6836 57.8994 13.3922 58.2896 13.4277L59.5924 13.5464C59.9714 13.5809 60.2537 13.9115 60.2274 14.29L59.621 23.0289C59.5944 23.412 59.262 23.7007 58.8778 23.6743L57.5938 23.586Z" fill="#FF00E5"/>
<path d="M63.6606 24.4887C63.2872 24.3901 63.064 24.0083 63.1623 23.6362L65.4073 15.1352C65.507 14.7577 65.8986 14.5364 66.2751 14.6448L67.531 15.0065C67.8969 15.1118 68.1116 15.4898 68.0139 15.8565L65.7562 24.324C65.6574 24.6948 65.2762 24.9153 64.9039 24.817L63.6606 24.4887Z" fill="#FF00E5"/>
<path d="M69.4458 26.5177C69.0977 26.3504 68.9508 25.9335 69.118 25.5868L72.9395 17.6615C73.1091 17.3098 73.5357 17.1666 73.8851 17.344L75.0487 17.9353C75.3882 18.1077 75.5274 18.5192 75.3618 18.8607L71.5342 26.7508C71.3667 27.0961 70.9505 27.2405 70.6034 27.0737L69.4458 26.5177Z" fill="#FF00E5"/>
<path d="M74.741 29.5989C74.4308 29.369 74.3657 28.9323 74.5956 28.6236L79.8558 21.5606C80.0891 21.2473 80.5356 21.1872 80.8451 21.4275L81.8746 22.2266C82.1752 22.46 82.2339 22.89 82.0065 23.1938L76.7471 30.2212C76.517 30.5286 76.0806 30.5917 75.7712 30.3624L74.741 29.5989Z" fill="#FF00E5"/>
<path d="M79.3539 33.6218C79.0931 33.3377 79.112 32.8971 79.3961 32.6376L85.9049 26.6924C86.1937 26.4287 86.644 26.454 86.9025 26.7485L87.761 27.7266C88.0118 28.0124 87.9878 28.4451 87.7071 28.7003L81.2057 34.6107C80.9214 34.8692 80.4803 34.8488 80.2198 34.5651L79.3539 33.6218Z" fill="#FF00E5"/>
<path d="M83.1183 38.4399C82.9164 38.112 83.0184 37.6836 83.3464 37.4825L90.8686 32.8703C91.2024 32.6656 91.6405 32.7756 91.8385 33.1138L92.4952 34.2356C92.687 34.5632 92.5815 34.983 92.2577 35.1805L84.7495 39.7599C84.4209 39.9603 83.991 39.8569 83.789 39.5289L83.1183 38.4399Z" fill="#FF00E5"/>
<path d="M85.8969 43.8797C85.7611 43.52 85.9424 43.1192 86.3024 42.9836L94.5658 39.8714C94.9329 39.7331 95.3427 39.924 95.473 40.2938L95.9045 41.5188C96.0304 41.8763 95.8473 42.268 95.4921 42.4008L87.2486 45.4835C86.8876 45.6185 86.4845 45.4356 86.3483 45.0752L85.8969 43.8797Z" fill="#FF00E5"/>
<path d="M87.5941 49.7433C87.5292 49.3649 87.7831 49.0061 88.1621 48.9408L96.8678 47.4412C97.2549 47.3745 97.6217 47.6394 97.6793 48.0273L97.8701 49.3117C97.9257 49.6861 97.6718 50.0356 97.298 50.0991L88.6175 51.5735C88.2369 51.6381 87.8752 51.3823 87.81 51.0024L87.5941 49.7433Z" fill="#FF00E5"/>
<path d="M88.1428 55.8224C88.151 55.439 88.4683 55.1351 88.8527 55.1423L97.6857 55.3093C98.079 55.3167 98.3893 55.6463 98.3721 56.0381L98.3151 57.3358C98.2985 57.7134 97.983 58.0083 97.6041 58.0002L88.8006 57.8132C88.4142 57.805 88.1071 57.4854 88.1154 57.1L88.1428 55.8224Z" fill="#FF00E5"/>
<path d="M87.5271 61.8935C87.608 61.519 87.9771 61.2807 88.3533 61.3603L96.9942 63.1876C97.3792 63.269 97.6217 63.6512 97.5303 64.0327L97.2274 65.2969C97.1394 65.6643 96.7737 65.894 96.4031 65.8147L87.795 63.9732C87.4168 63.8923 87.1756 63.5204 87.257 63.1436L87.5271 61.8935Z" fill="#FF00E5"/>
<path d="M85.7656 67.7413C85.9161 67.3891 86.3239 67.2249 86.6783 67.3739L94.8148 70.7952C95.1777 70.9478 95.3434 71.3688 95.1812 71.7259L94.6429 72.9111C94.4868 73.2549 94.084 73.4113 93.735 73.2636L85.6335 69.8346C85.2772 69.6838 85.1108 69.2733 85.2623 68.9188L85.7656 67.7413Z" fill="#FF00E5"/>
<path d="M82.9271 73.1501C83.1419 72.8327 83.5737 72.7485 83.8936 72.9618L91.2317 77.8531C91.5591 78.0713 91.642 78.5156 91.415 78.8355L90.6606 79.8986C90.442 80.2067 90.0165 80.2842 89.7016 80.0732L82.3994 75.181C82.0781 74.9657 81.9925 74.5315 82.2086 74.2122L82.9271 73.1501Z" fill="#FF00E5"/>
<path d="M79.1103 77.9275C79.3815 77.6563 79.8221 77.6552 80.0959 77.9251L86.3706 84.1095C86.6507 84.3855 86.6478 84.8369 86.3644 85.108L85.4209 86.0103C85.1476 86.2717 84.7146 86.2674 84.4452 86.0007L78.2059 79.8221C77.9313 79.5502 77.9297 79.1082 78.2022 78.8356L79.1103 77.9275Z" fill="#FF00E5"/>
<path d="M74.4509 81.9014C74.7689 81.6861 75.2023 81.7683 75.4201 82.0852L80.4051 89.3392C80.6274 89.6628 80.5391 90.1049 80.2095 90.3175L79.1111 91.026C78.7929 91.2313 78.3679 91.1453 78.1539 90.8323L73.2026 83.5907C72.9848 83.2722 73.067 82.8384 73.3861 82.6223L74.4509 81.9014Z" fill="#FF00E5"/>
<path d="M69.1221 84.9242C69.4756 84.7725 69.8861 84.9351 70.0399 85.2877L73.5552 93.3493C73.7118 93.7086 73.5413 94.1255 73.1777 94.272L71.9642 94.7609C71.6124 94.9027 71.2108 94.7379 71.06 94.3899L67.5755 86.3468C67.4223 85.9933 67.5852 85.5835 67.9393 85.4316L69.1221 84.9242Z" fill="#FF00E5"/>
<path d="M63.3149 86.8893C63.6912 86.8069 64.0641 87.0442 64.1481 87.4197L66.0667 95.9978C66.1522 96.3798 65.9058 96.7563 65.5212 96.8316L64.2368 97.0832C63.864 97.1562 63.5004 96.9184 63.4184 96.548L61.5264 87.9938C61.4433 87.6182 61.6808 87.2472 62.0571 87.1648L63.3149 86.8893Z" fill="#FF00E5"/>
<path d="M57.2367 87.7248C57.6223 87.7147 57.9439 88.0184 57.955 88.403L58.2076 97.1879C58.2188 97.5787 57.9057 97.9014 57.5138 97.9029L56.2052 97.9081C55.8249 97.9095 55.5125 97.6072 55.5025 97.2279L55.2714 88.4716C55.2613 88.0875 55.5647 87.7685 55.9498 87.7584L57.2367 87.7248Z" fill="#FF00E5"/>
<path d="M51.1126 87.4C51.4936 87.4628 51.7521 87.8217 51.6898 88.2015L50.267 96.876C50.2038 97.2614 49.8352 97.5188 49.45 97.4465L48.1649 97.2053C47.7907 97.135 47.5411 96.7791 47.6034 96.4048L49.0419 87.7624C49.1049 87.3838 49.4633 87.1281 49.8433 87.1908L51.1126 87.4Z" fill="#FF00E5"/>
<path d="M45.1578 85.9282C45.5203 86.0617 45.7061 86.4629 45.5728 86.8239L42.5258 95.0745C42.3905 95.4407 41.9796 95.6238 41.615 95.4802L40.3998 95.0016C40.0454 94.862 39.8676 94.4655 40 94.1098L43.0564 85.8937C43.1902 85.5341 43.5906 85.3509 43.952 85.484L45.1578 85.9282Z" fill="#FF00E5"/>
<path d="M39.5929 83.3619C39.9236 83.5613 40.03 83.9901 39.8306 84.3193L35.2691 91.8476C35.0668 92.1816 34.6283 92.2837 34.2973 92.0739L33.1958 91.3755C32.8743 91.1717 32.7749 90.749 32.9723 90.4249L37.5364 82.9322C37.7361 82.6044 38.1644 82.5001 38.4941 82.699L39.5929 83.3619Z" fill="#FF00E5"/>
<path d="M34.6162 79.7935C34.903 80.0516 34.9262 80.4923 34.668 80.7777L28.7567 87.3115C28.4945 87.6013 28.0441 87.6187 27.7588 87.3501L26.8105 86.4574C26.5336 86.1967 26.5161 85.7633 26.7713 85.4826L32.6785 78.9842C32.9368 78.7 33.3776 78.6785 33.6638 78.9362L34.6162 79.7935Z" fill="#FF00E5"/>
<path d="M30.4093 75.3532C30.6417 75.6606 30.581 76.0971 30.2735 76.3285L23.2261 81.6312C22.9134 81.8665 22.4672 81.7986 22.2379 81.4807L21.4769 80.426C21.2546 80.118 21.3196 79.6897 21.6233 79.4624L28.6599 74.1936C28.9678 73.9631 29.4052 74.0253 29.6376 74.3325L30.4093 75.3532Z" fill="#FF00E5"/>
<path d="M27.1213 70.2012C27.2909 70.5466 27.1485 70.9631 26.803 71.1321L18.8743 75.0119C18.5222 75.1842 18.0964 75.0331 17.9315 74.6775L17.3849 73.4988C17.2253 73.1546 17.3703 72.747 17.7113 72.5812L25.6231 68.7327C25.9694 68.5642 26.3878 68.708 26.5577 69.0538L27.1213 70.2012Z" fill="#FF00E5"/>
<path d="M24.8743 64.5228C24.9751 64.8935 24.7564 65.275 24.3853 65.3759L15.8621 67.6924C15.4833 67.7953 15.0932 67.5664 14.9988 67.1858L14.6863 65.9254C14.5951 65.5578 14.8147 65.1855 15.1808 65.0869L23.6813 62.7981C24.0538 62.6978 24.438 62.9181 24.5391 63.2899L24.8743 64.5228Z" fill="#FF00E5"/>
<path d="M23.7473 58.5239C23.7758 58.9066 23.4888 59.2394 23.1054 59.2685L14.2961 59.9379C13.9042 59.9677 13.5641 59.6691 13.5438 59.2774L13.4765 57.9805C13.457 57.6028 13.743 57.2792 14.121 57.2514L22.9028 56.6048C23.2881 56.5765 23.624 56.8655 23.6526 57.2498L23.7473 58.5239Z" fill="#FF00E5"/>
<path d="M23.7789 52.4209C23.7341 52.8016 23.3893 53.0739 23.0074 53.0303L14.2306 52.0286C13.8397 51.984 13.562 51.6265 13.6165 51.2381L13.7973 49.9513C13.8498 49.5771 14.192 49.3137 14.5685 49.3575L23.3138 50.3764C23.6979 50.4212 23.9733 50.7685 23.9283 51.1513L23.7789 52.4209Z" fill="#FF00E5"/>
<path d="M24.9731 46.4345C24.8568 46.7995 24.4666 47.0016 24.0997 46.8868L15.6729 44.2506C15.2972 44.1331 15.0921 43.7296 15.2195 43.3586L15.642 42.1283C15.7646 41.7711 16.1506 41.5772 16.512 41.6912L24.9048 44.3385C25.2738 44.4549 25.4785 44.8479 25.3614 45.2152L24.9731 46.4345Z" fill="#FF00E5"/>
<path d="M27.2834 40.7818C27.0999 41.1182 26.6782 41.2429 26.3396 41.0609L18.5671 36.8857C18.2204 36.6995 18.0955 36.2648 18.291 35.9248L18.9402 34.7955C19.1285 34.468 19.5445 34.3506 19.878 34.5307L27.6148 38.7103C27.9552 38.8942 28.0817 39.3185 27.8971 39.6569L27.2834 40.7818Z" fill="#FF00E5"/>
<path d="M30.6271 35.6641C30.3831 35.9597 29.9449 36.0026 29.6467 35.7599L22.8093 30.1969C22.5042 29.9486 22.464 29.4987 22.7204 29.2019L23.5732 28.2146C23.8203 27.9286 24.2515 27.8918 24.545 28.1318L31.3465 33.6924C31.6458 33.9371 31.6896 34.3772 31.4441 34.6745L30.6271 35.6641Z" fill="#FF00E5"/>
<path d="M34.8842 31.2694C34.5883 31.5137 34.1493 31.473 33.9024 31.1783L28.247 24.4285C27.9946 24.1274 28.0405 23.6785 28.3483 23.4356L29.374 22.6265C29.6711 22.3921 30.102 22.4374 30.3448 22.7286L35.9655 29.4692C36.2128 29.7658 36.1723 30.2057 35.8751 30.4511L34.8842 31.2694Z" fill="#FF00E5"/>
<path d="M39.9011 27.7554C39.5638 27.9398 39.1399 27.8168 38.9533 27.4805L34.6839 19.788C34.4935 19.4449 34.6235 19.0135 34.9717 18.8331L36.1329 18.2316C36.4694 18.0573 36.8846 18.1833 37.0678 18.5153L41.3049 26.1923C41.4913 26.5299 41.3681 26.9536 41.03 27.1384L39.9011 27.7554Z" fill="#FF00E5"/>
<path d="M63.3988 62.2603C59.7591 66.4555 53.39 66.921 49.1729 63.2978C44.9558 59.6747 44.4895 53.3365 48.1293 49.1413C51.769 44.9461 58.1381 44.4806 62.3552 48.1038C66.5723 51.7269 67.0386 58.0651 63.3988 62.2603Z" stroke="#00FFE0" stroke-width="2"/>
</svg>
