<svg width="82" height="82" viewBox="0 0 82 82" fill="none" xmlns="http://www.w3.org/2000/svg">
<path d="M33.6075 18.9851C33.2409 19.1027 32.8474 18.9018 32.728 18.5361L30.849 12.7825C30.7274 12.4101 30.9368 12.0116 31.3126 11.9002L31.8706 11.7348C32.2345 11.6269 32.6189 11.8291 32.7358 12.19L34.5971 17.9357C34.7157 18.3019 34.5146 18.6941 34.1478 18.8118L33.6075 18.9851Z" fill="#FF00E5"/>
<path d="M37.9827 17.9907C37.6 18.0372 37.2512 17.7655 37.2035 17.3837L36.4526 11.3798C36.4041 10.9917 36.6851 10.6405 37.0752 10.6019L37.6542 10.5446C38.0324 10.5071 38.372 10.7784 38.4182 11.155L39.1532 17.1477C39.2 17.5293 38.9283 17.8759 38.5459 17.9223L37.9827 17.9907Z" fill="#FF00E5"/>
<path d="M42.4674 17.8381C42.0823 17.8117 41.7909 17.4789 41.8167 17.0949L42.2213 11.0575C42.2474 10.6677 42.5899 10.3763 42.9801 10.4118L43.5589 10.4645C43.9379 10.499 44.2202 10.8297 44.194 11.2082L43.776 17.2317C43.7494 17.6148 43.417 17.9034 43.0328 17.877L42.4674 17.8381Z" fill="#FF00E5"/>
<path d="M46.8997 18.5336C46.5263 18.435 46.3031 18.0531 46.4014 17.681L47.947 11.8282C48.0467 11.4506 48.4383 11.2294 48.8148 11.3378L49.3724 11.4983C49.7383 11.6037 49.953 11.9817 49.8552 12.3483L48.299 18.1851C48.2002 18.5559 47.819 18.7763 47.4467 18.678L46.8997 18.5336Z" fill="#FF00E5"/>
<path d="M51.1193 20.0511C50.7711 19.8839 50.6243 19.467 50.7915 19.1203L53.4227 13.6635C53.5923 13.3118 54.0189 13.1686 54.3682 13.3461L54.8844 13.6083C55.2239 13.7808 55.3631 14.1923 55.1975 14.5337L52.559 19.9727C52.3915 20.3179 51.9752 20.4623 51.6281 20.2956L51.1193 20.0511Z" fill="#FF00E5"/>
<path d="M54.9742 22.3355C54.6641 22.1056 54.599 21.6689 54.8289 21.3603L58.4507 16.497C58.6841 16.1837 59.1305 16.1236 59.4401 16.3639L59.8964 16.7181C60.197 16.9514 60.2557 17.3814 60.0283 17.6852L56.4026 22.5297C56.1726 22.837 55.7361 22.9002 55.4267 22.6709L54.9742 22.3355Z" fill="#FF00E5"/>
<path d="M58.3246 25.3046C58.0638 25.0206 58.0827 24.58 58.3668 24.3204L62.8486 20.2267C63.1373 19.963 63.5877 19.9883 63.8462 20.2828L64.2264 20.7161C64.4772 21.0018 64.4533 21.4346 64.1726 21.6898L59.6906 25.7643C59.4062 26.0228 58.9651 26.0024 58.7047 25.7187L58.3246 25.3046Z" fill="#FF00E5"/>
<path d="M61.0497 28.8504C60.8477 28.5225 60.9498 28.094 61.2777 27.8929L66.4574 24.717C66.7913 24.5123 67.2293 24.6223 67.4273 24.9606L67.7181 25.4572C67.9099 25.7849 67.8044 26.2047 67.4806 26.4022L62.3044 29.5592C61.9758 29.7596 61.546 29.6562 61.3439 29.3282L61.0497 28.8504Z" fill="#FF00E5"/>
<path d="M63.05 32.845C62.9142 32.4853 63.0956 32.0845 63.4555 31.9489L69.1457 29.8058C69.5127 29.6676 69.9226 29.8584 70.0528 30.2282L70.2439 30.7706C70.3698 31.1281 70.1867 31.5198 69.8315 31.6526L64.1484 33.7778C63.7873 33.9128 63.3842 33.73 63.2481 33.3695L63.05 32.845Z" fill="#FF00E5"/>
<path d="M64.2571 37.1433C64.1922 36.7649 64.4461 36.4061 64.8251 36.3408L70.8197 35.3081C71.2068 35.2415 71.5736 35.5064 71.6312 35.8943L71.7157 36.4631C71.7713 36.8374 71.5173 37.1869 71.1436 37.2504L65.1593 38.2668C64.7787 38.3315 64.417 38.0757 64.3518 37.6958L64.2571 37.1433Z" fill="#FF00E5"/>
<path d="M64.6229 41.5925C64.6312 41.2091 64.9484 40.9052 65.3329 40.9125L71.415 41.0274C71.8082 41.0349 72.1185 41.3644 72.1013 41.7562L72.0761 42.3312C72.0595 42.7088 71.744 43.0037 71.365 42.9956L65.2961 42.8667C64.9097 42.8585 64.6026 42.5389 64.6109 42.1535L64.6229 41.5925Z" fill="#FF00E5"/>
<path d="M64.1373 46.0293C64.2182 45.6547 64.5873 45.4165 64.9635 45.496L70.913 46.7542C71.2981 46.8356 71.5406 47.2178 71.4492 47.5993L71.3149 48.1598C71.2269 48.5272 70.8611 48.7568 70.4905 48.6776L64.5566 47.4082C64.1783 47.3272 63.9372 46.9554 64.0186 46.5786L64.1373 46.0293Z" fill="#FF00E5"/>
<path d="M62.8149 50.2961C62.9655 49.9439 63.3733 49.7798 63.7277 49.9288L69.3296 52.2843C69.6925 52.4369 69.8583 52.8579 69.6961 53.215L69.4572 53.741C69.301 54.0848 68.8982 54.2412 68.5492 54.0935L62.9648 51.7298C62.6085 51.579 62.4421 51.1685 62.5936 50.814L62.8149 50.2961Z" fill="#FF00E5"/>
<path d="M60.7074 54.2358C60.9221 53.9184 61.354 53.8342 61.6739 54.0475L66.726 57.415C67.0534 57.6333 67.1363 58.0776 66.9093 58.3975L66.5743 58.8696C66.3556 59.1777 65.9301 59.2552 65.6152 59.0442L60.5819 55.6721C60.2606 55.4568 60.1751 55.0226 60.3911 54.7033L60.7074 54.2358Z" fill="#FF00E5"/>
<path d="M57.888 57.7081C58.1592 57.4369 58.5997 57.4358 58.8735 57.7057L63.1934 61.9634C63.4734 62.2393 63.4705 62.6908 63.1871 62.9619L62.7678 63.3629C62.4945 63.6243 62.0615 63.62 61.7921 63.3532L57.4916 59.0946C57.217 58.8227 57.2154 58.3807 57.488 58.1081L57.888 57.7081Z" fill="#FF00E5"/>
<path d="M54.4568 60.5879C54.7748 60.3726 55.2082 60.4548 55.426 60.7718L58.8578 65.7656C59.0802 66.0892 58.9918 66.5313 58.6623 66.7439L58.1739 67.059C57.8556 67.2643 57.4307 67.1783 57.2167 66.8653L53.804 61.8741C53.5862 61.5555 53.6684 61.1217 53.9875 60.9057L54.4568 60.5879Z" fill="#FF00E5"/>
<path d="M50.5414 62.7682C50.8949 62.6166 51.3055 62.7792 51.4592 63.1318L53.8792 68.6816C54.0359 69.0409 53.8654 69.4578 53.5018 69.6043L52.9621 69.8217C52.6103 69.9635 52.2087 69.7987 52.058 69.4507L49.6563 63.9071C49.5031 63.5536 49.666 63.1438 50.0201 62.9919L50.5414 62.7682Z" fill="#FF00E5"/>
<path d="M46.2823 64.1721C46.6586 64.0897 47.0315 64.3271 47.1155 64.7025L48.4363 70.608C48.5218 70.99 48.2754 71.3665 47.8908 71.4418L47.3197 71.5537C46.9469 71.6267 46.5833 71.3889 46.5013 71.0185L45.1973 65.1226C45.1142 64.747 45.3517 64.3759 45.728 64.2935L46.2823 64.1721Z" fill="#FF00E5"/>
<path d="M41.8315 64.7481C42.2171 64.738 42.5387 65.0417 42.5497 65.4264L42.7237 71.4743C42.7349 71.8651 42.4217 72.1878 42.0298 72.1894L41.4483 72.1916C41.0679 72.1931 40.7555 71.8908 40.7455 71.5115L40.5862 65.4761C40.5761 65.092 40.8796 64.773 41.2646 64.7629L41.8315 64.7481Z" fill="#FF00E5"/>
<path d="M37.3539 64.4751C37.7349 64.5379 37.9933 64.8968 37.931 65.2766L36.9515 71.2488C36.8883 71.6342 36.5196 71.8917 36.1345 71.8194L35.5637 71.7122C35.1896 71.642 34.9399 71.2861 35.0022 70.9118L35.9937 64.9547C36.0568 64.576 36.4152 64.3204 36.7951 64.383L37.3539 64.4751Z" fill="#FF00E5"/>
<path d="M33.0069 63.3641C33.3693 63.4976 33.5552 63.8988 33.4218 64.2598L31.324 69.9404C31.1887 70.3066 30.7778 70.4897 30.4132 70.3461L29.8739 70.1337C29.5196 69.9942 29.3418 69.5976 29.4741 69.242L31.5809 63.5784C31.7147 63.2188 32.1152 63.0356 32.4766 63.1687L33.0069 63.3641Z" fill="#FF00E5"/>
<path d="M28.9516 61.4547C29.2823 61.6542 29.3887 62.083 29.1893 62.4121L26.0485 67.5957C25.8462 67.9297 25.4076 68.0318 25.0767 67.822L24.5883 67.5123C24.2668 67.3085 24.1674 66.8858 24.3648 66.5617L27.5111 61.3966C27.7107 61.0688 28.139 60.9646 28.4688 61.1635L28.9516 61.4547Z" fill="#FF00E5"/>
<path d="M25.3324 58.8159C25.6192 59.0741 25.6424 59.5147 25.3842 59.8001L21.314 64.299C21.0517 64.5889 20.6013 64.6063 20.316 64.3377L19.8959 63.9422C19.6189 63.6814 19.6015 63.2481 19.8567 62.9673L23.9289 58.4875C24.1873 58.2033 24.628 58.1818 24.9143 58.4395L25.3324 58.8159Z" fill="#FF00E5"/>
<path d="M22.2815 55.5439C22.514 55.8513 22.4532 56.2878 22.1457 56.5192L17.293 60.1706C16.9803 60.4059 16.5341 60.3379 16.3048 60.0201L15.9678 59.553C15.7455 59.2449 15.8105 58.8167 16.1142 58.5893L20.9652 54.9571C21.2731 54.7266 21.7105 54.7887 21.9429 55.096L22.2815 55.5439Z" fill="#FF00E5"/>
<path d="M19.9069 51.7568C20.0765 52.1021 19.9341 52.5187 19.5886 52.6877L14.1289 55.3593C13.7769 55.5316 13.351 55.3805 13.1861 55.0249L12.9441 54.503C12.7846 54.1589 12.9296 53.7513 13.2706 53.5854L18.725 50.9323C19.0713 50.7638 19.4897 50.9075 19.6596 51.2534L19.9069 51.7568Z" fill="#FF00E5"/>
<path d="M18.2967 47.5907C18.3975 47.9615 18.1788 48.343 17.8077 48.4439L11.9387 50.0389C11.5599 50.1419 11.1698 49.913 11.0754 49.5324L10.937 48.9743C10.8459 48.6067 11.0654 48.2345 11.4315 48.1359L17.2918 46.5579C17.6643 46.4576 18.0485 46.6779 18.1496 47.0498L18.2967 47.5907Z" fill="#FF00E5"/>
<path d="M17.5074 43.1968C17.5359 43.5795 17.2489 43.9123 16.8655 43.9414L10.7997 44.4023C10.4078 44.4321 10.0676 44.1335 10.0473 43.7419L10.0175 43.1674C9.99795 42.7897 10.284 42.4661 10.662 42.4383L16.7161 41.9926C17.1013 41.9642 17.4373 42.2532 17.4658 42.6376L17.5074 43.1968Z" fill="#FF00E5"/>
<path d="M17.5661 38.7334C17.5213 39.1141 17.1765 39.3864 16.7945 39.3428L10.7513 38.6531C10.3604 38.6085 10.0827 38.251 10.1372 37.8626L10.2173 37.2922C10.2699 36.918 10.612 36.6546 10.9885 36.6985L17.0172 37.4009C17.4013 37.4456 17.6767 37.7929 17.6317 38.1758L17.5661 38.7334Z" fill="#FF00E5"/>
<path d="M18.4743 34.362C18.358 34.727 17.9678 34.9291 17.6009 34.8143L11.7989 32.9992C11.4232 32.8817 11.2181 32.4782 11.3455 32.1072L11.5329 31.5615C11.6556 31.2043 12.0415 31.0104 12.403 31.1244L18.1884 32.9492C18.5573 33.0656 18.762 33.4586 18.645 33.8259L18.4743 34.362Z" fill="#FF00E5"/>
<path d="M20.1969 30.2409C20.0135 30.5772 19.5918 30.7019 19.2531 30.52L13.9019 27.6454C13.5551 27.4592 13.4302 27.0245 13.6257 26.6845L13.914 26.1831C14.1022 25.8557 14.5182 25.7382 14.8517 25.9183L20.1847 28.7993C20.5251 28.9832 20.6516 29.4075 20.467 29.746L20.1969 30.2409Z" fill="#FF00E5"/>
<path d="M22.6723 26.517C22.4283 26.8126 21.9901 26.8554 21.6919 26.6128L16.9846 22.7828C16.6795 22.5346 16.6393 22.0846 16.8957 21.7878L17.2746 21.3492C17.5217 21.0632 17.9529 21.0264 18.2463 21.2663L22.9344 25.0991C23.2338 25.3438 23.2775 25.7839 23.0321 26.0812L22.6723 26.517Z" fill="#FF00E5"/>
<path d="M25.8116 23.327C25.5157 23.5714 25.0768 23.5307 24.8298 23.2359L20.9364 18.5892C20.684 18.288 20.7299 17.8392 21.0378 17.5963L21.4937 17.2365C21.7908 17.0022 22.2217 17.0475 22.4645 17.3387L26.3386 21.9846C26.5859 22.2812 26.5454 22.7211 26.2482 22.9665L25.8116 23.327Z" fill="#FF00E5"/>
<path d="M29.5016 20.7857C29.1644 20.97 28.7405 20.8471 28.5538 20.5108L25.6146 15.215C25.4242 14.872 25.5543 14.4405 25.9024 14.2602L26.4189 13.9927C26.7554 13.8184 27.1705 13.9443 27.3538 14.2763L30.2741 19.5677C30.4605 19.9053 30.3373 20.3289 29.9992 20.5137L29.5016 20.7857Z" fill="#FF00E5"/>
<path d="M46.3228 45.9407C43.7575 48.8974 39.2685 49.2257 36.296 46.6719C33.3235 44.118 32.9951 39.6507 35.5603 36.694C38.1255 33.7373 42.6146 33.4091 45.587 35.9629C48.5595 38.5168 48.888 42.984 46.3228 45.9407Z" stroke="#00FFE0" stroke-width="2"/>
</svg>
