<svg width="160" height="158" viewBox="0 0 160 158" fill="none" xmlns="http://www.w3.org/2000/svg">
<path d="M65.0177 36.1347C64.6512 36.2523 64.2576 36.0514 64.1382 35.6857L60.0854 23.2753C59.9638 22.903 60.1732 22.5045 60.549 22.3931L62.888 21.6997C63.252 21.5918 63.6363 21.794 63.7532 22.1548L67.7599 34.523C67.8785 34.8893 67.6774 35.2815 67.3106 35.3991L65.0177 36.1347Z" fill="#FF00E5"/>
<path d="M73.4706 34.0866C73.0879 34.1331 72.7391 33.8613 72.6913 33.4795L71.0719 20.5298C71.0234 20.1417 71.3044 19.7905 71.6944 19.7519L74.1227 19.5116C74.501 19.4741 74.8406 19.7454 74.8867 20.122L76.4689 33.0216C76.5157 33.4032 76.244 33.7497 75.8616 33.7962L73.4706 34.0866Z" fill="#FF00E5"/>
<path d="M82.1589 33.6669C81.7739 33.6405 81.4825 33.3077 81.5083 32.9237L82.3809 19.9024C82.407 19.5126 82.7495 19.2212 83.1397 19.2567L85.5692 19.478C85.9482 19.5125 86.2305 19.8431 86.2043 20.2216L85.3045 33.1867C85.278 33.5698 84.9455 33.8584 84.5613 33.832L82.1589 33.6669Z" fill="#FF00E5"/>
<path d="M90.7697 34.8922C90.3963 34.7936 90.1731 34.4118 90.2714 34.0397L93.6048 21.4173C93.7045 21.0398 94.0961 20.8185 94.4726 20.927L96.8153 21.6015C97.1813 21.7069 97.396 22.0849 97.2982 22.4515L93.9489 35.0137C93.85 35.3845 93.4689 35.6049 93.0965 35.5066L90.7697 34.8922Z" fill="#FF00E5"/>
<path d="M98.9915 37.7171C98.6433 37.5498 98.4965 37.1329 98.6637 36.7862L104.338 25.0189C104.507 24.6672 104.934 24.524 105.283 24.7015L107.455 25.8047C107.794 25.9772 107.933 26.3887 107.768 26.7301L102.089 38.4352C101.922 38.7805 101.506 38.9249 101.159 38.7581L98.9915 37.7171Z" fill="#FF00E5"/>
<path d="M106.528 42.0385C106.218 41.8086 106.153 41.3719 106.383 41.0632L114.193 30.5765C114.426 30.2632 114.872 30.2031 115.182 30.4434L117.104 31.9351C117.404 32.1685 117.463 32.5985 117.236 32.9022L109.433 43.3271C109.203 43.6345 108.767 43.6977 108.457 43.4684L106.528 42.0385Z" fill="#FF00E5"/>
<path d="M113.106 47.7015C112.845 47.4174 112.864 46.9768 113.148 46.7173L122.812 37.8905C123.101 37.6268 123.551 37.6521 123.809 37.9466L125.412 39.7727C125.663 40.0585 125.639 40.4912 125.358 40.7464L115.714 49.514C115.43 49.7726 114.989 49.7521 114.728 49.4684L113.106 47.7015Z" fill="#FF00E5"/>
<path d="M118.488 54.4999C118.286 54.172 118.388 53.7436 118.716 53.5425L129.884 46.6949C130.218 46.4902 130.656 46.6002 130.854 46.9384L132.08 49.033C132.272 49.3607 132.167 49.7805 131.843 49.978L120.705 56.771C120.376 56.9714 119.947 56.868 119.745 56.54L118.488 54.4999Z" fill="#FF00E5"/>
<path d="M122.478 62.1888C122.342 61.8291 122.523 61.4283 122.883 61.2927L135.152 56.6721C135.519 56.5339 135.929 56.7247 136.059 57.0945L136.865 59.3821C136.991 59.7396 136.807 60.1313 136.452 60.2641L124.224 64.8369C123.863 64.9719 123.46 64.7891 123.324 64.4286L122.478 62.1888Z" fill="#FF00E5"/>
<path d="M124.938 70.4887C124.873 70.1102 125.127 69.7515 125.506 69.6862L138.431 67.4596C138.818 67.3929 139.185 67.6579 139.243 68.0458L139.599 70.444C139.654 70.8184 139.4 71.1679 139.027 71.2314L126.15 73.4185C125.769 73.4831 125.408 73.2273 125.342 72.8475L124.938 70.4887Z" fill="#FF00E5"/>
<path d="M125.771 79.1043C125.779 78.721 126.097 78.417 126.481 78.4243L139.596 78.6722C139.989 78.6796 140.299 79.0091 140.282 79.401L140.176 81.8235C140.159 82.2012 139.843 82.496 139.464 82.4879L126.405 82.2105C126.019 82.2022 125.711 81.8826 125.72 81.4973L125.771 79.1043Z" fill="#FF00E5"/>
<path d="M124.953 87.7192C125.034 87.3447 125.403 87.1064 125.779 87.1859L138.609 89.899C138.994 89.9804 139.236 90.3627 139.145 90.7441L138.58 93.1036C138.492 93.4709 138.126 93.7006 137.755 93.6213L124.985 90.8895C124.607 90.8086 124.366 90.4368 124.447 90.06L124.953 87.7192Z" fill="#FF00E5"/>
<path d="M122.508 96.0274C122.659 95.6752 123.066 95.5111 123.421 95.6601L135.502 100.74C135.865 100.893 136.03 101.314 135.868 101.671L134.864 103.882C134.708 104.226 134.305 104.382 133.956 104.234L121.937 99.1473C121.581 98.9965 121.415 98.586 121.566 98.2315L122.508 96.0274Z" fill="#FF00E5"/>
<path d="M118.532 103.723C118.747 103.405 119.179 103.321 119.498 103.534L130.394 110.797C130.722 111.015 130.805 111.46 130.578 111.78L129.171 113.762C128.952 114.071 128.526 114.148 128.212 113.937L117.378 106.679C117.057 106.464 116.971 106.029 117.187 105.71L118.532 103.723Z" fill="#FF00E5"/>
<path d="M113.163 110.531C113.434 110.26 113.875 110.259 114.149 110.529L123.466 119.712C123.746 119.988 123.743 120.439 123.46 120.71L121.7 122.393C121.427 122.654 120.994 122.65 120.725 122.383L111.468 113.217C111.193 112.945 111.192 112.503 111.464 112.23L113.163 110.531Z" fill="#FF00E5"/>
<path d="M106.592 116.208C106.91 115.993 107.343 116.075 107.561 116.392L114.963 127.163C115.186 127.487 115.097 127.929 114.768 128.142L112.72 129.463C112.402 129.668 111.977 129.582 111.763 129.269L104.417 118.525C104.199 118.206 104.281 117.773 104.6 117.556L106.592 116.208Z" fill="#FF00E5"/>
<path d="M99.0632 120.542C99.4167 120.39 99.8273 120.553 99.981 120.905L105.201 132.876C105.358 133.236 105.187 133.652 104.823 133.799L102.561 134.71C102.209 134.852 101.808 134.687 101.657 134.339L96.4872 122.406C96.334 122.053 96.4969 121.643 96.851 121.491L99.0632 120.542Z" fill="#FF00E5"/>
<path d="M90.8468 123.381C91.2231 123.298 91.596 123.535 91.68 123.911L94.529 136.649C94.6144 137.031 94.3681 137.407 93.9834 137.482L91.5889 137.951C91.2161 138.024 90.8525 137.787 90.7705 137.416L87.9634 124.725C87.8803 124.349 88.1178 123.978 88.4941 123.896L90.8468 123.381Z" fill="#FF00E5"/>
<path d="M82.2358 124.62C82.6214 124.61 82.943 124.913 82.9541 125.298L83.3292 138.343C83.3404 138.733 83.0273 139.056 82.6354 139.058L80.1954 139.067C79.8151 139.069 79.5027 138.766 79.4927 138.387L79.1499 125.396C79.1397 125.012 79.4432 124.693 79.8282 124.683L82.2358 124.62Z" fill="#FF00E5"/>
<path d="M73.5492 124.215C73.9302 124.277 74.1886 124.636 74.1263 125.016L72.0138 137.896C71.9506 138.282 71.5819 138.539 71.1968 138.467L68.7998 138.017C68.4257 137.947 68.176 137.591 68.2383 137.216L70.3724 124.395C70.4355 124.016 70.7939 123.76 71.1738 123.823L73.5492 124.215Z" fill="#FF00E5"/>
<path d="M65.092 122.181C65.4545 122.315 65.6403 122.716 65.507 123.077L60.9828 135.327C60.8475 135.694 60.4366 135.877 60.0721 135.733L57.8048 134.84C57.4504 134.7 57.2727 134.304 57.405 133.948L61.9393 121.759C62.073 121.4 62.4735 121.217 62.8349 121.35L65.092 122.181Z" fill="#FF00E5"/>
<path d="M57.1777 118.592C57.5083 118.792 57.6148 119.221 57.4153 119.55L50.6427 130.727C50.4404 131.061 50.0018 131.164 49.6709 130.954L47.6152 129.65C47.2936 129.447 47.1942 129.024 47.3916 128.7L54.1625 117.584C54.3622 117.257 54.7904 117.152 55.1202 117.351L57.1777 118.592Z" fill="#FF00E5"/>
<path d="M50.088 113.577C50.3748 113.835 50.398 114.276 50.1398 114.561L41.3634 124.262C41.1011 124.552 40.6507 124.569 40.3654 124.301L38.5952 122.634C38.3183 122.374 38.3008 121.94 38.556 121.66L47.319 112.02C47.5773 111.735 48.0181 111.714 48.3043 111.972L50.088 113.577Z" fill="#FF00E5"/>
<path d="M44.082 107.319C44.3145 107.626 44.2537 108.063 43.9462 108.294L33.4831 116.167C33.1704 116.402 32.7242 116.334 32.4949 116.016L31.074 114.047C30.8516 113.739 30.9167 113.311 31.2203 113.083L41.6586 105.268C41.9665 105.037 42.4039 105.099 42.6363 105.407L44.082 107.319Z" fill="#FF00E5"/>
<path d="M39.3725 100.042C39.5421 100.388 39.3998 100.804 39.0542 100.973L27.2827 106.734C26.9307 106.906 26.5048 106.755 26.3399 106.399L25.3193 104.198C25.1597 103.854 25.3047 103.446 25.6457 103.281L37.382 97.5717C37.7283 97.4033 38.1467 97.547 38.3166 97.8928L39.3725 100.042Z" fill="#FF00E5"/>
<path d="M36.1345 92.0103C36.2353 92.3811 36.0166 92.7626 35.6455 92.8634L22.9913 96.3026C22.6126 96.4055 22.2224 96.1766 22.1281 95.796L21.5444 93.4425C21.4533 93.0749 21.6728 92.7026 22.0389 92.604L34.6487 89.2087C35.0212 89.1084 35.4053 89.3287 35.5065 89.7006L36.1345 92.0103Z" fill="#FF00E5"/>
<path d="M34.4819 83.5136C34.5103 83.8962 34.2234 84.229 33.84 84.2582L20.7609 85.252C20.369 85.2818 20.0288 84.9832 20.0085 84.5915L19.883 82.1702C19.8634 81.7925 20.1495 81.4689 20.5275 81.441L33.5547 80.4819C33.9399 80.4536 34.2758 80.7426 34.3044 81.1269L34.4819 83.5136Z" fill="#FF00E5"/>
<path d="M34.4713 74.8587C34.4265 75.2394 34.0817 75.5117 33.6998 75.4681L20.6687 73.9809C20.2778 73.9363 20.0001 73.5787 20.0546 73.1903L20.392 70.7884C20.4445 70.4143 20.7867 70.1508 21.1631 70.1947L34.1366 71.7062C34.5207 71.751 34.7961 72.0983 34.751 72.4811L34.4713 74.8587Z" fill="#FF00E5"/>
<path d="M36.1105 66.3589C35.9942 66.7239 35.604 66.926 35.2371 66.8113L22.7252 62.897C22.3495 62.7795 22.1444 62.376 22.2718 62.005L23.0601 59.7093C23.1828 59.3521 23.5688 59.1582 23.9302 59.2722L36.3809 63.1994C36.7499 63.3158 36.9546 63.7088 36.8376 64.0762L36.1105 66.3589Z" fill="#FF00E5"/>
<path d="M39.3355 58.3225C39.152 58.6588 38.7303 58.7835 38.3916 58.6016L26.851 52.4021C26.5042 52.2159 26.3793 51.7812 26.5748 51.4412L27.7859 49.3346C27.9742 49.0071 28.3902 48.8897 28.7237 49.0698L40.2017 55.2705C40.5421 55.4544 40.6686 55.8787 40.484 56.2171L39.3355 58.3225Z" fill="#FF00E5"/>
<path d="M44.0306 51.0355C43.7866 51.3311 43.3484 51.3739 43.0502 51.1313L32.8977 42.8709C32.5926 42.6227 32.5524 42.1727 32.8088 41.8759L34.3991 40.0349C34.6462 39.7489 35.0774 39.7121 35.3708 39.952L45.4617 48.2018C45.761 48.4465 45.8047 48.8866 45.5593 49.1839L44.0306 51.0355Z" fill="#FF00E5"/>
<path d="M50.0274 44.7656C49.7314 45.01 49.2925 44.9693 49.0456 44.6745L40.6478 34.6519C40.3955 34.3507 40.4413 33.9019 40.7492 33.659L42.6614 32.1503C42.9585 31.916 43.3894 31.9613 43.6323 32.2525L51.9714 42.2531C52.2187 42.5496 52.1782 42.9895 51.881 43.2349L50.0274 44.7656Z" fill="#FF00E5"/>
<path d="M57.1094 39.738C56.7721 39.9223 56.3482 39.7994 56.1616 39.4631L49.8218 28.0403C49.6314 27.6972 49.7615 27.2658 50.1096 27.0855L52.2745 25.9641C52.611 25.7898 53.0262 25.9157 53.2094 26.2477L59.4958 37.6378C59.6821 37.9754 59.559 38.3991 59.2209 38.5839L57.1094 39.738Z" fill="#FF00E5"/>
<path d="M90.9982 88.7951C85.6861 94.9179 76.391 95.5969 70.2369 90.3095C64.0828 85.0221 63.4019 75.7722 68.714 69.6494C74.0262 63.5266 83.3213 62.8476 89.4754 68.135C95.6295 73.4224 96.3104 82.6723 90.9982 88.7951Z" stroke="#00FFE0" stroke-width="2"/>
</svg>
