<svg width="2087" height="113" viewBox="0 0 2087 113" fill="none" xmlns="http://www.w3.org/2000/svg">
<path d="M785.825 84C788.128 84 790.362 84.6052 792.16 85.716L805.412 93.9031L818.665 102.09C820.463 103.201 822.697 103.806 824.999 103.806L1004 103.806M526.07 104C528.373 104 530.607 103.395 532.405 102.284L558.909 85.9098C560.707 84.7989 562.941 84.1937 565.244 84.1937L735 84.1937M6 104C8.30268 104 10.5368 103.395 12.3349 102.284L38.8392 85.9097C40.6373 84.7989 42.8714 84.1937 45.1741 84.1937L266.035 84.1937C268.338 84.1937 270.572 84.7989 272.37 85.9097L298.874 102.284C300.672 103.395 302.906 104 305.209 104L444.5 104M2086 103.806L1865.14 103.806C1862.84 103.806 1860.6 103.201 1858.8 102.09L1832.3 85.716C1830.5 84.6052 1828.27 84 1825.97 84M1826.24 84.1938L1605.38 84.1937C1603.08 84.1937 1600.85 84.7989 1599.05 85.9098M1572.54 102.284C1570.75 103.395 1568.51 104 1566.21 104H1384.5M1339.01 102.284L1312.51 85.9097C1310.71 84.7989 1308.48 84.1937 1306.17 84.1937L1220.5 84.1937M1046.14 104C1048.44 104 1050.68 103.395 1052.47 102.284L1078.98 85.9097C1080.78 84.7989 1083.01 84.1937 1085.31 84.1937L1176.5 84.1937" stroke="#FF00E5" stroke-width="2" stroke-linecap="round" stroke-linejoin="round"/>
<path d="M1040.86 7.19374H861.5H852M780.825 27C783.128 27 785.362 26.3948 787.16 25.284L805 14.2627M781.105 26.8062L766 26.8063M300.209 7.00004C297.906 7.00004 295.672 7.60523 293.874 8.71608L267.37 25.0903C265.572 26.2011 263.338 26.8063 261.035 26.8063L40.1741 26.8063C37.8714 26.8063 35.6373 26.2011 33.8392 25.0903L7.33487 8.71605C5.53679 7.6052 3.30268 7.00001 1 7.00002M2081 7.19374L1860.14 7.19372C1857.84 7.19372 1855.6 7.79892 1853.8 8.90976L1827.3 25.284C1825.5 26.3948 1823.27 27 1820.97 27M1821.24 26.8062L1600.38 26.8063C1598.08 26.8063 1595.85 26.2011 1594.05 25.0902L1567.54 8.71603C1565.75 7.60519 1563.51 7 1561.21 7L1507.85 7.00001M1041.14 7.00002C1043.44 7.00001 1045.68 7.6052 1047.47 8.71605L1073.98 25.0903C1075.78 26.2011 1078.01 26.8063 1080.31 26.8063L1090 26.8063M1144 26.8063L1301.17 26.8063C1303.48 26.8063 1305.71 26.2011 1307.51 25.0903L1334.01 8.71608C1335.81 7.60523 1338.05 7.00004 1340.35 7.00004L1454.5 7.00002M569 26.8063L560.244 26.8063C557.941 26.8063 555.707 26.2011 553.909 25.0902L527.405 8.71603C525.607 7.60519 523.373 7 521.07 7L375 7.00002M595.5 26.8063L738.5 26.8063" stroke="#FF00E5" stroke-width="2" stroke-linecap="round" stroke-linejoin="round"/>
<circle cx="5.5" cy="5.5" r="5.5" transform="matrix(-1 0 0 1 825 3)" fill="#00FFE0"/>
<circle cx="3" cy="3" r="3" transform="matrix(-1 0 0 1 747 81)" fill="#00FFE0"/>
<circle cx="3" cy="3" r="3" transform="matrix(-1 0 0 1 755 81)" fill="#00FFE0"/>
<circle cx="3" cy="3" r="3" transform="matrix(-1 0 0 1 763 81)" fill="#00FFE0"/>
<circle cx="3" cy="3" r="3" transform="matrix(-1 0 0 1 771 81)" fill="#00FFE0"/>
<circle cx="3" cy="3" r="3" transform="matrix(-1 0 0 1 779 81)" fill="#00FFE0"/>
<circle cx="5.5" cy="5.5" r="5.5" transform="matrix(-1 0 0 1 844 1)" fill="#00FFE0"/>
<circle cx="9.41571" cy="9.41571" r="8.41571" transform="matrix(-1 0 0 1 1114.83 18)" stroke="#00FFE0" stroke-width="2"/>
<circle cx="9.41571" cy="9.41571" r="8.41571" transform="matrix(-1 0 0 1 1138.83 18)" stroke="#00FFE0" stroke-width="2"/>
<circle cx="9.41571" cy="9.41571" r="8.41571" transform="matrix(-1 0 0 1 1594.83 84)" stroke="#00FFE0" stroke-width="2"/>
<circle cx="9" cy="9" r="8" transform="matrix(-1 0 0 1 1207.83 75)" stroke="#00FFE0" stroke-width="2"/>
<circle cx="9" cy="9" r="8" transform="matrix(-1 0 0 1 470 95)" stroke="#00FFE0" stroke-width="2"/>
<circle cx="9" cy="9" r="8" transform="matrix(-1 0 0 1 495 95)" stroke="#00FFE0" stroke-width="2"/>
<circle cx="9" cy="9" r="8" transform="matrix(-1 0 0 1 520 95)" stroke="#00FFE0" stroke-width="2"/>
<rect x="575" y="20" width="14" height="14" rx="1.94136" fill="#00FFE0"/>
<rect x="745" y="20" width="14" height="14" rx="1.94136" fill="#00FFE0"/>
<rect x="1013" y="100" width="8" height="8" rx="1.94136" fill="#00FFE0"/>
<rect x="1029" y="100" width="8" height="8" rx="1.94136" fill="#00FFE0"/>
<circle cx="3" cy="3" r="3" transform="matrix(-1 0 0 1 1349 101)" fill="#00FFE0"/>
<circle cx="3" cy="3" r="3" transform="matrix(-1 0 0 1 1357 101)" fill="#00FFE0"/>
<circle cx="3" cy="3" r="3" transform="matrix(-1 0 0 1 1365 101)" fill="#00FFE0"/>
<circle cx="3" cy="3" r="3" transform="matrix(-1 0 0 1 1373 101)" fill="#00FFE0"/>
<circle cx="3" cy="3" r="3" transform="matrix(-1 0 0 1 1381 101)" fill="#00FFE0"/>
<rect x="1465" width="14" height="14" rx="1.94136" fill="#00FFE0"/>
<rect x="1486" width="14" height="14" rx="1.94136" fill="#00FFE0"/>
<circle cx="3" cy="3" r="3" transform="matrix(-1 0 0 1 346 4)" fill="#00FFE0"/>
<circle cx="3" cy="3" r="3" transform="matrix(-1 0 0 1 338 4)" fill="#00FFE0"/>
<circle cx="3" cy="3" r="3" transform="matrix(-1 0 0 1 354 4)" fill="#00FFE0"/>
<circle cx="3" cy="3" r="3" transform="matrix(-1 0 0 1 362 4)" fill="#00FFE0"/>
<circle cx="3" cy="3" r="3" transform="matrix(-1 0 0 1 370 4)" fill="#00FFE0"/>
</svg>
