<svg width="2082" height="113" viewBox="0 0 2082 113" fill="none" xmlns="http://www.w3.org/2000/svg">
<path d="M1302.29 84C1304.59 84 1306.81 84.6052 1308.61 85.716L1321.83 93.9031L1335.04 102.09C1336.84 103.201 1339.06 103.806 1341.36 103.806L1519.9 103.806M1043.21 104C1045.51 104 1047.73 103.395 1049.53 102.284L1075.96 85.9098C1077.76 84.7989 1079.99 84.1937 1082.28 84.1937L1251.6 84.1937M557.247 85.9097C559.041 84.7989 561.269 84.1937 563.566 84.1937L783.852 84.1937C786.148 84.1937 788.377 84.7989 790.17 85.9097L816.606 102.284C818.399 103.395 820.627 104 822.924 104L961.852 104M530.812 102.284C529.019 103.395 526.79 104 524.494 104M2080.64 104H1899.41M1854.04 102.284L1827.6 85.9097C1825.81 84.7989 1823.58 84.1937 1821.28 84.1937L1735.83 84.1937M1561.93 104C1564.22 104 1566.45 103.395 1568.24 102.284L1594.68 85.9097C1596.47 84.7989 1598.7 84.1937 1601 84.1937L1691.95 84.1937" stroke="#FF00E5" stroke-width="2" stroke-linecap="round" stroke-linejoin="round"/>
<path d="M1556.66 7.19374H1377.77H1368.29M1297.3 27C1299.6 27 1301.83 26.3948 1303.62 25.284L1321.41 14.2627M1297.58 26.8062L1282.52 26.8063M817.937 7.00004C815.64 7.00004 813.412 7.60523 811.619 8.71608L785.183 25.0903C783.39 26.2011 781.162 26.8063 778.865 26.8063L558.579 26.8063C556.282 26.8063 554.054 26.2011 552.261 25.0903L525.825 8.71605C524.032 7.6052 521.804 7.00001 519.507 7.00002M2075.66 7L2022.44 7.00001M1556.94 7.00002C1559.24 7.00001 1561.46 7.6052 1563.26 8.71605L1589.69 25.0903C1591.49 26.2011 1593.71 26.8063 1596.01 26.8063L1605.67 26.8063M1659.53 26.8063L1816.3 26.8063C1818.59 26.8063 1820.82 26.2011 1822.62 25.0903L1849.05 8.71608C1850.84 7.60523 1853.07 7.00004 1855.37 7.00004L1969.22 7.00002M1086.03 26.8063L1077.3 26.8063C1075 26.8063 1072.77 26.2011 1070.98 25.0902L1044.54 8.71603C1042.75 7.60519 1040.52 7 1038.22 7L892.533 7.00002M1112.46 26.8063L1255.09 26.8063" stroke="#FF00E5" stroke-width="2" stroke-linecap="round" stroke-linejoin="round"/>
<ellipse cx="5.48568" cy="5.5" rx="5.48568" ry="5.5" transform="matrix(-1 0 0 1 1341.36 3)" fill="#00FFE0"/>
<ellipse cx="2.99219" cy="3" rx="2.99219" ry="3" transform="matrix(-1 0 0 1 1263.56 81)" fill="#00FFE0"/>
<ellipse cx="2.99219" cy="3" rx="2.99219" ry="3" transform="matrix(-1 0 0 1 1271.54 81)" fill="#00FFE0"/>
<ellipse cx="2.99219" cy="3" rx="2.99219" ry="3" transform="matrix(-1 0 0 1 1279.52 81)" fill="#00FFE0"/>
<ellipse cx="2.99219" cy="3" rx="2.99219" ry="3" transform="matrix(-1 0 0 1 1287.5 81)" fill="#00FFE0"/>
<ellipse cx="2.99219" cy="3" rx="2.99219" ry="3" transform="matrix(-1 0 0 1 1295.48 81)" fill="#00FFE0"/>
<ellipse cx="5.48568" cy="5.5" rx="5.48568" ry="5.5" transform="matrix(-1 0 0 1 1360.31 1)" fill="#00FFE0"/>
<path d="M1612.66 27.4157C1612.66 32.066 1616.42 35.8314 1621.05 35.8314C1625.68 35.8314 1629.44 32.066 1629.44 27.4157C1629.44 22.7654 1625.68 19 1621.05 19C1616.42 19 1612.66 22.7654 1612.66 27.4157Z" stroke="#00FFE0" stroke-width="2"/>
<path d="M1636.59 27.4157C1636.59 32.066 1640.35 35.8314 1644.99 35.8314C1649.62 35.8314 1653.38 32.066 1653.38 27.4157C1653.38 22.7654 1649.62 19 1644.99 19C1640.35 19 1636.59 22.7654 1636.59 27.4157Z" stroke="#00FFE0" stroke-width="2"/>
<path d="M1706.24 84C1706.24 88.4207 1709.82 92 1714.22 92C1718.62 92 1722.2 88.4207 1722.2 84C1722.2 79.5793 1718.62 76 1714.22 76C1709.82 76 1706.24 79.5793 1706.24 84Z" stroke="#00FFE0" stroke-width="2"/>
<path d="M970.333 104C970.333 108.421 973.907 112 978.31 112C982.713 112 986.287 108.421 986.287 104C986.287 99.5793 982.713 96 978.31 96C973.907 96 970.333 99.5793 970.333 104Z" stroke="#00FFE0" stroke-width="2"/>
<path d="M995.267 104C995.267 108.421 998.84 112 1003.24 112C1007.65 112 1011.22 108.421 1011.22 104C1011.22 99.5793 1007.65 96 1003.24 96C998.84 96 995.267 99.5793 995.267 104Z" stroke="#00FFE0" stroke-width="2"/>
<path d="M1020.2 104C1020.2 108.421 1023.78 112 1028.18 112C1032.58 112 1036.16 108.421 1036.16 104C1036.16 99.5793 1032.58 96 1028.18 96C1023.78 96 1020.2 99.5793 1020.2 104Z" stroke="#00FFE0" stroke-width="2"/>
<rect x="1092.01" y="20" width="13.9636" height="14" rx="1.94136" fill="#00FFE0"/>
<rect x="1261.57" y="20" width="13.9636" height="14" rx="1.94136" fill="#00FFE0"/>
<rect x="1528.87" y="100" width="7.97918" height="8" rx="1.94136" fill="#00FFE0"/>
<rect x="1544.83" y="100" width="7.97918" height="8" rx="1.94136" fill="#00FFE0"/>
<ellipse cx="2.99219" cy="3" rx="2.99219" ry="3" transform="matrix(-1 0 0 1 1864 101)" fill="#00FFE0"/>
<ellipse cx="2.99219" cy="3" rx="2.99219" ry="3" transform="matrix(-1 0 0 1 1871.98 101)" fill="#00FFE0"/>
<ellipse cx="2.99219" cy="3" rx="2.99219" ry="3" transform="matrix(-1 0 0 1 1879.96 101)" fill="#00FFE0"/>
<ellipse cx="2.99219" cy="3" rx="2.99219" ry="3" transform="matrix(-1 0 0 1 1887.94 101)" fill="#00FFE0"/>
<ellipse cx="2.99219" cy="3" rx="2.99219" ry="3" transform="matrix(-1 0 0 1 1895.91 101)" fill="#00FFE0"/>
<rect x="1979.7" width="13.9636" height="14" rx="1.94136" fill="#00FFE0"/>
<rect x="2000.64" width="13.9636" height="14" rx="1.94136" fill="#00FFE0"/>
<ellipse cx="2.99219" cy="3" rx="2.99219" ry="3" transform="matrix(-1 0 0 1 861.614 4)" fill="#00FFE0"/>
<ellipse cx="2.99219" cy="3" rx="2.99219" ry="3" transform="matrix(-1 0 0 1 853.635 4)" fill="#00FFE0"/>
<ellipse cx="2.99219" cy="3" rx="2.99219" ry="3" transform="matrix(-1 0 0 1 845.656 4)" fill="#00FFE0"/>
<ellipse cx="2.99219" cy="3" rx="2.99219" ry="3" transform="matrix(-1 0 0 1 837.676 4)" fill="#00FFE0"/>
<ellipse cx="2.99219" cy="3" rx="2.99219" ry="3" transform="matrix(-1 0 0 1 829.697 4)" fill="#00FFE0"/>
<ellipse cx="2.99219" cy="3" rx="2.99219" ry="3" transform="matrix(-1 0 0 1 869.593 4)" fill="#00FFE0"/>
<ellipse cx="2.99219" cy="3" rx="2.99219" ry="3" transform="matrix(-1 0 0 1 877.572 4)" fill="#00FFE0"/>
<ellipse cx="2.99219" cy="3" rx="2.99219" ry="3" transform="matrix(-1 0 0 1 885.55 4)" fill="#00FFE0"/>
<path d="M531.022 102.284C529.228 103.394 527 104 524.703 104H343.466M298.099 102.284L271.663 85.9094C269.87 84.7985 267.642 84.1934 265.345 84.1934L179.893 84.1934M5.98706 104C8.28374 104 10.512 103.394 12.3054 102.284L38.7408 85.9094C40.5342 84.7986 42.7625 84.1934 45.0592 84.1934L136.008 84.1934" stroke="#FF00E5" stroke-width="2" stroke-linecap="round" stroke-linejoin="round"/>
<path d="M526.035 8.71636C524.241 7.60551 522.013 7.00032 519.716 7.00032L466.5 7.00033M1 7.00034C3.29668 7.00034 5.52496 7.60553 7.31836 8.71637L33.7538 25.0906C35.5472 26.2014 37.7754 26.8066 40.0721 26.8066L49.7329 26.8066M103.592 26.8066L260.358 26.8066C262.655 26.8066 264.883 26.2015 266.676 25.0906L293.112 8.7164C294.905 7.60556 297.134 7.00036 299.43 7.00036L413.284 7.00034" stroke="#FF00E5" stroke-width="2" stroke-linecap="round" stroke-linejoin="round"/>
<path d="M56.7173 27.4157C56.7173 32.066 60.4767 35.8314 65.1086 35.8314C69.7404 35.8314 73.4998 32.066 73.4998 27.4157C73.4998 22.7654 69.7404 19 65.1086 19C60.4767 19 56.7173 22.7654 56.7173 27.4157Z" stroke="#00FFE0" stroke-width="2"/>
<path d="M80.6544 27.4157C80.6544 32.066 84.4137 35.8314 89.0456 35.8314C93.6774 35.8314 97.4368 32.066 97.4368 27.4157C97.4368 22.7654 93.6774 19 89.0456 19C84.4137 19 80.6544 22.7654 80.6544 27.4157Z" stroke="#00FFE0" stroke-width="2"/>
<path d="M535.468 93.4157C535.468 98.066 539.227 101.831 543.859 101.831C548.491 101.831 552.25 98.066 552.25 93.4157C552.25 88.7654 548.491 85 543.859 85C539.227 85 535.468 88.7654 535.468 93.4157Z" stroke="#00FFE0" stroke-width="2"/>
<path d="M150.304 84C150.304 88.4207 153.878 92 158.281 92C162.684 92 166.257 88.4207 166.257 84C166.257 79.5793 162.684 76 158.281 76C153.878 76 150.304 79.5793 150.304 84Z" stroke="#00FFE0" stroke-width="2"/>
<ellipse cx="2.99219" cy="3" rx="2.99219" ry="3" transform="matrix(-1 0 0 1 308.059 101)" fill="#00FFE0"/>
<ellipse cx="2.99219" cy="3" rx="2.99219" ry="3" transform="matrix(-1 0 0 1 316.038 101)" fill="#00FFE0"/>
<ellipse cx="2.99219" cy="3" rx="2.99219" ry="3" transform="matrix(-1 0 0 1 324.018 101)" fill="#00FFE0"/>
<ellipse cx="2.99219" cy="3" rx="2.99219" ry="3" transform="matrix(-1 0 0 1 331.996 101)" fill="#00FFE0"/>
<ellipse cx="2.99219" cy="3" rx="2.99219" ry="3" transform="matrix(-1 0 0 1 339.976 101)" fill="#00FFE0"/>
<rect x="423.756" width="13.9636" height="14" rx="1.94136" fill="#00FFE0"/>
<rect x="444.702" width="13.9636" height="14" rx="1.94136" fill="#00FFE0"/>
</svg>
