<svg width="246" height="246" viewBox="0 0 246 246" fill="none" xmlns="http://www.w3.org/2000/svg">
<path d="M83 34C101.242 48.8326 121.564 79.6528 122.812 92H122.932C124.18 79.6528 144.502 48.8326 162.744 34" stroke="#00FFE0" stroke-linecap="round"/>
<path d="M130.599 100.626V188.202C130.599 191.806 129.317 196.927 127.643 201.502C126.808 203.783 125.882 205.91 124.982 207.626C124.212 209.094 123.481 210.22 122.864 210.891C122.194 210.191 121.444 209.032 120.679 207.532C119.795 205.797 118.919 203.661 118.143 201.381C116.588 196.81 115.46 191.727 115.46 188.202V100.626C115.46 96.4456 118.849 93.0566 123.03 93.0566C127.21 93.0566 130.599 96.4455 130.599 100.626Z" stroke="#00FFE0"/>
<path d="M132.588 160.732C133.254 162.582 134.365 164.231 135.673 165.715C136.394 166.532 136.964 167.423 137.723 168.195C138.263 168.744 138.963 168.988 139.601 169.372C140.359 169.827 140.11 170.427 139.652 170.94C139.447 171.169 139.067 171.198 138.831 171.378C138.711 171.47 138.538 171.499 138.406 171.591C138.203 171.731 137.751 172.131 137.474 172.078C136.65 171.922 136.268 171.478 135.822 170.782C135.179 169.778 134.416 168.844 133.795 167.814C132.885 166.306 132.377 164.573 131.596 163M143.247 179.21C143.399 178.655 142.914 177.076 142.166 177.552C141.948 177.691 141.491 178.063 141.23 178.046C140.839 178.02 140.406 178.35 140.054 178.259C139.693 178.166 139.565 178.769 139.642 179.024C139.715 179.263 139.627 179.599 139.755 179.808C140.058 180.302 140.364 180.789 140.689 181.276C141.029 181.785 141.199 182.268 141.41 182.838C141.628 183.431 141.944 183.996 142.127 184.598C142.47 185.731 142.877 186.897 143.38 187.976C144 189.305 144.528 190.601 145.034 191.973C145.401 192.967 145.704 193.985 146.072 194.982C146.548 196.275 147.321 197.445 147.993 198.639C148.33 199.236 148.486 199.913 148.812 200.522C149.176 201.203 149.456 201.92 149.724 202.647C149.791 202.828 149.841 203.045 149.937 203.214C149.968 203.268 149.891 202.706 149.873 202.616C149.735 201.932 149.651 201.267 149.571 200.579C149.434 199.412 148.927 198.298 148.672 197.154C148.119 194.668 147.001 192.334 146.434 189.853C146.313 189.324 146.18 188.772 145.911 188.294C145.536 187.629 145.494 186.794 145.154 186.1C144.883 185.548 144.63 184.917 144.418 184.343C144.245 183.874 143.963 183.393 143.922 182.89C143.862 182.146 143.87 181.21 143.527 180.546C143.428 180.354 143.079 179.258 143.334 179.25M148.031 188.74C148.177 188.715 147.285 186.698 147.22 186.543C146.717 185.342 146.403 183.839 146.102 182.497C145.849 181.37 145.641 180.212 145.405 179.074C145.27 178.423 145.135 177.78 144.974 177.144C144.895 176.829 144.884 176.485 144.812 176.168C144.742 175.859 144.59 175.613 144.511 175.31C144.381 174.805 144.276 174.207 143.976 173.852C143.796 173.638 143.695 173.101 144.047 173.008C144.212 172.964 144.356 172.87 144.514 172.814C144.665 172.759 144.722 172.512 144.849 172.396C145.164 172.258 145.109 172.275 145.413 171.964C145.586 171.787 145.7 171.612 145.785 171.391C145.831 171.268 145.881 170.876 146.024 170.821C146.118 170.785 148.084 172.798 148.249 172.991C148.59 173.387 148.832 173.836 149.107 174.252C149.345 174.612 149.71 174.934 149.925 175.302C150.345 176.022 151.073 176.676 151.574 177.383C152.207 178.276 153.219 179.024 153.859 179.919C154.576 180.921 155.466 181.884 156.26 182.853C156.608 183.279 156.197 183.171 155.809 183.274C155.643 183.318 155.404 183.231 155.276 183.328C155.143 183.43 154.986 183.5 154.86 183.615C154.591 183.86 154.194 183.484 154.113 183.216C153.977 182.772 153.532 182.358 153.179 181.975C152.967 181.744 152.843 181.483 152.622 181.256C152.394 181.023 152.112 180.828 151.891 180.59C151.444 180.109 150.977 179.648 150.503 179.18C149.676 178.364 148.817 177.561 148.007 176.736C147.044 175.755 146.897 175.661 146.162 174.587C146.566 175.61 147.089 178.134 147.495 179.151C147.817 179.955 147.971 180.923 148.347 181.666C148.54 182.047 148.612 182.527 148.785 182.923C148.984 183.38 149.23 183.827 149.378 184.328C149.45 184.572 150.073 187.316 149.992 187.375C149.867 187.465 149.512 187.294 149.383 187.266C149.152 187.217 148.943 187.218 148.7 187.267C148.274 187.354 148.105 187.733 147.996 188.243M155.026 187.15C155.055 187.149 155.084 187.148 155.115 187.146M155.115 187.146C155.996 187.081 157.271 186.223 157.669 185.551C157.824 185.29 161.488 189.08 161.907 189.568C162.192 189.899 162.523 190.184 162.871 190.45C163.087 190.615 164.685 191.701 164.361 191.911C163.877 192.226 163.049 192.122 162.718 192.642C162.33 193.251 162.319 192.963 161.818 192.412C161.081 191.601 160.2 190.976 159.303 190.348C158.304 189.649 157.374 188.719 156.31 188.122C155.841 187.859 155.469 187.526 155.115 187.146ZM155.115 187.146C155.086 187.115 155.058 187.085 155.03 187.054M148.834 190.546C148.861 190.545 148.888 190.543 148.916 190.54M148.916 190.54C149.723 190.453 150.9 189.432 151.273 188.64C151.418 188.332 154.725 192.728 155.103 193.294C155.36 193.679 155.659 194.009 155.974 194.316C156.17 194.508 157.619 195.76 157.32 196.011C156.873 196.385 156.117 196.273 155.807 196.887C155.444 197.606 155.437 197.268 154.986 196.629C154.322 195.687 153.523 194.965 152.709 194.241C151.804 193.434 150.964 192.356 149.998 191.669C149.572 191.366 149.235 190.981 148.916 190.54ZM148.916 190.54C148.89 190.505 148.865 190.469 148.839 190.433M162.06 203.296C162.078 203.275 162.095 203.254 162.111 203.232M162.111 203.232C162.594 202.578 162.639 201.021 162.307 200.21C162.178 199.895 167.653 200.434 168.325 200.539C168.783 200.61 169.228 200.612 169.668 200.588C169.941 200.573 171.844 200.354 171.826 200.743C171.799 201.325 171.205 201.807 171.448 202.451C171.731 203.204 171.478 202.981 170.702 202.88C169.559 202.733 168.487 202.833 167.403 202.941C166.197 203.063 164.835 202.952 163.675 203.199C163.164 203.307 162.653 203.295 162.111 203.232ZM162.111 203.232C162.068 203.227 162.025 203.221 161.981 203.216M190.117 169.985C190.138 170.002 190.159 170.019 190.181 170.036M190.181 170.036C190.835 170.518 192.392 170.563 193.203 170.232C193.518 170.103 192.979 175.577 192.874 176.25C192.803 176.707 192.801 177.153 192.825 177.592C192.84 177.865 193.059 179.768 192.67 179.75C192.088 179.724 191.606 179.13 190.963 179.372C190.209 179.656 190.433 179.403 190.533 178.627C190.68 177.484 190.58 176.412 190.472 175.328C190.35 174.121 190.461 172.76 190.214 171.6C190.106 171.089 190.118 170.577 190.181 170.036ZM190.181 170.036C190.186 169.993 190.192 169.949 190.197 169.906M179.053 203.148C179.095 203.12 179.137 203.092 179.177 203.064M179.177 203.064C180.11 202.407 180.532 201.434 181.367 200.669C182.205 199.9 182.872 200.278 183.984 200.461C185.449 200.701 186.913 201.283 188.384 201.497C189.888 201.715 191.516 202.014 192.972 202.574C193.565 202.802 194.307 203.139 193.296 203.198C192.348 203.253 191.393 203.047 190.444 203.146C189.71 203.222 188.947 202.999 188.213 203.03C187.322 203.066 186.404 203.008 185.504 202.962C184.024 202.887 180.57 202.922 179.177 203.064ZM179.177 203.064C178.514 203.131 178.318 203.223 179.023 203.339M164.336 194.714C164.381 194.691 164.425 194.668 164.468 194.644M164.468 194.644C165.465 194.089 165.987 193.167 166.899 192.494C167.814 191.818 168.437 192.265 169.523 192.563C170.955 192.957 172.349 193.691 173.789 194.059C175.262 194.435 176.849 194.905 178.238 195.616C178.804 195.905 179.506 196.318 178.494 196.27C177.546 196.224 176.617 195.919 175.663 195.917C174.925 195.915 174.19 195.613 173.457 195.565C172.567 195.507 171.661 195.353 170.771 195.212C169.306 194.98 165.869 194.65 164.468 194.644ZM164.468 194.644C163.802 194.641 163.597 194.711 164.286 194.901M189.65 187.084C189.688 187.118 189.726 187.15 189.765 187.181M189.765 187.181C190.651 187.9 191.702 188.041 192.666 188.636C193.634 189.233 193.452 189.978 193.579 191.097C193.747 192.572 193.586 194.139 193.781 195.613C193.98 197.119 194.136 198.767 193.993 200.321C193.936 200.954 193.814 201.76 193.482 200.802C193.171 199.906 193.108 198.93 192.755 198.044C192.482 197.359 192.488 196.564 192.259 195.866C191.981 195.018 191.787 194.12 191.586 193.242C191.255 191.796 190.281 188.483 189.765 187.181ZM189.765 187.181C189.519 186.561 189.377 186.397 189.458 187.107M149.433 171.397C149.422 171.392 149.442 171.387 149.483 171.381M149.483 171.381C149.64 171.357 150.088 171.326 150.153 171.304C150.415 171.213 150.633 170.69 150.777 170.468C151.07 170.017 151.267 169.417 151.395 168.897C151.594 168.092 151.919 168.859 152.198 169.271C152.704 170.016 153.213 170.837 153.791 171.526C154.818 172.75 155.692 174.105 156.589 175.425C157.476 176.73 158.648 178.29 160.092 179.012C160.251 179.091 161.441 179.552 161.065 179.705C160.33 180.004 159.816 180.269 159.287 180.894C159.207 180.99 159.155 181.264 158.974 181.173C158.729 181.051 158.547 180.612 158.385 180.399C157.836 179.679 157.304 178.891 156.68 178.238C155.299 176.794 154.022 175.248 152.613 173.833C152.039 173.257 151.696 172.382 150.941 172.022C150.442 171.784 149.905 171.683 149.483 171.381ZM149.483 171.381C149.444 171.353 149.406 171.323 149.369 171.291M161.948 183.884C161.594 183.877 161.504 182.143 161.555 181.998C161.721 181.522 162.069 181.158 162.278 180.73C162.588 180.095 165.347 182.551 165.787 182.897C166.967 183.825 168.417 184.322 169.594 185.227C170.074 185.596 170.84 185.855 171.423 185.934C172.041 186.017 172.657 186.229 173.265 186.299C173.718 186.351 173.223 187.244 173.087 187.444C172.715 187.99 172.487 188.422 172.232 189.001C171.998 189.532 171.18 188.628 170.956 188.447C170.452 188.039 169.95 187.652 169.421 187.287C167.928 186.257 166.331 185.453 164.792 184.512C163.904 183.97 162.89 183.81 161.917 183.595M168.546 180.952C168.192 180.945 168.102 179.21 168.153 179.065C168.319 178.59 168.667 178.226 168.876 177.798C169.186 177.163 171.945 179.619 172.385 179.965C173.565 180.893 175.015 181.39 176.192 182.295C176.672 182.663 177.438 182.923 178.021 183.002C178.639 183.085 179.255 183.297 179.863 183.366C180.316 183.418 179.821 184.312 179.685 184.512C179.313 185.058 179.085 185.49 178.83 186.069C178.596 186.6 177.778 185.696 177.554 185.515C177.05 185.107 176.548 184.72 176.019 184.355C174.526 183.325 172.929 182.52 171.39 181.58C170.502 181.038 169.488 180.878 168.515 180.663M151.797 166.371C151.843 166.618 152.517 166.767 152.758 166.782C153.129 166.804 153.448 166.37 153.601 166.096C153.941 165.489 154.958 164.079 154.646 163.334C154.492 162.967 154.856 163.425 154.925 163.534C155.27 164.077 155.675 164.582 156.02 165.125C156.605 166.045 157.299 166.688 158.129 167.389C159.704 168.719 161.359 169.886 162.718 171.433C163.848 172.718 164.772 174.284 166.032 175.439C166.209 175.602 167.049 176.048 166.947 176.236C166.631 176.818 165.961 177.196 165.777 177.843C165.742 177.965 165.679 178.479 165.515 178.479C165.097 178.479 164.579 177.456 164.403 177.171C163.392 175.54 161.283 174.243 159.893 172.99C158.639 171.86 157.468 170.342 156.09 169.355C155.499 168.933 155.007 168.439 154.285 168.233L152.69 167.777C152.381 167.689 151.855 167.107 151.873 167.112M171.748 164.46C171.608 164.252 170.931 164.384 170.703 164.467C170.354 164.595 170.235 165.121 170.204 165.433C170.136 166.125 169.767 167.824 170.35 168.382C170.637 168.657 170.121 168.382 170.015 168.31C169.481 167.95 168.908 167.649 168.375 167.289C167.471 166.679 166.578 166.367 165.537 166.056C163.561 165.466 161.578 165.056 159.714 164.182C158.165 163.455 156.693 162.388 155.076 161.832C154.849 161.754 153.901 161.681 153.92 161.467C153.976 160.808 154.439 160.193 154.35 159.527C154.334 159.401 154.186 158.904 154.336 158.839C154.719 158.672 155.603 159.404 155.878 159.594C157.456 160.686 159.908 161.032 161.683 161.625C163.284 162.161 164.963 163.085 166.621 163.439C167.331 163.59 167.98 163.846 168.724 163.747L170.369 163.528C170.687 163.485 171.402 163.808 171.383 163.811M163.961 160.564C164.103 160.733 164.684 160.558 164.876 160.465C165.171 160.322 165.229 159.851 165.228 159.574C165.226 158.962 165.399 157.44 164.839 157.003C164.562 156.788 165.039 156.983 165.139 157.036C165.638 157.305 166.167 157.518 166.666 157.786C167.512 158.24 168.323 158.434 169.262 158.614C171.045 158.956 172.819 159.139 174.53 159.74C175.952 160.239 177.337 161.043 178.802 161.387C179.009 161.435 179.846 161.415 179.849 161.604C179.857 162.187 179.506 162.766 179.643 163.343C179.669 163.451 179.842 163.873 179.717 163.944C179.396 164.124 178.557 163.562 178.298 163.419C176.819 162.603 174.64 162.517 173.032 162.154C171.582 161.828 170.028 161.167 168.544 161.004C167.909 160.934 167.317 160.767 166.675 160.92L165.253 161.258C164.978 161.324 164.323 161.104 164.339 161.1M192.43 165.025C192.201 164.759 192.466 165.246 192.489 165.385C192.551 165.77 192.573 166.196 192.5 166.588C192.407 167.093 191.688 167.336 191.293 167.685C191.065 167.886 190.3 167.968 190.048 167.832C189.565 167.572 189.449 167.063 189.048 166.721C188.145 165.954 187.01 165.784 185.79 165.491C185.114 165.329 184.612 165.176 183.883 165.186C183.41 165.193 182.765 165.325 182.315 165.231C181.936 165.151 181.568 165.226 181.507 164.85C181.412 164.26 181.833 163.912 182.244 163.452C182.53 163.131 182.496 162.701 182.914 162.469C183.439 162.178 184.167 162.362 184.64 162.527C186.222 163.08 188.215 163.03 189.628 163.842C190 164.056 190.549 164.325 191.016 164.378C191.443 164.427 191.85 164.543 192.274 164.572C192.526 164.589 192.742 165.002 192.538 164.765M181.783 172.305C181.657 171.912 181.742 172.578 181.715 172.751C181.643 173.227 181.518 173.739 181.316 174.178C181.055 174.744 180.291 174.784 179.799 175.061C179.515 175.221 178.763 175.055 178.571 174.808C178.202 174.334 178.267 173.692 178.003 173.15C177.411 171.932 176.395 171.341 175.34 170.575C174.756 170.152 174.333 169.799 173.64 169.56C173.19 169.405 172.535 169.34 172.141 169.074C171.81 168.85 171.436 168.812 171.507 168.346C171.618 167.616 172.135 167.348 172.681 166.945C173.061 166.664 173.176 166.143 173.651 166.012C174.246 165.848 174.873 166.316 175.264 166.674C176.573 167.871 178.475 168.496 179.535 169.942C179.815 170.324 180.242 170.83 180.666 171.054C181.053 171.258 181.398 171.535 181.79 171.715C182.023 171.822 182.086 172.385 181.974 172.034M153.33 154.005C153.775 154.18 153.696 155.216 153.646 155.578C153.615 155.796 153.248 156.54 153.37 156.728C153.619 157.113 154.662 156.56 155.016 156.522C155.401 156.481 155.85 156.678 156.22 156.778C156.836 156.944 157.481 156.869 158.114 157.04C158.769 157.217 159.443 157.362 160.087 157.573C160.535 157.72 160.995 158.122 161.442 158.32C161.864 158.506 162.234 158.651 162.689 158.774C163.328 158.947 162.487 157.185 162.499 156.917C162.535 156.122 161.134 156.287 160.709 155.936C160.171 155.491 159.266 155.666 158.682 155.298C158.261 155.033 157.754 154.951 157.274 154.821C156.072 154.496 154.863 154.419 153.678 154.099M134.197 160.609C135.538 162.489 137.303 164.105 138.747 165.938C139.555 166.963 140.299 168.119 140.992 169.201C141.454 169.921 142.789 171.367 143.795 170.76C144.147 170.548 144.512 169.945 144.609 169.553C144.763 168.933 144.499 168.52 144.262 167.988C144.024 167.451 143.664 166.895 143.127 166.573C142.548 166.224 141.95 165.719 141.34 165.446C139.738 164.725 138.61 162.884 137.507 161.582C136.999 160.982 136.231 160.449 135.831 159.786C135.388 159.053 134.875 158.362 134.503 157.578C134.15 156.834 133.865 156.087 133.819 155.272C133.812 155.15 133.692 154.489 133.957 154.648C134.413 154.923 134.649 155.729 134.92 156.18C136.143 158.207 137.735 159.961 139.799 161.091C140.614 161.538 141.147 162.271 141.818 162.895C142.547 163.574 143.074 164.422 143.748 165.148C144.514 165.973 145.528 166.554 146.118 167.532C146.601 168.333 146.952 169.393 147.962 169.643C148.695 169.824 149.353 168.805 149.683 168.271C149.876 167.958 150.003 167.687 150.091 167.331C150.187 166.944 149.787 166.589 149.622 166.256C149.446 165.901 149.22 165.547 148.95 165.252C148.687 164.963 148.21 164.694 148.013 164.368C147.511 163.536 147.209 162.876 146.249 162.506C145.831 162.346 145.475 162.099 145.116 161.837C144.69 161.526 144.168 161.316 143.782 160.959C143.033 160.267 142.026 159.78 141.339 159.029C140.56 158.176 139.771 157.343 139.007 156.473C138.675 156.095 138.353 155.716 138.045 155.326C138.626 155.453 139.22 155.547 139.752 155.679C140.34 155.824 140.92 156.29 141.38 156.673C141.951 157.15 142.613 157.512 143.101 158.091C143.523 158.593 143.98 159.059 144.445 159.525C145.183 160.264 146.129 160.757 146.875 161.485C147.49 162.085 148.243 162.645 149.032 163C149.566 163.24 150.17 163.583 150.732 163.722C151.358 163.877 151.993 163.867 152.608 163.693C152.86 163.621 152.935 163.102 152.939 162.887C152.949 162.342 152.698 162.222 152.393 161.815C151.928 161.194 151.761 160.376 151.236 159.803C150.673 159.186 149.925 158.868 149.218 158.459C148.572 158.086 147.907 157.678 147.139 157.627C146.611 157.592 145.873 157.646 145.378 157.46C144.867 157.268 144.382 157.032 143.896 156.781C143.289 156.467 142.786 155.955 142.238 155.554C141.574 155.069 140.104 154.17 139.394 153.755M139.394 153.755C138.917 153.729 136.205 152.721 136.969 153.988C137.237 154.433 137.477 154.821 137.822 155.213M139.394 153.755C139.736 153.773 140.083 153.706 140.423 153.692C141.035 153.667 141.748 153.965 142.331 154.109C143.063 154.29 143.806 154.397 144.543 154.558C145.629 154.795 146.788 154.102 147.629 154.939C147.962 155.27 148.168 155.518 148.317 155.969C148.43 156.311 148.624 156.432 148.76 156.791C148.852 157.031 149.235 157.476 149.545 157.407C149.904 157.326 150.462 157.297 150.534 157.003C150.625 156.637 150.746 156.085 151.081 155.844C151.296 155.43 151.558 153.95 151.18 153.559C150.505 152.86 149.504 152.974 148.622 152.8C147.743 152.626 147.276 152.313 146.405 152.098C145.266 151.816 144.839 151.267 143.702 150.986C142.421 150.669 143.128 150.305 141.839 149.986C140.853 149.742 140.735 149.692 139.89 149.152C139.003 148.586 138.527 148.915 137.96 148.657C136.918 148.183 136.048 148.419 135.388 147.996C134.059 147.146 132.619 147.415 132.437 146.895M131.641 129.811C132.528 127.493 134.117 123.105 135.701 120.535C136.631 119.522 137.657 117.091 138.634 116.137C139.329 115.457 140.053 114.285 140.868 113.817C141.836 113.262 141.537 112.498 140.971 111.839C140.719 111.546 140.24 111.5 139.947 111.266C139.797 111.147 139.58 111.106 139.415 110.987C139.164 110.805 138.602 110.289 138.252 110.348C137.208 110.524 136.716 111.075 136.135 111.942C135.298 113.193 135.411 114.853 134.602 116.137C133.751 118.341 132.727 121.336 131.711 123.91M143.569 98.8077C143.844 99.48 143.476 101.532 142.468 101.05C142.173 100.909 141.543 100.513 141.219 100.574C140.733 100.665 140.141 100.318 139.713 100.485C139.276 100.657 139.023 99.9207 139.081 99.5895C139.136 99.2796 138.975 98.8709 139.103 98.5898C139.408 97.9249 139.717 97.2691 140.05 96.6091C140.399 95.919 140.538 95.2884 140.715 94.542C140.899 93.7656 141.209 93.0099 141.346 92.2278C141.604 90.7564 141.936 89.2344 142.402 87.8047C142.977 86.046 143.441 84.3423 143.867 82.5463C144.174 81.2455 144.399 79.924 144.708 78.6187C145.109 76.9263 145.898 75.3422 146.56 73.7446C146.89 72.9449 146.983 72.0736 147.299 71.261C147.651 70.3525 147.893 69.4108 148.118 68.4597C148.174 68.2222 148.204 67.9429 148.298 67.7171C148.329 67.6442 148.318 68.3602 148.309 68.4757C148.241 69.3536 148.236 70.1993 148.24 71.0741C148.247 72.5567 147.781 74.0292 147.636 75.5019C147.322 78.7001 146.276 81.7947 145.942 84.9888C145.871 85.6701 145.789 86.382 145.524 87.0217C145.156 87.9122 145.23 88.9646 144.91 89.886C144.655 90.6192 144.433 91.4474 144.255 92.1993C144.11 92.8127 143.829 93.4588 143.855 94.0949C143.893 95.036 144.046 96.2079 143.717 97.0915C143.621 97.3473 143.351 98.773 143.672 98.7443M169.997 89.6018C170.03 89.6011 170.064 89.6014 170.098 89.6028M170.098 89.6028C171.096 89.6441 172.568 90.5736 173.043 91.3243C173.228 91.6155 177.222 87.1671 177.677 86.5969C177.987 86.209 178.35 85.8729 178.733 85.5571C178.97 85.3607 180.734 84.0662 180.36 83.8388C179.802 83.4988 178.87 83.6474 178.477 83.0676C178.015 82.3885 178.013 82.7167 177.469 83.3619C176.668 84.3124 175.696 85.0569 174.706 85.8043C173.605 86.6362 172.59 87.7286 171.411 88.4478C170.892 88.7646 170.484 89.1568 170.098 89.6028ZM170.098 89.6028C170.067 89.6384 170.036 89.6743 170.006 89.7105M159.151 80.447C159.183 80.4548 159.215 80.4638 159.247 80.4739M159.247 80.4739C160.197 80.7699 161.375 82.053 161.639 82.9063C161.741 83.2373 166.732 79.9275 167.317 79.4886C167.714 79.19 168.151 78.9557 168.6 78.7461C168.88 78.6158 170.91 77.8067 170.609 77.4894C170.16 77.015 169.225 76.9208 168.995 76.255C168.726 75.4751 168.64 75.7944 167.95 76.2835C166.933 77.0041 165.806 77.4802 164.662 77.9547C163.387 78.4828 162.129 79.2869 160.809 79.6853C160.227 79.8608 159.734 80.1383 159.247 80.4739ZM159.247 80.4739C159.209 80.5006 159.17 80.5277 159.131 80.5552M150.807 92.807C150.834 92.7993 150.861 92.7926 150.889 92.7867M150.889 92.7867C151.707 92.6164 153.178 93.2363 153.79 93.8882C154.027 94.1412 155.897 88.8326 156.09 88.1642C156.222 87.7095 156.413 87.2954 156.625 86.8975C156.758 86.6502 157.787 84.9778 157.416 84.829C156.862 84.6065 156.155 84.9531 155.661 84.4552C155.082 83.872 155.181 84.2016 154.938 84.9641C154.581 86.0874 154.023 87.0401 153.452 87.9996C152.816 89.0675 152.33 90.3784 151.597 91.3498C151.275 91.7777 151.065 92.2575 150.889 92.7867ZM150.889 92.7867C150.875 92.8289 150.861 92.8714 150.848 92.9142M179.191 68.252C179.214 68.2767 179.237 68.3029 179.258 68.3304M179.258 68.3304C179.894 69.1344 180.015 71.0975 179.63 72.1341C179.481 72.5364 186.364 71.6297 187.208 71.4697C187.782 71.3609 188.344 71.3397 188.899 71.3514C189.245 71.3587 191.654 71.5568 191.615 71.0664C191.557 70.3331 190.788 69.7498 191.067 68.9286C191.394 67.9668 191.084 68.2587 190.11 68.4173C188.674 68.651 187.317 68.5695 185.945 68.4771C184.419 68.3742 182.706 68.5708 181.232 68.3073C180.583 68.1913 179.939 68.2285 179.258 68.3304ZM179.258 68.3304C179.204 68.3385 179.15 68.3471 179.095 68.356M171.655 104.757C171.68 104.778 171.706 104.801 171.731 104.826M171.731 104.826C172.462 105.544 172.827 107.477 172.575 108.553C172.477 108.971 179.193 107.212 180.01 106.948C180.566 106.769 181.121 106.677 181.674 106.62C182.017 106.584 184.432 106.48 184.333 105.998C184.184 105.277 183.348 104.795 183.522 103.945C183.726 102.95 183.455 103.278 182.508 103.557C181.113 103.969 179.756 104.057 178.384 104.137C176.856 104.225 175.181 104.634 173.686 104.557C173.028 104.522 172.393 104.64 171.731 104.826ZM171.731 104.826C171.678 104.841 171.625 104.856 171.572 104.872M157.975 68.1962C157.998 68.2209 158.021 68.2471 158.042 68.2746M158.042 68.2746C158.678 69.0786 158.799 71.0416 158.415 72.0783C158.265 72.4805 165.148 71.5739 165.992 71.4139C166.566 71.3051 167.128 71.2839 167.683 71.2956C168.029 71.3029 170.438 71.501 170.399 71.0105C170.341 70.2773 169.572 69.6939 169.851 68.8727C170.178 67.9109 169.868 68.2029 168.894 68.3615C167.458 68.5952 166.101 68.5136 164.729 68.4212C163.203 68.3184 161.49 68.515 160.016 68.2515C159.367 68.1354 158.723 68.1726 158.042 68.2746ZM158.042 68.2746C157.988 68.2827 157.934 68.2912 157.879 68.3001M160.445 98.8147C160.478 98.813 160.511 98.8125 160.546 98.8129M160.546 98.8129C161.545 98.8258 163.046 99.7193 163.543 100.461C163.737 100.749 167.6 96.1574 168.038 95.5704C168.337 95.1711 168.69 94.8224 169.063 94.4936C169.295 94.2892 171.021 92.9357 170.64 92.7176C170.072 92.3914 169.144 92.5675 168.733 91.9952C168.251 91.3249 168.259 91.6553 167.734 92.3203C166.961 93.3 166.01 94.0771 165.043 94.8577C163.966 95.7265 162.983 96.8551 161.825 97.6128C161.315 97.9465 160.919 98.3529 160.546 98.8129ZM160.546 98.8129C160.516 98.8496 160.486 98.8865 160.457 98.9239M167.578 99.9525C167.61 99.9603 167.642 99.9693 167.675 99.9794M167.675 99.9794C168.629 100.276 169.814 101.559 170.081 102.411C170.184 102.742 175.193 99.4374 175.78 98.9991C176.179 98.701 176.617 98.4671 177.069 98.2579C177.349 98.1278 179.388 97.3203 179.085 97.003C178.633 96.5287 177.693 96.4341 177.462 95.7686C177.19 94.9891 177.104 95.3081 176.411 95.7965C175.391 96.516 174.26 96.9912 173.11 97.4648C171.831 97.9919 170.568 98.7948 169.242 99.1922C168.658 99.3672 168.163 99.6443 167.675 99.9794ZM167.675 99.9794C167.636 100.006 167.597 100.033 167.558 100.061M213.764 108.372C213.789 108.349 213.815 108.326 213.842 108.305M213.842 108.305C214.646 107.669 216.609 107.548 217.646 107.932C218.048 108.082 217.142 101.199 216.982 100.355C216.873 99.7809 216.852 99.2193 216.863 98.6637C216.871 98.3184 217.069 95.9092 216.578 95.9478C215.845 96.0055 215.262 96.7748 214.441 96.4958C213.479 96.1689 213.771 96.479 213.929 97.4534C214.163 98.8891 214.082 100.246 213.989 101.618C213.886 103.144 214.083 104.857 213.819 106.331C213.703 106.98 213.74 107.624 213.842 108.305ZM213.842 108.305C213.851 108.359 213.859 108.413 213.868 108.468M214.223 122.8C214.248 122.777 214.274 122.755 214.302 122.733M214.302 122.733C215.106 122.097 217.069 121.976 218.105 122.361C218.508 122.51 217.601 115.627 217.441 114.783C217.332 114.209 217.311 113.647 217.323 113.092C217.33 112.747 217.528 110.337 217.038 110.376C216.304 110.434 215.721 111.203 214.9 110.924C213.938 110.597 214.23 110.907 214.389 111.882C214.622 113.317 214.541 114.674 214.448 116.046C214.346 117.572 214.542 119.286 214.279 120.759C214.163 121.408 214.2 122.052 214.302 122.733ZM214.302 122.733C214.31 122.787 214.318 122.841 214.327 122.896M198.442 68.1135C198.495 68.1483 198.547 68.1839 198.598 68.2202M198.598 68.2202C199.77 69.0574 200.293 70.2888 201.34 71.2627C202.391 72.2404 203.236 71.7689 204.641 71.549C206.492 71.2591 208.345 70.5378 210.203 70.2811C212.103 70.0186 214.16 69.6558 216.003 68.9622C216.754 68.6797 217.694 68.2615 216.417 68.1783C215.222 68.1003 214.014 68.3509 212.818 68.2182C211.892 68.1155 210.927 68.3893 210.002 68.3447C208.877 68.2904 207.718 68.3555 206.582 68.4053C204.713 68.4872 200.355 68.4119 198.598 68.2202ZM198.598 68.2202C197.762 68.1289 197.515 68.0114 198.406 67.8719M180.218 80.4483C180.276 80.4749 180.333 80.5025 180.388 80.5311M180.388 80.5311C181.669 81.1891 182.366 82.3313 183.543 83.1425C184.726 83.9569 185.493 83.3675 186.851 82.9457C188.64 82.3898 190.368 81.4067 192.17 80.8824C194.011 80.3464 195.994 79.6883 197.716 78.7341C198.418 78.3453 199.287 77.795 198.012 77.8983C196.818 77.9949 195.66 78.4185 194.457 78.4612C193.526 78.4943 192.611 78.9055 191.689 78.9959C190.568 79.1058 189.431 79.3386 188.315 79.5531C186.477 79.906 182.154 80.4652 180.388 80.5311ZM180.388 80.5311C179.548 80.5624 179.286 80.482 180.147 80.2145M213.372 93.8611C213.417 93.7952 213.462 93.7309 213.508 93.668M213.508 93.668C214.575 92.2179 216.044 91.536 217.259 90.2309C218.478 88.9208 218.002 87.9177 217.864 86.2281C217.682 84.0014 217.001 81.7896 216.859 79.5524C216.713 77.2653 216.464 74.7923 215.814 72.5912C215.549 71.6945 215.143 70.575 214.941 72.1216C214.751 73.57 214.941 75.0207 214.688 76.4727C214.492 77.5966 214.729 78.7526 214.6 79.8733C214.444 81.2357 214.423 82.634 214.386 84.0054C214.326 86.2627 213.876 91.5357 213.508 93.668ZM213.508 93.668C213.333 94.6828 213.177 94.9862 213.089 93.9145M150.362 94.5095C150.547 94.5349 149.505 97.1165 149.43 97.3137C148.846 98.8496 148.512 100.759 148.188 102.464C147.916 103.897 147.701 105.365 147.451 106.811C147.307 107.638 147.164 108.454 146.988 109.263C146.9 109.664 146.901 110.097 146.823 110.501C146.748 110.893 146.566 111.21 146.48 111.596C146.337 112.238 146.228 112.997 145.865 113.457C145.646 113.734 145.542 114.416 145.99 114.519C146.2 114.567 146.385 114.679 146.586 114.744C146.779 114.806 146.861 115.117 147.026 115.258C147.429 115.419 147.359 115.399 147.756 115.779C147.982 115.995 148.133 116.21 148.248 116.486C148.312 116.639 148.391 117.131 148.574 117.195C148.694 117.236 151.09 114.616 151.291 114.366L153.178 114.069C153.234 114.044 153.291 114.023 153.349 114.004M150.339 95.1377C150.498 95.7763 150.727 96.2476 151.267 96.3391C151.576 96.3914 151.839 96.3841 152.129 96.3121C152.29 96.2722 152.732 96.041 152.892 96.1503C152.997 96.2212 152.325 99.7082 152.245 100.018C152.079 100.657 151.787 101.231 151.555 101.815C151.353 102.322 151.282 102.931 151.055 103.419C150.611 104.372 150.457 105.599 150.084 106.627C149.614 107.926 149.059 111.132 148.592 112.44C149.475 111.054 149.656 110.929 150.83 109.652C151.817 108.578 152.868 107.529 153.877 106.465C154.455 105.856 155.025 105.254 155.569 104.629C155.838 104.32 156.186 104.062 156.463 103.759C156.733 103.463 156.878 103.129 157.137 102.829C157.566 102.331 158.111 101.791 158.263 101.225C158.354 100.884 158.839 100.393 159.189 100.691C159.353 100.831 159.553 100.912 159.726 101.035C159.891 101.153 160.189 101.033 160.4 101.082C160.893 101.195 161.407 101.042 160.986 101.593C160.025 102.848 158.943 104.1 158.08 105.394C157.31 106.55 156.064 107.535 155.303 108.687C155.555 108.848 156.313 109.022 157.327 108.436C158.342 107.849 161.905 104.282 163.559 102.571C164.781 103.304 167.005 104.697 166.125 104.404C165.245 104.111 159.455 109.955 156.228 113.201C157.273 113.049 157.13 112.695 158.036 112.214C160.264 111.034 162.38 109.647 164.583 108.421C165.58 107.867 166.515 107.115 167.445 106.452C167.72 106.256 168.104 105.794 168.445 105.738C168.696 105.697 168.656 106.047 168.718 106.192C169.123 107.143 169.643 107.654 170.418 108.289C170.814 108.613 169.208 108.725 168.986 108.761C166.976 109.092 164.98 110.536 163.424 111.778C161.85 113.036 160.291 114.344 158.596 115.436C157.643 116.051 156.723 116.851 155.835 117.56C155.344 117.952 154.667 118.756 154.727 117.712C154.766 117.037 154.753 116.239 154.568 115.587C154.477 115.265 154.409 114.553 154.127 114.346C154.058 114.295 153.528 114.09 153.349 114.004M153.294 113.965C153.278 113.966 153.302 113.981 153.349 114.004M186.162 101.732C185.717 101.755 185.675 103.947 185.745 104.128C185.973 104.721 186.428 105.165 186.709 105.696C187.127 106.485 190.505 103.272 191.045 102.818C192.495 101.598 194.304 100.911 195.752 99.7211C196.341 99.236 197.296 98.8767 198.029 98.7532C198.805 98.6223 199.573 98.33 200.337 98.2169C200.906 98.1325 200.245 97.0257 200.065 96.7799C199.573 96.1056 199.267 95.5702 198.922 94.8511C198.605 94.1908 197.61 95.3646 197.335 95.6027C196.716 96.1386 196.1 96.6468 195.447 97.13C193.607 98.4909 191.626 99.5716 189.723 100.822C188.626 101.543 187.354 101.787 186.136 102.098M181.763 92.2011C181.318 92.2246 181.276 94.4164 181.346 94.5973C181.575 95.1901 182.029 95.6348 182.31 96.1657C182.728 96.9546 186.106 93.7419 186.646 93.2875C188.097 92.0679 189.905 91.3806 191.353 90.1905C191.943 89.7055 192.898 89.3462 193.63 89.2227C194.407 89.0918 195.174 88.7995 195.938 88.6864C196.508 88.602 195.846 87.4952 195.666 87.2494C195.174 86.5751 194.869 86.0397 194.524 85.3206C194.207 84.6603 193.211 85.8341 192.936 86.0722C192.318 86.6081 191.701 87.1163 191.048 87.5995C189.209 88.9604 187.228 90.0411 185.324 91.2913C184.227 92.0122 182.955 92.256 181.737 92.5672M182.35 113.005C181.907 112.954 181.5 115.108 181.539 115.298C181.666 115.921 182.039 116.435 182.228 117.006C182.508 117.853 186.375 115.248 186.983 114.891C188.617 113.93 190.515 113.554 192.14 112.622C192.803 112.242 193.804 112.047 194.547 112.047C195.335 112.047 196.14 111.887 196.912 111.903C197.488 111.915 197.02 110.713 196.884 110.441C196.511 109.694 196.299 109.115 196.079 108.348C195.876 107.644 194.699 108.636 194.388 108.825C193.689 109.25 192.996 109.648 192.272 110.016C190.231 111.051 188.098 111.786 186.013 112.702C184.811 113.23 183.516 113.258 182.263 113.362M155.301 118.769C155.513 118.533 156.337 118.812 156.608 118.954C157.022 119.173 157.083 119.85 157.069 120.246C157.038 121.123 157.214 123.31 156.391 123.91C155.985 124.206 156.676 123.949 156.822 123.877C157.549 123.516 158.317 123.236 159.045 122.876C160.277 122.265 161.448 122.025 162.802 121.811C165.372 121.406 167.921 121.228 170.4 120.448C172.46 119.8 174.481 118.713 176.597 118.29C176.894 118.231 178.092 118.298 178.105 118.029C178.145 117.194 177.67 116.348 177.893 115.529C177.935 115.375 178.203 114.778 178.027 114.671C177.575 114.397 176.347 115.164 175.971 115.356C173.813 116.455 170.688 116.475 168.369 116.919C166.276 117.319 164.02 118.192 161.886 118.355C160.973 118.425 160.118 118.636 159.204 118.387L157.184 117.836C156.793 117.729 155.845 118.013 155.868 118.019M159.468 130.166C159.75 130.31 160.419 129.753 160.62 129.522C160.928 129.169 160.741 128.516 160.585 128.151C160.241 127.344 159.617 125.24 158.634 124.977C158.148 124.847 158.886 124.838 159.048 124.853C159.856 124.927 160.674 124.912 161.482 124.987C162.852 125.113 164.03 124.916 165.371 124.628C167.915 124.081 170.357 123.329 172.95 123.165C175.106 123.028 177.382 123.315 179.508 122.948C179.807 122.896 180.901 122.402 181.01 122.649C181.347 123.413 181.208 124.374 181.712 125.058C181.806 125.186 182.272 125.646 182.145 125.81C181.823 126.228 180.401 125.955 179.98 125.911C177.571 125.662 174.649 126.767 172.325 127.189C170.229 127.569 167.809 127.567 165.76 128.182C164.883 128.445 164.009 128.556 163.247 129.117L161.56 130.359C161.234 130.599 160.247 130.676 160.266 130.661M171.02 132.26C171.212 132.057 171.931 132.32 172.166 132.452C172.527 132.653 172.565 133.251 172.544 133.599C172.497 134.371 172.604 136.3 171.866 136.81C171.502 137.061 172.117 136.851 172.246 136.79C172.895 136.489 173.577 136.259 174.225 135.958C175.324 135.447 176.36 135.261 177.557 135.103C179.829 134.803 182.077 134.702 184.276 134.07C186.104 133.545 187.908 132.633 189.78 132.307C190.043 132.261 191.096 132.347 191.113 132.11C191.167 131.376 190.767 130.62 190.982 129.904C191.022 129.77 191.272 129.25 191.118 129.152C190.727 128.901 189.629 129.549 189.293 129.71C187.369 130.63 184.618 130.579 182.566 130.918C180.714 131.224 178.709 131.943 176.827 132.04C176.021 132.082 175.264 132.249 174.465 132.009L172.699 131.479C172.357 131.377 171.515 131.606 171.536 131.612M207.003 128.385C206.707 128.713 207.055 128.107 207.087 127.931C207.177 127.448 207.217 126.911 207.137 126.414C207.034 125.774 206.133 125.447 205.645 124.996C205.363 124.736 204.4 124.61 204.078 124.774C203.461 125.088 203.301 125.727 202.784 126.146C201.623 127.088 200.186 127.271 198.638 127.605C197.781 127.79 197.143 127.968 196.224 127.934C195.627 127.912 194.817 127.726 194.247 127.833C193.766 127.922 193.304 127.817 193.216 128.29C193.079 129.031 193.6 129.483 194.105 130.075C194.457 130.488 194.402 131.03 194.923 131.334C195.576 131.716 196.5 131.506 197.101 131.311C199.114 130.66 201.627 130.78 203.433 129.796C203.909 129.537 204.609 129.214 205.2 129.16C205.74 129.11 206.257 128.976 206.794 128.951C207.112 128.937 207.396 128.423 207.131 128.715M197.243 122.398C196.87 122.761 197.359 122.068 197.432 121.86C197.632 121.286 197.796 120.642 197.831 120.033C197.875 119.248 197.047 118.751 196.662 118.151C196.44 117.805 195.503 117.545 195.143 117.707C194.452 118.017 194.143 118.771 193.53 119.219C192.149 120.226 190.666 120.284 189.037 120.513C188.136 120.64 187.455 120.783 186.541 120.639C185.948 120.546 185.179 120.23 184.583 120.294C184.081 120.348 183.641 120.169 183.445 120.731C183.137 121.61 183.555 122.214 183.924 122.986C184.182 123.525 184.002 124.174 184.454 124.6C185.021 125.135 185.996 124.985 186.643 124.818C188.811 124.257 191.302 124.686 193.339 123.701C193.876 123.441 194.652 123.13 195.257 123.131C195.81 123.132 196.358 123.028 196.902 123.059C197.224 123.078 197.628 122.488 197.295 122.812M157.22 139.736C157.773 139.498 157.632 138.194 157.553 137.74C157.505 137.466 157.011 136.543 157.157 136.301C157.456 135.804 158.794 136.458 159.243 136.492C159.73 136.528 160.287 136.26 160.75 136.119C161.52 135.884 162.337 135.951 163.128 135.709C163.947 135.459 164.791 135.248 165.595 134.955C166.154 134.752 166.718 134.226 167.273 133.958C167.797 133.705 168.258 133.507 168.827 133.333C169.626 133.089 168.638 135.345 168.664 135.683C168.743 136.684 166.969 136.535 166.448 136.995C165.787 137.578 164.638 137.395 163.916 137.884C163.396 138.236 162.76 138.36 162.161 138.543C160.658 139.003 159.137 139.151 157.655 139.603M133.668 130.006C135.408 127.668 137.676 125.674 139.544 123.397C140.589 122.124 141.558 120.685 142.459 119.338C143.06 118.44 144.781 116.649 146.036 117.441C146.474 117.717 146.919 118.487 147.032 118.984C147.21 119.77 146.867 120.285 146.555 120.95C146.24 121.622 145.772 122.314 145.087 122.707C144.347 123.132 143.58 123.754 142.804 124.084C140.763 124.953 139.294 127.248 137.87 128.863C137.214 129.606 136.23 130.261 135.709 131.086C135.132 132.001 134.468 132.859 133.978 133.839C133.513 134.769 133.135 135.705 133.057 136.732C133.045 136.885 132.876 137.716 133.215 137.522C133.798 137.187 134.115 136.176 134.469 135.614C136.063 133.087 138.117 130.914 140.748 129.54C141.789 128.996 142.48 128.086 143.342 127.315C144.28 126.476 144.965 125.42 145.835 124.52C146.822 123.499 148.115 122.792 148.884 121.573C149.514 120.575 149.984 119.245 151.265 118.955C152.194 118.745 152.998 120.047 153.401 120.729C153.638 121.13 153.79 121.475 153.892 121.926C154.004 122.417 153.491 122.855 153.274 123.27C153.044 123.714 152.749 124.155 152.401 124.521C152.061 124.879 151.453 125.206 151.196 125.613C150.542 126.649 150.144 127.475 148.923 127.917C148.392 128.109 147.936 128.411 147.476 128.733C146.932 129.114 146.268 129.367 145.772 129.807C144.808 130.661 143.526 131.25 142.64 132.181C141.636 133.238 140.618 134.268 139.633 135.347C139.204 135.816 138.789 136.286 138.391 136.77C139.126 136.624 139.879 136.521 140.553 136.368C141.299 136.199 142.043 135.627 142.633 135.154C143.365 134.568 144.21 134.128 144.839 133.409C145.385 132.786 145.973 132.209 146.571 131.634C147.521 130.719 148.727 130.121 149.687 129.222C150.479 128.48 151.442 127.792 152.447 127.365C153.127 127.075 153.898 126.658 154.611 126.497C155.404 126.317 156.205 126.345 156.977 126.581C157.293 126.677 157.375 127.334 157.374 127.606C157.373 128.293 157.053 128.439 156.659 128.945C156.056 129.717 155.824 130.744 155.148 131.455C154.422 132.218 153.47 132.6 152.567 133.099C151.743 133.553 150.894 134.051 149.923 134.096C149.256 134.127 148.326 134.041 147.696 134.263C147.047 134.493 146.429 134.778 145.81 135.082C145.036 135.463 144.389 136.097 143.687 136.588C142.837 137.183 140.959 138.28 140.053 138.787M140.053 138.787C139.45 138.807 136.003 140.01 136.999 138.432C137.349 137.877 137.661 137.393 138.106 136.908M140.053 138.787C140.484 138.772 140.92 138.866 141.35 138.892C142.121 138.94 143.028 138.581 143.768 138.414C144.695 138.204 145.636 138.088 146.57 137.904C147.946 137.632 149.392 138.536 150.474 137.501C150.902 137.091 151.168 136.783 151.368 136.218C151.519 135.79 151.767 135.642 151.948 135.193C152.069 134.892 152.564 134.339 152.954 134.435C153.404 134.546 154.107 134.597 154.191 134.969C154.296 135.433 154.436 136.133 154.852 136.446C155.113 136.974 155.406 138.847 154.919 139.332C154.051 140.197 152.79 140.027 151.673 140.225C150.559 140.422 149.962 140.805 148.857 141.055C147.413 141.382 146.86 142.063 145.419 142.389C143.794 142.757 144.677 143.234 143.043 143.604C141.792 143.887 141.642 143.948 140.562 144.607C139.429 145.299 138.837 144.872 138.115 145.183C136.787 145.755 135.696 145.434 134.852 145.952M139.278 173.05L141.157 173.888C141.739 174.148 142.022 174.653 142.331 175.093C142.841 175.819 142.792 175.826 142.343 176.206C141.919 176.564 140.818 177.044 140.101 177.097C139.663 177.129 139.511 177.458 138.98 177.439C138.699 177.429 137.91 177.295 137.852 176.918C137.786 176.483 137.826 175.855 137.914 175.452C137.955 175.268 138.008 175.159 137.947 174.948C137.867 174.665 137.467 174.43 137.417 174.192L139.278 173.05ZM156.905 199.113L158.784 199.951C159.366 200.211 159.648 200.716 159.957 201.156C160.467 201.882 160.419 201.889 159.969 202.269C159.545 202.627 158.444 203.107 157.727 203.16C157.289 203.192 157.137 203.521 156.606 203.502C156.325 203.492 155.536 203.358 155.479 202.981C155.412 202.546 155.452 201.918 155.54 201.515C155.581 201.331 155.634 201.222 155.574 201.011C155.493 200.728 155.093 200.493 155.043 200.255L156.905 199.113ZM182.897 174.818C182.234 175.477 181.859 176.415 181.284 177.185C181.16 177.352 180.869 177.472 180.833 177.739C180.709 178.674 182.982 179.102 183.372 179.39C184.149 179.964 185.146 180.495 185.84 181.278C186.456 181.973 187.055 182.853 187.705 183.466C188.064 183.804 187.576 182.54 187.508 182.396C187.157 181.644 186.858 180.803 186.467 180.092C185.983 179.212 185.27 178.426 184.856 177.517C184.552 176.85 184.071 176.349 183.79 175.701C183.665 175.41 182.782 174.191 182.897 174.818ZM182.264 183.211C181.595 183.863 181.21 184.798 180.627 185.562C180.501 185.727 180.209 185.844 180.171 186.111C180.037 187.045 182.305 187.496 182.692 187.788C183.463 188.37 184.455 188.912 185.141 189.702C185.75 190.403 186.339 191.288 186.983 191.908C187.339 192.25 186.863 190.981 186.797 190.836C186.454 190.081 186.164 189.237 185.78 188.522C185.305 187.637 184.601 186.843 184.196 185.93C183.898 185.261 183.423 184.754 183.149 184.103C183.026 183.811 182.156 182.584 182.264 183.211ZM173.683 190.987C174.077 190.139 174.832 189.467 175.36 188.664C175.474 188.491 175.488 188.176 175.727 188.052C176.564 187.616 177.74 189.608 178.144 189.877C178.948 190.412 179.787 191.168 180.759 191.555C181.623 191.897 182.653 192.161 183.451 192.563C183.892 192.786 182.537 192.757 182.378 192.743C181.552 192.669 180.659 192.674 179.858 192.548C178.865 192.393 177.883 191.99 176.888 191.91C176.158 191.851 175.522 191.569 174.817 191.527C174.501 191.507 173.055 191.092 173.683 190.987ZM140.962 108.218L142.558 106.169C143.052 105.534 143.067 104.804 143.151 104.132C143.288 103.02 143.23 103.041 142.504 102.884C141.82 102.737 140.308 102.855 139.478 103.221C138.971 103.445 138.606 103.168 138.027 103.505C137.719 103.683 136.92 104.3 137.079 104.754C137.263 105.278 137.68 105.954 138.018 106.351C138.172 106.532 138.295 106.622 138.354 106.893C138.432 107.256 138.125 107.754 138.211 108.049L140.962 108.218ZM150.038 71.6762L151.941 73.4436C152.53 73.9911 153.256 74.0695 153.919 74.2108C155.015 74.4443 154.999 74.3847 155.218 73.675C155.424 73.0059 155.438 71.4894 155.145 70.6309C154.965 70.1063 155.273 69.7671 154.988 69.1605C154.836 68.8385 154.292 67.9887 153.826 68.1081C153.287 68.246 152.578 68.6029 152.153 68.9048C151.96 69.0428 151.859 69.158 151.584 69.1926C151.216 69.2389 150.746 68.8903 150.444 68.9502L150.038 71.6762ZM193.421 69.7182L194.452 70.6752C194.771 70.9716 195.164 71.0141 195.523 71.0906C196.116 71.2171 196.107 71.1848 196.226 70.8005C196.338 70.4382 196.345 69.617 196.186 69.1521C196.089 68.8681 196.256 68.6844 196.101 68.3559C196.02 68.1815 195.725 67.7214 195.472 67.7861C195.181 67.8607 194.796 68.054 194.567 68.2175C194.462 68.2922 194.407 68.3546 194.258 68.3733C194.059 68.3984 193.804 68.2096 193.641 68.242L193.421 69.7182ZM157.694 84.6118C158.137 84.4586 158.989 84.3441 159.432 84.1909C159.844 84.0484 160.066 83.7213 160.302 83.4403C160.693 82.9762 160.66 82.9685 160.377 82.6833C160.109 82.4145 159.388 82.0223 158.903 81.9439C158.607 81.8961 158.523 81.663 158.16 81.6448C157.968 81.6352 157.423 81.6793 157.361 81.9326C157.29 82.2249 157.281 82.6549 157.317 82.9346C157.334 83.0624 157.363 83.1396 157.31 83.2799C157.238 83.4678 156.276 84.4524 156.228 84.6118H157.694ZM199.413 110.488C199.301 109.387 199.662 107.979 199.712 106.75C199.723 106.483 199.547 106.235 199.714 105.855C200.302 104.521 202.707 104.564 203.281 104.274C204.424 103.695 205.737 103.237 206.961 102.345C208.047 101.553 209.255 100.5 210.312 99.8314C210.895 99.4619 209.498 101.08 209.328 101.262C208.442 102.206 207.537 103.29 206.645 104.167C205.541 105.253 204.297 106.145 203.235 107.29C202.456 108.13 201.639 108.691 200.895 109.513C200.562 109.881 198.838 111.325 199.413 110.488ZM202.006 119.98C201.143 119.176 200.631 118.008 199.874 117.06C199.71 116.855 199.338 116.716 199.282 116.381C199.086 115.206 201.935 114.572 202.415 114.192C203.372 113.436 204.607 112.725 205.45 111.708C206.199 110.806 206.917 109.672 207.712 108.872C208.151 108.43 207.587 110.045 207.508 110.23C207.097 111.193 206.754 112.266 206.291 113.179C205.717 114.309 204.85 115.33 204.365 116.494C204.009 117.347 203.423 118 203.097 118.829C202.95 119.201 201.887 120.775 202.006 119.98ZM203.31 94.2137C202.439 93.4184 201.915 92.2557 201.147 91.3162C200.982 91.113 200.608 90.9773 200.549 90.6428C200.341 89.47 203.184 88.8064 203.66 88.4222C204.608 87.6565 205.836 86.9321 206.669 85.9071C207.408 84.9972 208.115 83.8562 208.901 83.0478C209.336 82.6009 208.789 84.2219 208.711 84.4076C208.31 85.3744 207.978 86.4512 207.524 87.3686C206.962 88.5046 206.106 89.5348 205.633 90.7033C205.286 91.5604 204.707 92.2189 204.389 93.0517C204.246 93.4251 203.199 95.0096 203.31 94.2137ZM195.724 83.2731C196.257 84.3256 197.237 85.142 197.936 86.1328C198.088 86.3472 198.118 86.7432 198.425 86.89C199.499 87.4048 200.9 84.8439 201.398 84.4883C202.39 83.7798 203.417 82.7907 204.627 82.2633C205.702 81.7951 206.991 81.4202 207.981 80.8791C208.528 80.5801 206.819 80.6729 206.62 80.6975C205.58 80.8254 204.454 80.856 203.449 81.0476C202.204 81.2849 200.982 81.8333 199.729 81.9758C198.81 82.0804 198.021 82.4619 197.133 82.5452C196.735 82.5825 194.928 83.1667 195.724 83.2731ZM170.068 74.574C170.827 75.2851 171.786 75.6372 172.631 76.237C172.813 76.3667 172.988 76.6941 173.246 76.7115C174.148 76.7729 174.06 74.0928 174.246 73.6139C174.616 72.6597 174.899 71.4534 175.482 70.5768C176 69.7986 176.695 69.0246 177.129 68.2142C177.369 67.7662 176.29 68.447 176.169 68.5383C175.541 69.0134 174.818 69.4361 174.237 69.9538C173.517 70.5949 172.935 71.4934 172.173 72.0562C171.615 72.469 171.249 73.0728 170.702 73.4564C170.457 73.6285 169.506 74.7637 170.068 74.574ZM209.421 127.503C209.169 126.493 209.329 125.484 209.216 124.455C209.191 124.232 208.99 123.92 209.1 123.686C209.486 122.868 211.784 124.249 212.293 124.32C213.307 124.462 214.498 124.801 215.548 124.718C216.48 124.644 217.494 124.415 218.413 124.43C218.921 124.438 217.802 125.049 217.663 125.11C216.943 125.428 216.222 125.853 215.486 126.109C214.576 126.426 213.508 126.498 212.645 126.889C212.013 127.176 211.307 127.202 210.706 127.493C210.436 127.623 208.982 127.901 209.421 127.503Z" stroke="#00FFE0" stroke-linecap="round"/>
<path d="M114.353 158.403C113.495 158.615 112.801 159.664 112.516 160.458C111.85 162.308 110.739 163.956 109.431 165.44C108.71 166.258 108.139 167.148 107.381 167.92C106.841 168.47 106.141 168.714 105.502 169.097C104.745 169.553 104.994 170.153 105.452 170.666C105.656 170.894 106.037 170.923 106.273 171.104C106.393 171.196 106.566 171.225 106.698 171.317C106.9 171.457 107.353 171.856 107.63 171.804C108.454 171.648 108.836 171.204 109.282 170.507C109.925 169.503 110.688 168.57 111.309 167.54C112.451 165.647 112.959 163.401 114.169 161.561C114.239 161.454 114.31 161.331 114.383 161.193M101.857 178.936C101.705 178.381 102.19 176.802 102.937 177.278C103.155 177.417 103.613 177.788 103.874 177.771C104.265 177.746 104.698 178.075 105.05 177.985C105.411 177.892 105.539 178.495 105.461 178.75C105.389 178.988 105.477 179.325 105.349 179.534C105.045 180.028 104.74 180.514 104.415 181.001C104.075 181.511 103.904 181.994 103.694 182.564C103.475 183.157 103.16 183.722 102.977 184.324C102.633 185.457 102.227 186.622 101.723 187.702C101.104 189.031 100.575 190.326 100.069 191.698C99.703 192.692 99.3998 193.71 99.0321 194.707C98.5554 196 97.783 197.171 97.1104 198.364C96.7737 198.962 96.6174 199.638 96.2918 200.247C95.9279 200.928 95.6478 201.646 95.3799 202.373C95.313 202.554 95.2631 202.771 95.1669 202.939C95.1359 202.994 95.2129 202.432 95.231 202.342C95.3684 201.658 95.4527 200.993 95.5332 200.304C95.6696 199.138 96.1766 198.024 96.4313 196.879C96.9844 194.394 98.1026 192.059 98.6702 189.579C98.7912 189.05 98.9236 188.498 99.1929 188.02C99.5678 187.355 99.6099 186.52 99.9499 185.825C100.22 185.273 100.474 184.643 100.686 184.068C100.859 183.6 101.141 183.118 101.182 182.616C101.241 181.872 101.233 180.935 101.577 180.272C101.676 180.08 102.025 178.984 101.77 178.976M97.0731 188.465C96.9269 188.44 97.8193 186.423 97.8838 186.269C98.3866 185.068 98.701 183.564 99.0019 182.223C99.2548 181.095 99.4627 179.938 99.6989 178.8C99.8341 178.148 99.9685 177.506 100.13 176.869C100.209 176.554 100.22 176.211 100.292 175.894C100.362 175.585 100.514 175.339 100.592 175.035C100.723 174.531 100.828 173.932 101.128 173.578C101.308 173.364 101.409 172.827 101.057 172.733C100.892 172.69 100.748 172.596 100.59 172.539C100.439 172.485 100.382 172.237 100.255 172.121C99.9401 171.983 99.9949 172 99.6909 171.69C99.5175 171.512 99.4034 171.338 99.3192 171.117C99.2725 170.994 99.2233 170.602 99.0794 170.547C98.9861 170.511 97.02 172.524 96.8546 172.716C96.5138 173.113 96.2722 173.562 95.9971 173.977C95.7584 174.338 95.394 174.659 95.1789 175.028C94.7592 175.747 94.0305 176.402 93.5294 177.109C92.8968 178.002 91.8846 178.749 91.2446 179.644C90.5275 180.647 89.6375 181.61 88.8441 182.579C88.4959 183.004 88.9072 182.897 89.2945 182.999C89.4609 183.043 89.6997 182.956 89.8274 183.054C89.9608 183.156 90.1175 183.225 90.2438 183.34C90.5132 183.585 90.9098 183.209 90.9913 182.941C91.1263 182.497 91.5715 182.084 91.9247 181.7C92.137 181.47 92.2607 181.209 92.4822 180.982C92.7096 180.749 92.9921 180.554 93.2133 180.316C93.6603 179.835 94.1269 179.373 94.6004 178.906C95.4278 178.09 96.2868 177.286 97.0964 176.462C98.0595 175.481 98.2064 175.387 98.9419 174.312C98.538 175.336 98.0147 177.86 97.6085 178.876C97.2867 179.681 97.1328 180.648 96.7566 181.391C96.5639 181.772 96.492 182.253 96.3189 182.649C96.1194 183.105 95.8734 183.552 95.7254 184.054C95.6536 184.297 95.031 187.041 95.1118 187.1C95.2364 187.191 95.5923 187.019 95.7207 186.992C95.9523 186.942 96.1607 186.944 96.4037 186.993C96.8296 187.079 96.9986 187.459 97.1075 187.969M90.0783 186.875C90.0491 186.875 90.0194 186.874 89.9892 186.871M89.9892 186.871C89.1078 186.807 87.833 185.949 87.4347 185.277C87.2801 185.016 83.6161 188.806 83.1968 189.293C82.9116 189.625 82.5803 189.909 82.2327 190.176C82.0165 190.341 80.4189 191.427 80.7425 191.637C81.2264 191.951 82.0546 191.848 82.3859 192.368C82.7738 192.977 82.7852 192.689 83.2855 192.138C84.0224 191.327 84.9039 190.701 85.8011 190.073C86.7997 189.375 87.7294 188.445 88.7936 187.848C89.2623 187.584 89.6345 187.252 89.9892 186.871ZM89.9892 186.871C90.0174 186.841 90.0456 186.81 90.0737 186.78M96.2698 190.271C96.2431 190.27 96.2159 190.269 96.1882 190.266M96.1882 190.266C95.3807 190.179 94.2033 189.158 93.8304 188.365C93.6857 188.058 90.3789 192.454 90.0012 193.02C89.7442 193.405 89.4445 193.734 89.1296 194.042C88.9338 194.233 87.4849 195.486 87.7837 195.736C88.2304 196.11 88.9873 195.999 89.2969 196.613C89.6595 197.331 89.6664 196.994 90.1174 196.355C90.782 195.413 91.581 194.691 92.3945 193.966C93.2999 193.16 94.1393 192.082 95.106 191.395C95.5318 191.092 95.8683 190.707 96.1882 190.266ZM96.1882 190.266C96.2137 190.23 96.2391 190.195 96.2644 190.159M83.0436 203.021C83.026 203.001 83.009 202.98 82.9925 202.957M82.9925 202.957C82.51 202.304 82.4653 200.746 82.7968 199.935C82.9255 199.621 77.451 200.159 76.7786 200.264C76.3212 200.335 75.8759 200.338 75.4362 200.314C75.1629 200.299 73.2602 200.079 73.278 200.469C73.3046 201.051 73.8986 201.533 73.6563 202.176C73.3724 202.929 73.6255 202.706 74.4013 202.606C75.5443 202.458 76.6168 202.558 77.7006 202.667C78.907 202.788 80.2688 202.677 81.4288 202.924C81.9397 203.033 82.451 203.02 82.9925 202.957ZM82.9925 202.957C83.0356 202.952 83.079 202.947 83.1225 202.941M54.9863 169.71C54.9662 169.728 54.9449 169.745 54.9225 169.762M54.9225 169.762C54.2692 170.244 52.7115 170.289 51.9005 169.957C51.5859 169.828 52.1246 175.303 52.2293 175.975C52.3006 176.433 52.3027 176.878 52.279 177.318C52.2642 177.591 52.0446 179.494 52.434 179.476C53.0162 179.449 53.4982 178.855 54.1413 179.098C54.8944 179.382 54.6713 179.128 54.5711 178.353C54.4234 177.21 54.5233 176.137 54.6322 175.053C54.7534 173.847 54.6423 172.485 54.8894 171.325C54.9982 170.814 54.9855 170.303 54.9225 169.762ZM54.9225 169.762C54.9175 169.718 54.9121 169.675 54.9065 169.631M66.0511 202.873C66.0087 202.846 65.9672 202.818 65.9268 202.79M65.9268 202.79C64.9938 202.133 64.5722 201.16 63.7371 200.394C62.8987 199.626 62.2317 200.004 61.1202 200.186C59.6552 200.426 58.1911 201.008 56.72 201.222C55.216 201.441 53.5882 201.74 52.1318 202.3C51.5384 202.528 50.7963 202.865 51.808 202.923C52.7555 202.978 53.7111 202.773 54.6598 202.871C55.3941 202.947 56.1572 202.725 56.8906 202.755C57.7821 202.792 58.6997 202.734 59.5993 202.688C61.0801 202.612 64.5336 202.648 65.9268 202.79ZM65.9268 202.79C66.5899 202.857 66.7863 202.949 66.0812 203.064M80.7681 194.439C80.723 194.417 80.6788 194.393 80.6356 194.369M80.6356 194.369C79.6384 193.815 79.1164 192.892 78.2049 192.219C77.2899 191.543 76.6667 191.99 75.5806 192.289C74.1493 192.683 72.755 193.416 71.3147 193.784C69.8423 194.161 68.2552 194.63 66.8662 195.341C66.3003 195.631 65.5979 196.044 66.6102 195.995C67.5581 195.95 68.4867 195.645 69.4404 195.642C70.1787 195.64 70.914 195.338 71.6464 195.291C72.5369 195.233 73.4432 195.078 74.3329 194.938C75.7973 194.706 79.2352 194.376 80.6356 194.369ZM80.6356 194.369C81.3021 194.366 81.5071 194.437 80.8182 194.626M55.4533 186.81C55.4156 186.843 55.3775 186.875 55.339 186.907M55.339 186.907C54.453 187.625 53.4022 187.766 52.4379 188.361C51.4699 188.958 51.6523 189.703 51.5248 190.822C51.3568 192.297 51.518 193.865 51.3231 195.338C51.1239 196.845 50.9683 198.493 51.1103 200.047C51.1682 200.68 51.2899 201.485 51.622 200.528C51.9331 199.631 51.9958 198.656 52.3488 197.77C52.6221 197.084 52.616 196.289 52.8447 195.592C53.1228 194.744 53.3169 193.845 53.5178 192.967C53.8485 191.522 54.823 188.209 55.339 186.907ZM55.339 186.907C55.5847 186.287 55.7264 186.123 55.6456 186.833M95.6712 171.123C95.6823 171.118 95.6613 171.112 95.6204 171.106M95.6204 171.106C95.4639 171.083 95.0155 171.052 94.9513 171.03C94.6893 170.939 94.4706 170.416 94.3264 170.194C94.0335 169.743 93.8372 169.142 93.7086 168.622C93.5094 167.817 93.1852 168.585 92.9053 168.997C92.3996 169.742 91.8904 170.563 91.3128 171.251C90.2861 172.475 89.4118 173.83 88.5148 175.151C87.6283 176.456 86.4558 178.016 85.0121 178.737C84.8525 178.817 83.6631 179.278 84.0388 179.431C84.7737 179.729 85.2875 179.995 85.8163 180.62C85.8973 180.715 85.949 180.989 86.1294 180.899C86.3745 180.777 86.5569 180.338 86.7192 180.125C87.2679 179.405 87.7994 178.617 88.4243 177.963C89.8048 176.52 91.0815 174.974 92.4911 173.559C93.0649 172.983 93.4077 172.108 94.1633 171.747C94.6616 171.51 95.1988 171.409 95.6204 171.106ZM95.6204 171.106C95.6595 171.078 95.6976 171.048 95.7346 171.017M83.1561 183.61C83.5094 183.603 83.5995 181.868 83.5489 181.723C83.3832 181.248 83.035 180.884 82.8262 180.456C82.5159 179.82 79.7568 182.277 79.3172 182.622C78.137 183.55 76.6867 184.048 75.5094 184.952C75.0296 185.321 74.2639 185.581 73.6806 185.66C73.0623 185.743 72.4468 185.954 71.839 186.024C71.3858 186.076 71.8811 186.97 72.0168 187.169C72.3891 187.716 72.6169 188.148 72.8716 188.726C73.1053 189.258 73.9243 188.354 74.1481 188.173C74.6521 187.764 75.1535 187.378 75.6833 187.012C77.1753 185.982 78.7724 185.178 80.3121 184.238C81.1999 183.695 82.2136 183.535 83.1864 183.321M76.5581 180.678C76.9114 180.671 77.0015 178.936 76.9509 178.791C76.7852 178.316 76.437 177.952 76.2282 177.524C75.9179 176.888 73.1588 179.344 72.7192 179.69C71.539 180.618 70.0887 181.115 68.9114 182.02C68.4316 182.389 67.6659 182.649 67.0826 182.727C66.4644 182.811 65.8488 183.022 65.241 183.092C64.7878 183.144 65.2831 184.038 65.4188 184.237C65.7911 184.784 66.0189 185.216 66.2736 185.794C66.5074 186.325 67.3263 185.422 67.5501 185.24C68.0541 184.832 68.5555 184.446 69.0853 184.08C70.5773 183.05 72.1744 182.246 73.7141 181.305C74.6019 180.763 75.6156 180.603 76.5884 180.388M93.3067 166.097C93.2605 166.343 92.5872 166.493 92.3454 166.507C91.9746 166.529 91.6554 166.095 91.5023 165.821C91.1632 165.214 90.1462 163.804 90.4578 163.06C90.6115 162.693 90.2481 163.151 90.1792 163.259C89.8342 163.803 89.4286 164.308 89.0839 164.851C88.4993 165.771 87.8048 166.414 86.9745 167.115C85.3993 168.445 83.7448 169.612 82.3854 171.158C81.2555 172.443 80.332 174.01 79.072 175.165C78.8948 175.327 78.055 175.773 78.1571 175.961C78.4727 176.543 79.1425 176.922 79.3272 177.569C79.362 177.69 79.4252 178.205 79.5889 178.205C80.007 178.205 80.5246 177.181 80.7011 176.896C81.7118 175.265 83.8209 173.969 85.2111 172.716C86.4653 171.586 87.6357 170.068 89.0141 169.081C89.6044 168.658 90.097 168.164 90.8185 167.958L92.414 167.502C92.7227 167.414 93.249 166.832 93.2307 166.838M73.3554 164.185C73.4963 163.978 74.1731 164.11 74.4006 164.193C74.7494 164.321 74.8687 164.846 74.8995 165.158C74.9679 165.851 75.3371 167.549 74.7541 168.107C74.4666 168.382 74.9826 168.108 75.0892 168.036C75.6225 167.676 76.196 167.374 76.7289 167.015C77.6324 166.404 78.526 166.092 79.5672 165.781C81.5424 165.191 83.5254 164.782 85.3894 163.907C86.9385 163.181 88.4108 162.113 90.0273 161.558C90.2546 161.48 91.2026 161.406 91.1842 161.193C91.1274 160.533 90.6645 159.919 90.7534 159.252C90.7701 159.127 90.9178 158.63 90.7677 158.564C90.3844 158.397 89.501 159.129 89.2254 159.32C87.6473 160.411 85.1959 160.758 83.421 161.351C81.8197 161.886 80.1404 162.81 78.4826 163.164C77.7726 163.316 77.1237 163.572 76.3799 163.473L74.7352 163.253C74.4169 163.211 73.702 163.534 73.7209 163.536M81.1426 160.29C81.0007 160.459 80.4194 160.283 80.2275 160.19C79.9332 160.047 79.8753 159.576 79.876 159.3C79.8775 158.687 79.7047 157.166 80.265 156.729C80.5414 156.513 80.0648 156.708 79.9651 156.762C79.4659 157.03 78.9366 157.243 78.4378 157.511C77.5919 157.966 76.7813 158.16 75.8414 158.34C74.0584 158.682 72.2845 158.864 70.5737 159.465C69.1518 159.965 67.7671 160.769 66.3014 161.112C66.0953 161.161 65.2581 161.141 65.2553 161.329C65.2466 161.912 65.5977 162.492 65.4606 163.068C65.4348 163.176 65.2613 163.599 65.3871 163.67C65.7081 163.85 66.547 163.287 66.8054 163.145C68.285 162.328 70.4637 162.242 72.0715 161.88C73.5221 161.553 75.0755 160.892 76.5595 160.729C77.1951 160.659 77.7864 160.493 78.4293 160.646L79.8509 160.984C80.126 161.049 80.7811 160.829 80.7648 160.826M52.6734 164.75C52.9026 164.485 52.6377 164.971 52.6152 165.111C52.5531 165.495 52.531 165.921 52.6034 166.314C52.6967 166.819 53.4162 167.062 53.8111 167.41C54.0386 167.611 54.8041 167.693 55.0559 167.558C55.5389 167.297 55.6548 166.788 56.056 166.447C56.9587 165.68 58.094 165.509 59.3141 165.217C59.9894 165.055 60.4921 164.902 61.2206 164.912C61.6935 164.918 62.3385 165.051 62.7887 164.956C63.1676 164.877 63.5357 164.952 63.5965 164.575C63.6916 163.986 63.2709 163.638 62.8603 163.178C62.5737 162.857 62.608 162.427 62.1898 162.195C61.6652 161.904 60.9367 162.088 60.4642 162.253C58.8818 162.805 56.8889 162.755 55.4761 163.567C55.1036 163.782 54.5552 164.05 54.0878 164.104C53.6607 164.153 53.2543 164.269 52.8294 164.298C52.5777 164.315 52.3618 164.727 52.5661 164.491M63.3203 172.03C63.4466 171.637 63.362 172.304 63.3884 172.477C63.4609 172.953 63.5854 173.465 63.7879 173.904C64.0485 174.469 64.8124 174.51 65.305 174.787C65.5889 174.946 66.3412 174.78 66.5332 174.533C66.9015 174.06 66.8373 173.417 67.1005 172.876C67.6927 171.658 68.7089 171.066 69.7636 170.301C70.3473 169.877 70.7709 169.524 71.4636 169.286C71.9134 169.131 72.569 169.066 72.9628 168.8C73.2941 168.575 73.668 168.537 73.597 168.071C73.4859 167.341 72.9689 167.074 72.4233 166.671C72.0425 166.389 71.9282 165.869 71.4533 165.738C70.8576 165.574 70.2309 166.042 69.8401 166.399C68.5313 167.596 66.6283 168.222 65.5687 169.668C65.2893 170.049 64.8621 170.556 64.4381 170.779C64.0506 170.984 63.7057 171.261 63.3134 171.441C63.0811 171.548 63.0176 172.11 63.1301 171.76M91.7737 153.731C91.3291 153.905 91.4073 154.941 91.4581 155.303C91.4887 155.521 91.8558 156.265 91.7341 156.453C91.4846 156.839 90.4418 156.286 90.0874 156.248C89.7025 156.206 89.2543 156.403 88.8836 156.504C88.2679 156.67 87.6229 156.595 86.9897 156.766C86.3348 156.943 85.6613 157.088 85.0166 157.299C84.5684 157.446 84.1086 157.847 83.6616 158.045C83.2402 158.232 82.8698 158.377 82.4145 158.5C81.7756 158.672 82.617 156.911 82.6048 156.643C82.569 155.848 83.9695 156.012 84.3945 155.661C84.9328 155.217 85.8382 155.392 86.4223 155.024C86.8432 154.758 87.3501 154.676 87.8294 154.547C89.0321 154.222 90.2406 154.145 91.4255 153.825M114.164 158.351C112.795 158.69 111.772 159.121 110.907 160.335C109.566 162.215 107.8 163.831 106.357 165.664C105.549 166.689 104.805 167.845 104.112 168.926C103.65 169.647 102.315 171.093 101.308 170.486C100.957 170.274 100.592 169.671 100.495 169.279C100.341 168.659 100.605 168.246 100.842 167.713C101.08 167.177 101.44 166.62 101.976 166.298C102.556 165.95 103.154 165.445 103.763 165.171C105.366 164.451 106.494 162.609 107.597 161.307C108.104 160.708 108.873 160.174 109.273 159.512C109.715 158.778 110.228 158.088 110.601 157.304C110.954 156.559 111.239 155.812 111.285 154.997C111.292 154.876 111.412 154.215 111.147 154.374C110.691 154.648 110.455 155.455 110.183 155.906C108.961 157.933 107.368 159.686 105.305 160.817C104.49 161.264 103.957 161.996 103.286 162.621C102.556 163.3 102.03 164.147 101.355 164.874C100.59 165.699 99.5761 166.28 98.9862 167.257C98.5032 168.058 98.152 169.119 97.1414 169.369C96.4088 169.55 95.7512 168.531 95.4212 167.997C95.2274 167.683 95.1012 167.413 95.0132 167.057C94.9173 166.669 95.3168 166.315 95.4815 165.982C95.6573 165.627 95.8838 165.273 96.1535 164.977C96.4173 164.689 96.8939 164.42 97.0909 164.093C97.5926 163.262 97.8946 162.601 98.8551 162.232C99.2726 162.072 99.6292 161.825 99.9882 161.563C100.413 161.252 100.935 161.041 101.322 160.685C102.071 159.993 103.078 159.506 103.765 158.754C104.544 157.901 105.333 157.069 106.097 156.199C106.429 155.821 106.751 155.442 107.058 155.052C106.478 155.179 105.884 155.273 105.352 155.404C104.764 155.55 104.184 156.015 103.724 156.399C103.153 156.875 102.49 157.237 102.003 157.816C101.58 158.319 101.124 158.785 100.659 159.25C99.9211 159.99 98.9752 160.483 98.229 161.211C97.6137 161.811 96.8611 162.371 96.0722 162.725C95.5378 162.965 94.9337 163.308 94.3714 163.447C93.7459 163.602 93.111 163.593 92.4956 163.418C92.2441 163.347 92.1686 162.828 92.1647 162.613C92.155 162.068 92.4061 161.947 92.7105 161.541C93.1754 160.919 93.3432 160.102 93.8674 159.528C94.4306 158.912 95.1786 158.594 95.8858 158.185C96.5314 157.811 97.1964 157.404 97.9648 157.353C98.4928 157.317 99.231 157.371 99.7262 157.185C100.237 156.993 100.722 156.757 101.208 156.506C101.815 156.192 102.317 155.68 102.866 155.28C103.529 154.795 105 153.896 105.71 153.48M105.71 153.48C106.187 153.455 108.899 152.447 108.135 153.713C107.866 154.158 107.627 154.547 107.282 154.938M105.71 153.48C105.368 153.499 105.021 153.431 104.681 153.417C104.069 153.392 103.356 153.69 102.773 153.835C102.041 154.016 101.298 154.123 100.56 154.283C99.4747 154.52 98.3156 153.827 97.4744 154.664C97.1417 154.995 96.936 155.244 96.7869 155.695C96.6739 156.036 96.4796 156.157 96.3433 156.516C96.2522 156.756 95.8687 157.202 95.5587 157.132C95.2001 157.052 94.6422 157.022 94.5696 156.729C94.479 156.363 94.3574 155.81 94.0227 155.569C93.8074 155.155 93.546 153.676 93.9239 153.284C94.5983 152.585 95.6001 152.7 96.4815 152.525C97.3606 152.352 97.8276 152.039 98.6991 151.823C99.8375 151.541 100.265 150.993 101.402 150.711C102.683 150.394 101.976 150.03 103.265 149.712C104.251 149.468 104.369 149.417 105.214 148.878C106.101 148.311 106.577 148.64 107.144 148.382C108.186 147.908 109.056 148.145 109.716 147.722C111.044 146.871 112.485 147.14 112.666 146.621C112.941 145.837 113.245 145.483 114.053 145.313M113.463 129.537C112.576 127.219 110.987 122.83 109.403 120.261C108.472 119.248 107.447 116.817 106.47 115.862C105.775 115.182 105.05 114.011 104.236 113.543C103.268 112.988 103.567 112.224 104.133 111.565C104.385 111.271 104.864 111.225 105.157 110.991C105.306 110.872 105.524 110.831 105.688 110.712C105.94 110.531 106.501 110.015 106.852 110.074C107.896 110.25 108.388 110.801 108.969 111.668C109.806 112.919 109.692 114.579 110.502 115.862C111.663 118.87 113.145 123.349 114.492 126.222M101.535 98.5333C101.26 99.2056 101.628 101.258 102.636 100.775C102.93 100.634 103.56 100.238 103.885 100.299C104.371 100.391 104.963 100.044 105.39 100.211C105.828 100.382 106.08 99.6463 106.022 99.3151C105.968 99.0052 106.129 98.5965 106 98.3154C105.696 97.6505 105.387 96.9947 105.054 96.3347C104.705 95.6446 104.565 95.014 104.389 94.2676C104.205 93.4912 103.895 92.7355 103.758 91.9534C103.5 90.482 103.168 88.96 102.701 87.5303C102.127 85.7716 101.662 84.0679 101.237 82.2719C100.929 80.9711 100.704 79.6496 100.395 78.3443C99.9949 76.6519 99.2053 75.0678 98.5443 73.4702C98.2134 72.6705 98.1204 71.7992 97.8052 70.9866C97.4528 70.0781 97.2112 69.1364 96.9861 68.1853C96.9299 67.9478 96.9003 67.6685 96.8055 67.4427C96.7749 67.3698 96.7858 68.0858 96.7948 68.2013C96.8629 69.0792 96.8673 69.9249 96.8634 70.7997C96.8569 72.2823 97.3226 73.7548 97.4675 75.2275C97.7822 78.4257 98.828 81.5203 99.1617 84.7144C99.2329 85.3957 99.3147 86.1076 99.5794 86.7473C99.9479 87.6378 99.8736 88.6902 100.194 89.6116C100.449 90.3447 100.671 91.1729 100.849 91.9249C100.994 92.5383 101.275 93.1844 101.249 93.8205C101.21 94.7616 101.058 95.9335 101.387 96.817C101.483 97.0729 101.753 98.4986 101.432 98.4699M75.1067 89.3274C75.0737 89.3266 75.0401 89.327 75.006 89.3284M75.006 89.3284C74.0081 89.3696 72.5359 90.2992 72.0606 91.0498C71.8762 91.3411 67.8817 86.8927 67.4266 86.3224C67.1171 85.9346 66.7537 85.5985 66.3712 85.2827C66.1334 85.0863 64.3701 83.7918 64.7436 83.5644C65.3019 83.2244 66.2334 83.373 66.6272 82.7931C67.0884 82.1141 67.0904 82.4423 67.6345 83.0875C68.436 84.038 69.4079 84.7825 70.3974 85.5299C71.4987 86.3618 72.5135 87.4542 73.6927 88.1734C74.2121 88.4902 74.6199 88.8824 75.006 89.3284ZM75.006 89.3284C75.0367 89.364 75.0674 89.3998 75.0979 89.4361M85.953 80.1726C85.9211 80.1804 85.8888 80.1893 85.8563 80.1995M85.8563 80.1995C84.9066 80.4955 83.729 81.7786 83.4649 82.6318C83.3624 82.9629 78.3721 79.653 77.7872 79.2142C77.3893 78.9156 76.953 78.6813 76.5035 78.4717C76.224 78.3414 74.1935 77.5323 74.4944 77.215C74.9442 76.7406 75.879 76.6464 76.1087 75.9806C76.3777 75.2007 76.4641 75.52 77.154 76.0091C78.1703 76.7296 79.2974 77.2057 80.4423 77.6802C81.7166 78.2084 82.9746 79.0125 84.2948 79.4109C84.8763 79.5864 85.3698 79.8639 85.8563 80.1995ZM85.8563 80.1995C85.8951 80.2262 85.9338 80.2533 85.9725 80.2808M94.2965 92.5326C94.2701 92.5249 94.2428 92.5182 94.2149 92.5123M94.2149 92.5123C93.3971 92.342 91.9263 92.9619 91.3143 93.6138C91.0768 93.8668 89.2073 88.5582 89.0136 87.8898C88.8818 87.4351 88.6909 87.021 88.4783 86.6231C88.3462 86.3757 87.3173 84.7034 87.6879 84.5546C88.2419 84.3321 88.9483 84.6787 89.4425 84.1808C90.0213 83.5976 89.9231 83.9272 90.1658 84.6897C90.5233 85.813 91.081 86.7657 91.652 87.7252C92.2875 88.7931 92.7739 90.104 93.5066 91.0754C93.8293 91.5033 94.039 91.9831 94.2149 92.5123ZM94.2149 92.5123C94.2289 92.5545 94.2427 92.597 94.2563 92.6398M65.9125 67.9776C65.8896 68.0023 65.8672 68.0285 65.8454 68.056M65.8454 68.056C65.2097 68.86 65.0887 70.8231 65.4733 71.8597C65.6225 72.2619 58.7395 71.3553 57.8957 71.1953C57.3218 71.0865 56.7601 71.0653 56.2046 71.077C55.8592 71.0843 53.4501 71.2824 53.4887 70.7919C53.5464 70.0587 54.3156 69.4753 54.0366 68.6542C53.7098 67.6924 54.0198 67.9843 54.9942 68.1429C56.4299 68.3766 57.7868 68.2951 59.1584 68.2027C60.6851 68.0998 62.3983 68.2964 63.8717 68.0329C64.5206 67.9169 65.1651 67.954 65.8454 68.056ZM65.8454 68.056C65.8997 68.0641 65.9541 68.0727 66.0088 68.0816M73.4492 104.482C73.4234 104.504 73.3979 104.527 73.3729 104.552M73.3729 104.552C72.6418 105.27 72.2766 107.202 72.5288 108.279C72.6266 108.697 65.9107 106.938 65.0934 106.674C64.5376 106.494 63.9829 106.403 63.4303 106.345C63.0867 106.309 60.6717 106.205 60.7712 105.723C60.92 105.003 61.7561 104.52 61.5818 103.671C61.3776 102.676 61.6487 103.004 62.5958 103.283C63.991 103.694 65.3474 103.783 66.7199 103.862C68.2475 103.951 69.9227 104.36 71.4174 104.282C72.0758 104.248 72.7106 104.365 73.3729 104.552ZM73.3729 104.552C73.4257 104.566 73.4786 104.582 73.5318 104.597M87.1285 67.9218C87.1055 67.9465 87.0832 67.9726 87.0614 68.0002M87.0614 68.0002C86.4257 68.8042 86.3047 70.7672 86.6893 71.8039C86.8385 72.2061 79.9555 71.2995 79.1117 71.1395C78.5377 71.0307 77.9761 71.0095 77.4205 71.0212C77.0751 71.0285 74.666 71.2266 74.7046 70.7361C74.7623 70.0029 75.5316 69.4195 75.2526 68.5983C74.9257 67.6365 75.2357 67.9285 76.2102 68.0871C77.6458 68.3208 79.0027 68.2392 80.3744 68.1468C81.9011 68.044 83.6142 68.2406 85.0876 67.9771C85.7366 67.861 86.381 67.8982 87.0614 68.0002ZM87.0614 68.0002C87.1156 68.0083 87.1701 68.0168 87.2247 68.0257M84.659 98.5403C84.6261 98.5386 84.5924 98.538 84.5582 98.5385M84.5582 98.5385C83.5588 98.5514 82.0583 99.4449 81.5604 100.187C81.3672 100.475 77.5037 95.883 77.0654 95.296C76.7673 94.8967 76.4138 94.548 76.0405 94.2192C75.8084 94.0148 74.0831 92.6613 74.4635 92.4431C75.0322 92.1169 75.9596 92.2931 76.3708 91.7208C76.8524 91.0505 76.8447 91.3809 77.3697 92.0459C78.1433 93.0256 79.0934 93.8026 80.061 94.5833C81.1379 95.4521 82.1206 96.5807 83.2788 97.3384C83.789 97.6721 84.1853 98.0785 84.5582 98.5385ZM84.5582 98.5385C84.5879 98.5751 84.6175 98.6121 84.647 98.6494M77.5263 99.6781C77.4942 99.6859 77.4618 99.6948 77.4291 99.705M77.4291 99.705C76.4745 100.001 75.2897 101.284 75.0231 102.137C74.9196 102.468 69.9108 99.163 69.3238 98.7247C68.9246 98.4266 68.4866 98.1927 68.0353 97.9835C67.7547 97.8534 65.7159 97.0459 66.0187 96.7286C66.4712 96.2543 67.4105 96.1597 67.6422 95.4942C67.9135 94.7146 68 95.0337 68.6923 95.5221C69.7123 96.2416 70.844 96.7168 71.9935 97.1904C73.2729 97.7175 74.5357 98.5204 75.8615 98.9178C76.4454 99.0928 76.9408 99.3699 77.4291 99.705ZM77.4291 99.705C77.468 99.7317 77.5069 99.7588 77.5457 99.7862M31.3398 108.097C31.3151 108.074 31.2889 108.052 31.2614 108.03M31.2614 108.03C30.4574 107.394 28.4943 107.273 27.4577 107.658C27.0554 107.807 27.9621 100.924 28.1221 100.08C28.2309 99.5065 28.2521 98.9449 28.2404 98.3893C28.2331 98.0439 28.035 95.6348 28.5254 95.6734C29.2587 95.7311 29.842 96.5004 30.6632 96.2214C31.625 95.8945 31.3331 96.2045 31.1745 97.179C30.9408 98.6146 31.0223 99.9715 31.1147 101.343C31.2176 102.87 31.0209 104.583 31.2845 106.056C31.4005 106.705 31.3633 107.35 31.2614 108.03ZM31.2614 108.03C31.2533 108.084 31.2447 108.139 31.2358 108.194M30.8805 122.525C30.8558 122.502 30.8296 122.48 30.8021 122.458M30.8021 122.458C29.9981 121.823 28.035 121.702 26.9984 122.086C26.5962 122.235 27.5028 115.352 27.6628 114.509C27.7716 113.935 27.7928 113.373 27.7811 112.817C27.7738 112.472 27.5757 110.063 28.0662 110.102C28.7994 110.159 29.3828 110.929 30.2039 110.65C31.1657 110.323 30.8738 110.633 30.7152 111.607C30.4815 113.043 30.563 114.4 30.6554 115.771C30.7583 117.298 30.5617 119.011 30.8252 120.485C30.9412 121.134 30.9041 121.778 30.8021 122.458ZM30.8021 122.458C30.794 122.513 30.7854 122.567 30.7765 122.622M46.662 67.8391C46.6086 67.8739 46.5566 67.9095 46.5058 67.9458M46.5058 67.9458C45.3343 68.783 44.811 70.0144 43.7639 70.9883C42.7127 71.966 41.8677 71.4945 40.4632 71.2745C38.6122 70.9847 36.7593 70.2634 34.9008 70.0066C33.0008 69.7442 30.9437 69.3813 29.1006 68.6878C28.3498 68.4052 27.4102 67.9871 28.6864 67.9039C29.8816 67.8259 31.0895 68.0765 32.2859 67.9438C33.2119 67.8411 34.177 68.1149 35.1022 68.0703C36.2271 68.016 37.3856 68.0811 38.5214 68.1309C40.3908 68.2128 44.7488 68.1374 46.5058 67.9458ZM46.5058 67.9458C47.342 67.8545 47.5891 67.737 46.6982 67.5975M64.8856 80.1739C64.8278 80.2005 64.7711 80.2281 64.7156 80.2567M64.7156 80.2567C63.4348 80.9146 62.738 82.0569 61.5604 82.8681C60.3782 83.6825 59.6107 83.0931 58.2531 82.6713C56.464 82.1154 54.7357 81.1323 52.9342 80.608C51.0926 80.072 49.1102 79.4139 47.3875 78.4597C46.6857 78.0709 45.817 77.5206 47.0917 77.6238C48.2856 77.7205 49.4442 78.1441 50.6471 78.1868C51.5782 78.2199 52.4932 78.6311 53.4151 78.7215C54.5359 78.8314 55.6727 79.0642 56.7891 79.2787C58.6267 79.6316 62.9494 80.1908 64.7156 80.2567ZM64.7156 80.2567C65.5562 80.288 65.8177 80.2076 64.9566 79.94M31.7319 93.5867C31.6872 93.5208 31.6417 93.4564 31.5954 93.3936M31.5954 93.3936C30.5288 91.9435 29.0598 91.2616 27.8453 89.9565C26.6262 88.6464 27.1018 87.6433 27.2397 85.9537C27.4214 83.727 28.1025 81.5151 28.2452 79.278C28.3912 76.9909 28.6403 74.5179 29.29 72.3168C29.5547 71.4201 29.9607 70.3006 30.1631 71.8472C30.3527 73.2956 30.163 74.7463 30.416 76.1983C30.6118 77.3221 30.375 78.4782 30.5036 79.5988C30.6599 80.9613 30.6809 82.3596 30.7176 83.731C30.7781 85.9883 31.2275 91.2613 31.5954 93.3936ZM31.5954 93.3936C31.7705 94.4084 31.9272 94.7118 32.0146 93.6401M94.7419 94.2351C94.5565 94.2605 95.5984 96.8421 95.6734 97.0393C96.2578 98.5752 96.592 100.485 96.9159 102.189C97.1881 103.622 97.4023 105.091 97.6531 106.536C97.7966 107.363 97.9394 108.179 98.1162 108.989C98.2036 109.389 98.2028 109.823 98.2804 110.226C98.3561 110.619 98.5377 110.935 98.6239 111.321C98.7673 111.963 98.8757 112.723 99.2388 113.182C99.4576 113.459 99.562 114.141 99.1142 114.244C98.9042 114.293 98.7191 114.405 98.5174 114.47C98.3244 114.532 98.2429 114.842 98.0775 114.983C97.6745 115.144 97.7444 115.125 97.3481 115.504C97.122 115.72 96.9709 115.936 96.8555 116.211C96.7914 116.364 96.7131 116.857 96.5294 116.921C96.4102 116.962 94.0137 114.341 93.813 114.092L91.9263 113.795C91.8698 113.77 91.8128 113.748 91.7552 113.729M94.7646 94.8633C94.6062 95.5018 94.3773 95.9732 93.8364 96.0647C93.5279 96.1169 93.2649 96.1097 92.9749 96.0377C92.814 95.9978 92.3722 95.7666 92.2113 95.8759C92.107 95.9468 92.7784 99.4338 92.859 99.744C93.0249 100.383 93.3166 100.957 93.5493 101.541C93.7512 102.048 93.8219 102.657 94.0492 103.145C94.4929 104.098 94.647 105.324 95.0194 106.353C95.4897 107.652 96.045 110.857 96.5121 112.165C95.6289 110.779 95.4475 110.655 94.2733 109.377C93.2863 108.303 92.2362 107.255 91.2264 106.191C90.6485 105.582 90.0791 104.98 89.5351 104.355C89.2661 104.046 88.9178 103.787 88.6406 103.484C88.3706 103.189 88.2254 102.855 87.9672 102.555C87.5376 102.057 86.9933 101.516 86.8413 100.951C86.7497 100.61 86.265 100.119 85.915 100.417C85.7509 100.556 85.5504 100.638 85.3779 100.761C85.2128 100.878 84.9151 100.758 84.7034 100.807C84.2107 100.92 83.6963 100.768 84.1179 101.319C85.0785 102.574 86.1611 103.825 87.024 105.12C87.7943 106.275 89.0399 107.26 89.8009 108.413C89.5489 108.573 88.7912 108.748 87.7763 108.161C86.7615 107.575 83.1992 104.007 81.5448 102.297C80.323 103.03 78.0992 104.423 78.9789 104.129C79.8587 103.836 85.6491 109.681 88.876 112.927C87.8307 112.774 87.9742 112.421 87.0673 111.94C84.84 110.76 82.7238 109.372 80.5209 108.147C79.5236 107.592 78.5888 106.84 77.6588 106.177C77.3836 105.981 76.9999 105.52 76.6587 105.464C76.4075 105.423 76.4474 105.772 76.3855 105.918C75.9812 106.868 75.4607 107.38 74.6862 108.014C74.2901 108.339 75.896 108.45 76.1182 108.487C78.1279 108.818 80.1236 110.261 81.6794 111.504C83.2536 112.762 84.8132 114.069 86.5078 115.162C87.461 115.776 88.3813 116.576 89.2688 117.285C89.76 117.678 90.4372 118.482 90.377 117.437C90.3381 116.762 90.3507 115.965 90.5355 115.312C90.6266 114.991 90.6951 114.278 90.9771 114.071C91.0463 114.021 91.5753 113.816 91.7552 113.729M91.8103 113.69C91.8254 113.692 91.8022 113.706 91.7552 113.729M58.9419 101.457C59.3873 101.481 59.4289 103.673 59.3592 103.853C59.1304 104.446 58.6761 104.891 58.395 105.422C57.9772 106.211 54.5989 102.998 54.0587 102.544C52.6085 101.324 50.7998 100.637 49.3523 99.4466C48.7623 98.9616 47.8074 98.6023 47.0749 98.4788C46.2984 98.3479 45.5307 98.0556 44.767 97.9425C44.1975 97.8581 44.8593 96.7513 45.0387 96.5055C45.531 95.8312 45.8363 95.2958 46.1815 94.5767C46.4985 93.9164 47.4939 95.0902 47.7688 95.3283C48.3876 95.8642 49.0039 96.3724 49.657 96.8556C51.4964 98.2165 53.4775 99.2972 55.3806 100.547C56.478 101.268 57.75 101.512 58.9682 101.823M63.3406 91.9267C63.786 91.9502 63.8276 94.142 63.7579 94.3228C63.5291 94.9157 63.0748 95.3604 62.7937 95.8913C62.3759 96.6802 58.9976 93.4674 58.4574 93.0131C57.0072 91.7935 55.1985 91.1062 53.751 89.9161C53.161 89.4311 52.2061 89.0718 51.4736 88.9483C50.6971 88.8174 49.9294 88.5251 49.1657 88.412C48.5962 88.3276 49.258 87.2208 49.4374 86.975C49.9297 86.3007 50.235 85.7653 50.5802 85.0462C50.8972 84.3859 51.8926 85.5597 52.1675 85.7978C52.7863 86.3337 53.4026 86.8418 54.0557 87.3251C55.8951 88.686 57.8762 89.7667 59.7793 91.0169C60.8767 91.7378 62.1487 91.9816 63.3669 92.2928M62.7541 112.731C63.1972 112.68 63.6036 114.834 63.565 115.024C63.4383 115.647 63.0644 116.161 62.8758 116.731C62.5954 117.579 58.7287 114.974 58.1203 114.616C56.4871 113.655 54.5891 113.279 52.9635 112.347C52.3009 111.967 51.2994 111.772 50.5566 111.773C49.7692 111.773 48.9635 111.613 48.1916 111.628C47.616 111.64 48.084 110.439 48.22 110.166C48.5929 109.419 48.8047 108.841 49.0252 108.074C49.2276 107.37 50.4048 108.361 50.7155 108.55C51.415 108.976 52.1075 109.374 52.832 109.742C54.8725 110.777 57.006 111.512 59.091 112.427C60.2932 112.955 61.588 112.984 62.841 113.087M89.8023 118.494C89.5911 118.258 88.7667 118.537 88.4963 118.68C88.0815 118.899 88.0208 119.576 88.0348 119.972C88.0659 120.849 87.8902 123.036 88.7133 123.636C89.1192 123.931 88.4275 123.675 88.2822 123.603C87.5545 123.242 86.7864 122.962 86.0593 122.601C84.8264 121.99 83.6562 121.75 82.3015 121.537C79.7317 121.131 77.1824 120.953 74.7038 120.173C72.6438 119.525 70.6226 118.438 68.5072 118.016C68.2097 117.956 67.0116 118.024 66.9987 117.754C66.9588 116.92 67.4343 116.073 67.2107 115.254C67.1687 115.1 66.9004 114.503 67.0771 114.396C67.5284 114.123 68.7565 114.889 69.1333 115.081C71.2909 116.181 74.4154 116.201 76.7353 116.644C78.8283 117.044 81.0843 117.917 83.2175 118.081C84.131 118.151 84.9857 118.362 85.8993 118.113L87.9196 117.561C88.3105 117.454 89.2591 117.738 89.2359 117.745M85.6359 129.891C85.3539 130.035 84.6852 129.478 84.4842 129.248C84.1759 128.895 84.3631 128.241 84.5186 127.877C84.8633 127.07 85.4865 124.966 86.4702 124.703C86.9554 124.573 86.2176 124.564 86.0561 124.578C85.2474 124.653 84.43 124.638 83.6218 124.712C82.2517 124.839 81.0735 124.642 79.7328 124.353C77.1893 123.806 74.7468 123.055 72.1535 122.891C69.9982 122.754 67.7213 123.04 65.5956 122.673C65.2967 122.622 64.2032 122.127 64.094 122.374C63.7564 123.139 63.8954 124.1 63.3921 124.783C63.2975 124.912 62.8323 125.372 62.9586 125.536C63.2813 125.953 64.7029 125.68 65.1235 125.637C67.5324 125.387 70.4547 126.493 72.7787 126.914C74.8753 127.295 77.2944 127.292 79.3435 127.907C80.221 128.171 81.0944 128.281 81.857 128.843L83.5434 130.084C83.8698 130.325 84.8569 130.401 84.8375 130.387M74.0834 131.985C73.8922 131.782 73.1726 132.046 72.9376 132.177C72.5772 132.379 72.5387 132.977 72.5598 133.325C72.6064 134.096 72.4999 136.026 73.2378 136.536C73.6017 136.787 72.987 136.576 72.8575 136.516C72.2089 136.214 71.5264 135.985 70.8783 135.683C69.7795 135.173 68.7439 134.987 67.5465 134.829C65.2751 134.529 63.0267 134.428 60.8273 133.796C58.9994 133.27 57.196 132.358 55.3242 132.033C55.061 131.987 54.0077 132.073 53.9904 131.836C53.9368 131.102 54.3368 130.346 54.122 129.63C54.0816 129.495 53.8322 128.976 53.9854 128.878C54.3768 128.627 55.4749 129.274 55.8108 129.435C57.7347 130.356 60.486 130.305 62.5382 130.644C64.3897 130.95 66.3952 131.669 68.2768 131.766C69.0827 131.808 69.8398 131.975 70.6387 131.735L72.4052 131.205C72.7471 131.102 73.5884 131.331 73.5681 131.337M38.1004 128.11C38.3973 128.439 38.049 127.833 38.0165 127.657C37.9272 127.174 37.887 126.637 37.967 126.14C38.07 125.5 38.9709 125.172 39.459 124.721C39.7403 124.461 40.7038 124.336 41.0254 124.5C41.6423 124.814 41.8032 125.453 42.3193 125.872C43.4804 126.814 44.9178 126.996 46.4657 127.33C47.3224 127.515 47.9611 127.693 48.8799 127.66C49.4765 127.638 50.2865 127.452 50.8572 127.558C51.3375 127.648 51.7999 127.543 51.8874 128.016C52.0245 128.757 51.5037 129.208 50.9988 129.8C50.6465 130.213 50.7023 130.755 50.1813 131.06C49.5278 131.442 48.6033 131.231 48.0023 131.037C45.9898 130.385 43.4768 130.506 41.6708 129.522C41.1946 129.262 40.495 128.939 39.9037 128.885C39.3634 128.836 38.8473 128.701 38.3103 128.677C37.9923 128.663 37.7079 128.148 37.9725 128.441M47.8607 122.124C48.2339 122.487 47.7452 121.794 47.6722 121.585C47.4714 121.012 47.3074 120.368 47.2732 119.758C47.2291 118.974 48.0566 118.477 48.4421 117.877C48.6642 117.531 49.601 117.271 49.9612 117.432C50.652 117.743 50.9605 118.497 51.5743 118.944C52.9551 119.952 54.438 120.01 56.0666 120.239C56.968 120.366 57.6491 120.509 58.5625 120.365C59.1555 120.271 59.9246 119.956 60.5212 120.02C61.0232 120.074 61.4625 119.895 61.6592 120.456C61.9673 121.336 61.5492 121.94 61.1795 122.712C60.9214 123.251 61.1022 123.899 60.6501 124.326C60.083 124.861 59.1078 124.711 58.4605 124.543C56.2931 123.983 53.8018 124.412 51.7649 123.427C51.2277 123.167 50.452 122.855 49.8468 122.857C49.2939 122.858 48.7454 122.753 48.2016 122.785C47.8795 122.803 47.476 122.214 47.8086 122.538M87.8839 139.462C87.3304 139.223 87.472 137.92 87.5511 137.465C87.5988 137.191 88.0927 136.269 87.9469 136.026C87.6482 135.529 86.3099 136.184 85.8613 136.217C85.3741 136.253 84.8169 135.986 84.3534 135.844C83.5837 135.609 82.7671 135.677 81.9754 135.435C81.1567 135.185 80.3131 134.974 79.5087 134.681C78.9494 134.477 78.3862 133.951 77.8305 133.683C77.3067 133.431 76.8456 133.232 76.2763 133.058C75.4776 132.814 76.4658 135.07 76.4394 135.409C76.3612 136.41 78.1345 136.26 78.6561 136.721C79.3167 137.304 80.4659 137.121 81.1875 137.609C81.7074 137.961 82.3434 138.086 82.9425 138.269C84.4462 138.729 85.9673 138.876 87.4486 139.329M111.436 129.732C109.696 127.394 107.428 125.399 105.56 123.123C104.515 121.85 103.546 120.41 102.645 119.063C102.044 118.165 100.323 116.374 99.0681 117.166C98.6298 117.443 98.1843 118.212 98.0718 118.71C97.8939 119.496 98.2368 120.01 98.5491 120.676C98.8638 121.347 99.3321 122.04 100.017 122.433C100.757 122.858 101.524 123.48 102.3 123.81C104.341 124.679 105.81 126.974 107.234 128.588C107.89 129.332 108.874 129.986 109.395 130.812C109.972 131.726 110.636 132.584 111.126 133.565C111.59 134.495 111.969 135.43 112.047 136.457C112.059 136.61 112.228 137.442 111.889 137.248C111.306 136.913 110.989 135.901 110.635 135.339C109.04 132.813 106.987 130.64 104.355 129.265C103.315 128.722 102.624 127.811 101.762 127.04C100.824 126.202 100.138 125.146 99.2691 124.246C98.2821 123.225 96.9885 122.517 96.2195 121.298C95.5897 120.3 95.1199 118.971 93.8384 118.681C92.9094 118.47 92.1053 119.773 91.7024 120.455C91.4658 120.855 91.3135 121.2 91.2113 121.652C91.1002 122.143 91.6131 122.58 91.8294 122.996C92.0603 123.44 92.355 123.881 92.7027 124.247C93.0428 124.604 93.651 124.931 93.9079 125.339C94.5619 126.375 94.9596 127.201 96.1809 127.642C96.7118 127.834 97.1679 128.137 97.6275 128.459C98.1719 128.84 98.8358 129.092 99.3323 129.533C100.295 130.387 101.578 130.976 102.464 131.907C103.468 132.963 104.485 133.994 105.471 135.072C105.899 135.541 106.315 136.011 106.713 136.495C105.977 136.35 105.225 136.247 104.55 136.094C103.805 135.925 103.061 135.353 102.471 134.88C101.739 134.293 100.894 133.853 100.264 133.135C99.7185 132.511 99.1306 131.935 98.5325 131.359C97.5826 130.445 96.3766 129.846 95.4167 128.947C94.6251 128.206 93.6614 127.518 92.657 127.09C91.9766 126.801 91.2057 126.383 90.4927 126.222C89.6996 126.043 88.8987 126.07 88.1266 126.306C87.8109 126.403 87.7288 127.06 87.7294 127.331C87.7309 128.019 88.0507 128.165 88.445 128.67C89.0474 129.442 89.2797 130.469 89.9556 131.18C90.6818 131.944 91.6337 132.326 92.5363 132.824C93.3604 133.279 94.2098 133.777 95.1807 133.822C95.8478 133.853 96.7779 133.766 97.4075 133.989C98.057 134.218 98.675 134.503 99.2939 134.808C100.068 135.189 100.715 135.822 101.417 136.314C102.267 136.909 104.145 138.006 105.051 138.512M105.051 138.512C105.654 138.532 109.101 139.736 108.105 138.157C107.755 137.603 107.443 137.119 106.998 136.633M105.051 138.512C104.62 138.498 104.183 138.592 103.754 138.618C102.983 138.665 102.076 138.307 101.336 138.14C100.408 137.93 99.4679 137.813 98.5333 137.629C97.1573 137.358 95.7123 138.261 94.6298 137.226C94.2016 136.817 93.9358 136.509 93.7362 135.943C93.5851 135.515 93.3369 135.368 93.1558 134.918C93.0348 134.618 92.5396 134.065 92.1503 134.161C91.6997 134.271 90.9965 134.323 90.9123 134.695C90.8073 135.159 90.6678 135.859 90.2515 136.171C89.9904 136.699 89.6979 138.573 90.1846 139.057C91.0532 139.922 92.3143 139.753 93.4309 139.95C94.5446 140.147 95.1417 140.53 96.2468 140.78C97.6904 141.107 98.2434 141.789 99.6852 142.115C101.309 142.483 100.427 142.96 102.061 143.329C103.312 143.613 103.462 143.673 104.542 144.333C105.675 145.025 106.267 144.598 106.989 144.909C108.317 145.481 109.408 145.16 110.252 145.677C111.949 146.717 113.76 146.341 114.002 146.992M105.826 172.776L103.947 173.614C103.365 173.874 103.082 174.379 102.773 174.818C102.263 175.544 102.311 175.551 102.761 175.931C103.185 176.289 104.286 176.77 105.003 176.823C105.441 176.855 105.593 177.184 106.124 177.165C106.405 177.154 107.194 177.021 107.251 176.644C107.318 176.209 107.278 175.581 107.19 175.178C107.149 174.993 107.096 174.885 107.156 174.673C107.237 174.39 107.637 174.156 107.687 173.917L105.826 172.776ZM88.1993 198.838L86.3203 199.677C85.7383 199.937 85.4558 200.442 85.147 200.881C84.6368 201.607 84.6852 201.614 85.1346 201.994C85.5583 202.352 86.6598 202.833 87.3767 202.885C87.8147 202.918 87.9667 203.247 88.4973 203.227C88.779 203.217 89.5676 203.084 89.6252 202.707C89.6917 202.272 89.6518 201.644 89.5634 201.24C89.523 201.056 89.47 200.948 89.5302 200.736C89.6108 200.453 90.0108 200.219 90.0608 199.98L88.1993 198.838ZM62.2071 174.543C62.8696 175.203 63.2446 176.141 63.8197 176.911C63.9441 177.077 64.235 177.198 64.2705 177.464C64.3951 178.4 62.122 178.828 61.732 179.116C60.955 179.69 59.958 180.221 59.2638 181.004C58.6476 181.699 58.0491 182.578 57.3988 183.191C57.0394 183.53 57.5281 182.266 57.5956 182.121C57.9467 181.37 58.2458 180.528 58.6367 179.818C59.1208 178.938 59.8335 178.151 60.248 177.243C60.552 176.576 61.033 176.075 61.3134 175.426C61.4391 175.135 62.3223 173.917 62.2071 174.543ZM62.8395 182.937C63.5087 183.589 63.8934 184.523 64.4764 185.287C64.6025 185.453 64.8946 185.57 64.9329 185.836C65.0671 186.77 62.7985 187.222 62.4115 187.514C61.6405 188.096 60.649 188.637 59.9629 189.427C59.3539 190.129 58.7645 191.014 58.1206 191.634C57.7648 191.976 58.2404 190.707 58.3063 190.562C58.6497 189.806 58.9401 188.962 59.3237 188.248C59.7986 187.363 60.5032 186.569 60.9083 185.656C61.2054 184.986 61.6812 184.48 61.9548 183.829C62.0776 183.537 62.9481 182.309 62.8395 182.937ZM71.4212 190.712C71.0267 189.865 70.2721 189.193 69.744 188.39C69.6297 188.216 69.6158 187.902 69.3769 187.778C68.5397 187.342 67.3633 189.334 66.9599 189.602C66.1559 190.137 65.3168 190.894 64.3443 191.28C63.481 191.623 62.4506 191.886 61.6528 192.289C61.2119 192.512 62.5671 192.483 62.7259 192.468C63.5521 192.394 64.4448 192.399 65.2461 192.274C66.2384 192.118 67.2204 191.716 68.216 191.635C68.9463 191.577 69.5816 191.295 70.2866 191.252C70.6028 191.233 72.0492 190.817 71.4212 190.712ZM104.142 107.943L102.546 105.895C102.052 105.26 102.037 104.53 101.953 103.857C101.816 102.746 101.874 102.767 102.6 102.61C103.284 102.462 104.796 102.58 105.626 102.947C106.133 103.171 106.497 102.894 107.077 103.23C107.385 103.409 108.184 104.025 108.025 104.479C107.841 105.004 107.424 105.68 107.086 106.076C106.932 106.257 106.809 106.347 106.75 106.618C106.672 106.981 106.979 107.48 106.893 107.775L104.142 107.943ZM95.0655 71.4018L93.1629 73.1692C92.5736 73.7166 91.8476 73.795 91.1845 73.9364C90.0892 74.1699 90.1049 74.1103 89.886 73.4006C89.6796 72.7315 89.6662 71.215 89.9593 70.3565C90.1384 69.8319 89.8313 69.4927 90.1161 68.8861C90.2673 68.564 90.812 67.7143 91.2783 67.8337C91.8164 67.9716 92.5261 68.3285 92.9504 68.6304C93.1443 68.7683 93.2444 68.8836 93.5196 68.9182C93.8882 68.9645 94.3581 68.6159 94.6597 68.6757L95.0655 71.4018ZM51.6825 69.4438L50.6523 70.4008C50.3332 70.6972 49.94 70.7397 49.581 70.8162C48.9879 70.9426 48.9964 70.9104 48.8778 70.5261C48.7661 70.1638 48.7588 69.3426 48.9175 68.8777C49.0145 68.5936 48.8482 68.41 49.0024 68.0815C49.0843 67.9071 49.3792 67.447 49.6317 67.5117C49.9231 67.5863 50.3074 67.7796 50.5372 67.9431C50.6422 68.0178 50.6964 68.0802 50.8454 68.0989C51.045 68.124 51.2994 67.9352 51.4627 67.9676L51.6825 69.4438ZM87.4099 84.3374C86.967 84.1841 86.1143 84.0697 85.6714 83.9164C85.2598 83.774 85.0376 83.4469 84.8013 83.1659C84.4111 82.7017 84.4436 82.6941 84.7271 82.4089C84.9944 82.14 85.7159 81.7478 86.2009 81.6695C86.4972 81.6217 86.5812 81.3886 86.9436 81.3704C87.136 81.3608 87.6808 81.4049 87.7423 81.6582C87.8133 81.9505 87.8233 82.3805 87.7869 82.6602C87.7703 82.788 87.7407 82.8651 87.7942 83.0055C87.8658 83.1934 88.8281 84.178 88.8762 84.3374H87.4099ZM45.6905 110.214C45.8028 109.113 45.4423 107.705 45.3916 106.475C45.3806 106.209 45.557 105.961 45.3893 105.58C44.8014 104.247 42.3964 104.29 41.8229 103.999C40.6801 103.421 39.3672 102.963 38.1433 102.07C37.0568 101.278 35.8483 100.226 34.7921 99.557C34.2084 99.1874 35.6053 100.806 35.7756 100.987C36.6616 101.932 37.567 103.016 38.4588 103.893C39.563 104.979 40.8065 105.87 41.8685 107.016C42.6475 107.856 43.4649 108.417 44.2084 109.238C44.5419 109.607 46.266 111.05 45.6905 110.214ZM43.098 119.706C43.9611 118.901 44.4729 117.733 45.2303 116.786C45.3941 116.581 45.766 116.441 45.8219 116.106C46.0178 114.931 43.1684 114.297 42.6884 113.918C41.7321 113.162 40.4965 112.45 39.6534 111.434C38.9049 110.532 38.1865 109.398 37.3917 108.598C36.9524 108.156 37.5164 109.771 37.5955 109.956C38.0072 110.918 38.3496 111.992 38.8132 112.904C39.3873 114.034 40.2537 115.056 40.7388 116.219C41.0946 117.073 41.6806 117.725 42.0073 118.555C42.1538 118.927 43.2173 120.5 43.098 119.706ZM41.794 93.9393C42.6653 93.144 43.1892 91.9813 43.9563 91.0418C44.1223 90.8386 44.4956 90.7029 44.5549 90.3684C44.7629 89.1956 41.9202 88.532 41.4442 88.1477C40.4957 87.3821 39.2675 86.6577 38.4349 85.6327C37.6958 84.7228 36.9891 83.5817 36.2026 82.7733C35.7679 82.3265 36.3152 83.9474 36.3924 84.1332C36.7941 85.1 37.1255 86.1767 37.5796 87.0942C38.142 88.2302 38.9978 89.2604 39.4709 90.4289C39.8179 91.286 40.3971 91.9445 40.7152 92.7772C40.8579 93.1507 41.9051 94.7352 41.794 93.9393ZM49.3794 82.9986C48.8467 84.0512 47.867 84.8676 47.1675 85.8584C47.0162 86.0728 46.9855 86.4688 46.6791 86.6156C45.605 87.1304 44.2037 84.5695 43.7059 84.2139C42.7141 83.5054 41.687 82.5163 40.4764 81.9889C39.4016 81.5207 38.1129 81.1458 37.1233 80.6047C36.5763 80.3057 38.2846 80.3985 38.4842 80.423C39.5234 80.551 40.6495 80.5816 41.6551 80.7732C42.9003 81.0105 44.1222 81.5589 45.3747 81.7014C46.2935 81.806 47.0831 82.1875 47.9707 82.2708C48.3687 82.3081 50.1759 82.8923 49.3794 82.9986ZM75.0363 74.2996C74.2766 75.0107 73.3176 75.3628 72.4732 75.9626C72.2906 76.0923 72.1155 76.4196 71.8581 76.4371C70.9556 76.4984 71.0437 73.8184 70.858 73.3395C70.4881 72.3852 70.205 71.179 69.6214 70.3024C69.1033 69.5242 68.4091 68.7502 67.9751 67.9398C67.7352 67.4918 68.8137 68.1726 68.9344 68.2639C69.5624 68.739 70.2854 69.1617 70.8666 69.6794C71.5863 70.3205 72.1691 71.219 72.9307 71.7817C73.4893 72.1945 73.8553 72.7984 74.4019 73.182C74.6471 73.3541 75.5977 74.4892 75.0363 74.2996ZM35.6828 127.229C35.9344 126.219 35.7752 125.21 35.8882 124.18C35.9127 123.958 36.1134 123.645 36.0034 123.412C35.6178 122.594 33.3193 123.975 32.8106 124.046C31.797 124.187 30.6055 124.527 29.5557 124.444C28.6237 124.37 27.6097 124.14 26.6905 124.155C26.1824 124.164 27.302 124.775 27.4405 124.836C28.1612 125.153 28.8823 125.579 29.6175 125.835C30.5278 126.151 31.5963 126.223 32.4586 126.615C33.0911 126.902 33.7967 126.928 34.3978 127.218C34.6674 127.349 36.1218 127.627 35.6828 127.229Z" stroke="#00FFE0" stroke-linecap="round"/>
</svg>
