<svg width="107" height="107" viewBox="0 0 107 107" fill="none" xmlns="http://www.w3.org/2000/svg">
<mask id="mask0_206_2764" style="mask-type:alpha" maskUnits="userSpaceOnUse" x="0" y="0" width="107" height="107">
<rect width="106.46" height="106.46" rx="21.04" fill="#D9D9D9"/>
</mask>
<g mask="url(#mask0_206_2764)">
<circle cx="4.5889" cy="4.5889" r="4.5889" transform="matrix(-1 0 0 1 88.9995 39.6943)" fill="#00FFE0"/>
<circle cx="4.5889" cy="4.5889" r="4.5889" transform="matrix(-1 0 0 1 28.8091 39.6943)" fill="#00FFE0"/>
<circle cx="4.5889" cy="4.5889" r="4.5889" transform="matrix(-1 0 0 1 109.062 39.6943)" fill="#00FFE0"/>
<circle cx="4.5889" cy="4.5889" r="4.5889" transform="matrix(-1 0 0 1 48.873 39.6943)" fill="#00FFE0"/>
<circle cx="4.5889" cy="4.5889" r="4.5889" transform="matrix(-1 0 0 1 68.9326 39.6943)" fill="#00FFE0"/>
<circle cx="4.5889" cy="4.5889" r="4.5889" transform="matrix(-1 0 0 1 8.74609 39.6943)" fill="#00FFE0"/>
<circle cx="4.5889" cy="4.5889" r="4.5889" transform="matrix(-1 0 0 1 88.9995 99.8818)" fill="#00FFE0"/>
<circle cx="4.5889" cy="4.5889" r="4.5889" transform="matrix(-1 0 0 1 28.8091 99.8818)" fill="#00FFE0"/>
<circle cx="4.5889" cy="4.5889" r="4.5889" transform="matrix(-1 0 0 1 109.062 99.8818)" fill="#00FFE0"/>
<circle cx="4.5889" cy="4.5889" r="4.5889" transform="matrix(-1 0 0 1 48.873 99.8818)" fill="#00FFE0"/>
<circle cx="4.5889" cy="4.5889" r="4.5889" transform="matrix(-1 0 0 1 68.9326 99.8818)" fill="#00FFE0"/>
<circle cx="4.5889" cy="4.5889" r="4.5889" transform="matrix(-1 0 0 1 8.74609 99.8818)" fill="#00FFE0"/>
<circle cx="4.5889" cy="4.5889" r="4.5889" transform="matrix(-1 0 0 1 88.9995 19.6299)" fill="#00FFE0"/>
<circle cx="4.5889" cy="4.5889" r="4.5889" transform="matrix(-1 0 0 1 28.8091 19.6299)" fill="#00FFE0"/>
<circle cx="4.5889" cy="4.5889" r="4.5889" transform="matrix(-1 0 0 1 109.062 19.6299)" fill="#00FFE0"/>
<circle cx="4.5889" cy="4.5889" r="4.5889" transform="matrix(-1 0 0 1 48.873 19.6299)" fill="#00FFE0"/>
<circle cx="4.5889" cy="4.5889" r="4.5889" transform="matrix(-1 0 0 1 68.9326 19.6299)" fill="#00FFE0"/>
<circle cx="4.5889" cy="4.5889" r="4.5889" transform="matrix(-1 0 0 1 8.74609 19.6299)" fill="#00FFE0"/>
<circle cx="4.5889" cy="4.5889" r="4.5889" transform="matrix(-1 0 0 1 88.9995 79.8203)" fill="#00FFE0"/>
<circle cx="4.5889" cy="4.5889" r="4.5889" transform="matrix(-1 0 0 1 28.8091 79.8203)" fill="#00FFE0"/>
<circle cx="4.5889" cy="4.5889" r="4.5889" transform="matrix(-1 0 0 1 109.062 79.8203)" fill="#00FFE0"/>
<circle cx="4.5889" cy="4.5889" r="4.5889" transform="matrix(-1 0 0 1 48.873 79.8203)" fill="#00FFE0"/>
<circle cx="4.5889" cy="4.5889" r="4.5889" transform="matrix(-1 0 0 1 68.9326 79.8203)" fill="#00FFE0"/>
<circle cx="4.5889" cy="4.5889" r="4.5889" transform="matrix(-1 0 0 1 8.74609 79.8203)" fill="#00FFE0"/>
<circle cx="4.5889" cy="4.5889" r="4.5889" transform="matrix(-1 0 0 1 88.9995 -0.433594)" fill="#00FFE0"/>
<circle cx="4.5889" cy="4.5889" r="4.5889" transform="matrix(-1 0 0 1 28.8091 -0.433594)" fill="#00FFE0"/>
<circle cx="4.5889" cy="4.5889" r="4.5889" transform="matrix(-1 0 0 1 109.062 -0.433594)" fill="#00FFE0"/>
<circle cx="4.5889" cy="4.5889" r="4.5889" transform="matrix(-1 0 0 1 48.873 -0.433594)" fill="#00FFE0"/>
<circle cx="4.5889" cy="4.5889" r="4.5889" transform="matrix(-1 0 0 1 68.9326 -0.433594)" fill="#00FFE0"/>
<circle cx="4.5889" cy="4.5889" r="4.5889" transform="matrix(-1 0 0 1 8.74609 -0.433594)" fill="#00FFE0"/>
<circle cx="4.5889" cy="4.5889" r="4.5889" transform="matrix(-1 0 0 1 88.9995 59.7549)" fill="#00FFE0"/>
<circle cx="4.5889" cy="4.5889" r="4.5889" transform="matrix(-1 0 0 1 28.8091 59.7549)" fill="#00FFE0"/>
<circle cx="4.5889" cy="4.5889" r="4.5889" transform="matrix(-1 0 0 1 109.062 59.7549)" fill="#00FFE0"/>
<circle cx="4.5889" cy="4.5889" r="4.5889" transform="matrix(-1 0 0 1 48.873 59.7549)" fill="#00FFE0"/>
<circle cx="4.5889" cy="4.5889" r="4.5889" transform="matrix(-1 0 0 1 68.9326 59.7549)" fill="#00FFE0"/>
<circle cx="4.5889" cy="4.5889" r="4.5889" transform="matrix(-1 0 0 1 8.74609 59.7549)" fill="#00FFE0"/>
</g>
</svg>
