<svg width="107" height="107" viewBox="0 0 107 107" fill="none" xmlns="http://www.w3.org/2000/svg">
<mask id="mask0_206_2328" style="mask-type:alpha" maskUnits="userSpaceOnUse" x="0" y="0" width="107" height="107">
<rect width="106.46" height="106.46" rx="21.04" fill="#D9D9D9"/>
</mask>
<g mask="url(#mask0_206_2328)">
<path d="M368.728 172.468L-510.339 172.468M368.728 157.398L-510.339 157.398M368.728 142.328L-510.339 142.328M368.728 127.259L-510.339 127.259M368.728 112.189L-510.339 112.189M368.728 97.1193L-510.339 97.1193M368.728 82.0496L-510.339 82.0496M368.728 66.9799L-510.339 66.9798M368.728 51.9102L-510.339 51.9101M368.728 36.8404L-510.339 36.8404M368.728 21.7707L-510.339 21.7707M368.728 6.70099L-510.339 6.70095M368.728 -8.36874L-510.339 -8.36878M368.728 -23.4384L-510.339 -23.4385M368.728 -38.5082L-510.339 -38.5082M368.728 -53.5779L-510.339 -53.5779M368.728 -68.6476L-510.339 -68.6476M368.728 -83.7173L-510.339 -83.7174M368.728 -98.787L-510.339 -98.7871M368.728 -113.857L-510.339 -113.857M368.728 -128.926L-510.339 -128.927M368.728 -143.996L-510.339 -143.996M368.728 -159.066L-510.339 -159.066M368.728 -174.136L-510.339 -174.136M368.728 -189.205L-510.339 -189.205M368.728 -204.275L-510.339 -204.275M368.728 -219.345L-510.339 -219.345M368.728 -234.415L-510.339 -234.415M368.728 -249.484L-510.339 -249.484M368.728 -264.554L-510.339 -264.554M368.728 -279.624L-510.339 -279.624M368.728 -294.693L-510.339 -294.693M370.402 -507.344L370.402 371.723M355.333 -507.344L355.333 371.723M340.263 -507.344L340.263 371.723M325.193 -507.344L325.193 371.723M310.123 -507.344L310.123 371.723M295.054 -507.344L295.054 371.723M279.984 -507.344L279.984 371.723M264.914 -507.344L264.914 371.723M249.845 -507.344L249.845 371.723M234.775 -507.344L234.775 371.723M219.705 -507.344L219.705 371.723M204.635 -507.344L204.635 371.723M189.566 -507.344L189.566 371.723M174.496 -507.344L174.496 371.723M159.426 -507.344L159.426 371.723M144.356 -507.344L144.357 371.723M129.287 -507.344L129.287 371.723M114.217 -507.344L114.217 371.723M99.1473 -507.344L99.1473 371.723M84.0776 -507.344L84.0776 371.723M69.0079 -507.344L69.0079 371.723M53.9382 -507.344L53.9382 371.723M38.8684 -507.344L38.8685 371.723M23.7987 -507.344L23.7987 371.723M8.72901 -507.344L8.729 371.723M-6.34072 -507.344L-6.3407 371.723M-21.4105 -507.344L-21.4104 371.723M-36.4802 -507.344L-36.4802 371.723M-51.5499 -507.344L-51.5499 371.723M-66.6196 -507.344L-66.6196 371.723M-81.6893 -507.344L-81.6893 371.723M-96.7591 -507.344L-96.759 371.723M-111.829 -510.693L-111.829 368.374M-126.898 -510.693L-126.898 368.374M-141.968 -510.693L-141.968 368.374M-157.038 -510.693L-157.038 368.374M-172.108 -510.693L-172.108 368.374M-187.177 -510.693L-187.177 368.374M-202.247 -510.693L-202.247 368.374M-217.317 -510.693L-217.317 368.374M-232.387 -510.693L-232.387 368.374M-247.456 -510.693L-247.456 368.374M-262.526 -510.693L-262.526 368.374M-277.596 -510.693L-277.596 368.374M-292.665 -510.693L-292.665 368.374M-307.735 -510.693L-307.735 368.374M-322.805 -510.693L-322.805 368.374M-337.875 -510.693L-337.875 368.374M-352.944 -510.693L-352.944 368.374M-368.014 -510.693L-368.014 368.374M-383.084 -510.693L-383.084 368.374M-398.153 -510.693L-398.154 368.374M-413.223 -510.693L-413.223 368.374M-428.293 -510.693L-428.293 368.374M-443.363 -510.693L-443.363 368.374M-458.432 -510.693L-458.432 368.374M-473.502 -510.693L-473.502 368.374M-488.572 -510.693L-488.572 368.374M-503.642 -510.693L-503.642 368.374M-518.711 -510.693L-518.711 368.374M-533.781 -510.693L-533.781 368.374M-548.851 -510.693L-548.851 368.374M-563.92 -510.693L-563.92 368.374M-578.99 -510.693L-578.99 368.374" stroke="#00FFE0" stroke-width="2.0802"/>
</g>
</svg>
