<svg width="2768" height="71" viewBox="0 0 2768 71" fill="none" xmlns="http://www.w3.org/2000/svg">
<path d="M212.73 30.7431C212.104 27.8339 213.327 25.8646 216.4 24.8352H216.937H217.072H223.74H223.875H224.009H224.367L224.725 24.9247C226.023 25.4618 227.127 26.3868 228.037 27.6996C228.365 28.4754 228.276 29.0423 227.768 29.4004C227.246 29.7435 226.635 29.7137 225.933 29.3109L224.971 28.1919L224.456 27.7891L224.054 27.5654C223.904 27.5355 223.733 27.5131 223.539 27.4982C223.36 27.4684 223.158 27.4609 222.935 27.4758H216.736C215.692 27.9383 215.192 28.5873 215.237 29.4227C215.296 30.2582 215.789 30.8624 216.713 31.2354C216.863 31.2652 217.489 31.2876 218.593 31.3025C219.697 31.3025 221.294 31.2951 223.382 31.2801H223.516H223.651L224.546 31.3697C227.067 32.22 228.231 34.0401 228.037 36.83C227.709 38.7545 226.694 39.8734 224.993 40.1867L224.233 40.3657L216.579 40.321H216.355C215.609 40.1718 214.878 39.7988 214.162 39.202L214.028 39.1125C212.596 38.0085 212.111 37.091 212.573 36.36C213.051 35.6141 213.737 35.5917 214.632 36.2929C215.229 36.7554 215.751 37.1209 216.199 37.3894C216.661 37.6579 217.191 37.7549 217.788 37.6803L223.561 37.7251L223.919 37.6356H224.054C224.904 37.2924 225.351 36.636 225.396 35.6663C225.158 34.8607 224.591 34.2938 223.695 33.9655H223.382L216.355 33.9208L215.55 33.697C215.46 33.6672 215.401 33.6522 215.371 33.6522C214.162 33.1002 213.282 32.1305 212.73 30.7431ZM231.218 25.5737C231.353 25.0217 231.763 24.7382 232.449 24.7233C233.165 24.6935 233.62 24.9769 233.814 25.5737L233.859 35.9572L234.038 36.4943L234.083 36.5838C234.262 36.8225 234.448 37.0314 234.642 37.2104C234.836 37.3894 235.142 37.5386 235.56 37.6579H242.094L242.631 37.5237C243.138 37.2551 243.586 36.8374 243.974 36.2705C244.063 35.8528 244.093 35.2709 244.063 34.525V25.5289C244.168 24.9471 244.593 24.6562 245.339 24.6562C246.07 24.6562 246.525 24.9173 246.704 25.4394V36.181C246.719 36.7777 246.57 37.3148 246.256 37.7922C245.555 38.8664 244.526 39.672 243.168 40.2091C242.93 40.2687 242.601 40.2986 242.184 40.2986H236.858C234.441 40.597 232.636 39.6123 231.442 37.3447C231.382 37.1955 231.33 37.0388 231.285 36.8747C231.256 36.7106 231.233 36.539 231.218 36.36V25.5737ZM249.758 30.206C249.534 27.5504 250.773 25.7751 253.473 24.88H260.813H260.947H261.082H261.44L261.753 24.9247C263.125 25.417 264.289 26.342 265.244 27.6996V28.4157V28.55V28.6843C264.916 29.281 264.379 29.5645 263.633 29.5346C263.454 29.4899 263.29 29.4004 263.14 29.2661L263.006 29.2213C262.931 29.1169 262.842 29.0125 262.738 28.908C262.633 28.8036 262.514 28.6992 262.379 28.5948L262.156 28.3262L262.066 28.2367C262.006 28.2069 261.947 28.1621 261.887 28.1024C261.842 28.0278 261.783 27.9532 261.708 27.8786L261.35 27.6549L260.813 27.5206H254.86H254.413C254.308 27.5057 254.189 27.5206 254.055 27.5654H253.92L253.786 27.6549H253.652C253.279 27.8637 252.966 28.1621 252.712 28.55L252.623 28.5948C252.593 28.6693 252.563 28.7514 252.533 28.8409C252.503 28.9155 252.473 29.0125 252.444 29.1318L252.399 29.2213V29.7584V29.8927V35.711C252.399 35.9348 252.444 36.1884 252.533 36.4719C252.876 37.0537 253.398 37.4715 254.1 37.7251H254.637H254.771H260.768L261.082 37.6803C261.589 37.4416 262.066 37.0537 262.514 36.5167C262.573 36.4868 262.626 36.4495 262.67 36.4048C262.715 36.3451 262.767 36.278 262.827 36.2034L263.096 36.0243L263.185 35.9348L263.275 35.8901L263.364 35.8006C263.394 35.8006 263.424 35.7856 263.454 35.7558L263.767 35.711H264.125L264.438 35.7558C264.766 35.9348 265.035 36.2183 265.244 36.6062V36.6509V36.6062V36.6957V36.6509V36.7404V36.6957V36.7852V36.7404V36.83V36.7852V36.8747V36.83V36.9195V36.8747V36.9195V37.2775V37.3223V37.2775V37.367V37.3223V37.4118V37.367V37.4565V37.4118V37.5013V37.4565V37.5013C264.453 38.7843 263.29 39.7242 261.753 40.321L261.484 40.3657H255.308H255.174C253.533 40.5895 252.1 40.0673 250.877 38.7992C250.489 38.3815 250.161 37.8295 249.892 37.1432C249.863 37.0239 249.833 36.9344 249.803 36.8747L249.758 36.6062V30.206ZM268.268 30.206C268.044 27.5504 269.283 25.7751 271.983 24.88H279.323H279.457H279.592H279.95L280.263 24.9247C281.636 25.417 282.799 26.342 283.754 27.6996V28.4157V28.55V28.6843C283.426 29.281 282.889 29.5645 282.143 29.5346C281.964 29.4899 281.8 29.4004 281.65 29.2661L281.516 29.2213C281.442 29.1169 281.352 29.0125 281.248 28.908C281.143 28.8036 281.024 28.6992 280.89 28.5948L280.666 28.3262L280.576 28.2367C280.517 28.2069 280.457 28.1621 280.397 28.1024C280.353 28.0278 280.293 27.9532 280.218 27.8786L279.86 27.6549L279.323 27.5206H273.371H272.923C272.819 27.5057 272.699 27.5206 272.565 27.5654H272.431L272.296 27.6549H272.162C271.789 27.8637 271.476 28.1621 271.222 28.55L271.133 28.5948C271.103 28.6693 271.073 28.7514 271.043 28.8409C271.013 28.9155 270.983 29.0125 270.954 29.1318L270.909 29.2213V29.7584V29.8927V35.711C270.909 35.9348 270.954 36.1884 271.043 36.4719C271.386 37.0537 271.908 37.4715 272.61 37.7251H273.147H273.281H279.278L279.592 37.6803C280.099 37.4416 280.576 37.0537 281.024 36.5167C281.084 36.4868 281.136 36.4495 281.181 36.4048C281.225 36.3451 281.277 36.278 281.337 36.2034L281.606 36.0243L281.695 35.9348L281.785 35.8901L281.874 35.8006C281.904 35.8006 281.934 35.7856 281.964 35.7558L282.277 35.711H282.635L282.948 35.7558C283.277 35.9348 283.545 36.2183 283.754 36.6062V36.6509V36.6062V36.6957V36.6509V36.7404V36.6957V36.7852V36.7404V36.83V36.7852V36.8747V36.83V36.9195V36.8747V36.9195V37.2775V37.3223V37.2775V37.367V37.3223V37.4118V37.367V37.4565V37.4118V37.5013V37.4565V37.5013C282.963 38.7843 281.8 39.7242 280.263 40.321L279.994 40.3657H273.818H273.684C272.043 40.5895 270.611 40.0673 269.387 38.7992C268.999 38.3815 268.671 37.8295 268.403 37.1432C268.373 37.0239 268.343 36.9344 268.313 36.8747L268.268 36.6062V30.206ZM286.622 28.908C287.174 26.163 288.546 24.7904 290.739 24.7904H301.369C301.623 24.7904 301.817 24.9023 301.951 25.1261C302.085 25.3499 302.16 25.6408 302.175 25.9989C302.219 26.715 301.966 27.1924 301.414 27.4311H291.478L290.963 27.543C290.098 27.8712 289.531 28.4381 289.262 29.2437V31.2354H299.4C299.862 31.3697 300.086 31.8172 300.071 32.5781C300.056 33.3389 299.803 33.7865 299.31 33.9208H289.218L289.195 35.7558C289.419 36.7554 290.135 37.3745 291.344 37.6132L292.015 37.6579H301.212C301.779 37.6579 302.078 38.0831 302.108 38.9335C302.122 39.7391 301.824 40.2016 301.212 40.321H291.769H290.963H290.784H290.426C287.771 39.6347 286.502 37.9339 286.622 35.2187V28.908ZM305.871 30.7431C305.244 27.8339 306.468 25.8646 309.541 24.8352H310.078H310.212H316.881H317.015H317.15H317.508L317.866 24.9247C319.164 25.4618 320.268 26.3868 321.178 27.6996C321.506 28.4754 321.416 29.0423 320.909 29.4004C320.387 29.7435 319.775 29.7137 319.074 29.3109L318.112 28.1919L317.597 27.7891L317.194 27.5654C317.045 27.5355 316.874 27.5131 316.68 27.4982C316.501 27.4684 316.299 27.4609 316.075 27.4758H309.877C308.832 27.9383 308.333 28.5873 308.377 29.4227C308.437 30.2582 308.929 30.8624 309.854 31.2354C310.003 31.2652 310.63 31.2876 311.734 31.3025C312.838 31.3025 314.434 31.2951 316.523 31.2801H316.657H316.792L317.687 31.3697C320.208 32.22 321.372 34.0401 321.178 36.83C320.849 38.7545 319.835 39.8734 318.134 40.1867L317.373 40.3657L309.72 40.321H309.496C308.75 40.1718 308.019 39.7988 307.303 39.202L307.169 39.1125C305.737 38.0085 305.252 37.091 305.714 36.36C306.192 35.6141 306.878 35.5917 307.773 36.2929C308.37 36.7554 308.892 37.1209 309.34 37.3894C309.802 37.6579 310.332 37.7549 310.928 37.6803L316.702 37.7251L317.06 37.6356H317.194C318.045 37.2924 318.492 36.636 318.537 35.6663C318.298 34.8607 317.731 34.2938 316.836 33.9655H316.523L309.496 33.9208L308.691 33.697C308.601 33.6672 308.541 33.6522 308.512 33.6522C307.303 33.1002 306.423 32.1305 305.871 30.7431ZM325.299 30.7431C324.672 27.8339 325.896 25.8646 328.969 24.8352H329.506H329.64H336.309H336.443H336.578H336.936L337.294 24.9247C338.592 25.4618 339.696 26.3868 340.606 27.6996C340.934 28.4754 340.844 29.0423 340.337 29.4004C339.815 29.7435 339.203 29.7137 338.502 29.3109L337.54 28.1919L337.025 27.7891L336.622 27.5654C336.473 27.5355 336.302 27.5131 336.108 27.4982C335.929 27.4684 335.727 27.4609 335.503 27.4758H329.305C328.26 27.9383 327.761 28.5873 327.805 29.4227C327.865 30.2582 328.357 30.8624 329.282 31.2354C329.431 31.2652 330.058 31.2876 331.162 31.3025C332.266 31.3025 333.862 31.2951 335.951 31.2801H336.085H336.22L337.115 31.3697C339.636 32.22 340.8 34.0401 340.606 36.83C340.277 38.7545 339.263 39.8734 337.562 40.1867L336.801 40.3657L329.148 40.321H328.924C328.178 40.1718 327.447 39.7988 326.731 39.202L326.597 39.1125C325.165 38.0085 324.68 37.091 325.142 36.36C325.62 35.6141 326.306 35.5917 327.201 36.2929C327.798 36.7554 328.32 37.1209 328.768 37.3894C329.23 37.6579 329.76 37.7549 330.356 37.6803L336.13 37.7251L336.488 37.6356H336.622C337.473 37.2924 337.92 36.636 337.965 35.6663C337.726 34.8607 337.159 34.2938 336.264 33.9655H335.951L328.924 33.9208L328.119 33.697C328.029 33.6672 327.969 33.6522 327.94 33.6522C326.731 33.1002 325.851 32.1305 325.299 30.7431Z" fill="#00FFE0"/>
<path d="M815.441 30.7431C814.814 27.8339 816.038 25.8646 819.111 24.8352H819.648H819.782H826.451H826.585H826.72H827.078L827.436 24.9247C828.734 25.4618 829.838 26.3868 830.748 27.6996C831.076 28.4754 830.987 29.0423 830.479 29.4004C829.957 29.7435 829.345 29.7137 828.644 29.3109L827.682 28.1919L827.167 27.7891L826.764 27.5654C826.615 27.5355 826.444 27.5131 826.25 27.4982C826.071 27.4684 825.869 27.4609 825.646 27.4758H819.447C818.402 27.9383 817.903 28.5873 817.947 29.4227C818.007 30.2582 818.499 30.8624 819.424 31.2354C819.574 31.2652 820.2 31.2876 821.304 31.3025C822.408 31.3025 824.005 31.2951 826.093 31.2801H826.227H826.362L827.257 31.3697C829.778 32.22 830.942 34.0401 830.748 36.83C830.42 38.7545 829.405 39.8734 827.704 40.1867L826.944 40.3657L819.29 40.321H819.066C818.32 40.1718 817.589 39.7988 816.873 39.202L816.739 39.1125C815.307 38.0085 814.822 37.091 815.284 36.36C815.762 35.6141 816.448 35.5917 817.343 36.2929C817.94 36.7554 818.462 37.1209 818.91 37.3894C819.372 37.6579 819.902 37.7549 820.499 37.6803L826.272 37.7251L826.63 37.6356H826.764C827.615 37.2924 828.062 36.636 828.107 35.6663C827.868 34.8607 827.302 34.2938 826.406 33.9655H826.093L819.066 33.9208L818.261 33.697C818.171 33.6672 818.112 33.6522 818.082 33.6522C816.873 33.1002 815.993 32.1305 815.441 30.7431ZM833.929 25.5737C834.063 25.0217 834.474 24.7382 835.16 24.7233C835.876 24.6935 836.331 24.9769 836.525 25.5737L836.57 35.9572L836.749 36.4943L836.794 36.5838C836.973 36.8225 837.159 37.0314 837.353 37.2104C837.547 37.3894 837.853 37.5386 838.271 37.6579H844.805L845.342 37.5237C845.849 37.2551 846.297 36.8374 846.685 36.2705C846.774 35.8528 846.804 35.2709 846.774 34.525V25.5289C846.879 24.9471 847.304 24.6562 848.05 24.6562C848.781 24.6562 849.236 24.9173 849.415 25.4394V36.181C849.43 36.7777 849.281 37.3148 848.967 37.7922C848.266 38.8664 847.237 39.672 845.879 40.2091C845.64 40.2687 845.312 40.2986 844.895 40.2986H839.569C837.152 40.597 835.346 39.6123 834.153 37.3447C834.093 37.1955 834.041 37.0388 833.996 36.8747C833.966 36.7106 833.944 36.539 833.929 36.36V25.5737ZM852.469 30.206C852.245 27.5504 853.484 25.7751 856.184 24.88H863.524H863.658H863.792H864.151L864.464 24.9247C865.836 25.417 867 26.342 867.955 27.6996V28.4157V28.55V28.6843C867.627 29.281 867.09 29.5645 866.344 29.5346C866.165 29.4899 866 29.4004 865.851 29.2661L865.717 29.2213C865.642 29.1169 865.553 29.0125 865.448 28.908C865.344 28.8036 865.225 28.6992 865.09 28.5948L864.867 28.3262L864.777 28.2367C864.717 28.2069 864.658 28.1621 864.598 28.1024C864.553 28.0278 864.494 27.9532 864.419 27.8786L864.061 27.6549L863.524 27.5206H857.571H857.124C857.019 27.5057 856.9 27.5206 856.766 27.5654H856.631L856.497 27.6549H856.363C855.99 27.8637 855.677 28.1621 855.423 28.55L855.333 28.5948C855.304 28.6693 855.274 28.7514 855.244 28.8409C855.214 28.9155 855.184 29.0125 855.154 29.1318L855.11 29.2213V29.7584V29.8927V35.711C855.11 35.9348 855.154 36.1884 855.244 36.4719C855.587 37.0537 856.109 37.4715 856.81 37.7251H857.348H857.482H863.479L863.792 37.6803C864.3 37.4416 864.777 37.0537 865.225 36.5167C865.284 36.4868 865.337 36.4495 865.381 36.4048C865.426 36.3451 865.478 36.278 865.538 36.2034L865.807 36.0243L865.896 35.9348L865.986 35.8901L866.075 35.8006C866.105 35.8006 866.135 35.7856 866.165 35.7558L866.478 35.711H866.836L867.149 35.7558C867.477 35.9348 867.746 36.2183 867.955 36.6062V36.6509V36.6062V36.6957V36.6509V36.7404V36.6957V36.7852V36.7404V36.83V36.7852V36.8747V36.83V36.9195V36.8747V36.9195V37.2775V37.3223V37.2775V37.367V37.3223V37.4118V37.367V37.4565V37.4118V37.5013V37.4565V37.5013C867.164 38.7843 866 39.7242 864.464 40.321L864.195 40.3657H858.019H857.885C856.244 40.5895 854.811 40.0673 853.588 38.7992C853.2 38.3815 852.872 37.8295 852.603 37.1432C852.573 37.0239 852.544 36.9344 852.514 36.8747L852.469 36.6062V30.206ZM870.979 30.206C870.755 27.5504 871.994 25.7751 874.694 24.88H882.034H882.168H882.303H882.661L882.974 24.9247C884.346 25.417 885.51 26.342 886.465 27.6996V28.4157V28.55V28.6843C886.137 29.281 885.6 29.5645 884.854 29.5346C884.675 29.4899 884.511 29.4004 884.361 29.2661L884.227 29.2213C884.153 29.1169 884.063 29.0125 883.959 28.908C883.854 28.8036 883.735 28.6992 883.601 28.5948L883.377 28.3262L883.287 28.2367C883.228 28.2069 883.168 28.1621 883.108 28.1024C883.063 28.0278 883.004 27.9532 882.929 27.8786L882.571 27.6549L882.034 27.5206H876.081H875.634C875.529 27.5057 875.41 27.5206 875.276 27.5654H875.142L875.007 27.6549H874.873C874.5 27.8637 874.187 28.1621 873.933 28.55L873.844 28.5948C873.814 28.6693 873.784 28.7514 873.754 28.8409C873.724 28.9155 873.694 29.0125 873.665 29.1318L873.62 29.2213V29.7584V29.8927V35.711C873.62 35.9348 873.665 36.1884 873.754 36.4719C874.097 37.0537 874.619 37.4715 875.321 37.7251H875.858H875.992H881.989L882.303 37.6803C882.81 37.4416 883.287 37.0537 883.735 36.5167C883.794 36.4868 883.847 36.4495 883.891 36.4048C883.936 36.3451 883.988 36.278 884.048 36.2034L884.317 36.0243L884.406 35.9348L884.496 35.8901L884.585 35.8006C884.615 35.8006 884.645 35.7856 884.675 35.7558L884.988 35.711H885.346L885.659 35.7558C885.988 35.9348 886.256 36.2183 886.465 36.6062V36.6509V36.6062V36.6957V36.6509V36.7404V36.6957V36.7852V36.7404V36.83V36.7852V36.8747V36.83V36.9195V36.8747V36.9195V37.2775V37.3223V37.2775V37.367V37.3223V37.4118V37.367V37.4565V37.4118V37.5013V37.4565V37.5013C885.674 38.7843 884.511 39.7242 882.974 40.321L882.705 40.3657H876.529H876.395C874.754 40.5895 873.321 40.0673 872.098 38.7992C871.71 38.3815 871.382 37.8295 871.113 37.1432C871.084 37.0239 871.054 36.9344 871.024 36.8747L870.979 36.6062V30.206ZM889.333 28.908C889.885 26.163 891.257 24.7904 893.45 24.7904H904.08C904.334 24.7904 904.528 24.9023 904.662 25.1261C904.796 25.3499 904.871 25.6408 904.886 25.9989C904.93 26.715 904.677 27.1924 904.125 27.4311H894.189L893.674 27.543C892.809 27.8712 892.242 28.4381 891.973 29.2437V31.2354H902.111C902.573 31.3697 902.797 31.8172 902.782 32.5781C902.767 33.3389 902.514 33.7865 902.021 33.9208H891.929L891.906 35.7558C892.13 36.7554 892.846 37.3745 894.055 37.6132L894.726 37.6579H903.923C904.49 37.6579 904.789 38.0831 904.818 38.9335C904.833 39.7391 904.535 40.2016 903.923 40.321H894.48H893.674H893.495H893.137C890.481 39.6347 889.213 37.9339 889.333 35.2187V28.908ZM908.582 30.7431C907.955 27.8339 909.179 25.8646 912.252 24.8352H912.789H912.923H919.592H919.726H919.86H920.219L920.577 24.9247C921.875 25.4618 922.979 26.3868 923.889 27.6996C924.217 28.4754 924.127 29.0423 923.62 29.4004C923.098 29.7435 922.486 29.7137 921.785 29.3109L920.823 28.1919L920.308 27.7891L919.905 27.5654C919.756 27.5355 919.584 27.5131 919.391 27.4982C919.212 27.4684 919.01 27.4609 918.786 27.4758H912.588C911.543 27.9383 911.043 28.5873 911.088 29.4227C911.148 30.2582 911.64 30.8624 912.565 31.2354C912.714 31.2652 913.341 31.2876 914.445 31.3025C915.549 31.3025 917.145 31.2951 919.234 31.2801H919.368H919.502L920.398 31.3697C922.919 32.22 924.083 34.0401 923.889 36.83C923.56 38.7545 922.546 39.8734 920.845 40.1867L920.084 40.3657L912.431 40.321H912.207C911.461 40.1718 910.73 39.7988 910.014 39.202L909.88 39.1125C908.448 38.0085 907.963 37.091 908.425 36.36C908.903 35.6141 909.589 35.5917 910.484 36.2929C911.081 36.7554 911.603 37.1209 912.05 37.3894C912.513 37.6579 913.043 37.7549 913.639 37.6803L919.413 37.7251L919.771 37.6356H919.905C920.756 37.2924 921.203 36.636 921.248 35.6663C921.009 34.8607 920.442 34.2938 919.547 33.9655H919.234L912.207 33.9208L911.402 33.697C911.312 33.6672 911.252 33.6522 911.222 33.6522C910.014 33.1002 909.134 32.1305 908.582 30.7431ZM928.01 30.7431C927.383 27.8339 928.607 25.8646 931.68 24.8352H932.217H932.351H939.02H939.154H939.289H939.647L940.005 24.9247C941.303 25.4618 942.407 26.3868 943.317 27.6996C943.645 28.4754 943.555 29.0423 943.048 29.4004C942.526 29.7435 941.914 29.7137 941.213 29.3109L940.251 28.1919L939.736 27.7891L939.333 27.5654C939.184 27.5355 939.013 27.5131 938.819 27.4982C938.64 27.4684 938.438 27.4609 938.214 27.4758H932.016C930.971 27.9383 930.471 28.5873 930.516 29.4227C930.576 30.2582 931.068 30.8624 931.993 31.2354C932.142 31.2652 932.769 31.2876 933.873 31.3025C934.977 31.3025 936.573 31.2951 938.662 31.2801H938.796H938.93L939.826 31.3697C942.347 32.22 943.511 34.0401 943.317 36.83C942.988 38.7545 941.974 39.8734 940.273 40.1867L939.512 40.3657L931.859 40.321H931.635C930.889 40.1718 930.158 39.7988 929.442 39.202L929.308 39.1125C927.876 38.0085 927.391 37.091 927.853 36.36C928.331 35.6141 929.017 35.5917 929.912 36.2929C930.509 36.7554 931.031 37.1209 931.478 37.3894C931.941 37.6579 932.471 37.7549 933.067 37.6803L938.841 37.7251L939.199 37.6356H939.333C940.184 37.2924 940.631 36.636 940.676 35.6663C940.437 34.8607 939.87 34.2938 938.975 33.9655H938.662L931.635 33.9208L930.83 33.697C930.74 33.6672 930.68 33.6522 930.65 33.6522C929.442 33.1002 928.562 32.1305 928.01 30.7431Z" fill="#00FFE0"/>
<path d="M1418.04 30.7431C1417.42 27.8339 1418.64 25.8646 1421.71 24.8352H1422.25H1422.39H1429.05H1429.19H1429.32H1429.68L1430.04 24.9247C1431.34 25.4618 1432.44 26.3868 1433.35 27.6996C1433.68 28.4754 1433.59 29.0423 1433.08 29.4004C1432.56 29.7435 1431.95 29.7137 1431.25 29.3109L1430.29 28.1919L1429.77 27.7891L1429.37 27.5654C1429.22 27.5355 1429.05 27.5131 1428.85 27.4982C1428.67 27.4684 1428.47 27.4609 1428.25 27.4758H1422.05C1421.01 27.9383 1420.51 28.5873 1420.55 29.4227C1420.61 30.2582 1421.1 30.8624 1422.03 31.2354C1422.18 31.2652 1422.8 31.2876 1423.91 31.3025C1425.01 31.3025 1426.61 31.2951 1428.7 31.2801H1428.83H1428.97L1429.86 31.3697C1432.38 32.22 1433.55 34.0401 1433.35 36.83C1433.02 38.7545 1432.01 39.8734 1430.31 40.1867L1429.55 40.3657L1421.89 40.321H1421.67C1420.92 40.1718 1420.19 39.7988 1419.48 39.202L1419.34 39.1125C1417.91 38.0085 1417.43 37.091 1417.89 36.36C1418.37 35.6141 1419.05 35.5917 1419.95 36.2929C1420.54 36.7554 1421.07 37.1209 1421.51 37.3894C1421.98 37.6579 1422.51 37.7549 1423.1 37.6803L1428.88 37.7251L1429.23 37.6356H1429.37C1430.22 37.2924 1430.67 36.636 1430.71 35.6663C1430.47 34.8607 1429.91 34.2938 1429.01 33.9655H1428.7L1421.67 33.9208L1420.86 33.697C1420.77 33.6672 1420.72 33.6522 1420.69 33.6522C1419.48 33.1002 1418.6 32.1305 1418.04 30.7431ZM1436.53 25.5737C1436.67 25.0217 1437.08 24.7382 1437.76 24.7233C1438.48 24.6935 1438.93 24.9769 1439.13 25.5737L1439.17 35.9572L1439.35 36.4943L1439.4 36.5838C1439.58 36.8225 1439.76 37.0314 1439.96 37.2104C1440.15 37.3894 1440.46 37.5386 1440.87 37.6579H1447.41L1447.95 37.5237C1448.45 37.2551 1448.9 36.8374 1449.29 36.2705C1449.38 35.8528 1449.41 35.2709 1449.38 34.525V25.5289C1449.48 24.9471 1449.91 24.6562 1450.65 24.6562C1451.38 24.6562 1451.84 24.9173 1452.02 25.4394V36.181C1452.03 36.7777 1451.88 37.3148 1451.57 37.7922C1450.87 38.8664 1449.84 39.672 1448.48 40.2091C1448.24 40.2687 1447.92 40.2986 1447.5 40.2986H1442.17C1439.76 40.597 1437.95 39.6123 1436.76 37.3447C1436.7 37.1955 1436.64 37.0388 1436.6 36.8747C1436.57 36.7106 1436.55 36.539 1436.53 36.36V25.5737ZM1455.07 30.206C1454.85 27.5504 1456.09 25.7751 1458.79 24.88H1466.13H1466.26H1466.4H1466.75L1467.07 24.9247C1468.44 25.417 1469.6 26.342 1470.56 27.6996V28.4157V28.55V28.6843C1470.23 29.281 1469.69 29.5645 1468.95 29.5346C1468.77 29.4899 1468.6 29.4004 1468.45 29.2661L1468.32 29.2213C1468.25 29.1169 1468.16 29.0125 1468.05 28.908C1467.95 28.8036 1467.83 28.6992 1467.69 28.5948L1467.47 28.3262L1467.38 28.2367C1467.32 28.2069 1467.26 28.1621 1467.2 28.1024C1467.16 28.0278 1467.1 27.9532 1467.02 27.8786L1466.66 27.6549L1466.13 27.5206H1460.17H1459.73C1459.62 27.5057 1459.5 27.5206 1459.37 27.5654H1459.23L1459.1 27.6549H1458.97C1458.59 27.8637 1458.28 28.1621 1458.03 28.55L1457.94 28.5948C1457.91 28.6693 1457.88 28.7514 1457.85 28.8409C1457.82 28.9155 1457.79 29.0125 1457.76 29.1318L1457.71 29.2213V29.7584V29.8927V35.711C1457.71 35.9348 1457.76 36.1884 1457.85 36.4719C1458.19 37.0537 1458.71 37.4715 1459.41 37.7251H1459.95H1460.09H1466.08L1466.4 37.6803C1466.9 37.4416 1467.38 37.0537 1467.83 36.5167C1467.89 36.4868 1467.94 36.4495 1467.98 36.4048C1468.03 36.3451 1468.08 36.278 1468.14 36.2034L1468.41 36.0243L1468.5 35.9348L1468.59 35.8901L1468.68 35.8006C1468.71 35.8006 1468.74 35.7856 1468.77 35.7558L1469.08 35.711H1469.44L1469.75 35.7558C1470.08 35.9348 1470.35 36.2183 1470.56 36.6062V36.6509V36.6062V36.6957V36.6509V36.7404V36.6957V36.7852V36.7404V36.83V36.7852V36.8747V36.83V36.9195V36.8747V36.9195V37.2775V37.3223V37.2775V37.367V37.3223V37.4118V37.367V37.4565V37.4118V37.5013V37.4565V37.5013C1469.77 38.7843 1468.6 39.7242 1467.07 40.321L1466.8 40.3657H1460.62H1460.49C1458.85 40.5895 1457.41 40.0673 1456.19 38.7992C1455.8 38.3815 1455.48 37.8295 1455.21 37.1432C1455.18 37.0239 1455.15 36.9344 1455.12 36.8747L1455.07 36.6062V30.206ZM1473.58 30.206C1473.36 27.5504 1474.6 25.7751 1477.3 24.88H1484.64H1484.77H1484.91H1485.26L1485.58 24.9247C1486.95 25.417 1488.11 26.342 1489.07 27.6996V28.4157V28.55V28.6843C1488.74 29.281 1488.2 29.5645 1487.46 29.5346C1487.28 29.4899 1487.11 29.4004 1486.96 29.2661L1486.83 29.2213C1486.76 29.1169 1486.67 29.0125 1486.56 28.908C1486.46 28.8036 1486.34 28.6992 1486.2 28.5948L1485.98 28.3262L1485.89 28.2367C1485.83 28.2069 1485.77 28.1621 1485.71 28.1024C1485.67 28.0278 1485.61 27.9532 1485.53 27.8786L1485.17 27.6549L1484.64 27.5206H1478.68H1478.24C1478.13 27.5057 1478.01 27.5206 1477.88 27.5654H1477.75L1477.61 27.6549H1477.48C1477.1 27.8637 1476.79 28.1621 1476.54 28.55L1476.45 28.5948C1476.42 28.6693 1476.39 28.7514 1476.36 28.8409C1476.33 28.9155 1476.3 29.0125 1476.27 29.1318L1476.22 29.2213V29.7584V29.8927V35.711C1476.22 35.9348 1476.27 36.1884 1476.36 36.4719C1476.7 37.0537 1477.22 37.4715 1477.92 37.7251H1478.46H1478.6H1484.59L1484.91 37.6803C1485.41 37.4416 1485.89 37.0537 1486.34 36.5167C1486.4 36.4868 1486.45 36.4495 1486.49 36.4048C1486.54 36.3451 1486.59 36.278 1486.65 36.2034L1486.92 36.0243L1487.01 35.9348L1487.1 35.8901L1487.19 35.8006C1487.22 35.8006 1487.25 35.7856 1487.28 35.7558L1487.59 35.711H1487.95L1488.26 35.7558C1488.59 35.9348 1488.86 36.2183 1489.07 36.6062V36.6509V36.6062V36.6957V36.6509V36.7404V36.6957V36.7852V36.7404V36.83V36.7852V36.8747V36.83V36.9195V36.8747V36.9195V37.2775V37.3223V37.2775V37.367V37.3223V37.4118V37.367V37.4565V37.4118V37.5013V37.4565V37.5013C1488.28 38.7843 1487.11 39.7242 1485.58 40.321L1485.31 40.3657H1479.13H1479C1477.36 40.5895 1475.92 40.0673 1474.7 38.7992C1474.31 38.3815 1473.99 37.8295 1473.72 37.1432C1473.69 37.0239 1473.66 36.9344 1473.63 36.8747L1473.58 36.6062V30.206ZM1491.94 28.908C1492.49 26.163 1493.86 24.7904 1496.05 24.7904H1506.68C1506.94 24.7904 1507.13 24.9023 1507.27 25.1261C1507.4 25.3499 1507.47 25.6408 1507.49 25.9989C1507.53 26.715 1507.28 27.1924 1506.73 27.4311H1496.79L1496.28 27.543C1495.41 27.8712 1494.85 28.4381 1494.58 29.2437V31.2354H1504.71C1505.18 31.3697 1505.4 31.8172 1505.39 32.5781C1505.37 33.3389 1505.12 33.7865 1504.62 33.9208H1494.53L1494.51 35.7558C1494.73 36.7554 1495.45 37.3745 1496.66 37.6132L1497.33 37.6579H1506.53C1507.09 37.6579 1507.39 38.0831 1507.42 38.9335C1507.44 39.7391 1507.14 40.2016 1506.53 40.321H1497.08H1496.28H1496.1H1495.74C1493.08 39.6347 1491.82 37.9339 1491.94 35.2187V28.908ZM1511.19 30.7431C1510.56 27.8339 1511.78 25.8646 1514.86 24.8352H1515.39H1515.53H1522.2H1522.33H1522.46H1522.82L1523.18 24.9247C1524.48 25.4618 1525.58 26.3868 1526.49 27.6996C1526.82 28.4754 1526.73 29.0423 1526.22 29.4004C1525.7 29.7435 1525.09 29.7137 1524.39 29.3109L1523.43 28.1919L1522.91 27.7891L1522.51 27.5654C1522.36 27.5355 1522.19 27.5131 1521.99 27.4982C1521.82 27.4684 1521.61 27.4609 1521.39 27.4758H1515.19C1514.15 27.9383 1513.65 28.5873 1513.69 29.4227C1513.75 30.2582 1514.24 30.8624 1515.17 31.2354C1515.32 31.2652 1515.94 31.2876 1517.05 31.3025C1518.15 31.3025 1519.75 31.2951 1521.84 31.2801H1521.97H1522.11L1523 31.3697C1525.52 32.22 1526.69 34.0401 1526.49 36.83C1526.16 38.7545 1525.15 39.8734 1523.45 40.1867L1522.69 40.3657L1515.03 40.321H1514.81C1514.06 40.1718 1513.33 39.7988 1512.62 39.202L1512.48 39.1125C1511.05 38.0085 1510.57 37.091 1511.03 36.36C1511.51 35.6141 1512.19 35.5917 1513.09 36.2929C1513.68 36.7554 1514.21 37.1209 1514.65 37.3894C1515.12 37.6579 1515.65 37.7549 1516.24 37.6803L1522.02 37.7251L1522.37 37.6356H1522.51C1523.36 37.2924 1523.81 36.636 1523.85 35.6663C1523.61 34.8607 1523.05 34.2938 1522.15 33.9655H1521.84L1514.81 33.9208L1514.01 33.697C1513.92 33.6672 1513.86 33.6522 1513.83 33.6522C1512.62 33.1002 1511.74 32.1305 1511.19 30.7431ZM1530.61 30.7431C1529.99 27.8339 1531.21 25.8646 1534.28 24.8352H1534.82H1534.95H1541.62H1541.76H1541.89H1542.25L1542.61 24.9247C1543.91 25.4618 1545.01 26.3868 1545.92 27.6996C1546.25 28.4754 1546.16 29.0423 1545.65 29.4004C1545.13 29.7435 1544.52 29.7137 1543.82 29.3109L1542.85 28.1919L1542.34 27.7891L1541.94 27.5654C1541.79 27.5355 1541.62 27.5131 1541.42 27.4982C1541.24 27.4684 1541.04 27.4609 1540.82 27.4758H1534.62C1533.57 27.9383 1533.07 28.5873 1533.12 29.4227C1533.18 30.2582 1533.67 30.8624 1534.6 31.2354C1534.75 31.2652 1535.37 31.2876 1536.48 31.3025C1537.58 31.3025 1539.18 31.2951 1541.27 31.2801H1541.4H1541.53L1542.43 31.3697C1544.95 32.22 1546.11 34.0401 1545.92 36.83C1545.59 38.7545 1544.58 39.8734 1542.88 40.1867L1542.12 40.3657L1534.46 40.321H1534.24C1533.49 40.1718 1532.76 39.7988 1532.05 39.202L1531.91 39.1125C1530.48 38.0085 1529.99 37.091 1530.46 36.36C1530.93 35.6141 1531.62 35.5917 1532.52 36.2929C1533.11 36.7554 1533.63 37.1209 1534.08 37.3894C1534.54 37.6579 1535.07 37.7549 1535.67 37.6803L1541.44 37.7251L1541.8 37.6356H1541.94C1542.79 37.2924 1543.23 36.636 1543.28 35.6663C1543.04 34.8607 1542.47 34.2938 1541.58 33.9655H1541.27L1534.24 33.9208L1533.43 33.697C1533.34 33.6672 1533.28 33.6522 1533.25 33.6522C1532.05 33.1002 1531.17 32.1305 1530.61 30.7431Z" fill="#00FFE0"/>
<ellipse cx="577.315" cy="34.0168" rx="8.26824" ry="8.85393" fill="#00FFE0"/>
<ellipse cx="1180.03" cy="34.0168" rx="8.26824" ry="8.85393" fill="#00FFE0"/>
<path d="M358.657 34.0177H430.05C430.543 34.0177 431.015 33.8228 431.365 33.4754L440.045 24.8435C440.998 23.8957 442.61 24.2377 443.097 25.4908L449.525 42.0534C450.236 43.886 452.932 43.512 453.118 41.555L455.905 12.1722C456.107 10.0466 459.144 9.87419 459.585 11.9633L463.557 30.7842C463.953 32.661 466.584 32.788 467.159 30.9581L468.031 28.1835C468.568 26.473 470.975 26.4335 471.568 28.1253L475.577 39.5543C476.072 40.9653 477.943 41.2484 478.834 40.0469L482.742 34.772C483.094 34.2976 483.649 34.0177 484.24 34.0177H553.12" stroke="#FF00E5" stroke-width="1.87434" stroke-linejoin="round"/>
<path d="M0 34.0177H71.393C71.8856 34.0177 72.3582 33.8228 72.7074 33.4754L81.3873 24.8435C82.3404 23.8957 83.953 24.2377 84.4394 25.4908L90.8675 42.0534C91.5787 43.886 94.2752 43.512 94.4608 41.555L97.2482 12.1722C97.4498 10.0466 100.487 9.87419 100.928 11.9633L104.9 30.7842C105.296 32.661 107.927 32.788 108.502 30.9581L109.374 28.1835C109.911 26.473 112.317 26.4335 112.911 28.1253L116.92 39.5543C117.415 40.9653 119.286 41.2484 120.176 40.0469L124.085 34.772C124.436 34.2976 124.992 34.0177 125.582 34.0177H194.463" stroke="#FF00E5" stroke-width="1.87434" stroke-linejoin="round"/>
<path d="M961.369 34.0177H1032.76C1033.25 34.0177 1033.73 33.8228 1034.08 33.4754L1042.76 24.8435C1043.71 23.8957 1045.32 24.2377 1045.81 25.4908L1052.24 42.0534C1052.95 43.886 1055.64 43.512 1055.83 41.555L1058.62 12.1722C1058.82 10.0466 1061.86 9.87419 1062.3 11.9633L1066.27 30.7842C1066.66 32.661 1069.3 32.788 1069.87 30.9581L1070.74 28.1835C1071.28 26.473 1073.69 26.4335 1074.28 28.1253L1078.29 39.5543C1078.78 40.9653 1080.65 41.2484 1081.55 40.0469L1085.45 34.772C1085.8 34.2976 1086.36 34.0177 1086.95 34.0177H1155.83" stroke="#FF00E5" stroke-width="1.87434" stroke-linejoin="round"/>
<path d="M601.849 34.0177H673.242C673.734 34.0177 674.207 33.8228 674.556 33.4754L683.236 24.8435C684.189 23.8957 685.802 24.2377 686.288 25.4908L692.716 42.0534C693.427 43.886 696.124 43.512 696.309 41.555L699.097 12.1722C699.298 10.0466 702.335 9.87419 702.776 11.9633L706.748 30.7842C707.144 32.661 709.775 32.788 710.35 30.9581L711.222 28.1835C711.76 26.473 714.166 26.4335 714.759 28.1253L718.768 39.5543C719.263 40.9653 721.135 41.2484 722.025 40.0469L725.933 34.772C726.285 34.2976 726.841 34.0177 727.431 34.0177H796.311" stroke="#FF00E5" stroke-width="1.87434" stroke-linejoin="round"/>
<path d="M1204.45 34.0177H1275.85C1276.34 34.0177 1276.81 33.8228 1277.16 33.4754L1285.84 24.8435C1286.79 23.8957 1288.41 24.2377 1288.89 25.4908L1295.32 42.0534C1296.03 43.886 1298.73 43.512 1298.91 41.555L1301.7 12.1722C1301.9 10.0466 1304.94 9.87419 1305.38 11.9633L1309.35 30.7842C1309.75 32.661 1312.38 32.788 1312.95 30.9581L1313.83 28.1835C1314.36 26.473 1316.77 26.4335 1317.36 28.1253L1321.37 39.5543C1321.87 40.9653 1323.74 41.2484 1324.63 40.0469L1328.54 34.772C1328.89 34.2976 1329.44 34.0177 1330.03 34.0177H1398.91" stroke="#FF00E5" stroke-width="1.87434" stroke-linejoin="round"/>
<path d="M1417.73 30.7428C1417.1 27.8336 1418.33 25.8644 1421.4 24.835H1421.94H1422.07H1428.74H1428.87H1429.01H1429.37L1429.72 24.9245C1431.02 25.4616 1432.13 26.3865 1433.04 27.6994C1433.37 28.4752 1433.28 29.0421 1432.77 29.4001C1432.25 29.7433 1431.63 29.7134 1430.93 29.3106L1429.97 28.1917L1429.46 27.7889L1429.05 27.5651C1428.9 27.5353 1428.73 27.5129 1428.54 27.498C1428.36 27.4681 1428.16 27.4607 1427.93 27.4756H1421.74C1420.69 27.9381 1420.19 28.587 1420.24 29.4225C1420.3 30.258 1420.79 30.8622 1421.71 31.2351C1421.86 31.265 1422.49 31.2874 1423.59 31.3023C1424.7 31.3023 1426.29 31.2948 1428.38 31.2799H1428.52H1428.65L1429.55 31.3694C1432.07 32.2198 1433.23 34.0399 1433.04 36.8297C1432.71 38.7542 1431.69 39.8732 1429.99 40.1864L1429.23 40.3655L1421.58 40.3207H1421.36C1420.61 40.1715 1419.88 39.7986 1419.16 39.2018L1419.03 39.1123C1417.6 38.0083 1417.11 37.0908 1417.57 36.3598C1418.05 35.6138 1418.74 35.5914 1419.63 36.2926C1420.23 36.7551 1420.75 37.1206 1421.2 37.3892C1421.66 37.6577 1422.19 37.7547 1422.79 37.6801L1428.56 37.7248L1428.92 37.6353H1429.05C1429.9 37.2922 1430.35 36.6358 1430.4 35.666C1430.16 34.8604 1429.59 34.2935 1428.7 33.9653H1428.38L1421.36 33.9205L1420.55 33.6968C1420.46 33.6669 1420.4 33.652 1420.37 33.652C1419.16 33.1 1418.28 32.1303 1417.73 30.7428ZM1436.22 25.5734C1436.35 25.0214 1436.76 24.738 1437.45 24.7231C1438.17 24.6932 1438.62 24.9767 1438.81 25.5734L1438.86 35.957L1439.04 36.494L1439.08 36.5835C1439.26 36.8223 1439.45 37.0311 1439.64 37.2101C1439.84 37.3892 1440.14 37.5384 1440.56 37.6577H1447.09L1447.63 37.5234C1448.14 37.2549 1448.59 36.8372 1448.97 36.2703C1449.06 35.8525 1449.09 35.2707 1449.06 34.5247V25.5287C1449.17 24.9469 1449.59 24.6559 1450.34 24.6559C1451.07 24.6559 1451.52 24.917 1451.7 25.4392V36.1807C1451.72 36.7775 1451.57 37.3146 1451.26 37.792C1450.56 38.8661 1449.53 39.6717 1448.17 40.2088C1447.93 40.2685 1447.6 40.2983 1447.18 40.2983H1441.86C1439.44 40.5967 1437.64 39.6121 1436.44 37.3444C1436.38 37.1952 1436.33 37.0386 1436.29 36.8745C1436.26 36.7104 1436.23 36.5388 1436.22 36.3598V25.5734ZM1454.76 30.2057C1454.53 27.5502 1455.77 25.7748 1458.47 24.8797H1465.81H1465.95H1466.08H1466.44L1466.75 24.9245C1468.13 25.4168 1469.29 26.3418 1470.24 27.6994V28.4155V28.5498V28.684C1469.92 29.2808 1469.38 29.5642 1468.63 29.5344C1468.45 29.4896 1468.29 29.4001 1468.14 29.2659L1468.01 29.2211C1467.93 29.1167 1467.84 29.0122 1467.74 28.9078C1467.63 28.8034 1467.51 28.6989 1467.38 28.5945L1467.16 28.326L1467.07 28.2365C1467.01 28.2066 1466.95 28.1619 1466.89 28.1022C1466.84 28.0276 1466.78 27.953 1466.71 27.8784L1466.35 27.6546L1465.81 27.5204H1459.86H1459.41C1459.31 27.5054 1459.19 27.5204 1459.05 27.5651H1458.92L1458.79 27.6546H1458.65C1458.28 27.8635 1457.97 28.1619 1457.71 28.5498L1457.62 28.5945C1457.59 28.6691 1457.56 28.7512 1457.53 28.8407C1457.5 28.9153 1457.47 29.0122 1457.44 29.1316L1457.4 29.2211V29.7582V29.8924V35.7108C1457.4 35.9346 1457.44 36.1882 1457.53 36.4717C1457.88 37.0535 1458.4 37.4712 1459.1 37.7248H1459.64H1459.77H1465.77L1466.08 37.6801C1466.59 37.4414 1467.07 37.0535 1467.51 36.5164C1467.57 36.4866 1467.63 36.4493 1467.67 36.4045C1467.72 36.3448 1467.77 36.2777 1467.83 36.2031L1468.1 36.0241L1468.19 35.9346L1468.27 35.8898L1468.36 35.8003C1468.39 35.8003 1468.42 35.7854 1468.45 35.7556L1468.77 35.7108H1469.12L1469.44 35.7556C1469.77 35.9346 1470.04 36.218 1470.24 36.6059V36.6507V36.6059V36.6954V36.6507V36.7402V36.6954V36.785V36.7402V36.8297V36.785V36.8745V36.8297V36.9192V36.8745V36.9192V37.2773V37.322V37.2773V37.3668V37.322V37.4115V37.3668V37.4563V37.4115V37.5011V37.4563V37.5011C1469.45 38.7841 1468.29 39.724 1466.75 40.3207L1466.48 40.3655H1460.31H1460.17C1458.53 40.5893 1457.1 40.0671 1455.88 38.799C1455.49 38.3813 1455.16 37.8293 1454.89 37.143C1454.86 37.0237 1454.83 36.9341 1454.8 36.8745L1454.76 36.6059V30.2057ZM1473.27 30.2057C1473.04 27.5502 1474.28 25.7748 1476.98 24.8797H1484.32H1484.46H1484.59H1484.95L1485.26 24.9245C1486.64 25.4168 1487.8 26.3418 1488.75 27.6994V28.4155V28.5498V28.684C1488.43 29.2808 1487.89 29.5642 1487.14 29.5344C1486.96 29.4896 1486.8 29.4001 1486.65 29.2659L1486.52 29.2211C1486.44 29.1167 1486.35 29.0122 1486.25 28.9078C1486.14 28.8034 1486.02 28.6989 1485.89 28.5945L1485.67 28.326L1485.58 28.2365C1485.52 28.2066 1485.46 28.1619 1485.4 28.1022C1485.35 28.0276 1485.29 27.953 1485.22 27.8784L1484.86 27.6546L1484.32 27.5204H1478.37H1477.92C1477.82 27.5054 1477.7 27.5204 1477.56 27.5651H1477.43L1477.3 27.6546H1477.16C1476.79 27.8635 1476.48 28.1619 1476.22 28.5498L1476.13 28.5945C1476.1 28.6691 1476.07 28.7512 1476.04 28.8407C1476.01 28.9153 1475.98 29.0122 1475.95 29.1316L1475.91 29.2211V29.7582V29.8924V35.7108C1475.91 35.9346 1475.95 36.1882 1476.04 36.4717C1476.39 37.0535 1476.91 37.4712 1477.61 37.7248H1478.15H1478.28H1484.28L1484.59 37.6801C1485.1 37.4414 1485.58 37.0535 1486.02 36.5164C1486.08 36.4866 1486.14 36.4493 1486.18 36.4045C1486.23 36.3448 1486.28 36.2777 1486.34 36.2031L1486.61 36.0241L1486.7 35.9346L1486.78 35.8898L1486.87 35.8003C1486.9 35.8003 1486.93 35.7854 1486.96 35.7556L1487.28 35.7108H1487.64L1487.95 35.7556C1488.28 35.9346 1488.55 36.218 1488.75 36.6059V36.6507V36.6059V36.6954V36.6507V36.7402V36.6954V36.785V36.7402V36.8297V36.785V36.8745V36.8297V36.9192V36.8745V36.9192V37.2773V37.322V37.2773V37.3668V37.322V37.4115V37.3668V37.4563V37.4115V37.5011V37.4563V37.5011C1487.96 38.7841 1486.8 39.724 1485.26 40.3207L1484.99 40.3655H1478.82H1478.68C1477.04 40.5893 1475.61 40.0671 1474.39 38.799C1474 38.3813 1473.67 37.8293 1473.4 37.143C1473.37 37.0237 1473.34 36.9341 1473.31 36.8745L1473.27 36.6059V30.2057ZM1491.62 28.9078C1492.17 26.1627 1493.55 24.7902 1495.74 24.7902H1506.37C1506.62 24.7902 1506.82 24.9021 1506.95 25.1259C1507.09 25.3497 1507.16 25.6406 1507.17 25.9986C1507.22 26.7147 1506.97 27.1921 1506.41 27.4308H1496.48L1495.96 27.5427C1495.1 27.8709 1494.53 28.4379 1494.26 29.2435V31.2351H1504.4C1504.86 31.3694 1505.09 31.817 1505.07 32.5778C1505.06 33.3387 1504.8 33.7863 1504.31 33.9205H1494.22L1494.2 35.7556C1494.42 36.7551 1495.14 37.3742 1496.34 37.6129L1497.01 37.6577H1506.21C1506.78 37.6577 1507.08 38.0829 1507.11 38.9333C1507.12 39.7389 1506.82 40.2014 1506.21 40.3207H1496.77H1495.96H1495.78H1495.43C1492.77 39.6345 1491.5 37.9337 1491.62 35.2185V28.9078ZM1510.87 30.7428C1510.24 27.8336 1511.47 25.8644 1514.54 24.835H1515.08H1515.21H1521.88H1522.02H1522.15H1522.51L1522.87 24.9245C1524.16 25.4616 1525.27 26.3865 1526.18 27.6994C1526.51 28.4752 1526.42 29.0421 1525.91 29.4001C1525.39 29.7433 1524.78 29.7134 1524.07 29.3106L1523.11 28.1917L1522.6 27.7889L1522.19 27.5651C1522.05 27.5353 1521.87 27.5129 1521.68 27.498C1521.5 27.4681 1521.3 27.4607 1521.08 27.4756H1514.88C1513.83 27.9381 1513.33 28.587 1513.38 29.4225C1513.44 30.258 1513.93 30.8622 1514.85 31.2351C1515 31.265 1515.63 31.2874 1516.73 31.3023C1517.84 31.3023 1519.43 31.2948 1521.52 31.2799H1521.66H1521.79L1522.69 31.3694C1525.21 32.2198 1526.37 34.0399 1526.18 36.8297C1525.85 38.7542 1524.83 39.8732 1523.13 40.1864L1522.37 40.3655L1514.72 40.3207H1514.5C1513.75 40.1715 1513.02 39.7986 1512.3 39.2018L1512.17 39.1123C1510.74 38.0083 1510.25 37.0908 1510.71 36.3598C1511.19 35.6138 1511.88 35.5914 1512.77 36.2926C1513.37 36.7551 1513.89 37.1206 1514.34 37.3892C1514.8 37.6577 1515.33 37.7547 1515.93 37.6801L1521.7 37.7248L1522.06 37.6353H1522.19C1523.04 37.2922 1523.49 36.6358 1523.54 35.666C1523.3 34.8604 1522.73 34.2935 1521.84 33.9653H1521.52L1514.5 33.9205L1513.69 33.6968C1513.6 33.6669 1513.54 33.652 1513.51 33.652C1512.3 33.1 1511.42 32.1303 1510.87 30.7428ZM1530.3 30.7428C1529.67 27.8336 1530.9 25.8644 1533.97 24.835H1534.51H1534.64H1541.31H1541.44H1541.58H1541.94L1542.29 24.9245C1543.59 25.4616 1544.7 26.3865 1545.61 27.6994C1545.93 28.4752 1545.84 29.0421 1545.34 29.4001C1544.81 29.7433 1544.2 29.7134 1543.5 29.3106L1542.54 28.1917L1542.03 27.7889L1541.62 27.5651C1541.47 27.5353 1541.3 27.5129 1541.11 27.498C1540.93 27.4681 1540.73 27.4607 1540.5 27.4756H1534.3C1533.26 27.9381 1532.76 28.587 1532.81 29.4225C1532.86 30.258 1533.36 30.8622 1534.28 31.2351C1534.43 31.265 1535.06 31.2874 1536.16 31.3023C1537.27 31.3023 1538.86 31.2948 1540.95 31.2799H1541.09H1541.22L1542.11 31.3694C1544.64 32.2198 1545.8 34.0399 1545.61 36.8297C1545.28 38.7542 1544.26 39.8732 1542.56 40.1864L1541.8 40.3655L1534.15 40.3207H1533.92C1533.18 40.1715 1532.45 39.7986 1531.73 39.2018L1531.6 39.1123C1530.16 38.0083 1529.68 37.0908 1530.14 36.3598C1530.62 35.6138 1531.31 35.5914 1532.2 36.2926C1532.8 36.7551 1533.32 37.1206 1533.77 37.3892C1534.23 37.6577 1534.76 37.7547 1535.36 37.6801L1541.13 37.7248L1541.49 37.6353H1541.62C1542.47 37.2922 1542.92 36.6358 1542.97 35.666C1542.73 34.8604 1542.16 34.2935 1541.26 33.9653H1540.95L1533.92 33.9205L1533.12 33.6968C1533.03 33.6669 1532.97 33.652 1532.94 33.652C1531.73 33.1 1530.85 32.1303 1530.3 30.7428Z" fill="#00FFE0"/>
<path d="M2020.44 30.7428C2019.81 27.8336 2021.04 25.8644 2024.11 24.835H2024.65H2024.78H2031.45H2031.59H2031.72H2032.08L2032.44 24.9245C2033.73 25.4616 2034.84 26.3865 2035.75 27.6994C2036.08 28.4752 2035.99 29.0421 2035.48 29.4001C2034.96 29.7433 2034.35 29.7134 2033.64 29.3106L2032.68 28.1917L2032.17 27.7889L2031.76 27.5651C2031.62 27.5353 2031.44 27.5129 2031.25 27.498C2031.07 27.4681 2030.87 27.4607 2030.65 27.4756H2024.45C2023.4 27.9381 2022.9 28.587 2022.95 29.4225C2023.01 30.258 2023.5 30.8622 2024.42 31.2351C2024.57 31.265 2025.2 31.2874 2026.3 31.3023C2027.41 31.3023 2029 31.2948 2031.09 31.2799H2031.23H2031.36L2032.26 31.3694C2034.78 32.2198 2035.94 34.0399 2035.75 36.8297C2035.42 38.7542 2034.41 39.8732 2032.7 40.1864L2031.94 40.3655L2024.29 40.3207H2024.07C2023.32 40.1715 2022.59 39.7986 2021.87 39.2018L2021.74 39.1123C2020.31 38.0083 2019.82 37.0908 2020.28 36.3598C2020.76 35.6138 2021.45 35.5914 2022.34 36.2926C2022.94 36.7551 2023.46 37.1206 2023.91 37.3892C2024.37 37.6577 2024.9 37.7547 2025.5 37.6801L2031.27 37.7248L2031.63 37.6353H2031.76C2032.61 37.2922 2033.06 36.6358 2033.11 35.666C2032.87 34.8604 2032.3 34.2935 2031.41 33.9653H2031.09L2024.07 33.9205L2023.26 33.6968C2023.17 33.6669 2023.11 33.652 2023.08 33.652C2021.87 33.1 2020.99 32.1303 2020.44 30.7428ZM2038.93 25.5734C2039.06 25.0214 2039.47 24.738 2040.16 24.7231C2040.88 24.6932 2041.33 24.9767 2041.53 25.5734L2041.57 35.957L2041.75 36.494L2041.79 36.5835C2041.97 36.8223 2042.16 37.0311 2042.35 37.2101C2042.55 37.3892 2042.85 37.5384 2043.27 37.6577H2049.81L2050.34 37.5234C2050.85 37.2549 2051.3 36.8372 2051.68 36.2703C2051.77 35.8525 2051.8 35.2707 2051.77 34.5247V25.5287C2051.88 24.9469 2052.3 24.6559 2053.05 24.6559C2053.78 24.6559 2054.24 24.917 2054.41 25.4392V36.1807C2054.43 36.7775 2054.28 37.3146 2053.97 37.792C2053.27 38.8661 2052.24 39.6717 2050.88 40.2088C2050.64 40.2685 2050.31 40.2983 2049.89 40.2983H2044.57C2042.15 40.5967 2040.35 39.6121 2039.15 37.3444C2039.09 37.1952 2039.04 37.0386 2039 36.8745C2038.97 36.7104 2038.94 36.5388 2038.93 36.3598V25.5734ZM2057.47 30.2057C2057.25 27.5502 2058.48 25.7748 2061.18 24.8797H2068.52H2068.66H2068.79H2069.15L2069.46 24.9245C2070.84 25.4168 2072 26.3418 2072.95 27.6994V28.4155V28.5498V28.684C2072.63 29.2808 2072.09 29.5642 2071.34 29.5344C2071.16 29.4896 2071 29.4001 2070.85 29.2659L2070.72 29.2211C2070.64 29.1167 2070.55 29.0122 2070.45 28.9078C2070.34 28.8034 2070.22 28.6989 2070.09 28.5945L2069.87 28.326L2069.78 28.2365C2069.72 28.2066 2069.66 28.1619 2069.6 28.1022C2069.55 28.0276 2069.49 27.953 2069.42 27.8784L2069.06 27.6546L2068.52 27.5204H2062.57H2062.12C2062.02 27.5054 2061.9 27.5204 2061.77 27.5651H2061.63L2061.5 27.6546H2061.36C2060.99 27.8635 2060.68 28.1619 2060.42 28.5498L2060.33 28.5945C2060.3 28.6691 2060.27 28.7512 2060.24 28.8407C2060.21 28.9153 2060.18 29.0122 2060.15 29.1316L2060.11 29.2211V29.7582V29.8924V35.7108C2060.11 35.9346 2060.15 36.1882 2060.24 36.4717C2060.59 37.0535 2061.11 37.4712 2061.81 37.7248H2062.35H2062.48H2068.48L2068.79 37.6801C2069.3 37.4414 2069.78 37.0535 2070.22 36.5164C2070.28 36.4866 2070.34 36.4493 2070.38 36.4045C2070.43 36.3448 2070.48 36.2777 2070.54 36.2031L2070.81 36.0241L2070.9 35.9346L2070.99 35.8898L2071.08 35.8003C2071.1 35.8003 2071.13 35.7854 2071.16 35.7556L2071.48 35.7108H2071.84L2072.15 35.7556C2072.48 35.9346 2072.75 36.218 2072.95 36.6059V36.6507V36.6059V36.6954V36.6507V36.7402V36.6954V36.785V36.7402V36.8297V36.785V36.8745V36.8297V36.9192V36.8745V36.9192V37.2773V37.322V37.2773V37.3668V37.322V37.4115V37.3668V37.4563V37.4115V37.5011V37.4563V37.5011C2072.16 38.7841 2071 39.724 2069.46 40.3207L2069.2 40.3655H2063.02H2062.88C2061.24 40.5893 2059.81 40.0671 2058.59 38.799C2058.2 38.3813 2057.87 37.8293 2057.6 37.143C2057.57 37.0237 2057.54 36.9341 2057.51 36.8745L2057.47 36.6059V30.2057ZM2075.98 30.2057C2075.76 27.5502 2076.99 25.7748 2079.69 24.8797H2087.03H2087.17H2087.3H2087.66L2087.97 24.9245C2089.35 25.4168 2090.51 26.3418 2091.46 27.6994V28.4155V28.5498V28.684C2091.14 29.2808 2090.6 29.5642 2089.85 29.5344C2089.67 29.4896 2089.51 29.4001 2089.36 29.2659L2089.23 29.2211C2089.15 29.1167 2089.06 29.0122 2088.96 28.9078C2088.85 28.8034 2088.73 28.6989 2088.6 28.5945L2088.38 28.326L2088.29 28.2365C2088.23 28.2066 2088.17 28.1619 2088.11 28.1022C2088.06 28.0276 2088 27.953 2087.93 27.8784L2087.57 27.6546L2087.03 27.5204H2081.08H2080.63C2080.53 27.5054 2080.41 27.5204 2080.28 27.5651H2080.14L2080.01 27.6546H2079.87C2079.5 27.8635 2079.19 28.1619 2078.93 28.5498L2078.84 28.5945C2078.81 28.6691 2078.78 28.7512 2078.75 28.8407C2078.72 28.9153 2078.69 29.0122 2078.66 29.1316L2078.62 29.2211V29.7582V29.8924V35.7108C2078.62 35.9346 2078.66 36.1882 2078.75 36.4717C2079.1 37.0535 2079.62 37.4712 2080.32 37.7248H2080.86H2080.99H2086.99L2087.3 37.6801C2087.81 37.4414 2088.29 37.0535 2088.73 36.5164C2088.79 36.4866 2088.85 36.4493 2088.89 36.4045C2088.94 36.3448 2088.99 36.2777 2089.05 36.2031L2089.32 36.0241L2089.41 35.9346L2089.5 35.8898L2089.59 35.8003C2089.62 35.8003 2089.64 35.7854 2089.67 35.7556L2089.99 35.7108H2090.35L2090.66 35.7556C2090.99 35.9346 2091.26 36.218 2091.46 36.6059V36.6507V36.6059V36.6954V36.6507V36.7402V36.6954V36.785V36.7402V36.8297V36.785V36.8745V36.8297V36.9192V36.8745V36.9192V37.2773V37.322V37.2773V37.3668V37.322V37.4115V37.3668V37.4563V37.4115V37.5011V37.4563V37.5011C2090.67 38.7841 2089.51 39.724 2087.97 40.3207L2087.71 40.3655H2081.53H2081.39C2079.75 40.5893 2078.32 40.0671 2077.1 38.799C2076.71 38.3813 2076.38 37.8293 2076.11 37.143C2076.08 37.0237 2076.05 36.9341 2076.02 36.8745L2075.98 36.6059V30.2057ZM2094.33 28.9078C2094.88 26.1627 2096.26 24.7902 2098.45 24.7902H2109.08C2109.33 24.7902 2109.53 24.9021 2109.66 25.1259C2109.8 25.3497 2109.87 25.6406 2109.89 25.9986C2109.93 26.7147 2109.68 27.1921 2109.12 27.4308H2099.19L2098.67 27.5427C2097.81 27.8709 2097.24 28.4379 2096.97 29.2435V31.2351H2107.11C2107.57 31.3694 2107.8 31.817 2107.78 32.5778C2107.77 33.3387 2107.51 33.7863 2107.02 33.9205H2096.93L2096.91 35.7556C2097.13 36.7551 2097.85 37.3742 2099.05 37.6129L2099.73 37.6577H2108.92C2109.49 37.6577 2109.79 38.0829 2109.82 38.9333C2109.83 39.7389 2109.54 40.2014 2108.92 40.3207H2099.48H2098.67H2098.5H2098.14C2095.48 39.6345 2094.21 37.9337 2094.33 35.2185V28.9078ZM2113.58 30.7428C2112.96 27.8336 2114.18 25.8644 2117.25 24.835H2117.79H2117.92H2124.59H2124.73H2124.86H2125.22L2125.58 24.9245C2126.87 25.4616 2127.98 26.3865 2128.89 27.6994C2129.22 28.4752 2129.13 29.0421 2128.62 29.4001C2128.1 29.7433 2127.49 29.7134 2126.79 29.3106L2125.82 28.1917L2125.31 27.7889L2124.91 27.5651C2124.76 27.5353 2124.58 27.5129 2124.39 27.498C2124.21 27.4681 2124.01 27.4607 2123.79 27.4756H2117.59C2116.54 27.9381 2116.04 28.587 2116.09 29.4225C2116.15 30.258 2116.64 30.8622 2117.57 31.2351C2117.71 31.265 2118.34 31.2874 2119.44 31.3023C2120.55 31.3023 2122.15 31.2948 2124.23 31.2799H2124.37H2124.5L2125.4 31.3694C2127.92 32.2198 2129.08 34.0399 2128.89 36.8297C2128.56 38.7542 2127.55 39.8732 2125.85 40.1864L2125.08 40.3655L2117.43 40.3207H2117.21C2116.46 40.1715 2115.73 39.7986 2115.01 39.2018L2114.88 39.1123C2113.45 38.0083 2112.96 37.0908 2113.43 36.3598C2113.9 35.6138 2114.59 35.5914 2115.48 36.2926C2116.08 36.7551 2116.6 37.1206 2117.05 37.3892C2117.51 37.6577 2118.04 37.7547 2118.64 37.6801L2124.41 37.7248L2124.77 37.6353H2124.91C2125.76 37.2922 2126.2 36.6358 2126.25 35.666C2126.01 34.8604 2125.44 34.2935 2124.55 33.9653H2124.23L2117.21 33.9205L2116.4 33.6968C2116.31 33.6669 2116.25 33.652 2116.22 33.652C2115.01 33.1 2114.13 32.1303 2113.58 30.7428ZM2133.01 30.7428C2132.38 27.8336 2133.61 25.8644 2136.68 24.835H2137.22H2137.35H2144.02H2144.15H2144.29H2144.65L2145 24.9245C2146.3 25.4616 2147.41 26.3865 2148.32 27.6994C2148.64 28.4752 2148.56 29.0421 2148.05 29.4001C2147.53 29.7433 2146.91 29.7134 2146.21 29.3106L2145.25 28.1917L2144.74 27.7889L2144.33 27.5651C2144.18 27.5353 2144.01 27.5129 2143.82 27.498C2143.64 27.4681 2143.44 27.4607 2143.21 27.4756H2137.02C2135.97 27.9381 2135.47 28.587 2135.52 29.4225C2135.58 30.258 2136.07 30.8622 2136.99 31.2351C2137.14 31.265 2137.77 31.2874 2138.87 31.3023C2139.98 31.3023 2141.57 31.2948 2143.66 31.2799H2143.8H2143.93L2144.83 31.3694C2147.35 32.2198 2148.51 34.0399 2148.32 36.8297C2147.99 38.7542 2146.97 39.8732 2145.27 40.1864L2144.51 40.3655L2136.86 40.3207H2136.64C2135.89 40.1715 2135.16 39.7986 2134.44 39.2018L2134.31 39.1123C2132.88 38.0083 2132.39 37.0908 2132.85 36.3598C2133.33 35.6138 2134.02 35.5914 2134.91 36.2926C2135.51 36.7551 2136.03 37.1206 2136.48 37.3892C2136.94 37.6577 2137.47 37.7547 2138.07 37.6801L2143.84 37.7248L2144.2 37.6353H2144.33C2145.18 37.2922 2145.63 36.6358 2145.68 35.666C2145.44 34.8604 2144.87 34.2935 2143.98 33.9653H2143.66L2136.64 33.9205L2135.83 33.6968C2135.74 33.6669 2135.68 33.652 2135.65 33.652C2134.44 33.1 2133.56 32.1303 2133.01 30.7428Z" fill="#00FFE0"/>
<path d="M2623.04 30.7428C2622.42 27.8336 2623.64 25.8644 2626.71 24.835H2627.25H2627.39H2634.05H2634.19H2634.32H2634.68L2635.04 24.9245C2636.34 25.4616 2637.44 26.3865 2638.35 27.6994C2638.68 28.4752 2638.59 29.0421 2638.08 29.4001C2637.56 29.7433 2636.95 29.7134 2636.25 29.3106L2635.29 28.1917L2634.77 27.7889L2634.37 27.5651C2634.22 27.5353 2634.05 27.5129 2633.85 27.498C2633.67 27.4681 2633.47 27.4607 2633.25 27.4756H2627.05C2626.01 27.9381 2625.51 28.587 2625.55 29.4225C2625.61 30.258 2626.1 30.8622 2627.03 31.2351C2627.18 31.265 2627.8 31.2874 2628.91 31.3023C2630.01 31.3023 2631.61 31.2948 2633.7 31.2799H2633.83H2633.97L2634.86 31.3694C2637.38 32.2198 2638.55 34.0399 2638.35 36.8297C2638.02 38.7542 2637.01 39.8732 2635.31 40.1864L2634.55 40.3655L2626.89 40.3207H2626.67C2625.92 40.1715 2625.19 39.7986 2624.48 39.2018L2624.34 39.1123C2622.91 38.0083 2622.43 37.0908 2622.89 36.3598C2623.37 35.6138 2624.05 35.5914 2624.95 36.2926C2625.54 36.7551 2626.07 37.1206 2626.51 37.3892C2626.98 37.6577 2627.51 37.7547 2628.1 37.6801L2633.88 37.7248L2634.23 37.6353H2634.37C2635.22 37.2922 2635.67 36.6358 2635.71 35.666C2635.47 34.8604 2634.91 34.2935 2634.01 33.9653H2633.7L2626.67 33.9205L2625.86 33.6968C2625.77 33.6669 2625.72 33.652 2625.69 33.652C2624.48 33.1 2623.6 32.1303 2623.04 30.7428ZM2641.53 25.5734C2641.67 25.0214 2642.08 24.738 2642.76 24.7231C2643.48 24.6932 2643.93 24.9767 2644.13 25.5734L2644.17 35.957L2644.35 36.494L2644.4 36.5835C2644.58 36.8223 2644.76 37.0311 2644.96 37.2101C2645.15 37.3892 2645.46 37.5384 2645.87 37.6577H2652.41L2652.95 37.5234C2653.45 37.2549 2653.9 36.8372 2654.29 36.2703C2654.38 35.8525 2654.41 35.2707 2654.38 34.5247V25.5287C2654.48 24.9469 2654.91 24.6559 2655.65 24.6559C2656.38 24.6559 2656.84 24.917 2657.02 25.4392V36.1807C2657.03 36.7775 2656.88 37.3146 2656.57 37.792C2655.87 38.8661 2654.84 39.6717 2653.48 40.2088C2653.24 40.2685 2652.92 40.2983 2652.5 40.2983H2647.17C2644.76 40.5967 2642.95 39.6121 2641.76 37.3444C2641.7 37.1952 2641.64 37.0386 2641.6 36.8745C2641.57 36.7104 2641.55 36.5388 2641.53 36.3598V25.5734ZM2660.07 30.2057C2659.85 27.5502 2661.09 25.7748 2663.79 24.8797H2671.13H2671.26H2671.4H2671.75L2672.07 24.9245C2673.44 25.4168 2674.6 26.3418 2675.56 27.6994V28.4155V28.5498V28.684C2675.23 29.2808 2674.69 29.5642 2673.95 29.5344C2673.77 29.4896 2673.6 29.4001 2673.45 29.2659L2673.32 29.2211C2673.25 29.1167 2673.16 29.0122 2673.05 28.9078C2672.95 28.8034 2672.83 28.6989 2672.69 28.5945L2672.47 28.326L2672.38 28.2365C2672.32 28.2066 2672.26 28.1619 2672.2 28.1022C2672.16 28.0276 2672.1 27.953 2672.02 27.8784L2671.66 27.6546L2671.13 27.5204H2665.17H2664.73C2664.62 27.5054 2664.5 27.5204 2664.37 27.5651H2664.23L2664.1 27.6546H2663.97C2663.59 27.8635 2663.28 28.1619 2663.03 28.5498L2662.94 28.5945C2662.91 28.6691 2662.88 28.7512 2662.85 28.8407C2662.82 28.9153 2662.79 29.0122 2662.76 29.1316L2662.71 29.2211V29.7582V29.8924V35.7108C2662.71 35.9346 2662.76 36.1882 2662.85 36.4717C2663.19 37.0535 2663.71 37.4712 2664.41 37.7248H2664.95H2665.09H2671.08L2671.4 37.6801C2671.9 37.4414 2672.38 37.0535 2672.83 36.5164C2672.89 36.4866 2672.94 36.4493 2672.98 36.4045C2673.03 36.3448 2673.08 36.2777 2673.14 36.2031L2673.41 36.0241L2673.5 35.9346L2673.59 35.8898L2673.68 35.8003C2673.71 35.8003 2673.74 35.7854 2673.77 35.7556L2674.08 35.7108H2674.44L2674.75 35.7556C2675.08 35.9346 2675.35 36.218 2675.56 36.6059V36.6507V36.6059V36.6954V36.6507V36.7402V36.6954V36.785V36.7402V36.8297V36.785V36.8745V36.8297V36.9192V36.8745V36.9192V37.2773V37.322V37.2773V37.3668V37.322V37.4115V37.3668V37.4563V37.4115V37.5011V37.4563V37.5011C2674.77 38.7841 2673.6 39.724 2672.07 40.3207L2671.8 40.3655H2665.62H2665.49C2663.85 40.5893 2662.41 40.0671 2661.19 38.799C2660.8 38.3813 2660.48 37.8293 2660.21 37.143C2660.18 37.0237 2660.15 36.9341 2660.12 36.8745L2660.07 36.6059V30.2057ZM2678.58 30.2057C2678.36 27.5502 2679.6 25.7748 2682.3 24.8797H2689.64H2689.77H2689.91H2690.26L2690.58 24.9245C2691.95 25.4168 2693.11 26.3418 2694.07 27.6994V28.4155V28.5498V28.684C2693.74 29.2808 2693.2 29.5642 2692.46 29.5344C2692.28 29.4896 2692.11 29.4001 2691.96 29.2659L2691.83 29.2211C2691.76 29.1167 2691.67 29.0122 2691.56 28.9078C2691.46 28.8034 2691.34 28.6989 2691.2 28.5945L2690.98 28.326L2690.89 28.2365C2690.83 28.2066 2690.77 28.1619 2690.71 28.1022C2690.67 28.0276 2690.61 27.953 2690.53 27.8784L2690.17 27.6546L2689.64 27.5204H2683.68H2683.24C2683.13 27.5054 2683.01 27.5204 2682.88 27.5651H2682.75L2682.61 27.6546H2682.48C2682.1 27.8635 2681.79 28.1619 2681.54 28.5498L2681.45 28.5945C2681.42 28.6691 2681.39 28.7512 2681.36 28.8407C2681.33 28.9153 2681.3 29.0122 2681.27 29.1316L2681.22 29.2211V29.7582V29.8924V35.7108C2681.22 35.9346 2681.27 36.1882 2681.36 36.4717C2681.7 37.0535 2682.22 37.4712 2682.92 37.7248H2683.46H2683.6H2689.59L2689.91 37.6801C2690.41 37.4414 2690.89 37.0535 2691.34 36.5164C2691.4 36.4866 2691.45 36.4493 2691.49 36.4045C2691.54 36.3448 2691.59 36.2777 2691.65 36.2031L2691.92 36.0241L2692.01 35.9346L2692.1 35.8898L2692.19 35.8003C2692.22 35.8003 2692.25 35.7854 2692.28 35.7556L2692.59 35.7108H2692.95L2693.26 35.7556C2693.59 35.9346 2693.86 36.218 2694.07 36.6059V36.6507V36.6059V36.6954V36.6507V36.7402V36.6954V36.785V36.7402V36.8297V36.785V36.8745V36.8297V36.9192V36.8745V36.9192V37.2773V37.322V37.2773V37.3668V37.322V37.4115V37.3668V37.4563V37.4115V37.5011V37.4563V37.5011C2693.28 38.7841 2692.11 39.724 2690.58 40.3207L2690.31 40.3655H2684.13H2684C2682.36 40.5893 2680.92 40.0671 2679.7 38.799C2679.31 38.3813 2678.99 37.8293 2678.72 37.143C2678.69 37.0237 2678.66 36.9341 2678.63 36.8745L2678.58 36.6059V30.2057ZM2696.94 28.9078C2697.49 26.1627 2698.86 24.7902 2701.05 24.7902H2711.68C2711.94 24.7902 2712.13 24.9021 2712.27 25.1259C2712.4 25.3497 2712.47 25.6406 2712.49 25.9986C2712.53 26.7147 2712.28 27.1921 2711.73 27.4308H2701.79L2701.28 27.5427C2700.41 27.8709 2699.85 28.4379 2699.58 29.2435V31.2351H2709.71C2710.18 31.3694 2710.4 31.817 2710.39 32.5778C2710.37 33.3387 2710.12 33.7863 2709.62 33.9205H2699.53L2699.51 35.7556C2699.73 36.7551 2700.45 37.3742 2701.66 37.6129L2702.33 37.6577H2711.53C2712.09 37.6577 2712.39 38.0829 2712.42 38.9333C2712.44 39.7389 2712.14 40.2014 2711.53 40.3207H2702.08H2701.28H2701.1H2700.74C2698.08 39.6345 2696.82 37.9337 2696.94 35.2185V28.9078ZM2716.19 30.7428C2715.56 27.8336 2716.78 25.8644 2719.86 24.835H2720.39H2720.53H2727.2H2727.33H2727.46H2727.82L2728.18 24.9245C2729.48 25.4616 2730.58 26.3865 2731.49 27.6994C2731.82 28.4752 2731.73 29.0421 2731.22 29.4001C2730.7 29.7433 2730.09 29.7134 2729.39 29.3106L2728.43 28.1917L2727.91 27.7889L2727.51 27.5651C2727.36 27.5353 2727.19 27.5129 2726.99 27.498C2726.82 27.4681 2726.61 27.4607 2726.39 27.4756H2720.19C2719.15 27.9381 2718.65 28.587 2718.69 29.4225C2718.75 30.258 2719.24 30.8622 2720.17 31.2351C2720.32 31.265 2720.94 31.2874 2722.05 31.3023C2723.15 31.3023 2724.75 31.2948 2726.84 31.2799H2726.97H2727.11L2728 31.3694C2730.52 32.2198 2731.69 34.0399 2731.49 36.8297C2731.16 38.7542 2730.15 39.8732 2728.45 40.1864L2727.69 40.3655L2720.03 40.3207H2719.81C2719.06 40.1715 2718.33 39.7986 2717.62 39.2018L2717.48 39.1123C2716.05 38.0083 2715.57 37.0908 2716.03 36.3598C2716.51 35.6138 2717.19 35.5914 2718.09 36.2926C2718.68 36.7551 2719.21 37.1206 2719.65 37.3892C2720.12 37.6577 2720.65 37.7547 2721.24 37.6801L2727.02 37.7248L2727.37 37.6353H2727.51C2728.36 37.2922 2728.81 36.6358 2728.85 35.666C2728.61 34.8604 2728.05 34.2935 2727.15 33.9653H2726.84L2719.81 33.9205L2719.01 33.6968C2718.92 33.6669 2718.86 33.652 2718.83 33.652C2717.62 33.1 2716.74 32.1303 2716.19 30.7428ZM2735.61 30.7428C2734.99 27.8336 2736.21 25.8644 2739.28 24.835H2739.82H2739.95H2746.62H2746.76H2746.89H2747.25L2747.61 24.9245C2748.91 25.4616 2750.01 26.3865 2750.92 27.6994C2751.25 28.4752 2751.16 29.0421 2750.65 29.4001C2750.13 29.7433 2749.52 29.7134 2748.82 29.3106L2747.85 28.1917L2747.34 27.7889L2746.94 27.5651C2746.79 27.5353 2746.62 27.5129 2746.42 27.498C2746.24 27.4681 2746.04 27.4607 2745.82 27.4756H2739.62C2738.57 27.9381 2738.07 28.587 2738.12 29.4225C2738.18 30.258 2738.67 30.8622 2739.6 31.2351C2739.75 31.265 2740.37 31.2874 2741.48 31.3023C2742.58 31.3023 2744.18 31.2948 2746.27 31.2799H2746.4H2746.53L2747.43 31.3694C2749.95 32.2198 2751.11 34.0399 2750.92 36.8297C2750.59 38.7542 2749.58 39.8732 2747.88 40.1864L2747.12 40.3655L2739.46 40.3207H2739.24C2738.49 40.1715 2737.76 39.7986 2737.05 39.2018L2736.91 39.1123C2735.48 38.0083 2734.99 37.0908 2735.46 36.3598C2735.93 35.6138 2736.62 35.5914 2737.52 36.2926C2738.11 36.7551 2738.63 37.1206 2739.08 37.3892C2739.54 37.6577 2740.07 37.7547 2740.67 37.6801L2746.44 37.7248L2746.8 37.6353H2746.94C2747.79 37.2922 2748.23 36.6358 2748.28 35.666C2748.04 34.8604 2747.47 34.2935 2746.58 33.9653H2746.27L2739.24 33.9205L2738.43 33.6968C2738.34 33.6669 2738.28 33.652 2738.25 33.652C2737.05 33.1 2736.17 32.1303 2735.61 30.7428Z" fill="#00FFE0"/>
<ellipse cx="1782.32" cy="34.0165" rx="8.26824" ry="8.85393" fill="#00FFE0"/>
<ellipse cx="2385.03" cy="34.0168" rx="8.26824" ry="8.85393" fill="#00FFE0"/>
<path d="M1563.66 34.0177H1635.05C1635.54 34.0177 1636.02 33.8228 1636.36 33.4754L1645.04 24.8435C1646 23.8957 1647.61 24.2377 1648.1 25.4908L1654.52 42.0534C1655.24 43.886 1657.93 43.512 1658.12 41.555L1660.91 12.1722C1661.11 10.0466 1664.14 9.87419 1664.58 11.9633L1668.56 30.7842C1668.95 32.661 1671.58 32.788 1672.16 30.9581L1673.03 28.1835C1673.57 26.473 1675.97 26.4335 1676.57 28.1253L1680.58 39.5543C1681.07 40.9653 1682.94 41.2484 1683.83 40.0469L1687.74 34.772C1688.09 34.2976 1688.65 34.0177 1689.24 34.0177H1758.12" stroke="#FF00E5" stroke-width="1.87434" stroke-linejoin="round"/>
<path d="M2166.37 34.0177H2237.76C2238.25 34.0177 2238.73 33.8228 2239.08 33.4754L2247.76 24.8435C2248.71 23.8957 2250.32 24.2377 2250.81 25.4908L2257.24 42.0534C2257.95 43.886 2260.64 43.512 2260.83 41.555L2263.62 12.1722C2263.82 10.0466 2266.86 9.87419 2267.3 11.9633L2271.27 30.7842C2271.66 32.661 2274.3 32.788 2274.87 30.9581L2275.74 28.1835C2276.28 26.473 2278.69 26.4335 2279.28 28.1253L2283.29 39.5543C2283.78 40.9653 2285.65 41.2484 2286.55 40.0469L2290.45 34.772C2290.8 34.2976 2291.36 34.0177 2291.95 34.0177H2360.83" stroke="#FF00E5" stroke-width="1.87434" stroke-linejoin="round"/>
<path d="M1806.85 34.0177H1878.24C1878.73 34.0177 1879.21 33.8228 1879.56 33.4754L1888.24 24.8435C1889.19 23.8957 1890.8 24.2377 1891.29 25.4908L1897.72 42.0534C1898.43 43.886 1901.12 43.512 1901.31 41.555L1904.1 12.1722C1904.3 10.0466 1907.34 9.87419 1907.78 11.9633L1911.75 30.7842C1912.14 32.661 1914.78 32.788 1915.35 30.9581L1916.22 28.1835C1916.76 26.473 1919.17 26.4335 1919.76 28.1253L1923.77 39.5543C1924.26 40.9653 1926.13 41.2484 1927.03 40.0469L1930.93 34.772C1931.28 34.2976 1931.84 34.0177 1932.43 34.0177H2001.31" stroke="#FF00E5" stroke-width="1.87434" stroke-linejoin="round"/>
<path d="M2409.45 34.0177H2480.85C2481.34 34.0177 2481.81 33.8228 2482.16 33.4754L2490.84 24.8435C2491.79 23.8957 2493.41 24.2377 2493.89 25.4908L2500.32 42.0534C2501.03 43.886 2503.73 43.512 2503.91 41.555L2506.7 12.1722C2506.9 10.0466 2509.94 9.87419 2510.38 11.9633L2514.35 30.7842C2514.75 32.661 2517.38 32.788 2517.95 30.9581L2518.83 28.1835C2519.36 26.473 2521.77 26.4335 2522.36 28.1253L2526.37 39.5543C2526.87 40.9653 2528.74 41.2484 2529.63 40.0469L2533.54 34.772C2533.89 34.2976 2534.44 34.0177 2535.03 34.0177H2603.91" stroke="#FF00E5" stroke-width="1.87434" stroke-linejoin="round"/>
</svg>
