<svg width="190" height="174" viewBox="0 0 190 174" fill="none" xmlns="http://www.w3.org/2000/svg">
<path d="M91.4998 48H97.9998C99.1044 48 99.9998 48.8954 99.9998 50V82.6373C99.9998 82.8772 100.043 83.115 100.127 83.3396L101.259 86.3582C101.415 86.7742 101.705 87.1262 102.083 87.36C108.342 91.2329 113.812 95.0509 115.5 102.5C124 140 66.4516 141.5 73.5001 102.5C74.1219 99.0594 76.9031 93.203 86.9715 87.3056C87.3122 87.1061 87.594 86.8115 87.7706 86.4583L89.2885 83.4223C89.4273 83.1446 89.4996 82.8384 89.4996 82.5279L89.4998 50C89.4998 48.8954 90.3952 48 91.4998 48Z" fill="#00FFE0"/>
<path fill-rule="evenodd" clip-rule="evenodd" d="M97.9998 48H91.4998C90.3952 48 89.4998 48.8954 89.4998 50L89.4996 82.5279C89.4996 82.8384 89.4273 83.1446 89.2885 83.4223L87.7706 86.4583C87.594 86.8115 87.3122 87.1061 86.9715 87.3056C76.9031 93.203 74.1219 99.0594 73.5001 102.5C66.4516 141.5 124 140 115.5 102.5C113.812 95.0509 108.342 91.2329 102.083 87.36C101.705 87.1262 101.415 86.7742 101.259 86.3582L100.127 83.3396C100.043 83.115 99.9998 82.8772 99.9998 82.6373V50C99.9998 48.8954 99.1044 48 97.9998 48Z" fill="#00FFE0"/>
<path fill-rule="evenodd" clip-rule="evenodd" d="M77.9386 39.9382C77.9726 34.9919 81.992 31 86.9384 31H101.59C106.525 31 110.54 34.9748 110.589 39.91L110.948 75.7799C110.98 79.0081 112.733 82.0212 115.034 84.2856C120.239 89.4083 127.041 98.7077 127.5 105C131 153 61.5 156 61.5 107C61.5 101.934 67.5711 90.5014 73.461 84.373C75.7673 81.9733 77.671 78.9198 77.6939 75.5916L77.9386 39.9382ZM97.9998 48H91.4998C90.3952 48 89.4998 48.8954 89.4998 50L89.4996 82.5279C89.4996 82.8384 89.4273 83.1446 89.2885 83.4223L87.7706 86.4583C87.594 86.8115 87.3122 87.1061 86.9715 87.3056C76.9031 93.203 74.1219 99.0594 73.5001 102.5C66.4516 141.5 124 140 115.5 102.5C113.812 95.0509 108.342 91.2329 102.083 87.36C101.705 87.1262 101.415 86.7742 101.259 86.3582L100.127 83.3396C100.043 83.115 99.9998 82.8772 99.9998 82.6373V50C99.9998 48.8954 99.1044 48 97.9998 48Z" fill="#413F53"/>
<path fill-rule="evenodd" clip-rule="evenodd" d="M70.5 32C70.5 27.0294 74.5294 23 79.5 23H110C114.971 23 119 27.0294 119 32V69.485C119 72.2915 120.336 74.9076 122.327 76.8858C128.686 83.2047 138 96.1479 138 113C138 136.5 114.5 152.5 94.5 152.5C73.5 152.5 50.5 136 50.5 113C50.5 101.059 56.4337 85.173 66.2035 76.7949C68.6729 74.6773 70.5 71.7504 70.5 68.4974V32ZM110.589 39.91C110.54 34.9748 106.525 31 101.59 31H86.9384C81.992 31 77.9726 34.9919 77.9386 39.9382L77.6939 75.5916C77.671 78.9198 75.7673 81.9733 73.461 84.373C67.5711 90.5014 61.5 101.934 61.5 107C61.5 156 131 153 127.5 105C127.041 98.7077 120.239 89.4083 115.034 84.2856C112.733 82.0212 110.98 79.0081 110.948 75.7799L110.589 39.91Z" fill="#413F53"/>
<path d="M91.4998 48H97.9998C99.1044 48 99.9998 48.8954 99.9998 50V82.6373C99.9998 82.8772 100.043 83.115 100.127 83.3396L101.259 86.3582C101.415 86.7742 101.705 87.1262 102.083 87.36C108.342 91.2329 113.812 95.0509 115.5 102.5C124 140 66.4516 141.5 73.5001 102.5C74.1219 99.0594 76.9031 93.203 86.9715 87.3056C87.3122 87.1061 87.594 86.8115 87.7706 86.4583L89.2885 83.4223C89.4273 83.1446 89.4996 82.8384 89.4996 82.5279L89.4998 50C89.4998 48.8954 90.3952 48 91.4998 48Z" stroke="#FF00E5" stroke-width="2"/>
<path fill-rule="evenodd" clip-rule="evenodd" d="M97.9998 48H91.4998C90.3952 48 89.4998 48.8954 89.4998 50L89.4996 82.5279C89.4996 82.8384 89.4273 83.1446 89.2885 83.4223L87.7706 86.4583C87.594 86.8115 87.3122 87.1061 86.9715 87.3056C76.9031 93.203 74.1219 99.0594 73.5001 102.5C66.4516 141.5 124 140 115.5 102.5C113.812 95.0509 108.342 91.2329 102.083 87.36C101.705 87.1262 101.415 86.7742 101.259 86.3582L100.127 83.3396C100.043 83.115 99.9998 82.8772 99.9998 82.6373V50C99.9998 48.8954 99.1044 48 97.9998 48Z" stroke="#FF00E5" stroke-width="2"/>
<path fill-rule="evenodd" clip-rule="evenodd" d="M77.9386 39.9382C77.9726 34.9919 81.992 31 86.9384 31H101.59C106.525 31 110.54 34.9748 110.589 39.91L110.948 75.7799C110.98 79.0081 112.733 82.0212 115.034 84.2856C120.239 89.4083 127.041 98.7077 127.5 105C131 153 61.5 156 61.5 107C61.5 101.934 67.5711 90.5014 73.461 84.373C75.7673 81.9733 77.671 78.9198 77.6939 75.5916L77.9386 39.9382ZM97.9998 48H91.4998C90.3952 48 89.4998 48.8954 89.4998 50L89.4996 82.5279C89.4996 82.8384 89.4273 83.1446 89.2885 83.4223L87.7706 86.4583C87.594 86.8115 87.3122 87.1061 86.9715 87.3056C76.9031 93.203 74.1219 99.0594 73.5001 102.5C66.4516 141.5 124 140 115.5 102.5C113.812 95.0509 108.342 91.2329 102.083 87.36C101.705 87.1262 101.415 86.7742 101.259 86.3582L100.127 83.3396C100.043 83.115 99.9998 82.8772 99.9998 82.6373V50C99.9998 48.8954 99.1044 48 97.9998 48Z" stroke="#FF00E5" stroke-width="2"/>
<path fill-rule="evenodd" clip-rule="evenodd" d="M70.5 32C70.5 27.0294 74.5294 23 79.5 23H110C114.971 23 119 27.0294 119 32V69.485C119 72.2915 120.336 74.9076 122.327 76.8858C128.686 83.2047 138 96.1479 138 113C138 136.5 114.5 152.5 94.5 152.5C73.5 152.5 50.5 136 50.5 113C50.5 101.059 56.4337 85.173 66.2035 76.7949C68.6729 74.6773 70.5 71.7504 70.5 68.4974V32ZM110.589 39.91C110.54 34.9748 106.525 31 101.59 31H86.9384C81.992 31 77.9726 34.9919 77.9386 39.9382L77.6939 75.5916C77.671 78.9198 75.7673 81.9733 73.461 84.373C67.5711 90.5014 61.5 101.934 61.5 107C61.5 156 131 153 127.5 105C127.041 98.7077 120.239 89.4083 115.034 84.2856C112.733 82.0212 110.98 79.0081 110.948 75.7799L110.589 39.91Z" stroke="#FF00E5" stroke-width="2"/>
</svg>
