<svg width="563" height="440" viewBox="0 0 563 440" fill="none" xmlns="http://www.w3.org/2000/svg">
<path d="M513.41 95.6038L561.545 48.8198M513.41 108.599L559.327 62.6818M508.212 128.526L553.263 83.4746M535.935 133.724L446.699 222.96M524.673 157.116L450.165 231.624M557.595 95.6038L450.165 204.767M538.534 1.16943L531.604 8.96677H513.41L485.686 34.9579M546.332 27.1606L538.534 18.4968M552.396 41.0225H546.332L525.539 20.2296H519.474M536.802 46.2207L527.272 35.8243M532.47 60.0826L523.806 51.4189M501.281 94.7375L496.949 100.802V107.733L492.617 112.931M508.212 59.2163V63.5481L490.018 81.7419M496.082 48.8198L461.428 83.4746M470.091 51.4189L457.962 64.4145L456.229 66.1472V69.6127M465.759 37.557H461.428L441.501 59.2163V69.6127M466.626 18.4968L425.906 57.4835L425.04 74.8109M418.975 93.0047L403.381 110.332H367.859L365.26 107.733V102.535M396.45 120.729L387.786 113.798L346.2 146.72L342.735 178.775M374.79 161.448L357.463 150.185M371.325 190.905L366.993 196.103V203.034L362.661 207.366M354.864 196.103H338.403V197.836M320.209 168.379L316.744 171.844V194.37M332.338 242.02L330.606 240.288H316.744V235.956V194.37M316.744 194.37H321.075M305.481 170.112L310.679 175.31V227.292M310.679 235.956V227.292M310.679 227.292H292.485M302.882 209.965H292.485M292.485 201.301H301.149L302.882 196.969M303.748 185.706L300.283 183.974H292.485M483.953 86.0738L464.893 105.134V147.586L455.363 154.517M458.828 88.6729V111.199M455.363 140.655L458.828 137.19V125.927M458.828 125.927H455.363M458.828 125.927V111.199M458.828 111.199H455.363M451.897 128.526V130.259H438.035M422.441 113.798L396.45 139.789M413.777 145.853H408.579L401.648 152.784V196.103L385.187 212.564M379.989 217.762L360.062 237.689V242.887M379.989 244.62L406.846 217.762M409.445 213.43V189.172M413.777 161.448L409.445 164.047V175.31M389.519 195.236L392.118 192.637V144.121M418.109 171.844L418.975 170.978H431.105M413.777 189.172H409.445M409.445 189.172V175.31M409.445 175.31H413.777M445.833 187.439L472.69 160.582M475.289 156.25V106.867L479.621 105.134M511.677 187.439L508.212 220.361L468.358 252.417L457.962 243.753M495.216 207.366L490.018 211.698V219.495L486.552 222.96M516.009 264.546L497.815 247.219M518.608 284.473L495.216 261.081M522.073 306.998L478.755 262.813V258.482M518.608 326.058L474.423 282.74V277.542M509.078 340.787L465.759 298.335V293.136M510.811 358.981H505.612L451.031 304.399V293.136M433.704 293.136V311.33L497.815 372.842M484.82 384.105L464.027 362.446V357.248M479.621 413.562L470.091 404.898V400.566M455.363 381.506H446.699M455.363 392.769L451.897 389.304H446.699M455.363 403.165L452.764 406.631H446.699M455.363 439.553V435.221M443.234 432.622L435.436 425.691V371.976V370.243H453.63V341.653H441.501L435.436 347.718M464.893 266.279L453.63 278.408H403.381V267.145M432.837 268.878H418.975M432.837 253.283H418.975M445.833 253.283V242.02H397.316L373.924 265.412M420.708 294.869H406.846M425.906 305.266H427.639V313.929M423.307 432.622L427.639 428.29V313.929M427.639 313.929H408.579M418.975 331.257H408.579M418.975 343.386L415.51 339.92H408.579M419.842 355.515L414.643 358.114L408.579 359.847M397.316 281.007L391.251 273.21H375.657V301.8L379.989 306.132H397.316V370.243L388.652 379.773M412.044 404.032L406.846 409.23H403.381M418.975 410.096L407.713 418.76L409.445 423.958M406.846 424.825L329.739 351.183V332.989M340.136 331.257V347.718L386.053 393.635M386.053 355.515H374.79L362.661 343.386H351.398M387.786 338.188L384.321 340.787H377.39M373.924 341.653L368.726 339.054M365.26 337.321L359.196 332.989H354.864M387.786 312.197H375.657M383.454 323.459L379.122 319.994H331.472M328.006 318.261L302.015 288.805M316.744 323.459L312.412 317.395M366.127 283.606L354.864 292.27H337.537L328.873 300.067M315.877 287.072L307.214 278.408M347.933 281.007H341.868L322.808 260.214H316.744M343.601 272.343L320.209 248.951M343.601 259.348L340.136 255.882V226.426L336.67 222.96M360.062 120.729L354.864 122.461L334.937 142.388V154.517" stroke="#FF00E5" stroke-width="2.07101"/>
<path d="M47.2941 95.6038L1.37646 50.0523M47.2941 108.599L1.37646 62.6818M52.4923 128.526L7.44106 83.4746M24.7685 133.724L114.005 222.96M36.0313 157.116L110.539 231.624M3.10921 95.6038L110.539 204.767M22.1694 1.16943L29.1003 8.96677H47.2941L75.018 34.9579M14.372 27.1606L22.1694 18.4968M8.30743 41.0225H14.372L35.1649 20.2296H41.2295M23.9021 46.2207L33.4322 35.8243M28.234 60.0826L36.8977 51.4189M59.4233 94.7375L63.7552 100.802V107.733L68.087 112.931M52.4923 59.2163V63.5481L70.6861 81.7419M64.6215 48.8198L99.2764 83.4746M90.6126 51.4189L102.742 64.4145L104.475 66.1472V69.6127M94.9445 37.557H99.2764L119.203 59.2163V69.6127M94.0781 18.4968L134.798 57.4835L135.664 74.8109M141.729 93.0047L157.323 110.332H192.844L195.443 107.733V102.535M164.254 120.729L172.918 113.798L214.504 146.72L217.969 178.775M185.913 161.448L203.241 150.185M189.379 190.905L193.711 196.103V203.034L198.043 207.366M205.84 196.103H222.301V197.836M240.495 168.379L243.96 171.844V194.37M228.366 242.02L230.098 240.288H243.96V235.956V194.37M243.96 194.37H239.628M255.223 170.112L250.025 175.31V227.292M250.025 235.956V227.292M250.025 227.292H268.219M257.822 209.965H268.219M268.219 201.301H259.555L257.822 196.969M256.956 185.706L260.421 183.974H268.219M76.7507 86.0738L95.8109 105.134V147.586L105.341 154.517M101.875 88.6729V111.199M105.341 140.655L101.875 137.19V125.927M101.875 125.927H105.341M101.875 125.927V111.199M101.875 111.199H105.341M108.806 128.526V130.259H122.668M138.263 113.798L164.254 139.789M146.927 145.853H152.125L159.056 152.784V196.103L175.517 212.564M180.715 217.762L200.642 237.689V242.887M180.715 244.62L153.858 217.762M151.259 213.43V189.172M146.927 161.448L151.259 164.047V175.31M171.185 195.236L168.586 192.637V144.121M142.595 171.844L141.729 170.978H129.599M146.927 189.172H151.259M151.259 189.172V175.31M151.259 175.31H146.927M114.871 187.439L88.0135 160.582M85.4144 156.25V106.867L81.0826 105.134M49.0269 187.439L52.4923 220.361L92.3454 252.417L102.742 243.753M65.4879 207.366L70.6861 211.698V219.495L74.1516 222.96M44.695 264.546L62.8888 247.219M42.0959 284.473L65.4879 261.081M38.6304 306.998L81.9489 262.813V258.482M42.0959 326.058L86.2808 282.74V277.542M51.626 340.787L94.9445 298.335V293.136M49.8932 358.981H55.0914L109.673 304.399V293.136M127 293.136V311.33L62.8888 372.842M75.8843 384.105L96.6772 362.446V357.248M81.0826 413.562L90.6126 404.898V400.566M105.341 381.506H114.005M105.341 392.769L108.806 389.304H114.005M105.341 403.165L107.94 406.631H114.005M105.341 439.553V435.221M117.47 432.622L125.267 425.691V371.976V370.243H107.074V341.653H119.203L125.267 347.718M95.8109 266.279L107.074 278.408H157.323V267.145M127.867 268.878H141.729M127.867 253.283H141.729M114.871 253.283V242.02H163.388L186.78 265.412M139.996 294.869H153.858M134.798 305.266H133.065V313.929M137.397 432.622L133.065 428.29V313.929M133.065 313.929H152.125M141.729 331.257H152.125M141.729 343.386L145.194 339.92H152.125M140.862 355.515L146.06 358.114L152.125 359.847M163.388 281.007L169.452 273.21H185.047V301.8L180.715 306.132H163.388V370.243L172.051 379.773M148.659 404.032L153.858 409.23H157.323M141.729 410.096L152.991 418.76L151.259 423.958M153.858 424.825L230.965 351.183V332.989M220.568 331.257V347.718L174.651 393.635M174.651 355.515H185.913L198.043 343.386H209.305M172.918 338.188L176.383 340.787H183.314M186.78 341.653L191.978 339.054M195.443 337.321L201.508 332.989H205.84M172.918 312.197H185.047M177.25 323.459L181.582 319.994H229.232M232.697 318.261L258.689 288.805M243.96 323.459L248.292 317.395M194.577 283.606L205.84 292.27H223.167L231.831 300.067M244.827 287.072L253.49 278.408M212.771 281.007H218.836L237.896 260.214H243.96M217.103 272.343L240.495 248.951M217.103 259.348L220.568 255.882V226.426L224.034 222.96M281.214 284.473V329.524M283.813 176.176V238.555H262.154V257.615M269.951 248.085H254.357M282.947 262.813L277.749 268.878H265.62L262.154 263.68M306.339 248.085H290.744M226.633 154.517V142.388L205.84 121.595H199.775" stroke="#FF00E5" stroke-width="2.07101"/>
</svg>
