<svg width="575" height="446" viewBox="0 0 575 446" fill="none" xmlns="http://www.w3.org/2000/svg">
<path d="M518.41 101.604L566.545 54.8198M518.41 114.599L564.327 68.6818M513.212 134.526L558.263 89.4746M540.935 139.724L451.699 228.96M529.673 163.116L455.165 237.624M562.595 101.604L455.165 210.767M543.534 7.16943L536.604 14.9668H518.41L490.686 40.9579M551.332 33.1606L543.534 24.4968M557.396 47.0225H551.332L530.539 26.2296H524.474M541.802 52.2207L532.272 41.8243M537.47 66.0826L528.806 57.4189M506.281 100.737L501.949 106.802V113.733L497.617 118.931M513.212 65.2163V69.5481L495.018 87.7419M501.082 54.8198L466.428 89.4746M475.091 57.4189L462.962 70.4145L461.229 72.1472V75.6127M470.759 43.557H466.428L446.501 65.2163V75.6127M471.626 24.4968L430.906 63.4835L430.04 80.8109M423.975 99.0047L408.381 116.332H372.859L370.26 113.733V108.535M401.45 126.729L392.786 119.798L351.2 152.72L347.735 184.775M379.79 167.448L362.463 156.185M376.325 196.905L371.993 202.103V209.034L367.661 213.366M359.864 202.103H343.403V203.836M325.209 174.379L321.744 177.844V200.37M337.338 248.02L335.606 246.288H321.744V241.956V200.37M321.744 200.37H326.075M310.481 176.112L315.679 181.31V233.292M315.679 241.956V233.292M315.679 233.292H297.485M307.882 215.965H297.485M297.485 207.301H306.149L307.882 202.969M308.748 191.706L305.283 189.974H297.485M488.953 92.0738L469.893 111.134V153.586L460.363 160.517M463.828 94.6729V117.199M460.363 146.655L463.828 143.19V131.927M463.828 131.927H460.363M463.828 131.927V117.199M463.828 117.199H460.363M456.897 134.526V136.259H443.035M427.441 119.798L401.45 145.789M418.777 151.853H413.579L406.648 158.784V202.103L390.187 218.564M384.989 223.762L365.062 243.689V248.887M384.989 250.62L411.846 223.762M414.445 219.43V195.172M418.777 167.448L414.445 170.047V181.31M394.519 201.236L397.118 198.637V150.121M423.109 177.844L423.975 176.978H436.105M418.777 195.172H414.445M414.445 195.172V181.31M414.445 181.31H418.777M450.833 193.439L477.69 166.582M480.289 162.25V112.867L484.621 111.134M516.677 193.439L513.212 226.361L473.358 258.417L462.962 249.753M500.216 213.366L495.018 217.698V225.495L491.552 228.96M521.009 270.546L502.815 253.219M523.608 290.473L500.216 267.081M527.073 312.998L483.755 268.813V264.482M523.608 332.058L479.423 288.74V283.542M514.078 346.787L470.759 304.335V299.136M515.811 364.981H510.612L456.031 310.399V299.136M438.704 299.136V317.33L502.815 378.842M489.82 390.105L469.027 368.446V363.248M484.621 419.562L475.091 410.898V406.566M460.363 387.506H451.699M460.363 398.769L456.897 395.304H451.699M460.363 409.165L457.764 412.631H451.699M460.363 445.553V441.221M448.234 438.622L440.436 431.691V377.976V376.243H458.63V347.653H446.501L440.436 353.718M469.893 272.279L458.63 284.408H408.381V273.145M437.837 274.878H423.975M437.837 259.283H423.975M450.833 259.283V248.02H402.316L378.924 271.412M425.708 300.869H411.846M430.906 311.266H432.639V319.929M428.307 438.622L432.639 434.29V319.929M432.639 319.929H413.579M423.975 337.257H413.579M423.975 349.386L420.51 345.92H413.579M424.842 361.515L419.643 364.114L413.579 365.847M402.316 287.007L396.251 279.21H380.657V307.8L384.989 312.132H402.316V376.243L393.652 385.773M417.044 410.032L411.846 415.23H408.381M423.975 416.096L412.713 424.76L414.445 429.958M411.846 430.825L334.739 357.183V338.989M345.136 337.257V353.718L391.053 399.635M391.053 361.515H379.79L367.661 349.386H356.398M392.786 344.188L389.321 346.787H382.39M378.924 347.653L373.726 345.054M370.26 343.321L364.196 338.989H359.864M392.786 318.197H380.657M388.454 329.459L384.122 325.994H336.472M333.006 324.261L307.015 294.805M321.744 329.459L317.412 323.395M371.127 289.606L359.864 298.27H342.537L333.873 306.067M320.877 293.072L312.214 284.408M352.933 287.007H346.868L327.808 266.214H321.744M348.601 278.343L325.209 254.951M348.601 265.348L345.136 261.882V232.426L341.67 228.96M365.062 126.729L359.864 128.461L339.937 148.388V160.517" stroke="#FF00E5" stroke-width="2.07101"/>
<path d="M52.2941 101.604L6.37646 56.0523M52.2941 114.599L6.37646 68.6818M57.4923 134.526L12.4411 89.4746M29.7685 139.724L119.005 228.96M41.0313 163.116L115.539 237.624M8.10921 101.604L115.539 210.767M27.1694 7.16943L34.1003 14.9668H52.2941L80.018 40.9579M19.372 33.1606L27.1694 24.4968M13.3074 47.0225H19.372L40.1649 26.2296H46.2295M28.9021 52.2207L38.4322 41.8243M33.234 66.0826L41.8977 57.4189M64.4233 100.737L68.7552 106.802V113.733L73.087 118.931M57.4923 65.2163V69.5481L75.6861 87.7419M69.6215 54.8198L104.276 89.4746M95.6126 57.4189L107.742 70.4145L109.475 72.1472V75.6127M99.9445 43.557H104.276L124.203 65.2163V75.6127M99.0781 24.4968L139.798 63.4835L140.664 80.8109M146.729 99.0047L162.323 116.332H197.844L200.443 113.733V108.535M169.254 126.729L177.918 119.798L219.504 152.72L222.969 184.775M190.913 167.448L208.241 156.185M194.379 196.905L198.711 202.103V209.034L203.043 213.366M210.84 202.103H227.301V203.836M245.495 174.379L248.96 177.844V200.37M233.366 248.02L235.098 246.288H248.96V241.956V200.37M248.96 200.37H244.628M260.223 176.112L255.025 181.31V233.292M255.025 241.956V233.292M255.025 233.292H273.219M262.822 215.965H273.219M273.219 207.301H264.555L262.822 202.969M261.956 191.706L265.421 189.974H273.219M81.7507 92.0738L100.811 111.134V153.586L110.341 160.517M106.875 94.6729V117.199M110.341 146.655L106.875 143.19V131.927M106.875 131.927H110.341M106.875 131.927V117.199M106.875 117.199H110.341M113.806 134.526V136.259H127.668M143.263 119.798L169.254 145.789M151.927 151.853H157.125L164.056 158.784V202.103L180.517 218.564M185.715 223.762L205.642 243.689V248.887M185.715 250.62L158.858 223.762M156.259 219.43V195.172M151.927 167.448L156.259 170.047V181.31M176.185 201.236L173.586 198.637V150.121M147.595 177.844L146.729 176.978H134.599M151.927 195.172H156.259M156.259 195.172V181.31M156.259 181.31H151.927M119.871 193.439L93.0135 166.582M90.4144 162.25V112.867L86.0826 111.134M54.0269 193.439L57.4923 226.361L97.3454 258.417L107.742 249.753M70.4879 213.366L75.6861 217.698V225.495L79.1516 228.96M49.695 270.546L67.8888 253.219M47.0959 290.473L70.4879 267.081M43.6304 312.998L86.9489 268.813V264.482M47.0959 332.058L91.2808 288.74V283.542M56.626 346.787L99.9445 304.335V299.136M54.8932 364.981H60.0914L114.673 310.399V299.136M132 299.136V317.33L67.8888 378.842M80.8843 390.105L101.677 368.446V363.248M86.0826 419.562L95.6126 410.898V406.566M110.341 387.506H119.005M110.341 398.769L113.806 395.304H119.005M110.341 409.165L112.94 412.631H119.005M110.341 445.553V441.221M122.47 438.622L130.267 431.691V377.976V376.243H112.074V347.653H124.203L130.267 353.718M100.811 272.279L112.074 284.408H162.323V273.145M132.867 274.878H146.729M132.867 259.283H146.729M119.871 259.283V248.02H168.388L191.78 271.412M144.996 300.869H158.858M139.798 311.266H138.065V319.929M142.397 438.622L138.065 434.29V319.929M138.065 319.929H157.125M146.729 337.257H157.125M146.729 349.386L150.194 345.92H157.125M145.862 361.515L151.06 364.114L157.125 365.847M168.388 287.007L174.452 279.21H190.047V307.8L185.715 312.132H168.388V376.243L177.051 385.773M153.659 410.032L158.858 415.23H162.323M146.729 416.096L157.991 424.76L156.259 429.958M158.858 430.825L235.965 357.183V338.989M225.568 337.257V353.718L179.651 399.635M179.651 361.515H190.913L203.043 349.386H214.305M177.918 344.188L181.383 346.787H188.314M191.78 347.653L196.978 345.054M200.443 343.321L206.508 338.989H210.84M177.918 318.197H190.047M182.25 329.459L186.582 325.994H234.232M237.697 324.261L263.689 294.805M248.96 329.459L253.292 323.395M199.577 289.606L210.84 298.27H228.167L236.831 306.067M249.827 293.072L258.49 284.408M217.771 287.007H223.836L242.896 266.214H248.96M222.103 278.343L245.495 254.951M222.103 265.348L225.568 261.882V232.426L229.034 228.96M286.214 290.473V335.524M288.813 182.176V244.555H267.154V263.615M274.951 254.085H259.357M287.947 268.813L282.749 274.878H270.62L267.154 269.68M311.339 254.085H295.744M231.633 160.517V148.388L210.84 127.595H204.775" stroke="#FF00E5" stroke-width="2.07101"/>
<circle cx="2.58876" cy="2.58876" r="1.55325" transform="matrix(-1 0 0 1 464.69 384.905)" stroke="#00FFE0" stroke-width="2.07101"/>
<circle cx="108.602" cy="387.494" r="1.55325" stroke="#00FFE0" stroke-width="2.07101"/>
<circle cx="2.58876" cy="2.58876" r="1.55325" transform="matrix(-1 0 0 1 452.562 384.905)" stroke="#00FFE0" stroke-width="2.07101"/>
<circle cx="120.73" cy="387.494" r="1.55325" stroke="#00FFE0" stroke-width="2.07101"/>
<circle cx="2.58876" cy="2.58876" r="1.55325" transform="matrix(-1 0 0 1 414.448 334.657)" stroke="#00FFE0" stroke-width="2.07101"/>
<circle cx="158.845" cy="337.246" r="1.55325" stroke="#00FFE0" stroke-width="2.07101"/>
<circle cx="2.58876" cy="2.58876" r="1.55325" transform="matrix(-1 0 0 1 428.305 334.657)" stroke="#00FFE0" stroke-width="2.07101"/>
<circle cx="144.987" cy="337.246" r="1.55325" stroke="#00FFE0" stroke-width="2.07101"/>
<circle cx="2.58876" cy="2.58876" r="1.55325" transform="matrix(-1 0 0 1 428.305 348.52)" stroke="#00FFE0" stroke-width="2.07101"/>
<circle cx="144.987" cy="351.108" r="1.55325" stroke="#00FFE0" stroke-width="2.07101"/>
<circle cx="2.58876" cy="2.58876" r="1.55325" transform="matrix(-1 0 0 1 414.448 343.321)" stroke="#00FFE0" stroke-width="2.07101"/>
<circle cx="158.845" cy="345.91" r="1.55325" stroke="#00FFE0" stroke-width="2.07101"/>
<circle cx="2.58876" cy="2.58876" r="1.55325" transform="matrix(-1 0 0 1 414.448 364.113)" stroke="#00FFE0" stroke-width="2.07101"/>
<circle cx="158.845" cy="366.702" r="1.55325" stroke="#00FFE0" stroke-width="2.07101"/>
<circle cx="2.58876" cy="2.58876" r="1.55325" transform="matrix(-1 0 0 1 421.375 405.696)" stroke="#00FFE0" stroke-width="2.07101"/>
<circle cx="151.917" cy="408.285" r="1.55325" stroke="#00FFE0" stroke-width="2.07101"/>
<circle cx="2.58876" cy="2.58876" r="1.55325" transform="matrix(-1 0 0 1 428.305 412.629)" stroke="#00FFE0" stroke-width="2.07101"/>
<circle cx="144.987" cy="415.215" r="1.55325" stroke="#00FFE0" stroke-width="2.07101"/>
<circle cx="2.58876" cy="2.58876" r="1.55325" transform="matrix(-1 0 0 1 409.246 412.629)" stroke="#00FFE0" stroke-width="2.07101"/>
<circle cx="164.047" cy="415.215" r="1.55325" stroke="#00FFE0" stroke-width="2.07101"/>
<circle cx="2.58876" cy="2.58876" r="1.55325" transform="matrix(-1 0 0 1 402.318 407.433)" stroke="#00FFE0" stroke-width="2.07101"/>
<circle cx="170.975" cy="410.022" r="1.55325" stroke="#00FFE0" stroke-width="2.07101"/>
<circle cx="2.58876" cy="2.58876" r="1.55325" transform="matrix(-1 0 0 1 428.305 357.179)" stroke="#00FFE0" stroke-width="2.07101"/>
<circle cx="144.987" cy="359.768" r="1.55325" stroke="#00FFE0" stroke-width="2.07101"/>
<circle cx="2.58876" cy="2.58876" r="1.55325" transform="matrix(-1 0 0 1 414.448 317.327)" stroke="#00FFE0" stroke-width="2.07101"/>
<circle cx="158.845" cy="319.916" r="1.55325" stroke="#00FFE0" stroke-width="2.07101"/>
<circle cx="2.58876" cy="2.58876" r="1.55325" transform="matrix(-1 0 0 1 431.772 308.663)" stroke="#00FFE0" stroke-width="2.07101"/>
<circle cx="141.52" cy="311.251" r="1.55325" stroke="#00FFE0" stroke-width="2.07101"/>
<circle cx="2.58876" cy="2.58876" r="1.55325" transform="matrix(-1 0 0 1 397.117 339.855)" stroke="#00FFE0" stroke-width="2.07101"/>
<circle cx="176.176" cy="342.443" r="1.55325" stroke="#00FFE0" stroke-width="2.07101"/>
<circle cx="2.58876" cy="2.58876" r="1.55325" transform="matrix(-1 0 0 1 383.258 345.052)" stroke="#00FFE0" stroke-width="2.07101"/>
<circle cx="190.039" cy="347.641" r="1.55325" stroke="#00FFE0" stroke-width="2.07101"/>
<circle cx="2.58876" cy="2.58876" r="1.55325" transform="matrix(-1 0 0 1 374.59 341.588)" stroke="#00FFE0" stroke-width="2.07101"/>
<circle cx="198.703" cy="344.177" r="1.55325" stroke="#00FFE0" stroke-width="2.07101"/>
<circle cx="2.58876" cy="2.58876" r="1.55325" transform="matrix(-1 0 0 1 360.729 336.386)" stroke="#00FFE0" stroke-width="2.07101"/>
<circle cx="212.562" cy="338.975" r="1.55325" stroke="#00FFE0" stroke-width="2.07101"/>
<circle cx="2.58876" cy="2.58876" r="1.55325" transform="matrix(-1 0 0 1 352.067 277.474)" stroke="#00FFE0" stroke-width="2.07101"/>
<circle cx="221.224" cy="280.062" r="1.55325" stroke="#00FFE0" stroke-width="2.07101"/>
<circle cx="2.58876" cy="2.58876" r="1.55325" transform="matrix(-1 0 0 1 326.076 327.725)" stroke="#00FFE0" stroke-width="2.07101"/>
<circle cx="247.217" cy="330.314" r="1.55325" stroke="#00FFE0" stroke-width="2.07101"/>
<circle cx="2.58876" cy="2.58876" r="1.55325" transform="matrix(-1 0 0 1 319.145 319.06)" stroke="#00FFE0" stroke-width="2.07101"/>
<circle cx="254.151" cy="321.648" r="1.55325" stroke="#00FFE0" stroke-width="2.07101"/>
<circle cx="2.58876" cy="2.58876" r="1.55325" transform="matrix(-1 0 0 1 341.674 246.288)" stroke="#00FFE0" stroke-width="2.07101"/>
<circle cx="231.62" cy="248.874" r="1.55325" stroke="#00FFE0" stroke-width="2.07101"/>
<circle cx="2.58876" cy="2.58876" r="1.55325" transform="matrix(-1 0 0 1 331.275 197.773)" stroke="#00FFE0" stroke-width="2.07101"/>
<circle cx="242.017" cy="200.36" r="1.55325" stroke="#00FFE0" stroke-width="2.07101"/>
<circle cx="2.58876" cy="2.58876" r="1.55325" transform="matrix(-1 0 0 1 329.54 170.046)" stroke="#00FFE0" stroke-width="2.07101"/>
<circle cx="243.753" cy="172.635" r="1.55325" stroke="#00FFE0" stroke-width="2.07101"/>
<circle cx="2.58876" cy="2.58876" r="1.55325" transform="matrix(-1 0 0 1 312.212 171.776)" stroke="#00FFE0" stroke-width="2.07101"/>
<circle cx="261.08" cy="174.365" r="1.55325" stroke="#00FFE0" stroke-width="2.07101"/>
<circle cx="2.58876" cy="2.58876" r="1.55325" transform="matrix(-1 0 0 1 317.411 241.087)" stroke="#00FFE0" stroke-width="2.07101"/>
<circle cx="255.881" cy="243.676" r="1.55325" stroke="#00FFE0" stroke-width="2.07101"/>
<circle cx="2.58876" cy="2.58876" r="1.55325" transform="matrix(-1 0 0 1 326.076 251.485)" stroke="#00FFE0" stroke-width="2.07101"/>
<circle cx="247.217" cy="254.074" r="1.55325" stroke="#00FFE0" stroke-width="2.07101"/>
<circle cx="2.58876" cy="2.58876" r="1.55325" transform="matrix(-1 0 0 1 298.35 230.694)" stroke="#00FFE0" stroke-width="2.07101"/>
<circle cx="274.952" cy="233.283" r="1.55325" stroke="#00FFE0" stroke-width="2.07101"/>
<circle cx="2.58876" cy="2.58876" r="1.55325" transform="matrix(-1 0 0 1 312.212 213.365)" stroke="#00FFE0" stroke-width="2.07101"/>
<circle cx="261.08" cy="215.954" r="1.55325" stroke="#00FFE0" stroke-width="2.07101"/>
<circle cx="2.58876" cy="2.58876" r="1.55325" transform="matrix(-1 0 0 1 298.35 213.365)" stroke="#00FFE0" stroke-width="2.07101"/>
<circle cx="274.952" cy="215.954" r="1.55325" stroke="#00FFE0" stroke-width="2.07101"/>
<circle cx="2.58876" cy="2.58876" r="1.55325" transform="matrix(-1 0 0 1 298.35 204.699)" stroke="#00FFE0" stroke-width="2.07101"/>
<circle cx="274.952" cy="207.288" r="1.55325" stroke="#00FFE0" stroke-width="2.07101"/>
<circle cx="2.58876" cy="2.58876" r="1.55325" transform="matrix(-1 0 0 1 312.212 199.504)" stroke="#00FFE0" stroke-width="2.07101"/>
<circle cx="261.08" cy="202.093" r="1.55325" stroke="#00FFE0" stroke-width="2.07101"/>
<circle cx="2.58876" cy="2.58876" r="1.55325" transform="matrix(-1 0 0 1 312.212 190.837)" stroke="#00FFE0" stroke-width="2.07101"/>
<circle cx="261.08" cy="193.426" r="1.55325" stroke="#00FFE0" stroke-width="2.07101"/>
<circle cx="2.58876" cy="2.58876" r="1.55325" transform="matrix(-1 0 0 1 298.35 187.375)" stroke="#00FFE0" stroke-width="2.07101"/>
<circle cx="274.952" cy="189.964" r="1.55325" stroke="#00FFE0" stroke-width="2.07101"/>
<circle cx="2.58876" cy="2.58876" r="1.55325" transform="matrix(-1 0 0 1 397.117 315.595)" stroke="#00FFE0" stroke-width="2.07101"/>
<circle cx="176.176" cy="318.184" r="1.55325" stroke="#00FFE0" stroke-width="2.07101"/>
<circle cx="2.58876" cy="2.58876" r="1.55325" transform="matrix(-1 0 0 1 381.521 315.595)" stroke="#00FFE0" stroke-width="2.07101"/>
<circle cx="191.772" cy="318.184" r="1.55325" stroke="#00FFE0" stroke-width="2.07101"/>
<circle cx="2.58876" cy="2.58876" r="1.55325" transform="matrix(-1 0 0 1 452.562 393.571)" stroke="#00FFE0" stroke-width="2.07101"/>
<circle cx="120.73" cy="396.16" r="1.55325" stroke="#00FFE0" stroke-width="2.07101"/>
<circle cx="2.58876" cy="2.58876" r="1.55325" transform="matrix(-1 0 0 1 464.69 397.035)" stroke="#00FFE0" stroke-width="2.07101"/>
<circle cx="108.602" cy="399.624" r="1.55325" stroke="#00FFE0" stroke-width="2.07101"/>
<circle cx="2.58876" cy="2.58876" r="1.55325" transform="matrix(-1 0 0 1 464.69 405.696)" stroke="#00FFE0" stroke-width="2.07101"/>
<circle cx="108.602" cy="408.285" r="1.55325" stroke="#00FFE0" stroke-width="2.07101"/>
<circle cx="2.58876" cy="2.58876" r="1.55325" transform="matrix(-1 0 0 1 452.562 410.896)" stroke="#00FFE0" stroke-width="2.07101"/>
<circle cx="120.73" cy="413.485" r="1.55325" stroke="#00FFE0" stroke-width="2.07101"/>
<circle cx="4.78428" cy="54.4981" r="3.62426" stroke="#00FFE0" stroke-width="2.07101"/>
<circle cx="4.65976" cy="4.65976" r="3.62426" transform="matrix(-1 0 0 1 565.89 82.9751)" stroke="#00FFE0" stroke-width="2.07101"/>
<circle cx="10.9972" cy="87.6349" r="3.62426" stroke="#00FFE0" stroke-width="2.07101"/>
<circle cx="4.65976" cy="4.65976" r="3.62426" transform="matrix(-1 0 0 1 572.103 61.2297)" stroke="#00FFE0" stroke-width="2.07101"/>
<circle cx="4.65976" cy="4.65976" r="3.62426" transform="matrix(-1 0 0 1 574.173 48.8032)" stroke="#00FFE0" stroke-width="2.07101"/>
<circle cx="4.78428" cy="66.9247" r="3.62426" stroke="#00FFE0" stroke-width="2.07101"/>
<circle cx="4.65976" cy="4.65976" r="3.62426" transform="matrix(-1 0 0 1 546.133 17.5684)" stroke="#00FFE0" stroke-width="2.07101"/>
<circle cx="29.2306" cy="22.2281" r="3.62426" stroke="#00FFE0" stroke-width="2.07101"/>
<circle cx="4.65976" cy="4.65976" r="3.62426" transform="matrix(-1 0 0 1 558.264 31.4277)" stroke="#00FFE0" stroke-width="2.07101"/>
<circle cx="17.1002" cy="36.0875" r="3.62426" stroke="#00FFE0" stroke-width="2.07101"/>
<circle cx="4.65976" cy="4.65976" r="3.62426" transform="matrix(-1 0 0 1 549.599 0.239746)" stroke="#00FFE0" stroke-width="2.07101"/>
<circle cx="25.7647" cy="4.89951" r="3.62426" stroke="#00FFE0" stroke-width="2.07101"/>
<circle cx="4.65976" cy="4.65976" r="3.62426" transform="matrix(-1 0 0 1 525.34 21.0308)" stroke="#00FFE0" stroke-width="2.07101"/>
<circle cx="50.0235" cy="25.6905" r="3.62426" stroke="#00FFE0" stroke-width="2.07101"/>
<circle cx="4.65976" cy="4.65976" r="3.62426" transform="matrix(-1 0 0 1 565.191 41.8237)" stroke="#00FFE0" stroke-width="2.07101"/>
<circle cx="10.1725" cy="46.4835" r="3.62426" stroke="#00FFE0" stroke-width="2.07101"/>
<circle cx="4.65976" cy="4.65976" r="3.62426" transform="matrix(-1 0 0 1 547.867 50.4875)" stroke="#00FFE0" stroke-width="2.07101"/>
<circle cx="27.4986" cy="55.1473" r="3.62426" stroke="#00FFE0" stroke-width="2.07101"/>
<circle cx="4.65976" cy="4.65976" r="3.62426" transform="matrix(-1 0 0 1 534.003 34.8911)" stroke="#00FFE0" stroke-width="2.07101"/>
<circle cx="41.3629" cy="39.5509" r="3.62426" stroke="#00FFE0" stroke-width="2.07101"/>
<circle cx="4.65976" cy="4.65976" r="3.62426" transform="matrix(-1 0 0 1 520.145 31.4277)" stroke="#00FFE0" stroke-width="2.07101"/>
<circle cx="55.2208" cy="36.0875" r="3.62426" stroke="#00FFE0" stroke-width="2.07101"/>
<circle cx="4.65976" cy="4.65976" r="3.62426" transform="matrix(-1 0 0 1 520.145 45.29)" stroke="#00FFE0" stroke-width="2.07101"/>
<circle cx="55.2208" cy="49.9498" r="3.62426" stroke="#00FFE0" stroke-width="2.07101"/>
<circle cx="4.65976" cy="4.65976" r="3.62426" transform="matrix(-1 0 0 1 530.541 50.4875)" stroke="#00FFE0" stroke-width="2.07101"/>
<circle cx="44.8268" cy="55.1473" r="3.62426" stroke="#00FFE0" stroke-width="2.07101"/>
<circle cx="4.65976" cy="4.65976" r="3.62426" transform="matrix(-1 0 0 1 544.404 64.3501)" stroke="#00FFE0" stroke-width="2.07101"/>
<circle cx="30.9605" cy="69.0099" r="3.62426" stroke="#00FFE0" stroke-width="2.07101"/>
<circle cx="4.65976" cy="4.65976" r="3.62426" transform="matrix(-1 0 0 1 528.804 69.5474)" stroke="#00FFE0" stroke-width="2.07101"/>
<circle cx="46.5582" cy="74.2071" r="3.62426" stroke="#00FFE0" stroke-width="2.07101"/>
<circle cx="4.65976" cy="4.65976" r="3.62426" transform="matrix(-1 0 0 1 518.413 57.4192)" stroke="#00FFE0" stroke-width="2.07101"/>
<circle cx="56.9513" cy="62.079" r="3.62426" stroke="#00FFE0" stroke-width="2.07101"/>
<circle cx="4.65976" cy="4.65976" r="3.62426" transform="matrix(-1 0 0 1 508.011 48.7585)" stroke="#00FFE0" stroke-width="2.07101"/>
<circle cx="67.3477" cy="53.4183" r="3.62426" stroke="#00FFE0" stroke-width="2.07101"/>
<circle cx="4.65976" cy="4.65976" r="3.62426" transform="matrix(-1 0 0 1 516.677 79.9436)" stroke="#00FFE0" stroke-width="2.07101"/>
<circle cx="58.6866" cy="84.6034" r="3.62426" stroke="#00FFE0" stroke-width="2.07101"/>
<circle cx="4.65976" cy="4.65976" r="3.62426" transform="matrix(-1 0 0 1 495.886 85.1431)" stroke="#00FFE0" stroke-width="2.07101"/>
<circle cx="79.4835" cy="89.8028" r="3.62426" stroke="#00FFE0" stroke-width="2.07101"/>
<circle cx="4.65976" cy="4.65976" r="3.62426" transform="matrix(-1 0 0 1 513.216 93.8069)" stroke="#00FFE0" stroke-width="2.07101"/>
<circle cx="62.1505" cy="98.4666" r="3.62426" stroke="#00FFE0" stroke-width="2.07101"/>
<circle cx="4.65976" cy="4.65976" r="3.62426" transform="matrix(-1 0 0 1 492.419 38.3594)" stroke="#00FFE0" stroke-width="2.07101"/>
<circle cx="82.9454" cy="43.0191" r="3.62426" stroke="#00FFE0" stroke-width="2.07101"/>
<circle cx="4.65976" cy="4.65976" r="3.62426" transform="matrix(-1 0 0 1 482.026 50.4875)" stroke="#00FFE0" stroke-width="2.07101"/>
<circle cx="93.3399" cy="55.1473" r="3.62426" stroke="#00FFE0" stroke-width="2.07101"/>
<circle cx="4.65976" cy="4.65976" r="3.62426" transform="matrix(-1 0 0 1 478.557 38.3594)" stroke="#00FFE0" stroke-width="2.07101"/>
<circle cx="96.8077" cy="43.0191" r="3.62426" stroke="#00FFE0" stroke-width="2.07101"/>
<circle cx="4.65976" cy="4.65976" r="3.62426" transform="matrix(-1 0 0 1 478.557 17.5684)" stroke="#00FFE0" stroke-width="2.07101"/>
<circle cx="96.8077" cy="22.2281" r="3.62426" stroke="#00FFE0" stroke-width="2.07101"/>
<circle cx="4.65976" cy="4.65976" r="3.62426" transform="matrix(-1 0 0 1 435.238 79.9436)" stroke="#00FFE0" stroke-width="2.07101"/>
<circle cx="140.126" cy="84.6034" r="3.62426" stroke="#00FFE0" stroke-width="2.07101"/>
<circle cx="4.65976" cy="4.65976" r="3.62426" transform="matrix(-1 0 0 1 450.834 74.7439)" stroke="#00FFE0" stroke-width="2.07101"/>
<circle cx="124.53" cy="79.4037" r="3.62426" stroke="#00FFE0" stroke-width="2.07101"/>
<circle cx="4.65976" cy="4.65976" r="3.62426" transform="matrix(-1 0 0 1 464.69 74.7439)" stroke="#00FFE0" stroke-width="2.07101"/>
<circle cx="110.673" cy="79.4037" r="3.62426" stroke="#00FFE0" stroke-width="2.07101"/>
<circle cx="4.65976" cy="4.65976" r="3.62426" transform="matrix(-1 0 0 1 468.16 86.8743)" stroke="#00FFE0" stroke-width="2.07101"/>
<circle cx="107.204" cy="91.534" r="3.62426" stroke="#00FFE0" stroke-width="2.07101"/>
<circle cx="4.65976" cy="4.65976" r="3.62426" transform="matrix(-1 0 0 1 492.419 105.936)" stroke="#00FFE0" stroke-width="2.07101"/>
<circle cx="82.9454" cy="110.596" r="3.62426" stroke="#00FFE0" stroke-width="2.07101"/>
<circle cx="4.65976" cy="4.65976" r="3.62426" transform="matrix(-1 0 0 1 499.35 116.329)" stroke="#00FFE0" stroke-width="2.07101"/>
<circle cx="76.0147" cy="120.989" r="3.62426" stroke="#00FFE0" stroke-width="2.07101"/>
<circle cx="4.65976" cy="4.65976" r="3.62426" transform="matrix(-1 0 0 1 504.549 128.462)" stroke="#00FFE0" stroke-width="2.07101"/>
<circle cx="70.815" cy="133.122" r="3.62426" stroke="#00FFE0" stroke-width="2.07101"/>
<circle cx="4.65976" cy="4.65976" r="3.62426" transform="matrix(-1 0 0 1 504.549 142.323)" stroke="#00FFE0" stroke-width="2.07101"/>
<circle cx="70.815" cy="146.983" r="3.62426" stroke="#00FFE0" stroke-width="2.07101"/>
<circle cx="4.65976" cy="4.65976" r="3.62426" transform="matrix(-1 0 0 1 514.944 133.662)" stroke="#00FFE0" stroke-width="2.07101"/>
<circle cx="60.4205" cy="138.321" r="3.62426" stroke="#00FFE0" stroke-width="2.07101"/>
<circle cx="4.65976" cy="4.65976" r="3.62426" transform="matrix(-1 0 0 1 520.145 112.865)" stroke="#00FFE0" stroke-width="2.07101"/>
<circle cx="55.2208" cy="117.525" r="3.62426" stroke="#00FFE0" stroke-width="2.07101"/>
<circle cx="4.65976" cy="4.65976" r="3.62426" transform="matrix(-1 0 0 1 520.145 99.0024)" stroke="#00FFE0" stroke-width="2.07101"/>
<circle cx="55.2208" cy="103.662" r="3.62426" stroke="#00FFE0" stroke-width="2.07101"/>
<circle cx="4.65976" cy="4.65976" r="3.62426" transform="matrix(-1 0 0 1 568.661 93.8069)" stroke="#00FFE0" stroke-width="2.07101"/>
<circle cx="6.70517" cy="98.4666" r="3.62426" stroke="#00FFE0" stroke-width="2.07101"/>
<circle cx="4.65976" cy="4.65976" r="3.62426" transform="matrix(-1 0 0 1 547.867 131.928)" stroke="#00FFE0" stroke-width="2.07101"/>
<circle cx="27.4986" cy="136.588" r="3.62426" stroke="#00FFE0" stroke-width="2.07101"/>
<circle cx="4.65976" cy="4.65976" r="3.62426" transform="matrix(-1 0 0 1 535.737 156.182)" stroke="#00FFE0" stroke-width="2.07101"/>
<circle cx="39.6251" cy="160.842" r="3.62426" stroke="#00FFE0" stroke-width="2.07101"/>
<circle cx="4.65976" cy="4.65976" r="3.62426" transform="matrix(-1 0 0 1 457.765 208.168)" stroke="#00FFE0" stroke-width="2.07101"/>
<circle cx="117.601" cy="212.827" r="3.62426" stroke="#00FFE0" stroke-width="2.07101"/>
<circle cx="4.65976" cy="4.65976" r="3.62426" transform="matrix(-1 0 0 1 454.298 227.225)" stroke="#00FFE0" stroke-width="2.07101"/>
<circle cx="121.066" cy="231.885" r="3.62426" stroke="#00FFE0" stroke-width="2.07101"/>
<circle cx="4.65976" cy="4.65976" r="3.62426" transform="matrix(-1 0 0 1 457.765 235.89)" stroke="#00FFE0" stroke-width="2.07101"/>
<circle cx="117.601" cy="240.549" r="3.62426" stroke="#00FFE0" stroke-width="2.07101"/>
<circle cx="4.65976" cy="4.65976" r="3.62426" transform="matrix(-1 0 0 1 485.488 161.381)" stroke="#00FFE0" stroke-width="2.07101"/>
<circle cx="89.8766" cy="166.041" r="3.62426" stroke="#00FFE0" stroke-width="2.07101"/>
<circle cx="4.65976" cy="4.65976" r="3.62426" transform="matrix(-1 0 0 1 452.562 190.837)" stroke="#00FFE0" stroke-width="2.07101"/>
<circle cx="122.802" cy="195.497" r="3.62426" stroke="#00FFE0" stroke-width="2.07101"/>
<circle cx="4.65976" cy="4.65976" r="3.62426" transform="matrix(-1 0 0 1 443.903 187.375)" stroke="#00FFE0" stroke-width="2.07101"/>
<circle cx="131.461" cy="192.035" r="3.62426" stroke="#00FFE0" stroke-width="2.07101"/>
<circle cx="4.65976" cy="4.65976" r="3.62426" transform="matrix(-1 0 0 1 443.903 173.512)" stroke="#00FFE0" stroke-width="2.07101"/>
<circle cx="131.461" cy="178.172" r="3.62426" stroke="#00FFE0" stroke-width="2.07101"/>
<circle cx="4.65976" cy="4.65976" r="3.62426" transform="matrix(-1 0 0 1 443.903 159.648)" stroke="#00FFE0" stroke-width="2.07101"/>
<circle cx="131.461" cy="164.308" r="3.62426" stroke="#00FFE0" stroke-width="2.07101"/>
<circle cx="4.65976" cy="4.65976" r="3.62426" transform="matrix(-1 0 0 1 443.903 144.054)" stroke="#00FFE0" stroke-width="2.07101"/>
<circle cx="131.461" cy="148.713" r="3.62426" stroke="#00FFE0" stroke-width="2.07101"/>
<circle cx="4.65976" cy="4.65976" r="3.62426" transform="matrix(-1 0 0 1 461.229 156.182)" stroke="#00FFE0" stroke-width="2.07101"/>
<circle cx="114.135" cy="160.842" r="3.62426" stroke="#00FFE0" stroke-width="2.07101"/>
<circle cx="4.65976" cy="4.65976" r="3.62426" transform="matrix(-1 0 0 1 461.229 142.323)" stroke="#00FFE0" stroke-width="2.07101"/>
<circle cx="114.135" cy="146.983" r="3.62426" stroke="#00FFE0" stroke-width="2.07101"/>
<circle cx="4.65976" cy="4.65976" r="3.62426" transform="matrix(-1 0 0 1 461.229 126.727)" stroke="#00FFE0" stroke-width="2.07101"/>
<circle cx="114.135" cy="131.387" r="3.62426" stroke="#00FFE0" stroke-width="2.07101"/>
<circle cx="4.65976" cy="4.65976" r="3.62426" transform="matrix(-1 0 0 1 461.229 112.865)" stroke="#00FFE0" stroke-width="2.07101"/>
<circle cx="114.135" cy="117.525" r="3.62426" stroke="#00FFE0" stroke-width="2.07101"/>
<circle cx="4.65976" cy="4.65976" r="3.62426" transform="matrix(-1 0 0 1 443.903 131.928)" stroke="#00FFE0" stroke-width="2.07101"/>
<circle cx="131.461" cy="136.588" r="3.62426" stroke="#00FFE0" stroke-width="2.07101"/>
<circle cx="4.65976" cy="4.65976" r="3.62426" transform="matrix(-1 0 0 1 443.903 116.329)" stroke="#00FFE0" stroke-width="2.07101"/>
<circle cx="131.461" cy="120.989" r="3.62426" stroke="#00FFE0" stroke-width="2.07101"/>
<circle cx="4.65976" cy="4.65976" r="3.62426" transform="matrix(-1 0 0 1 443.903 102.469)" stroke="#00FFE0" stroke-width="2.07101"/>
<circle cx="131.461" cy="107.129" r="3.62426" stroke="#00FFE0" stroke-width="2.07101"/>
<circle cx="4.65976" cy="4.65976" r="3.62426" transform="matrix(-1 0 0 1 443.903 88.6064)" stroke="#00FFE0" stroke-width="2.07101"/>
<circle cx="131.461" cy="93.2662" r="3.62426" stroke="#00FFE0" stroke-width="2.07101"/>
<circle cx="4.65976" cy="4.65976" r="3.62426" transform="matrix(-1 0 0 1 433.508 112.865)" stroke="#00FFE0" stroke-width="2.07101"/>
<circle cx="141.856" cy="117.525" r="3.62426" stroke="#00FFE0" stroke-width="2.07101"/>
<circle cx="4.65976" cy="4.65976" r="3.62426" transform="matrix(-1 0 0 1 430.043 92.0696)" stroke="#00FFE0" stroke-width="2.07101"/>
<circle cx="145.325" cy="96.7293" r="3.62426" stroke="#00FFE0" stroke-width="2.07101"/>
<circle cx="4.65976" cy="4.65976" r="3.62426" transform="matrix(-1 0 0 1 374.59 100.739)" stroke="#00FFE0" stroke-width="2.07101"/>
<circle cx="200.774" cy="105.396" r="3.62426" stroke="#00FFE0" stroke-width="2.07101"/>
<circle cx="4.65976" cy="4.65976" r="3.62426" transform="matrix(-1 0 0 1 402.318 142.323)" stroke="#00FFE0" stroke-width="2.07101"/>
<circle cx="173.046" cy="146.983" r="3.62426" stroke="#00FFE0" stroke-width="2.07101"/>
<circle cx="4.65976" cy="4.65976" r="3.62426" transform="matrix(-1 0 0 1 426.573 147.522)" stroke="#00FFE0" stroke-width="2.07101"/>
<circle cx="148.791" cy="152.182" r="3.62426" stroke="#00FFE0" stroke-width="2.07101"/>
<circle cx="4.65976" cy="4.65976" r="3.62426" transform="matrix(-1 0 0 1 426.573 163.115)" stroke="#00FFE0" stroke-width="2.07101"/>
<circle cx="148.791" cy="167.774" r="3.62426" stroke="#00FFE0" stroke-width="2.07101"/>
<circle cx="4.65976" cy="4.65976" r="3.62426" transform="matrix(-1 0 0 1 426.573 176.977)" stroke="#00FFE0" stroke-width="2.07101"/>
<circle cx="148.791" cy="181.637" r="3.62426" stroke="#00FFE0" stroke-width="2.07101"/>
<circle cx="4.65976" cy="4.65976" r="3.62426" transform="matrix(-1 0 0 1 426.573 190.837)" stroke="#00FFE0" stroke-width="2.07101"/>
<circle cx="148.791" cy="195.497" r="3.62426" stroke="#00FFE0" stroke-width="2.07101"/>
<circle cx="4.65976" cy="4.65976" r="3.62426" transform="matrix(-1 0 0 1 443.903 201.236)" stroke="#00FFE0" stroke-width="2.07101"/>
<circle cx="131.461" cy="205.896" r="3.62426" stroke="#00FFE0" stroke-width="2.07101"/>
<circle cx="4.65976" cy="4.65976" r="3.62426" transform="matrix(-1 0 0 1 443.903 215.095)" stroke="#00FFE0" stroke-width="2.07101"/>
<circle cx="131.461" cy="219.754" r="3.62426" stroke="#00FFE0" stroke-width="2.07101"/>
<circle cx="4.65976" cy="4.65976" r="3.62426" transform="matrix(-1 0 0 1 419.646 218.564)" stroke="#00FFE0" stroke-width="2.07101"/>
<circle cx="155.72" cy="223.224" r="3.62426" stroke="#00FFE0" stroke-width="2.07101"/>
<circle cx="4.65976" cy="4.65976" r="3.62426" transform="matrix(-1 0 0 1 386.721 248.02)" stroke="#00FFE0" stroke-width="2.07101"/>
<circle cx="188.644" cy="252.68" r="3.62426" stroke="#00FFE0" stroke-width="2.07101"/>
<circle cx="4.65976" cy="4.65976" r="3.62426" transform="matrix(-1 0 0 1 391.92 216.832)" stroke="#00FFE0" stroke-width="2.07101"/>
<circle cx="183.444" cy="221.492" r="3.62426" stroke="#00FFE0" stroke-width="2.07101"/>
<circle cx="4.65976" cy="4.65976" r="3.62426" transform="matrix(-1 0 0 1 407.518 124.994)" stroke="#00FFE0" stroke-width="2.07101"/>
<circle cx="167.847" cy="129.654" r="3.62426" stroke="#00FFE0" stroke-width="2.07101"/>
<circle cx="4.65976" cy="4.65976" r="3.62426" transform="matrix(-1 0 0 1 352.067 183.907)" stroke="#00FFE0" stroke-width="2.07101"/>
<circle cx="223.295" cy="188.567" r="3.62426" stroke="#00FFE0" stroke-width="2.07101"/>
<circle cx="4.65976" cy="4.65976" r="3.62426" transform="matrix(-1 0 0 1 364.197 149.251)" stroke="#00FFE0" stroke-width="2.07101"/>
<circle cx="211.165" cy="153.911" r="3.62426" stroke="#00FFE0" stroke-width="2.07101"/>
<circle cx="4.65976" cy="4.65976" r="3.62426" transform="matrix(-1 0 0 1 386.721 164.846)" stroke="#00FFE0" stroke-width="2.07101"/>
<circle cx="188.644" cy="169.505" r="3.62426" stroke="#00FFE0" stroke-width="2.07101"/>
<circle cx="4.65976" cy="4.65976" r="3.62426" transform="matrix(-1 0 0 1 383.259 176.977)" stroke="#00FFE0" stroke-width="2.07101"/>
<circle cx="192.111" cy="181.637" r="3.62426" stroke="#00FFE0" stroke-width="2.07101"/>
<circle cx="4.65976" cy="4.65976" r="3.62426" transform="matrix(-1 0 0 1 383.259 190.837)" stroke="#00FFE0" stroke-width="2.07101"/>
<circle cx="192.111" cy="195.497" r="3.62426" stroke="#00FFE0" stroke-width="2.07101"/>
<circle cx="4.65976" cy="4.65976" r="3.62426" transform="matrix(-1 0 0 1 369.393 211.63)" stroke="#00FFE0" stroke-width="2.07101"/>
<circle cx="205.971" cy="216.29" r="3.62426" stroke="#00FFE0" stroke-width="2.07101"/>
<circle cx="4.65976" cy="4.65976" r="3.62426" transform="matrix(-1 0 0 1 367.663 197.774)" stroke="#00FFE0" stroke-width="2.07101"/>
<circle cx="207.701" cy="202.432" r="3.62426" stroke="#00FFE0" stroke-width="2.07101"/>
<circle cx="4.65976" cy="4.65976" r="3.62426" transform="matrix(-1 0 0 1 346.866 202.968)" stroke="#00FFE0" stroke-width="2.07101"/>
<circle cx="228.498" cy="207.627" r="3.62426" stroke="#00FFE0" stroke-width="2.07101"/>
<circle cx="4.65976" cy="4.65976" r="3.62426" transform="matrix(-1 0 0 1 343.404 159.648)" stroke="#00FFE0" stroke-width="2.07101"/>
<circle cx="231.96" cy="164.308" r="3.62426" stroke="#00FFE0" stroke-width="2.07101"/>
<circle cx="4.65976" cy="4.65976" r="3.62426" transform="matrix(-1 0 0 1 372.858 121.531)" stroke="#00FFE0" stroke-width="2.07101"/>
<circle cx="202.505" cy="126.19" r="3.62426" stroke="#00FFE0" stroke-width="2.07101"/>
<circle cx="4.65976" cy="4.65976" r="3.62426" transform="matrix(-1 0 0 1 521.875 185.641)" stroke="#00FFE0" stroke-width="2.07101"/>
<circle cx="53.4894" cy="190.3" r="3.62426" stroke="#00FFE0" stroke-width="2.07101"/>
<circle cx="4.65976" cy="4.65976" r="3.62426" transform="matrix(-1 0 0 1 506.281 206.434)" stroke="#00FFE0" stroke-width="2.07101"/>
<circle cx="69.0831" cy="211.094" r="3.62426" stroke="#00FFE0" stroke-width="2.07101"/>
<circle cx="4.65976" cy="4.65976" r="3.62426" transform="matrix(-1 0 0 1 492.419 227.225)" stroke="#00FFE0" stroke-width="2.07101"/>
<circle cx="82.9454" cy="231.885" r="3.62426" stroke="#00FFE0" stroke-width="2.07101"/>
<circle cx="4.65976" cy="4.65976" r="3.62426" transform="matrix(-1 0 0 1 478.557 234.156)" stroke="#00FFE0" stroke-width="2.07101"/>
<circle cx="96.8077" cy="238.816" r="3.62426" stroke="#00FFE0" stroke-width="2.07101"/>
<circle cx="4.65976" cy="4.65976" r="3.62426" transform="matrix(-1 0 0 1 466.428 242.82)" stroke="#00FFE0" stroke-width="2.07101"/>
<circle cx="108.936" cy="247.48" r="3.62426" stroke="#00FFE0" stroke-width="2.07101"/>
<circle cx="4.65976" cy="4.65976" r="3.62426" transform="matrix(-1 0 0 1 504.549 246.287)" stroke="#00FFE0" stroke-width="2.07101"/>
<circle cx="70.815" cy="250.944" r="3.62426" stroke="#00FFE0" stroke-width="2.07101"/>
<circle cx="4.65976" cy="4.65976" r="3.62426" transform="matrix(-1 0 0 1 527.078 268.816)" stroke="#00FFE0" stroke-width="2.07101"/>
<circle cx="48.2882" cy="273.476" r="3.62426" stroke="#00FFE0" stroke-width="2.07101"/>
<circle cx="4.65976" cy="4.65976" r="3.62426" transform="matrix(-1 0 0 1 530.541 287.873)" stroke="#00FFE0" stroke-width="2.07101"/>
<circle cx="44.8268" cy="292.532" r="3.62426" stroke="#00FFE0" stroke-width="2.07101"/>
<circle cx="4.65976" cy="4.65976" r="3.62426" transform="matrix(-1 0 0 1 502.813 260.148)" stroke="#00FFE0" stroke-width="2.07101"/>
<circle cx="72.5504" cy="264.808" r="3.62426" stroke="#00FFE0" stroke-width="2.07101"/>
<circle cx="4.65976" cy="4.65976" r="3.62426" transform="matrix(-1 0 0 1 488.955 256.687)" stroke="#00FFE0" stroke-width="2.07101"/>
<circle cx="86.4088" cy="261.346" r="3.62426" stroke="#00FFE0" stroke-width="2.07101"/>
<circle cx="4.65976" cy="4.65976" r="3.62426" transform="matrix(-1 0 0 1 534.003 310.4)" stroke="#00FFE0" stroke-width="2.07101"/>
<circle cx="41.3629" cy="315.059" r="3.62426" stroke="#00FFE0" stroke-width="2.07101"/>
<circle cx="4.65976" cy="4.65976" r="3.62426" transform="matrix(-1 0 0 1 483.754 275.744)" stroke="#00FFE0" stroke-width="2.07101"/>
<circle cx="91.6085" cy="280.404" r="3.62426" stroke="#00FFE0" stroke-width="2.07101"/>
<circle cx="4.65976" cy="4.65976" r="3.62426" transform="matrix(-1 0 0 1 530.541 329.458)" stroke="#00FFE0" stroke-width="2.07101"/>
<circle cx="44.8268" cy="334.118" r="3.62426" stroke="#00FFE0" stroke-width="2.07101"/>
<circle cx="4.65976" cy="4.65976" r="3.62426" transform="matrix(-1 0 0 1 520.145 345.052)" stroke="#00FFE0" stroke-width="2.07101"/>
<circle cx="55.2208" cy="349.712" r="3.62426" stroke="#00FFE0" stroke-width="2.07101"/>
<circle cx="4.65976" cy="4.65976" r="3.62426" transform="matrix(-1 0 0 1 475.091 291.337)" stroke="#00FFE0" stroke-width="2.07101"/>
<circle cx="100.275" cy="295.997" r="3.62426" stroke="#00FFE0" stroke-width="2.07101"/>
<circle cx="4.65976" cy="4.65976" r="3.62426" transform="matrix(-1 0 0 1 459.495 291.337)" stroke="#00FFE0" stroke-width="2.07101"/>
<circle cx="115.869" cy="295.997" r="3.62426" stroke="#00FFE0" stroke-width="2.07101"/>
<circle cx="4.65976" cy="4.65976" r="3.62426" transform="matrix(-1 0 0 1 523.609 360.65)" stroke="#00FFE0" stroke-width="2.07101"/>
<circle cx="51.7555" cy="365.309" r="3.62426" stroke="#00FFE0" stroke-width="2.07101"/>
<circle cx="4.65976" cy="4.65976" r="3.62426" transform="matrix(-1 0 0 1 509.746 376.238)" stroke="#00FFE0" stroke-width="2.07101"/>
<circle cx="65.6197" cy="380.898" r="3.62426" stroke="#00FFE0" stroke-width="2.07101"/>
<circle cx="4.65976" cy="4.65976" r="3.62426" transform="matrix(-1 0 0 1 443.903 291.337)" stroke="#00FFE0" stroke-width="2.07101"/>
<circle cx="131.461" cy="295.997" r="3.62426" stroke="#00FFE0" stroke-width="2.07101"/>
<circle cx="4.65976" cy="4.65976" r="3.62426" transform="matrix(-1 0 0 1 445.637 254.951)" stroke="#00FFE0" stroke-width="2.07101"/>
<circle cx="129.728" cy="259.611" r="3.62426" stroke="#00FFE0" stroke-width="2.07101"/>
<circle cx="4.65976" cy="4.65976" r="3.62426" transform="matrix(-1 0 0 1 424.841 254.951)" stroke="#00FFE0" stroke-width="2.07101"/>
<circle cx="150.521" cy="259.611" r="3.62426" stroke="#00FFE0" stroke-width="2.07101"/>
<circle cx="4.65976" cy="4.65976" r="3.62426" transform="matrix(-1 0 0 1 424.841 270.546)" stroke="#00FFE0" stroke-width="2.07101"/>
<circle cx="150.521" cy="275.206" r="3.62426" stroke="#00FFE0" stroke-width="2.07101"/>
<circle cx="4.65976" cy="4.65976" r="3.62426" transform="matrix(-1 0 0 1 445.637 270.546)" stroke="#00FFE0" stroke-width="2.07101"/>
<circle cx="129.728" cy="275.206" r="3.62426" stroke="#00FFE0" stroke-width="2.07101"/>
<circle cx="4.65976" cy="4.65976" r="3.62426" transform="matrix(-1 0 0 1 412.713 265.344)" stroke="#00FFE0" stroke-width="2.07101"/>
<circle cx="162.651" cy="270.004" r="3.62426" stroke="#00FFE0" stroke-width="2.07101"/>
<circle cx="4.65976" cy="4.65976" r="3.62426" transform="matrix(-1 0 0 1 456.033 258.418)" stroke="#00FFE0" stroke-width="2.07101"/>
<circle cx="119.331" cy="263.077" r="3.62426" stroke="#00FFE0" stroke-width="2.07101"/>
<circle cx="4.65976" cy="4.65976" r="3.62426" transform="matrix(-1 0 0 1 476.827 265.344)" stroke="#00FFE0" stroke-width="2.07101"/>
<circle cx="98.5377" cy="270.004" r="3.62426" stroke="#00FFE0" stroke-width="2.07101"/>
<circle cx="4.65976" cy="4.65976" r="3.62426" transform="matrix(-1 0 0 1 407.518 286.142)" stroke="#00FFE0" stroke-width="2.07101"/>
<circle cx="167.847" cy="290.801" r="3.62426" stroke="#00FFE0" stroke-width="2.07101"/>
<circle cx="4.65976" cy="4.65976" r="3.62426" transform="matrix(-1 0 0 1 412.713 296.537)" stroke="#00FFE0" stroke-width="2.07101"/>
<circle cx="162.651" cy="301.196" r="3.62426" stroke="#00FFE0" stroke-width="2.07101"/>
<circle cx="4.65976" cy="4.65976" r="3.62426" transform="matrix(-1 0 0 1 433.508 296.537)" stroke="#00FFE0" stroke-width="2.07101"/>
<circle cx="141.856" cy="301.196" r="3.62426" stroke="#00FFE0" stroke-width="2.07101"/>
<circle cx="4.65976" cy="4.65976" r="3.62426" transform="matrix(-1 0 0 1 381.521 268.816)" stroke="#00FFE0" stroke-width="2.07101"/>
<circle cx="193.843" cy="273.476" r="3.62426" stroke="#00FFE0" stroke-width="2.07101"/>
<circle cx="4.65976" cy="4.65976" r="3.62426" transform="matrix(-1 0 0 1 367.663 258.418)" stroke="#00FFE0" stroke-width="2.07101"/>
<circle cx="207.701" cy="263.077" r="3.62426" stroke="#00FFE0" stroke-width="2.07101"/>
<circle cx="4.65976" cy="4.65976" r="3.62426" transform="matrix(-1 0 0 1 355.531 263.614)" stroke="#00FFE0" stroke-width="2.07101"/>
<circle cx="219.833" cy="268.274" r="3.62426" stroke="#00FFE0" stroke-width="2.07101"/>
<circle cx="4.65976" cy="4.65976" r="3.62426" transform="matrix(-1 0 0 1 319.146 249.75)" stroke="#00FFE0" stroke-width="2.07101"/>
<circle cx="256.222" cy="254.41" r="3.62426" stroke="#00FFE0" stroke-width="2.07101"/>
<circle cx="4.65976" cy="4.65976" r="3.62426" transform="matrix(-1 0 0 1 296.62 249.75)" stroke="#00FFE0" stroke-width="2.07101"/>
<circle cx="278.753" cy="254.41" r="3.62426" stroke="#00FFE0" stroke-width="2.07101"/>
<circle cx="290.883" cy="266.542" r="3.62426" stroke="#00FFE0" stroke-width="2.07101"/>
<circle cx="285.686" cy="287.337" r="3.62426" stroke="#00FFE0" stroke-width="2.07101"/>
<circle cx="287.42" cy="339.317" r="3.62426" stroke="#00FFE0" stroke-width="2.07101"/>
<circle cx="4.65976" cy="4.65976" r="3.62426" transform="matrix(-1 0 0 1 307.013 261.882)" stroke="#00FFE0" stroke-width="2.07101"/>
<circle cx="268.349" cy="266.542" r="3.62426" stroke="#00FFE0" stroke-width="2.07101"/>
<circle cx="4.65976" cy="4.65976" r="3.62426" transform="matrix(-1 0 0 1 322.609 261.882)" stroke="#00FFE0" stroke-width="2.07101"/>
<circle cx="252.755" cy="266.542" r="3.62426" stroke="#00FFE0" stroke-width="2.07101"/>
<circle cx="4.65976" cy="4.65976" r="3.62426" transform="matrix(-1 0 0 1 313.948 277.475)" stroke="#00FFE0" stroke-width="2.07101"/>
<circle cx="261.424" cy="282.134" r="3.62426" stroke="#00FFE0" stroke-width="2.07101"/>
<circle cx="4.65976" cy="4.65976" r="3.62426" transform="matrix(-1 0 0 1 473.359 355.449)" stroke="#00FFE0" stroke-width="2.07101"/>
<circle cx="102.005" cy="360.109" r="3.62426" stroke="#00FFE0" stroke-width="2.07101"/>
<circle cx="4.65976" cy="4.65976" r="3.62426" transform="matrix(-1 0 0 1 443.903 351.985)" stroke="#00FFE0" stroke-width="2.07101"/>
<circle cx="131.461" cy="356.645" r="3.62426" stroke="#00FFE0" stroke-width="2.07101"/>
<circle cx="4.65976" cy="4.65976" r="3.62426" transform="matrix(-1 0 0 1 495.886 388.369)" stroke="#00FFE0" stroke-width="2.07101"/>
<circle cx="79.4835" cy="393.029" r="3.62426" stroke="#00FFE0" stroke-width="2.07101"/>
<circle cx="4.65976" cy="4.65976" r="3.62426" transform="matrix(-1 0 0 1 490.685 417.826)" stroke="#00FFE0" stroke-width="2.07101"/>
<circle cx="84.6739" cy="422.486" r="3.62426" stroke="#00FFE0" stroke-width="2.07101"/>
<circle cx="4.65976" cy="4.65976" r="3.62426" transform="matrix(-1 0 0 1 478.557 398.766)" stroke="#00FFE0" stroke-width="2.07101"/>
<circle cx="96.8077" cy="403.426" r="3.62426" stroke="#00FFE0" stroke-width="2.07101"/>
<circle cx="4.65976" cy="4.65976" r="3.62426" transform="matrix(-1 0 0 1 464.69 433.423)" stroke="#00FFE0" stroke-width="2.07101"/>
<circle cx="110.673" cy="438.083" r="3.62426" stroke="#00FFE0" stroke-width="2.07101"/>
<circle cx="4.65976" cy="4.65976" r="3.62426" transform="matrix(-1 0 0 1 419.646 428.222)" stroke="#00FFE0" stroke-width="2.07101"/>
<circle cx="155.72" cy="432.882" r="3.62426" stroke="#00FFE0" stroke-width="2.07101"/>
<circle cx="4.65976" cy="4.65976" r="3.62426" transform="matrix(-1 0 0 1 412.713 381.441)" stroke="#00FFE0" stroke-width="2.07101"/>
<circle cx="162.651" cy="386.1" r="3.62426" stroke="#00FFE0" stroke-width="2.07101"/>
<circle cx="4.65976" cy="4.65976" r="3.62426" transform="matrix(-1 0 0 1 398.849 357.178)" stroke="#00FFE0" stroke-width="2.07101"/>
<circle cx="176.515" cy="361.838" r="3.62426" stroke="#00FFE0" stroke-width="2.07101"/>
<circle cx="4.65976" cy="4.65976" r="3.62426" transform="matrix(-1 0 0 1 350.335 329.458)" stroke="#00FFE0" stroke-width="2.07101"/>
<circle cx="225.032" cy="334.118" r="3.62426" stroke="#00FFE0" stroke-width="2.07101"/>
<circle cx="4.65976" cy="4.65976" r="3.62426" transform="matrix(-1 0 0 1 339.935 331.193)" stroke="#00FFE0" stroke-width="2.07101"/>
<circle cx="235.429" cy="335.853" r="3.62426" stroke="#00FFE0" stroke-width="2.07101"/>
<circle cx="4.65976" cy="4.65976" r="3.62426" transform="matrix(-1 0 0 1 357.266 343.321)" stroke="#00FFE0" stroke-width="2.07101"/>
<circle cx="218.098" cy="347.981" r="3.62426" stroke="#00FFE0" stroke-width="2.07101"/>
<circle cx="4.65976" cy="4.65976" r="3.62426" transform="matrix(-1 0 0 1 334.743 303.465)" stroke="#00FFE0" stroke-width="2.07101"/>
<circle cx="240.627" cy="308.125" r="3.62426" stroke="#00FFE0" stroke-width="2.07101"/>
<circle cx="4.65976" cy="4.65976" r="3.62426" transform="matrix(-1 0 0 1 327.81 291.337)" stroke="#00FFE0" stroke-width="2.07101"/>
<circle cx="247.56" cy="295.997" r="3.62426" stroke="#00FFE0" stroke-width="2.07101"/>
<circle cx="4.65976" cy="4.65976" r="3.62426" transform="matrix(-1 0 0 1 308.745 287.873)" stroke="#00FFE0" stroke-width="2.07101"/>
<circle cx="266.613" cy="292.532" r="3.62426" stroke="#00FFE0" stroke-width="2.07101"/>
<circle cx="4.65976" cy="4.65976" r="3.62426" transform="matrix(-1 0 0 1 338.205 322.528)" stroke="#00FFE0" stroke-width="2.07101"/>
<circle cx="237.159" cy="327.188" r="3.62426" stroke="#00FFE0" stroke-width="2.07101"/>
<circle cx="4.65976" cy="4.65976" r="3.62426" transform="matrix(-1 0 0 1 393.653 327.726)" stroke="#00FFE0" stroke-width="2.07101"/>
<circle cx="181.711" cy="332.385" r="3.62426" stroke="#00FFE0" stroke-width="2.07101"/>
<circle cx="4.65976" cy="4.65976" r="3.62426" transform="matrix(-1 0 0 1 378.056 282.677)" stroke="#00FFE0" stroke-width="2.07101"/>
<circle cx="197.31" cy="287.337" r="3.62426" stroke="#00FFE0" stroke-width="2.07101"/>
<circle cx="4.65976" cy="4.65976" r="3.62426" transform="matrix(-1 0 0 1 360.73 282.677)" stroke="#00FFE0" stroke-width="2.07101"/>
<circle cx="214.634" cy="287.337" r="3.62426" stroke="#00FFE0" stroke-width="2.07101"/>
<circle cx="4.65976" cy="4.65976" r="3.62426" transform="matrix(-1 0 0 1 367.663 272.279)" stroke="#00FFE0" stroke-width="2.07101"/>
<circle cx="207.701" cy="276.939" r="3.62426" stroke="#00FFE0" stroke-width="2.07101"/>
<circle cx="4.65976" cy="4.65976" r="3.62426" transform="matrix(-1 0 0 1 410.981 393.572)" stroke="#00FFE0" stroke-width="2.07101"/>
<circle cx="164.383" cy="398.232" r="3.62426" stroke="#00FFE0" stroke-width="2.07101"/>
<circle cx="4.65976" cy="4.65976" r="3.62426" transform="matrix(-1 0 0 1 398.849 397.035)" stroke="#00FFE0" stroke-width="2.07101"/>
<circle cx="176.515" cy="401.695" r="3.62426" stroke="#00FFE0" stroke-width="2.07101"/>
<circle cx="4.65976" cy="4.65976" r="3.62426" transform="matrix(-1 0 0 1 395.385 383.172)" stroke="#00FFE0" stroke-width="2.07101"/>
<circle cx="179.979" cy="387.832" r="3.62426" stroke="#00FFE0" stroke-width="2.07101"/>
<circle cx="4.65976" cy="4.65976" r="3.62426" transform="matrix(-1 0 0 1 369.393 248.02)" stroke="#00FFE0" stroke-width="2.07101"/>
<circle cx="205.971" cy="252.68" r="3.62426" stroke="#00FFE0" stroke-width="2.07101"/>
<circle cx="4.65976" cy="4.65976" r="3.62426" transform="matrix(-1 0 0 1 343.404 222.031)" stroke="#00FFE0" stroke-width="2.07101"/>
<circle cx="231.96" cy="226.691" r="3.62426" stroke="#00FFE0" stroke-width="2.07101"/>
<circle cx="4.65976" cy="4.65976" r="3.62426" transform="matrix(-1 0 0 1 395.385 197.774)" stroke="#00FFE0" stroke-width="2.07101"/>
<circle cx="179.979" cy="202.432" r="3.62426" stroke="#00FFE0" stroke-width="2.07101"/>
<circle cx="9.53008" cy="9.53008" r="8.49457" transform="matrix(-1 0 0 1 296.62 157.917)" stroke="#00FFE0" stroke-width="2.07101"/>
</svg>
