<svg width="246" height="246" viewBox="0 0 246 246" fill="none" xmlns="http://www.w3.org/2000/svg">
<path fill-rule="evenodd" clip-rule="evenodd" d="M70.2228 158.313H115.444V112.909C115.444 67.5015 70.2228 67.5015 70.2228 67.5015C29.8001 67.5015 25.0021 97.7467 25.0021 112.905C25.0021 158.313 70.2228 158.313 70.2228 158.313Z" fill="#FF2424"/>
<path fill-rule="evenodd" clip-rule="evenodd" d="M85.3494 158.373H115.139V186.031C115.139 213.692 85.3494 213.692 85.3494 213.692C58.7204 213.692 55.5597 195.268 55.5597 186.034C55.5597 158.373 85.3494 158.373 85.3494 158.373Z" fill="#FF2424"/>
<path d="M115.139 158.373H85.3494V153.5L107 150L115.139 158.373Z" fill="#FF2424"/>
<path fill-rule="evenodd" clip-rule="evenodd" d="M131.187 157.658L160.977 157.661C160.977 157.661 190.767 157.661 190.767 185.321C190.767 194.555 187.606 212.979 160.977 212.979C160.977 212.979 131.187 212.979 131.187 185.319V157.658Z" fill="#FF2424"/>
<path d="M131.187 157.658H128L131.187 185.319V157.658Z" fill="#FF2424"/>
<path fill-rule="evenodd" clip-rule="evenodd" d="M176.473 158.313L130.5 158.317V112.909C130.5 67.5015 176.473 67.5015 176.473 67.5015C216.567 67.5015 221.326 97.7467 221.326 112.905C221.326 158.313 176.473 158.313 176.473 158.313Z" fill="#FF2424"/>
<path d="M83 32C101.828 47.3092 122.872 79.65 122.872 91.1319C122.872 79.65 143.916 47.3092 162.744 32" stroke="#FF2424" stroke-linecap="round"/>
<path d="M114.96 98.626C114.96 94.1694 118.573 90.5566 123.03 90.5566V90.5566C127.486 90.5566 131.099 94.1694 131.099 98.626V186.202H114.96V98.626Z" fill="#FF2424"/>
<path d="M131.099 186.202H114.96C114.96 193.411 119.549 206.773 122.871 209.586C125.878 206.949 131.099 193.586 131.099 186.202Z" fill="#FF2424"/>
</svg>
